<svg width="180" height="52" viewBox="0 0 180 52" fill="none" xmlns="http://www.w3.org/2000/svg">
<rect width="180" height="52" rx="8" fill="#3E4265"/>
<path d="M43.5695 25.8087C43.5334 21.899 46.8529 19.9968 47.0047 19.9083C45.1247 17.2359 42.2108 16.8707 41.1869 16.8416C38.7395 16.5905 36.3656 18.2694 35.119 18.2694C33.8474 18.2694 31.9276 16.8659 29.8585 16.9071C27.196 16.9472 24.7051 18.4502 23.339 20.7841C20.5197 25.5431 22.6223 32.5365 25.3235 36.3832C26.6747 38.2671 28.2535 40.3706 30.3201 40.2966C32.3419 40.2153 33.0972 39.0398 35.537 39.0398C37.9545 39.0398 38.6637 40.2966 40.7713 40.2493C42.9412 40.2153 44.3073 38.3569 45.6112 36.456C47.1727 34.2967 47.7997 32.1701 47.8246 32.061C47.7736 32.044 43.6105 30.4949 43.5695 25.8087Z" fill="white"/>
<path d="M39.5881 14.3111C40.6755 12.9852 41.4195 11.1814 41.213 9.35083C39.6391 9.41876 37.6708 10.4123 36.5373 11.7091C35.5345 12.8518 34.6387 14.7248 34.8701 16.4862C36.6381 16.6148 38.4534 15.6164 39.5881 14.3111Z" fill="white"/>
<path d="M72.7596 40.0261H69.934L68.3863 35.2842H63.0064L61.532 40.0261H58.7811L64.1112 23.8824H67.4033L72.7596 40.0261ZM67.9197 33.2947L66.52 29.0793C66.3719 28.6486 66.0945 27.6345 65.6851 26.0381H65.6354C65.4724 26.7247 65.2098 27.7388 64.849 29.0793L63.4742 33.2947H67.9197Z" fill="white"/>
<path d="M86.4668 34.0626C86.4668 36.0424 85.9181 37.6073 84.8207 38.7561C83.8378 39.7787 82.6173 40.2894 81.1603 40.2894C79.5877 40.2894 78.458 39.7386 77.7699 38.6372H77.7201V44.7693H75.0675V32.2175C75.0675 30.9729 75.034 29.6955 74.9693 28.3854H77.3021L77.4502 30.2305H77.4999C78.3845 28.8403 79.727 28.1464 81.5286 28.1464C82.937 28.1464 84.1128 28.6887 85.0534 29.7744C85.9965 30.8613 86.4668 32.2903 86.4668 34.0626ZM83.7644 34.1573C83.7644 33.0242 83.5031 32.0902 82.9781 31.355C82.4045 30.5884 81.6344 30.205 80.6689 30.205C80.0144 30.205 79.4197 30.4185 78.8884 30.8395C78.3559 31.264 78.0076 31.8184 77.8446 32.505C77.7625 32.8253 77.7214 33.0873 77.7214 33.2935V35.2345C77.7214 36.0812 77.9877 36.7957 78.5202 37.3792C79.0527 37.9627 79.7444 38.2538 80.5955 38.2538C81.5946 38.2538 82.3722 37.8778 82.9283 37.1281C83.4857 36.3772 83.7644 35.3873 83.7644 34.1573Z" fill="white"/>
<path d="M100.199 34.0626C100.199 36.0424 99.6502 37.6073 98.5516 38.7561C97.5699 39.7787 96.3494 40.2894 94.8924 40.2894C93.3198 40.2894 92.1901 39.7386 91.5033 38.6372H91.4535V44.7693H88.8009V32.2175C88.8009 30.9729 88.7673 29.6955 88.7026 28.3854H91.0355L91.1835 30.2305H91.2333C92.1167 28.8403 93.4591 28.1464 95.262 28.1464C96.6692 28.1464 97.8449 28.6887 98.788 29.7744C99.7274 30.8613 100.199 32.2903 100.199 34.0626ZM97.4965 34.1573C97.4965 33.0242 97.234 32.0902 96.709 31.355C96.1354 30.5884 95.3677 30.205 94.401 30.205C93.7453 30.205 93.1518 30.4185 92.6193 30.8395C92.0868 31.264 91.7397 31.8184 91.5767 32.505C91.4958 32.8253 91.4535 33.0873 91.4535 33.2935V35.2345C91.4535 36.0812 91.7198 36.7957 92.2498 37.3792C92.7823 37.9615 93.4741 38.2538 94.3276 38.2538C95.3267 38.2538 96.1043 37.8778 96.6604 37.1281C97.2178 36.3772 97.4965 35.3873 97.4965 34.1573Z" fill="white"/>
<path d="M115.552 35.4989C115.552 36.8721 115.063 37.9894 114.082 38.8519C113.003 39.7944 111.501 40.2651 109.571 40.2651C107.79 40.2651 106.361 39.9303 105.28 39.2595L105.895 37.1038C107.059 37.7904 108.337 38.1349 109.729 38.1349C110.728 38.1349 111.506 37.9142 112.065 37.475C112.621 37.0359 112.898 36.4463 112.898 35.7112C112.898 35.0561 112.669 34.5042 112.21 34.0566C111.754 33.6089 110.991 33.1928 109.926 32.8083C107.027 31.7541 105.579 30.2099 105.579 28.1792C105.579 26.8521 106.086 25.7639 107.103 24.9172C108.116 24.0692 109.467 23.6459 111.156 23.6459C112.663 23.6459 113.915 23.9018 114.914 24.4125L114.251 26.5209C113.318 26.0259 112.263 25.7785 111.082 25.7785C110.149 25.7785 109.42 26.0029 108.897 26.4493C108.455 26.8484 108.234 27.3349 108.234 27.9111C108.234 28.5492 108.486 29.0768 108.994 29.4917C109.436 29.8751 110.238 30.2899 111.403 30.7376C112.827 31.2968 113.874 31.9506 114.547 32.7003C115.218 33.4476 115.552 34.3829 115.552 35.4989Z" fill="white"/>
<path d="M124.322 30.3263H121.399V35.9781C121.399 37.4156 121.914 38.1337 122.946 38.1337C123.42 38.1337 123.814 38.0937 124.125 38.0136L124.198 39.9776C123.675 40.1681 122.987 40.2639 122.135 40.2639C121.088 40.2639 120.269 39.9521 119.678 39.3298C119.089 38.7063 118.793 37.6606 118.793 36.1916V30.3239H117.051V28.383H118.793V26.2516L121.399 25.4849V28.383H124.322V30.3263Z" fill="white"/>
<path d="M137.515 34.1099C137.515 35.8992 136.99 37.3683 135.942 38.5171C134.843 39.6998 133.385 40.2894 131.567 40.2894C129.816 40.2894 128.421 39.7229 127.381 38.5898C126.341 37.4568 125.82 36.0266 125.82 34.3028C125.82 32.499 126.355 31.0214 127.429 29.8726C128.5 28.7226 129.946 28.1476 131.764 28.1476C133.516 28.1476 134.925 28.7141 135.989 29.8484C137.007 30.9486 137.515 32.3692 137.515 34.1099ZM134.762 34.1936C134.762 33.12 134.527 32.1993 134.051 31.4314C133.495 30.5022 132.7 30.0388 131.669 30.0388C130.603 30.0388 129.793 30.5034 129.237 31.4314C128.76 32.2005 128.525 33.1358 128.525 34.2422C128.525 35.3157 128.76 36.2365 129.237 37.0031C129.811 37.9324 130.612 38.3958 131.646 38.3958C132.659 38.3958 133.454 37.9226 134.027 36.9789C134.516 36.1964 134.762 35.266 134.762 34.1936Z" fill="white"/>
<path d="M146.137 30.6599C145.874 30.6126 145.594 30.5884 145.301 30.5884C144.368 30.5884 143.646 30.9317 143.138 31.6195C142.697 32.226 142.475 32.9927 142.475 33.9183V40.0261H139.824L139.849 32.0513C139.849 30.7097 139.815 29.4881 139.749 28.3866H142.06L142.157 30.6138H142.23C142.51 29.8484 142.952 29.2321 143.556 28.7699C144.147 28.3539 144.786 28.1464 145.474 28.1464C145.719 28.1464 145.94 28.1634 146.137 28.1937V30.6599Z" fill="white"/>
<path d="M158 33.655C158 34.1184 157.969 34.509 157.903 34.8281H149.945C149.976 35.9781 150.361 36.8576 151.1 37.4641C151.771 38.0063 152.638 38.2781 153.703 38.2781C154.881 38.2781 155.956 38.0949 156.923 37.7273L157.338 39.5227C156.209 40.0031 154.875 40.2421 153.336 40.2421C151.484 40.2421 150.031 39.7107 148.974 38.6493C147.919 37.5878 147.39 36.1625 147.39 34.3744C147.39 32.619 147.881 31.1573 148.865 29.9915C149.896 28.7469 151.288 28.1246 153.04 28.1246C154.76 28.1246 156.063 28.7469 156.948 29.9915C157.648 30.9802 158 32.203 158 33.655ZM155.471 32.9842C155.488 32.2175 155.315 31.5552 154.956 30.9959C154.497 30.2766 153.791 29.9175 152.842 29.9175C151.975 29.9175 151.269 30.2681 150.73 30.9717C150.289 31.5309 150.026 32.2017 149.945 32.983H155.471V32.9842Z" fill="white"/>
<path d="M67.0426 13.9511C67.0426 15.3789 66.6034 16.4537 65.7262 17.1755C64.9138 17.8415 63.7592 18.1751 62.2637 18.1751C61.5221 18.1751 60.8876 18.1435 60.3563 18.0804V10.2791C61.0493 10.1699 61.7959 10.1141 62.6021 10.1141C64.0267 10.1141 65.1004 10.4162 65.8245 11.0203C66.6357 11.7033 67.0426 12.6798 67.0426 13.9511ZM65.6678 13.9863C65.6678 13.0607 65.4164 12.3511 64.9138 11.8561C64.4111 11.3624 63.6771 11.1149 62.7103 11.1149C62.2997 11.1149 61.9501 11.1416 61.6602 11.1974V17.1282C61.8207 17.1524 62.1144 17.1634 62.5411 17.1634C63.539 17.1634 64.3091 16.8928 64.8516 16.3518C65.394 15.8108 65.6678 15.0223 65.6678 13.9863Z" fill="white"/>
<path d="M74.3323 15.1982C74.3323 16.0776 74.0747 16.7982 73.5597 17.3635C73.0197 17.9446 72.3043 18.2345 71.4109 18.2345C70.55 18.2345 69.8644 17.9567 69.3531 17.3987C68.8429 16.8419 68.5879 16.1395 68.5879 15.2928C68.5879 14.4072 68.8504 13.6806 69.3779 13.1165C69.9055 12.5524 70.6147 12.2698 71.508 12.2698C72.369 12.2698 73.0607 12.5476 73.5845 13.1044C74.0822 13.6454 74.3323 14.3441 74.3323 15.1982ZM72.9799 15.2394C72.9799 14.7117 72.8629 14.2592 72.6302 13.882C72.3565 13.4258 71.9671 13.1978 71.4607 13.1978C70.9369 13.1978 70.5388 13.4258 70.265 13.882C70.0311 14.2592 69.9154 14.719 69.9154 15.2625C69.9154 15.7901 70.0324 16.2426 70.265 16.6199C70.5475 17.076 70.9406 17.3041 71.4483 17.3041C71.9459 17.3041 72.3366 17.0724 72.6178 16.6078C72.8592 16.2232 72.9799 15.7671 72.9799 15.2394Z" fill="white"/>
<path d="M84.1066 12.3862L82.2715 18.1047H81.077L80.3168 15.6215C80.124 15.0016 79.9672 14.3854 79.8453 13.774H79.8216C79.7084 14.4024 79.5517 15.0174 79.3501 15.6215L78.5426 18.1047H77.3345L75.6088 12.3862H76.9488L77.612 15.1048C77.7725 15.7477 77.9044 16.3603 78.0101 16.9401H78.0337C78.1308 16.4622 78.2913 15.8532 78.5177 15.1169L79.3501 12.3874H80.4126L81.2102 15.0587C81.403 15.7101 81.5598 16.3372 81.6805 16.9414H81.7165C81.8049 16.353 81.938 15.7258 82.1147 15.0587L82.8264 12.3874H84.1066V12.3862Z" fill="white"/>
<path d="M90.8663 18.1047H89.5624V14.8294C89.5624 13.8201 89.1692 13.3155 88.3804 13.3155C87.9935 13.3155 87.6812 13.4538 87.4386 13.7315C87.1984 14.0093 87.0765 14.3369 87.0765 14.7117V18.1035H85.7726V14.0203C85.7726 13.518 85.7564 12.9734 85.7253 12.3838H86.8712L86.9322 13.2779H86.9683C87.1201 13.0001 87.3465 12.7708 87.6439 12.5876C87.9972 12.3741 88.3929 12.2661 88.8258 12.2661C89.3733 12.2661 89.8286 12.4384 90.1907 12.7841C90.6411 13.2075 90.8663 13.8395 90.8663 14.679V18.1047Z" fill="white"/>
<path d="M94.462 18.1047H93.1594V9.76233H94.462V18.1047Z" fill="white"/>
<path d="M102.139 15.1982C102.139 16.0776 101.881 16.7982 101.366 17.3635C100.826 17.9446 100.109 18.2345 99.2173 18.2345C98.3551 18.2345 97.6695 17.9567 97.1594 17.3987C96.6493 16.8419 96.3942 16.1395 96.3942 15.2928C96.3942 14.4072 96.6568 13.6806 97.1843 13.1165C97.7118 12.5524 98.421 12.2698 99.3131 12.2698C100.175 12.2698 100.866 12.5476 101.391 13.1044C101.889 13.6454 102.139 14.3441 102.139 15.1982ZM100.785 15.2394C100.785 14.7117 100.668 14.2592 100.435 13.882C100.163 13.4258 99.7722 13.1978 99.2671 13.1978C98.742 13.1978 98.3439 13.4258 98.0714 13.882C97.8375 14.2592 97.7218 14.719 97.7218 15.2625C97.7218 15.7901 97.8387 16.2426 98.0714 16.6199C98.3538 17.076 98.747 17.3041 99.2546 17.3041C99.7523 17.3041 100.142 17.0724 100.423 16.6078C100.666 16.2232 100.785 15.7671 100.785 15.2394Z" fill="white"/>
<path d="M108.449 18.1047H107.278L107.181 17.446H107.145C106.745 17.9713 106.174 18.2345 105.432 18.2345C104.878 18.2345 104.43 18.061 104.093 17.7165C103.787 17.4035 103.634 17.0141 103.634 16.552C103.634 15.8532 103.933 15.3207 104.534 14.9519C105.133 14.5831 105.977 14.4024 107.063 14.4109V14.3041C107.063 13.5508 106.658 13.1747 105.845 13.1747C105.267 13.1747 104.756 13.3167 104.316 13.5981L104.051 12.7635C104.596 12.4348 105.269 12.2698 106.063 12.2698C107.596 12.2698 108.365 13.0583 108.365 14.6353V16.7412C108.365 17.3126 108.393 17.7675 108.449 18.1047ZM107.095 16.1395V15.2576C105.657 15.2333 104.938 15.6179 104.938 16.41C104.938 16.7084 105.02 16.9317 105.188 17.0809C105.356 17.2301 105.57 17.3041 105.825 17.3041C106.111 17.3041 106.379 17.2155 106.623 17.0396C106.868 16.8625 107.018 16.6381 107.074 16.3627C107.088 16.3009 107.095 16.2256 107.095 16.1395Z" fill="white"/>
<path d="M115.858 18.1047H114.701L114.64 17.1864H114.604C114.235 17.8851 113.605 18.2345 112.72 18.2345C112.014 18.2345 111.425 17.964 110.959 17.423C110.492 16.8819 110.259 16.1795 110.259 15.317C110.259 14.3915 110.512 13.6418 111.02 13.0692C111.511 12.5354 112.113 12.2686 112.83 12.2686C113.618 12.2686 114.169 12.5269 114.482 13.0449H114.507V9.76233H115.812V16.5641C115.812 17.1209 115.827 17.634 115.858 18.1047ZM114.507 15.6931V14.7396C114.507 14.5746 114.495 14.4412 114.471 14.3393C114.398 14.0336 114.24 13.7764 114 13.569C113.757 13.3615 113.464 13.2572 113.127 13.2572C112.641 13.2572 112.26 13.4453 111.98 13.8225C111.703 14.1998 111.562 14.6814 111.562 15.2697C111.562 15.835 111.695 16.2936 111.963 16.6466C112.245 17.0226 112.626 17.2107 113.102 17.2107C113.53 17.2107 113.873 17.0542 114.133 16.74C114.384 16.4501 114.507 16.1007 114.507 15.6931Z" fill="white"/>
<path d="M127.01 15.1982C127.01 16.0776 126.752 16.7982 126.237 17.3635C125.697 17.9446 124.983 18.2345 124.089 18.2345C123.229 18.2345 122.543 17.9567 122.031 17.3987C121.521 16.8419 121.266 16.1395 121.266 15.2928C121.266 14.4072 121.528 13.6806 122.056 13.1165C122.583 12.5524 123.292 12.2698 124.187 12.2698C125.047 12.2698 125.74 12.5476 126.262 13.1044C126.76 13.6454 127.01 14.3441 127.01 15.1982ZM125.659 15.2394C125.659 14.7117 125.542 14.2592 125.309 13.882C125.034 13.4258 124.646 13.1978 124.138 13.1978C123.616 13.1978 123.218 13.4258 122.943 13.882C122.709 14.2592 122.593 14.719 122.593 15.2625C122.593 15.7901 122.71 16.2426 122.943 16.6199C123.225 17.076 123.618 17.3041 124.126 17.3041C124.624 17.3041 125.016 17.0724 125.297 16.6078C125.537 16.2232 125.659 15.7671 125.659 15.2394Z" fill="white"/>
<path d="M134.021 18.1047H132.718V14.8294C132.718 13.8201 132.325 13.3155 131.535 13.3155C131.148 13.3155 130.836 13.4538 130.594 13.7315C130.353 14.0093 130.232 14.3369 130.232 14.7117V18.1035H128.927V14.0203C128.927 13.518 128.912 12.9734 128.881 12.3838H130.026L130.087 13.2779H130.123C130.276 13.0001 130.502 12.7708 130.799 12.5876C131.153 12.3741 131.548 12.2661 131.982 12.2661C132.528 12.2661 132.983 12.4384 133.345 12.7841C133.797 13.2075 134.021 13.8395 134.021 14.679V18.1047Z" fill="white"/>
<path d="M142.796 13.3385H141.36V16.1165C141.36 16.8225 141.616 17.1755 142.121 17.1755C142.355 17.1755 142.549 17.1561 142.702 17.116L142.735 18.0805C142.478 18.1751 142.139 18.2224 141.723 18.2224C141.207 18.2224 140.807 18.0695 140.517 17.7638C140.226 17.4581 140.081 16.9438 140.081 16.222V13.3385H139.224V12.3862H140.081V11.3381L141.359 10.9621V12.385H142.795V13.3385H142.796Z" fill="white"/>
<path d="M149.699 18.1047H148.394V14.8536C148.394 13.8286 148.001 13.3154 147.213 13.3154C146.608 13.3154 146.195 13.6127 145.969 14.2071C145.93 14.332 145.908 14.4849 145.908 14.6644V18.1035H144.605V9.76233H145.908V13.2087H145.933C146.343 12.5815 146.932 12.2686 147.695 12.2686C148.235 12.2686 148.681 12.4408 149.036 12.7865C149.478 13.2172 149.699 13.8577 149.699 14.7044V18.1047Z" fill="white"/>
<path d="M156.819 14.9749C156.819 15.203 156.802 15.3947 156.771 15.5512H152.86C152.878 16.1165 153.065 16.5471 153.427 16.8455C153.758 17.1124 154.184 17.2458 154.707 17.2458C155.285 17.2458 155.813 17.1561 156.288 16.9753L156.492 17.8584C155.936 18.0938 155.282 18.2115 154.524 18.2115C153.616 18.2115 152.9 17.9506 152.383 17.429C151.863 16.9074 151.605 16.2074 151.605 15.3292C151.605 14.4667 151.845 13.7485 152.329 13.1759C152.834 12.5645 153.517 12.2589 154.38 12.2589C155.223 12.2589 155.864 12.5645 156.297 13.1759C156.647 13.6612 156.819 14.2617 156.819 14.9749ZM155.575 14.6462C155.585 14.2689 155.499 13.9438 155.323 13.6697C155.096 13.3167 154.752 13.1396 154.285 13.1396C153.86 13.1396 153.512 13.3118 153.247 13.6575C153.031 13.9329 152.903 14.2617 152.86 14.6462H155.575Z" fill="white"/>
</svg>
