<svg width="180" height="52" viewBox="0 0 180 52" fill="none" xmlns="http://www.w3.org/2000/svg">
<rect width="144" height="41.6" rx="8" transform="matrix(1.25 0 0 -1.25 0 52)" fill="#3E4265"/>
<path d="M66.505 14.9594C66.505 15.9108 66.2133 16.6728 65.6386 17.241C64.9777 17.9147 64.1171 18.2537 63.0624 18.2537C62.0544 18.2537 61.1938 17.909 60.4877 17.2296C59.7803 16.5403 59.4272 15.6943 59.4272 14.6817C59.4272 13.6691 59.7803 12.8231 60.4877 12.1395C61.1938 11.4544 62.0544 11.1097 63.0624 11.1097C63.5642 11.1097 64.0427 11.2109 64.4993 11.3989C64.9544 11.5883 65.3249 11.8446 65.5933 12.1608L64.9836 12.7618C64.5153 12.2221 63.8779 11.9557 63.0624 11.9557C62.3272 11.9557 61.6898 12.2064 61.1486 12.712C60.6132 13.219 60.3448 13.8756 60.3448 14.6817C60.3448 15.4878 60.6132 16.1501 61.1486 16.6571C61.6898 17.157 62.3272 17.4134 63.0624 17.4134C63.8428 17.4134 64.4993 17.157 65.0171 16.6514C65.3585 16.3167 65.5525 15.8553 65.6035 15.2656H63.0624V14.4424H66.4525C66.4934 14.6205 66.505 14.7928 66.505 14.9594Z" fill="white"/>
<path d="M71.8834 12.1053H68.699V14.2701H71.5698V15.0933H68.699V17.2581H71.8834V18.097H67.7975V11.2664H71.8834V12.1053Z" fill="white"/>
<path d="M75.679 18.097H74.7775V12.1053H72.8243V11.2664H77.6337V12.1053H75.679V18.097Z" fill="white"/>
<path d="M81.1143 18.097V11.2664H82.0143V18.097H81.1143Z" fill="white"/>
<path d="M86.004 18.097H85.1098V12.1053H83.1492V11.2664H87.9645V12.1053H86.004V18.097Z" fill="white"/>
<path d="M97.07 17.2183C96.38 17.909 95.5252 18.2537 94.5055 18.2537C93.48 18.2537 92.6252 17.909 91.9352 17.2183C91.2467 16.5289 90.9039 15.6829 90.9039 14.6817C90.9039 13.6805 91.2467 12.8345 91.9352 12.1452C92.6252 11.4544 93.48 11.1097 94.5055 11.1097C95.5193 11.1097 96.3742 11.4544 97.0642 12.1509C97.7585 12.8459 98.1013 13.6862 98.1013 14.6817C98.1013 15.6829 97.7585 16.5289 97.07 17.2183ZM92.6019 16.6457C93.1212 17.157 93.7528 17.4134 94.5055 17.4134C95.2524 17.4134 95.8899 17.157 96.4033 16.6457C96.9212 16.1344 97.1838 15.4778 97.1838 14.6817C97.1838 13.8856 96.9212 13.229 96.4033 12.7177C95.8899 12.2064 95.2524 11.95 94.5055 11.95C93.7528 11.95 93.1212 12.2064 92.6019 12.7177C92.084 13.229 91.8214 13.8856 91.8214 14.6817C91.8214 15.4778 92.084 16.1344 92.6019 16.6457Z" fill="white"/>
<path d="M99.366 18.097V11.2664H100.46L103.862 16.5788H103.901L103.862 15.2656V11.2664H104.762V18.097H103.822L100.26 12.5226H100.221L100.26 13.8414V18.097H99.366Z" fill="white"/>
<path d="M90.6822 28.0725C87.9413 28.0725 85.7021 30.1091 85.7021 32.9191C85.7021 35.7063 87.9413 37.7643 90.6822 37.7643C93.429 37.7643 95.6682 35.7063 95.6682 32.9191C95.6682 30.1091 93.429 28.0725 90.6822 28.0725ZM90.6822 35.8559C89.1783 35.8559 87.8844 34.6439 87.8844 32.9191C87.8844 31.1716 89.1783 29.9809 90.6822 29.9809C92.1862 29.9809 93.4859 31.1716 93.4859 32.9191C93.4859 34.6439 92.1862 35.8559 90.6822 35.8559ZM79.8161 28.0725C77.0693 28.0725 74.836 30.1091 74.836 32.9191C74.836 35.7063 77.0693 37.7643 79.8161 37.7643C82.5614 37.7643 84.7962 35.7063 84.7962 32.9191C84.7962 30.1091 82.5614 28.0725 79.8161 28.0725ZM79.8161 35.8559C78.3107 35.8559 77.0124 34.6439 77.0124 32.9191C77.0124 31.1716 78.3107 29.9809 79.8161 29.9809C81.32 29.9809 82.6139 31.1716 82.6139 32.9191C82.6139 34.6439 81.32 35.8559 79.8161 35.8559ZM66.8858 29.5579V31.6174H71.9229C71.7755 32.7682 71.3817 33.6141 70.7777 34.2038C70.0425 34.9159 68.8974 35.7063 66.8858 35.7063C63.786 35.7063 61.3587 33.2638 61.3587 30.2373C61.3587 27.2108 63.786 24.7683 66.8858 24.7683C68.5619 24.7683 69.7814 25.4077 70.6815 26.2366L72.1679 24.7854C70.909 23.6118 69.2344 22.7103 66.8858 22.7103C62.6351 22.7103 59.0626 26.0871 59.0626 30.2373C59.0626 34.3875 62.6351 37.7643 66.8858 37.7643C69.1833 37.7643 70.909 37.0294 72.2657 35.6508C73.6558 34.2935 74.0891 32.385 74.0891 30.844C74.0891 30.3655 74.0482 29.9254 73.9753 29.5579H66.8858ZM119.759 31.1545C119.349 30.0707 118.085 28.0725 115.508 28.0725C112.956 28.0725 110.83 30.0365 110.83 32.9191C110.83 35.6337 112.934 37.7643 115.754 37.7643C118.034 37.7643 119.349 36.4071 119.891 35.6166L118.198 34.5157C117.634 35.3218 116.865 35.8559 115.754 35.8559C114.649 35.8559 113.857 35.3617 113.35 34.3875L119.988 31.7057L119.759 31.1545ZM112.991 32.7682C112.934 30.8996 114.477 29.9425 115.583 29.9425C116.449 29.9425 117.185 30.3655 117.43 30.9708L112.991 32.7682ZM107.595 37.4695H109.777V23.2273H107.595V37.4695ZM104.021 29.152H103.948C103.458 28.5852 102.523 28.0725 101.338 28.0725C98.8526 28.0725 96.5799 30.2031 96.5799 32.9348C96.5799 35.6508 98.8526 37.7643 101.338 37.7643C102.523 37.7643 103.458 37.2473 103.948 36.6634H104.021V37.3584C104.021 39.2114 103.007 40.2069 101.372 40.2069C100.039 40.2069 99.2115 39.2669 98.8701 38.4765L96.9723 39.2498C97.5193 40.5345 98.9678 42.1154 101.372 42.1154C103.93 42.1154 106.089 40.6456 106.089 37.0693V28.3673H104.021V29.152ZM101.525 35.8559C100.021 35.8559 98.7622 34.6268 98.7622 32.9348C98.7622 31.2271 100.021 29.9809 101.525 29.9809C103.007 29.9809 104.176 31.2271 104.176 32.9348C104.176 34.6268 103.007 35.8559 101.525 35.8559ZM129.976 23.2273H124.757V37.4695H126.933V32.0731H129.976C132.393 32.0731 134.764 30.3655 134.764 27.6495C134.764 24.9349 132.388 23.2273 129.976 23.2273ZM130.033 30.092H126.933V25.2084H130.033C131.658 25.2084 132.586 26.5258 132.586 27.6495C132.586 28.7518 131.658 30.092 130.033 30.092ZM143.487 28.0454C141.915 28.0454 140.279 28.7233 139.607 30.2259L141.538 31.0164C141.954 30.2259 142.718 29.9695 143.526 29.9695C144.656 29.9695 145.801 30.6318 145.818 31.8011V31.9506C145.424 31.7285 144.581 31.3995 143.544 31.3995C141.464 31.3995 139.344 32.5175 139.344 34.604C139.344 36.5124 141.048 37.7416 142.963 37.7416C144.428 37.7416 145.236 37.0964 145.744 36.3458H145.818V37.4467H147.92V31.9834C147.92 29.4583 145.989 28.0454 143.487 28.0454ZM143.224 35.8502C142.513 35.8502 141.521 35.5055 141.521 34.6439C141.521 33.5415 142.758 33.1185 143.828 33.1185C144.787 33.1185 145.236 33.325 145.818 33.5971C145.647 34.9159 144.485 35.8502 143.224 35.8502ZM155.579 28.3573L153.077 34.5313H153.002L150.416 28.3573H148.069L151.955 36.9853L149.738 41.7864H152.012L158 28.3573H155.579ZM135.96 37.4695H138.142V23.2273H135.96V37.4695Z" fill="white"/>
<path d="M22.5412 11.8776C22.1984 12.2279 22 12.7734 22 13.4798V38.6773C22 39.3837 22.1984 39.9292 22.5412 40.2795L22.6258 40.3564L37.0877 26.2424V25.9091L22.6258 11.795L22.5412 11.8776Z" fill="url(#paint0_linear_4638_218977)"/>
<path d="M41.9027 30.9492L37.0874 26.2421V25.9089L41.9085 21.2018L42.0165 21.263L47.726 24.4348C49.3554 25.3349 49.3554 26.8161 47.726 27.7219L42.0165 30.888L41.9027 30.9492Z" fill="url(#paint1_linear_4638_218977)"/>
<path d="M42.0161 30.888L37.0871 26.0756L22.5405 40.2794C23.0817 40.8348 23.9643 40.9018 24.9679 40.3463L42.0161 30.888Z" fill="url(#paint2_linear_4638_218977)"/>
<path d="M42.0161 21.2632L24.9679 11.8049C23.9643 11.2552 23.0817 11.3221 22.5405 11.8776L37.0871 26.0757L42.0161 21.2632Z" fill="url(#paint3_linear_4638_218977)"/>
<defs>
<linearGradient id="paint0_linear_4638_218977" x1="35.8037" y1="38.9397" x2="16.6876" y2="19.3604" gradientUnits="userSpaceOnUse">
<stop stop-color="#00A0FF"/>
<stop offset="0.0066" stop-color="#00A1FF"/>
<stop offset="0.2601" stop-color="#00BEFF"/>
<stop offset="0.5122" stop-color="#00D2FF"/>
<stop offset="0.7604" stop-color="#00DFFF"/>
<stop offset="1" stop-color="#00E3FF"/>
</linearGradient>
<linearGradient id="paint1_linear_4638_218977" x1="49.8477" y1="26.0739" x2="21.6102" y2="26.0739" gradientUnits="userSpaceOnUse">
<stop stop-color="#FFE000"/>
<stop offset="0.4087" stop-color="#FFBD00"/>
<stop offset="0.7754" stop-color="#FFA500"/>
<stop offset="1" stop-color="#FF9C00"/>
</linearGradient>
<linearGradient id="paint2_linear_4638_218977" x1="39.3359" y1="23.4594" x2="13.4129" y2="-3.09167" gradientUnits="userSpaceOnUse">
<stop stop-color="#FF3A44"/>
<stop offset="1" stop-color="#C31162"/>
</linearGradient>
<linearGradient id="paint3_linear_4638_218977" x1="18.8789" y1="48.6626" x2="30.4546" y2="36.8064" gradientUnits="userSpaceOnUse">
<stop stop-color="#32A071"/>
<stop offset="0.0685" stop-color="#2DA771"/>
<stop offset="0.4762" stop-color="#15CF74"/>
<stop offset="0.8009" stop-color="#06E775"/>
<stop offset="1" stop-color="#00F076"/>
</linearGradient>
</defs>
</svg>
