<svg width="1382" height="303" viewBox="0 0 1382 303" fill="none" xmlns="http://www.w3.org/2000/svg">
<path opacity="0.5" d="M262.702 8.21484H294.543V40.051" stroke="#203066" stroke-width="16" stroke-linecap="round"/>
<path d="M262.702 294.74H294.543V262.904" stroke="#203066" stroke-width="16" stroke-linecap="round"/>
<path d="M40.2041 8.21484H8.36301V40.051" stroke="#203066" stroke-width="16" stroke-linecap="round"/>
<path opacity="0.5" d="M40.2041 294.74H8.36301V262.904" stroke="#203066" stroke-width="16" stroke-linecap="round"/>
<path d="M55.18 151.48H32.4814" stroke="#FFA621" stroke-width="24" stroke-miterlimit="10" stroke-linecap="round" stroke-linejoin="round"/>
<path d="M248.119 151.48H270.817" stroke="#FFA621" stroke-width="24" stroke-miterlimit="10" stroke-linecap="round" stroke-linejoin="round"/>
<path d="M152.359 55.7342L152.359 33.0391" stroke="#FFA621" stroke-width="24" stroke-miterlimit="10" stroke-linecap="round" stroke-linejoin="round"/>
<path d="M152.359 247.223L152.359 269.918" stroke="#FFA621" stroke-width="24" stroke-miterlimit="10" stroke-linecap="round" stroke-linejoin="round"/>
<path d="M152.649 244.448C203.554 244.448 244.582 202.691 244.582 151.477C244.582 100.263 203.554 58.5059 152.649 58.5059C101.745 58.5059 60.7168 100.263 60.7168 151.477C60.7168 202.691 101.745 244.448 152.649 244.448Z" fill="#FF008A" stroke="#203066" stroke-width="22"/>
<path d="M153.062 125.943V177.007" stroke="#FFEDC0" stroke-width="12" stroke-miterlimit="10" stroke-linecap="round"/>
<path d="M178.603 151.475H127.531" stroke="#FFEDC0" stroke-width="12" stroke-miterlimit="10" stroke-linecap="round"/>
<mask id="mask0_2120_45577" style="mask-type:alpha" maskUnits="userSpaceOnUse" x="49" y="47" width="207" height="209">
<path d="M152.65 244.448C203.555 244.448 244.583 202.691 244.583 151.477C244.583 100.263 203.555 58.5059 152.65 58.5059C101.746 58.5059 60.7178 100.263 60.7178 151.477C60.7178 202.691 101.746 244.448 152.65 244.448Z" stroke="#203066" stroke-width="22"/>
</mask>
<g mask="url(#mask0_2120_45577)">
<path d="M73.6228 151.477L48.0869 151.477" stroke="#FFEDC0" stroke-width="24" stroke-miterlimit="10" stroke-linecap="round" stroke-linejoin="round"/>
<path d="M231.094 151.477L256.63 151.477" stroke="#FFEDC0" stroke-width="24" stroke-miterlimit="10" stroke-linecap="round" stroke-linejoin="round"/>
<path d="M152.358 72.7527L152.358 47.2207" stroke="#FFEDC0" stroke-width="24" stroke-miterlimit="10" stroke-linecap="round" stroke-linejoin="round"/>
<path d="M152.358 230.2L152.358 255.732" stroke="#FFEDC0" stroke-width="24" stroke-miterlimit="10" stroke-linecap="round" stroke-linejoin="round"/>
</g>
<path d="M446.184 233.979C442.077 233.979 438.704 232.732 436.064 230.239C433.424 227.599 432.104 224.372 432.104 220.559V92.9585H460.704V220.559C460.704 224.372 459.311 227.599 456.524 230.239C453.884 232.732 450.437 233.979 446.184 233.979ZM397.564 105.279C393.751 105.279 390.524 104.105 387.884 101.759C385.391 99.4118 384.144 96.3318 384.144 92.5185C384.144 88.7052 385.391 85.6985 387.884 83.4985C390.524 81.1518 393.751 79.9785 397.564 79.9785H495.244C499.057 79.9785 502.211 81.1518 504.704 83.4985C507.344 85.8452 508.664 88.9252 508.664 92.7385C508.664 96.5518 507.344 99.6318 504.704 101.979C502.211 104.179 499.057 105.279 495.244 105.279H397.564ZM518.653 233.979C514.84 233.979 511.687 232.732 509.193 230.239C506.7 227.599 505.453 224.372 505.453 220.559V129.699C505.453 125.885 506.7 122.732 509.193 120.239C511.687 117.599 514.84 116.279 518.653 116.279C522.467 116.279 525.62 117.599 528.113 120.239C530.607 122.732 531.853 125.885 531.853 129.699V150.379L530.313 135.639C531.927 132.119 533.98 129.039 536.473 126.399C539.113 123.612 542.047 121.339 545.273 119.579C548.5 117.672 551.947 116.279 555.613 115.399C559.28 114.519 562.947 114.079 566.613 114.079C571.013 114.079 574.68 115.325 577.613 117.819C580.693 120.312 582.233 123.245 582.233 126.619C582.233 131.459 580.987 134.979 578.493 137.179C576 139.232 573.287 140.259 570.353 140.259C567.567 140.259 565 139.745 562.653 138.719C560.453 137.692 557.887 137.179 554.953 137.179C552.313 137.179 549.6 137.839 546.813 139.159C544.173 140.332 541.68 142.239 539.333 144.879C537.133 147.519 535.3 150.819 533.833 154.779C532.513 158.592 531.853 163.139 531.853 168.419V220.559C531.853 224.372 530.607 227.599 528.113 230.239C525.62 232.732 522.467 233.979 518.653 233.979ZM677.184 116.279C680.997 116.279 684.151 117.599 686.644 120.239C689.137 122.732 690.384 125.885 690.384 129.699V185.579C690.384 201.125 686.057 213.445 677.404 222.539C668.751 231.632 656.284 236.179 640.004 236.179C623.724 236.179 611.257 231.632 602.604 222.539C594.097 213.445 589.844 201.125 589.844 185.579V129.699C589.844 125.885 591.091 122.732 593.584 120.239C596.077 117.599 599.231 116.279 603.044 116.279C606.857 116.279 610.011 117.599 612.504 120.239C614.997 122.732 616.244 125.885 616.244 129.699V185.579C616.244 194.525 618.224 201.199 622.184 205.599C626.144 209.852 632.084 211.979 640.004 211.979C648.071 211.979 654.084 209.852 658.044 205.599C662.004 201.199 663.984 194.525 663.984 185.579V129.699C663.984 125.885 665.231 122.732 667.724 120.239C670.217 117.599 673.371 116.279 677.184 116.279ZM763.405 236.179C750.938 236.179 740.085 233.612 730.845 228.479C721.752 223.199 714.712 216.085 709.725 207.139C704.885 198.192 702.465 188.072 702.465 176.779C702.465 163.579 705.105 152.359 710.385 143.119C715.812 133.732 722.852 126.545 731.505 121.559C740.158 116.572 749.325 114.079 759.005 114.079C766.485 114.079 773.525 115.619 780.125 118.699C786.872 121.779 792.812 126.032 797.945 131.459C803.078 136.739 807.112 142.899 810.045 149.939C813.125 156.979 814.665 164.459 814.665 172.379C814.518 175.899 813.125 178.759 810.485 180.959C807.845 183.159 804.765 184.259 801.245 184.259H717.205L710.605 162.259H791.345L786.505 166.659V160.719C786.212 156.465 784.672 152.652 781.885 149.279C779.245 145.905 775.872 143.265 771.765 141.359C767.805 139.305 763.552 138.279 759.005 138.279C754.605 138.279 750.498 138.865 746.685 140.039C742.872 141.212 739.572 143.192 736.785 145.979C733.998 148.765 731.798 152.505 730.185 157.199C728.572 161.892 727.765 167.832 727.765 175.019C727.765 182.939 729.378 189.685 732.605 195.259C735.978 200.685 740.232 204.865 745.365 207.799C750.645 210.585 756.218 211.979 762.085 211.979C767.512 211.979 771.838 211.539 775.065 210.659C778.292 209.779 780.858 208.752 782.765 207.579C784.818 206.259 786.652 205.159 788.265 204.279C790.905 202.959 793.398 202.299 795.745 202.299C798.972 202.299 801.612 203.399 803.665 205.599C805.865 207.799 806.965 210.365 806.965 213.299C806.965 217.259 804.912 220.852 800.805 224.079C796.992 227.305 791.638 230.165 784.745 232.659C777.852 235.005 770.738 236.179 763.405 236.179ZM855.331 220.559C855.331 224.372 854.011 227.599 851.371 230.239C848.877 232.732 845.724 233.979 841.911 233.979C838.244 233.979 835.164 232.732 832.671 230.239C830.177 227.599 828.931 224.372 828.931 220.559V84.5985C828.931 80.7852 830.177 77.6318 832.671 75.1385C835.311 72.4985 838.537 71.1785 842.351 71.1785C846.164 71.1785 849.244 72.4985 851.591 75.1385C854.084 77.6318 855.331 80.7852 855.331 84.5985V220.559ZM959.145 116.279C962.958 116.279 966.112 117.599 968.605 120.239C971.098 122.732 972.345 125.885 972.345 129.699V223.199C972.345 236.692 969.778 247.399 964.645 255.319C959.658 263.385 952.912 269.179 944.405 272.699C935.898 276.219 926.365 277.979 915.805 277.979C911.112 277.979 906.125 277.612 900.845 276.879C895.565 276.145 891.238 275.045 887.865 273.579C883.465 271.672 880.385 269.252 878.625 266.319C877.012 263.532 876.718 260.525 877.745 257.299C879.065 253.045 881.192 250.112 884.125 248.499C887.058 247.032 890.138 246.885 893.365 248.059C895.712 248.792 898.792 249.892 902.605 251.359C906.418 252.972 910.818 253.779 915.805 253.779C922.552 253.779 928.125 252.825 932.525 250.919C937.072 249.159 940.445 246.079 942.645 241.679C944.992 237.425 946.165 231.559 946.165 224.079V209.339L950.785 214.619C948.292 219.459 945.138 223.492 941.325 226.719C937.658 229.799 933.258 232.145 928.125 233.759C922.992 235.372 917.125 236.179 910.525 236.179C902.752 236.179 895.932 234.419 890.065 230.899C884.345 227.232 879.872 222.245 876.645 215.939C873.418 209.485 871.805 202.152 871.805 193.939V129.699C871.805 125.885 873.052 122.732 875.545 120.239C878.038 117.599 881.192 116.279 885.005 116.279C888.818 116.279 891.972 117.599 894.465 120.239C896.958 122.732 898.205 125.885 898.205 129.699V186.019C898.205 195.552 900.258 202.299 904.365 206.259C908.618 210.072 914.485 211.979 921.965 211.979C927.098 211.979 931.425 211.025 934.945 209.119C938.465 207.065 941.178 204.132 943.085 200.319C944.992 196.359 945.945 191.592 945.945 186.019V129.699C945.945 125.885 947.192 122.732 949.685 120.239C952.178 117.599 955.332 116.279 959.145 116.279Z" fill="#FF008A"/>
<path d="M1092.29 236.179C1082.02 236.179 1072.78 234.932 1064.57 232.439C1056.35 229.799 1048.51 225.252 1041.03 218.799C1039.12 217.185 1037.65 215.352 1036.63 213.299C1035.6 211.245 1035.09 209.192 1035.09 207.139C1035.09 203.765 1036.26 200.832 1038.61 198.339C1041.1 195.699 1044.18 194.379 1047.85 194.379C1050.63 194.379 1053.13 195.259 1055.33 197.019C1060.9 201.565 1066.4 205.012 1071.83 207.359C1077.4 209.705 1084.22 210.879 1092.29 210.879C1097.71 210.879 1102.7 210.072 1107.25 208.459C1111.79 206.699 1115.46 204.425 1118.25 201.639C1121.03 198.705 1122.43 195.405 1122.43 191.739C1122.43 187.339 1121.11 183.599 1118.47 180.519C1115.83 177.439 1111.79 174.872 1106.37 172.819C1100.94 170.619 1094.05 168.932 1085.69 167.759C1077.77 166.585 1070.8 164.825 1064.79 162.479C1058.77 159.985 1053.71 156.905 1049.61 153.239C1045.65 149.425 1042.64 145.025 1040.59 140.039C1038.53 134.905 1037.51 129.185 1037.51 122.879C1037.51 113.345 1039.93 105.205 1044.77 98.4585C1049.75 91.7118 1056.43 86.5785 1064.79 83.0585C1073.15 79.5385 1082.39 77.7785 1092.51 77.7785C1102.04 77.7785 1110.84 79.2452 1118.91 82.1785C1127.12 84.9652 1133.79 88.5585 1138.93 92.9585C1143.18 96.3318 1145.31 100.219 1145.31 104.619C1145.31 107.845 1144.06 110.779 1141.57 113.419C1139.07 116.059 1136.14 117.379 1132.77 117.379C1130.57 117.379 1128.59 116.719 1126.83 115.399C1124.48 113.345 1121.33 111.439 1117.37 109.679C1113.41 107.772 1109.23 106.232 1104.83 105.059C1100.43 103.739 1096.32 103.079 1092.51 103.079C1086.2 103.079 1080.85 103.885 1076.45 105.499C1072.19 107.112 1068.97 109.312 1066.77 112.099C1064.57 114.885 1063.47 118.112 1063.47 121.779C1063.47 126.179 1064.71 129.845 1067.21 132.779C1069.85 135.565 1073.59 137.839 1078.43 139.599C1083.27 141.212 1089.06 142.679 1095.81 143.999C1104.61 145.612 1112.31 147.519 1118.91 149.719C1125.65 151.919 1131.23 154.779 1135.63 158.299C1140.03 161.672 1143.33 165.999 1145.53 171.279C1147.73 176.412 1148.83 182.719 1148.83 190.199C1148.83 199.732 1146.19 207.945 1140.91 214.839C1135.63 221.732 1128.66 227.012 1120.01 230.679C1111.5 234.345 1102.26 236.179 1092.29 236.179ZM1216.3 236.179C1203.83 236.179 1192.98 233.612 1183.74 228.479C1174.64 223.199 1167.6 216.085 1162.62 207.139C1157.78 198.192 1155.36 188.072 1155.36 176.779C1155.36 163.579 1158 152.359 1163.28 143.119C1168.7 133.732 1175.74 126.545 1184.4 121.559C1193.05 116.572 1202.22 114.079 1211.9 114.079C1219.38 114.079 1226.42 115.619 1233.02 118.699C1239.76 121.779 1245.7 126.032 1250.84 131.459C1255.97 136.739 1260 142.899 1262.94 149.939C1266.02 156.979 1267.56 164.459 1267.56 172.379C1267.41 175.899 1266.02 178.759 1263.38 180.959C1260.74 183.159 1257.66 184.259 1254.14 184.259H1170.1L1163.5 162.259H1244.24L1239.4 166.659V160.719C1239.1 156.465 1237.56 152.652 1234.78 149.279C1232.14 145.905 1228.76 143.265 1224.66 141.359C1220.7 139.305 1216.44 138.279 1211.9 138.279C1207.5 138.279 1203.39 138.865 1199.58 140.039C1195.76 141.212 1192.46 143.192 1189.68 145.979C1186.89 148.765 1184.69 152.505 1183.08 157.199C1181.46 161.892 1180.66 167.832 1180.66 175.019C1180.66 182.939 1182.27 189.685 1185.5 195.259C1188.87 200.685 1193.12 204.865 1198.26 207.799C1203.54 210.585 1209.11 211.979 1214.98 211.979C1220.4 211.979 1224.73 211.539 1227.96 210.659C1231.18 209.779 1233.75 208.752 1235.66 207.579C1237.71 206.259 1239.54 205.159 1241.16 204.279C1243.8 202.959 1246.29 202.299 1248.64 202.299C1251.86 202.299 1254.5 203.399 1256.56 205.599C1258.76 207.799 1259.86 210.365 1259.86 213.299C1259.86 217.259 1257.8 220.852 1253.7 224.079C1249.88 227.305 1244.53 230.165 1237.64 232.659C1230.74 235.005 1223.63 236.179 1216.3 236.179ZM1308.22 220.559C1308.22 224.372 1306.9 227.599 1304.26 230.239C1301.77 232.732 1298.61 233.979 1294.8 233.979C1291.13 233.979 1288.05 232.732 1285.56 230.239C1283.07 227.599 1281.82 224.372 1281.82 220.559V84.5985C1281.82 80.7852 1283.07 77.6318 1285.56 75.1385C1288.2 72.4985 1291.43 71.1785 1295.24 71.1785C1299.05 71.1785 1302.13 72.4985 1304.48 75.1385C1306.97 77.6318 1308.22 80.7852 1308.22 84.5985V220.559ZM1356.52 220.559C1356.52 224.372 1355.2 227.599 1352.56 230.239C1350.06 232.732 1346.91 233.979 1343.1 233.979C1339.43 233.979 1336.35 232.732 1333.86 230.239C1331.36 227.599 1330.12 224.372 1330.12 220.559V84.5985C1330.12 80.7852 1331.36 77.6318 1333.86 75.1385C1336.5 72.4985 1339.72 71.1785 1343.54 71.1785C1347.35 71.1785 1350.43 72.4985 1352.78 75.1385C1355.27 77.6318 1356.52 80.7852 1356.52 84.5985V220.559Z" fill="#203066"/>
</svg>
