<svg width="1373" height="289" viewBox="0 0 1373 289" fill="none" xmlns="http://www.w3.org/2000/svg">
<path d="M448.915 227C444.808 227 441.435 225.753 438.795 223.26C436.155 220.62 434.835 217.393 434.835 213.58V85.98H463.435V213.58C463.435 217.393 462.042 220.62 459.255 223.26C456.615 225.753 453.168 227 448.915 227ZM400.295 98.3C396.482 98.3 393.255 97.1267 390.615 94.78C388.122 92.4333 386.875 89.3533 386.875 85.54C386.875 81.7267 388.122 78.72 390.615 76.52C393.255 74.1733 396.482 73 400.295 73H497.975C501.788 73 504.942 74.1733 507.435 76.52C510.075 78.8667 511.395 81.9467 511.395 85.76C511.395 89.5733 510.075 92.6533 507.435 95C504.942 97.2 501.788 98.3 497.975 98.3H400.295ZM521.384 227C517.571 227 514.418 225.753 511.924 223.26C509.431 220.62 508.184 217.393 508.184 213.58V122.72C508.184 118.907 509.431 115.753 511.924 113.26C514.418 110.62 517.571 109.3 521.384 109.3C525.198 109.3 528.351 110.62 530.844 113.26C533.338 115.753 534.584 118.907 534.584 122.72V143.4L533.044 128.66C534.658 125.14 536.711 122.06 539.204 119.42C541.844 116.633 544.778 114.36 548.004 112.6C551.231 110.693 554.678 109.3 558.344 108.42C562.011 107.54 565.678 107.1 569.344 107.1C573.744 107.1 577.411 108.347 580.344 110.84C583.424 113.333 584.964 116.267 584.964 119.64C584.964 124.48 583.718 128 581.224 130.2C578.731 132.253 576.018 133.28 573.084 133.28C570.298 133.28 567.731 132.767 565.384 131.74C563.184 130.713 560.618 130.2 557.684 130.2C555.044 130.2 552.331 130.86 549.544 132.18C546.904 133.353 544.411 135.26 542.064 137.9C539.864 140.54 538.031 143.84 536.564 147.8C535.244 151.613 534.584 156.16 534.584 161.44V213.58C534.584 217.393 533.338 220.62 530.844 223.26C528.351 225.753 525.198 227 521.384 227ZM679.915 109.3C683.728 109.3 686.882 110.62 689.375 113.26C691.868 115.753 693.115 118.907 693.115 122.72V178.6C693.115 194.147 688.788 206.467 680.135 215.56C671.482 224.653 659.015 229.2 642.735 229.2C626.455 229.2 613.988 224.653 605.335 215.56C596.828 206.467 592.575 194.147 592.575 178.6V122.72C592.575 118.907 593.822 115.753 596.315 113.26C598.808 110.62 601.962 109.3 605.775 109.3C609.588 109.3 612.742 110.62 615.235 113.26C617.728 115.753 618.975 118.907 618.975 122.72V178.6C618.975 187.547 620.955 194.22 624.915 198.62C628.875 202.873 634.815 205 642.735 205C650.802 205 656.815 202.873 660.775 198.62C664.735 194.22 666.715 187.547 666.715 178.6V122.72C666.715 118.907 667.962 115.753 670.455 113.26C672.948 110.62 676.102 109.3 679.915 109.3ZM765.036 229.2C752.569 229.2 741.716 226.633 732.476 221.5C723.383 216.22 716.343 209.107 711.356 200.16C706.516 191.213 704.096 181.093 704.096 169.8C704.096 156.6 706.736 145.38 712.016 136.14C717.443 126.753 724.483 119.567 733.136 114.58C741.789 109.593 750.956 107.1 760.636 107.1C768.116 107.1 775.156 108.64 781.756 111.72C788.503 114.8 794.443 119.053 799.576 124.48C804.709 129.76 808.743 135.92 811.676 142.96C814.756 150 816.296 157.48 816.296 165.4C816.149 168.92 814.756 171.78 812.116 173.98C809.476 176.18 806.396 177.28 802.876 177.28H718.836L712.236 155.28H792.976L788.136 159.68V153.74C787.843 149.487 786.303 145.673 783.516 142.3C780.876 138.927 777.503 136.287 773.396 134.38C769.436 132.327 765.183 131.3 760.636 131.3C756.236 131.3 752.129 131.887 748.316 133.06C744.503 134.233 741.203 136.213 738.416 139C735.629 141.787 733.429 145.527 731.816 150.22C730.203 154.913 729.396 160.853 729.396 168.04C729.396 175.96 731.009 182.707 734.236 188.28C737.609 193.707 741.863 197.887 746.996 200.82C752.276 203.607 757.849 205 763.716 205C769.143 205 773.469 204.56 776.696 203.68C779.923 202.8 782.489 201.773 784.396 200.6C786.449 199.28 788.283 198.18 789.896 197.3C792.536 195.98 795.029 195.32 797.376 195.32C800.603 195.32 803.243 196.42 805.296 198.62C807.496 200.82 808.596 203.387 808.596 206.32C808.596 210.28 806.543 213.873 802.436 217.1C798.623 220.327 793.269 223.187 786.376 225.68C779.483 228.027 772.369 229.2 765.036 229.2ZM855.913 213.58C855.913 217.393 854.593 220.62 851.953 223.26C849.46 225.753 846.307 227 842.493 227C838.827 227 835.747 225.753 833.253 223.26C830.76 220.62 829.513 217.393 829.513 213.58V77.62C829.513 73.8067 830.76 70.6533 833.253 68.16C835.893 65.52 839.12 64.2 842.933 64.2C846.747 64.2 849.827 65.52 852.173 68.16C854.667 70.6533 855.913 73.8067 855.913 77.62V213.58ZM959.727 109.3C963.541 109.3 966.694 110.62 969.187 113.26C971.681 115.753 972.927 118.907 972.927 122.72V216.22C972.927 229.713 970.361 240.42 965.227 248.34C960.241 256.407 953.494 262.2 944.987 265.72C936.481 269.24 926.947 271 916.387 271C911.694 271 906.707 270.633 901.427 269.9C896.147 269.167 891.821 268.067 888.447 266.6C884.047 264.693 880.967 262.273 879.207 259.34C877.594 256.553 877.301 253.547 878.327 250.32C879.647 246.067 881.774 243.133 884.707 241.52C887.641 240.053 890.721 239.907 893.947 241.08C896.294 241.813 899.374 242.913 903.187 244.38C907.001 245.993 911.401 246.8 916.387 246.8C923.134 246.8 928.707 245.847 933.107 243.94C937.654 242.18 941.027 239.1 943.227 234.7C945.574 230.447 946.747 224.58 946.747 217.1V202.36L951.367 207.64C948.874 212.48 945.721 216.513 941.907 219.74C938.241 222.82 933.841 225.167 928.707 226.78C923.574 228.393 917.707 229.2 911.107 229.2C903.334 229.2 896.514 227.44 890.647 223.92C884.927 220.253 880.454 215.267 877.227 208.96C874.001 202.507 872.387 195.173 872.387 186.96V122.72C872.387 118.907 873.634 115.753 876.127 113.26C878.621 110.62 881.774 109.3 885.587 109.3C889.401 109.3 892.554 110.62 895.047 113.26C897.541 115.753 898.787 118.907 898.787 122.72V179.04C898.787 188.573 900.841 195.32 904.947 199.28C909.201 203.093 915.067 205 922.547 205C927.681 205 932.007 204.047 935.527 202.14C939.047 200.087 941.761 197.153 943.667 193.34C945.574 189.38 946.527 184.613 946.527 179.04V122.72C946.527 118.907 947.774 115.753 950.267 113.26C952.761 110.62 955.914 109.3 959.727 109.3Z" fill="#4C40ED"/>
<path d="M1092.87 229.2C1082.6 229.2 1073.36 227.953 1065.15 225.46C1056.94 222.82 1049.09 218.273 1041.61 211.82C1039.7 210.207 1038.24 208.373 1037.21 206.32C1036.18 204.267 1035.67 202.213 1035.67 200.16C1035.67 196.787 1036.84 193.853 1039.19 191.36C1041.68 188.72 1044.76 187.4 1048.43 187.4C1051.22 187.4 1053.71 188.28 1055.91 190.04C1061.48 194.587 1066.98 198.033 1072.41 200.38C1077.98 202.727 1084.8 203.9 1092.87 203.9C1098.3 203.9 1103.28 203.093 1107.83 201.48C1112.38 199.72 1116.04 197.447 1118.83 194.66C1121.62 191.727 1123.01 188.427 1123.01 184.76C1123.01 180.36 1121.69 176.62 1119.05 173.54C1116.41 170.46 1112.38 167.893 1106.95 165.84C1101.52 163.64 1094.63 161.953 1086.27 160.78C1078.35 159.607 1071.38 157.847 1065.37 155.5C1059.36 153.007 1054.3 149.927 1050.19 146.26C1046.23 142.447 1043.22 138.047 1041.17 133.06C1039.12 127.927 1038.09 122.207 1038.09 115.9C1038.09 106.367 1040.51 98.2267 1045.35 91.48C1050.34 84.7333 1057.01 79.6 1065.37 76.08C1073.73 72.56 1082.97 70.8 1093.09 70.8C1102.62 70.8 1111.42 72.2667 1119.49 75.2C1127.7 77.9867 1134.38 81.58 1139.51 85.98C1143.76 89.3533 1145.89 93.24 1145.89 97.64C1145.89 100.867 1144.64 103.8 1142.15 106.44C1139.66 109.08 1136.72 110.4 1133.35 110.4C1131.15 110.4 1129.17 109.74 1127.41 108.42C1125.06 106.367 1121.91 104.46 1117.95 102.7C1113.99 100.793 1109.81 99.2533 1105.41 98.08C1101.01 96.76 1096.9 96.1 1093.09 96.1C1086.78 96.1 1081.43 96.9067 1077.03 98.52C1072.78 100.133 1069.55 102.333 1067.35 105.12C1065.15 107.907 1064.05 111.133 1064.05 114.8C1064.05 119.2 1065.3 122.867 1067.79 125.8C1070.43 128.587 1074.17 130.86 1079.01 132.62C1083.85 134.233 1089.64 135.7 1096.39 137.02C1105.19 138.633 1112.89 140.54 1119.49 142.74C1126.24 144.94 1131.81 147.8 1136.21 151.32C1140.61 154.693 1143.91 159.02 1146.11 164.3C1148.31 169.433 1149.41 175.74 1149.41 183.22C1149.41 192.753 1146.77 200.967 1141.49 207.86C1136.21 214.753 1129.24 220.033 1120.59 223.7C1112.08 227.367 1102.84 229.2 1092.87 229.2ZM1215.78 229.2C1203.31 229.2 1192.46 226.633 1183.22 221.5C1174.12 216.22 1167.08 209.107 1162.1 200.16C1157.26 191.213 1154.84 181.093 1154.84 169.8C1154.84 156.6 1157.48 145.38 1162.76 136.14C1168.18 126.753 1175.22 119.567 1183.88 114.58C1192.53 109.593 1201.7 107.1 1211.38 107.1C1218.86 107.1 1225.9 108.64 1232.5 111.72C1239.24 114.8 1245.18 119.053 1250.32 124.48C1255.45 129.76 1259.48 135.92 1262.42 142.96C1265.5 150 1267.04 157.48 1267.04 165.4C1266.89 168.92 1265.5 171.78 1262.86 173.98C1260.22 176.18 1257.14 177.28 1253.62 177.28H1169.58L1162.98 155.28H1243.72L1238.88 159.68V153.74C1238.58 149.487 1237.04 145.673 1234.26 142.3C1231.62 138.927 1228.24 136.287 1224.14 134.38C1220.18 132.327 1215.92 131.3 1211.38 131.3C1206.98 131.3 1202.87 131.887 1199.06 133.06C1195.24 134.233 1191.94 136.213 1189.16 139C1186.37 141.787 1184.17 145.527 1182.56 150.22C1180.94 154.913 1180.14 160.853 1180.14 168.04C1180.14 175.96 1181.75 182.707 1184.98 188.28C1188.35 193.707 1192.6 197.887 1197.74 200.82C1203.02 203.607 1208.59 205 1214.46 205C1219.88 205 1224.21 204.56 1227.44 203.68C1230.66 202.8 1233.23 201.773 1235.14 200.6C1237.19 199.28 1239.02 198.18 1240.64 197.3C1243.28 195.98 1245.77 195.32 1248.12 195.32C1251.34 195.32 1253.98 196.42 1256.04 198.62C1258.24 200.82 1259.34 203.387 1259.34 206.32C1259.34 210.28 1257.28 213.873 1253.18 217.1C1249.36 220.327 1244.01 223.187 1237.12 225.68C1230.22 228.027 1223.11 229.2 1215.78 229.2ZM1306.66 213.58C1306.66 217.393 1305.34 220.62 1302.7 223.26C1300.2 225.753 1297.05 227 1293.24 227C1289.57 227 1286.49 225.753 1284 223.26C1281.5 220.62 1280.26 217.393 1280.26 213.58V77.62C1280.26 73.8067 1281.5 70.6533 1284 68.16C1286.64 65.52 1289.86 64.2 1293.68 64.2C1297.49 64.2 1300.57 65.52 1302.92 68.16C1305.41 70.6533 1306.66 73.8067 1306.66 77.62V213.58ZM1354.95 213.58C1354.95 217.393 1353.63 220.62 1350.99 223.26C1348.5 225.753 1345.35 227 1341.53 227C1337.87 227 1334.79 225.753 1332.29 223.26C1329.8 220.62 1328.55 217.393 1328.55 213.58V77.62C1328.55 73.8067 1329.8 70.6533 1332.29 68.16C1334.93 65.52 1338.16 64.2 1341.97 64.2C1345.79 64.2 1348.87 65.52 1351.21 68.16C1353.71 70.6533 1354.95 73.8067 1354.95 77.62V213.58Z" fill="#203066"/>
<path opacity="0.5" d="M249.981 8H280.275V38.294" stroke="#203066" stroke-width="16" stroke-linecap="round"/>
<path d="M249.981 280.646H280.275V250.352" stroke="#203066" stroke-width="16" stroke-linecap="round"/>
<path d="M38.2939 8H7.99998V38.294" stroke="#203066" stroke-width="16" stroke-linecap="round"/>
<path opacity="0.5" d="M38.2939 280.646H7.99998V250.352" stroke="#203066" stroke-width="16" stroke-linecap="round"/>
<path d="M52.5411 144.323H30.9454" stroke="#203066" stroke-width="24" stroke-miterlimit="10" stroke-linecap="round" stroke-linejoin="round"/>
<path d="M236.105 144.323H257.7" stroke="#203066" stroke-width="24" stroke-miterlimit="10" stroke-linecap="round" stroke-linejoin="round"/>
<path d="M144.998 53.216L144.998 31.6203" stroke="#203066" stroke-width="24" stroke-miterlimit="10" stroke-linecap="round" stroke-linejoin="round"/>
<path d="M144.998 235.43L144.998 257.025" stroke="#203066" stroke-width="24" stroke-miterlimit="10" stroke-linecap="round" stroke-linejoin="round"/>
<path d="M145.275 233.323C194.009 233.323 233.275 193.342 233.275 144.323C233.275 95.3037 194.009 55.3228 145.275 55.3228C96.5403 55.3228 57.2748 95.3037 57.2748 144.323C57.2748 193.342 96.5403 233.323 145.275 233.323Z" fill="#4C40ED" stroke="#203066" stroke-width="22"/>
<path d="M145.668 120.028V168.618" stroke="white" stroke-width="12" stroke-miterlimit="10" stroke-linecap="round"/>
<path d="M169.968 144.322H121.377" stroke="white" stroke-width="12" stroke-miterlimit="10" stroke-linecap="round"/>
<mask id="mask0_503_63" style="mask-type:alpha" maskUnits="userSpaceOnUse" x="46" y="44" width="199" height="201">
<path d="M145.275 233.323C194.009 233.323 233.275 193.342 233.275 144.323C233.275 95.3037 194.009 55.3228 145.275 55.3228C96.5403 55.3228 57.2748 95.3037 57.2748 144.323C57.2748 193.342 96.5403 233.323 145.275 233.323Z" stroke="#203066" stroke-width="22"/>
</mask>
<g mask="url(#mask0_503_63)">
<path d="M70.0876 144.323L45.7925 144.323" stroke="white" stroke-width="24" stroke-miterlimit="10" stroke-linecap="round" stroke-linejoin="round"/>
<path d="M219.908 144.323L244.203 144.323" stroke="white" stroke-width="24" stroke-miterlimit="10" stroke-linecap="round" stroke-linejoin="round"/>
<path d="M144.998 69.4127L144.998 45.1176" stroke="white" stroke-width="24" stroke-miterlimit="10" stroke-linecap="round" stroke-linejoin="round"/>
<path d="M144.998 219.233L144.998 243.528" stroke="white" stroke-width="24" stroke-miterlimit="10" stroke-linecap="round" stroke-linejoin="round"/>
</g>
</svg>