<svg width="181" height="53" viewBox="0 0 181 53" fill="none" xmlns="http://www.w3.org/2000/svg">
<rect x="0.134277" y="0.222168" width="180" height="52" rx="8" fill="white"/>
<path d="M43.7036 26.0311C43.6676 22.1214 46.9871 20.2193 47.1388 20.1307C45.2589 17.4583 42.345 17.0931 41.321 17.064C38.8737 16.8129 36.4998 18.4918 35.2531 18.4918C33.9816 18.4918 32.0618 17.0883 29.9927 17.1295C27.3301 17.1696 24.8393 18.6726 23.4731 21.0066C20.6538 25.7655 22.7565 32.7589 25.4576 36.6056C26.8088 38.4895 28.3877 40.593 30.4543 40.519C32.4761 40.4377 33.2313 39.2622 35.6712 39.2622C38.0886 39.2622 38.7978 40.519 40.9055 40.4717C43.0753 40.4377 44.4414 38.5793 45.7454 36.6784C47.3068 34.5191 47.9339 32.3926 47.9588 32.2834C47.9078 32.2664 43.7447 30.7173 43.7036 26.0311Z" fill="#28283C"/>
<path d="M39.7222 14.5335C40.8097 13.2076 41.5537 11.4038 41.3471 9.57324C39.7733 9.64117 37.8049 10.6347 36.6715 11.9315C35.6687 13.0742 34.7729 14.9472 35.0043 16.7086C36.7723 16.8372 38.5875 15.8388 39.7222 14.5335Z" fill="#28283C"/>
<path d="M72.894 40.2484H70.0684L68.5207 35.5065H63.1408L61.6664 40.2484H58.9155L64.2456 24.1047H67.5377L72.894 40.2484ZM68.0541 33.517L66.6544 29.3015C66.5063 28.8709 66.2289 27.8568 65.8195 26.2603H65.7698C65.6068 26.9469 65.3442 27.9611 64.9834 29.3015L63.6086 33.517H68.0541Z" fill="#28283C"/>
<path d="M86.6012 34.2849C86.6012 36.2647 86.0525 37.8296 84.9551 38.9783C83.9722 40.001 82.7517 40.5117 81.2947 40.5117C79.7221 40.5117 78.5924 39.9609 77.9043 38.8595H77.8545V44.9916H75.2019V32.4398C75.2019 31.1952 75.1684 29.9178 75.1037 28.6077H77.4365L77.5846 30.4528H77.6343C78.5189 29.0626 79.8614 28.3687 81.663 28.3687C83.0714 28.3687 84.2472 28.911 85.1878 29.9967C86.1309 31.0836 86.6012 32.5126 86.6012 34.2849ZM83.8988 34.3795C83.8988 33.2465 83.6375 32.3124 83.1125 31.5773C82.5389 30.8107 81.7688 30.4273 80.8033 30.4273C80.1488 30.4273 79.5541 30.6408 79.0228 31.0618C78.4903 31.4863 78.142 32.0407 77.979 32.7273C77.8969 33.0476 77.8558 33.3096 77.8558 33.5158V35.4568C77.8558 36.3035 78.1221 37.018 78.6546 37.6015C79.1871 38.185 79.8788 38.4761 80.7299 38.4761C81.729 38.4761 82.5066 38.1001 83.0627 37.3504C83.6201 36.5995 83.8988 35.6096 83.8988 34.3795Z" fill="#28283C"/>
<path d="M100.333 34.2849C100.333 36.2647 99.7846 37.8296 98.686 38.9783C97.7043 40.001 96.4838 40.5117 95.0268 40.5117C93.4542 40.5117 92.3245 39.9609 91.6377 38.8595H91.5879V44.9916H88.9353V32.4398C88.9353 31.1952 88.9017 29.9178 88.837 28.6077H91.1699L91.3179 30.4528H91.3677C92.2511 29.0626 93.5935 28.3687 95.3964 28.3687C96.8036 28.3687 97.9793 28.911 98.9224 29.9967C99.8618 31.0836 100.333 32.5126 100.333 34.2849ZM97.6309 34.3795C97.6309 33.2465 97.3684 32.3124 96.8434 31.5773C96.2698 30.8107 95.5021 30.4273 94.5354 30.4273C93.8797 30.4273 93.2862 30.6408 92.7537 31.0618C92.2212 31.4863 91.8741 32.0407 91.7111 32.7273C91.6302 33.0476 91.5879 33.3096 91.5879 33.5158V35.4568C91.5879 36.3035 91.8542 37.018 92.3842 37.6015C92.9167 38.1838 93.6085 38.4761 94.462 38.4761C95.4611 38.4761 96.2387 38.1001 96.7948 37.3504C97.3522 36.5995 97.6309 35.6096 97.6309 34.3795Z" fill="#28283C"/>
<path d="M115.687 35.7212C115.687 37.0944 115.198 38.2117 114.216 39.0742C113.137 40.0167 111.636 40.4874 109.706 40.4874C107.924 40.4874 106.496 40.1526 105.415 39.4818L106.029 37.3261C107.194 38.0127 108.472 38.3572 109.864 38.3572C110.863 38.3572 111.64 38.1365 112.199 37.6973C112.755 37.2582 113.033 36.6686 113.033 35.9335C113.033 35.2784 112.804 34.7265 112.345 34.2788C111.888 33.8312 111.125 33.4151 110.06 33.0306C107.161 31.9764 105.713 30.4322 105.713 28.4015C105.713 27.0743 106.221 25.9862 107.237 25.1395C108.25 24.2915 109.601 23.8682 111.291 23.8682C112.798 23.8682 114.049 24.1241 115.048 24.6348L114.385 26.7432C113.452 26.2482 112.397 26.0008 111.216 26.0008C110.283 26.0008 109.554 26.2252 109.031 26.6716C108.59 27.0707 108.368 27.5572 108.368 28.1334C108.368 28.7714 108.621 29.2991 109.128 29.714C109.57 30.0973 110.373 30.5122 111.537 30.9599C112.962 31.5191 114.008 32.1729 114.681 32.9226C115.352 33.6699 115.687 34.6052 115.687 35.7212Z" fill="#28283C"/>
<path d="M124.457 30.5486H121.533V36.2004C121.533 37.6379 122.048 38.356 123.081 38.356C123.555 38.356 123.948 38.316 124.259 38.2359L124.332 40.1999C123.81 40.3903 123.122 40.4862 122.27 40.4862C121.222 40.4862 120.403 40.1744 119.812 39.5521C119.224 38.9286 118.928 37.8829 118.928 36.4139V30.5462H117.186V28.6052H118.928V26.4739L121.533 25.7072V28.6052H124.457V30.5486Z" fill="#28283C"/>
<path d="M137.649 34.3322C137.649 36.1215 137.124 37.5906 136.076 38.7393C134.978 39.9221 133.52 40.5117 131.702 40.5117C129.95 40.5117 128.555 39.9452 127.515 38.8121C126.475 37.6791 125.955 36.2489 125.955 34.5251C125.955 32.7212 126.49 31.2437 127.564 30.0949C128.635 28.9449 130.081 28.3699 131.898 28.3699C133.65 28.3699 135.06 28.9364 136.124 30.0707C137.141 31.1709 137.649 32.5914 137.649 34.3322ZM134.897 34.4159C134.897 33.3423 134.662 32.4216 134.185 31.6537C133.629 30.7245 132.834 30.2611 131.804 30.2611C130.738 30.2611 129.928 30.7257 129.371 31.6537C128.895 32.4228 128.66 33.3581 128.66 34.4644C128.66 35.538 128.895 36.4588 129.371 37.2254C129.945 38.1546 130.746 38.618 131.78 38.618C132.793 38.618 133.588 38.1449 134.162 37.2012C134.65 36.4187 134.897 35.4883 134.897 34.4159Z" fill="#28283C"/>
<path d="M146.271 30.8822C146.009 30.8349 145.729 30.8106 145.435 30.8106C144.502 30.8106 143.78 31.154 143.273 31.8418C142.831 32.4483 142.61 33.215 142.61 34.1406V40.2484H139.958L139.983 32.2736C139.983 30.932 139.949 29.7104 139.884 28.6089H142.194L142.291 30.8361H142.364C142.644 30.0707 143.086 29.4544 143.691 28.9922C144.282 28.5761 144.92 28.3687 145.608 28.3687C145.853 28.3687 146.075 28.3857 146.271 28.416V30.8822Z" fill="#28283C"/>
<path d="M158.135 33.8773C158.135 34.3407 158.103 34.7313 158.037 35.0504H150.08C150.111 36.2004 150.495 37.0798 151.234 37.6864C151.905 38.2286 152.772 38.5004 153.837 38.5004C155.015 38.5004 156.09 38.3172 157.057 37.9496L157.473 39.745C156.343 40.2254 155.009 40.4643 153.47 40.4643C151.619 40.4643 150.166 39.933 149.108 38.8716C148.053 37.8101 147.524 36.3848 147.524 34.5967C147.524 32.8413 148.016 31.3796 149 30.2138C150.03 28.9692 151.422 28.3469 153.174 28.3469C154.895 28.3469 156.197 28.9692 157.082 30.2138C157.782 31.2025 158.135 32.4252 158.135 33.8773ZM155.605 33.2065C155.623 32.4398 155.45 31.7775 155.09 31.2182C154.631 30.4989 153.925 30.1398 152.976 30.1398C152.109 30.1398 151.404 30.4904 150.865 31.194C150.423 31.7532 150.161 32.424 150.08 33.2053H155.605V33.2065Z" fill="#28283C"/>
<path d="M67.1765 14.1736C67.1765 15.6014 66.7373 16.6762 65.8602 17.398C65.0477 18.064 63.8931 18.3976 62.3976 18.3976C61.656 18.3976 61.0215 18.3661 60.4902 18.303V10.5016C61.1832 10.3925 61.9298 10.3367 62.736 10.3367C64.1606 10.3367 65.2343 10.6387 65.9584 11.2428C66.7697 11.9258 67.1765 12.9023 67.1765 14.1736ZM65.8017 14.2088C65.8017 13.2832 65.5504 12.5736 65.0477 12.0787C64.5451 11.5849 63.811 11.3375 62.8442 11.3375C62.4337 11.3375 62.084 11.3641 61.7941 11.4199V17.3507C61.9546 17.375 62.2483 17.3859 62.675 17.3859C63.6729 17.3859 64.443 17.1154 64.9855 16.5743C65.528 16.0333 65.8017 15.2448 65.8017 14.2088Z" fill="#28283C"/>
<path d="M74.4662 15.4207C74.4662 16.3002 74.2087 17.0208 73.6936 17.586C73.1536 18.1671 72.4382 18.457 71.5449 18.457C70.6839 18.457 69.9983 18.1792 69.487 17.6212C68.9768 17.0644 68.7218 16.362 68.7218 15.5153C68.7218 14.6298 68.9843 13.9031 69.5118 13.339C70.0394 12.775 70.7486 12.4923 71.6419 12.4923C72.5029 12.4923 73.1946 12.7701 73.7184 13.3269C74.2161 13.8679 74.4662 14.5667 74.4662 15.4207ZM73.1138 15.4619C73.1138 14.9342 72.9968 14.4818 72.7642 14.1045C72.4904 13.6484 72.101 13.4203 71.5946 13.4203C71.0708 13.4203 70.6727 13.6484 70.399 14.1045C70.165 14.4818 70.0493 14.9415 70.0493 15.485C70.0493 16.0127 70.1663 16.4652 70.399 16.8424C70.6814 17.2985 71.0745 17.5266 71.5822 17.5266C72.0799 17.5266 72.4705 17.2949 72.7517 16.8303C72.9931 16.4457 73.1138 15.9896 73.1138 15.4619Z" fill="#28283C"/>
<path d="M84.2405 12.6088L82.4054 18.3272H81.2109L80.4507 15.8441C80.2579 15.2242 80.1011 14.6079 79.9792 13.9965H79.9556C79.8423 14.6249 79.6856 15.2399 79.484 15.8441L78.6765 18.3272H77.4684L75.7427 12.6088H77.0827L77.7459 15.3273C77.9064 15.9702 78.0383 16.5828 78.144 17.1627H78.1677C78.2647 16.6847 78.4252 16.0758 78.6516 15.3394L79.484 12.61H80.5465L81.3441 15.2812C81.5369 15.9326 81.6937 16.5598 81.8144 17.1639H81.8505C81.9388 16.5755 82.0719 15.9484 82.2486 15.2812L82.9603 12.61H84.2405V12.6088Z" fill="#28283C"/>
<path d="M91.0002 18.3273H89.6963V15.0519C89.6963 14.0426 89.3031 13.538 88.5143 13.538C88.1274 13.538 87.8151 13.6763 87.5725 13.9541C87.3324 14.2319 87.2104 14.5594 87.2104 14.9343V18.326H85.9065V14.2428C85.9065 13.7406 85.8903 13.1959 85.8592 12.6063H87.0051L87.0661 13.5004H87.1022C87.254 13.2226 87.4804 12.9933 87.7778 12.8101C88.1311 12.5966 88.5268 12.4887 88.9597 12.4887C89.5072 12.4887 89.9626 12.6609 90.3246 13.0067C90.775 13.43 91.0002 14.062 91.0002 14.9015V18.3273Z" fill="#28283C"/>
<path d="M94.5959 18.3272H93.2933V9.98486H94.5959V18.3272Z" fill="#28283C"/>
<path d="M102.273 15.4207C102.273 16.3002 102.015 17.0208 101.5 17.586C100.96 18.1671 100.243 18.457 99.3512 18.457C98.489 18.457 97.8034 18.1792 97.2933 17.6212C96.7832 17.0644 96.5282 16.362 96.5282 15.5153C96.5282 14.6298 96.7907 13.9031 97.3182 13.339C97.8457 12.775 98.5549 12.4923 99.447 12.4923C100.309 12.4923 101 12.7701 101.525 13.3269C102.022 13.8679 102.273 14.5667 102.273 15.4207ZM100.919 15.4619C100.919 14.9342 100.802 14.4818 100.569 14.1045C100.297 13.6484 99.9061 13.4203 99.401 13.4203C98.8759 13.4203 98.4778 13.6484 98.2053 14.1045C97.9714 14.4818 97.8557 14.9415 97.8557 15.485C97.8557 16.0127 97.9727 16.4652 98.2053 16.8424C98.4878 17.2985 98.8809 17.5266 99.3885 17.5266C99.8862 17.5266 100.276 17.2949 100.557 16.8303C100.799 16.4457 100.919 15.9896 100.919 15.4619Z" fill="#28283C"/>
<path d="M108.583 18.3272H107.412L107.315 17.6685H107.279C106.879 18.1938 106.307 18.457 105.566 18.457C105.012 18.457 104.564 18.2836 104.227 17.9391C103.921 17.6261 103.768 17.2367 103.768 16.7745C103.768 16.0758 104.067 15.5432 104.668 15.1744C105.267 14.8057 106.111 14.6249 107.197 14.6334V14.5267C107.197 13.7733 106.791 13.3973 105.979 13.3973C105.4 13.3973 104.89 13.5392 104.45 13.8206L104.185 12.986C104.73 12.6573 105.403 12.4923 106.197 12.4923C107.73 12.4923 108.498 13.2808 108.498 14.8578V16.9637C108.498 17.5351 108.527 17.99 108.583 18.3272ZM107.229 16.362V15.4801C105.791 15.4559 105.072 15.8404 105.072 16.6326C105.072 16.931 105.154 17.1542 105.322 17.3034C105.49 17.4526 105.704 17.5266 105.959 17.5266C106.245 17.5266 106.513 17.4381 106.757 17.2622C107.002 17.085 107.152 16.8606 107.208 16.5853C107.222 16.5234 107.229 16.4482 107.229 16.362Z" fill="#28283C"/>
<path d="M115.992 18.3272H114.835L114.774 17.4089H114.738C114.369 18.1077 113.739 18.457 112.854 18.457C112.148 18.457 111.559 18.1865 111.093 17.6455C110.626 17.1045 110.393 16.4021 110.393 15.5396C110.393 14.614 110.646 13.8643 111.154 13.2917C111.645 12.758 112.247 12.4911 112.964 12.4911C113.751 12.4911 114.303 12.7495 114.616 13.2675H114.641V9.98486H115.946V16.7866C115.946 17.3434 115.961 17.8566 115.992 18.3272ZM114.641 15.9156V14.9621C114.641 14.7972 114.629 14.6637 114.605 14.5618C114.532 14.2561 114.374 13.999 114.133 13.7915C113.891 13.5841 113.598 13.4798 113.261 13.4798C112.775 13.4798 112.394 13.6678 112.114 14.0451C111.837 14.4223 111.696 14.9039 111.696 15.4923C111.696 16.0576 111.829 16.5161 112.097 16.8691C112.379 17.2452 112.76 17.4332 113.236 17.4332C113.664 17.4332 114.007 17.2767 114.267 16.9625C114.518 16.6726 114.641 16.3232 114.641 15.9156Z" fill="#28283C"/>
<path d="M127.144 15.4207C127.144 16.3002 126.886 17.0208 126.371 17.586C125.831 18.1671 125.117 18.457 124.223 18.457C123.363 18.457 122.677 18.1792 122.165 17.6212C121.655 17.0644 121.399 16.362 121.399 15.5153C121.399 14.6298 121.662 13.9031 122.19 13.339C122.717 12.775 123.426 12.4923 124.321 12.4923C125.181 12.4923 125.874 12.7701 126.396 13.3269C126.894 13.8679 127.144 14.5667 127.144 15.4207ZM125.793 15.4619C125.793 14.9342 125.676 14.4818 125.443 14.1045C125.168 13.6484 124.78 13.4203 124.272 13.4203C123.75 13.4203 123.352 13.6484 123.077 14.1045C122.843 14.4818 122.727 14.9415 122.727 15.485C122.727 16.0127 122.844 16.4652 123.077 16.8424C123.359 17.2985 123.752 17.5266 124.26 17.5266C124.758 17.5266 125.149 17.2949 125.431 16.8303C125.671 16.4457 125.793 15.9896 125.793 15.4619Z" fill="#28283C"/>
<path d="M134.155 18.3273H132.852V15.0519C132.852 14.0426 132.459 13.538 131.669 13.538C131.282 13.538 130.97 13.6763 130.728 13.9541C130.487 14.2319 130.366 14.5594 130.366 14.9343V18.326H129.061V14.2428C129.061 13.7406 129.046 13.1959 129.015 12.6063H130.16L130.221 13.5004H130.257C130.41 13.2226 130.636 12.9933 130.932 12.8101C131.287 12.5966 131.681 12.4887 132.116 12.4887C132.662 12.4887 133.117 12.6609 133.479 13.0067C133.931 13.43 134.155 14.062 134.155 14.9015V18.3273Z" fill="#28283C"/>
<path d="M142.93 13.561H141.494V16.339C141.494 17.045 141.749 17.398 142.255 17.398C142.488 17.398 142.683 17.3786 142.836 17.3386L142.869 18.303C142.612 18.3976 142.273 18.4449 141.856 18.4449C141.341 18.4449 140.941 18.2921 140.651 17.9864C140.36 17.6807 140.215 17.1663 140.215 16.4445V13.561H139.358V12.6088H140.215V11.5607L141.493 11.1846V12.6076H142.929V13.561H142.93Z" fill="#28283C"/>
<path d="M149.833 18.3272H148.528V15.0762C148.528 14.0511 148.135 13.538 147.347 13.538C146.742 13.538 146.329 13.8352 146.103 14.4296C146.064 14.5545 146.042 14.7074 146.042 14.8869V18.326H144.739V9.98486H146.042V13.4312H146.067C146.477 12.8041 147.066 12.4911 147.829 12.4911C148.368 12.4911 148.815 12.6634 149.17 13.0091C149.611 13.4397 149.833 14.0802 149.833 14.927V18.3272Z" fill="#28283C"/>
<path d="M156.953 15.1975C156.953 15.4255 156.936 15.6172 156.905 15.7737H152.994C153.012 16.339 153.198 16.7696 153.56 17.0681C153.891 17.3349 154.318 17.4684 154.841 17.4684C155.419 17.4684 155.947 17.3786 156.422 17.1979L156.626 18.081C156.07 18.3163 155.416 18.434 154.658 18.434C153.75 18.434 153.034 18.1732 152.517 17.6515C151.997 17.1299 151.739 16.43 151.739 15.5517C151.739 14.6892 151.979 13.9711 152.463 13.3985C152.968 12.7871 153.651 12.4814 154.514 12.4814C155.357 12.4814 155.998 12.7871 156.431 13.3985C156.78 13.8837 156.953 14.4842 156.953 15.1975ZM155.709 14.8687C155.719 14.4915 155.633 14.1664 155.457 13.8922C155.23 13.5392 154.886 13.3621 154.419 13.3621C153.993 13.3621 153.646 13.5343 153.381 13.8801C153.165 14.1554 153.037 14.4842 152.994 14.8687H155.709Z" fill="#28283C"/>
</svg>
