<svg width="180" height="53" viewBox="0 0 180 53" fill="none" xmlns="http://www.w3.org/2000/svg">
<rect y="0.75" width="180" height="52" rx="8" fill="#203066"/>
<path d="M43.5694 26.5585C43.5333 22.6487 46.8528 20.7466 47.0046 20.658C45.1246 17.9856 42.2107 17.6205 41.1867 17.5914C38.7394 17.3403 36.3655 19.0192 35.1188 19.0192C33.8473 19.0192 31.9275 17.6156 29.8584 17.6569C27.1958 17.6969 24.705 19.1999 23.3389 21.5339C20.5195 26.2928 22.6222 33.2862 25.3233 37.1329C26.6745 39.0168 28.2534 41.1203 30.32 41.0463C32.3418 40.9651 33.097 39.7896 35.5369 39.7896C37.9543 39.7896 38.6635 41.0463 40.7712 40.999C42.941 40.9651 44.3072 39.1066 45.6111 37.2057C47.1725 35.0464 47.7996 32.9199 47.8245 32.8107C47.7735 32.7937 43.6104 31.2446 43.5694 26.5585Z" fill="white"/>
<path d="M39.588 15.0609C40.6754 13.735 41.4194 11.9311 41.2129 10.1006C39.639 10.1685 37.6707 11.162 36.5372 12.4588C35.5344 13.6015 34.6386 15.4745 34.87 17.2359C36.638 17.3645 38.4533 16.3662 39.588 15.0609Z" fill="white"/>
<path d="M72.7597 40.7758H69.9341L68.3864 36.0338H63.0065L61.5321 40.7758H58.7812L64.1114 24.632H67.4035L72.7597 40.7758ZM67.9198 34.0444L66.5201 29.8289C66.372 29.3982 66.0946 28.3841 65.6852 26.7877H65.6355C65.4725 27.4743 65.21 28.4884 64.8492 29.8289L63.4743 34.0444H67.9198Z" fill="white"/>
<path d="M86.4669 34.8123C86.4669 36.792 85.9182 38.3569 84.8209 39.5057C83.8379 40.5283 82.6174 41.039 81.1605 41.039C79.5878 41.039 78.4581 40.4883 77.77 39.3868H77.7203V45.5189H75.0677V32.9672C75.0677 31.7225 75.0341 30.4452 74.9694 29.135H77.3022L77.4503 30.9801H77.5001C78.3847 29.5899 79.7271 28.8961 81.5287 28.8961C82.9372 28.8961 84.1129 29.4383 85.0535 30.524C85.9966 31.6109 86.4669 33.0399 86.4669 34.8123ZM83.7645 34.9069C83.7645 33.7739 83.5033 32.8398 82.9782 32.1047C82.4046 31.338 81.6345 30.9547 80.669 30.9547C80.0146 30.9547 79.4198 31.1682 78.8886 31.5891C78.3561 32.0137 78.0077 32.5681 77.8447 33.2547C77.7626 33.5749 77.7215 33.8369 77.7215 34.0432V35.9841C77.7215 36.8308 77.9878 37.5453 78.5203 38.1288C79.0528 38.7123 79.7446 39.0035 80.5956 39.0035C81.5947 39.0035 82.3723 38.6274 82.9284 37.8777C83.4858 37.1268 83.7645 36.137 83.7645 34.9069Z" fill="white"/>
<path d="M100.199 34.8123C100.199 36.792 99.6503 38.3569 98.5517 39.5057C97.5701 40.5283 96.3495 41.039 94.8926 41.039C93.3199 41.039 92.1902 40.4883 91.5034 39.3868H91.4536V45.5189H88.801V32.9672C88.801 31.7225 88.7674 30.4452 88.7027 29.135H91.0356L91.1837 30.9801H91.2334C92.1168 29.5899 93.4593 28.8961 95.2621 28.8961C96.6693 28.8961 97.845 29.4383 98.7881 30.524C99.7275 31.6109 100.199 33.0399 100.199 34.8123ZM97.4967 34.9069C97.4967 33.7739 97.2341 32.8398 96.7091 32.1047C96.1355 31.338 95.3679 30.9547 94.4011 30.9547C93.7454 30.9547 93.152 31.1682 92.6194 31.5891C92.0869 32.0137 91.7398 32.5681 91.5768 33.2547C91.4959 33.5749 91.4536 33.8369 91.4536 34.0432V35.9841C91.4536 36.8308 91.7199 37.5453 92.2499 38.1288C92.7824 38.7111 93.4742 39.0035 94.3277 39.0035C95.3268 39.0035 96.1044 38.6274 96.6606 37.8777C97.218 37.1268 97.4967 36.137 97.4967 34.9069Z" fill="white"/>
<path d="M115.552 36.2485C115.552 37.6218 115.063 38.739 114.082 39.6015C113.003 40.5441 111.501 41.0148 109.572 41.0148C107.79 41.0148 106.361 40.6799 105.28 40.0091L105.895 37.8535C107.059 38.5401 108.337 38.8846 109.73 38.8846C110.729 38.8846 111.506 38.6638 112.065 38.2247C112.621 37.7855 112.898 37.196 112.898 36.4608C112.898 35.8058 112.67 35.2538 112.21 34.8062C111.754 34.3586 110.991 33.9425 109.926 33.5579C107.027 32.5038 105.579 30.9595 105.579 28.9288C105.579 27.6017 106.087 26.5136 107.103 25.6668C108.116 24.8189 109.467 24.3955 111.157 24.3955C112.663 24.3955 113.915 24.6515 114.914 25.1622L114.251 27.2705C113.318 26.7756 112.263 26.5281 111.082 26.5281C110.149 26.5281 109.42 26.7525 108.897 27.1989C108.455 27.598 108.234 28.0845 108.234 28.6607C108.234 29.2988 108.487 29.8265 108.994 30.2414C109.436 30.6247 110.238 31.0396 111.403 31.4872C112.828 32.0464 113.874 32.7003 114.547 33.45C115.218 34.1972 115.552 35.1325 115.552 36.2485Z" fill="white"/>
<path d="M124.323 31.0759H121.399V36.7277C121.399 38.1652 121.914 38.8834 122.947 38.8834C123.421 38.8834 123.814 38.8433 124.125 38.7633L124.198 40.7272C123.676 40.9177 122.988 41.0135 122.135 41.0135C121.088 41.0135 120.269 40.7018 119.678 40.0795C119.09 39.4559 118.793 38.4102 118.793 36.9412V31.0735H117.052V29.1326H118.793V27.0012L121.399 26.2345V29.1326H124.323V31.0759Z" fill="white"/>
<path d="M137.515 34.8596C137.515 36.6489 136.99 38.1179 135.942 39.2667C134.843 40.4494 133.385 41.039 131.567 41.039C129.816 41.039 128.421 40.4725 127.381 39.3395C126.341 38.2065 125.821 36.7762 125.821 35.0524C125.821 33.2486 126.356 31.7711 127.429 30.6223C128.501 29.4723 129.946 28.8973 131.764 28.8973C133.516 28.8973 134.926 29.4638 135.989 30.598C137.007 31.6983 137.515 33.1188 137.515 34.8596ZM134.763 34.9433C134.763 33.8697 134.527 32.949 134.051 32.1811C133.495 31.2519 132.7 30.7885 131.67 30.7885C130.603 30.7885 129.793 31.2531 129.237 32.1811C128.761 32.9502 128.525 33.8855 128.525 34.9918C128.525 36.0654 128.761 36.9861 129.237 37.7528C129.811 38.682 130.612 39.1454 131.646 39.1454C132.659 39.1454 133.454 38.6723 134.027 37.7285C134.516 36.9461 134.763 36.0156 134.763 34.9433Z" fill="white"/>
<path d="M146.137 31.4096C145.874 31.3623 145.594 31.338 145.301 31.338C144.368 31.338 143.646 31.6813 143.138 32.3691C142.697 32.9757 142.475 33.7423 142.475 34.6679V40.7758H139.824L139.849 32.801C139.849 31.4593 139.815 30.2377 139.749 29.1362H142.06L142.157 31.3635H142.23C142.51 30.598 142.952 29.9818 143.556 29.5196C144.147 29.1035 144.786 28.8961 145.474 28.8961C145.719 28.8961 145.94 28.913 146.137 28.9434V31.4096Z" fill="white"/>
<path d="M158 34.4047C158 34.8681 157.969 35.2587 157.903 35.5777H149.945C149.977 36.7277 150.361 37.6072 151.1 38.2137C151.771 38.756 152.638 39.0277 153.703 39.0277C154.881 39.0277 155.956 38.8445 156.923 38.477L157.338 40.2723C156.209 40.7527 154.875 40.9917 153.336 40.9917C151.484 40.9917 150.031 40.4604 148.974 39.3989C147.919 38.3375 147.39 36.9121 147.39 35.124C147.39 33.3687 147.881 31.9069 148.865 30.7411C149.896 29.4965 151.288 28.8742 153.04 28.8742C154.76 28.8742 156.063 29.4965 156.948 30.7411C157.648 31.7298 158 32.9526 158 34.4047ZM155.471 33.7338C155.488 32.9671 155.315 32.3048 154.956 31.7456C154.497 31.0262 153.791 30.6671 152.842 30.6671C151.975 30.6671 151.269 31.0177 150.73 31.7213C150.289 32.2805 150.026 32.9514 149.945 33.7326H155.471V33.7338Z" fill="white"/>
<path d="M67.0422 14.7005C67.0422 16.1283 66.603 17.2031 65.7259 17.9249C64.9134 18.5909 63.7588 18.9245 62.2633 18.9245C61.5218 18.9245 60.8872 18.8929 60.356 18.8298V11.0285C61.049 10.9193 61.7955 10.8635 62.6017 10.8635C64.0263 10.8635 65.1001 11.1656 65.8242 11.7697C66.6354 12.4527 67.0422 13.4292 67.0422 14.7005ZM65.6674 14.7357C65.6674 13.8101 65.4161 13.1004 64.9134 12.6055C64.4108 12.1118 63.6767 11.8643 62.71 11.8643C62.2994 11.8643 61.9498 11.891 61.6599 11.9468V17.8776C61.8204 17.9018 62.114 17.9127 62.5408 17.9127C63.5386 17.9127 64.3087 17.6422 64.8512 17.1012C65.3937 16.5602 65.6674 15.7717 65.6674 14.7357Z" fill="white"/>
<path d="M74.3319 15.9475C74.3319 16.827 74.0744 17.5476 73.5593 18.1129C73.0193 18.694 72.3039 18.9839 71.4106 18.9839C70.5496 18.9839 69.864 18.7061 69.3527 18.1481C68.8426 17.5913 68.5875 16.8889 68.5875 16.0422C68.5875 15.1566 68.85 14.43 69.3776 13.8659C69.9051 13.3018 70.6143 13.0192 71.5076 13.0192C72.3686 13.0192 73.0604 13.297 73.5842 13.8538C74.0818 14.3948 74.3319 15.0935 74.3319 15.9475ZM72.9795 15.9888C72.9795 15.4611 72.8625 15.0086 72.6299 14.6314C72.3562 14.1752 71.9667 13.9472 71.4603 13.9472C70.9365 13.9472 70.5384 14.1752 70.2647 14.6314C70.0308 15.0086 69.9151 15.4684 69.9151 16.0118C69.9151 16.5395 70.032 16.992 70.2647 17.3693C70.5471 17.8254 70.9403 18.0535 71.4479 18.0535C71.9456 18.0535 72.3362 17.8218 72.6174 17.3572C72.8588 16.9726 72.9795 16.5165 72.9795 15.9888Z" fill="white"/>
<path d="M84.1063 13.1356L82.2711 18.8541H81.0767L80.3165 16.3709C80.1236 15.751 79.9669 15.1348 79.8449 14.5234H79.8213C79.7081 15.1518 79.5513 15.7668 79.3497 16.3709L78.5423 18.8541H77.3341L75.6085 13.1356H76.9485L77.6116 15.8541C77.7721 16.4971 77.904 17.1097 78.0097 17.6895H78.0334C78.1304 17.2116 78.2909 16.6026 78.5174 15.8663L79.3497 13.1368H80.4123L81.2098 15.808C81.4026 16.4595 81.5594 17.0866 81.6801 17.6907H81.7162C81.8045 17.1024 81.9376 16.4752 82.1143 15.808L82.826 13.1368H84.1063V13.1356Z" fill="white"/>
<path d="M90.8659 18.8541H89.562V15.5788C89.562 14.5695 89.1689 14.0649 88.38 14.0649C87.9931 14.0649 87.6808 14.2031 87.4382 14.4809C87.1981 14.7587 87.0761 15.0863 87.0761 15.4611V18.8529H85.7722V14.7697C85.7722 14.2674 85.7561 13.7228 85.725 13.1332H86.8709L86.9318 14.0272H86.9679C87.1197 13.7495 87.3461 13.5202 87.6435 13.337C87.9968 13.1235 88.3925 13.0155 88.8255 13.0155C89.3729 13.0155 89.8283 13.1878 90.1903 13.5335C90.6407 13.9569 90.8659 14.5889 90.8659 15.4284V18.8541Z" fill="white"/>
<path d="M94.4616 18.8541H93.159V10.5117H94.4616V18.8541Z" fill="white"/>
<path d="M102.138 15.9475C102.138 16.827 101.881 17.5476 101.366 18.1129C100.826 18.694 100.109 18.9839 99.2169 18.9839C98.3547 18.9839 97.6692 18.7061 97.159 18.1481C96.6489 17.5913 96.3939 16.8889 96.3939 16.0422C96.3939 15.1566 96.6564 14.43 97.1839 13.8659C97.7115 13.3018 98.4207 13.0192 99.3127 13.0192C100.175 13.0192 100.865 13.297 101.391 13.8538C101.888 14.3948 102.138 15.0935 102.138 15.9475ZM100.785 15.9888C100.785 15.4611 100.668 15.0086 100.435 14.6314C100.163 14.1752 99.7718 13.9472 99.2667 13.9472C98.7417 13.9472 98.3435 14.1752 98.071 14.6314C97.8371 15.0086 97.7214 15.4684 97.7214 16.0118C97.7214 16.5395 97.8384 16.992 98.071 17.3693C98.3535 17.8254 98.7466 18.0535 99.2543 18.0535C99.7519 18.0535 100.141 17.8218 100.423 17.3572C100.665 16.9726 100.785 16.5165 100.785 15.9888Z" fill="white"/>
<path d="M108.449 18.8541H107.278L107.181 18.1954H107.145C106.744 18.7207 106.173 18.9839 105.432 18.9839C104.878 18.9839 104.43 18.8104 104.093 18.4659C103.787 18.1529 103.634 17.7635 103.634 17.3013C103.634 16.6026 103.932 16.0701 104.533 15.7013C105.133 15.3325 105.977 15.1518 107.063 15.1603V15.0535C107.063 14.3002 106.657 13.9241 105.845 13.9241C105.266 13.9241 104.756 14.0661 104.316 14.3475L104.051 13.5129C104.596 13.1841 105.269 13.0192 106.062 13.0192C107.595 13.0192 108.364 13.8077 108.364 15.3847V17.4906C108.364 18.062 108.393 18.5169 108.449 18.8541ZM107.095 16.8889V16.007C105.657 15.9827 104.938 16.3673 104.938 17.1594C104.938 17.4578 105.02 17.681 105.188 17.8303C105.356 17.9795 105.57 18.0535 105.825 18.0535C106.111 18.0535 106.378 17.9649 106.622 17.789C106.867 17.6119 107.018 17.3875 107.074 17.1121C107.088 17.0502 107.095 16.975 107.095 16.8889Z" fill="white"/>
<path d="M115.858 18.8541H114.701L114.64 17.9358H114.604C114.234 18.6345 113.605 18.9839 112.72 18.9839C112.013 18.9839 111.425 18.7134 110.958 18.1723C110.492 17.6313 110.259 16.9289 110.259 16.0664C110.259 15.1408 110.512 14.3912 111.019 13.8186C111.511 13.2848 112.113 13.0179 112.83 13.0179C113.617 13.0179 114.168 13.2763 114.482 13.7943H114.507V10.5117H115.812V17.3135C115.812 17.8703 115.827 18.3834 115.858 18.8541ZM114.507 16.4425V15.489C114.507 15.324 114.494 15.1906 114.471 15.0887C114.397 14.783 114.239 14.5258 113.999 14.3184C113.757 14.1109 113.464 14.0066 113.127 14.0066C112.64 14.0066 112.26 14.1946 111.98 14.5719C111.702 14.9492 111.562 15.4308 111.562 16.0191C111.562 16.5844 111.695 17.043 111.962 17.396C112.245 17.772 112.626 17.9601 113.102 17.9601C113.53 17.9601 113.872 17.8036 114.132 17.4894C114.384 17.1994 114.507 16.8501 114.507 16.4425Z" fill="white"/>
<path d="M127.01 15.9475C127.01 16.827 126.752 17.5476 126.237 18.1129C125.697 18.694 124.983 18.9839 124.088 18.9839C123.229 18.9839 122.543 18.7061 122.03 18.1481C121.52 17.5913 121.265 16.8889 121.265 16.0422C121.265 15.1566 121.528 14.43 122.055 13.8659C122.583 13.3018 123.292 13.0192 124.187 13.0192C125.046 13.0192 125.739 13.297 126.262 13.8538C126.76 14.3948 127.01 15.0935 127.01 15.9475ZM125.658 15.9888C125.658 15.4611 125.541 15.0086 125.309 14.6314C125.034 14.1752 124.646 13.9472 124.138 13.9472C123.615 13.9472 123.217 14.1752 122.942 14.6314C122.708 15.0086 122.593 15.4684 122.593 16.0118C122.593 16.5395 122.71 16.992 122.942 17.3693C123.225 17.8254 123.618 18.0535 124.126 18.0535C124.623 18.0535 125.015 17.8218 125.296 17.3572C125.536 16.9726 125.658 16.5165 125.658 15.9888Z" fill="white"/>
<path d="M134.021 18.8541H132.718V15.5788C132.718 14.5695 132.325 14.0649 131.535 14.0649C131.148 14.0649 130.835 14.2031 130.594 14.4809C130.353 14.7587 130.232 15.0863 130.232 15.4611V18.8529H128.927V14.7697C128.927 14.2674 128.912 13.7228 128.881 13.1332H130.026L130.086 14.0272H130.123C130.276 13.7495 130.502 13.5202 130.798 13.337C131.153 13.1235 131.547 13.0155 131.981 13.0155C132.528 13.0155 132.983 13.1878 133.345 13.5335C133.797 13.9569 134.021 14.5889 134.021 15.4284V18.8541Z" fill="white"/>
<path d="M142.796 14.0879H141.36V16.8659C141.36 17.5719 141.615 17.9249 142.12 17.9249C142.354 17.9249 142.548 17.9055 142.701 17.8654L142.735 18.8298C142.477 18.9245 142.139 18.9718 141.722 18.9718C141.207 18.9718 140.806 18.8189 140.517 18.5132C140.225 18.2075 140.081 17.6932 140.081 16.9714V14.0879H139.224V13.1356H140.081V12.0875L141.359 11.7115V13.1344H142.795V14.0879H142.796Z" fill="white"/>
<path d="M149.699 18.8541H148.393V15.603C148.393 14.578 148 14.0648 147.213 14.0648C146.608 14.0648 146.195 14.362 145.969 14.9565C145.93 15.0814 145.908 15.2343 145.908 15.4138V18.8529H144.605V10.5117H145.908V13.9581H145.932C146.343 13.3309 146.932 13.0179 147.694 13.0179C148.234 13.0179 148.681 13.1902 149.035 13.5359C149.477 13.9666 149.699 14.6071 149.699 15.4538V18.8541Z" fill="white"/>
<path d="M156.819 15.7243C156.819 15.9524 156.802 16.1441 156.771 16.3005H152.86C152.878 16.8658 153.064 17.2965 153.426 17.5949C153.757 17.8618 154.184 17.9952 154.706 17.9952C155.285 17.9952 155.813 17.9055 156.288 17.7247L156.492 18.6078C155.936 18.8432 155.281 18.9608 154.524 18.9608C153.615 18.9608 152.9 18.7 152.382 18.1784C151.862 17.6568 151.605 16.9568 151.605 16.0786C151.605 15.2161 151.845 14.4979 152.329 13.9253C152.834 13.3139 153.517 13.0082 154.379 13.0082C155.223 13.0082 155.864 13.3139 156.297 13.9253C156.646 14.4106 156.819 15.011 156.819 15.7243ZM155.575 15.3956C155.585 15.0183 155.499 14.6932 155.322 14.4191C155.096 14.0661 154.751 13.8889 154.285 13.8889C153.859 13.8889 153.512 14.0612 153.247 14.4069C153.031 14.6823 152.902 15.011 152.86 15.3956H155.575Z" fill="white"/>
</svg>
