<svg width="142" height="42" viewBox="0 0 142 42" fill="none" xmlns="http://www.w3.org/2000/svg">
<rect x="0.943359" y="0.964355" width="141" height="41" rx="8" fill="#2A396D"/>
<path d="M35.0728 21.3138C35.0445 18.2311 37.6448 16.7314 37.7637 16.6616C36.291 14.5545 34.0085 14.2666 33.2064 14.2436C31.2893 14.0456 29.4297 15.3694 28.4532 15.3694C27.4571 15.3694 25.9533 14.2627 24.3325 14.2953C22.2468 14.3268 20.2957 15.5119 19.2255 17.3521C17.0171 21.1044 18.6642 26.6184 20.78 29.6514C21.8385 31.1368 23.0753 32.7953 24.6941 32.7369C26.2778 32.6729 26.8694 31.746 28.7807 31.746C30.6743 31.746 31.2299 32.7369 32.8809 32.6996C34.5806 32.6729 35.6507 31.2075 36.6721 29.7088C37.8952 28.0062 38.3864 26.3296 38.4059 26.2435C38.366 26.2301 35.1049 25.0087 35.0728 21.3138Z" fill="white"/>
<path d="M31.954 12.2484C32.8058 11.203 33.3886 9.78071 33.2268 8.3374C31.994 8.39096 30.4521 9.17431 29.5642 10.1968C28.7787 11.0978 28.077 12.5746 28.2583 13.9634C29.6432 14.0647 31.0651 13.2776 31.954 12.2484Z" fill="white"/>
<path d="M57.9381 32.5236H55.7247L54.5123 28.7847H50.2981L49.1432 32.5236H46.9883L51.1635 19.7949H53.7424L57.9381 32.5236ZM54.1468 27.2161L53.0504 23.8924C52.9344 23.5529 52.7171 22.7533 52.3964 21.4945H52.3574C52.2298 22.0359 52.0241 22.8355 51.7415 23.8924L50.6645 27.2161H54.1468Z" fill="white"/>
<path d="M68.6754 27.8216C68.6754 29.3826 68.2456 30.6164 67.386 31.5222C66.616 32.3285 65.6599 32.7312 64.5187 32.7312C63.2867 32.7312 62.4018 32.2969 61.8628 31.4285H61.8238V36.2634H59.746V26.3668C59.746 25.3855 59.7197 24.3783 59.669 23.3453H61.4964L61.6124 24.8001H61.6513C62.3443 23.704 63.3959 23.1569 64.8071 23.1569C65.9104 23.1569 66.8314 23.5844 67.5682 24.4405C68.307 25.2975 68.6754 26.4242 68.6754 27.8216ZM66.5585 27.8962C66.5585 27.0029 66.3539 26.2664 65.9426 25.6868C65.4933 25.0823 64.89 24.78 64.1337 24.78C63.621 24.78 63.1552 24.9484 62.739 25.2803C62.3219 25.615 62.049 26.0521 61.9213 26.5935C61.857 26.846 61.8248 27.0526 61.8248 27.2152V28.7456C61.8248 29.4132 62.0334 29.9765 62.4505 30.4366C62.8677 30.8967 63.4095 31.1262 64.0762 31.1262C64.8588 31.1262 65.4679 30.8297 65.9036 30.2386C66.3402 29.6466 66.5585 28.8661 66.5585 27.8962Z" fill="white"/>
<path d="M79.4322 27.8216C79.4322 29.3826 79.0024 30.6164 78.1418 31.5222C77.3729 32.3285 76.4168 32.7312 75.2755 32.7312C74.0436 32.7312 73.1586 32.2969 72.6206 31.4285H72.5816V36.2634H70.5038V26.3668C70.5038 25.3855 70.4775 24.3783 70.4268 23.3453H72.2542L72.3702 24.8001H72.4091C73.1011 23.704 74.1527 23.1569 75.5649 23.1569C76.6672 23.1569 77.5882 23.5844 78.327 24.4405C79.0628 25.2975 79.4322 26.4242 79.4322 27.8216ZM77.3154 27.8962C77.3154 27.0029 77.1097 26.2664 76.6984 25.6868C76.2491 25.0823 75.6478 24.78 74.8905 24.78C74.3769 24.78 73.912 24.9484 73.4949 25.2803C73.0777 25.615 72.8058 26.0521 72.6781 26.5935C72.6148 26.846 72.5816 27.0526 72.5816 27.2152V28.7456C72.5816 29.4132 72.7902 29.9765 73.2054 30.4366C73.6225 30.8957 74.1644 31.1262 74.833 31.1262C75.6156 31.1262 76.2248 30.8297 76.6604 30.2386C77.097 29.6466 77.3154 28.8661 77.3154 27.8962Z" fill="white"/>
<path d="M91.4589 28.9541C91.4589 30.0368 91.0759 30.9177 90.307 31.5977C89.462 32.3409 88.2856 32.712 86.774 32.712C85.3783 32.712 84.2595 32.448 83.4125 31.9191L83.894 30.2195C84.8062 30.7608 85.8072 31.0325 86.8978 31.0325C87.6804 31.0325 88.2895 30.8584 88.7271 30.5122C89.1628 30.1659 89.3801 29.7011 89.3801 29.1214C89.3801 28.605 89.2008 28.1698 88.8411 27.8168C88.4834 27.4639 87.886 27.1358 87.0517 26.8326C84.7809 26.0014 83.6464 24.7839 83.6464 23.1827C83.6464 22.1363 84.0441 21.2784 84.8403 20.6108C85.6337 19.9422 86.6921 19.6084 88.0156 19.6084C89.1959 19.6084 90.1764 19.8102 90.959 20.2129L90.4395 21.8752C89.7085 21.485 88.8821 21.2899 87.9572 21.2899C87.2262 21.2899 86.6551 21.4668 86.2457 21.8188C85.8998 22.1335 85.7263 22.517 85.7263 22.9713C85.7263 23.4745 85.9241 23.8905 86.3218 24.2176C86.6677 24.5199 87.2964 24.847 88.2086 25.1999C89.3245 25.6409 90.1442 26.1564 90.6715 26.7475C91.1968 27.3367 91.4589 28.0741 91.4589 28.9541Z" fill="white"/>
<path d="M98.329 24.8757H96.0387V29.3319C96.0387 30.4653 96.4422 31.0315 97.2511 31.0315C97.6224 31.0315 97.9304 30.9999 98.174 30.9368L98.2315 32.4853C97.8222 32.6355 97.2832 32.7111 96.6156 32.7111C95.795 32.7111 95.1537 32.4653 94.6908 31.9746C94.2298 31.483 93.9978 30.6585 93.9978 29.5002V24.8738H92.6334V23.3434H93.9978V21.6629L96.0387 21.0584V23.3434H98.329V24.8757Z" fill="white"/>
<path d="M108.663 27.8589C108.663 29.2697 108.252 30.428 107.431 31.3338C106.57 32.2663 105.428 32.7312 104.004 32.7312C102.632 32.7312 101.539 32.2845 100.725 31.3911C99.9098 30.4978 99.5024 29.3701 99.5024 28.011C99.5024 26.5887 99.9215 25.4237 100.763 24.518C101.602 23.6112 102.734 23.1579 104.158 23.1579C105.53 23.1579 106.635 23.6045 107.468 24.4988C108.265 25.3663 108.663 26.4864 108.663 27.8589ZM106.507 27.9249C106.507 27.0784 106.323 26.3525 105.949 25.747C105.514 25.0144 104.891 24.649 104.084 24.649C103.249 24.649 102.614 25.0153 102.179 25.747C101.805 26.3534 101.621 27.0909 101.621 27.9632C101.621 28.8096 101.805 29.5356 102.179 30.1401C102.628 30.8727 103.256 31.2381 104.066 31.2381C104.859 31.2381 105.482 30.8651 105.931 30.121C106.314 29.504 106.507 28.7704 106.507 27.9249Z" fill="white"/>
<path d="M115.417 25.1387C115.211 25.1014 114.992 25.0823 114.762 25.0823C114.031 25.0823 113.466 25.353 113.068 25.8953C112.722 26.3735 112.549 26.978 112.549 27.7078V32.5236H110.472L110.491 26.2358C110.491 25.1779 110.465 24.2148 110.413 23.3463H112.223L112.299 25.1024H112.357C112.576 24.4988 112.922 24.0129 113.396 23.6485C113.859 23.3205 114.358 23.1569 114.897 23.1569C115.089 23.1569 115.263 23.1703 115.417 23.1942V25.1387Z" fill="white"/>
<path d="M124.71 27.5002C124.71 27.8656 124.685 28.1736 124.634 28.4251H118.4C118.425 29.3319 118.726 30.0253 119.305 30.5035C119.83 30.9311 120.509 31.1453 121.344 31.1453C122.267 31.1453 123.109 31.0009 123.866 30.7111L124.191 32.1267C123.306 32.5054 122.262 32.6939 121.056 32.6939C119.606 32.6939 118.467 32.2749 117.639 31.438C116.813 30.6011 116.398 29.4772 116.398 28.0674C116.398 26.6834 116.783 25.5309 117.554 24.6117C118.361 23.6303 119.452 23.1397 120.824 23.1397C122.172 23.1397 123.192 23.6303 123.885 24.6117C124.434 25.3912 124.71 26.3553 124.71 27.5002ZM122.728 26.9713C122.742 26.3668 122.607 25.8446 122.325 25.4036C121.965 24.8365 121.413 24.5533 120.669 24.5533C119.99 24.5533 119.437 24.8298 119.015 25.3845C118.669 25.8254 118.464 26.3544 118.4 26.9703H122.728V26.9713Z" fill="white"/>
<path d="M53.4602 11.9643C53.4602 13.0901 53.1162 13.9375 52.4291 14.5066C51.7927 15.0317 50.8882 15.2947 49.7167 15.2947C49.1359 15.2947 48.6388 15.2699 48.2227 15.2201V9.06908C48.7655 8.983 49.3503 8.939 49.9818 8.939C51.0978 8.939 51.9389 9.17716 52.5061 9.65348C53.1415 10.192 53.4602 10.9619 53.4602 11.9643ZM52.3833 11.9921C52.3833 11.2623 52.1864 10.7027 51.7927 10.3125C51.3989 9.92321 50.8239 9.72809 50.0666 9.72809C49.745 9.72809 49.4711 9.74913 49.2441 9.79313V14.4693C49.3698 14.4884 49.5998 14.497 49.9341 14.497C50.7157 14.497 51.319 14.2838 51.7439 13.8572C52.1689 13.4306 52.3833 12.8089 52.3833 11.9921Z" fill="white"/>
<path d="M59.1705 12.9476C59.1705 13.641 58.9688 14.2091 58.5653 14.6549C58.1423 15.113 57.5819 15.3416 56.8821 15.3416C56.2077 15.3416 55.6707 15.1226 55.2701 14.6826C54.8705 14.2436 54.6707 13.6898 54.6707 13.0222C54.6707 12.3239 54.8763 11.751 55.2896 11.3063C55.7028 10.8615 56.2584 10.6386 56.9581 10.6386C57.6326 10.6386 58.1744 10.8577 58.5848 11.2967C58.9746 11.7233 59.1705 12.2742 59.1705 12.9476ZM58.1111 12.9801C58.1111 12.564 58.0195 12.2073 57.8372 11.9098C57.6228 11.5502 57.3178 11.3703 56.9211 11.3703C56.5108 11.3703 56.1989 11.5502 55.9845 11.9098C55.8013 12.2073 55.7106 12.5698 55.7106 12.9983C55.7106 13.4143 55.8022 13.7711 55.9845 14.0685C56.2057 14.4282 56.5137 14.608 56.9113 14.608C57.3012 14.608 57.6072 14.4253 57.8275 14.059C58.0166 13.7558 58.1111 13.3961 58.1111 12.9801Z" fill="white"/>
<path d="M66.8271 10.7305L65.3895 15.2393H64.4539L63.8584 13.2814C63.7073 12.7926 63.5845 12.3067 63.489 11.8247H63.4705C63.3818 12.3201 63.259 12.805 63.1011 13.2814L62.4686 15.2393H61.5222L60.1705 10.7305H61.2201L61.7396 12.8739C61.8653 13.3808 61.9686 13.8639 62.0515 14.3211H62.07C62.146 13.9442 62.2717 13.4641 62.4491 12.8835L63.1011 10.7314H63.9334L64.5582 12.8376C64.7092 13.3512 64.832 13.8457 64.9266 14.322H64.9548C65.024 13.8581 65.1283 13.3636 65.2667 12.8376L65.8242 10.7314H66.8271V10.7305Z" fill="white"/>
<path d="M72.1221 15.2393H71.1007V12.6568C71.1007 11.861 70.7928 11.4631 70.1749 11.4631C69.8718 11.4631 69.6271 11.5722 69.4371 11.7912C69.249 12.0102 69.1535 12.2685 69.1535 12.564V15.2383H68.1321V12.0188C68.1321 11.6229 68.1194 11.1934 68.095 10.7286H68.9927L69.0404 11.4335H69.0687C69.1876 11.2144 69.365 11.0337 69.5979 10.8892C69.8747 10.7209 70.1846 10.6358 70.5238 10.6358C70.9526 10.6358 71.3093 10.7716 71.5929 11.0442C71.9457 11.378 72.1221 11.8763 72.1221 12.5382V15.2393Z" fill="white"/>
<path d="M74.9388 15.2393H73.9184V8.66162H74.9388V15.2393Z" fill="white"/>
<path d="M80.9522 12.9476C80.9522 13.641 80.7504 14.2091 80.3469 14.6549C79.9239 15.113 79.3626 15.3416 78.6638 15.3416C77.9884 15.3416 77.4513 15.1226 77.0517 14.6826C76.6522 14.2436 76.4524 13.6898 76.4524 13.0222C76.4524 12.3239 76.658 11.751 77.0712 11.3063C77.4845 10.8615 78.04 10.6386 78.7388 10.6386C79.4142 10.6386 79.9551 10.8577 80.3664 11.2967C80.7563 11.7233 80.9522 12.2742 80.9522 12.9476ZM79.8918 12.9801C79.8918 12.564 79.8002 12.2073 79.6179 11.9098C79.4045 11.5502 79.0984 11.3703 78.7027 11.3703C78.2915 11.3703 77.9796 11.5502 77.7661 11.9098C77.5829 12.2073 77.4923 12.5698 77.4923 12.9983C77.4923 13.4143 77.5839 13.7711 77.7661 14.0685C77.9874 14.4282 78.2954 14.608 78.693 14.608C79.0828 14.608 79.3879 14.4253 79.6082 14.059C79.7982 13.7558 79.8918 13.3961 79.8918 12.9801Z" fill="white"/>
<path d="M85.8954 15.2393H84.9783L84.9023 14.7199H84.874C84.5602 15.1341 84.1128 15.3416 83.532 15.3416C83.0983 15.3416 82.7474 15.2048 82.4833 14.9332C82.2435 14.6864 82.1236 14.3794 82.1236 14.015C82.1236 13.4641 82.3575 13.0442 82.8283 12.7534C83.298 12.4626 83.9588 12.3201 84.8097 12.3268V12.2426C84.8097 11.6487 84.492 11.3522 83.8555 11.3522C83.4023 11.3522 83.0027 11.4641 82.6577 11.686L82.4501 11.0279C82.877 10.7687 83.4043 10.6386 84.0261 10.6386C85.2268 10.6386 85.8291 11.2604 85.8291 12.5038V14.1642C85.8291 14.6147 85.8515 14.9734 85.8954 15.2393ZM84.835 13.6898V12.9944C83.7084 12.9753 83.145 13.2785 83.145 13.9031C83.145 14.1384 83.2094 14.3144 83.3409 14.432C83.4725 14.5497 83.6401 14.608 83.8399 14.608C84.0641 14.608 84.2736 14.5382 84.4647 14.3995C84.6567 14.2598 84.7746 14.0829 84.8184 13.8658C84.8292 13.817 84.835 13.7577 84.835 13.6898Z" fill="white"/>
<path d="M91.6992 15.2393H90.7928L90.7451 14.5152H90.7168C90.4273 15.0661 89.9342 15.3416 89.2412 15.3416C88.6877 15.3416 88.2267 15.1283 87.8612 14.7017C87.4957 14.2751 87.3135 13.7213 87.3135 13.0413C87.3135 12.3115 87.5113 11.7204 87.909 11.269C88.2939 10.8481 88.7656 10.6377 89.327 10.6377C89.9439 10.6377 90.3757 10.8414 90.6213 11.2498H90.6408V8.66162H91.6632V14.0245C91.6632 14.4636 91.6749 14.8682 91.6992 15.2393ZM90.6408 13.3378V12.586C90.6408 12.4559 90.631 12.3507 90.6125 12.2704C90.555 12.0294 90.4312 11.8266 90.2431 11.663C90.0531 11.4995 89.8241 11.4172 89.5599 11.4172C89.1789 11.4172 88.8806 11.5655 88.6613 11.8629C88.444 12.1604 88.3339 12.5401 88.3339 13.004C88.3339 13.4497 88.4382 13.8113 88.6477 14.0896C88.8689 14.3861 89.1672 14.5343 89.5405 14.5343C89.8757 14.5343 90.1437 14.411 90.3474 14.1632C90.5443 13.9346 90.6408 13.6592 90.6408 13.3378Z" fill="white"/>
<path d="M100.435 12.9476C100.435 13.641 100.233 14.2091 99.8295 14.6549C99.4065 15.113 98.847 15.3416 98.1463 15.3416C97.4728 15.3416 96.9358 15.1226 96.5343 14.6826C96.1347 14.2436 95.9349 13.6898 95.9349 13.0222C95.9349 12.3239 96.1405 11.751 96.5538 11.3063C96.967 10.8615 97.5225 10.6386 98.2233 10.6386C98.8967 10.6386 99.4396 10.8577 99.8489 11.2967C100.239 11.7233 100.435 12.2742 100.435 12.9476ZM99.3763 12.9801C99.3763 12.564 99.2846 12.2073 99.1024 11.9098C98.887 11.5502 98.5829 11.3703 98.1853 11.3703C97.7759 11.3703 97.4641 11.5502 97.2487 11.9098C97.0654 12.2073 96.9748 12.5698 96.9748 12.9983C96.9748 13.4143 97.0664 13.7711 97.2487 14.0685C97.4699 14.4282 97.7779 14.608 98.1755 14.608C98.5654 14.608 98.8724 14.4253 99.0926 14.059C99.2807 13.7558 99.3763 13.3961 99.3763 12.9801Z" fill="white"/>
<path d="M105.927 15.2393H104.906V12.6568C104.906 11.861 104.598 11.4631 103.979 11.4631C103.676 11.4631 103.432 11.5722 103.243 11.7912C103.053 12.0102 102.959 12.2685 102.959 12.564V15.2383H101.937V12.0188C101.937 11.6229 101.925 11.1934 101.901 10.7286H102.797L102.845 11.4335H102.873C102.993 11.2144 103.17 11.0337 103.402 10.8892C103.68 10.7209 103.989 10.6358 104.329 10.6358C104.757 10.6358 105.114 10.7716 105.397 11.0442C105.751 11.378 105.927 11.8763 105.927 12.5382V15.2393Z" fill="white"/>
<path d="M112.801 11.4813H111.676V13.6716C111.676 14.2283 111.876 14.5066 112.271 14.5066C112.455 14.5066 112.607 14.4913 112.727 14.4597L112.753 15.2201C112.551 15.2947 112.286 15.332 111.96 15.332C111.556 15.332 111.242 15.2115 111.015 14.9705C110.787 14.7295 110.674 14.3239 110.674 13.7548V11.4813H110.002V10.7305H110.674V9.90408L111.675 9.60758V10.7295H112.8V11.4813H112.801Z" fill="white"/>
<path d="M118.208 15.2393H117.185V12.6759C117.185 11.8677 116.877 11.4631 116.26 11.4631C115.787 11.4631 115.463 11.6975 115.286 12.1661C115.256 12.2646 115.238 12.3852 115.238 12.5267V15.2383H114.218V8.66162H115.238V11.379H115.258C115.579 10.8845 116.04 10.6377 116.638 10.6377C117.061 10.6377 117.411 10.7735 117.688 11.0461C118.034 11.3856 118.208 11.8907 118.208 12.5583V15.2393Z" fill="white"/>
<path d="M123.785 12.7716C123.785 12.9514 123.772 13.1025 123.747 13.2259H120.684C120.698 13.6716 120.844 14.0112 121.128 14.2464C121.387 14.4569 121.721 14.5621 122.131 14.5621C122.584 14.5621 122.997 14.4913 123.369 14.3488L123.529 15.0451C123.093 15.2307 122.581 15.3234 121.987 15.3234C121.276 15.3234 120.715 15.1178 120.31 14.7065C119.903 14.2952 119.701 13.7433 119.701 13.0509C119.701 12.3708 119.889 11.8046 120.268 11.3531C120.664 10.8711 121.199 10.63 121.874 10.63C122.535 10.63 123.037 10.8711 123.376 11.3531C123.65 11.7357 123.785 12.2092 123.785 12.7716ZM122.811 12.5124C122.819 12.2149 122.751 11.9586 122.613 11.7424C122.436 11.4641 122.166 11.3244 121.8 11.3244C121.467 11.3244 121.195 11.4602 120.987 11.7328C120.818 11.95 120.717 12.2092 120.684 12.5124H122.811Z" fill="white"/>
</svg>
