<svg width="177" height="27" viewBox="0 0 177 27" fill="none" xmlns="http://www.w3.org/2000/svg">
<path d="M175.452 22.9841L173.995 24.5203C172.402 23.7094 170.758 22.9151 169.117 22.1471L170.496 20.563C172.176 21.355 173.82 22.1493 175.452 22.9841ZM165.432 18.2944L164.13 19.9265C162.44 19.2013 160.753 18.5024 159.014 17.8201L160.24 16.1663C161.996 16.8344 163.722 17.5573 165.432 18.2944ZM154.974 14.1622L153.841 15.8496C152.089 15.2078 150.323 14.6066 148.557 14.0054L149.615 12.2964C151.397 12.8833 153.202 13.5085 154.974 14.1622ZM144.146 10.5567L143.182 12.2994C141.387 11.753 139.559 11.2352 137.734 10.7437L138.624 8.9793C140.468 9.48283 142.315 10.0126 144.146 10.5567ZM133.006 7.51383L132.192 9.29988C130.354 8.84888 128.484 8.42644 126.613 8.00401L127.353 6.19629C129.243 6.63071 131.133 7.06513 133.006 7.51383ZM121.611 5.04326L120.962 6.85835C119.082 6.50273 117.185 6.1614 115.272 5.83435L115.846 3.99758C117.778 4.33661 119.695 4.68994 121.611 5.04326ZM110.031 3.14038L109.548 4.98454C107.641 4.71003 105.701 4.46408 103.784 4.25638L104.193 2.39055C106.129 2.61023 108.088 2.86816 110.031 3.14038ZM98.2986 1.77665L97.9812 3.64988C96.0315 3.47075 94.1045 3.32987 92.1611 3.20327L92.3876 1.32266C94.3667 1.44695 96.3327 1.61181 98.2986 1.77665ZM86.4564 1.00232L86.3015 2.87832C84.3449 2.79227 82.4109 2.74449 80.4412 2.69899L80.5051 0.815602C82.5107 0.858796 84.4999 0.916274 86.4564 1.00232ZM74.6084 0.78418L74.616 2.663C72.6719 2.68203 70.7116 2.71533 68.7543 2.77491L68.6558 0.88872C70.6325 0.841126 72.6091 0.793521 74.6084 0.78418ZM62.7219 1.15086L62.9278 3.03015C60.9768 3.14227 59.0453 3.26638 57.0811 3.41904L56.8037 1.54432C58.7842 1.37737 60.7515 1.25099 62.7219 1.15086ZM50.9206 2.08113L51.2696 3.95123C49.3474 4.15413 47.409 4.37134 45.4931 4.62677L45.0563 2.77554C46.9885 2.50582 48.9433 2.27435 50.9206 2.08113ZM39.2076 3.60129L39.7323 5.43363C37.8226 5.74161 35.913 6.04958 34.026 6.39581L33.394 4.57037C35.3332 4.20756 37.2785 3.89728 39.2076 3.60129ZM27.6707 5.69243L28.3743 7.5133C26.4935 7.91206 24.6321 8.3228 22.7739 8.75981L21.9826 6.95783C23.8765 6.51852 25.7705 6.07921 27.6707 5.69243ZM16.3847 8.37625L17.2608 10.1331C15.4446 10.6203 13.5958 11.1362 11.8022 11.6617L10.8383 9.92371C12.6676 9.39591 14.5164 8.88009 16.3847 8.37625ZM5.3658 11.6385L6.41762 13.3575C4.64973 13.9476 2.86551 14.5519 1.1202 15.1802L0 13.4919C1.74531 12.8637 3.54582 12.2451 5.3658 11.6385Z" fill="#9C9C9C"/>
<path d="M173.4 13.9313L170.895 14.3834L173.88 23.4028L161.409 24.9187L161.83 26.7842L177 24.936L173.4 13.9313Z" fill="#9C9C9C"/>
</svg>
