<svg width="177" height="27" viewBox="0 0 177 27" fill="none" xmlns="http://www.w3.org/2000/svg">
<path d="M175.452 4.58424L173.995 3.04807C172.402 3.85894 170.758 4.65322 169.117 5.42124L170.496 7.00534C172.176 6.21335 173.82 5.41908 175.452 4.58424ZM165.432 9.27394L164.13 7.6419C162.44 8.36707 160.753 9.06597 159.014 9.74829L160.24 11.402C161.996 10.734 163.722 10.0111 165.432 9.27394ZM154.974 13.4061L153.841 11.7188C152.089 12.3605 150.323 12.9618 148.557 13.563L149.615 15.272C151.397 14.6851 153.202 14.0599 154.974 13.4061ZM144.146 17.0116L143.182 15.2689C141.387 15.8153 139.559 16.3331 137.734 16.8247L138.624 18.5891C140.468 18.0855 142.315 17.5557 144.146 17.0116ZM133.006 20.0545L132.192 18.2685C130.354 18.7195 128.484 19.1419 126.613 19.5644L127.353 21.3721C129.243 20.9376 131.133 20.5032 133.006 20.0545ZM121.611 22.5251L120.962 20.71C119.082 21.0656 117.185 21.407 115.272 21.734L115.846 23.5708C117.778 23.2317 119.695 22.8784 121.611 22.5251ZM110.031 24.428L109.548 22.5838C107.641 22.8583 105.701 23.1043 103.784 23.312L104.193 25.1778C106.129 24.9581 108.088 24.7002 110.031 24.428ZM98.2986 25.7917L97.9812 23.9185C96.0315 24.0976 94.1045 24.2385 92.1611 24.3651L92.3876 26.2457C94.3667 26.1214 96.3327 25.9566 98.2986 25.7917ZM86.4564 26.566L86.3015 24.69C84.3449 24.7761 82.4109 24.8239 80.4412 24.8694L80.5051 26.7528C82.5107 26.7096 84.4999 26.6521 86.4564 26.566ZM74.6084 26.7842L74.616 24.9054C72.6719 24.8863 70.7116 24.853 68.7543 24.7935L68.6558 26.6796C70.6325 26.7272 72.6091 26.7748 74.6084 26.7842ZM62.7219 26.4175L62.9278 24.5382C60.9768 24.4261 59.0453 24.302 57.0811 24.1493L56.8037 26.024C58.7842 26.191 60.7515 26.3174 62.7219 26.4175ZM50.9206 25.4872L51.2696 23.6171C49.3474 23.4142 47.409 23.197 45.4931 22.9416L45.0563 24.7928C46.9885 25.0625 48.9433 25.294 50.9206 25.4872ZM39.2076 23.9671L39.7323 22.1347C37.8226 21.8268 35.913 21.5188 34.026 21.1726L33.394 22.998C35.3332 23.3608 37.2785 23.6711 39.2076 23.9671ZM27.6707 21.8759L28.3743 20.0551C26.4935 19.6563 24.6321 19.2456 22.7739 18.8085L21.9826 20.6105C23.8765 21.0498 25.7705 21.4892 27.6707 21.8759ZM16.3847 19.1921L17.2608 17.4353C15.4446 16.948 13.5958 16.4322 11.8022 15.9067L10.8383 17.6446C12.6676 18.1725 14.5164 18.6883 16.3847 19.1921ZM5.3658 15.9299L6.41762 14.2108C4.64973 13.6208 2.86551 13.0165 1.1202 12.3882L0 14.0764C1.74531 14.7047 3.54582 15.3233 5.3658 15.9299Z" fill="#9C9C9C"/>
<path d="M173.4 13.6371L170.895 13.185L173.88 4.16557L161.409 2.6497L161.83 0.78418L177 2.63233L173.4 13.6371Z" fill="#9C9C9C"/>
</svg>
