<svg width="14" height="13" viewBox="0 0 14 13" fill="none" xmlns="http://www.w3.org/2000/svg">
<path d="M14 8.75C14 7.875 13.9141 6.97656 13.5859 6.14844C12.5 3.45312 9.3125 3 6.75 3H5V0.999999C5 0.726562 4.77344 0.5 4.5 0.5C4.36719 0.5 4.24219 0.554687 4.14844 0.648437L0.148438 4.64844C0.0546875 4.74219 0 4.86719 0 5C0 5.13281 0.0546875 5.25781 0.148438 5.35156L4.14844 9.35156C4.24219 9.44531 4.36719 9.5 4.5 9.5C4.77344 9.5 5 9.27344 5 9V7H6.75C10.1172 7 12.3281 7.64844 12.3281 11.375C12.3281 11.6953 12.3125 12.0156 12.2891 12.3359C12.2813 12.4609 12.25 12.6016 12.25 12.7266C12.25 12.875 12.3438 13 12.5 13C12.6094 13 12.6641 12.9453 12.7188 12.8672C12.8359 12.7031 12.9219 12.4531 13.0078 12.2734C13.4531 11.2734 14 9.84375 14 8.75Z" fill="#68616D"/>
</svg>
