<svg width="18" height="19" viewBox="0 0 18 19" fill="none" xmlns="http://www.w3.org/2000/svg">
<path d="M16.5 9.5V13.25C16.5 15.5 15 17 12.75 17H5.25C3 17 1.5 15.5 1.5 13.25V9.5C1.5 7.46 2.73 6.035 4.6425 5.795C4.8375 5.765 5.04 5.75 5.25 5.75H12.75C12.945 5.75 13.1325 5.75749 13.3125 5.78749C15.2475 6.01249 16.5 7.445 16.5 9.5Z" stroke="#4C40ED" stroke-linecap="round" stroke-linejoin="round"/>
<path d="M13.3136 5.7875C13.1336 5.7575 12.9461 5.75001 12.7511 5.75001H5.25105C5.04105 5.75001 4.83855 5.76501 4.64355 5.79501C4.74855 5.58501 4.89855 5.39001 5.07855 5.21001L7.51606 2.765C8.54356 1.745 10.2086 1.745 11.2361 2.765L12.5486 4.09251C13.0286 4.56501 13.2836 5.165 13.3136 5.7875Z" stroke="#4C40ED" stroke-linecap="round" stroke-linejoin="round"/>
<path d="M16.5 9.875H14.25C13.425 9.875 12.75 10.55 12.75 11.375C12.75 12.2 13.425 12.875 14.25 12.875H16.5" stroke="#4C40ED" stroke-linecap="round" stroke-linejoin="round"/>
</svg>
