<svg width="24" height="25" viewBox="0 0 24 25" fill="none" xmlns="http://www.w3.org/2000/svg">
<g clip-path="url(#clip0_7170_281716)">
<path d="M18.5 5.02051C15.9 9.57051 10.89 12.1805 5.67 11.7105L2.5 11.4205" stroke="#FF008A" stroke-miterlimit="10" stroke-linecap="round" stroke-linejoin="round"/>
<path d="M5.5 19.6003C8.1 15.0503 13.11 12.4403 18.33 12.9103L21.5 13.2003" stroke="#FF008A" stroke-miterlimit="10" stroke-linecap="round" stroke-linejoin="round"/>
<path d="M12 22.2305C17.5228 22.2305 22 17.7533 22 12.2305C22 6.70762 17.5228 2.23047 12 2.23047C6.47715 2.23047 2 6.70762 2 12.2305C2 17.7533 6.47715 22.2305 12 22.2305Z" stroke="#FF008A" stroke-miterlimit="10" stroke-linecap="round" stroke-linejoin="round"/>
<path d="M7.62988 3.23047L10.8099 7.18047C12.9399 9.82047 14.4499 12.8905 15.2499 16.1805L16.4599 21.1705" stroke="#FF008A" stroke-miterlimit="10" stroke-linecap="round" stroke-linejoin="round"/>
</g>
<defs>
<clipPath id="clip0_7170_281716">
<rect width="24" height="24" fill="white" transform="translate(0 0.230469)"/>
</clipPath>
</defs>
</svg>
