<svg width="188" height="105" viewBox="0 0 188 105" fill="none" xmlns="http://www.w3.org/2000/svg">
<g clip-path="url(#clip0_110_6417)">
<path d="M181.083 35.3144C175.552 26.873 169.537 18.4274 159.817 14.5539C151.129 11.0996 141.356 11.5671 132.554 14.3129C122.97 17.3067 114.561 23.4833 107.914 30.9215C104.494 34.7476 101.473 38.895 98.7868 43.2647C97.4623 45.4382 96.2071 47.6669 95.0285 49.9209C93.85 52.1749 92.6505 54.4621 92.3185 57.0069C92.045 59.1837 92.6716 61.5115 94.2933 63.0319C96.007 64.6451 98.4773 64.7101 100.631 64.0663C105.496 62.6097 109.553 58.2134 112.261 54.0659C117.514 46.0492 119.758 33.9591 113.118 26.0101C106.478 18.0611 94.7159 17.9571 85.4609 20.9615C76.2059 23.9659 66.6192 29.9551 58.7109 36.2738C43.698 48.2609 31.7789 64.1318 24.9073 82.1099C24.0485 84.3341 23.2963 86.5909 22.6209 88.8728C21.8372 91.4916 27.343 89.606 27.9138 87.8019C32.9524 71.7576 41.6272 57.104 53.5685 45.2165C59.4651 39.3533 66.0686 34.1675 73.2574 29.9988C81.0078 25.49 90.0638 21.1681 99.2043 23.6115C103.314 24.7105 107.077 27.1652 109.279 30.868C111.48 34.5707 112.125 39.3638 111.506 43.7762C110.888 48.1886 109.092 52.2289 106.499 55.6973C105.388 57.1837 104.104 58.5958 102.651 59.7624C101.977 60.2981 101.371 60.8186 100.483 60.5939C99.431 60.3354 98.693 59.3955 98.2403 58.4619C96.3853 54.5956 99.7071 49.8975 101.544 46.6003C103.754 42.6364 106.224 38.8127 109 35.2174C114.094 28.6278 120.466 22.6711 128.146 19.2286C136.199 15.6165 145.653 14.8094 154.061 17.5892C164.122 20.9028 170.289 29.5834 175.877 38.0262C177.041 39.7782 182.131 36.9363 181.063 35.2905L181.077 35.2874L181.083 35.3144Z" fill="#4C40ED"/>
<path d="M39.5572 76.9185L28.4707 89.6344L23.1292 95.7551C21.6406 97.4548 20.1663 99.719 18.0561 100.679L21.1506 100.305C19.375 98.6066 19.1201 95.7263 18.758 93.438C18.3556 90.8465 18.0612 88.2306 17.7534 85.6178C17.1346 80.3786 16.5865 74.8253 14.5096 69.9164C13.7214 68.0652 8.76353 70.6784 9.32407 72.652C10.9066 78.1981 11.7473 83.7277 12.416 89.4382C12.7532 92.2431 13.0769 95.051 13.6227 97.8371C14.0658 100.107 14.646 102.105 16.3523 103.748C17.0758 104.436 18.7514 103.687 19.4468 103.374C22.0591 102.186 23.9848 100.16 25.8425 98.0218C27.893 95.6697 29.9436 93.3176 32.0076 90.9624L44.3211 76.8331C45.1655 75.8613 44.4232 74.9649 43.3255 74.9438C41.8584 74.9212 40.4704 75.8743 39.5468 76.935L39.5572 76.9185Z" fill="#4C40ED"/>
</g>
<defs>
<clipPath id="clip0_110_6417">
<rect width="177.203" height="66.1414" fill="white" transform="translate(187.955 65.4094) rotate(167.239)"/>
</clipPath>
</defs>
</svg>
