<svg width="20" height="20" viewBox="0 0 20 20" fill="none" xmlns="http://www.w3.org/2000/svg">
<path d="M17.8129 13.8136C17.1123 13.0649 15.801 11.9387 15.801 8.25C15.8022 6.92625 15.3394 5.64346 14.492 4.62233C13.6446 3.60119 12.4657 2.90557 11.1582 2.65513V1.90385C11.1582 1.75232 11.1281 1.60228 11.0698 1.46229C11.0115 1.3223 10.926 1.1951 10.8182 1.08795C10.7104 0.980809 10.5824 0.895817 10.4416 0.837831C10.3008 0.779845 10.1499 0.75 9.99744 0.75C9.84501 0.75 9.69408 0.779845 9.55326 0.837831C9.41243 0.895817 9.28448 0.980809 9.1767 1.08795C9.06891 1.1951 8.98342 1.3223 8.92508 1.46229C8.86675 1.60228 8.83673 1.75232 8.83673 1.90385V2.65513C7.52916 2.90557 6.35027 3.60119 5.5029 4.62233C4.65552 5.64346 4.19264 6.92625 4.19389 8.25C4.19389 11.9387 2.88255 13.0649 2.182 13.8136C1.98217 14.0254 1.87223 14.3057 1.87505 14.5961C1.87519 14.7479 1.90542 14.8982 1.96403 15.0384C2.02263 15.1785 2.10846 15.3058 2.2166 15.413C2.32473 15.5202 2.45306 15.6051 2.59424 15.6629C2.73542 15.7207 2.88668 15.7503 3.03937 15.75H16.9607C17.1134 15.7503 17.2646 15.7207 17.4058 15.6629C17.547 15.6051 17.6753 15.5202 17.7834 15.413C17.8916 15.3058 17.9774 15.1785 18.036 15.0384C18.0946 14.8982 18.1249 14.7479 18.125 14.5961C18.1264 14.305 18.0146 14.0246 17.8129 13.8136Z" stroke="#34444C" stroke-width="1.5"/>
<path d="M8.75 1.375H11.25V2.625L10.625 3.3125H10H9.375L8.75 2.625V1.375Z" fill="#34444C"/>
<path d="M12.5 17.5C12.5 18.163 12.2366 18.7989 11.7678 19.2678C11.2989 19.7366 10.663 20 10 20C9.33696 20 8.70107 19.7366 8.23223 19.2678C7.76339 18.7989 7.5 18.163 7.5 17.5L10 17.5H12.5Z" fill="#34444C"/>
</svg>
