<svg width="32" height="33" viewBox="0 0 32 33" fill="none" xmlns="http://www.w3.org/2000/svg">
<path d="M30.955 25.7904C30.955 26.3304 30.835 26.8854 30.58 27.4254C30.325 27.9654 29.995 28.4754 29.56 28.9554C28.825 29.7654 28.015 30.3504 27.1 30.7254C26.2 31.1004 25.225 31.2954 24.175 31.2954C22.645 31.2954 21.01 30.9354 19.285 30.2004C17.56 29.4654 15.835 28.4754 14.125 27.2304C12.4 25.9704 10.765 24.5754 9.205 23.0304C7.66 21.4704 6.265 19.8354 5.02 18.1254C3.79 16.4154 2.8 14.7054 2.08 13.0104C1.36 11.3004 1 9.66541 1 8.10541C1 7.08541 1.18 6.11041 1.54 5.21041C1.9 4.29541 2.47 3.45541 3.265 2.70541C4.225 1.76041 5.275 1.29541 6.385 1.29541C6.805 1.29541 7.225 1.38541 7.6 1.56541C7.99 1.74541 8.335 2.01541 8.605 2.40541L12.085 7.31041C12.355 7.68541 12.55 8.03041 12.685 8.36041C12.82 8.67541 12.895 8.99041 12.895 9.27541C12.895 9.63541 12.79 9.99541 12.58 10.3404C12.385 10.6854 12.1 11.0454 11.74 11.4054L10.6 12.5904C10.435 12.7554 10.36 12.9504 10.36 13.1904C10.36 13.3104 10.375 13.4154 10.405 13.5354C10.45 13.6554 10.495 13.7454 10.525 13.8354C10.795 14.3304 11.26 14.9754 11.92 15.7554C12.595 16.5354 13.315 17.3304 14.095 18.1254C14.905 18.9204 15.685 19.6554 16.48 20.3304C17.26 20.9904 17.905 21.4404 18.415 21.7104C18.49 21.7404 18.58 21.7854 18.685 21.8304C18.805 21.8754 18.925 21.8904 19.06 21.8904C19.315 21.8904 19.51 21.8004 19.675 21.6354L20.815 20.5104C21.19 20.1354 21.55 19.8504 21.895 19.6704C22.24 19.4604 22.585 19.3554 22.96 19.3554C23.245 19.3554 23.545 19.4154 23.875 19.5504C24.205 19.6854 24.55 19.8804 24.925 20.1354L29.89 23.6604C30.28 23.9304 30.55 24.2454 30.715 24.6204C30.865 24.9954 30.955 25.3704 30.955 25.7904Z" stroke="#203066" stroke-width="1.8" stroke-miterlimit="10"/>
<path d="M25.75 11.7954C25.75 10.8954 25.045 9.51541 23.995 8.39041C23.035 7.35541 21.76 6.54541 20.5 6.54541" stroke="#203066" stroke-width="1.8" stroke-linecap="round" stroke-linejoin="round"/>
<path d="M31 11.7954C31 5.99041 26.305 1.29541 20.5 1.29541" stroke="#203066" stroke-width="1.8" stroke-linecap="round" stroke-linejoin="round"/>
</svg>
