<svg width="30" height="30" viewBox="0 0 30 30" fill="none" xmlns="http://www.w3.org/2000/svg">
<g clip-path="url(#clip0_7444_245504)">
<path d="M9.84375 4.6875H7.96875C7.70953 4.6875 7.5 4.4775 7.5 4.21875C7.5 3.96 7.70953 3.75 7.96875 3.75H9.84375C10.103 3.75 10.3125 3.96 10.3125 4.21875C10.3125 4.4775 10.103 4.6875 9.84375 4.6875Z" fill="white"/>
<path d="M8.90625 5.625C8.64703 5.625 8.4375 5.415 8.4375 5.15625V3.28125C8.4375 3.0225 8.64703 2.8125 8.90625 2.8125C9.16547 2.8125 9.375 3.0225 9.375 3.28125V5.15625C9.375 5.415 9.16547 5.625 8.90625 5.625Z" fill="white"/>
<path d="M6.5625 14.0625C5.27016 14.0625 4.21875 13.0111 4.21875 11.7188C4.21875 10.4264 5.27016 9.375 6.5625 9.375C7.85484 9.375 8.90625 10.4264 8.90625 11.7188C8.90625 13.0111 7.85484 14.0625 6.5625 14.0625ZM6.5625 10.3125C5.78719 10.3125 5.15625 10.9434 5.15625 11.7188C5.15625 12.4941 5.78719 13.125 6.5625 13.125C7.33781 13.125 7.96875 12.4941 7.96875 11.7188C7.96875 10.9434 7.33781 10.3125 6.5625 10.3125Z" fill="white"/>
<path d="M23.4375 14.0625C22.1452 14.0625 21.0938 13.0111 21.0938 11.7188C21.0938 10.4264 22.1452 9.375 23.4375 9.375C24.7298 9.375 25.7812 10.4264 25.7812 11.7188C25.7812 13.0111 24.7298 14.0625 23.4375 14.0625ZM23.4375 10.3125C22.6622 10.3125 22.0312 10.9434 22.0312 11.7188C22.0312 12.4941 22.6622 13.125 23.4375 13.125C24.2128 13.125 24.8438 12.4941 24.8438 11.7188C24.8438 10.9434 24.2128 10.3125 23.4375 10.3125Z" fill="white"/>
<path d="M5.79141 21.0938H3.58359C2.90016 21.0938 2.34375 20.5373 2.34375 19.8539V18.2812C2.34375 18.022 2.55328 17.8125 2.8125 17.8125C3.07172 17.8125 3.28125 18.022 3.28125 18.2812V19.8539C3.28125 20.0208 3.41672 20.1562 3.58359 20.1562H5.79187C5.95828 20.1562 6.09375 20.0208 6.09375 19.8539V19.2188C6.09375 18.9595 6.30328 18.75 6.5625 18.75C6.82172 18.75 7.03125 18.9595 7.03125 19.2188V19.8539C7.03125 20.5373 6.47484 21.0938 5.79141 21.0938Z" fill="white"/>
<path d="M26.4164 30H24.2076C23.5242 30 22.9678 29.4441 22.9678 28.7606V28.125C22.9678 27.8658 23.1773 27.6562 23.4365 27.6562C23.6957 27.6562 23.9053 27.8658 23.9053 28.125V28.7606C23.9053 28.9266 24.0407 29.0625 24.2076 29.0625H26.4164C26.5823 29.0625 26.7182 28.927 26.7182 28.7606V27.1875C26.7182 26.9283 26.9278 26.7188 27.187 26.7188C27.4462 26.7188 27.6557 26.9283 27.6557 27.1875V28.7606C27.6557 29.4441 27.0998 30 26.4164 30Z" fill="white"/>
<path d="M24.4289 17.3438H5.57109C3.27422 17.3438 1.40625 15.4758 1.40625 13.1794C1.40625 13.1512 1.40859 13.1236 1.41375 13.0964L2.16891 8.89781C2.31469 8.08781 3.01781 7.5 3.84047 7.5H26.1591C26.9822 7.5 27.6853 8.08781 27.8306 8.89781L28.5858 13.0964C28.5914 13.1236 28.5938 13.1512 28.5938 13.1794C28.5938 15.4758 26.7258 17.3438 24.4289 17.3438ZM2.34422 13.2197C2.36578 14.9808 3.80484 16.4062 5.57109 16.4062H24.4289C26.1952 16.4062 27.6342 14.9808 27.6558 13.2197L26.9081 9.06375C26.8434 8.70094 26.5284 8.4375 26.1595 8.4375H3.84047C3.47156 8.4375 3.15656 8.70094 3.09141 9.06328L2.34422 13.2197Z" fill="white"/>
<path d="M25.3133 6.09375C25.1361 6.09375 24.9669 5.99297 24.8876 5.82188C24.8539 5.74922 24.59 5.27438 22.6128 2.22281C22.0915 1.41797 21.2075 0.9375 20.2475 0.9375H9.7742C8.8053 0.9375 7.91608 1.42594 7.39577 2.24344L5.08342 5.87672C4.94467 6.09516 4.65545 6.15984 4.43608 6.02063C4.21764 5.88188 4.15295 5.59172 4.29217 5.37328L6.60452 1.74C7.2978 0.650625 8.4828 0 9.7742 0H20.248C21.5272 0 22.7051 0.640312 23.3998 1.71281C25.5669 5.05734 25.6962 5.33625 25.7384 5.42813C25.8472 5.66297 25.745 5.94141 25.5101 6.05063C25.4459 6.07969 25.3794 6.09375 25.3133 6.09375Z" fill="white"/>
<path d="M29.5312 6.09375H27.1875C26.9283 6.09375 26.7188 5.88375 26.7188 5.625C26.7188 5.36625 26.9283 5.15625 27.1875 5.15625H29.5312C29.7905 5.15625 30 5.36625 30 5.625C30 5.88375 29.7905 6.09375 29.5312 6.09375Z" fill="white"/>
<path d="M2.8125 6.09375H0.46875C0.209531 6.09375 0 5.88375 0 5.625C0 5.36625 0.209531 5.15625 0.46875 5.15625H2.8125C3.07172 5.15625 3.28125 5.36625 3.28125 5.625C3.28125 5.88375 3.07172 6.09375 2.8125 6.09375Z" fill="white"/>
<path d="M19.2188 12.1875H10.7812C10.522 12.1875 10.3125 11.9775 10.3125 11.7188C10.3125 11.46 10.522 11.25 10.7812 11.25H19.2188C19.478 11.25 19.6875 11.46 19.6875 11.7188C19.6875 11.9775 19.478 12.1875 19.2188 12.1875Z" fill="white"/>
<path d="M14.9999 13.8272C14.1862 13.8272 13.3719 13.7466 12.5643 13.5849C12.3107 13.5342 12.1457 13.2872 12.1968 13.0331C12.2479 12.7791 12.4944 12.6155 12.7485 12.6656C14.2429 12.9647 15.7579 12.9647 17.2518 12.6656C17.5091 12.6141 17.7529 12.78 17.8035 13.0331C17.8541 13.2872 17.6896 13.5338 17.436 13.5849C16.6279 13.7461 15.8137 13.8272 14.9999 13.8272Z" fill="white"/>
<path d="M17.3438 3.28125H12.6562C12.397 3.28125 12.1875 3.07125 12.1875 2.8125C12.1875 2.55375 12.397 2.34375 12.6562 2.34375H17.3438C17.603 2.34375 17.8125 2.55375 17.8125 2.8125C17.8125 3.07125 17.603 3.28125 17.3438 3.28125Z" fill="white"/>
<path d="M24.3751 21.3282C24.2551 21.3282 24.1351 21.2823 24.0437 21.1909C23.8604 21.0076 23.8604 20.7114 24.0437 20.5281L26.3875 18.1843C26.5707 18.0011 26.867 18.0011 27.0503 18.1843C27.2336 18.3676 27.2336 18.6639 27.0503 18.8471L24.7065 21.1909C24.6151 21.2823 24.4951 21.3282 24.3751 21.3282Z" fill="white"/>
<path d="M26.7189 21.3282C26.5989 21.3282 26.4789 21.2823 26.3875 21.1909L24.0437 18.8471C23.8604 18.6639 23.8604 18.3676 24.0437 18.1843C24.227 18.0011 24.5232 18.0011 24.7065 18.1843L27.0503 20.5281C27.2336 20.7114 27.2336 21.0076 27.0503 21.1909C26.9589 21.2823 26.8389 21.3282 26.7189 21.3282Z" fill="white"/>
<path d="M26.7188 25.7803C26.4595 25.7803 26.25 25.5708 26.25 25.3116V22.5C26.25 22.2408 26.4595 22.0312 26.7188 22.0312C26.978 22.0312 27.1875 22.2408 27.1875 22.5V25.3116C27.1875 25.5708 26.978 25.7803 26.7188 25.7803Z" fill="white"/>
<path d="M24.375 25.3134C24.1158 25.3134 23.9062 25.1039 23.9062 24.8447V22.5C23.9062 22.2408 24.1158 22.0312 24.375 22.0312C24.6342 22.0312 24.8438 22.2408 24.8438 22.5V24.8447C24.8438 25.1039 24.6342 25.3134 24.375 25.3134Z" fill="white"/>
<path d="M24.375 26.7182C24.1158 26.7182 23.9062 26.5096 23.9062 26.2504V26.248C23.9062 25.9888 24.1158 25.7793 24.375 25.7793C24.6342 25.7793 24.8438 25.9888 24.8438 26.248C24.8438 26.5073 24.6342 26.7182 24.375 26.7182Z" fill="white"/>
<path d="M16.875 25.7812H13.125C12.8658 25.7812 12.6562 25.5717 12.6562 25.3125V20.625C12.6562 20.3658 12.8658 20.1562 13.125 20.1562H16.875C17.1342 20.1562 17.3438 20.3658 17.3438 20.625V25.3125C17.3438 25.5717 17.1342 25.7812 16.875 25.7812ZM13.5938 24.8438H16.4062V21.0938H13.5938V24.8438Z" fill="white"/>
<path d="M19.2188 30H10.7812C10.522 30 10.3125 29.7905 10.3125 29.5312V27.1875C10.3125 26.9283 10.522 26.7188 10.7812 26.7188H19.2188C19.478 26.7188 19.6875 26.9283 19.6875 27.1875V29.5312C19.6875 29.7905 19.478 30 19.2188 30ZM11.25 29.0625H18.75V27.6562H11.25V29.0625Z" fill="white"/>
<path d="M20.1558 20.6252C19.9247 20.6252 19.7237 20.4545 19.6918 20.2192L19.5558 19.2114H10.4443L10.3083 20.2192C10.2737 20.4756 10.0369 20.6533 9.781 20.6209C9.52459 20.5862 9.34459 20.35 9.37928 20.0936L9.57006 18.6794C9.60147 18.4469 9.79975 18.2734 10.0346 18.2734H19.9655C20.2004 18.2734 20.3987 18.4469 20.4301 18.6794L20.6208 20.0936C20.6551 20.35 20.4751 20.5862 20.2191 20.6209C20.198 20.6237 20.1765 20.6252 20.1558 20.6252Z" fill="white"/>
<path d="M13.1251 23.9064C13.0051 23.9064 12.8851 23.8604 12.7937 23.769C12.6104 23.5857 12.6104 23.2895 12.7937 23.1062L15.6062 20.2937C15.7895 20.1104 16.0857 20.1104 16.269 20.2937C16.4523 20.477 16.4523 20.7732 16.269 20.9565L13.4565 23.769C13.3651 23.8604 13.2451 23.9064 13.1251 23.9064Z" fill="white"/>
<path d="M14.0626 25.7814C13.9426 25.7814 13.8226 25.7354 13.7312 25.644C13.5479 25.4607 13.5479 25.1645 13.7312 24.9812L16.5437 22.1687C16.727 21.9854 17.0232 21.9854 17.2065 22.1687C17.3898 22.352 17.3898 22.6482 17.2065 22.8315L14.394 25.644C14.3026 25.7354 14.1826 25.7814 14.0626 25.7814Z" fill="white"/>
</g>
<defs>
<clipPath id="clip0_7444_245504">
<rect width="30" height="30" fill="white"/>
</clipPath>
</defs>
</svg>
