<svg width="36" height="48" viewBox="0 0 36 48" fill="none" xmlns="http://www.w3.org/2000/svg">
<path d="M32.3125 0.875H2.9375C1.28516 0.875 0 2.25195 0 3.8125V24.375H35.25V3.8125C35.25 2.25195 33.873 0.875 32.3125 0.875ZM0 30.25C0 33.5547 2.57031 36.125 5.875 36.125H11.75V42C11.75 45.3047 14.3203 47.875 17.625 47.875C20.8379 47.875 23.5 45.3047 23.5 42V36.125H29.375C32.5879 36.125 35.25 33.5547 35.25 30.25V27.3125H0V30.25ZM17.625 39.7969C18.8184 39.7969 19.8281 40.8066 19.8281 42C19.8281 43.2852 18.8184 44.2031 17.625 44.2031C16.3398 44.2031 15.4219 43.2852 15.4219 42C15.4219 40.8066 16.3398 39.7969 17.625 39.7969Z" fill="#FF008A"/>
</svg>
