<svg width="30" height="30" viewBox="0 0 30 30" fill="none" xmlns="http://www.w3.org/2000/svg">
<path d="M28.2641 19.8868C27.1452 18.768 25.6583 18.1514 24.0758 18.1514C23.4089 18.1514 22.7605 18.2678 22.1476 18.4779L19.0719 15.4016C19.894 14.5768 20.7146 13.7537 21.5196 12.9461L23.9136 15.3407C23.9903 15.417 24.0911 15.4562 24.1924 15.4562C24.2791 15.4562 24.3653 15.4277 24.4377 15.3703L29.8508 11.0733C29.9385 11.0036 29.9929 10.8994 29.9989 10.787C30.0056 10.6748 29.9638 10.5656 29.8842 10.486L27.0519 7.65355C27.3861 7.31647 27.6014 7.09641 27.7306 6.94969C27.7626 6.93124 27.7992 6.90413 27.823 6.8796C28.3398 6.36307 28.0776 5.3218 27.2128 4.45683C26.4041 3.64845 25.3684 3.3557 24.8444 3.79595C24.7751 3.81294 24.7112 3.84849 24.6596 3.90013L23.9789 4.58104L20.8582 1.46004C20.7786 1.38072 20.6684 1.33853 20.5567 1.34494C20.4443 1.35169 20.3404 1.40524 20.2703 1.49323L15.9726 6.90537C15.8483 7.06232 15.861 7.28767 16.0028 7.42943L18.4295 9.85603L15.9773 12.3077L11.5207 7.85089C12.252 5.72109 11.7036 3.32634 10.1147 1.73715C8.9964 0.618692 7.50925 0.00292969 5.92715 0.00292969C5.15308 0.00292969 4.3986 0.150767 3.68462 0.442053C3.56232 0.491669 3.47321 0.599678 3.44688 0.729064C3.42089 0.858449 3.46128 0.992448 3.55455 1.08583L6.35547 3.88742L6.2307 6.23155L3.88668 6.35643L1.08509 3.55518C0.991709 3.4618 0.858161 3.42152 0.728438 3.44751C0.598715 3.4735 0.491043 3.56306 0.441427 3.68524C-0.462246 5.901 0.0467446 8.42469 1.73742 10.1154C2.85182 11.2302 4.33481 11.8442 5.91376 11.8442C6.57498 11.8442 7.22179 11.7298 7.84588 11.5158L12.3095 15.978L3.87599 24.4112C3.81051 24.4767 3.77361 24.5633 3.76652 24.6538C3.31289 25.4969 3.46083 26.5612 4.14883 27.2474C4.5641 27.6631 5.11641 27.8919 5.70393 27.8919C6.0697 27.8919 6.42568 27.8018 6.74385 27.6309C6.83521 27.6228 6.92252 27.5831 6.98867 27.5169L7.23394 27.2697C7.24148 27.2631 7.2489 27.2567 7.25644 27.2486C7.25881 27.2462 7.26105 27.244 7.26342 27.2416C7.26342 27.2416 10.9543 23.5411 15.4076 19.076L18.4793 22.1478C17.7452 24.2831 18.2814 26.6572 19.8866 28.2635C21.0063 29.3823 22.4937 29.998 24.0757 29.998C25.6581 29.998 27.145 29.3823 28.264 28.2635C29.3833 27.1454 29.9997 25.6581 29.9997 24.0755C30.0003 22.4934 29.3835 21.0057 28.2641 19.8868ZM25.1273 4.54841C25.2452 4.50262 25.3279 4.42454 25.3479 4.40406C25.3699 4.38246 25.42 4.36975 25.4851 4.36975C25.7464 4.36975 26.2096 4.56911 26.6558 5.01521C27.2492 5.60847 27.3573 6.16562 27.2754 6.30873L27.2731 6.31087C27.2565 6.32448 27.2411 6.33911 27.2273 6.35531C27.1794 6.40538 26.9265 6.66122 26.5107 7.08066L24.663 5.01364L25.1273 4.54841ZM5.9141 11.0549C4.54565 11.0549 3.26068 10.5226 2.29524 9.55721C0.974383 8.23669 0.485755 6.32932 0.97517 4.55944L3.45397 7.03813C3.53273 7.11745 3.64366 7.16031 3.75358 7.15322L6.62707 6.99987C6.82812 6.9893 6.98901 6.8283 6.99959 6.62736L7.1526 3.75387C7.15856 3.64238 7.11682 3.53302 7.0375 3.45426L4.55892 0.975571C5.00243 0.853274 5.46068 0.791506 5.9267 0.791506C7.29796 0.791506 8.5872 1.32514 9.55714 2.29418C10.9443 3.68198 11.4173 5.77847 10.7622 7.63544C10.7531 7.66143 10.7417 7.68674 10.7308 7.71194C10.7173 7.74311 10.7038 7.77394 10.6925 7.8033C10.4284 8.47746 10.0462 9.06734 9.55669 9.55631C9.10519 10.0078 8.5737 10.3685 7.96964 10.6319C7.9414 10.6448 7.91203 10.6557 7.88267 10.667L7.87322 10.6705L7.80706 10.6961C7.20255 10.9342 6.56575 11.0549 5.9141 11.0549ZM8.72761 11.1377C8.78117 11.1095 8.83326 11.079 8.88569 11.049C8.98425 10.9923 9.08123 10.9335 9.17585 10.8713C9.2267 10.8382 9.27812 10.8045 9.32819 10.7695C9.42562 10.7018 9.51979 10.6299 9.61227 10.5562C9.65367 10.5234 9.69609 10.4923 9.73648 10.4584C9.86699 10.3493 9.99401 10.2353 10.1147 10.1141C10.2423 9.98654 10.3619 9.85119 10.4767 9.71224C10.5117 9.66983 10.5444 9.62572 10.5783 9.58252C10.6592 9.47879 10.7364 9.37224 10.81 9.26277C10.8417 9.21585 10.8735 9.16939 10.904 9.12168C10.9898 8.98566 11.0707 8.84604 11.146 8.70202C11.1562 8.68245 11.1682 8.66388 11.1784 8.64431C11.1808 8.63947 11.1836 8.63508 11.1858 8.63036L15.3912 12.8359L12.8366 15.3902L8.63558 11.1893C8.66719 11.1732 8.69645 11.1543 8.72761 11.1377ZM20.6141 2.33063L29.0141 10.7309L24.2233 14.5344L21.7991 12.1095L19.2672 9.57768L16.8104 7.12105L20.6141 2.33063ZM6.7398 26.6509C6.72439 26.6621 6.71167 26.6743 6.6948 26.6959L6.55967 26.8311C6.53121 26.8414 6.50398 26.8553 6.47844 26.8721C5.93637 27.2299 5.1694 27.1533 4.7062 26.6898C4.23625 26.2212 4.15929 25.4777 4.52292 24.9233C4.53991 24.8972 4.55352 24.8686 4.5632 24.8393L18.9879 10.4145L20.9623 12.3892C20.106 13.2482 19.2301 14.1259 18.356 15.0034C18.2999 15.0227 18.2479 15.0513 18.2052 15.0936L15.0978 18.2103C15.0541 18.2543 15.026 18.3065 15.0074 18.3613C10.7337 22.6474 7.12436 26.2655 6.7398 26.6509ZM18.5158 15.96L21.2699 18.7148C20.7862 18.982 20.347 19.3124 19.9585 19.7013C19.4819 20.1775 19.0931 20.7366 18.8034 21.3573L15.9647 18.5181C16.7989 17.6809 17.6556 16.8225 18.5158 15.96ZM27.7067 27.7063C26.7367 28.6761 25.4477 29.2102 24.0759 29.2102C22.7045 29.2102 21.4147 28.6761 20.4444 27.7063C19.0144 26.2755 18.5601 24.1417 19.2762 22.2523C19.2896 22.2297 19.3009 22.2057 19.3098 22.1803C19.3239 22.1403 19.3416 22.1006 19.3586 22.0609L19.3913 21.9835C19.6516 21.4009 20.0067 20.8832 20.4452 20.4442C21.415 19.4743 22.7045 18.9399 24.076 18.9399C25.4478 18.9399 26.7368 19.4743 27.7068 20.4442C28.6771 21.4141 29.2114 22.7039 29.2114 24.0757C29.2117 25.447 28.6769 26.7368 27.7067 27.7063Z" fill="white"/>
<path d="M25.0477 21.2124C24.9474 21.1126 24.8039 21.0734 24.6664 21.1103L22.0812 21.8026C21.9453 21.8392 21.8388 21.9452 21.8025 22.0814L21.7208 22.3864L21.1102 24.6653C21.0736 24.8012 21.1125 24.9464 21.2121 25.0461L23.1041 26.9389C23.1788 27.0136 23.2797 27.0544 23.3829 27.0544C23.4168 27.0544 23.4514 27.0498 23.4849 27.0405L26.07 26.3475C26.2063 26.3105 26.3122 26.2046 26.3488 26.0686L27.0414 23.4839C27.078 23.348 27.0391 23.2026 26.9395 23.1031L25.0477 21.2124ZM23.501 26.2204L21.9321 24.6499L22.4379 22.7586L22.5057 22.5057L24.6504 21.9312L26.2206 23.5001L25.6461 25.6445L23.501 26.2204Z" fill="white"/>
</svg>
