<svg width="26" height="30" viewBox="0 0 26 30" fill="none" xmlns="http://www.w3.org/2000/svg">
<path d="M18.3508 9.70513C18.3328 9.70513 18.3147 9.70319 18.2971 9.69874C17.1662 9.43984 15.6538 9.30844 13.8029 9.30844C10.6353 9.30844 7.54247 9.69916 7.51136 9.70319C7.44816 9.71291 7.38441 9.69444 7.33385 9.65541L5.55332 8.30574C5.48095 8.25073 5.4447 8.15934 5.46081 8.06975C5.47706 7.98016 5.54123 7.90668 5.62818 7.87932C7.66623 7.2472 9.98555 6.92676 12.522 6.92676C16.8307 6.92676 20.3316 7.86765 20.3668 7.87696C20.4584 7.90168 20.5264 7.97724 20.5422 8.07072C20.5583 8.16364 20.5185 8.25809 20.4405 8.31171L18.4897 9.66138C18.4487 9.69069 18.4001 9.70513 18.3508 9.70513ZM6.23072 8.20906L7.54886 9.20871C8.10668 9.14162 10.9234 8.8223 13.8027 8.8223C15.6345 8.8223 17.1467 8.94981 18.3003 9.20093L19.7177 8.22031C18.5987 7.96571 15.7981 7.41373 12.5213 7.41373C10.2226 7.4136 8.10904 7.68139 6.23072 8.20906Z" fill="white"/>
<path d="M14.3037 6.08849C14.2414 6.08849 14.1792 6.06474 14.1317 6.01765L11.7099 3.59666L11.0996 4.20656C11.0377 4.26837 10.9462 4.29309 10.8626 4.26879C10.7777 4.24559 10.7126 4.17781 10.6913 4.09308L10.389 2.87439C10.3685 2.79147 10.3927 2.70396 10.4531 2.64368L12.0745 1.0233C12.1696 0.928432 12.3238 0.928432 12.4187 1.0233L13.179 1.78363C13.2739 1.87849 13.2739 2.03267 13.179 2.12781L12.5681 2.73855L14.9897 5.16009C15.0843 5.25496 15.0843 5.40942 14.9897 5.50428L14.4759 6.01834C14.4282 6.06474 14.366 6.08849 14.3037 6.08849ZM11.7103 3.00912C11.7725 3.00912 11.835 3.03287 11.8827 3.08024L14.3042 5.50109L14.4739 5.33136L12.0525 2.90967C11.9577 2.8148 11.9577 2.66035 12.0525 2.56548L12.6633 1.95475L12.2475 1.53903L10.8959 2.89023L11.0614 3.55707L11.5389 3.0801C11.5858 3.03246 11.6481 3.00912 11.7103 3.00912Z" fill="white"/>
<path d="M13.0003 18.9553C11.7315 18.9553 10.4768 18.5483 9.37228 17.7782C6.95643 16.0956 5.45605 12.879 5.45605 9.38283C5.45605 9.03989 5.47439 8.68237 5.51384 8.26984C5.47786 8.22678 5.45605 8.17234 5.45605 8.11205V4.17763C5.45605 1.87443 7.32979 0 9.63299 0H16.3663C18.6708 0 20.5449 1.87443 20.5449 4.17763V8.11191C20.5449 8.17234 20.5227 8.22762 20.4865 8.27026C20.5265 8.68334 20.5449 9.04073 20.5449 9.38283C20.5449 12.8786 19.0443 16.0956 16.6287 17.7782C15.523 18.5483 14.2691 18.9553 13.0003 18.9553ZM5.94248 7.93635C5.94706 7.94065 5.95123 7.9451 5.95539 7.9494C6.00151 8.00052 6.02331 8.06913 6.01623 8.13761C5.96553 8.61223 5.94248 9.00795 5.94248 9.38325C5.94248 12.7225 7.36354 15.7867 9.65049 17.38C11.6944 18.8046 14.3023 18.8055 16.3501 17.38C18.6375 15.7866 20.0581 12.7229 20.0581 9.38325C20.0581 9.00892 20.0338 8.61347 19.9835 8.13844C19.9759 8.06927 19.9981 8.00107 20.0444 7.94954C20.0491 7.94482 20.0538 7.93982 20.0583 7.93551V4.17763C20.0583 2.14208 18.4022 0.486698 16.3663 0.486698H9.63299C7.59814 0.486698 5.94248 2.14208 5.94248 4.17763V7.93635Z" fill="white"/>
<path d="M13.0006 30.0003C10.435 30.0003 7.88885 29.6798 5.63621 29.0732C5.52967 29.0444 5.45605 28.9478 5.45605 28.8385V26.5589C5.45605 26.4243 5.56509 26.3154 5.6994 26.3154H20.3017C20.4363 26.3154 20.5451 26.4243 20.5451 26.5589V28.8385C20.5451 28.9488 20.4715 29.0448 20.3649 29.0732C18.111 29.68 15.5652 30.0003 13.0006 30.0003ZM5.94275 28.6503C10.2764 29.7798 15.722 29.7808 20.0584 28.6503V26.8013H5.94303C5.94303 26.8013 5.94303 28.6503 5.94275 28.6503Z" fill="white"/>
<path d="M3.58578 28.3947C3.55606 28.3947 3.52633 28.3894 3.49758 28.379C2.46418 27.9787 1.54204 27.5214 0.756848 27.0186C0.690316 26.9763 0.648786 26.9046 0.645452 26.826C0.638507 26.6963 0.632812 26.5671 0.632812 26.4367C0.632812 24.2617 1.62218 22.1332 3.41938 20.4438C3.4905 20.3772 3.59412 20.3597 3.68273 20.3977C3.77204 20.4361 3.82955 20.5242 3.82955 20.6211V28.1512C3.82955 28.2316 3.7901 28.3066 3.72357 28.3518C3.68287 28.3808 3.63453 28.3947 3.58578 28.3947ZM1.12576 26.6764C1.77455 27.0813 2.51849 27.4563 3.34285 27.7924V21.2062C1.88595 22.7406 1.12007 24.5382 1.12007 26.4358C1.11965 26.5165 1.12201 26.5964 1.12576 26.6764Z" fill="white"/>
<path d="M20.3016 24.3955H5.6994C5.56495 24.3955 5.45605 24.2866 5.45605 24.1521V19.0637C5.45605 18.9762 5.50259 18.8963 5.57773 18.8525C6.76489 18.1675 8.07011 17.6594 9.45743 17.3419C9.52562 17.3267 9.59438 17.3409 9.65063 17.3795C11.6945 18.8041 14.3025 18.8052 16.3502 17.3795C16.4072 17.3411 16.4766 17.3267 16.5433 17.3419C17.9302 17.6594 19.2351 18.1675 20.4234 18.8525C20.498 18.8967 20.5451 18.977 20.5451 19.0639V24.1525C20.5449 24.2866 20.4361 24.3955 20.3016 24.3955ZM5.94248 23.9087H20.0581V19.2053C18.9748 18.596 17.7917 18.1378 16.5383 17.8403C14.3708 19.3005 11.6262 19.2995 9.4627 17.8403C8.20873 18.1368 7.02546 18.596 5.94317 19.2053V23.9087H5.94248Z" fill="white"/>
<path d="M22.4142 28.3947C22.3656 28.3947 22.3177 28.3808 22.2769 28.3517C22.2103 28.3066 22.1709 28.2316 22.1709 28.1512V20.6211C22.1709 20.5242 22.2284 20.4361 22.3177 20.3976C22.4067 20.3597 22.5104 20.3773 22.5811 20.4437C24.3778 22.1341 25.3678 24.2616 25.3678 26.4366C25.3678 26.5673 25.3621 26.6972 25.355 26.8271C25.3507 26.9054 25.3089 26.9767 25.2432 27.019C24.458 27.522 23.5358 27.9796 22.5026 28.379C22.4736 28.3894 22.4436 28.3947 22.4142 28.3947ZM22.6575 21.2061V27.7924C23.4817 27.4559 24.226 27.0803 24.8754 26.6754C24.8783 26.5955 24.8811 26.5157 24.8811 26.4358C24.8801 24.5387 24.1144 22.7414 22.6575 21.2061Z" fill="white"/>
<path d="M20.3021 29.0816C20.2493 29.0816 20.1971 29.0645 20.1543 29.0308C20.0934 28.9847 20.0587 28.9138 20.0587 28.8383V26.8015H5.94322V28.8383C5.94322 28.9138 5.90808 28.9852 5.84807 29.0308C5.78765 29.0779 5.71098 29.0934 5.63639 29.0726C4.88773 28.8721 4.16783 28.6377 3.49806 28.3781C3.40472 28.3425 3.34277 28.2517 3.34277 28.1514V20.6217C3.34277 20.5547 3.37055 20.4901 3.41931 20.4444C4.05296 19.8484 4.77926 19.314 5.57806 18.853C5.65292 18.8102 5.74626 18.8094 5.82141 18.853C5.89627 18.8966 5.94308 18.9766 5.94308 19.0641V23.9092H20.0586V19.0641C20.0586 18.9766 20.1051 18.8968 20.1803 18.853C20.2548 18.8094 20.3485 18.8094 20.4236 18.853C21.2231 19.314 21.949 19.8498 22.5817 20.4444C22.6307 20.491 22.6582 20.5547 22.6582 20.6217V28.1518C22.6582 28.2522 22.5964 28.3425 22.5033 28.3786C21.8316 28.6387 21.1124 28.873 20.3651 29.0735C20.3443 29.0788 20.3229 29.0816 20.3021 29.0816ZM3.82961 27.9846C4.34603 28.1789 4.89176 28.3581 5.45624 28.5184V26.5591C5.45624 26.4245 5.56528 26.3156 5.69959 26.3156H20.3019C20.4365 26.3156 20.5453 26.4245 20.5453 26.5591V28.5182C21.1086 28.3581 21.6542 28.1789 22.1715 27.9839V20.7276C21.6833 20.278 21.1381 19.8643 20.5453 19.494V24.1523C20.5453 24.2868 20.4365 24.3957 20.3019 24.3957H5.69987C5.56542 24.3957 5.45652 24.2868 5.45652 24.1523V19.4936C4.86398 19.8643 4.31881 20.2774 3.82975 20.7276V27.9846H3.82961Z" fill="white"/>
<path d="M4.68136 25.97C4.27869 25.97 3.95117 25.643 3.95117 25.24C3.95117 24.8377 4.27869 24.5098 4.68136 24.5098C5.08388 24.5098 5.41141 24.8377 5.41141 25.24C5.41154 25.6429 5.08444 25.97 4.68136 25.97ZM4.68136 24.9965C4.5476 24.9965 4.43801 25.1063 4.43801 25.24C4.43801 25.374 4.5476 25.4833 4.68136 25.4833C4.81512 25.4833 4.92471 25.374 4.92471 25.24C4.92471 25.1063 4.81553 24.9965 4.68136 24.9965Z" fill="white"/>
<path d="M21.3112 25.8079C20.9082 25.8079 20.5811 25.4809 20.5811 25.0777C20.5811 24.6756 20.908 24.3477 21.3112 24.3477C21.7134 24.3477 22.0413 24.6756 22.0413 25.0777C22.0413 25.4808 21.7142 25.8079 21.3112 25.8079ZM21.3112 24.8344C21.1772 24.8344 21.0679 24.9442 21.0679 25.0777C21.0679 25.2117 21.1772 25.3211 21.3112 25.3211C21.4447 25.3211 21.5546 25.2117 21.5546 25.0777C21.5546 24.9442 21.4453 24.8344 21.3112 24.8344Z" fill="white"/>
<path d="M20.3016 28.0385H5.6994C5.56495 28.0385 5.45605 27.9291 5.45605 27.7951C5.45605 27.6605 5.56495 27.5518 5.6994 27.5518H20.3016C20.4362 27.5518 20.5449 27.6605 20.5449 27.7951C20.5449 27.9291 20.4361 28.0385 20.3016 28.0385Z" fill="white"/>
</svg>
