<svg width="16" height="16" viewBox="0 0 16 16" fill="none" xmlns="http://www.w3.org/2000/svg">
<path d="M1.33337 7.64016V10.9735C1.33337 12.5002 2.56671 13.7335 4.09337 13.7335H11.9C13.4267 13.7335 14.6667 12.4935 14.6667 10.9668V7.64016C14.6667 7.1935 14.3067 6.8335 13.86 6.8335H2.14004C1.69337 6.8335 1.33337 7.1935 1.33337 7.64016ZM5.33337 11.5002H4.00004C3.72671 11.5002 3.50004 11.2735 3.50004 11.0002C3.50004 10.7268 3.72671 10.5002 4.00004 10.5002H5.33337C5.60671 10.5002 5.83337 10.7268 5.83337 11.0002C5.83337 11.2735 5.60671 11.5002 5.33337 11.5002ZM9.66671 11.5002H7.00004C6.72671 11.5002 6.50004 11.2735 6.50004 11.0002C6.50004 10.7268 6.72671 10.5002 7.00004 10.5002H9.66671C9.94004 10.5002 10.1667 10.7268 10.1667 11.0002C10.1667 11.2735 9.94004 11.5002 9.66671 11.5002Z" fill="#28283C"/>
<path d="M9.00004 3.07327V5.0266C9.00004 5.47327 8.64004 5.83327 8.19337 5.83327H2.14004C1.68671 5.83327 1.33337 5.45993 1.33337 5.01327C1.34004 4.25993 1.64004 3.57327 2.14004 3.07327C2.64004 2.57327 3.33337 2.2666 4.09337 2.2666H8.19337C8.64004 2.2666 9.00004 2.6266 9.00004 3.07327Z" fill="#292D32"/>
<path d="M13.3133 1.3335H11.3533C10.5067 1.3335 10 1.84016 10 2.68683V4.64683C10 5.4935 10.5067 6.00016 11.3533 6.00016H13.3133C14.16 6.00016 14.6667 5.4935 14.6667 4.64683V2.68683C14.6667 1.84016 14.16 1.3335 13.3133 1.3335ZM13.7533 2.96683L12.1733 4.8135C12.1133 4.88683 12.02 4.9335 11.9267 4.9335C11.92 4.9335 11.92 4.9335 11.9133 4.9335C11.82 4.9335 11.7333 4.90016 11.6667 4.8335L10.9333 4.1135C10.8 3.98016 10.8 3.76016 10.9333 3.62683C11.0667 3.4935 11.2867 3.48683 11.42 3.62683L11.8867 4.08683L13.22 2.52683C13.3467 2.38016 13.56 2.36683 13.7067 2.48683C13.86 2.60683 13.8733 2.82683 13.7533 2.96683Z" fill="#28283C"/>
</svg>
