<svg width="101" height="101" viewBox="0 0 101 101" fill="none" xmlns="http://www.w3.org/2000/svg">
<g clip-path="url(#clip0_7169_259228)">
<path d="M88.1322 1.03125H69.1139C67.5484 1.03125 66.001 1.18992 64.4795 1.49137V10.1333C65.9926 9.75744 67.5424 9.56115 69.1139 9.56115H88.1322C91.4268 9.56115 94.107 13.1963 94.107 17.6646C94.107 22.1328 91.4268 25.768 88.1322 25.768C80.5606 25.768 74.4006 34.1225 74.4006 44.3918V55.5627C74.4006 57.9181 75.8086 59.8278 77.5453 59.8278C79.282 59.8278 80.69 57.9181 80.69 55.5627V44.3918C80.69 38.826 84.0285 34.2979 88.1324 34.2979C94.8949 34.2979 100.396 26.8363 100.396 17.6646C100.396 8.49283 94.8947 1.03125 88.1322 1.03125Z" fill="#4AD0FF"/>
<path d="M88.6673 56.2217C86.0919 53.2975 82.7132 52.0817 79.3985 52.8846L54.0802 59.0151C46.1147 60.9456 40.3335 70.2941 40.3335 81.2441V96.7662C40.3335 99.1216 41.7415 101.031 43.4782 101.031H86.287C87.7138 101.031 88.9618 99.7282 89.3271 97.8573L92.6394 80.8822C92.7087 80.5262 92.744 80.1596 92.744 79.7914V68.097C92.744 63.4913 91.2581 59.1631 88.6673 56.2217Z" fill="#FB5858"/>
<path d="M66.539 55.9961L54.0802 59.0127C46.1147 60.9433 40.3335 70.2917 40.3335 81.2417V96.7638C40.3335 99.1192 41.7415 101.029 43.4782 101.029H66.539V55.9961Z" fill="#FF835D"/>
<path d="M86.2872 100.945C81.1198 100.945 76.9155 95.2432 76.9155 88.2346C76.9155 81.226 81.1196 75.5244 86.2872 75.5244C91.4546 75.5244 95.6587 81.226 95.6587 88.2346C95.6587 95.2432 91.4548 100.945 86.2872 100.945Z" fill="#2C6991"/>
<path d="M86.2872 100.945C81.1198 100.945 76.9155 95.2432 76.9155 88.2346C76.9155 81.226 81.1196 75.5244 86.2872 75.5244V100.945Z" fill="#528FB3"/>
<path d="M55.4277 86.5321H50.8156C49.0789 86.5321 47.6709 84.6225 47.6709 82.267C47.6709 79.9116 49.0789 78.002 50.8156 78.002H55.4277C57.1645 78.002 58.5725 79.9116 58.5725 82.267C58.5725 84.6225 57.1645 86.5321 55.4277 86.5321Z" fill="#2C6991"/>
<path d="M53.3313 86.5321H50.8156C49.0789 86.5321 47.6709 84.6225 47.6709 82.267C47.6709 79.9116 49.0789 78.002 50.8156 78.002H53.3313V86.5321Z" fill="#528FB3"/>
<path d="M86.2868 92.4173C87.9891 92.4173 89.369 90.5457 89.369 88.237C89.369 85.9282 87.9891 84.0566 86.2868 84.0566C84.5846 84.0566 83.2046 85.9282 83.2046 88.237C83.2046 90.5457 84.5846 92.4173 86.2868 92.4173Z" fill="#FB5858"/>
<path d="M86.2873 92.4173C84.585 92.4173 83.2051 90.5458 83.2051 88.237C83.2051 85.9281 84.585 84.0566 86.2873 84.0566V92.4173Z" fill="#FF835D"/>
<path d="M18.4223 82.1717C17.8291 82.1717 17.2297 81.9444 16.6971 81.4695C15.2461 80.1749 14.8436 77.5305 15.7981 75.5626L42.5165 20.4791C46.2082 12.8681 51.4766 7.17392 57.5327 3.97371C61.1665 2.05375 65.0836 1.03125 69.1139 1.03125V9.56115C65.1325 9.56115 61.2883 10.8046 57.8372 13.1047C53.8127 15.787 50.3223 19.9064 47.7706 25.1672L21.0524 80.2504C20.4483 81.4959 19.445 82.1717 18.4223 82.1717Z" fill="#99E5FF"/>
<path d="M23.5621 75.4414H11.9268C5.56895 75.4414 0.396484 82.4566 0.396484 91.0798C0.396484 93.4352 1.80449 95.3449 3.54121 95.3449H23.5623C25.299 95.3449 26.707 93.52 26.707 91.1646V79.7913C26.7068 77.4355 25.2988 75.4414 23.5621 75.4414Z" fill="#2C6991"/>
<path d="M15.1766 75.4414H11.9268C5.56895 75.4414 0.396484 82.4566 0.396484 91.0798C0.396484 93.4352 1.80449 95.3449 3.54121 95.3449H15.1766V75.4414Z" fill="#528FB3"/>
<path d="M26.707 90.4643V79.792C26.707 77.4365 25.299 75.4424 23.5623 75.4424H11.927C5.72129 75.4424 0.647852 82.1265 0.408203 90.4643H26.707Z" fill="#16A5D9"/>
<path d="M15.1768 90.4643V75.4424H11.927C5.72129 75.4424 0.647852 82.1265 0.408203 90.4643H15.1768Z" fill="#4AD0FF"/>
</g>
<defs>
<clipPath id="clip0_7169_259228">
<rect width="100" height="100" fill="white" transform="translate(0.89502 0.878906)"/>
</clipPath>
</defs>
</svg>
