<svg width="25" height="25" viewBox="0 0 25 25" fill="none" xmlns="http://www.w3.org/2000/svg">
<g clip-path="url(#clip0_1072_56239)">
<path d="M24.945 7.33874C24.9186 7.33518 24.8907 7.32806 24.8657 7.33233C24.4089 7.40993 24.1998 7.1757 24.0392 6.77345C23.4104 5.19649 22.753 3.63163 22.1049 2.0625C21.556 0.735433 20.556 0.0697626 19.1156 0.0690507C16.9029 0.0683387 14.6902 0.077594 12.4774 0.0654909C11.2583 0.0590834 10.3397 0.55531 9.68301 1.58051C8.53098 3.37889 7.35753 5.16374 6.20264 6.95998C6.05703 7.18709 5.87716 7.31667 5.62091 7.38359C5.04418 7.53595 4.47245 7.70468 3.89857 7.86842C3.22406 8.06065 2.54954 8.25501 1.86859 8.45008C1.86859 9.19051 1.87002 9.911 1.86788 10.6308C1.86717 11.0295 1.71942 11.1733 1.31613 11.1747C0.93569 11.1768 0.555247 11.1754 0.174805 11.1754V13.7377C0.720129 13.7377 1.24547 13.7384 1.77152 13.737C1.80507 13.737 1.83933 13.7277 1.88715 13.7206C2.17338 11.7471 3.70871 10.4734 5.41106 10.3325C6.24476 10.2634 7.02634 10.4492 7.73583 10.8935C8.78794 11.552 9.37752 12.5167 9.56096 13.722H10.4917C10.4853 13.6523 10.4839 13.5989 10.4753 13.5469C10.2969 12.4548 10.8429 11.4096 11.8458 10.9661C12.7451 10.5681 13.5724 10.739 14.3704 11.2794C15.9542 12.3523 17.693 12.6919 19.5709 12.2996C20.4924 12.1074 21.3104 11.6909 22.092 11.1761C22.9835 10.5881 23.8986 10.5987 24.8044 11.169C24.8593 11.2039 24.9178 11.2324 24.9807 11.2673V7.36294C24.9592 7.34799 24.9528 7.34016 24.945 7.33874ZM15.9807 9.02178H14.304V8.19806H15.9807V9.02178ZM22.8422 9.02178H21.1562V8.19877H22.8422V9.02178ZM22.2547 7.3309H15.3511C13.0592 7.3309 10.7665 7.33019 8.47459 7.33233C8.25332 7.33233 8.04276 7.32663 7.91856 7.10095C7.79936 6.8838 7.90857 6.71009 8.01849 6.5321C8.94426 5.03417 9.87216 3.53694 10.7922 2.03545C11.2505 1.28719 11.9064 0.919115 12.7865 0.921251C14.8557 0.927658 16.925 0.922675 18.9942 0.923386C20.0249 0.924098 20.7708 1.42816 21.1391 2.37861C21.6844 3.78684 22.2262 5.19649 22.7687 6.60614C22.9557 7.09383 22.7879 7.3309 22.2547 7.3309Z" fill="#4C40ED"/>
<path d="M24.3955 24.5119C23.8773 24.917 23.302 24.9547 22.7153 24.6529C22.5576 24.5717 22.4141 24.4621 22.2635 24.3681C21.913 24.1488 21.8852 23.8597 22.1793 23.5579C23.0087 22.7071 22.8409 23.1136 22.8516 21.9211C22.8624 20.7023 22.8124 19.482 22.8674 18.2653C22.9088 17.3454 22.2471 16.5288 21.1586 16.7773C21.0308 15.3021 20.6161 14.907 19.3834 15.0814C19.1479 14.5069 18.7389 14.1459 18.0865 14.1716C17.4962 14.1944 17.1222 14.5375 16.9052 15.085C16.8445 15.0765 16.7846 15.0722 16.7267 15.0594C15.9023 14.875 15.155 15.4602 15.1472 16.3103C15.1386 17.2173 15.145 18.125 15.145 19.0327V19.3296C14.8923 19.3296 14.6497 19.2912 14.4241 19.3375C13.8445 19.4564 13.4462 19.9526 13.4348 20.5392C13.4248 21.0995 13.4362 21.6605 13.4305 22.2208C13.4284 22.4423 13.5362 22.5832 13.7132 22.6993C14.2121 23.0253 14.7068 23.3578 15.2385 23.7124C15.0194 23.8192 14.8252 23.9017 14.6439 24.0057C14.3356 24.183 14.0315 24.3702 13.731 24.561C13.0579 24.9896 12.2835 24.9255 11.7446 24.3923C11.21 23.8626 11.1286 23.0688 11.579 22.4138C12.1693 21.5552 12.6468 20.6524 12.8552 19.6208C13.215 17.8395 12.9137 16.1764 11.9666 14.6279C11.8367 14.4158 11.6903 14.2136 11.5561 14.0036C11.1457 13.3614 11.2178 12.5875 11.7324 12.0664C12.2585 11.5338 13.0479 11.4377 13.6903 11.8677C14.5119 12.4173 15.377 12.8652 16.3434 13.0916C18.4969 13.5949 20.4983 13.2311 22.3506 12.0272C22.5583 11.8919 22.7731 11.7517 23.0051 11.6741C23.6075 11.4726 24.2649 11.6912 24.6596 12.1881C25.0501 12.6786 25.1065 13.3386 24.796 13.8904C24.6911 14.0755 24.5611 14.247 24.4484 14.4279C22.8731 16.9553 22.8738 19.4827 24.4427 22.0144C24.6282 22.3141 24.8388 22.6174 24.9359 22.9492C25.1186 23.5721 24.903 24.1153 24.3955 24.5119Z" fill="#4C40ED"/>
<path d="M21.9913 22.3433C21.9905 22.4515 21.9377 22.6032 21.8563 22.6601C21.2268 23.1044 21.0291 23.7088 21.1383 24.4443C21.1554 24.5646 21.1404 24.6899 21.1404 24.8287H16.8578C16.8578 24.6187 16.8406 24.4151 16.8613 24.215C16.8977 23.8776 16.7493 23.6739 16.4702 23.4974C15.8007 23.0745 15.1518 22.6181 14.4859 22.1895C14.3289 22.0884 14.2789 21.9788 14.2846 21.8015C14.2967 21.4107 14.2846 21.0191 14.2896 20.6275C14.2932 20.3349 14.4645 20.1484 14.7157 20.1484C14.967 20.1477 15.139 20.3335 15.1433 20.6261C15.1483 21.0248 15.1447 21.4235 15.1447 21.8421H16.0012V16.5267C16.0012 16.4555 15.9984 16.3843 16.0027 16.3131C16.0191 16.0575 16.1861 15.8831 16.4174 15.8767C16.6601 15.8696 16.8506 16.049 16.8542 16.3167C16.8628 16.8684 16.8578 17.4195 16.8578 17.9712V19.2713H17.7143V18.9922C17.7143 17.836 17.7129 16.6798 17.7157 15.5236C17.7164 15.1947 17.9256 14.9861 18.1997 15.0252C18.4338 15.0587 18.5694 15.2381 18.5701 15.5314C18.5723 16.6791 18.5708 17.8267 18.5708 18.9737V19.277H19.4274V16.469C19.4274 16.0803 19.5701 15.8817 19.8485 15.8767C20.1354 15.8717 20.2839 16.0775 20.2839 16.4819V19.2727H21.1404C21.1404 18.8925 21.139 18.513 21.1404 18.1336C21.1419 17.779 21.3032 17.5783 21.5787 17.5854C21.8435 17.5918 21.9962 17.7869 21.9962 18.1272C21.9977 19.5325 21.9998 20.9379 21.9913 22.3433Z" fill="#4C40ED"/>
<path d="M5.71039 11.1758C4.06299 11.1822 2.72038 12.5328 2.72609 14.1781C2.73252 15.8198 4.08869 17.1611 5.73609 17.1547C7.38419 17.1483 8.72681 15.797 8.72038 14.1517C8.71396 12.5079 7.35993 11.1694 5.71039 11.1758ZM5.68969 16.3004C4.52481 16.2854 3.57763 15.32 3.58262 14.1517C3.58833 12.9763 4.55978 12.0223 5.74251 12.0301C6.92095 12.0387 7.87456 13.0105 7.86385 14.1916C7.85243 15.3649 6.87313 16.3146 5.68969 16.3004Z" fill="#4C40ED"/>
<path d="M3.73162 1.77417C2.71021 2.01766 2.10635 2.59433 1.87295 3.63947C1.6267 2.61783 1.05139 2.01338 0 1.78271C1.0257 1.53709 1.63169 0.96184 1.86652 0C2.10992 0.950449 2.69665 1.53496 3.73162 1.77417Z" fill="#4C40ED"/>
<path d="M3.7332 20.1438C2.70607 20.3858 2.1065 20.9661 1.87167 22.0083C1.62756 20.9817 1.04726 20.3823 0.00585938 20.1502C1.0287 19.9038 1.63184 19.3272 1.86739 18.3682C2.11078 19.3207 2.69965 19.9038 3.7332 20.1438Z" fill="#4C40ED"/>
<path d="M8.87442 23.1354C7.84016 23.3753 7.2463 23.9613 7.00861 25C6.76736 23.967 6.18135 23.3732 5.14209 23.1376C6.17278 22.8948 6.77164 22.3138 7.00719 21.3584C7.25201 22.3167 7.84373 22.8948 8.87442 23.1354Z" fill="#4C40ED"/>
<path d="M1.00372 8.69531V10.3H0.174316V8.93524C0.430562 8.8612 0.700369 8.78288 1.00372 8.69531Z" fill="#4C40ED"/>
<path d="M21.761 6.46799H16.0229V1.80973C16.0294 1.80474 16.0429 1.78552 16.0572 1.78552C17.1 1.78338 18.1429 1.76701 19.1857 1.78766C19.6768 1.79762 20.0729 2.05535 20.2564 2.51028C20.7788 3.80246 21.2692 5.10818 21.7703 6.40819C21.776 6.42243 21.7653 6.44236 21.761 6.46799Z" fill="#4C40ED"/>
<path d="M15.1235 1.77738V6.45772H9.0835C9.13346 6.36801 9.16844 6.29967 9.20912 6.23346C9.97429 4.99182 10.7466 3.75446 11.5032 2.50784C11.8101 2.00236 12.2355 1.76243 12.8287 1.77382C13.586 1.78878 14.344 1.77738 15.1235 1.77738Z" fill="#4C40ED"/>
<path d="M7.00715 14.1742C7.00286 14.8727 6.42756 15.4444 5.72735 15.4465C5.01643 15.4486 4.43541 14.867 4.43898 14.1564C4.44326 13.4481 5.03284 12.8742 5.74519 12.8849C6.44469 12.8949 7.01072 13.4737 7.00715 14.1742Z" fill="#4C40ED"/>
</g>
<defs>
<clipPath id="clip0_1072_56239">
<rect width="25" height="25" fill="white"/>
</clipPath>
</defs>
</svg>
