<svg width="25" height="25" viewBox="0 0 25 25" fill="none" xmlns="http://www.w3.org/2000/svg">
<g clip-path="url(#clip0_1072_56190)">
<path d="M22.3661 21.6958C22.1668 23.5026 20.5193 24.963 18.6905 24.9817C16.2905 25.0061 13.8905 25.0076 11.4905 24.981C9.5308 24.9594 7.85095 23.3078 7.76389 21.3487C7.72864 20.5617 7.75814 19.7718 7.75814 18.959H11.2063C11.2063 19.0984 11.2049 19.2378 11.2071 19.3765C11.2229 20.5868 12.1545 21.5247 13.3653 21.5377C14.2193 21.547 15.074 21.5449 15.9279 21.5384C17.1704 21.5291 18.0991 20.594 18.1128 19.3485C18.1135 19.2249 18.1128 19.1013 18.1128 18.9655H22.3898C22.4006 18.9791 22.4207 18.9928 22.4207 19.0064C22.4085 19.9034 22.4639 20.8075 22.3661 21.6958Z" fill="#4C40ED"/>
<path d="M11.2064 15.9248H7.7143C7.59703 15.4677 7.3848 15.0688 7.03013 14.7569C6.63013 14.4054 6.1625 14.22 5.63013 14.2107C5.19991 14.2035 4.76898 14.2092 4.31934 14.2092V10.3419C4.39631 10.3376 4.47401 10.3283 4.55171 10.3283C5.46826 10.3275 6.38552 10.3239 7.30207 10.3283C9.48624 10.339 11.1942 12.0474 11.2057 14.2315C11.2085 14.7871 11.2064 15.3419 11.2064 15.9248Z" fill="#4C40ED"/>
<path d="M23.723 5.54492C23.718 6.08179 23.3611 6.44402 22.8252 6.44545C21.118 6.44905 19.4101 6.44905 17.7021 6.44473C17.2302 6.44402 16.836 6.11126 16.8273 5.66423C16.8079 4.64295 16.8216 3.62096 16.8216 2.57812H23.7244V4.00978C23.7244 4.52149 23.7288 5.03321 23.723 5.54492Z" fill="#4C40ED"/>
<path d="M22.4077 11.6357H18.125V15.9149H22.4077V11.6357Z" fill="#4C40ED"/>
<path d="M24.9998 0H15.5278V1.68679H24.9998V0Z" fill="#4C40ED"/>
<path d="M1.69784 8.61816H0V16.3449H1.69784V8.61816Z" fill="#4C40ED"/>
<path d="M23.7113 9.48438H16.8394V10.7457H23.7113V9.48438Z" fill="#4C40ED"/>
<path d="M23.7123 16.8145H16.8403V18.0751H23.7123V16.8145Z" fill="#4C40ED"/>
<path d="M12.4808 16.8086H6.47217V18.0714H12.4808V16.8086Z" fill="#4C40ED"/>
<path d="M22.4077 7.32324H18.125V8.58456H22.4077V7.32324Z" fill="#4C40ED"/>
<path d="M3.42296 9.47852H2.59131V15.0499H3.42296V9.47852Z" fill="#4C40ED"/>
</g>
<defs>
<clipPath id="clip0_1072_56190">
<rect width="25" height="25" fill="white"/>
</clipPath>
</defs>
</svg>
