<svg width="60" height="61" viewBox="0 0 60 61" fill="none" xmlns="http://www.w3.org/2000/svg">
<path d="M27.6654 26.921C27.5061 26.976 27.4594 27.0494 27.3166 27.4762C27.252 27.6719 27.1065 28.1078 26.9939 28.4443C26.7934 29.0485 26.7892 29.0561 26.7508 29.0607C26.6739 29.0683 26.6011 29.0974 26.5627 29.1372C26.4926 29.2106 26.4844 29.2442 26.4844 29.4584C26.4844 29.6388 26.4871 29.6602 26.516 29.7077C26.5627 29.7841 26.6286 29.8285 26.6986 29.8285H26.759V31.1132C26.759 32.3781 26.759 32.398 26.7865 32.4286C26.825 32.4714 26.9101 32.4699 26.9458 32.4271C26.9705 32.3965 26.9719 32.3491 26.976 31.1117L26.9788 29.8285H27.8274C28.6487 29.8285 28.6761 29.827 28.7366 29.7964C28.7833 29.7734 28.9467 29.6006 29.3999 29.0974L30 28.429L30.6015 29.0974C31.0533 29.6006 31.2167 29.7734 31.2634 29.7964C31.3238 29.827 31.3513 29.8285 32.1739 29.8285H33.0212V29.9891C33.0212 30.1634 33.0336 30.2139 33.0858 30.2399C33.1338 30.2644 33.164 30.2613 33.2052 30.2246C33.2396 30.194 33.2409 30.1894 33.2409 30.0105V29.8285H33.3014C33.3714 29.8285 33.4373 29.7841 33.484 29.7077C33.5129 29.6602 33.5156 29.6388 33.5156 29.4584C33.5156 29.2442 33.5074 29.2106 33.4373 29.1372C33.3989 29.0974 33.3261 29.0683 33.2492 29.0607C33.2107 29.0561 33.2066 29.0485 33.0061 28.4443C32.8935 28.1078 32.7479 27.6719 32.6834 27.4762C32.5529 27.0892 32.5159 27.0188 32.3977 26.9485L32.3414 26.9148L30.0206 26.9118C28.7448 26.9103 27.6846 26.9148 27.6654 26.921ZM32.3181 27.1902C32.3401 27.2116 32.3689 27.2574 32.3826 27.2926C32.4321 27.4318 32.9663 29.0393 32.9663 29.0515C32.9663 29.0576 32.6491 29.0638 32.2632 29.0638H31.5587L30.872 28.3005C30.2115 27.5664 30.1826 27.5358 30.1112 27.5129C30.07 27.4991 30.0206 27.4884 30 27.4884C29.9794 27.4884 29.93 27.4991 29.8888 27.5129C29.8173 27.5358 29.7885 27.5664 29.128 28.3005L28.4413 29.0638H27.7368C27.3509 29.0638 27.0337 29.0576 27.0337 29.0515C27.0337 29.0393 27.5679 27.4318 27.6173 27.2926C27.6311 27.2574 27.6599 27.2116 27.6819 27.1902L27.7231 27.1519H30H32.2769L32.3181 27.1902ZM30.0453 27.7499C30.0618 27.7591 30.3873 28.114 30.769 28.5376L31.4625 29.3085H32.3717C33.4126 29.3085 33.3096 29.2916 33.3096 29.4599C33.3096 29.5226 33.3027 29.5578 33.2876 29.5746C33.2684 29.596 33.1654 29.5991 32.3566 29.5991C31.8553 29.5991 31.4241 29.5945 31.3994 29.5899C31.3609 29.5807 31.2387 29.4538 30.7004 28.8557C30.092 28.1797 30.0439 28.1308 30 28.1308C29.956 28.1308 29.908 28.1797 29.2996 28.8557C28.7613 29.4538 28.6391 29.5807 28.6006 29.5899C28.5759 29.5945 28.1447 29.5991 27.6434 29.5991C26.8346 29.5991 26.7316 29.596 26.7123 29.5746C26.6972 29.5578 26.6904 29.5226 26.6904 29.4599C26.6904 29.2916 26.5874 29.3085 27.6283 29.3085H28.5374L29.2309 28.5376C29.6127 28.114 29.9368 27.7591 29.9519 27.7515C29.9876 27.7285 30.0082 27.7285 30.0453 27.7499Z" fill="#2A396D"/>
<path d="M29.864 29.1955C29.6992 29.2444 29.5729 29.3622 29.496 29.535C29.4603 29.6145 29.4575 29.6375 29.4575 29.7904C29.4575 29.9495 29.4603 29.9648 29.5015 30.0596C29.6113 30.3059 29.8736 30.4527 30.1071 30.3961C30.2774 30.3563 30.4229 30.2309 30.4971 30.0611C30.5397 29.9648 30.5424 29.951 30.5424 29.7904C30.5424 29.6375 30.5397 29.6145 30.504 29.535C30.4257 29.3591 30.2993 29.2444 30.1304 29.1939C30.0316 29.1664 29.9615 29.1664 29.864 29.1955ZM30.0906 29.4386C30.2664 29.4968 30.3666 29.7032 30.3158 29.9067C30.298 29.9786 30.2169 30.081 30.1455 30.1223C30.1043 30.1468 30.0645 30.156 30 30.156C29.8929 30.156 29.8201 30.1193 29.75 30.0275C29.5976 29.8302 29.68 29.5167 29.9038 29.4386C29.9849 29.4111 30.0082 29.4111 30.0906 29.4386Z" fill="#2A396D"/>
<path d="M33.0789 30.5586C33.0693 30.5632 33.0528 30.5862 33.0418 30.6091C33.024 30.6473 33.0212 30.8324 33.0212 31.9168V33.1786H31.9569H30.8926L30.8899 31.9918L30.8858 30.8049L30.8473 30.7682L30.8089 30.7315H30H29.1911L29.1527 30.7682L29.1142 30.8049L29.1101 31.9918L29.1074 33.1786H28.0431H26.9788V33.0119C26.9788 32.8681 26.9746 32.8406 26.9499 32.8054C26.9142 32.755 26.8291 32.7488 26.7865 32.7963C26.7618 32.8238 26.759 32.8467 26.759 33.0027V33.1786H26.6492C26.4803 33.1786 26.4844 33.1679 26.4844 33.561C26.4844 33.8623 26.4858 33.8837 26.5118 33.9128C26.5393 33.9434 26.5572 33.9434 30 33.9434C33.4428 33.9434 33.4607 33.9434 33.4882 33.9128C33.5142 33.8837 33.5156 33.8623 33.5156 33.561C33.5156 33.1679 33.5197 33.1786 33.3508 33.1786H33.241V31.8954V30.6106L33.2053 30.58C33.1709 30.5495 33.1187 30.5403 33.0789 30.5586ZM30.6729 32.0774V33.1786H30H29.3271V32.7657V32.3527H29.415C29.463 32.3527 29.5139 32.3481 29.5262 32.3435C29.5592 32.3282 29.5894 32.2518 29.5798 32.2074C29.5647 32.1386 29.5125 32.108 29.415 32.108H29.3271V31.5421V30.9762H30H30.6729V32.0774ZM33.3096 33.561V33.6986H30H26.6904V33.561V33.4233H30H33.3096V33.561Z" fill="#2A396D"/>
<path d="M29.588 31.2662C29.5619 31.2952 29.5605 31.3166 29.5605 31.6011V31.907L29.5963 31.9376C29.632 31.9682 29.6498 31.9697 30 31.9697C30.3502 31.9697 30.368 31.9682 30.4037 31.9376L30.4395 31.907V31.6011C30.4395 31.3166 30.4381 31.2952 30.412 31.2662C30.3859 31.2371 30.3667 31.2356 30 31.2356C29.6333 31.2356 29.6141 31.2371 29.588 31.2662ZM30.2197 31.6027V31.725H30H29.7803V31.6027V31.4803H30H30.2197V31.6027Z" fill="#2A396D"/>
<path d="M27.274 30.7484C27.2108 30.7882 27.2122 30.7561 27.2122 31.8772C27.2135 33.0258 27.2094 32.9768 27.2863 33.0105C27.3399 33.0319 28.6898 33.0319 28.7489 33.009C28.7722 32.9998 28.7983 32.9799 28.8052 32.9646C28.8134 32.9463 28.8189 32.5379 28.8189 31.8741C28.8189 30.8509 28.8175 30.8096 28.7928 30.7759L28.7667 30.7392L28.0334 30.7362C27.5184 30.7331 27.2932 30.7377 27.274 30.7484ZM27.9125 31.244V31.5116H27.6722H27.4319V31.244V30.9763H27.6722H27.9125V31.244ZM28.5992 31.244V31.5116H28.3657H28.1323V31.244V30.9763H28.3657H28.5992V31.244ZM27.9125 32.0163V32.2763H27.6722H27.4319V32.0163V31.7563H27.6722H27.9125V32.0163ZM28.5992 32.0163V32.2763H28.3657H28.1323V32.0163V31.7563H28.3657H28.5992V32.0163ZM28.5992 32.6511V32.7811H28.0155H27.4319V32.6511V32.5211H28.0155H28.5992V32.6511Z" fill="#2A396D"/>
<path d="M31.2401 30.7469C31.2236 30.7545 31.2044 30.7744 31.1962 30.7912C31.1769 30.831 31.1756 32.9233 31.1948 32.9646C31.2016 32.9799 31.2277 32.9998 31.2511 33.009C31.3101 33.0319 32.656 33.0319 32.715 33.0105C32.7384 33.0013 32.7631 32.9768 32.7727 32.9554C32.7892 32.9141 32.796 30.8493 32.7796 30.8004C32.7562 30.7331 32.7329 30.7316 31.9817 30.7331C31.5903 30.7331 31.2566 30.7392 31.2401 30.7469ZM31.8677 31.244V31.5116H31.6342H31.4008V31.244V30.9763H31.6342H31.8677V31.244ZM32.5681 31.244V31.5116H32.3277H32.0874V31.244V30.9763H32.3277H32.5681V31.244ZM31.8677 32.0163V32.2763H31.6342H31.4008V32.0163V31.7563H31.6342H31.8677V32.0163ZM32.5681 32.0163V32.2763H32.3277H32.0874V32.0163V31.7563H32.3277H32.5681V32.0163ZM32.5681 32.6511V32.7811H31.9844H31.4008V32.6511V32.5211H31.9844H32.5681V32.6511Z" fill="#2A396D"/>
<g clip-path="url(#clip0_7281_245576)">
<path d="M35.0039 0.594727C34.8984 0.676758 34.3594 1.74316 33.8203 2.97363L32.8359 5.2002L30.6211 6.17285C29.4141 6.71191 28.3242 7.25098 28.2188 7.3916C28.1016 7.52051 28.0078 7.77832 28.0078 7.9541C28.0078 8.12988 28.1016 8.39941 28.2188 8.52832C28.3242 8.66895 29.4141 9.21973 30.6445 9.75879L32.8711 10.7314L33.8789 13.0049C34.9102 15.3369 35.0742 15.5596 35.6953 15.5713C36.2109 15.5713 36.5039 15.1377 37.4414 13.0283C37.9453 11.8799 38.4141 10.8838 38.4844 10.8018C38.5547 10.7314 39.5391 10.2627 40.6641 9.77051C41.7891 9.27832 42.832 8.7627 42.9844 8.62207C43.1602 8.45801 43.2422 8.24707 43.2422 7.9541C43.2422 7.66113 43.1602 7.4502 42.9844 7.28613C42.832 7.14551 41.7891 6.62988 40.6641 6.1377C39.5391 5.64551 38.5547 5.17676 38.4844 5.10645C38.4141 5.02441 37.9102 4.00488 37.3828 2.82129C36.8438 1.6377 36.3164 0.629883 36.1992 0.571289C35.9062 0.407227 35.2383 0.430664 35.0039 0.594727ZM36.2695 5.39941L36.8555 6.72363L38.1797 7.30957C38.8945 7.62598 39.4922 7.91895 39.4922 7.9541C39.4922 7.98926 38.8945 8.28223 38.1797 8.59863L36.8555 9.18457L36.2695 10.4971C35.9531 11.2236 35.6602 11.8213 35.625 11.8213C35.5898 11.8213 35.2969 11.2236 34.9805 10.4971L34.3945 9.18457L33.082 8.59863C32.3555 8.28223 31.7578 7.98926 31.7578 7.9541C31.7578 7.91895 32.3555 7.62598 33.082 7.30957L34.3945 6.72363L34.9805 5.39941C35.2969 4.68457 35.5898 4.08691 35.625 4.08691C35.6602 4.08691 35.9531 4.68457 36.2695 5.39941Z" fill="#2A396D"/>
<path d="M54.6094 0.688477C54.3984 0.899414 54.375 1.0752 54.375 2.3291C54.375 3.96973 54.4922 4.2041 55.3125 4.2041C56.1328 4.2041 56.25 3.96973 56.25 2.3291C56.25 0.688477 56.1328 0.454102 55.3125 0.454102C54.9961 0.454102 54.7617 0.536133 54.6094 0.688477Z" fill="#2A396D"/>
<path d="M14.4024 3.38379C14.2969 3.44238 13.8281 4.37988 13.3594 5.46973L12.5156 7.43848L10.9805 7.64941C8.94142 7.91895 8.68361 8.00098 8.48439 8.49316C8.2383 9.0791 8.41408 9.38379 9.80861 10.79L11.0508 12.0322L10.6172 14.2705C10.2188 16.333 10.207 16.5322 10.3594 16.8486C10.5586 17.2236 10.7578 17.3291 11.2852 17.3291C11.5664 17.3291 12.0586 17.0479 13.2422 16.2158C14.1094 15.6064 14.8945 15.1143 14.9766 15.1025C15.0703 15.1025 15.8555 15.6064 16.7227 16.2158C18.0703 17.1533 18.3867 17.3291 18.7735 17.3291C19.3594 17.3291 19.6875 17.001 19.6875 16.4385C19.6875 16.2041 19.5235 15.1143 19.3125 14.0244L18.9492 12.0322L20.1914 10.79C21.586 9.38379 21.7617 9.0791 21.5156 8.49316C21.3047 8.00098 21.0352 7.89551 19.0781 7.64941L17.4844 7.4502L16.6406 5.46973C16.1485 4.33301 15.7031 3.44238 15.5742 3.38379C15.3047 3.23145 14.6485 3.24316 14.4024 3.38379ZM15.293 7.3916C15.9844 9.1377 16.1133 9.27832 17.2852 9.41895C17.6133 9.4541 18.0235 9.5127 18.1992 9.54785L18.5391 9.61816L17.707 10.4736C17.2383 10.9541 16.875 11.4346 16.875 11.5635C16.875 11.7627 17.0742 12.8877 17.2969 13.9072C17.3438 14.1299 17.2031 14.0713 16.3242 13.4502C15.0703 12.583 14.9414 12.583 13.6172 13.5088L12.6914 14.165L12.9024 13.1338C13.2422 11.4932 13.2422 11.4463 12.3633 10.4736C11.5078 9.5127 11.4844 9.57129 12.7735 9.40723C13.8164 9.27832 13.9688 9.14941 14.4727 7.96582C14.7305 7.37988 14.9649 6.89941 15.0117 6.89941C15.0586 6.89941 15.1758 7.12207 15.293 7.3916Z" fill="#2A396D"/>
<path d="M50.8594 4.43848C50.707 4.59082 50.625 4.8252 50.625 5.1416C50.625 5.96191 50.8594 6.0791 52.5 6.0791C54.1406 6.0791 54.375 5.96191 54.375 5.1416C54.375 4.32129 54.1406 4.2041 52.5 4.2041C51.2461 4.2041 51.0703 4.22754 50.8594 4.43848Z" fill="#2A396D"/>
<path d="M56.4844 4.43848C56.332 4.59082 56.25 4.8252 56.25 5.1416C56.25 5.96191 56.4844 6.0791 58.125 6.0791C59.7656 6.0791 60 5.96191 60 5.1416C60 4.32129 59.7656 4.2041 58.125 4.2041C56.8711 4.2041 56.6953 4.22754 56.4844 4.43848Z" fill="#2A396D"/>
<path d="M54.6094 6.31348C54.3984 6.52441 54.375 6.7002 54.375 7.9541C54.375 9.59473 54.4922 9.8291 55.3125 9.8291C56.1328 9.8291 56.25 9.59473 56.25 7.9541C56.25 6.31348 56.1328 6.0791 55.3125 6.0791C54.9961 6.0791 54.7617 6.16113 54.6094 6.31348Z" fill="#2A396D"/>
<path d="M48.6914 12.7119C47.8477 13.2627 47.0977 13.8018 47.0273 13.9072C46.9453 14.0127 46.875 14.3057 46.875 14.5635C46.875 15.0205 46.9453 15.1143 48.9609 17.1182C50.8945 19.0518 51.0703 19.2041 51.4688 19.2041C51.7031 19.2041 51.9844 19.1689 52.0898 19.1338C52.1953 19.0869 52.7461 18.1143 53.332 16.9658C54.3867 14.8564 54.5508 14.3057 54.2344 13.9072C54.1523 13.8018 53.4023 13.2627 52.5586 12.7119C51.375 11.9268 50.9414 11.7041 50.625 11.7041C50.3086 11.7041 49.875 11.9268 48.6914 12.7119ZM51.4453 14.3994L52.1484 14.8682L51.7148 15.7471L51.2812 16.626L50.3672 15.7236C49.8633 15.2197 49.4648 14.7744 49.4766 14.7275C49.5352 14.5869 50.4375 13.9424 50.6016 13.9307C50.6836 13.9307 51.0703 14.1416 51.4453 14.3994Z" fill="#2A396D"/>
<path d="M25.6289 13.7197C25.3828 13.9189 25.1953 14.4346 25.1953 14.915C25.1953 16.0166 24.5156 19.1104 23.7773 21.3252C22.2891 25.8604 19.3945 31.0986 16.125 35.2002C15.1523 36.4072 15 36.6533 15 37.04C15 37.6494 15.3164 37.9541 15.9492 37.9541C16.4883 37.9541 16.6172 37.8486 17.8828 36.2549C20.4023 33.126 23.0508 28.6963 24.5859 25.0635C26.0273 21.6533 27.1875 17.0596 27.1875 14.751C27.1875 14.2002 27.1406 14.001 26.9531 13.8135C26.6836 13.5439 25.9336 13.4971 25.6289 13.7197Z" fill="#2A396D"/>
<path d="M14.3789 18.4076C14.1797 18.5716 13.9102 19.1693 13.9922 19.3099C14.0156 19.3451 14.1094 20.4232 14.1797 21.6888C14.3906 25.263 14.0625 29.4115 13.3008 32.8568C12.9375 34.4388 12.9375 34.4622 13.2891 34.8724C13.5235 35.1419 13.6524 35.1888 14.0742 35.1771C14.8125 35.1419 14.9766 34.9076 15.3047 33.431C16.1602 29.4935 16.4883 24.7357 16.1719 20.9037C16.0195 19.0287 15.961 18.7591 15.6914 18.4896C15.4336 18.2318 14.6836 18.1849 14.3789 18.4076Z" fill="#2A396D"/>
<path d="M6.15234 21.5245L4.04297 22.0753L3.82031 22.5323L3.59766 22.9777L4.69922 25.2042C5.30859 26.423 5.89453 27.4777 6 27.5362C6.36328 27.7355 7.19531 27.6183 9.08203 27.1378L10.957 26.6456L11.1797 26.1886L11.4023 25.7433L10.2773 23.4698C9.375 21.6534 9.08203 21.173 8.84766 21.0792C8.4375 20.9269 8.55469 20.9034 6.15234 21.5245ZM8.37891 24.1261C8.625 24.6417 8.8125 25.0753 8.77734 25.0987C8.66016 25.2042 7.20703 25.5089 7.125 25.462C7.00781 25.3917 6.21094 23.8331 6.21094 23.6808C6.21094 23.5987 7.37109 23.2472 7.79297 23.2003C7.86328 23.2003 8.12109 23.6105 8.37891 24.1261Z" fill="#2A396D"/>
<path d="M45.1524 21.278C45.0235 21.3952 44.4844 22.4734 43.9454 23.6804L42.9844 25.8718L40.793 26.821C39.5977 27.3484 38.5196 27.8874 38.4141 28.0163C38.1563 28.3093 38.1446 28.9069 38.3672 29.2351C38.4727 29.3757 39.4805 29.8913 40.8047 30.4655L43.0782 31.4382L44.004 33.5593C44.5079 34.7194 45.0352 35.7859 45.1641 35.9265C45.4571 36.2663 46.2774 36.3015 46.5587 35.9851C46.6524 35.8796 47.168 34.8132 47.6954 33.6179L48.6563 31.4382L50.7188 30.5241C51.8672 30.0085 52.9219 29.4812 53.086 29.3288C53.4258 29.0007 53.4727 28.3562 53.168 28.0163C53.0626 27.8991 51.9844 27.3718 50.7774 26.8327L48.5743 25.8601L47.6368 23.739C47.1212 22.5671 46.5821 21.489 46.4415 21.3366C46.1251 21.0202 45.4805 20.9851 45.1524 21.278ZM47.1446 27.3601C47.2852 27.489 47.9415 27.8405 48.5977 28.1218C49.2657 28.403 49.7579 28.6609 49.711 28.696C49.6641 28.7429 49.0547 29.0241 48.3516 29.3405L47.0743 29.9148L46.5821 30.9812C46.3008 31.5554 46.043 32.153 46.0079 32.2937C45.961 32.446 45.8907 32.5632 45.8438 32.5632C45.7969 32.5632 45.5274 32.0007 45.2344 31.321C44.9415 30.6413 44.6251 30.0202 44.5313 29.9265C44.4376 29.8444 43.7813 29.528 43.0899 29.2234C42.3985 28.9187 41.836 28.6491 41.8594 28.6374C41.8829 28.6257 42.4219 28.3796 43.0665 28.1101C44.3672 27.5476 44.6719 27.3249 44.8946 26.7859C44.9766 26.5749 45.2227 26.0124 45.4337 25.5319L45.8321 24.653L46.3712 25.8835C46.6524 26.5632 47.0157 27.2194 47.1446 27.3601Z" fill="#2A396D"/>
<path d="M38.0859 22.4033C35.5078 23.5283 31.6875 26.2588 27.3516 30.0439C26.3906 30.876 24.0586 33.0908 22.1719 34.9658C18.75 38.3643 18.75 38.3643 18.75 38.8682C18.75 39.5127 19.0547 39.8291 19.6641 39.8291C20.0977 39.8291 20.2383 39.7002 22.9805 36.9814C29.6484 30.3604 34.6758 26.3291 38.6367 24.4072C40.3008 23.5986 40.5 23.3877 40.3008 22.6611C40.0898 21.8994 39.4102 21.8291 38.0859 22.4033Z" fill="#2A396D"/>
<path d="M10.8281 31.4385C10.582 31.5439 10.4062 31.7549 10.2773 32.0713C10.1719 32.3408 7.81641 38.54 5.03906 45.8408C1.78125 54.4541 0 59.2822 0 59.5635C0 60.126 0.328125 60.4541 0.902344 60.4541C1.45312 60.4541 25.9336 49.1924 26.1914 48.8057C26.6133 48.208 26.2266 47.4229 25.3945 47.2002C24.5039 46.9658 21.9961 45.9346 20.707 45.29C19.2422 44.54 17.7305 43.5791 16.6055 42.6768C14.1562 40.708 12.6445 37.4033 12.3164 33.2783C12.1992 31.8252 12.1055 31.5791 11.5898 31.4033C11.3789 31.333 11.2148 31.2744 11.2031 31.2744C11.1914 31.2861 11.0273 31.3564 10.8281 31.4385ZM11.0156 37.4619C11.5664 39.4541 12.8438 41.7627 14.1562 43.1338C14.9414 43.9541 16.5117 45.1729 17.9883 46.0986C19.0781 46.79 21.293 47.8916 22.0664 48.1494C22.3242 48.2314 22.4766 48.3369 22.418 48.3838C22.2891 48.5244 14.8242 52.0166 14.6719 52.0166C14.5078 52.0166 13.4648 50.751 12.7734 49.7314C11.1797 47.3643 10.1133 44.6572 9.65625 41.833C9.39844 40.2393 9.43359 39.958 10.1016 38.165C10.4297 37.2744 10.7227 36.5713 10.7461 36.5947C10.7695 36.6182 10.8867 37.0049 11.0156 37.4619ZM8.19141 44.6924C8.75391 46.9893 10.4062 50.2002 12.1172 52.2861C12.4219 52.6611 12.6562 52.9893 12.6328 53.0127C12.4805 53.1533 7.34766 55.4268 7.30078 55.3799C7.21875 55.2861 5.87109 49.8955 5.85938 49.6143C5.85938 49.2979 7.89844 43.9307 7.98047 44.0244C8.02734 44.0713 8.12109 44.3643 8.19141 44.6924ZM5.03906 54.6885C5.25 55.5439 5.40234 56.2705 5.36719 56.2939C5.27344 56.3877 2.88281 57.5127 2.84766 57.4775C2.82422 57.4541 3.1875 56.4346 3.65625 55.1924C4.11328 53.9619 4.53516 52.9893 4.58203 53.0361C4.61719 53.0947 4.82812 53.833 5.03906 54.6885Z" fill="#2A396D"/>
<path d="M35.3554 33.3838C32.0156 34.1221 28.1953 36.126 24.9609 38.8564C23.5664 40.04 23.2382 40.5088 23.4492 41.1064C23.6015 41.54 23.8593 41.7041 24.4218 41.7041C24.7734 41.7041 24.9726 41.5869 25.5234 41.083C28.6289 38.2354 32.6718 36.0088 35.9882 35.3174C37.2304 35.0596 37.2656 35.0361 37.4414 34.6377C37.7343 33.9463 37.4179 33.3252 36.7265 33.2197C36.539 33.1846 35.9179 33.2549 35.3554 33.3838Z" fill="#2A396D"/>
<path d="M53.0156 38.4701C52.6992 38.6108 52.5586 38.8569 51.8086 40.6147L50.9531 42.5951L49.4766 42.8061C47.0039 43.1459 46.875 43.2162 46.875 44.1186C46.875 44.517 46.9922 44.6694 48.1758 45.8764L49.4883 47.2006L49.0664 49.3803C48.6211 51.6889 48.6328 52.1108 49.1016 52.3686C49.6406 52.6615 50.0273 52.5092 51.75 51.3256L53.4492 50.1654L55.1133 51.3256C56.4961 52.2983 56.8359 52.4858 57.2109 52.4858C57.7969 52.4858 58.125 52.1576 58.125 51.5951C58.125 51.3608 57.9609 50.2709 57.7617 49.1811L57.3867 47.2006L58.6992 45.8764C59.9297 44.6225 60 44.5287 60 44.0717C60 43.2631 59.6719 43.0873 57.6328 42.8295L55.9219 42.6069L55.0664 40.6147C54.293 38.7983 54.1875 38.6108 53.8359 38.4701C53.3789 38.2826 53.4609 38.2826 53.0156 38.4701ZM53.9531 43.0404C54.1992 43.5912 54.4922 44.1186 54.5977 44.2123C54.7148 44.3178 55.2305 44.4584 55.793 44.5404C56.332 44.6108 56.8008 44.6811 56.8242 44.7045C56.8477 44.7279 56.543 45.0912 56.1445 45.5248C55.7461 45.9584 55.3945 46.4389 55.3594 46.5912C55.3125 46.7436 55.3945 47.4115 55.5117 48.0795L55.7344 49.31L54.75 48.6069C54.1289 48.185 53.625 47.9154 53.4375 47.9154C53.25 47.9154 52.7227 48.185 52.1016 48.6303C51.4102 49.1108 51.0938 49.2631 51.1406 49.1225C51.2461 48.7709 51.5625 46.9662 51.5625 46.7319C51.5625 46.6147 51.2227 46.1342 50.8008 45.6654C50.3086 45.1029 50.0977 44.7865 50.1914 44.7397C50.2734 44.6928 50.6719 44.6225 51.0938 44.5756C52.2656 44.4467 52.4062 44.3295 52.9219 43.1108C53.168 42.5365 53.4023 42.0561 53.4492 42.0561C53.4844 42.0561 53.7188 42.5014 53.9531 43.0404Z" fill="#2A396D"/>
<path d="M37.1718 39.8999C33.4453 40.4389 29.1562 42.0092 25.5117 44.1538C24.9726 44.4819 24.4922 44.8335 24.4453 44.9389C24.2929 45.3256 24.375 45.9233 24.6093 46.1577C25.0312 46.5796 25.5468 46.4624 26.9297 45.6655C29.6484 44.0952 33.2695 42.7006 36.1523 42.103C37.4297 41.8335 38.0859 41.7749 40.2187 41.7163C41.7773 41.6694 42.8086 41.5991 42.8906 41.5171C43.1367 41.271 43.2187 40.6967 43.0664 40.3217C42.9492 40.0522 42.7968 39.935 42.457 39.8413C41.8476 39.6655 38.4961 39.7006 37.1718 39.8999Z" fill="#2A396D"/>
<path d="M15.9375 40.7666V41.7041H16.875H17.8125V40.7666V39.8291H16.875H15.9375V40.7666Z" fill="#2A396D"/>
<path d="M20.625 42.6416V43.5791H21.5625H22.5V42.6416V41.7041H21.5625H20.625V42.6416Z" fill="#2A396D"/>
<path d="M40.5469 47.5635C40.3359 47.7744 40.3125 47.9502 40.3125 49.2041C40.3125 50.8447 40.4297 51.0791 41.25 51.0791C42.0703 51.0791 42.1875 50.8447 42.1875 49.2041C42.1875 47.5635 42.0703 47.3291 41.25 47.3291C40.9336 47.3291 40.6992 47.4111 40.5469 47.5635Z" fill="#2A396D"/>
<path d="M36.7969 51.3135C36.6445 51.4658 36.5625 51.7002 36.5625 52.0166C36.5625 52.8369 36.7969 52.9541 38.4375 52.9541C40.0781 52.9541 40.3125 52.8369 40.3125 52.0166C40.3125 51.1963 40.0781 51.0791 38.4375 51.0791C37.1836 51.0791 37.0078 51.1025 36.7969 51.3135Z" fill="#2A396D"/>
<path d="M42.4219 51.3135C42.2695 51.4658 42.1875 51.7002 42.1875 52.0166C42.1875 52.8369 42.4219 52.9541 44.0625 52.9541C45.7031 52.9541 45.9375 52.8369 45.9375 52.0166C45.9375 51.1963 45.7031 51.0791 44.0625 51.0791C42.8086 51.0791 42.6328 51.1025 42.4219 51.3135Z" fill="#2A396D"/>
<path d="M28.4414 53.036C27.2109 54.243 26.9883 54.6414 27.2344 55.2157C27.3164 55.4149 28.0781 56.2586 28.9101 57.0789C30.8555 59.0008 30.7383 58.9891 32.8711 57.5711C33.7148 57.0204 34.4648 56.4813 34.5469 56.3758C34.6992 56.1766 34.7344 55.4383 34.5937 55.2157C34.5469 55.1336 33.5859 54.3836 32.4609 53.5399C29.8476 51.5829 29.9414 51.5946 28.4414 53.036ZM31.0195 55.0047C31.4883 55.368 31.875 55.6961 31.875 55.7547C31.875 55.8133 31.6992 55.9657 31.4766 56.0946L31.0781 56.3289L30.3398 55.5789C29.6133 54.8524 29.6133 54.8289 29.8242 54.5946C29.9414 54.4657 30.0586 54.3602 30.0937 54.3602C30.1289 54.3602 30.5391 54.6532 31.0195 55.0047Z" fill="#2A396D"/>
<path d="M40.5469 53.1885C40.3359 53.3994 40.3125 53.5752 40.3125 54.8291C40.3125 56.4697 40.4297 56.7041 41.25 56.7041C42.0703 56.7041 42.1875 56.4697 42.1875 54.8291C42.1875 53.1885 42.0703 52.9541 41.25 52.9541C40.9336 52.9541 40.6992 53.0361 40.5469 53.1885Z" fill="#2A396D"/>
</g>
<defs>
<clipPath id="clip0_7281_245576">
<rect width="60" height="60" fill="white" transform="translate(0 0.454102)"/>
</clipPath>
</defs>
</svg>
