<svg width="60" height="60" viewBox="0 0 60 60" fill="none" xmlns="http://www.w3.org/2000/svg">
<path d="M17.7539 0.234375C17.5664 0.445312 17.4609 1.32422 16.9805 7.00781C16.3242 14.5312 16.3125 14.8711 16.6523 15.7617C16.9805 16.6523 17.8828 17.6133 18.7617 18.0117L19.4531 18.3281V22.6406V26.9531L11.1211 26.9766L2.78906 27.0117L2.56641 27.293C2.36719 27.5391 2.34375 27.7734 2.34375 29.6016C2.34375 31.4883 2.36719 31.6641 2.57812 31.875C2.8125 32.1094 2.96484 32.1094 10.9219 32.1094H19.0312L18.0938 33.082C17.5781 33.6094 16.6758 34.6641 16.0781 35.4141C15.4805 36.1641 11.6133 40.5703 7.5 45.1992C0.457031 53.0977 0 53.6367 0 54.0469C0 54.6211 0.351562 54.9609 0.949219 54.9609C1.37109 54.9609 1.48828 54.832 6.375 49.3359C9.12891 46.2422 11.4492 43.7109 11.5195 43.7109C11.6367 43.7109 17.918 45.6914 18.0234 45.7617C18.0352 45.7734 17.6836 46.5469 17.2266 47.4727C16.3359 49.3008 16.2422 49.7344 16.6758 50.1328C17.0039 50.4375 17.707 50.4844 17.9414 50.2031C18.0352 50.0977 19.2188 47.7188 20.5781 44.9062L23.0508 39.7852L26.7305 39.7266C30.2578 39.668 30.4336 39.6562 30.9961 39.3984C37.8867 36.2344 39.8086 35.2969 40.3242 34.8398C41.0039 34.2188 41.543 33.3984 41.7305 32.6602L41.8828 32.1094H50.707C59.3789 32.1094 59.5312 32.1094 59.7656 31.875C59.9883 31.6523 60 31.4883 60 29.5547C60 27.5742 59.9883 27.4453 59.7539 27.2344C59.5312 27.0234 59.2969 27.0117 56.7539 27.0117C54 27.0117 54 27.0117 53.7773 27.293C53.4844 27.6562 53.4844 28.2891 53.7891 28.5938C54 28.8047 54.1758 28.8281 56.0742 28.8281H58.125V29.5312V30.2344H31.1719H4.21875V29.5312V28.8281H27.1055C49.1367 28.8281 50.0156 28.8164 50.1914 28.6172C50.4844 28.3008 50.4492 27.5156 50.1445 27.2344C49.9102 27.0234 49.6523 27.0117 46.3945 26.9766L42.8906 26.9414V22.6406V18.3398L43.582 18.0234C44.9766 17.3672 45.8203 16.1484 45.9141 14.6484C45.9375 14.1328 45.7383 11.0508 45.4102 7.20703C44.9531 1.72266 44.8242 0.597656 44.6484 0.351562L44.4492 0.0585938H41.9531H39.457L39.2461 0.351562C39.0703 0.597656 38.9531 1.67578 38.4961 7.08984C37.8281 14.9414 37.8281 14.9766 38.2969 15.9844C38.7422 16.9336 39.5156 17.6953 40.3711 18.0586L41.0156 18.3281V22.6406V26.9531H36.5625H32.1094V22.6406V18.3281L32.7656 18.0586C33.9727 17.5547 34.9453 16.2891 35.1562 14.9531C35.2148 14.543 35.0742 12.3047 34.6641 7.51172C34.1719 1.6875 34.0547 0.597656 33.8789 0.351562L33.668 0.0585938L31.1953 0.0234375L28.7344 0L28.5117 0.269531C28.3242 0.515625 28.2188 1.41797 27.7266 7.25391C27.3984 11.1328 27.1758 14.2852 27.2109 14.7422C27.3164 16.1367 28.207 17.4023 29.5547 18.0234L30.2344 18.3398V22.6406V26.9531H25.7812H21.3281V22.6406V18.3281L21.9961 18.0469C22.793 17.7188 23.707 16.8633 24.0234 16.1367C24.5391 14.9883 24.5391 14.9766 23.9062 7.64062C23.5898 3.85547 23.3203 0.703125 23.3203 0.632812C23.3203 0.574219 23.2148 0.398438 23.0859 0.257812C22.8516 0.0117188 22.7578 0 20.4023 0C18.1055 0 17.9531 0.0117188 17.7539 0.234375ZM21.6562 3.375C21.7383 4.26562 21.7969 5.15625 21.7969 5.36719V5.74219H20.3906C19.5469 5.74219 18.9844 5.69531 18.9844 5.625C18.9844 5.35547 19.2305 2.48438 19.2891 2.13281L19.3477 1.75781H20.4375H21.5273L21.6562 3.375ZM32.4375 3.48047C32.5195 4.44141 32.5781 5.33203 32.5781 5.47266C32.5781 5.74219 32.5547 5.74219 31.1719 5.74219C29.9062 5.74219 29.7656 5.71875 29.7656 5.53125C29.7656 5.17969 30.0117 2.29688 30.0703 2.01562C30.1172 1.76953 30.1758 1.75781 31.207 1.75781H32.2969L32.4375 3.48047ZM43.207 3.39844C43.2773 4.26562 43.3477 5.15625 43.3477 5.35547L43.3594 5.74219H41.9531C40.6875 5.74219 40.5469 5.71875 40.5469 5.53125C40.5469 5.42578 40.6055 4.52344 40.6875 3.53906L40.8281 1.74609L41.9414 1.78125L43.0664 1.81641L43.207 3.39844ZM22.0312 7.72266C22.0312 7.79297 22.1602 9.36328 22.3242 11.2383C22.6055 14.3789 22.6055 14.6719 22.4414 15.082C22.1953 15.668 21.9492 15.9258 21.3867 16.1836C20.0977 16.7812 18.5156 16.0781 18.3164 14.8125C18.2812 14.5781 18.375 12.8672 18.5273 11.0039L18.7969 7.61719H20.4141C21.3398 7.61719 22.0312 7.66406 22.0312 7.72266ZM32.8125 7.875C32.8125 8.02734 32.9414 9.58594 33.0938 11.3438C33.3984 14.7305 33.375 15.0469 32.9062 15.6445C32.1094 16.6523 30.1523 16.6172 29.4141 15.5859C29.0156 15.0234 29.0039 14.4258 29.3086 10.8398L29.5781 7.61719H31.1953C32.7891 7.61719 32.8125 7.61719 32.8125 7.875ZM43.5938 7.93359C43.5938 8.12109 43.6992 9.44531 43.8281 10.8984C44.1445 14.3906 44.1328 14.9766 43.793 15.4805C43.4531 15.9961 42.6445 16.4062 41.9531 16.4062C41.3203 16.4062 40.4883 16.0195 40.1602 15.5742C39.7617 15.0234 39.75 14.5664 40.0312 11.3555C40.1836 9.65625 40.3008 8.12109 40.3125 7.93359V7.61719H41.9531H43.5938V7.93359ZM29.7656 32.3438C29.4023 32.6133 29.0508 32.707 26.6016 33.1172C24.3984 33.4922 24.2227 33.5859 24.2812 34.3594C24.3047 34.7227 24.3984 34.8984 24.6328 35.0742L24.9609 35.3203L27.4219 34.8867C30.5742 34.3359 31.1953 34.0312 31.8281 32.7539L32.1328 32.1094H36.0469H39.9609L39.7383 32.543C39.2695 33.4688 39.2344 33.4805 33.3398 36.2227L29.707 37.9102L26.3086 37.9453L22.9102 37.9805L20.2383 37.4648C18.7734 37.1836 17.543 36.9258 17.5078 36.8789C17.4141 36.7852 19.8398 33.9492 20.3555 33.5508C21.3398 32.8008 22.2539 32.3906 23.3086 32.2383C23.6719 32.1797 25.3359 32.1328 27.0117 32.1211C30.0352 32.1094 30.0586 32.1211 29.7656 32.3438ZM18.7031 39.0938L21.0586 39.5273L20.0156 41.707C19.4414 42.9023 18.9258 43.9219 18.8906 43.957C18.7852 44.0508 12.9844 42.1641 12.9844 42.0352C12.9844 41.9766 13.6523 41.168 14.4727 40.2422C15.4922 39.0938 16.0312 38.5664 16.1602 38.6016C16.2656 38.625 17.4023 38.8477 18.7031 39.0938Z" fill="#2A396D"/>
<path d="M10.9102 46.4763C10.3242 47.2263 10.9219 48.1873 11.8594 47.9881C12.4922 47.8474 12.7031 46.9216 12.2227 46.3709C11.918 46.0427 11.2031 46.1013 10.9102 46.4763Z" fill="#2A396D"/>
<path d="M14.6602 53.2383C14.4609 53.332 14.0391 54.082 13.1016 56.0156C12.3984 57.4688 11.7891 58.8164 11.7539 59.0039C11.6602 59.543 12.082 60 12.668 60C12.9844 60 13.1953 59.9297 13.3242 59.7656C13.6289 59.4141 16.043 54.3516 16.0547 54.0586C16.0547 53.7305 15.6094 53.2266 15.2344 53.1562C15.0703 53.1211 14.8125 53.1562 14.6602 53.2383Z" fill="#2A396D"/>
</svg>
