<svg width="60" height="60" viewBox="0 0 60 60" fill="none" xmlns="http://www.w3.org/2000/svg">
<path d="M38.2032 2.69531C37.9453 2.95312 37.8985 3.44531 38.086 3.91406C38.168 4.16016 38.1563 4.21875 37.9688 4.27734C37.8516 4.3125 37.3594 4.59375 36.8907 4.91016C34.5 6.46875 32.7422 8.85938 31.9453 11.6367C31.5235 13.1016 31.336 15.0117 31.5 16.3359L31.6172 17.3906L31.1133 17.8828C30.1641 18.7969 30.1172 20.1094 30.9727 21.0586C31.2071 21.3047 31.5938 21.5391 31.9922 21.6797L32.6368 21.9023L32.8828 22.7812C33.1875 23.8477 33.375 24.1641 33.9961 24.5742C34.3594 24.8086 34.6407 24.8906 35.3438 24.9375C36.3282 24.9961 36.3164 24.9844 35.836 25.957C35.3555 26.918 35.9532 26.8359 29.2266 26.8359H23.2032L22.9219 26.3906C22.7578 26.1562 22.5469 25.7344 22.4532 25.4531L22.2774 24.9609H22.8282C23.5782 24.9609 24.1758 24.7734 24.6094 24.4102C25.0664 24.0352 25.3008 23.5781 25.5352 22.6406L25.7227 21.8906L26.3438 21.6914C27.0821 21.4336 27.4922 21.082 27.7852 20.4492C28.0664 19.8516 28.0664 19.1719 27.7852 18.5625C27.5743 18.1055 27.0235 17.5781 26.5899 17.4258C26.4727 17.3906 26.3789 17.168 26.3321 16.8516C26.2969 16.582 26.1211 15.9258 25.9453 15.4102C24.4336 10.8984 20.6485 7.72266 16.0313 7.08984L15.4688 7.01953V6.55078C15.4688 5.94141 15.1524 5.625 14.5547 5.625C13.9922 5.625 13.711 5.90625 13.6289 6.53906L13.5703 7.00781L12.5157 7.19531C7.81644 8.0625 4.13675 11.5781 2.92972 16.3711C2.7891 16.8984 2.61331 17.332 2.49613 17.4023C2.39066 17.4609 2.13285 17.6602 1.93363 17.8477C0.527377 19.0312 1.16019 21.4219 2.95316 21.7383C3.3516 21.8203 3.41019 21.8672 3.51566 22.3125C3.80863 23.4258 4.00785 23.8828 4.37113 24.2344C4.82816 24.6797 5.47269 24.9609 6.04691 24.9609C6.44535 24.9609 6.46878 24.9727 6.38675 25.2773C6.3516 25.4648 6.1641 25.8633 5.98831 26.1914L5.66019 26.7773L3.5391 26.8359L1.42972 26.8945L0.984408 27.2578C0.234408 27.8555 0.0703459 28.1602 0.0234709 29.0508C-0.0116853 29.6836 0.0234709 29.9414 0.22269 30.3164C0.492221 30.8438 0.960971 31.2891 1.50003 31.5117L1.86331 31.6641L1.89847 33.8438C1.93363 36.3516 2.0391 36.7148 2.98831 37.6641C3.83206 38.5078 4.42972 38.7305 5.80081 38.7305C7.1016 38.7305 7.65238 38.543 8.40238 37.8281L8.77738 37.4648L9.26956 37.8984C10.6758 39.0938 12.9961 39.0938 14.3907 37.8984L14.8828 37.4766L15.293 37.8398C16.0078 38.4609 16.6172 38.707 17.6016 38.7656C18.7032 38.8359 19.5352 38.5898 20.3438 37.9805L20.918 37.5469L21.5039 37.9805C22.3477 38.6016 23.1211 38.8359 24.2344 38.7656C25.2305 38.707 25.9336 38.4258 26.5664 37.8281L26.9414 37.4648L27.4336 37.8984C28.8399 39.0938 31.1602 39.0938 32.5664 37.8984L33.0586 37.4648L33.4336 37.8281C34.0664 38.4258 34.7696 38.707 35.7657 38.7656C36.8672 38.8359 37.6993 38.5898 38.5078 37.9805L39.0821 37.5469L39.6563 37.9805C41.168 39.1289 43.4297 39.0469 44.7305 37.8281L45.1055 37.4648L45.5977 37.8984C47.0039 39.0938 49.3243 39.0938 50.7305 37.8984L51.2227 37.4648L51.5977 37.8281C52.3477 38.543 52.8985 38.7305 54.1993 38.7305C55.1954 38.7305 55.4532 38.6836 55.9336 38.4492C56.6719 38.0859 57.4219 37.3359 57.7735 36.6211C58.043 36.0703 58.0664 35.8945 58.1016 33.8672L58.1368 31.6992L58.6758 31.4062C58.9805 31.2422 59.3789 30.9141 59.5782 30.668C59.918 30.2461 59.9414 30.1523 59.9414 29.2383C59.9414 28.1484 59.836 27.9141 59.0157 27.2578L58.5704 26.8945L55.7696 26.8594L52.9688 26.8242L52.6758 26.4375C52.4414 26.1328 52.0313 25.2188 52.0313 25.0078C52.0313 24.9844 52.1836 24.9609 52.3711 24.9609C52.5469 24.9609 52.875 24.9023 53.0977 24.8203C54 24.5156 54.4219 23.9531 54.7852 22.582C54.9493 21.9375 55.0313 21.7969 55.2305 21.7969C55.7344 21.7969 56.5079 21.3047 56.8477 20.7656C57.6329 19.5352 57.0704 17.8711 55.711 17.4023C55.3477 17.2852 55.2422 17.168 55.1368 16.8047C54.9141 16.0547 54.6446 15.6445 54.0821 15.1406C53.1329 14.3086 51.9375 14.1094 50.4961 14.5312C49.9571 14.6836 49.9454 14.6836 49.3829 14.2734C49.0664 14.0391 48.5743 13.7812 48.293 13.6875C48.0118 13.582 47.8243 13.4766 47.8828 13.4414C47.9414 13.418 49.125 12.9492 50.5079 12.4219C53.6954 11.2031 53.6954 11.2031 53.9532 10.7695C54.2696 10.2422 54.1407 9.65625 53.5196 8.69531C51.6211 5.76562 48.3516 3.66797 44.8946 3.15234C43.7578 2.98828 41.6602 3.07031 40.6407 3.31641C40.0196 3.46875 39.961 3.46875 39.9024 3.26953C39.8672 3.16406 39.7266 2.92969 39.5977 2.76562C39.293 2.37891 38.5547 2.34375 38.2032 2.69531ZM45.0821 5.10938C47.0625 5.51953 48.7032 6.35156 50.1563 7.69922C51.1758 8.64844 51.9961 9.69141 51.8438 9.83203C51.6329 10.0195 33.5039 16.8984 33.4219 16.8164C33.375 16.7812 33.3516 16.043 33.3516 15.1992C33.3633 13.9453 33.4219 13.4414 33.668 12.5273C34.8633 8.01562 38.6485 4.98047 43.1602 4.93359C43.7227 4.92188 44.5899 5.00391 45.0821 5.10938ZM16.5 9.09375C19.9102 9.79688 22.8164 12.3398 24.0235 15.6797C24.1993 16.1836 24.375 16.7227 24.4219 16.8984L24.4922 17.2266H14.5899C8.84769 17.2266 4.68753 17.1797 4.68753 17.1211C4.68753 16.7812 5.25003 15.2695 5.69535 14.4141C7.20706 11.543 9.97269 9.51562 13.125 8.98828C13.8516 8.87109 15.6797 8.91797 16.5 9.09375ZM43.8282 15.0586C43.8282 15.0938 43.7227 15.3398 43.5821 15.6094C43.4414 15.8789 43.3008 16.3359 43.2539 16.6289L43.1836 17.168L40.6055 17.1914L38.0274 17.2148L38.9649 16.8516C39.4805 16.6523 40.7461 16.1602 41.7774 15.75C43.7227 15 43.8282 14.9531 43.8282 15.0586ZM48.1758 15.7734C49.336 16.5586 50.0743 16.7109 51.0938 16.3477C51.3633 16.2539 51.7383 16.1719 51.9141 16.1719C52.2774 16.1719 52.9219 16.5703 53.1797 16.957L53.3438 17.2266H49.2305C45.1641 17.2266 45.1172 17.2266 45.1172 16.9922C45.1172 16.4648 45.7032 15.7148 46.2891 15.4805C46.9102 15.2344 47.5196 15.3281 48.1758 15.7734ZM25.9688 19.2656C26.1446 19.4062 26.168 19.4766 26.0625 19.6523C25.9336 19.8516 25.4063 19.8633 14.5899 19.8633C4.13675 19.8633 3.23441 19.8516 3.12894 19.6641C3.03519 19.5234 3.04691 19.418 3.15238 19.2891C3.293 19.125 4.42972 19.1016 14.5196 19.1016C24.1055 19.1016 25.7696 19.125 25.9688 19.2656ZM55.2305 19.3594C55.3243 19.5 55.3125 19.6055 55.2071 19.7344C55.0664 19.8984 53.918 19.9219 43.7813 19.9219C32.543 19.9219 32.2266 19.9102 32.2266 19.5586C32.2266 19.5117 32.3086 19.3828 32.4141 19.2891C32.5782 19.1133 33.7383 19.1016 43.8516 19.125C54.211 19.1602 55.125 19.1719 55.2305 19.3594ZM23.7188 22.1133C23.6719 22.3008 23.5782 22.5703 23.5078 22.7344L23.3789 23.0273L14.625 23.0625L5.87113 23.0859L5.69535 22.8281C5.6016 22.6758 5.49613 22.3828 5.44925 22.1719L5.36722 21.7969H14.5782H23.7891L23.7188 22.1133ZM52.9102 22.2305C52.7461 23.1562 53.5196 23.0859 43.7227 23.0625L34.9805 23.0273L34.8516 22.7344C34.7813 22.5703 34.6875 22.3008 34.6407 22.1133L34.5703 21.7969H43.7813H52.9922L52.9102 22.2305ZM20.6368 25.8984L20.9297 26.8359H14.3907C10.793 26.8359 7.8516 26.8125 7.8516 26.7773C7.8516 26.7539 7.93363 26.5547 8.02738 26.3438C8.12113 26.1328 8.25003 25.7344 8.32035 25.4531L8.44925 24.9609H14.3907L20.3321 24.9727L20.6368 25.8984ZM50.1563 25.1953C50.1563 25.3242 50.2618 25.7344 50.3907 26.0977C50.5196 26.4727 50.625 26.7891 50.625 26.8008C50.625 26.8242 47.6953 26.8359 44.1211 26.8359C40.5469 26.8359 37.6172 26.8242 37.6172 26.8008C37.6172 26.7891 37.7227 26.4727 37.8516 26.0977C37.9805 25.7344 38.086 25.3242 38.086 25.1953C38.086 24.9609 38.1446 24.9609 44.1211 24.9609C50.0977 24.9609 50.1563 24.9609 50.1563 25.1953ZM57.9844 28.8516C58.1602 29.0273 58.1602 29.4492 57.9844 29.625C57.7852 29.8242 2.21488 29.8242 2.01566 29.625C1.93363 29.543 1.87503 29.3789 1.87503 29.2383C1.87503 29.0977 1.93363 28.9336 2.01566 28.8516C2.21488 28.6523 57.7852 28.6523 57.9844 28.8516ZM7.8516 33.4453C7.8516 35.3789 7.78128 35.7305 7.2891 36.2461C6.83206 36.7266 6.42191 36.9141 5.7891 36.9141C5.07425 36.9141 4.39456 36.5273 4.03128 35.9062C3.76175 35.4609 3.75003 35.3203 3.75003 33.5391V31.6406H5.80081H7.8516V33.4453ZM13.9453 33.4219C13.9453 35.4844 13.8047 35.9414 13.0547 36.5156C12.668 36.8086 12.5157 36.8555 11.836 36.8555C11.168 36.8555 10.9922 36.8086 10.6289 36.5273C9.86722 35.9531 9.79691 35.6836 9.75003 33.5391L9.70316 31.6406H11.8243H13.9453V33.4219ZM20.0157 33.4805C19.9805 35.1094 19.9453 35.3906 19.711 35.8242C19.0899 37.0195 17.4727 37.2773 16.4766 36.3516C15.9024 35.8125 15.8203 35.4492 15.8203 33.457V31.6406H17.9414H20.0625L20.0157 33.4805ZM26.0157 33.4453C26.0157 35.3789 25.9453 35.7305 25.4532 36.2578C24.5157 37.2539 22.8868 37.0781 22.1953 35.9062C21.9258 35.4609 21.9141 35.3203 21.9141 33.5391V31.6406H23.9649H26.0157V33.4453ZM32.1094 33.4219C32.1094 35.4844 31.9688 35.9414 31.2188 36.5156C30.8321 36.8086 30.6797 36.8555 30 36.8555C29.3203 36.8555 29.168 36.8086 28.7813 36.5156C28.0313 35.9414 27.8907 35.4844 27.8907 33.4219V31.6406H30H32.1094V33.4219ZM38.086 33.5273C38.086 35.2617 38.0625 35.4492 37.8282 35.8828C37.1836 37.0312 35.6133 37.2539 34.6407 36.3516C34.0664 35.8125 33.9844 35.4492 33.9844 33.457V31.6406H36.0352H38.086V33.5273ZM44.1797 33.4453C44.1797 35.3789 44.1094 35.7305 43.6172 36.2578C42.6563 37.2773 40.9336 37.0547 40.2891 35.8242C40.0547 35.3906 40.0196 35.1094 39.9844 33.4805L39.9375 31.6406H42.0586H44.1797V33.4453ZM50.25 33.5391C50.2032 35.6836 50.1329 35.9531 49.3711 36.5273C49.0079 36.8086 48.8321 36.8555 48.1641 36.8555C47.4844 36.8555 47.3321 36.8086 46.9453 36.5156C46.1953 35.9414 46.0547 35.4844 46.0547 33.4219V31.6406H48.1758H50.2969L50.25 33.5391ZM56.25 33.5273C56.25 35.2617 56.2266 35.4492 55.9922 35.8828C55.6407 36.5039 54.9258 36.9141 54.211 36.9141C53.5782 36.9141 53.168 36.7266 52.711 36.2461C52.2188 35.7305 52.1485 35.3789 52.1485 33.4453V31.6406H54.1993H56.25V33.5273Z" fill="#2A396D"/>
<path d="M2.10938 39.2578C1.88672 39.4805 1.875 39.6445 1.875 43.7344C1.875 47.9414 1.875 48 2.15625 48.5742C2.46094 49.2305 3.21094 49.9687 3.85547 50.2383C4.08984 50.3437 4.73438 50.4492 5.30859 50.4844L6.32812 50.543V52.9336C6.32812 55.7812 6.41016 56.2266 7.07812 56.8945C8.13281 57.9375 10.1484 57.9375 11.2031 56.8945C11.8594 56.2266 11.9531 55.7344 11.9531 52.8516V50.5078H30.0469H48.1523L48.1875 53.2969L48.2227 56.0977L48.5391 56.5664C48.75 56.8945 49.0664 57.1523 49.5 57.3633C50.0742 57.6445 50.2617 57.6797 51.0586 57.6328C52.1719 57.5859 52.7695 57.3047 53.2617 56.6133L53.6133 56.1094L53.6484 53.332L53.6836 50.543L54.7031 50.4844C55.2656 50.4492 55.9102 50.3437 56.1445 50.2383C56.7891 49.9687 57.5391 49.2305 57.8438 48.5742C58.125 48 58.125 47.9414 58.125 43.7578V39.5273L57.8555 39.2812C57.5625 39.0117 57.082 38.9531 56.7188 39.1406C56.2969 39.3633 56.25 39.8789 56.25 43.8281C56.25 47.543 56.2383 47.6719 56.0039 47.9766C55.4531 48.6797 57.3984 48.6328 30 48.6328C2.97656 48.6328 4.60547 48.668 4.04297 48.0469C3.82031 47.8008 3.80859 47.5781 3.75 43.6523C3.69141 39.7969 3.67969 39.5039 3.46875 39.2695C3.16406 38.9414 2.4375 38.9297 2.10938 39.2578ZM10.0781 52.9102C10.0781 55.1602 10.0664 55.3242 9.84375 55.5469C9.69141 55.6992 9.45703 55.7812 9.14062 55.7812C8.82422 55.7812 8.58984 55.6992 8.4375 55.5469C8.21484 55.3242 8.20312 55.1602 8.20312 52.9102V50.5078H9.14062H10.0781V52.9102ZM51.7969 52.957C51.7969 55.7578 51.7852 55.7812 50.918 55.7812C50.0508 55.7812 50.0391 55.7578 50.0391 52.957V50.5078H50.918H51.7969V52.957Z" fill="#2A396D"/>
</svg>
