<svg width="60" height="61" viewBox="0 0 60 61" fill="none" xmlns="http://www.w3.org/2000/svg">
<g clip-path="url(#clip0_7281_245632)">
<path d="M17.3321 0.629883C11.9063 1.6377 7.48832 5.45801 5.75395 10.626C5.39067 11.7158 5.03911 13.4033 5.03911 14.0596V14.3994H3.77348C1.81645 14.3994 0.843793 14.8682 0.281293 16.0869C4.33624e-05 16.6846 4.33576e-05 16.6846 4.33576e-05 21.4775C4.33576e-05 26.9502 -0.0233941 26.8447 1.01957 27.7588C1.69926 28.3564 2.10942 28.4619 3.72661 28.4619H5.03911V28.8838C5.03911 29.5166 5.4727 31.5088 5.81254 32.4697C6.5977 34.6377 7.76958 36.4893 9.42192 38.1299C12.0586 40.7432 15.3282 42.208 19.1368 42.4775C20.9766 42.6064 22.1368 42.0557 22.7579 40.7783L23.0274 40.2158L24.1055 41.2939L25.1719 42.3721L21.6797 48.9814C19.7461 52.6377 18.1172 55.8486 18.0352 56.165C17.6602 57.7002 18.4805 59.4111 19.9454 60.1729C20.5196 60.4775 21.9727 60.5361 22.7227 60.2783C24 59.8564 24.1289 59.6572 27.8907 52.5322L31.3125 46.0752L32.5079 46.4619C33.1641 46.6729 34.2071 46.9541 34.8164 47.0713L35.918 47.2939L35.9766 51.8525C36.0352 56.2471 36.0469 56.4229 36.293 56.8799C37.3477 58.8369 40.2422 59.0479 41.4493 57.2432C41.6602 56.9385 41.8829 56.4932 41.9532 56.2588C42.0235 56.001 42.0704 54.1025 42.0704 51.5479V47.2705L43.1602 47.0713C43.7461 46.9541 44.7891 46.6963 45.4688 46.4736L46.6993 46.0869L50.0977 52.5205C52.418 56.915 53.6368 59.0947 53.9415 59.4229C54.6329 60.1377 55.418 60.4541 56.5079 60.4541C57.293 60.4541 57.4922 60.4072 58.1368 60.0674C58.9571 59.6455 59.6368 58.8721 59.8711 58.1104C59.9415 57.876 60 57.3135 60 56.8682C60 55.8604 60.1875 56.2471 56.0743 48.5127L52.8282 42.3838L54.0469 41.1416C56.168 38.9619 57.4571 37.0166 58.5235 34.333C59.4844 31.9424 60 29.4111 60 27.0322C60 25.0986 59.8008 24.6064 58.5469 23.3643C57.9493 22.7666 57.2579 22.2393 56.6836 21.9111C51.0118 18.7236 39.7266 17.5283 30.2344 19.0986C28.3125 19.415 25.5235 20.1299 24.1758 20.6338L23.086 21.0439V12.1846C23.086 7.30957 23.0508 3.12598 23.0157 2.87988C22.8868 2.16504 22.2774 1.2627 21.6329 0.864258C21.0821 0.524414 20.9883 0.512695 19.6407 0.489258C18.8086 0.477539 17.8477 0.536133 17.3321 0.629883ZM20.625 2.79785C20.7539 2.92676 20.8829 3.14941 20.918 3.29004C20.9532 3.44238 20.9649 11.7275 20.9532 21.7002L20.918 39.8525L20.5782 40.1455C20.2383 40.4268 20.1797 40.4385 19.2305 40.3682C15.9844 40.1104 13.125 38.8096 10.8868 36.5596C8.77739 34.4502 7.48833 31.7783 7.14848 28.8135C6.98442 27.4189 6.99614 15.3135 7.1602 13.9893C7.81645 8.63379 11.6836 4.22754 16.8633 2.92676C18 2.63379 18.2461 2.59863 19.4297 2.5752C20.25 2.56348 20.4258 2.59863 20.625 2.79785ZM4.92192 21.4307V26.3525H3.7852C2.77739 26.3525 2.62504 26.3174 2.37895 26.0947L2.10942 25.8486V21.4658V17.083L2.40239 16.8018C2.6602 16.5322 2.77739 16.5088 3.80864 16.5088H4.92192V21.4307ZM41.2735 26.3994C41.5782 29.6221 41.8008 32.2822 41.7774 32.3057C41.6954 32.3877 36.3282 32.376 36.2461 32.2939C36.211 32.2471 36.4219 29.6689 36.7266 26.5635C37.0196 23.4463 37.2657 20.8096 37.2657 20.6924C37.2657 20.5049 37.4063 20.4932 38.9883 20.5166L40.711 20.5518L41.2735 26.3994ZM35.1211 21.1025C35.086 21.3838 34.8282 23.9854 34.5586 26.9033L34.0547 32.1885L33.7032 32.1416C32.1094 31.9541 31.1954 31.8252 30.2813 31.6611L29.2266 31.4736L30.6446 26.2939C31.418 23.4346 32.086 21.0674 32.1329 21.0205C32.1797 20.9736 32.836 20.8682 33.5977 20.7861C34.3594 20.7041 35.0274 20.6338 35.086 20.6221C35.1446 20.6221 35.1563 20.833 35.1211 21.1025ZM44.8125 20.8447C45.3868 20.9033 45.8672 20.9736 45.8907 20.9854C45.9493 21.0557 48.75 31.4268 48.7149 31.4619C48.5977 31.5791 43.9454 32.2471 43.9454 32.1416C43.9454 32.1299 43.711 29.6455 43.418 26.6338C43.125 23.6104 42.8907 21.0205 42.8907 20.8799C42.8907 20.6104 42.7149 20.6104 44.8125 20.8447ZM29.7188 21.5127C29.6836 21.6299 29.0977 23.7744 28.418 26.2939C27.7383 28.8018 27.1641 30.8994 27.1524 30.9463C27.1172 31.0518 24.9727 30.3252 23.9414 29.8682L23.086 29.4814V26.4463V23.4111L23.8243 23.0713C25.1133 22.4971 26.7305 22.0049 29.3555 21.3955C29.7657 21.3018 29.7774 21.3135 29.7188 21.5127ZM49.9688 21.7119L50.8946 21.958L52.5821 25.8721C53.5079 28.0166 54.2461 29.7979 54.2344 29.8096C54.211 29.833 53.8008 30.0088 53.3204 30.1963C52.1016 30.6768 50.9883 30.9814 50.8711 30.8525C50.7774 30.7471 48.2813 21.6885 48.2813 21.4424C48.2813 21.3018 48.5977 21.3486 49.9688 21.7119ZM55.2305 23.5635C56.2149 24.0791 57.4336 25.1104 57.7266 25.6611C57.9493 26.0947 57.9375 26.751 57.7032 27.2432C57.4454 27.7939 56.2383 28.8838 56.1211 28.6729C55.9922 28.415 53.6719 22.9775 53.6719 22.9072C53.6719 22.8018 54.211 23.0361 55.2305 23.5635ZM57.2344 31.4971C56.4375 34.4033 54.9141 37.1104 52.8633 39.2666C52.3243 39.8291 51.8555 40.2979 51.8086 40.2861C51.7735 40.2861 51.5508 40.04 51.3165 39.7354C51.0821 39.4189 50.6368 39.0322 50.2618 38.833C49.6875 38.5166 49.5235 38.4814 48.5743 38.4814C47.6954 38.4814 47.4258 38.5283 46.9922 38.7627C46.2774 39.1377 45.7383 39.6533 45.375 40.3564C45.1055 40.8604 45.0586 41.0947 45.0586 41.9385C45.0586 42.7939 45.1055 43.0283 45.375 43.5322L45.6797 44.1416L45.3985 44.2705C44.8711 44.5049 42.4922 45.0908 41.4844 45.2197C38.7305 45.5947 35.0625 45.208 32.6368 44.2822L32.3321 44.165L32.5547 43.7314C33.5157 41.833 32.8594 39.6885 31.0313 38.7861C29.7188 38.1299 28.1719 38.3408 27.0821 39.3135C26.7539 39.6064 26.461 39.9463 26.4258 40.0635C26.3789 40.1924 26.2852 40.2979 26.1914 40.2979C25.9922 40.2979 24.6797 38.8447 23.7657 37.626L23.086 36.7236V34.3096V31.8955L24.75 32.458C28.8399 33.8291 33.4571 34.4736 39.0821 34.4619C43.1602 34.4619 45.8907 34.1924 49.6758 33.4307C52.6407 32.833 55.1602 31.9189 56.8946 30.8291C57.2227 30.6299 57.4922 30.4541 57.504 30.4541C57.5157 30.4541 57.3985 30.9229 57.2344 31.4971ZM30.1172 40.708C30.5391 40.9307 30.8204 41.4346 30.8204 41.9854C30.8204 42.3135 29.8829 44.165 26.7774 50.0479C24.5508 54.2549 22.5938 57.8291 22.4414 57.9814C22.2539 58.1689 21.9961 58.2744 21.5977 58.3096C21.1055 58.3564 20.9766 58.3213 20.6602 58.0635C20.2383 57.7119 19.9805 57.0674 20.0977 56.6807C20.2383 56.2236 28.1485 41.3057 28.4063 41.0127C28.8516 40.5205 29.5196 40.3916 30.1172 40.708ZM49.2071 40.6963C49.3829 40.79 49.6172 40.9893 49.711 41.1416C49.8047 41.2939 51.6915 44.8096 53.8829 48.9697C56.8008 54.4775 57.8907 56.6338 57.8907 56.915C57.8907 58.3564 56.004 58.8838 55.2774 57.6533C54.2813 55.9541 47.1914 42.3604 47.1446 42.0557C47.1094 41.751 47.1563 41.54 47.3672 41.2354C47.8243 40.5557 48.5274 40.3564 49.2071 40.6963ZM39.961 51.5127C39.961 54.8174 39.9258 55.6025 39.7852 55.8721C39.5039 56.4346 38.836 56.5283 38.3789 56.0596L38.086 55.7783V51.6299V47.4814H39.0235H39.961V51.5127Z" fill="#2A396D"/>
<path d="M17.25 4.73144C15.3985 5.24707 13.8399 6.10254 12.457 7.41504C10.2891 9.4541 9.05861 12.1494 8.9883 14.9619C8.96486 15.8994 8.97658 15.958 9.29298 16.2275C9.72658 16.6025 10.3477 16.6025 10.711 16.2275C10.9453 16.0049 11.0039 15.7822 11.0742 15.0322C11.2852 12.5479 12.2227 10.5674 13.9922 8.92676C15.0938 7.88379 16.4414 7.15723 17.9297 6.78223C18.6797 6.58301 18.9844 6.2666 18.9844 5.66894C18.9844 4.79004 18.3281 4.43848 17.25 4.73144Z" fill="#2A396D"/>
<path d="M32.25 0.723633C32.1094 0.875977 31.9922 1.12207 31.9922 1.27441C31.9922 1.46191 31.7461 1.79004 31.2305 2.28223C30.3047 3.17285 30.0117 3.77051 30 4.71973C30 5.65723 30.3164 6.29004 31.1836 7.04004C31.7109 7.49707 31.875 7.71973 31.875 7.9541C31.875 8.18848 31.7109 8.41113 31.1836 8.86816C30.3164 9.61816 30 10.251 30 11.1885C30.0117 12.1377 30.3047 12.7354 31.2305 13.626C31.7695 14.1416 31.9922 14.4463 31.9922 14.6455C31.9922 15.0908 32.4492 15.4541 33 15.4541C34.4766 15.4541 34.3242 13.3682 32.7539 12.0205C31.8984 11.2822 31.9102 11.083 32.8008 10.3096C33.668 9.55957 34.0195 8.86816 34.0195 7.9541C34.0195 7.04004 33.668 6.33691 32.8008 5.58691C31.9102 4.81348 31.9102 4.62598 32.7539 3.8877C34.3359 2.52832 34.4766 0.454102 32.9883 0.454102C32.6367 0.454102 32.4375 0.524414 32.25 0.723633Z" fill="#2A396D"/>
<path d="M38.2149 0.758789C38.0742 0.93457 37.9688 1.2041 37.9688 1.35645C37.9688 1.6377 37.8985 1.71973 36.9375 2.58691C36.3164 3.16113 36.082 3.61816 36.0117 4.46191C35.918 5.48145 36.1875 6.09082 37.1602 7.02832C37.6055 7.46191 37.9688 7.87207 37.9688 7.9541C37.9688 8.03613 37.6055 8.44629 37.1602 8.87988C36.1875 9.81738 35.918 10.4268 36.0117 11.4463C36.082 12.29 36.293 12.7119 36.9258 13.2979C37.207 13.5557 37.5469 13.8721 37.6992 14.0127C37.8516 14.1533 37.9688 14.4111 37.9688 14.5752C37.9688 15.0439 38.4492 15.4541 39.0235 15.4541C39.8555 15.4541 40.2188 14.833 39.961 13.8369C39.7735 13.0752 39.4805 12.6416 38.7305 11.9971C37.875 11.2705 37.8867 11.0947 38.836 10.2627C40.4883 8.79785 40.4766 7.0752 38.7891 5.59863C38.332 5.18848 38.086 4.88379 38.086 4.70801C38.086 4.54395 38.3203 4.25098 38.7891 3.84082C39.7969 2.97363 40.2774 1.80176 39.961 1.02832C39.7735 0.594727 39.5274 0.454102 38.918 0.454102C38.5547 0.454102 38.4024 0.524414 38.2149 0.758789Z" fill="#2A396D"/>
<path d="M44.2384 0.747131C44.0743 0.899475 43.9454 1.16901 43.9454 1.34479C43.9454 1.57916 43.7579 1.83698 43.1954 2.3526C42.2345 3.24323 41.8946 3.95807 41.9884 4.93073C42.0704 5.79791 42.4337 6.44244 43.2891 7.16901C43.6524 7.48541 43.9454 7.83698 43.9454 7.95416C43.9454 8.07135 43.6524 8.42291 43.2891 8.73932C42.4337 9.46588 42.0704 10.1104 41.9884 10.9776C41.8946 11.9503 42.2345 12.6651 43.1954 13.5557C43.7579 14.0713 43.9454 14.3292 43.9454 14.5635C43.9454 15.3839 45.1641 15.7706 45.7852 15.1495C46.0548 14.8799 46.0782 14.7862 46.0196 14.212C45.9376 13.3799 45.5391 12.712 44.7188 12.0089C44.3204 11.669 44.0626 11.3526 44.0626 11.212C44.0626 11.0714 44.3555 10.7081 44.7774 10.3214C45.1759 9.95807 45.5977 9.45416 45.7266 9.20807C46.3829 7.91901 45.9727 6.44244 44.6954 5.49323C43.8751 4.87213 43.8868 4.66119 44.7891 3.80573C45.6798 2.97369 45.9376 2.5401 46.0196 1.68463C46.0782 1.12213 46.0548 1.02838 45.7852 0.75885C45.3634 0.336975 44.6368 0.336975 44.2384 0.747131Z" fill="#2A396D"/>
</g>
<defs>
<clipPath id="clip0_7281_245632">
<rect width="60" height="60" fill="white" transform="translate(0 0.454102)"/>
</clipPath>
</defs>
</svg>
