<svg width="25" height="25" viewBox="0 0 25 25" fill="none" xmlns="http://www.w3.org/2000/svg">
<g clip-path="url(#clip0_1081_56261)">
<path d="M14.6777 9.33203V22.8754H25.0001V9.33203H14.6777ZM24.15 16.4548C24.15 16.7999 23.9896 16.9533 23.6358 16.9561C23.1151 16.9597 22.5937 16.9597 22.0723 16.9554C21.7213 16.9533 21.5646 16.7977 21.5631 16.4498C21.5602 15.6282 21.5624 14.8065 21.5624 13.9841C21.5624 13.171 21.561 12.3578 21.5631 11.5453C21.5638 11.1656 21.7156 11.0192 22.1039 11.0178C22.6167 11.0157 23.1288 11.0143 23.6415 11.0178C23.9925 11.0206 24.15 11.1755 24.1507 11.5234C24.1529 13.1674 24.1529 14.8115 24.15 16.4548Z" fill="#4C40ED"/>
<path d="M0.00634766 12.7256V24.5726H13.7807V12.7256H0.00634766ZM6.89102 23.7452C4.03877 23.7452 1.71295 21.4577 1.71295 18.654C1.71367 15.8489 4.03805 13.5628 6.89102 13.5628C9.74471 13.5628 12.0691 15.8482 12.0691 18.654C12.0691 21.4584 9.74327 23.7452 6.89102 23.7452Z" fill="#4C40ED"/>
<path d="M24.9958 1.70312V8.46101H14.6584C14.6584 8.07493 14.6598 7.69803 14.6577 7.32114C14.6562 6.92162 14.511 6.77666 14.1089 6.77525C13.7249 6.77313 13.3409 6.77454 12.9453 6.77454V1.70312H24.9958Z" fill="#4C40ED"/>
<path d="M0 7.63574V11.8466H13.7737V7.63574H0ZM7.75344 10.5038C7.75056 10.8637 7.59522 11.015 7.22341 11.0157C6.24317 11.0179 5.26365 11.0165 4.28413 11.0165C3.33122 11.0165 2.37832 11.0172 1.42541 11.0165C0.988148 11.0157 0.850785 10.8779 0.850066 10.4416C0.849347 9.95578 0.847909 9.46929 0.850785 8.9835C0.852943 8.62287 1.00829 8.47155 1.38082 8.47155C3.33122 8.47014 5.28163 8.47014 7.23204 8.47155C7.59881 8.47226 7.75128 8.62641 7.75344 8.99199C7.75631 9.49616 7.75631 9.99962 7.75344 10.5038ZM12.9099 11.0115H9.06953V10.1856H12.9099V11.0115ZM12.9193 9.30594H9.07025V8.48852H12.9193V9.30594Z" fill="#4C40ED"/>
<path d="M0.871582 2.5498V6.76067H6.87886V2.5498H0.871582ZM1.99925 5.75798C1.82449 5.58332 1.63319 5.39169 1.45483 5.21421C2.01867 4.65983 2.5825 4.10687 3.14058 3.55815C3.33332 3.73563 3.52822 3.91524 3.70729 4.08C3.13339 4.64357 2.57028 5.19724 1.99925 5.75798ZM4.57534 5.74172C4.39842 5.57413 4.21144 5.39664 4.04746 5.24037C4.62137 4.6768 5.1888 4.11889 5.76557 3.55178C5.92307 3.71725 6.10646 3.90958 6.269 4.08C5.7102 4.62801 5.14205 5.18522 4.57534 5.74172Z" fill="#4C40ED"/>
<path d="M24.992 0H12.9443V0.816009H24.992V0Z" fill="#4C40ED"/>
<path d="M7.77588 2.55078V6.76023H10.3318V2.55078H7.77588ZM9.46019 5.90886H8.63242V5.09003H9.46019V5.90886ZM9.46882 4.21462H8.63889V3.39932H9.46882V4.21462Z" fill="#4C40ED"/>
<path d="M24.5618 23.3262H22.8789V24.9999H24.5618V23.3262Z" fill="#4C40ED"/>
<path d="M23.2713 11.8857V16.0924H22.4399C22.4349 16.0492 22.427 16.016 22.427 15.9828C22.4263 14.6237 22.4263 13.2646 22.4263 11.8857H23.2713Z" fill="#4C40ED"/>
<path d="M6.89916 14.4111C4.52516 14.4083 2.5841 16.3034 2.57619 18.6319C2.569 20.9788 4.50143 22.893 6.88262 22.8965C9.25518 22.8993 11.1977 21.0021 11.2063 18.675C11.2142 16.3281 9.28035 14.414 6.89916 14.4111ZM6.9006 22.048C4.99262 22.0515 3.43561 20.5199 3.4392 18.6432C3.4428 16.7807 4.99838 15.2583 6.89556 15.2597C8.79131 15.2611 10.3426 16.787 10.3433 18.651C10.3433 20.5171 8.79563 22.0444 6.9006 22.048Z" fill="#4C40ED"/>
<path d="M6.87913 9.33789H1.73486V10.1546H6.87913V9.33789Z" fill="#4C40ED"/>
<path d="M9.36152 19.4202C9.02782 20.4689 8.00875 21.2021 6.8818 21.1986C5.81814 21.1958 4.84725 20.5325 4.47041 19.5517C4.33304 19.1932 4.38339 19.073 4.79403 18.7817C5.03208 18.6127 5.33414 18.6198 5.56571 18.8086C5.66855 18.8927 5.75845 18.9931 5.85626 19.0836C6.46108 19.6415 7.31043 19.6437 7.92029 19.09C7.94043 19.0723 7.96129 19.0546 7.97855 19.0341C8.3705 18.566 8.78187 18.4988 9.27882 19.0469C9.39317 19.1727 9.40755 19.2738 9.36152 19.4202Z" fill="#4C40ED"/>
<path d="M9.36744 17.9795C9.19412 17.9336 9.03087 17.877 8.86258 17.848C8.32464 17.7547 7.87731 17.9272 7.49615 18.3055C7.03372 18.7651 6.7518 18.7666 6.29656 18.314C5.75502 17.7759 5.13509 17.6967 4.42383 17.9972C4.58277 17.0172 5.66513 16.1538 6.76259 16.1113C7.98519 16.0647 9.09488 16.8545 9.36744 17.9795Z" fill="#4C40ED"/>
</g>
<defs>
<clipPath id="clip0_1081_56261">
<rect width="25" height="25" fill="white"/>
</clipPath>
</defs>
</svg>
