<svg width="56" height="61" viewBox="0 0 56 61" fill="none" xmlns="http://www.w3.org/2000/svg">
<path d="M9.25 0.747204C9.03906 0.96986 8.95703 1.21595 8.92188 1.73158L8.875 2.4347L6.33203 2.46986C3.91797 2.50502 3.77734 2.51674 3.21484 2.79799C2.42969 3.1847 1.67969 3.95814 1.30469 4.76674L0.988281 5.4347V21.9581V38.4816L1.29297 39.1378C1.67969 39.9464 2.35938 40.6495 3.17969 41.0831C3.78906 41.3995 3.85938 41.4113 6.01562 41.4464L8.21875 41.4933L8.14844 41.798C8.11328 41.9738 8.04297 42.5245 7.99609 43.0167C7.86719 44.7277 8.40625 46.3214 9.53125 47.5285L10.1523 48.1964L9.26172 48.7472C8.24219 49.38 7.09375 50.4699 6.47266 51.4191C5.33594 53.13 4.86719 55.0167 4.9375 57.5949C4.97266 59.0245 4.99609 59.1535 5.28906 59.5988C5.91016 60.5363 3.82422 60.4542 28 60.4542C52.1758 60.4542 50.0898 60.5363 50.7109 59.5988C51.0273 59.13 51.0273 59.0831 51.0273 57.1847C51.0273 54.841 50.8398 53.8917 50.0898 52.3917C49.2695 50.7628 48.0977 49.5206 46.5156 48.5949L45.8477 48.2081L46.4688 47.5285C47.793 46.0988 48.3555 43.9191 47.8867 42.091L47.7227 41.4816L49.9609 41.4464C52.1523 41.4113 52.2109 41.3995 52.8203 41.0831C53.6406 40.6495 54.3203 39.9464 54.707 39.1378L55.0117 38.4816V21.9581V5.4347L54.6953 4.76674C54.3203 3.95814 53.5703 3.1847 52.7852 2.79799C52.2227 2.51674 52.082 2.50502 49.668 2.46986L47.125 2.4347L47.0781 1.73158C47.0078 0.829235 46.6914 0.454235 45.9883 0.454235C45.2617 0.454235 44.9922 0.794079 44.9922 1.71986V2.44642H41.5352H38.0781V1.86049C38.0781 1.21595 37.8438 0.641735 37.5508 0.524548C37.4453 0.489391 37.1523 0.454235 36.9062 0.454235C36.25 0.454235 35.9688 0.852673 35.9688 1.75502V2.44642H32.5117H29.0547V1.7433C29.0547 0.829235 28.7383 0.454235 28 0.454235C27.2617 0.454235 26.9453 0.829235 26.9453 1.7433V2.44642H23.4883H20.0312V1.75502C20.0312 0.852673 19.75 0.454235 19.0938 0.454235C18.8477 0.454235 18.5547 0.489391 18.4492 0.524548C18.1562 0.641735 17.9219 1.21595 17.9219 1.86049V2.44642H14.4648H11.0078V1.70814C11.0078 1.08705 10.9609 0.922985 10.7383 0.712048C10.3398 0.337048 9.61328 0.360485 9.25 0.747204ZM8.89844 5.01283C8.89844 6.33705 9.89453 6.96986 10.75 6.17299C10.9609 5.96205 11.0078 5.79799 11.0078 5.23549V4.5558H14.4648H17.9219V5.07142C17.9219 5.79799 18.0859 6.14955 18.5195 6.3722C18.9531 6.59486 19.3867 6.52455 19.7734 6.17299C19.9844 5.96205 20.0312 5.79799 20.0312 5.23549V4.5558H23.4883H26.9453V5.18861C26.9453 6.06752 27.2852 6.48939 28 6.48939C28.7148 6.48939 29.0547 6.06752 29.0547 5.18861V4.5558H32.5117H35.9688V5.23549C35.9688 5.79799 36.0156 5.96205 36.2383 6.17299C36.6133 6.52455 37.0469 6.59486 37.4805 6.3722C37.9141 6.14955 38.0781 5.79799 38.0781 5.07142V4.5558H41.5352H44.9922V5.23549C44.9922 6.00892 45.2148 6.36049 45.8008 6.48939C46.5508 6.65345 47.1016 6.03236 47.1016 5.01283V4.5558H49.2812C51.7773 4.5558 52.0703 4.63783 52.5859 5.41127C52.8672 5.83314 52.9023 6.00892 52.9375 7.15736L52.9844 8.42299H28H3.01562L3.0625 7.15736C3.09766 6.00892 3.13281 5.83314 3.40234 5.41127C3.92969 4.62611 4.19922 4.5558 6.70703 4.5558H8.89844V5.01283ZM52.9609 24.1613V37.8019L52.6914 38.3175C52.5156 38.6339 52.2461 38.9269 51.9531 39.091C51.5195 39.3488 51.3672 39.3605 48.9883 39.3605H46.4805L45.9648 38.88C45.2617 38.2355 43.9609 37.6378 42.8945 37.4738C41.207 37.216 39.2266 37.7902 38.043 38.88L37.5273 39.3605H35.8164H34.1055L34.0352 38.9152C33.8008 37.298 33.2734 36.173 32.2891 35.1886C29.9219 32.8214 26.0781 32.8214 23.7109 35.1886C22.7266 36.173 22.1992 37.298 21.9648 38.9152L21.8945 39.3605H20.1836H18.4727L17.957 38.88C17.2539 38.2355 15.9531 37.6378 14.8867 37.4738C13.1992 37.216 11.2188 37.7902 10.0352 38.88L9.51953 39.3605H7.01172C4.63281 39.3605 4.48047 39.3488 4.04688 39.091C3.75391 38.9269 3.48438 38.6339 3.30859 38.3175L3.03906 37.8019V24.1613V10.5324H28H52.9609V24.1613ZM29.582 35.8917C32.6172 37.2745 32.6992 41.4347 29.7344 42.9464C28.8438 43.4035 27.4609 43.4738 26.6406 43.1222C25.3164 42.5363 24.5312 41.6456 24.1914 40.3566C23.3828 37.2745 26.6758 34.5558 29.582 35.8917ZM15.3789 39.7824C16.1406 40.0402 17.125 40.966 17.5352 41.798C17.8164 42.3722 17.8633 42.6066 17.8633 43.462C17.8633 44.3175 17.8164 44.5519 17.5352 45.1144C17.1836 45.8527 16.4453 46.591 15.707 46.9777C13.8203 47.9386 11.418 47.0831 10.457 45.1144C10.1758 44.5519 10.1289 44.3175 10.1289 43.462C10.1289 42.2785 10.3633 41.6574 11.1367 40.8253C12.25 39.6183 13.7852 39.2433 15.3789 39.7824ZM43.6094 39.9113C44.4062 40.2628 45.2383 41.1066 45.6133 41.9152C46.0117 42.7706 45.9766 44.2355 45.543 45.1144C44.3125 47.6339 41.0195 48.1378 39.1445 46.0988C38.3711 45.2667 38.1367 44.6456 38.1367 43.462C38.1367 42.2785 38.3711 41.6574 39.1328 40.837C39.7539 40.1691 40.2109 39.8878 41.0195 39.6535C41.8398 39.4308 42.7305 39.5128 43.6094 39.9113ZM22.668 42.2667C22.9023 42.712 23.3477 43.3331 23.6641 43.6495L24.2383 44.2238L23.4883 44.6105C22.1289 45.3253 20.6523 46.8956 19.8555 48.5011C19.6797 48.8527 19.5156 49.1574 19.5039 49.1808C19.4922 49.1925 19.1992 49.0285 18.8477 48.7941C18.4961 48.5714 18.1211 48.3488 18.0039 48.3136C17.8281 48.255 17.8984 48.1378 18.4375 47.5519C19.1523 46.7902 19.6914 45.7472 19.9141 44.7394C20.0547 44.0949 20.0195 42.5011 19.8438 41.7863L19.7734 41.4699H21.0039H22.2461L22.668 42.2667ZM36.1562 41.7277C35.9805 42.3019 35.9453 44.1417 36.0859 44.7628C36.3203 45.7706 36.8711 46.8019 37.5742 47.5636C37.9258 47.9503 38.1719 48.2667 38.1133 48.2667C38.043 48.2667 37.668 48.4777 37.2578 48.7472C36.8594 49.005 36.5195 49.2042 36.4961 49.1808C36.4844 49.1574 36.3203 48.8527 36.1445 48.5011C35.3828 46.966 34.0352 45.4894 32.6758 44.6925C32.2891 44.4699 31.9141 44.2824 31.8438 44.2824C31.7734 44.2824 31.9844 44.0128 32.3125 43.673C32.6406 43.3449 33.0977 42.712 33.332 42.2667L33.7539 41.4699H34.9961C36.2266 41.4699 36.2266 41.4699 36.1562 41.7277ZM30.0508 45.8644C31.75 46.38 33.2617 47.6456 34.1289 49.2863C34.832 50.6456 34.9141 51.1613 34.9141 54.9699V58.3449H28H21.0859V54.9699C21.0859 51.1613 21.168 50.6456 21.8711 49.2863C23.1602 46.8253 25.7852 45.3605 28.5273 45.548C28.8555 45.5714 29.5352 45.712 30.0508 45.8644ZM15.6602 49.7199C16.5742 49.966 17.5 50.423 18.2734 51.0206L18.9766 51.5597V54.9581V58.3449H12.9883H6.98828L7.05859 56.7863C7.12891 55.0519 7.29297 54.3722 7.9375 53.1417C8.74609 51.5949 10.4922 50.212 12.2383 49.7316C13.0117 49.5206 14.8984 49.5206 15.6602 49.7199ZM44.2773 49.9074C45.3555 50.2941 46.6328 51.1964 47.3125 52.0519C48.4727 53.5167 48.8477 54.5949 48.9414 56.7863L49.0117 58.3449H43.0117H37.0234V54.9581V51.5714L37.7617 51.0089C38.582 50.3878 39.3555 50.0011 40.3047 49.7316C41.2422 49.4738 43.293 49.5675 44.2773 49.9074Z" fill="#2A396D"/>
<path d="M27.4844 13.4741C26.7579 13.6498 26.4415 13.9545 25.1993 15.7358L24.0274 17.4116L22.1876 17.892C20.1016 18.4428 19.586 18.7123 19.2227 19.4623C18.9297 20.0834 18.8946 21.0561 19.1524 21.5834C19.2579 21.7944 19.8438 22.5678 20.4649 23.3061L21.5899 24.6537L21.5079 26.7045C21.4141 28.9428 21.461 29.2241 22.0001 29.7866C22.8438 30.6772 23.5821 30.6889 26.0079 29.81C26.9922 29.4584 27.8946 29.1655 28.0118 29.1655C28.129 29.1655 29.0313 29.4584 30.004 29.81C32.4063 30.6889 33.1563 30.6772 34.0001 29.7866C34.5391 29.2241 34.586 28.9428 34.4922 26.6928L34.4102 24.6186L35.5001 23.353C36.8829 21.7123 37.0587 21.3725 37.0001 20.435C36.9532 19.6147 36.6485 19.0639 36.0391 18.642C35.8282 18.5014 34.8321 18.1616 33.8126 17.892L31.961 17.3998L30.8008 15.7358C30.168 14.81 29.5001 13.9545 29.3243 13.8256C28.8672 13.4623 28.1524 13.3217 27.4844 13.4741ZM29.2891 17.3412C29.9688 18.3139 30.6016 19.1576 30.7188 19.2162C30.8243 19.2748 31.6212 19.5092 32.4766 19.7319C33.3321 19.9662 34.2344 20.2006 34.4805 20.2709C34.7149 20.3295 34.9141 20.4467 34.9141 20.5287C34.9141 20.6108 34.3399 21.3725 33.6368 22.2162C32.9337 23.0717 32.3243 23.8569 32.3008 23.9741C32.2657 24.0912 32.2774 25.1108 32.3243 26.2358C32.3712 27.3608 32.3946 28.31 32.3712 28.3334C32.3594 28.3569 31.4454 28.0522 30.3438 27.6537C29.2305 27.267 28.1876 26.9389 28.0001 26.9389C27.8126 26.9389 26.7696 27.267 25.6563 27.6537C24.5547 28.0522 23.629 28.3451 23.5938 28.3217C23.5704 28.2866 23.5938 27.3256 23.6524 26.1772C23.711 25.0287 23.7344 24.0209 23.6993 23.9155C23.6524 23.8217 23.0547 23.0483 22.3516 22.2045C21.6602 21.3608 21.086 20.6108 21.086 20.5287C21.086 20.4467 21.3087 20.3295 21.5899 20.2592C25.8087 19.1576 25.211 19.4858 26.6758 17.3764C27.3555 16.3803 27.9532 15.5717 28.0001 15.5717C28.0352 15.5717 28.6212 16.3686 29.2891 17.3412Z" fill="#2A396D"/>
</svg>
