<svg width="60" height="60" viewBox="0 0 60 60" fill="none" xmlns="http://www.w3.org/2000/svg">
<g clip-path="url(#clip0_7281_245524)">
<path d="M53.543 0.164062C50.9883 0.621094 48.5977 1.64062 46.5 3.1875C45.9141 3.60938 43.6875 5.71875 40.957 8.4375L36.3867 12.9844L34.8633 12.832C34.0313 12.7383 33.2344 12.668 33.1055 12.668C32.8828 12.6562 32.8711 12.5977 32.9063 11.8008C32.9883 10.1484 32.1211 8.76562 30.6328 8.20312C29.7305 7.86328 28.4531 7.91016 27.6563 8.32031C27.3633 8.46094 26.4023 9.29297 25.4883 10.1836L23.8477 11.7891L22.0781 11.625L20.3086 11.4609L20.4141 10.875C20.6367 9.67969 20.0039 8.15625 18.9727 7.41797C18.2695 6.92578 17.168 6.63281 16.3711 6.73828C15.293 6.89062 14.8008 7.21875 13.043 8.95312L11.3672 10.582L9.29297 10.3945C8.14453 10.2773 6.91406 10.1953 6.5625 10.1953H5.91797L3.02344 13.1016L0.117188 15.9961V16.5469C0.117188 16.957 0.1875 17.168 0.386719 17.3906C0.527344 17.543 2.22656 18.5039 4.17188 19.5C8.08594 21.5391 8.29688 21.5977 8.91797 20.9883C9.1875 20.707 9.25781 20.543 9.25781 20.1328C9.25781 19.8398 9.17578 19.5234 9.04688 19.3711C8.94141 19.2422 7.66406 18.5039 6.21094 17.7539C4.75781 17.0039 3.53906 16.3477 3.49219 16.3008C3.44531 16.2539 4.20703 15.4219 5.19141 14.4375L6.98438 12.6445L20.4961 13.9336C27.9375 14.6484 34.0313 15.2461 34.0547 15.2695C34.0781 15.2812 31.582 17.8125 28.5 20.8945L22.9102 26.4727L19.9219 24.9023C18.2813 24.0352 16.793 23.2969 16.6289 23.2617C16.125 23.1445 15.4922 23.4844 15.2813 23.9766C15.0586 24.5039 15.1523 24.9609 15.5625 25.3359C15.7383 25.5 17.0508 26.2383 18.4688 26.9648L21.0586 28.3008L19.418 30C17.6602 31.8281 16.207 33.5742 15.1758 35.0977L14.5313 36.0586L11.6367 36.1289C10.0313 36.1758 7.78125 36.2109 6.62109 36.2109C5.46094 36.2109 4.32422 36.2695 4.10156 36.3281C3.79688 36.4102 3.24609 36.8789 2.07422 38.0625C0.527344 39.6211 0.46875 39.7031 0.46875 40.1719C0.46875 41.1211 0.5625 41.168 5.87109 42.9492L10.6172 44.543L10.1719 46.3125C9.92578 47.2852 9.69141 48.457 9.64453 48.9375C9.57422 49.7812 9.58594 49.793 9.94922 50.168C10.3242 50.5312 10.3359 50.543 11.168 50.4727C11.6367 50.4258 12.8086 50.1914 13.793 49.957L15.5742 49.5117L17.168 54.2578C18.9492 59.5547 18.9961 59.6484 19.9453 59.6484C20.4141 59.6484 20.4961 59.5898 22.0547 58.043C23.2383 56.8711 23.707 56.3203 23.7891 56.0156C23.8477 55.793 23.9063 54.5742 23.9063 53.3203C23.9063 52.0664 23.9414 49.8047 23.9883 48.3047L24.0586 45.5742L25.043 44.918C26.5898 43.875 28.2891 42.4688 30.1172 40.6992L31.8047 39.0586L37.125 49.2656C40.043 54.8789 42.5742 59.5898 42.7266 59.7305C42.9492 59.9297 43.1602 60 43.5703 60H44.1211L47.0156 57.0938L49.9219 54.1992V53.5547C49.9219 53.2031 49.8398 51.9727 49.7227 50.8242L49.5352 48.75L51.1641 47.0742C52.875 45.3398 53.1211 44.9766 53.3438 43.8867C53.5078 43.0312 53.25 41.918 52.6992 41.1445C51.9609 40.1133 50.4492 39.4805 49.2422 39.7031L48.6563 39.8086L48.4922 38.0391L48.3281 36.2695L49.9336 34.6289C50.8242 33.7148 51.6563 32.7539 51.7969 32.4609C52.207 31.6641 52.2539 30.3867 51.9141 29.4844C51.3516 27.9961 49.9688 27.1289 48.3164 27.2109C47.6133 27.2461 47.4609 27.2227 47.4609 27.0703C47.4609 26.9766 47.3789 26.1797 47.2969 25.3125L47.1328 23.7305L51.7734 19.043C54.8555 15.9375 56.6602 14.0273 57.1055 13.3945C57.9609 12.1875 58.9102 10.3242 59.332 9.02344C59.918 7.19531 60 6.57422 60 3.77344C60 0 60.082 0.09375 56.6602 0.046875C55.1953 0.0234375 54.1289 0.0585938 53.543 0.164062ZM57.0938 2.46094H57.6797L57.6328 4.30078C57.5859 5.8125 57.5156 6.36328 57.2578 7.32422C56.8828 8.70703 56.0391 10.5469 55.1836 11.8008C54.3398 13.043 27.6563 39.7617 25.7227 41.2969C21.9844 44.2734 18.0938 46.2422 13.582 47.4492L12.3281 47.7891L12.6094 46.7227C13.8398 42.0938 15.8086 38.168 18.8203 34.3945C20.3555 32.4492 47.0742 5.76562 48.3164 4.93359C49.5938 4.06641 51.4688 3.21094 52.8164 2.85938C53.8828 2.58984 55.9922 2.32031 56.3438 2.41406C56.4375 2.4375 56.7656 2.46094 57.0938 2.46094ZM17.2031 9.26953C17.8477 9.49219 18.1641 10.2188 17.8711 10.8164L17.6953 11.2031L16.2539 11.0508C15.4688 10.9805 14.7773 10.9102 14.707 10.9102C14.5195 10.8984 15.9727 9.48047 16.3477 9.30469C16.7813 9.11719 16.7578 9.11719 17.2031 9.26953ZM29.8711 10.5938C30.1992 10.7695 30.4688 11.2148 30.4688 11.6016C30.4688 11.9883 30.2109 12.4336 30.0117 12.375C29.9063 12.3398 29.2969 12.2812 28.6523 12.2344C28.0078 12.1992 27.4102 12.1289 27.3281 12.082C27.2227 12.0234 27.4336 11.7539 27.9961 11.2148C28.875 10.3711 29.2031 10.2539 29.8711 10.5938ZM46.1719 39.6094L47.4727 53.1328L45.6797 54.9258C44.6953 55.9102 43.8633 56.6719 43.8164 56.625C43.7695 56.5781 41.4609 52.1953 38.6836 46.875L33.6445 37.207L39.2344 31.6172C42.3047 28.5352 44.8242 26.0391 44.8477 26.0625C44.8711 26.0742 45.4688 32.1797 46.1719 39.6094ZM49.0898 29.8125C49.4531 30.0117 49.6875 30.4453 49.6875 30.9492C49.6875 31.2422 49.5234 31.4883 48.9023 32.1211C48.375 32.6719 48.0938 32.8945 48.0352 32.7891C48 32.707 47.918 32.1328 47.8828 31.5234C47.8359 30.9141 47.7656 30.3047 47.7422 30.1641C47.6367 29.7188 48.4805 29.4961 49.0898 29.8125ZM13.0078 38.6016C13.0078 38.625 12.7969 39.1172 12.5273 39.6914C12.2695 40.2539 11.918 41.0508 11.7539 41.4609C11.5898 41.8711 11.3906 42.1758 11.3203 42.1523C11.25 42.1289 9.5625 41.5664 7.58203 40.8984L3.97266 39.6914L4.46484 39.1875L4.96875 38.6719L7.72266 38.6367C9.24609 38.625 11.0508 38.6016 11.7539 38.5781C12.4453 38.5664 13.0078 38.5781 13.0078 38.6016ZM50.2266 42.2461C50.7656 42.4688 51.0469 43.0898 50.8594 43.6406C50.8008 43.8398 50.4023 44.3438 49.9922 44.7539L49.2422 45.5039L49.1484 44.8125C49.1016 44.4375 49.0664 43.7344 49.0547 43.2539C49.043 42.4336 49.0664 42.3633 49.3359 42.2227C49.7109 42.0352 49.7227 42.0352 50.2266 42.2461ZM21.4805 51.1172L21.4219 55.1367L20.9297 55.6406L20.4258 56.1445L19.1719 52.418C18.4922 50.3672 17.9648 48.6797 18.0117 48.668C18.0703 48.6445 18.8438 48.293 19.7461 47.8828C20.6484 47.4727 21.4219 47.1211 21.4688 47.1211C21.5039 47.1094 21.5156 48.9141 21.4805 51.1172Z" fill="#2A396D"/>
<path d="M40.1133 18.4806C39.9727 18.504 39.7266 18.6681 39.5625 18.8322C39.1289 19.2658 39.1289 20.1095 39.5625 20.5548C40.207 21.1994 41.4609 20.8361 41.6367 19.9689C41.8125 19.0314 41.0625 18.3048 40.1133 18.4806Z" fill="#2A396D"/>
<path d="M31.5586 26.7539L26.6016 31.6992V32.2969C26.6016 33.1406 26.9766 33.5156 27.8203 33.5156H28.418L33.3633 28.5586L38.3203 23.6133V23.0391C38.3203 22.582 38.2617 22.418 37.9805 22.1367C37.6992 21.8555 37.5352 21.7969 37.0781 21.7969H36.5039L31.5586 26.7539Z" fill="#2A396D"/>
<path d="M11.4258 21.363C11.1914 21.5505 11.0977 21.7731 11.0508 22.1599C10.9922 22.6403 11.0273 22.7458 11.3438 23.0974C12.2695 24.1286 13.8867 23.0739 13.3594 21.7849C13.0664 21.0934 12 20.8591 11.4258 21.363Z" fill="#2A396D"/>
</g>
<defs>
<clipPath id="clip0_7281_245524">
<rect width="60" height="60" fill="white"/>
</clipPath>
</defs>
</svg>
