<svg width="26" height="20" viewBox="0 0 26 20" fill="none" xmlns="http://www.w3.org/2000/svg">
<path d="M25.991 12.9348C25.9399 12.6679 25.7453 12.5499 25.3537 12.5499H22.8438C22.8438 11.919 22.8445 11.3292 22.8438 10.7387C22.8423 10.0635 22.5499 9.75698 21.9037 9.7562C20.2038 9.75543 18.5039 9.7562 16.8048 9.7562H16.5283V14.8571H15.6137V9.75698C13.7613 9.75698 11.9397 9.7531 10.1181 9.76008C9.64763 9.76164 9.32675 10.1023 9.31998 10.5904C9.31097 11.2299 9.31773 11.8686 9.31773 12.5499H8.97806C8.20853 12.5499 7.43826 12.5507 6.66873 12.5499C6.40947 12.5499 6.22686 12.671 6.17425 12.9325C6.1239 13.1847 6.24715 13.3609 6.47635 13.4563C6.51844 13.4734 6.56052 13.4897 6.61162 13.5107V17.6159C6.61162 18.2359 6.60786 18.8568 6.61312 19.4776C6.61613 19.7904 6.80776 19.9991 7.06777 19.9976C7.32929 19.9952 7.50439 19.7896 7.51266 19.4698C7.51641 19.3395 7.51341 19.2091 7.51341 19.0826H24.6473C24.6473 19.22 24.6443 19.3434 24.6481 19.4667C24.6571 19.7826 24.8345 19.9929 25.093 19.9976C25.3552 20.0022 25.5379 19.7966 25.5484 19.4807C25.5514 19.3837 25.5491 19.2867 25.5491 19.1897V13.5239C25.9053 13.3547 26.0376 13.1762 25.991 12.9348ZM19.3276 11.6187C19.4395 11.6171 19.553 11.614 19.665 11.6202C19.9505 11.635 20.1399 11.8267 20.1362 12.0905C20.1324 12.3528 19.9415 12.5352 19.653 12.5492C19.6086 12.5515 19.565 12.5507 19.5214 12.5499C19.4996 12.5492 19.4771 12.5492 19.4553 12.5492C19.4237 12.5499 19.3929 12.5499 19.3614 12.5499H19.3148C18.9864 12.5414 18.7842 12.3606 18.788 12.0773C18.7917 11.7949 18.9909 11.6249 19.3276 11.6187ZM12.5078 11.6195C12.5521 11.6171 12.5957 11.6179 12.6393 11.6187C12.6611 11.6195 12.6836 11.6195 12.7054 11.6195C12.7378 11.6187 12.7701 11.6179 12.8024 11.6179C12.8264 11.6179 12.8505 11.6187 12.8745 11.6195C13.1804 11.6311 13.3765 11.8174 13.3728 12.0913C13.3683 12.3536 13.1781 12.5367 12.8888 12.5484C12.7573 12.5538 12.6258 12.5546 12.4943 12.5484C12.2095 12.5336 12.0208 12.3412 12.0246 12.0773C12.0291 11.8135 12.2185 11.6334 12.5078 11.6195ZM7.52693 13.4951H9.3027V14.8509C8.72405 14.9642 8.10558 14.7461 7.52693 14.9944V13.4951ZM24.6248 17.6524H7.52693V16.7545H24.6248V17.6524ZM24.6308 15.0612C24.08 14.6996 23.4638 14.9727 22.855 14.8501V13.5006H24.6308V15.0612Z" fill="#4C40ED"/>
<path d="M5.68351 19.377C5.74814 19.661 5.6279 19.9024 5.38366 19.9792C5.14469 20.0545 4.90196 19.9171 4.8193 19.6354C4.67501 19.145 4.54575 18.6491 4.40898 18.1555C4.12868 17.1412 3.84762 16.127 3.56656 15.1119C3.54703 15.0413 3.52373 14.9707 3.45534 14.9039V19.2761C3.45534 19.3537 3.45835 19.4321 3.45384 19.5089C3.43806 19.8046 3.25319 20.0017 2.99994 19.9978C2.74894 19.9932 2.55957 19.7914 2.55656 19.4965C2.54905 18.8276 2.55356 18.1586 2.55356 17.4897C2.55356 16.6275 2.55356 15.7653 2.50621 14.8931C2.33412 15.51 2.16203 16.127 1.99069 16.7439C1.72542 17.7023 1.4639 18.6623 1.19412 19.6199C1.11295 19.9055 0.877739 20.0498 0.640268 19.9846C0.382508 19.914 0.257761 19.6657 0.3284 19.3646C0.339673 19.318 0.350945 19.2707 0.364472 19.2241C0.901035 17.2887 1.4391 15.3533 1.97566 13.4178C2.00873 13.2975 2.03578 13.1757 2.07486 13.0158C1.87872 13.0158 1.70438 13.0096 1.53078 13.0174C1.28805 13.0283 1.18961 12.9118 1.19862 12.6666C1.20839 12.4338 1.20764 12.201 1.19938 11.9682C1.19036 11.7237 1.28805 11.6104 1.53078 11.6166C1.85843 11.6252 2.18608 11.619 2.53402 11.619V7.91107H1.65177V8.46827C1.65177 8.85629 1.65327 9.2443 1.65102 9.63232C1.64952 10.0017 1.48569 10.2159 1.20764 10.2198C0.930343 10.2229 0.75224 10.0017 0.750737 9.64319C0.748483 9.0728 0.749986 8.50164 0.749986 7.89167H0C0.250997 6.17741 0.498988 4.48798 0.747731 2.78613H5.25967C5.50841 4.47634 5.7564 6.16732 6.00965 7.88935H3.47188V11.619C3.8093 11.619 4.13544 11.6275 4.46159 11.6159C4.71709 11.6073 4.82155 11.7199 4.81028 11.9798C4.79976 12.2026 4.79825 12.4268 4.81028 12.6488C4.82531 12.9313 4.69831 13.0352 4.43754 13.0182C4.28048 13.0073 4.12116 13.0158 3.92803 13.0158C4.10087 13.6483 4.26395 14.2513 4.43078 14.8535C4.83282 16.3055 5.23712 17.7566 5.63992 19.2086C5.6557 19.2637 5.67073 19.3204 5.68351 19.377Z" fill="#4C40ED"/>
<path d="M11.1357 0V4.46376C11.2447 4.39081 11.3296 4.33649 11.4115 4.27751C12.2337 3.68229 13.055 3.08629 13.8779 2.49185C14.2627 2.21403 14.4273 2.23809 14.7376 2.61136C15.1705 3.13286 15.6041 3.65358 16.043 4.18051C16.1444 4.10989 16.2308 4.05324 16.315 3.9927C16.9831 3.50846 17.6519 3.02421 18.32 2.53997C18.7897 2.20006 18.9189 2.21558 19.2849 2.65715C19.5043 2.92255 19.7283 3.18485 19.9424 3.45414C19.9913 3.51622 20.0093 3.60469 20.0416 3.68074C20.0679 3.6497 20.0935 3.61943 20.1198 3.58917V0H11.1357ZM16.5389 2.55704C16.1444 2.56092 15.8393 2.25361 15.8371 1.84929C15.834 1.44187 16.1309 1.12836 16.5239 1.1237C16.9162 1.11827 17.222 1.42791 17.2258 1.833C17.2296 2.23964 16.9327 2.55316 16.5389 2.55704Z" fill="#4C40ED"/>
<path d="M20.164 5.55134H15.7295C16.756 4.80867 17.7262 4.10713 18.7099 3.39551C19.1736 3.95425 19.6342 4.48894 20.0663 5.04769C20.1543 5.16177 20.1317 5.36742 20.164 5.55134Z" fill="#4C40ED"/>
<path d="M15.3021 4.72253C14.9323 4.98949 14.5806 5.24635 14.2267 5.49934C14.1823 5.53038 14.1252 5.56065 14.0741 5.56142C13.1483 5.56453 12.2225 5.56375 11.2778 5.51021C12.2473 4.80867 13.2167 4.10713 14.2011 3.39551C14.5716 3.8425 14.9308 4.27553 15.3021 4.72253Z" fill="#4C40ED"/>
<path d="M12.8022 11.6182C12.7699 11.6182 12.7376 11.6189 12.7053 11.6197C12.6835 11.6197 12.661 11.6197 12.6392 11.6189H12.7053C12.7376 11.6189 12.7699 11.6182 12.8022 11.6182Z" fill="white"/>
<path d="M19.5214 12.5496H19.3613C19.3929 12.5496 19.4237 12.5496 19.4553 12.5488C19.4771 12.5488 19.4996 12.5488 19.5214 12.5496Z" fill="white"/>
</svg>
