<svg width="64" height="63" viewBox="0 0 64 63" fill="none" xmlns="http://www.w3.org/2000/svg">
<path d="M52.2926 0.0636063C53.6059 0.29464 54.7975 1.14582 55.4784 2.34962C55.7824 2.89681 55.8797 2.99409 56.0986 2.93329C57.8861 2.42258 60.0262 3.10352 61.1084 4.5262C61.7772 5.41386 62.0325 6.27719 61.9839 7.5418C61.9352 8.85505 61.5826 9.71838 60.7071 10.5817C60.0383 11.2627 59.6371 11.4572 56.889 12.5273L54.7367 13.3541L55.7946 14.2296C57.2416 15.4456 58.7494 17.1844 59.8681 18.9354C61.23 21.0877 62.4095 24.1884 62.8594 26.8757C63.1026 28.274 63.1269 28.7483 63.0661 30.9492C63.0174 32.8461 62.9445 33.7216 62.7499 34.6336C60.926 43.0602 54.5057 49.5048 46.1763 51.2558C44.8144 51.5477 42.0055 51.7908 41.1422 51.7057C40.522 51.6449 40.5099 51.6449 40.2667 52.0827C39.8411 52.8366 38.6008 54.4538 37.6888 55.4266C31.4023 62.163 21.2368 64.0478 12.8588 60.0351C7.47206 57.4451 3.22834 52.4353 1.63542 46.7689C0.96664 44.3978 0.905842 43.8384 0.905842 40.7377C0.918003 38.172 0.942322 37.6613 1.18552 36.5548C2.00021 32.8096 3.69041 29.4414 6.1953 26.596C7.11943 25.5381 8.88259 23.9574 9.79456 23.3737C10.0256 23.2278 10.208 23.0819 10.208 23.0454C10.208 23.0089 9.2109 22.5468 8.00709 22.0118C6.79112 21.4768 5.53868 20.8688 5.22253 20.6499C4.49295 20.1635 3.70257 19.0084 3.50801 18.1329C3.28914 17.1115 3.41074 15.6645 3.812 14.8619C4.82125 12.7826 7.41127 11.7977 9.62432 12.6489C9.75808 12.6975 9.8432 12.6245 9.89184 12.4178C10.0256 11.8706 11.2294 10.7155 12.0563 10.3264C12.7372 10.0102 12.9561 9.97374 14.0383 9.97374C15.1205 9.97374 15.3394 10.0102 15.9838 10.3142C16.9323 10.752 17.7591 11.5788 18.1969 12.5151C18.4887 13.1596 18.5374 13.4028 18.5374 14.412C18.5374 15.5672 18.5374 15.5672 17.6375 17.7924C17.1512 19.0205 16.7621 20.0298 16.7864 20.0541C16.8107 20.0784 17.3214 19.9933 17.9294 19.8717C19.2305 19.6042 22.0393 19.361 22.8419 19.4583L23.4012 19.5312L24.1551 18.4004C27.2072 13.7919 32.0954 10.5452 37.628 9.41439C38.6008 9.21984 39.5614 9.13472 41.13 9.08608C43.6228 9.02528 44.9968 9.15904 47.0518 9.6819C47.8179 9.87646 48.4623 10.0345 48.4745 10.0345C48.4866 10.0345 48.134 9.01312 47.7084 7.77283C47.0275 5.80297 46.9302 5.41386 46.9302 4.63564C46.9302 3.56559 47.1369 2.82385 47.6719 1.99699C48.5839 0.57431 50.5295 -0.240387 52.2926 0.0636063ZM50.3592 2.88465C49.8728 3.18864 49.4837 3.91822 49.4837 4.55052C49.4837 4.93963 50.42 7.85795 51.5509 10.983C51.8184 11.7126 51.867 11.7004 55.1988 10.3993C56.9011 9.7427 58.4211 9.09824 58.5913 8.96449C59.7343 8.12547 59.7465 6.45959 58.6035 5.69353C57.9469 5.24363 57.4726 5.21931 56.585 5.5841C55.6852 5.94889 55.1015 5.98536 54.5178 5.70569C53.9585 5.43818 53.6667 5.04907 53.4356 4.24653C52.9979 2.72657 51.6117 2.11859 50.3592 2.88465ZM37.9685 11.9679C35.5001 12.5151 32.9101 13.6703 30.8794 15.1051C29.554 16.0536 27.8152 17.7316 26.9032 18.9719L26.2709 19.8231L27.4504 20.1271L28.6299 20.4311L30.1498 18.9111C31.7428 17.306 32.7763 16.5521 34.5152 15.6766C36.8498 14.5093 39.0507 14.0107 41.8231 14.0107C44.6077 13.9986 46.7356 14.4971 49.2041 15.7496C53.7883 18.0478 56.9498 22.2793 57.9469 27.3864C58.2387 28.8699 58.2387 31.849 57.9469 33.3203C57.3024 36.6034 55.9284 39.2664 53.691 41.6254C51.259 44.1667 48.3042 45.7961 44.8874 46.4771C43.4039 46.7689 40.1937 46.7689 38.7832 46.4771C32.0832 45.0544 27.0735 40.0446 25.6994 33.3811C25.4684 32.2746 25.3954 29.3927 25.5535 28.1403L25.6508 27.4472L25.1279 27.3256C24.8482 27.2526 24.3375 27.1554 23.9971 27.1067C23.2432 27.0094 23.2796 26.9365 23.0972 28.8212C22.8662 31.0221 23.158 33.5878 23.8876 35.9225C24.4591 37.7464 24.4713 38.0504 23.9971 38.5368C23.7417 38.7922 23.5593 38.853 23.0972 38.853C22.2947 38.853 22.015 38.5368 21.5408 37.0655C20.5437 34.0012 20.264 31.1559 20.6288 27.739L20.7018 27.0338L20.0452 27.1189C19.0359 27.2526 17.4308 27.7512 16.3121 28.274C12.9561 29.8548 10.3296 32.7488 9.07714 36.2386C8.06789 39.0718 8.06789 42.5373 9.07714 45.3584C10.3174 48.7874 12.8466 51.6328 16.0933 53.2014C20.0695 55.1348 24.2889 55.1104 28.2651 53.1406C29.7729 52.3988 30.8186 51.6449 31.9495 50.4898L32.7277 49.7115L31.6455 49.1279C30.3079 48.3983 28.8974 47.4377 28.5083 46.9756C27.803 46.1366 28.411 44.9328 29.5297 44.9328C29.7486 44.9328 30.2836 45.2125 31.0132 45.6989C32.5088 46.7081 33.4938 47.231 34.88 47.7903C37.5916 48.8604 40.6558 49.3346 43.3553 49.0792C51.6846 48.2889 58.2995 42.4765 60.1964 34.2688C60.5125 32.8826 60.6463 29.3684 60.4396 27.8971C59.6492 22.4131 56.7552 17.8046 52.1467 14.716C50.2619 13.4392 47.1612 12.2354 44.6807 11.7977C43.2215 11.5423 39.4398 11.6396 37.9685 11.9679ZM13.2114 12.6367C12.6764 12.8556 12.2265 13.4149 12.0441 14.0837C11.8495 14.7768 11.3024 15.3483 10.6701 15.5186C10.0986 15.6645 9.63649 15.5793 8.89474 15.1902C6.75464 14.0594 4.83342 16.7588 6.59657 18.4004C6.7668 18.5585 8.28676 19.3124 9.98912 20.0663C12.6034 21.2458 13.102 21.4282 13.2965 21.2944C13.4303 21.2093 14.0261 19.8717 14.7922 17.9991C15.923 15.1902 16.0568 14.7768 16.0082 14.2539C15.8866 12.8921 14.5004 12.0895 13.2114 12.6367ZM39.1602 16.7832C36.5094 17.2939 33.895 18.7165 31.9252 20.7107L31.2077 21.4403L31.8644 21.7808C39.4398 25.6111 44.1213 33.9769 43.4161 42.4036C43.3431 43.2791 43.3066 44.033 43.3431 44.0573C43.4404 44.1667 45.1184 43.8263 46.079 43.4979C53.0465 41.1876 57.0349 33.904 55.1866 26.8757C54.457 24.079 52.7182 21.4038 50.493 19.6285C47.1734 16.9899 43.258 16.0049 39.1602 16.7832ZM20.6775 22.0726C17.3092 22.3766 14.5368 23.3494 11.728 25.2098C7.65446 27.9093 4.84558 32.0557 3.72689 37.0047C3.50801 38.0139 3.47153 38.5611 3.47153 40.7985C3.47153 43.0359 3.50801 43.5831 3.72689 44.5923C4.12815 46.3312 4.54158 47.4985 5.34412 49.1279C7.14375 52.7393 9.98911 55.6211 13.6127 57.5059C20.7626 61.2024 29.4932 59.8527 35.2569 54.1741C35.9014 53.5418 36.7161 52.642 37.0565 52.18L37.6888 51.3288L36.4729 51.0369L35.2448 50.733L34.6732 51.3896C33.9072 52.2651 32.7034 53.3959 31.8765 54.0161C28.9947 56.1683 24.8726 57.3965 21.2976 57.1654C17.0052 56.8857 13.5397 55.3415 10.5606 52.3624C8.18948 49.9791 6.75464 47.3282 6.06154 44.0451C5.68459 42.2698 5.68459 39.3029 6.06154 37.5397C6.7668 34.2201 8.34756 31.3383 10.7552 29.0158C13.102 26.7541 15.8501 25.3192 19.1575 24.6748C20.6288 24.3708 23.6079 24.3708 25.0793 24.6626C31.7428 25.988 36.8863 31.0829 38.236 37.6978C38.5035 39.0354 38.6008 41.2484 38.4306 42.5617C38.3576 43.1575 38.3455 43.6925 38.3941 43.7411C38.5643 43.9114 40.4734 44.1424 40.595 44.0208C40.668 43.9479 40.7774 43.194 40.8504 42.3306C41.0692 39.9108 40.7652 37.406 39.9749 35.0348C37.5916 27.9336 31.074 22.7292 23.7174 22.0726C22.1974 21.9389 22.1853 21.9389 20.6775 22.0726ZM28.0341 28.955C27.6571 31.776 28.6177 35.509 30.4052 38.1477C31.4996 39.7649 33.3843 41.4551 35.2691 42.5373L35.8284 42.8535L35.9135 42.2212C36.2662 39.2421 35.342 35.655 33.5424 32.992C32.8736 32.0192 31.3293 30.402 30.393 29.721C29.6999 29.2103 28.3502 28.3956 28.1921 28.3956C28.1435 28.3956 28.0827 28.651 28.0341 28.955Z" fill="#2A396D"/>
</svg>
