<svg width="60" height="61" viewBox="0 0 60 61" fill="none" xmlns="http://www.w3.org/2000/svg">
<path d="M27.3867 7.66062C22.7812 8.52781 19.2305 11.6684 17.7188 16.2153C17.168 17.8911 16.957 19.1567 16.6875 22.4497L16.6172 23.4223H12.2578C7.48828 23.4223 6.82031 23.4927 5.70703 24.0903C4.93359 24.5122 3.83203 25.602 3.48047 26.3169C2.91797 27.4419 2.77734 28.0512 2.83594 29.2583C2.87109 30.2661 2.92969 30.5005 3.30469 31.3325C3.71484 32.2114 3.73828 32.3638 3.78516 33.6763C3.86719 35.8091 4.44141 37.1216 5.90625 38.563C6.51562 39.1489 6.5625 39.2427 6.5625 39.7231C6.5625 40.0161 6.49219 40.3325 6.42188 40.438C6.33984 40.5434 5.32031 40.895 4.17188 41.2231C2.60156 41.6684 1.93359 41.9262 1.53516 42.2075C0.925781 42.6411 0.304688 43.4966 0.117188 44.1411C0.046875 44.3989 0 46.2739 0 48.7583C0 52.8012 0.0117188 52.9653 0.234375 53.188C0.515625 53.4692 1.13672 53.5044 1.47656 53.2583C1.6875 53.0942 1.69922 52.8716 1.75781 48.9458C1.83984 43.5434 1.62891 43.9184 5.01562 42.9341L7.125 42.3247L8.25 43.4497L9.375 44.5747V48.77C9.375 52.8012 9.38672 52.9653 9.60938 53.188C9.91406 53.4927 10.5469 53.4927 10.9102 53.1997L11.1914 52.977L11.2266 48.7114L11.2617 44.4458L12.3398 43.3677L13.4297 42.2895L14.1562 42.5356L14.8945 42.7817L14.3555 43.3559C14.0508 43.6723 13.6758 44.2348 13.5 44.6098L13.1836 45.2778L13.1484 49.0747C13.1133 52.8598 13.1133 52.8716 13.3711 53.1411C13.6992 53.4927 14.2734 53.5161 14.6602 53.1997L14.9414 52.977L15 49.2973C15.0469 46.1684 15.082 45.5825 15.2578 45.2778C15.6797 44.5044 16.2188 44.1645 18.8555 42.9809C20.2969 42.3481 21.5039 41.8208 21.5508 41.8208C21.6094 41.8208 21.832 42.1255 22.0664 42.4887C23.7656 45.2309 26.7422 46.8598 30 46.8598C33.2695 46.8598 36.2578 45.2192 37.9219 42.5239C38.1562 42.1372 38.3906 41.8208 38.4492 41.8208C38.4961 41.8208 39.7031 42.3481 41.1445 42.9809C43.7812 44.1645 44.3203 44.5044 44.7422 45.2778C44.918 45.5825 44.9531 46.1684 45 49.2973L45.0586 52.977L45.3398 53.1997C45.7148 53.5044 46.3359 53.4927 46.6406 53.1645C46.8633 52.9184 46.875 52.7661 46.875 49.3325C46.875 45.477 46.8281 45.1137 46.2305 44.0942C46.0664 43.8247 45.9375 43.5786 45.9375 43.5434C45.9375 43.52 46.1953 43.3794 46.5117 43.227L47.0977 42.9575L47.7656 43.5669C48.7031 44.4223 49.4414 44.7739 50.4492 44.8442C51.5742 44.9145 52.3828 44.5981 53.4609 43.6606L54.293 42.9575L55.6992 43.6489C56.4727 44.0239 57.2578 44.4692 57.4453 44.6216C58.1719 45.2192 58.1836 45.2778 58.2422 49.3559C58.3008 52.8833 58.3125 53.0942 58.5234 53.2583C58.8633 53.5044 59.4844 53.4692 59.7656 53.188C59.9883 52.9653 60 52.8012 60 49.1098C60 44.7036 59.9766 44.5512 59.0859 43.5669C58.6406 43.063 58.2305 42.8169 56.4609 41.9262L54.375 40.8833V40.063V39.2427L55.1836 38.4809C56.0859 37.6255 56.7188 36.5591 57.0117 35.3872C57.1172 34.9888 57.3281 34.3911 57.4805 34.0513C58.0078 32.9145 58.1602 32.0473 58.1016 30.5708C58.0547 29.5161 57.9727 29.0473 57.75 28.438C57.3398 27.3247 56.7773 26.4458 55.9688 25.6372L55.2891 24.9341L55.2656 23.8559C55.2539 22.9067 55.207 22.6958 54.9023 22.0864C53.2266 18.77 47.8828 18.9223 46.3242 22.3325C46.0664 22.8833 46.0195 23.1645 46.0195 23.9966C46.0195 24.9927 46.0195 25.0044 45.6562 25.3208C45.1875 25.7075 44.3555 26.7739 44.0508 27.3598C43.793 27.8755 43.7578 27.7934 43.6523 26.4692C43.4062 23.1177 42.9727 18.8989 42.7734 18.02C41.6367 12.7817 38.3086 9.12547 33.5391 7.87156C32.5781 7.61375 32.0859 7.56687 30.3516 7.53172C28.8867 7.50828 28.043 7.54343 27.3867 7.66062ZM33.1758 9.75828C35.2031 10.3559 36.5977 11.1645 37.8867 12.5005C39.1055 13.7778 39.9258 15.1489 40.5234 16.9184C41.0039 18.3481 41.2031 19.6958 41.543 23.8325C41.9062 28.0395 42.3281 32.0005 42.7148 34.7544C42.8789 35.8559 43.0078 36.852 43.0078 36.9458C43.0078 37.2036 40.6875 38.3403 39.0117 38.9028L37.6406 39.3598L36.7617 38.9614C36.2812 38.7388 35.8242 38.4575 35.7539 38.3286C35.6836 38.188 35.625 37.4145 35.625 36.5005V34.9184L36.3164 34.3911C37.6875 33.3247 38.918 31.7075 39.5742 30.0786C40.0664 28.8598 40.3125 27.4067 40.3125 25.6372C40.3125 23.27 40.0312 22.5669 38.6133 21.395C36.7266 19.8364 33.7148 18.4067 30.6797 17.6333C29.168 17.2466 26.9531 16.8598 26.2383 16.8598C25.4883 16.8598 25.043 17.7973 25.5234 18.3833C25.6992 18.5942 25.9805 18.6762 27.1992 18.852C31.0898 19.4262 34.7344 20.7973 37.0195 22.5786C38.4141 23.645 38.3789 23.5747 38.3672 25.8598C38.3672 27.6528 38.332 27.8989 38.0508 28.7544C37.6055 30.102 36.9844 31.0864 35.918 32.1528C34.8516 33.2192 33.8672 33.8403 32.5195 34.2856C31.6875 34.5669 31.4062 34.602 30 34.602C28.5938 34.602 28.3125 34.5669 27.4805 34.2856C26.1328 33.8403 25.1484 33.2192 24.082 32.1528C22.4414 30.5122 21.7031 28.8481 21.5977 26.5044C21.5156 25.0044 21.457 25.1216 22.8984 24.0786C24.2109 23.1411 25.418 21.2544 25.2539 20.4106C25.1367 19.7895 24.4688 19.4848 23.8945 19.7895C23.7773 19.8598 23.5195 20.2231 23.332 20.6098C22.8281 21.6059 22.4414 22.063 21.3984 22.8481C19.9102 23.9614 19.6875 24.395 19.6875 26.1762C19.6875 27.313 19.9805 28.9536 20.3789 29.9848C20.9766 31.5786 22.2891 33.313 23.6836 34.3911L24.375 34.9184V36.5005C24.375 37.4145 24.3164 38.188 24.2461 38.3286C24.1758 38.4575 23.7188 38.7388 23.2383 38.9614L22.3594 39.3598L20.9883 38.9028C19.3125 38.3403 16.9922 37.2036 16.9922 36.9458C16.9922 36.852 17.1211 35.8559 17.2852 34.7544C17.6719 32.0005 18.0938 28.0395 18.457 23.8325C18.6094 21.8989 18.832 19.7895 18.9375 19.145C19.6992 14.4341 22.4414 11.0825 26.5781 9.82859C27.8906 9.43015 28.418 9.37156 30.3516 9.40672C31.8867 9.44187 32.3203 9.50047 33.1758 9.75828ZM52.1953 21.9458C52.8516 22.3325 53.3086 22.9067 53.4023 23.4927C53.4727 23.8911 53.4492 23.9262 53.25 23.8442C52.0898 23.3872 49.8164 23.3286 48.5391 23.7153C48.1875 23.8208 47.8828 23.8911 47.8594 23.8677C47.7422 23.7505 48.1055 22.895 48.4219 22.5317C49.0547 21.8052 49.7695 21.5356 50.8828 21.5942C51.4688 21.6177 51.7969 21.7114 52.1953 21.9458ZM15.9141 27.4887L15.8672 29.6919L15.4453 30.6294C15.0469 31.5083 15.0234 31.6606 14.9648 33.0903C14.8711 35.1177 14.5664 35.9966 13.6172 36.9809C11.8125 38.8325 8.95312 38.8794 7.125 37.0747C6.03516 36.0083 5.625 34.895 5.625 33.0552C5.625 31.895 5.60156 31.7778 5.19141 30.8755C4.27734 28.8833 4.6875 27.0903 6.29297 25.977C7.23047 25.3325 7.42969 25.3091 11.8828 25.3091L15.9609 25.2973L15.9141 27.4887ZM51.9727 25.4731C54.5039 26.1411 56.25 28.3442 56.25 30.8755C56.25 32.3755 56.0742 32.727 55.5938 32.1997C55.2422 31.813 54.1641 31.1098 53.0156 30.5356C51.9141 29.9731 49.3008 29.0473 48.832 29.0473C48.3867 29.0473 47.9766 29.4575 47.8242 30.0317C47.7539 30.313 47.5664 30.7114 47.4023 30.8989C46.9805 31.3911 46.8516 31.8013 47.0039 32.1763C47.3789 33.1723 48.4336 32.9263 49.1719 31.6723C49.3359 31.3911 49.4883 31.1567 49.5 31.1567C49.6641 31.1567 51.0234 31.6958 51.9375 32.1294C53.2852 32.7622 53.9414 33.1958 54.7148 33.9809L55.3008 34.5669L55.1367 35.0942C54.9023 35.9028 54.4336 36.5942 53.707 37.2388C51.8438 38.9028 49.043 38.7739 47.2852 36.9458C46.7344 36.3598 46.2305 35.4223 46.1133 34.7309C46.0664 34.4731 45.8555 33.8638 45.6328 33.3716C45.082 32.1177 44.918 30.9458 45.1523 29.8794C45.8789 26.6802 48.9609 24.688 51.9727 25.4731ZM30 36.477C31.6055 36.477 31.9219 36.4419 32.7891 36.1723L33.75 35.8794V37.0747C33.75 39.0669 34.2305 39.8989 35.7656 40.5903C36.1992 40.7778 36.5625 40.9888 36.5625 41.0356C36.5625 41.2817 35.6484 42.4653 35.0156 43.0395C32.0508 45.7348 27.5391 45.6059 24.7266 42.7583C23.9648 41.9731 23.2969 41.0591 23.4492 40.9653C23.4727 40.9536 23.9062 40.7427 24.3984 40.4966C25.8516 39.77 26.25 39.0434 26.25 37.0747V35.8794L27.2227 36.1723C28.0781 36.4419 28.3945 36.477 30 36.477ZM45.5508 37.8716C45.7266 38.1177 46.1016 38.5044 46.3828 38.727L46.875 39.1372V40.0161V40.8833L45.5859 41.5278C44.8828 41.8794 44.2266 42.1723 44.1445 42.1723C44.0508 42.1723 43.3359 41.8794 42.5273 41.5161C41.7305 41.1528 40.8867 40.7895 40.6641 40.6958L40.2539 40.52L41.3086 40.0864C43.8164 39.0434 44.8711 38.2231 44.8828 37.2856C44.8945 36.9692 44.8945 36.9692 45.0586 37.1919C45.1523 37.3208 45.375 37.6255 45.5508 37.8716ZM16.793 39.1606C17.3438 39.4653 18.2344 39.8989 18.7617 40.1098L19.7344 40.5083L18.9492 40.8598C18.5273 41.0591 17.9883 41.2817 17.7773 41.3638C17.3672 41.5044 17.3086 41.4927 15.0352 40.813L14.0625 40.52V39.852C14.0625 39.1958 14.0742 39.1723 14.6836 38.5981L15.293 38.0122L15.5391 38.3052C15.6797 38.4692 16.2422 38.8559 16.793 39.1606ZM10.3711 40.2388C10.957 40.2388 11.6016 40.1919 11.8125 40.145C12.1758 40.0513 12.1875 40.0513 12.1875 40.438C12.1875 40.7778 12.0469 40.9653 11.2148 41.7973L10.2539 42.7583L9.26953 41.7739C8.35547 40.8598 8.29688 40.7661 8.37891 40.4263C8.44922 40.0747 8.47266 40.063 8.88281 40.145C9.12891 40.1919 9.79688 40.2388 10.3711 40.2388ZM50.6836 40.2388C51.2695 40.2388 51.9141 40.2036 52.125 40.1567C52.4883 40.0747 52.5 40.0864 52.5 40.4497C52.5 40.6489 52.5586 41.0356 52.6172 41.2934C52.7344 41.7505 52.7227 41.7739 52.2305 42.2075C51.2812 43.0747 50.5312 43.2036 49.6758 42.6528C48.7617 42.0669 48.6562 41.8794 48.7266 40.9067L48.7734 40.063L49.207 40.145C49.4414 40.2036 50.1094 40.2388 50.6836 40.2388Z" fill="#2A396D"/>
<path d="M6.86719 28.3558C6.63281 28.5433 6.5625 28.6956 6.5625 29.0472C6.5625 29.762 6.87891 29.9378 8.40234 30.0316C9.96094 30.1253 11.5547 30.3948 12.3164 30.6878C13.2422 31.0628 13.6875 30.9573 13.9336 30.3011C14.1328 29.7972 13.8984 29.3402 13.2891 29.0472C12.5391 28.6956 11.0391 28.3675 9.55078 28.2269C7.64062 28.0511 7.23047 28.0745 6.86719 28.3558Z" fill="#2A396D"/>
<path d="M4.33594 46.0048C3.75 46.2275 3.75 46.204 3.75 49.6962C3.75 52.8017 3.76172 52.9657 3.98438 53.1884C4.28906 53.4931 4.95703 53.5048 5.26172 53.2001C5.61328 52.8485 5.64844 52.4501 5.60156 49.3564C5.56641 46.6962 5.55469 46.497 5.33203 46.286C5.07422 46.0282 4.60547 45.8993 4.33594 46.0048Z" fill="#2A396D"/>
<path d="M55.0196 47.2001C54.4688 47.4345 54.4336 47.5985 54.3985 49.9423C54.3516 52.415 54.3985 52.8603 54.7383 53.2001C55.043 53.5048 55.711 53.4931 56.0157 53.1884C56.2383 52.9657 56.25 52.8017 56.25 50.2821C56.25 47.8798 56.2266 47.5751 56.0508 47.411C55.7813 47.1767 55.3125 47.0829 55.0196 47.2001Z" fill="#2A396D"/>
<path d="M20.2031 47.9614C20.0039 48.0552 19.8047 48.2075 19.7578 48.3247C19.7227 48.4302 19.6875 49.5083 19.6875 50.7153C19.6875 52.8598 19.6992 52.9184 19.957 53.1645C20.3203 53.5044 20.9766 53.5044 21.2812 53.1763C21.4805 52.9536 21.5039 52.6958 21.5391 50.8208C21.5859 48.4536 21.5156 48.1255 20.9531 47.9263C20.7539 47.8559 20.5898 47.7973 20.5781 47.7973C20.5664 47.8091 20.4023 47.8794 20.2031 47.9614Z" fill="#2A396D"/>
<path d="M39.0117 47.9265C38.4961 48.114 38.4141 48.5007 38.461 50.821C38.4961 52.696 38.5196 52.9538 38.7188 53.1765C39.0352 53.528 39.7266 53.5046 40.0547 53.153C40.3008 52.8952 40.3125 52.778 40.3125 50.6335C40.3125 48.5358 40.3008 48.3718 40.0781 48.1491C39.9492 48.0202 39.7969 47.9147 39.7383 47.9147C39.6797 47.9147 39.5625 47.8913 39.4688 47.8679C39.3867 47.8327 39.1758 47.8679 39.0117 47.9265Z" fill="#2A396D"/>
</svg>
