<svg width="60" height="61" viewBox="0 0 60 61" fill="none" xmlns="http://www.w3.org/2000/svg">
<g clip-path="url(#clip0_7281_245561)">
<path d="M5.39059 0.723633C4.61716 1.12207 4.26559 1.66113 3.76169 3.17285C2.5195 6.84082 2.29684 10.5557 3.10544 13.7549L3.39841 14.9033L2.87106 15.7354C1.74606 17.5518 0.832002 19.8369 0.339814 22.1104C-0.0117485 23.751 -0.105498 27.126 0.164033 28.8486C0.738252 32.458 2.29684 35.6104 4.78122 38.2119C5.90622 39.3838 7.79294 40.9072 8.68356 41.3525C8.94138 41.4932 9.12888 41.6338 9.09372 41.6807C9.07028 41.7275 8.75388 42.2197 8.40231 42.7822C7.21872 44.6807 6.44528 46.9189 6.21091 49.2158C6.04685 50.8213 6.05856 57.8525 6.22263 58.5205C6.37497 59.1416 7.00778 59.915 7.62888 60.2197C8.03903 60.4307 8.32028 60.4541 10.6406 60.4541C13.4765 60.4541 13.5117 60.4424 13.664 59.6689C13.7109 59.3994 13.664 59.2471 13.4414 58.9775L13.1484 58.6377L10.7929 58.6025L8.43747 58.5674L8.2031 58.2627C8.05075 58.0635 7.96872 57.7822 7.96872 57.4541V56.9502L9.76169 56.915C11.4961 56.8799 11.5781 56.8682 12.0468 56.5518C12.832 56.0361 13.1718 55.415 13.2187 54.4189C13.2773 53.4111 13.0429 52.8486 12.3047 52.2158C11.6718 51.6768 11.0976 51.5479 9.37497 51.5479H7.957L7.99216 50.751L8.02731 49.9658L10.6054 49.9072C13.1718 49.8486 13.1836 49.8486 13.7461 49.5205C14.7187 48.9463 15.164 47.9268 14.9765 46.6963C14.8593 45.8994 14.3789 45.2432 13.6054 44.8447C13.0078 44.5283 12.914 44.5166 11.2851 44.5166H9.59763L9.84372 44.0713C9.98435 43.8369 10.2773 43.3916 10.5 43.0752L10.8984 42.5244L11.3437 42.7119C12.539 43.2275 14.5664 43.8369 16.1718 44.1533L16.8164 44.2822V45.4893C16.8164 46.5791 16.8515 46.7432 17.1562 47.3877C17.6015 48.2783 18.3867 49.0752 19.2773 49.4971C19.9101 49.8018 20.0976 49.8369 21.1523 49.8486C22.207 49.8486 22.4062 49.8135 23.0625 49.5088C24 49.0752 24.9492 48.0791 25.3242 47.1299C25.5351 46.6025 25.5937 46.2158 25.6054 45.3721V44.2822L26.25 44.165C27.7617 43.8604 30.0468 43.1572 31.3593 42.5713C31.4883 42.5127 32.6953 44.1768 32.6953 44.4111C32.6953 44.4697 32.0156 44.5166 31.1601 44.5166C29.2734 44.5166 28.8164 44.6338 28.125 45.3369C27.3633 46.0986 27.1406 47.001 27.4336 48.0908C27.6093 48.7119 28.5 49.6025 29.1211 49.7783C29.3906 49.8486 30.5859 49.9072 31.9687 49.9072H34.3359V50.7275V51.5479H32.9648C32.2031 51.5479 31.3711 51.6064 31.125 51.665C29.1914 52.1104 28.4179 54.5596 29.7422 56.0244C30.4453 56.8096 30.8554 56.9385 32.7304 56.9385H34.3359V57.5244C34.3359 57.958 34.2773 58.1689 34.1015 58.3447C33.8672 58.5791 33.7148 58.5791 25.3828 58.5791C16.6406 58.5791 16.3008 58.5908 16.0547 59.0479C15.8672 59.4111 15.9258 59.9736 16.1718 60.2197C16.4062 60.4541 16.5586 60.4541 25.3476 60.4541H34.3008L34.8047 60.1846C35.4843 59.833 35.9297 59.2471 36.1289 58.4619C36.2929 57.8525 36.3164 57.8174 36.8086 57.6885C41.8242 56.3643 46.3125 52.3213 48.3164 47.3291C49.2773 44.915 49.6289 42.8408 49.5351 40.0166C49.4297 37.0049 49.0664 35.5869 47.5664 32.4346C46.3242 29.8213 46.1367 29.1064 46.1367 26.9385C46.1367 25.5674 46.1836 25.0635 46.3828 24.3252C47.2031 21.3486 49.2656 18.8291 51.9726 17.5049C53.2851 16.8604 54.4922 16.5439 56.1797 16.4033C57.7031 16.2861 58.3945 16.0049 59.0976 15.2314C59.8359 14.4111 59.9414 14.1182 59.9414 12.8174C59.9414 11.751 59.9179 11.5986 59.625 11.0947C59.1679 10.3213 58.3711 9.66504 57.5859 9.41895C56.3203 9.02051 53.4375 9.33691 51.0117 10.1338C47.0859 11.4111 43.582 14.2002 41.4726 17.6924L40.9336 18.5947L40.6172 17.8447C40.4414 17.4463 39.9961 16.6143 39.6445 16.0166L39 14.9268L39.2461 13.8721C39.7734 11.6338 39.8672 9.44238 39.539 7.12207C39.1992 4.66113 38.3437 1.93066 37.7109 1.28613C36.7734 0.325195 35.6836 0.196289 33.9843 0.852539C31.1718 1.94238 28.7929 3.44238 26.8711 5.34082L25.9922 6.20801L24.8554 5.99707C23.2734 5.7041 19.0312 5.7041 17.4843 5.99707L16.3828 6.19629L15.2343 5.10645C13.3476 3.31348 10.8984 1.80176 8.41403 0.875977C7.00778 0.360352 6.16403 0.313477 5.39059 0.723633ZM7.6406 2.61035C8.67185 2.99707 9.99606 3.62988 10.957 4.21582C12.2695 5.00098 14.3437 6.68848 14.1679 6.81738C14.1445 6.84082 13.7812 6.98145 13.3593 7.13379C11.6953 7.71973 9.09372 9.18457 7.67575 10.333C7.35935 10.5908 6.58591 11.3057 5.96481 11.915L4.82809 13.0166L4.71091 12.2783C4.26559 9.65332 4.54684 6.75879 5.50778 3.89941C6.09372 2.17676 6.24606 2.08301 7.6406 2.61035ZM36.3047 2.62207C36.5976 2.98535 37.1953 4.83691 37.5117 6.31348C37.9101 8.22363 37.9336 11.7979 37.5468 12.8174C37.5117 12.9111 37.2539 12.7236 36.8789 12.3135C34.9922 10.2979 32.2031 8.42285 29.4375 7.29785C28.7461 7.0166 28.1953 6.74707 28.1953 6.71191C28.2304 6.55957 29.8008 5.27051 30.5742 4.74316C32.25 3.62988 34.9804 2.34082 35.707 2.3291C35.9648 2.3291 36.1406 2.42285 36.3047 2.62207ZM22.0078 9.0791C21.9726 10.4619 21.9609 10.5674 21.6914 10.7783C21.3398 11.0596 21.082 11.0596 20.6953 10.7549C20.3906 10.5205 20.3906 10.4971 20.3906 9.05566V7.60254H21.2226H22.0547L22.0078 9.0791ZM18.5156 9.2666C18.5156 11.083 18.6562 11.5283 19.4414 12.1963C20.7187 13.2861 22.6054 12.9814 23.4961 11.54C23.8359 10.9775 23.8476 10.9072 23.8828 9.36035L23.9297 7.75488L24.4687 7.84863C25.664 8.07129 25.5468 7.83691 25.5468 9.87598C25.5468 11.6221 25.5586 11.6924 25.875 12.3018C26.8476 14.1885 29.6367 14.1885 30.6093 12.3018C30.8672 11.8096 30.9375 11.5166 30.9375 10.9189C30.9375 10.0166 30.8906 10.0166 32.1914 10.8955C36.457 13.7549 39.3047 17.9971 40.2656 22.9541C40.582 24.5947 40.5586 27.6299 40.207 29.2471C38.8125 35.8564 33.5508 40.708 26.1445 42.2314C22.0429 43.0869 17.7539 42.8643 13.8867 41.6221C7.67575 39.6182 3.41013 35.1299 2.1445 29.2471C1.85153 27.876 1.85153 24.126 2.1445 22.7197C2.5781 20.6455 3.42184 18.4658 4.45309 16.8018C5.76559 14.6572 7.92185 12.4072 10.0312 11.001L11.3086 10.1455L11.4258 11.0713C11.6133 12.4072 12.0703 13.1104 13.0312 13.5088C13.957 13.9072 15.2812 13.6846 15.9726 13.0166C16.6758 12.3604 16.7929 11.9385 16.8633 9.8877L16.9336 8.0127L17.6367 7.88379C18.0234 7.80176 18.375 7.74316 18.4336 7.73145C18.4804 7.71973 18.5156 8.42285 18.5156 9.2666ZM14.9765 10.251C14.9297 11.4932 14.7539 11.8213 14.1211 11.8213C13.4765 11.8213 13.3008 11.4932 13.3008 10.2627V9.19629L14.1211 8.87988L14.9414 8.56348L14.9765 8.86816C15 9.04395 15 9.66504 14.9765 10.251ZM29.0039 9.12598C29.039 9.12598 29.0625 9.61816 29.0625 10.2158C29.0625 11.458 28.875 11.8213 28.2422 11.8213C28.0429 11.8213 27.7968 11.7158 27.6562 11.5635C27.4453 11.3408 27.4218 11.1533 27.4218 9.93457V8.55176L28.1836 8.83301C28.6054 8.99707 28.9804 9.12598 29.0039 9.12598ZM57.164 11.2822C57.7734 11.5986 58.0429 12.0088 58.0898 12.665C58.125 13.1455 58.0781 13.3799 57.9023 13.6611C57.5156 14.2822 57.1758 14.4229 55.8047 14.5518C51.1992 14.9502 47.4492 17.4463 45.5156 21.3721C45.164 22.0752 44.7422 23.1885 44.5664 23.833C44.2851 24.876 44.25 25.2158 44.25 26.9385C44.25 29.4111 44.4961 30.3838 45.75 33.0088C47.2265 36.0908 47.6953 37.9424 47.6953 40.6494C47.6953 43.2393 47.1211 45.5947 45.9375 47.9033C44.3672 50.9736 42.0468 53.2471 38.9179 54.8291C38.1562 55.2158 36.457 55.8838 36.2461 55.8838C36.2226 55.8838 36.2109 55.0752 36.2109 54.0908V52.3096L36.8906 52.0518C39.1406 51.1729 42.4218 48.126 42.4218 46.8955C42.4218 46.3799 42.0703 46.04 41.5312 46.04C41.0742 46.04 41.1211 45.9932 39.8203 47.5518C39.1054 48.4189 37.8633 49.415 36.8906 49.9189L36.2109 50.2588V49.8135C36.2109 49.0049 35.8476 47.1768 35.4492 45.958C34.9922 44.5752 34.4414 43.4502 33.7148 42.3838L33.1992 41.6338L33.7617 41.3057C36 40.0518 38.3906 37.6963 39.8789 35.2705L40.4883 34.2861L41.1562 35.6807C42.0937 37.626 42.3281 38.5752 42.3515 40.4736C42.3515 41.3057 42.3164 42.3486 42.2578 42.7705C42.164 43.4854 42.1758 43.5674 42.4101 43.8018C42.7734 44.165 43.5 44.1416 43.8047 43.7549C44.1445 43.333 44.3437 41.7041 44.2617 40.0635C44.1679 38.0127 43.8164 36.7471 42.7851 34.6846C42.4453 34.0166 42.0234 33.0791 41.8359 32.5986C41.5195 31.7783 41.5078 31.6963 41.6601 31.2627C41.9648 30.3955 42.3164 28.3096 42.3867 26.8799C42.457 25.415 42.3047 23.5518 42 22.0518L41.8242 21.208L42.2929 20.1885C44.1914 16.1572 48.0117 12.9229 52.3359 11.6924C54.2343 11.165 56.5429 10.9658 57.164 11.2822ZM23.6836 44.8213C23.9531 45.501 23.5664 46.7197 22.8984 47.3525C22.1601 48.0439 21.0937 48.2197 20.1562 47.7861C19.4765 47.4814 19.2539 47.2705 18.914 46.6025C18.6445 46.0752 18.539 45.1377 18.6914 44.7275C18.7383 44.6104 19.2539 44.5752 21.1758 44.5869C23.4492 44.5986 23.6015 44.6104 23.6836 44.8213ZM12.8906 46.626C13.0195 46.7549 13.125 47.0127 13.125 47.2119C13.125 47.4111 13.0195 47.6689 12.8906 47.7979C12.6679 48.0205 12.5039 48.0322 10.4883 48.0322C9.29294 48.0322 8.32028 47.9854 8.32028 47.9385C8.32028 47.8096 8.68356 46.5908 8.75388 46.4736C8.77731 46.4268 9.66794 46.3916 10.7343 46.3916C12.5039 46.3916 12.6797 46.415 12.8906 46.626ZM33.8086 47.0596C33.914 47.4346 34.0195 47.8096 34.0429 47.8799C34.0781 47.9971 33.5976 48.0322 31.875 48.0322H29.6601L29.4258 47.7275C29.1093 47.3174 29.1211 47.0361 29.4726 46.6846C29.7539 46.3916 29.789 46.3916 31.6875 46.3916H33.6211L33.8086 47.0596ZM11.0625 53.6689C11.4375 53.9619 11.4726 54.4893 11.1328 54.8291C10.9218 55.04 10.7461 55.0635 9.43356 55.0635H7.96872V54.2432V53.4229H9.36325C10.5937 53.4229 10.7812 53.4463 11.0625 53.6689ZM34.3359 54.2432V55.0752L32.8593 55.04C31.3945 55.0049 31.3711 55.0049 31.1367 54.6885C30.9375 54.4189 30.914 54.3018 31.0078 54.0439C31.1836 53.54 31.5586 53.4229 33.0234 53.4229H34.3359V54.2432Z" fill="#2A396D"/>
<path d="M18.2461 14.6921C16.0781 14.9617 14.2148 15.4421 12.3047 16.239C10.8633 16.8484 10.5469 17.1999 10.793 17.9148C11.0391 18.6179 11.5547 18.6648 12.7852 18.1023C13.793 17.6335 15.6211 17.0593 16.875 16.8132C22.0664 15.782 27.832 16.7312 31.7109 19.2624C33.6328 20.5163 35.168 22.2859 35.7422 23.9031C36.0938 24.9343 36.1875 26.5281 35.9297 27.489C34.4414 33.3015 25.3828 36.9929 16.8633 35.2585C13.3125 34.532 10.4883 33.1023 8.49609 31.0281C5.49609 27.8992 5.49609 24.3015 8.48438 20.9968C9.02344 20.4109 9.14062 20.1999 9.14062 19.8601C9.14062 19.2976 8.80078 18.9695 8.23828 18.9695C7.85156 18.9695 7.71094 19.0632 7.11328 19.6843C5.27344 21.6296 4.40625 23.6453 4.40625 26.0593C4.40625 27.9812 4.91016 29.5281 6.03516 31.1101C9.82031 36.4187 18.9258 38.8913 27.0938 36.8288C31.2656 35.7859 34.7227 33.5593 36.5625 30.7351C37.6172 29.1296 38.0391 27.5242 37.9336 25.5554C37.8047 23.1413 36.8672 21.2429 34.8164 19.2859C31.0898 15.7234 24.5977 13.9304 18.2461 14.6921Z" fill="#2A396D"/>
<path d="M13.3945 22.509C13.0547 22.6731 12.8906 23.177 12.8906 24.091C12.8906 24.8762 13.1016 25.4504 13.418 25.5793C13.8164 25.7317 14.2617 25.6496 14.5078 25.3801C14.7305 25.134 14.7656 24.9817 14.7656 23.9856C14.7656 22.9074 14.7539 22.8488 14.4609 22.6145C14.1211 22.3449 13.793 22.3098 13.3945 22.509Z" fill="#2A396D"/>
<path d="M28.0547 22.4853C27.6679 22.6377 27.5039 23.1885 27.5625 24.2549C27.5976 25.0752 27.6328 25.2275 27.8789 25.4267C28.2539 25.7314 28.8398 25.7197 29.1562 25.3799C29.3789 25.1338 29.414 24.9814 29.414 23.9853C29.414 22.9072 29.4023 22.8486 29.1093 22.6142C28.7812 22.3564 28.4648 22.3213 28.0547 22.4853Z" fill="#2A396D"/>
<path d="M17.3789 24.7121C16.582 25.0285 16.7344 26.4816 17.6719 27.4426C18.4453 28.2395 19.7578 28.4152 20.7305 27.8645C21.1172 27.6301 21.1172 27.6301 21.668 27.8996C22.8281 28.4738 24.3398 28.0988 25.0195 27.0793C25.3828 26.5285 25.582 25.6379 25.4414 25.2512C25.3008 24.9113 24.8789 24.5949 24.5391 24.5949C24.1992 24.5949 23.6719 25.0285 23.6719 25.3098C23.6719 25.6848 23.3437 26.2004 23.0625 26.2824C22.6875 26.3762 22.2305 26.0129 22.1367 25.5207C22.0312 25.0637 21.5508 24.5949 21.1641 24.5949C20.7422 24.5949 20.3555 24.9816 20.2266 25.5441C20.1328 25.9309 20.0156 26.0949 19.7578 26.2238C19.4648 26.3645 19.3945 26.3527 19.1133 26.1535C18.9492 26.0246 18.7969 25.8137 18.7734 25.6965C18.6914 25.216 18.4805 24.8527 18.2109 24.7238C17.8711 24.5715 17.7305 24.5715 17.3789 24.7121Z" fill="#2A396D"/>
</g>
<defs>
<clipPath id="clip0_7281_245561">
<rect width="60" height="60" fill="white" transform="translate(0 0.454102)"/>
</clipPath>
</defs>
</svg>
