<svg width="25" height="25" viewBox="0 0 25 25" fill="none" xmlns="http://www.w3.org/2000/svg">
<g clip-path="url(#clip0_1072_56183)">
<path d="M17.4146 21.4336C17.4146 21.5489 17.4204 21.6446 17.4133 21.7391C17.3989 21.9254 17.3983 22.1156 17.3547 22.2954C17.149 23.148 16.4492 23.6613 15.4898 23.6633C13.4973 23.6672 11.5048 23.6652 9.51236 23.6639C9.39845 23.6633 9.28454 23.6542 9.17193 23.6418C8.34916 23.5525 7.69824 22.9025 7.61102 22.0785C7.58888 21.8713 7.58693 21.6609 7.57587 21.4486H0.00628256C0.00628256 21.9228 -0.0112924 22.3787 0.0101881 22.8328C0.0511962 23.7095 0.468438 24.3616 1.2515 24.7615C1.45719 24.8664 1.68892 24.9217 1.90828 24.9999H23.0958C23.1713 24.9765 23.2468 24.953 23.3223 24.9309C24.1816 24.6775 24.7218 24.1173 24.947 23.2503C24.9607 23.1975 24.9822 23.1467 24.9998 23.0946V21.4336H17.4146ZM1.33286 23.2054C1.09528 23.2008 0.901302 23.008 0.896745 22.7735C0.892189 22.5351 1.10179 22.3208 1.34133 22.3195C1.58217 22.3182 1.78916 22.5273 1.78656 22.7702C1.7846 23.0184 1.58412 23.2106 1.33286 23.2054ZM3.12616 23.2054C2.87425 23.204 2.68288 23.0093 2.68743 22.7572C2.69199 22.5201 2.88336 22.326 3.119 22.3195C3.36179 22.3136 3.56748 22.5155 3.57009 22.7618C3.57269 23.0132 3.37871 23.2067 3.12616 23.2054ZM6.25254 23.2047C6.02537 23.2138 5.79754 23.2067 5.56972 23.2067C5.35036 23.2067 5.13035 23.2138 4.91164 23.2047C4.65192 23.1936 4.47617 23.0158 4.47096 22.7761C4.46511 22.5396 4.6389 22.3312 4.89081 22.3234C5.35361 22.3097 5.81772 22.3091 6.28053 22.3247C6.53439 22.3332 6.70103 22.539 6.69452 22.7793C6.68801 23.0217 6.51616 23.1943 6.25254 23.2047Z" fill="#4C40ED"/>
<path d="M24.1113 20.2254V20.516H0.90462C0.900715 20.43 0.893555 20.344 0.893555 20.258C0.892904 15.1857 0.892904 10.1141 0.893555 5.04175C0.893555 4.10637 1.44489 3.55791 2.38287 3.55791C5.90566 3.55726 9.42846 3.55791 12.9506 3.55791H13.1875C13.1973 3.58005 13.2077 3.6022 13.2175 3.6237C13.0072 3.82628 12.7944 4.0269 12.5861 4.23209C12.2964 4.51869 12.2196 4.85741 12.3628 5.23847C12.4377 5.43649 12.4494 5.62278 12.2932 5.78302C12.1363 5.94326 11.9501 5.93936 11.7516 5.8638C11.361 5.71528 11.0187 5.79475 10.7257 6.09373C10.6066 6.21619 10.4803 6.33214 10.3658 6.45851C9.8802 6.99459 9.8841 7.76974 10.3821 8.2941C10.5891 8.51101 10.8162 8.70838 11.044 8.92398C10.9588 9.01387 10.9054 9.0725 10.8494 9.12917C9.32496 10.6547 7.8018 12.1815 6.27408 13.7032C6.16798 13.8087 6.03389 13.8973 5.8972 13.9592C5.41682 14.1774 4.93058 14.3839 4.44369 14.5877C4.04597 14.7545 3.74069 15.0216 3.53175 15.3974C3.14835 16.0866 2.76366 16.7757 2.38547 17.4675C2.14203 17.9117 2.1967 18.2824 2.5508 18.6426C2.78449 18.881 3.01882 19.1181 3.25836 19.3506C3.58382 19.6653 3.96266 19.7337 4.35386 19.522C5.09006 19.124 5.82039 18.7149 6.54812 18.3013C6.89116 18.1058 7.12744 17.8095 7.28171 17.446C7.49522 16.9451 7.70677 16.4435 7.92548 15.9446C7.97039 15.8436 8.03223 15.7413 8.10969 15.6632C9.67646 14.0881 11.2471 12.5163 12.8172 10.9446C12.8458 10.9159 12.877 10.8912 12.9428 10.8325C13.1277 11.0273 13.3067 11.2247 13.4948 11.4123C14.104 12.02 14.8917 12.0193 15.5061 11.4149C15.6051 11.3178 15.7034 11.2208 15.7997 11.1211C16.075 10.8351 16.1466 10.5023 16.0073 10.1316C15.9331 9.93362 15.9195 9.74798 16.0757 9.58709C16.2313 9.4262 16.4168 9.42815 16.6159 9.50371C17.0169 9.65679 17.3593 9.56364 17.6607 9.26075C18.6996 8.21593 19.7423 7.17568 20.7838 6.13412C21.2271 5.69118 21.6632 5.24107 22.1149 4.8066C22.469 4.46593 22.7789 4.10963 22.7672 3.58526C23.4506 3.5325 24.0469 4.09986 24.1061 4.83917C24.1126 4.91994 24.1107 5.00137 24.1107 5.08279C24.1113 10.1303 24.1113 15.1779 24.1113 20.2254Z" fill="#4C40ED"/>
<path d="M21.8114 3.338C21.1729 1.79683 20.0891 0.703813 18.549 0.0595972C18.2782 -0.0537431 18.0764 -0.00488955 17.8714 0.201598C16.3684 1.71345 14.8596 3.2201 13.3494 4.72414C13.2414 4.83226 13.2056 4.91499 13.255 5.07784C13.5558 6.06728 12.6829 7.0183 11.6837 6.76622C11.396 6.69391 11.2495 6.76296 11.105 6.97075C11.0959 6.98378 11.0836 6.99485 11.0725 7.00723C10.8375 7.27169 10.8355 7.48469 11.0803 7.73091C12.097 8.75097 13.1151 9.76973 14.1344 10.7872C14.3362 10.9885 14.523 11.0217 14.7248 10.9057C15.0145 10.739 15.1499 10.4915 15.0926 10.2433C15.0672 10.1332 15.0548 10.0199 15.0464 9.96905C15.0483 8.99133 15.9362 8.34125 16.8045 8.62721C16.9451 8.67346 17.0323 8.66499 17.141 8.55426C18.6499 7.02481 20.162 5.49993 21.6773 3.977C21.8667 3.7868 21.9162 3.59073 21.8114 3.338ZM15.1805 6.05621C14.9487 6.2868 14.6838 6.29462 14.4931 6.09399C14.3069 5.89858 14.3238 5.65431 14.551 5.42632C15.6758 4.29813 16.8032 3.17255 17.928 2.0437C18.0823 1.88867 18.2691 1.81442 18.4553 1.91799C18.5874 1.99159 18.6727 2.14988 18.7911 2.28341C18.6961 2.44495 18.6486 2.58109 18.5574 2.67294C17.4359 3.80504 16.3092 4.93128 15.1805 6.05621ZM19.9062 3.83761C19.8639 3.89688 19.8098 3.94704 19.7578 3.99915C18.6662 5.09152 17.5759 6.18583 16.4791 7.27429C16.3697 7.38242 16.2239 7.45342 16.1529 7.50162C15.7285 7.4886 15.5215 7.11536 15.696 6.82549C15.7376 6.7571 15.7975 6.69912 15.8548 6.6418C16.9406 5.554 18.0269 4.46749 19.1133 3.38099C19.1706 3.32367 19.2279 3.26439 19.2936 3.21749C19.4694 3.09308 19.7031 3.11197 19.8534 3.25723C20.0064 3.40444 20.0318 3.65978 19.9062 3.83761Z" fill="#4C40ED"/>
<path d="M12.3274 10.2679C12.2448 10.3181 12.1556 10.3513 12.0937 10.4132C10.5556 11.9466 9.01814 13.4806 7.48912 15.0224C7.33875 15.1741 7.21573 15.3656 7.12525 15.5598C6.89873 16.0457 6.69564 16.542 6.48865 17.0364C6.38385 17.2866 6.21786 17.4722 5.97833 17.6031C5.29551 17.9777 4.61659 18.36 3.95135 18.7307C3.68643 18.4643 3.42931 18.2057 3.14941 17.9249C3.4189 17.4396 3.74175 16.9394 3.9826 16.4026C4.269 15.7649 4.70968 15.352 5.37687 15.1526C6.25627 14.8908 6.93974 14.3482 7.57178 13.687C8.83588 12.3641 10.1507 11.0893 11.4435 9.79374C11.506 9.7312 11.5574 9.65564 11.6264 9.57031C11.8653 9.80676 12.0645 10.0054 12.3274 10.2679Z" fill="#4C40ED"/>
<path d="M16.5021 22.0159C16.4558 22.4263 16.0913 22.7559 15.663 22.7572C13.556 22.7631 11.4489 22.7637 9.34256 22.7572C8.87259 22.7559 8.51523 22.3879 8.4931 21.9202C8.48529 21.7671 8.4918 21.614 8.4918 21.4453H16.5053C16.5053 21.6453 16.5222 21.8329 16.5021 22.0159Z" fill="#4C40ED"/>
</g>
<defs>
<clipPath id="clip0_1072_56183">
<rect width="25" height="25" fill="white"/>
</clipPath>
</defs>
</svg>
