<svg width="60" height="61" viewBox="0 0 60 61" fill="none" xmlns="http://www.w3.org/2000/svg">
<path d="M22.8867 0.700127C22.6875 0.823135 22.4531 1.04456 22.3945 1.17987C22.3242 1.31518 22.2656 2.04095 22.2656 2.79132C22.2656 4.11984 22.2773 4.16905 22.5938 4.50118C22.8164 4.7349 23.4375 5.00552 24.8203 5.47297L26.7188 6.12493V7.40425C26.7188 8.35143 26.6836 8.69587 26.5781 8.69587C25.5586 8.70817 22.4297 9.38473 20.7773 9.93828C16.7461 11.2914 13.2422 13.5179 10.1719 16.6793C9 17.8725 8.90625 18.0078 8.90625 18.4384C8.90625 19.0534 9.23438 19.3979 9.82031 19.3979C10.207 19.3979 10.3477 19.2994 11.0742 18.5245C14.543 14.8095 19.207 12.1402 24.0234 11.1069C27.6562 10.3319 32.3555 10.3442 35.9766 11.1192C38.9531 11.7466 42.3516 13.2227 44.7656 14.9079C50.2383 18.7459 54.1992 24.7489 55.5352 31.2316C55.8047 32.5355 56.1328 35.0326 56.1328 35.7707V36.2504H53.7188H51.3047L51.6562 35.783C54.7148 31.699 52.1016 25.8929 47.0508 25.5853C44.4023 25.4254 42.0469 26.8523 40.9453 29.288C40.0078 31.3669 40.3359 34.1469 41.7188 35.7953L42.0938 36.2504H40.207H38.3203V31.7236C38.3203 26.6555 38.332 26.717 37.4648 25.9913L37.0078 25.6099L35.0977 25.573L33.1758 25.5361L33.3516 25.0318C33.5859 24.306 33.5625 23.1374 33.2812 22.4854C32.6836 21.12 31.4062 19.6316 30.6211 19.4102C30.0703 19.2502 29.9297 19.2502 29.3789 19.4102C28.5938 19.6316 27.3164 21.12 26.7188 22.4854C26.4375 23.1374 26.4141 24.306 26.6602 25.0441L26.8242 25.5484H25.0781C23.2148 25.5484 22.8633 25.6222 22.3359 26.1389C21.6914 26.7785 21.6797 26.877 21.6797 31.7605V36.2504H21.1758H20.6719L20.7188 35.4016C20.7539 34.7497 20.7188 34.4298 20.5312 33.9993C20.2148 33.2612 17.0508 29.042 16.4648 28.5868C14.7891 27.2829 12.5742 27.0615 10.7812 28.0087C9.77344 28.5376 9.42188 28.9189 7.54688 31.4284C5.63672 33.9747 5.39062 34.5283 5.58984 35.6477L5.70703 36.2504H4.76953H3.83203L3.91406 35.1187C4.21875 30.8871 5.56641 26.5694 7.67578 23.0513C8.39062 21.8458 8.49609 21.3045 8.08594 20.874C7.75781 20.5296 7.10156 20.5419 6.75 20.9109C6.59766 21.0708 6.17578 21.7351 5.80078 22.3993C3.67969 26.2004 2.4375 30.2106 2.08594 34.4914C1.94531 36.2012 1.93359 36.2504 1.66406 36.2504C1.23047 36.2504 0.480469 36.7179 0.234375 37.1484C0.0351562 37.4928 0 37.7758 0 39.3011C0 41.2324 0.0703125 41.5153 0.703125 42.0689C0.9375 42.278 1.26562 42.4133 1.6875 42.4625L2.32031 42.5486L3.49219 45.0334C4.40625 46.9647 4.80469 47.6782 5.28516 48.244C6.36328 49.4864 7.79297 50.2614 9.35156 50.4705L9.96094 50.5566V51.1717C9.96094 51.5038 9.90234 53.2752 9.83203 55.0958C9.71484 58.0972 9.72656 58.4663 9.90234 58.946C10.418 60.3853 12.1289 60.9142 13.3242 60.0039C13.7109 59.7087 14.0391 59.0936 15.9375 55.0958L18.0938 50.5197H20.2266C22.1953 50.5197 22.3711 50.5074 22.6641 50.2614C23.0742 49.9293 23.0859 49.2035 22.6992 48.8222C22.4414 48.5639 22.3945 48.5639 15.7617 48.527C8.29688 48.4777 8.60156 48.5147 7.44141 47.5921C6.62109 46.9401 6.1875 46.2758 5.26172 44.2708L4.46484 42.524H23.7773C37.582 42.524 43.1953 42.4871 43.4648 42.3887C43.6641 42.3149 43.8867 42.155 43.9453 42.032C44.1328 41.6506 44.0742 41.0602 43.8281 40.8018C43.5938 40.5558 43.4414 40.5558 22.7344 40.5558H1.875V39.3872V38.2186H30H58.125V39.3872V40.5558H52.2773H46.418L46.1836 40.8756C45.8555 41.3062 45.8789 41.6998 46.2188 42.1181L46.5 42.4625L51 42.524L55.5117 42.5855L54.6562 44.4307C53.7422 46.4112 53.2148 47.1738 52.3008 47.7889C51.1289 48.5762 51.5977 48.5516 37.9102 48.5516C27.8555 48.5639 25.4531 48.5885 25.2891 48.7238C24.832 49.0805 24.8203 49.9785 25.2773 50.3475C25.4531 50.4828 26.9883 50.5074 33.7617 50.5197H42.0469L42.9141 52.3895C46.1367 59.2658 46.3359 59.6595 46.793 60.0039C47.9883 60.9142 49.6992 60.3853 50.2148 58.946C50.3906 58.4663 50.4023 58.0972 50.2852 55.0958C50.2148 53.2752 50.1562 51.5038 50.1562 51.1717V50.5443L50.7188 50.4705C52.2422 50.2368 53.6484 49.4618 54.7031 48.244C55.1836 47.6905 55.6055 46.9524 56.4961 45.058L57.668 42.5855L58.3945 42.4256C58.8047 42.3395 59.2266 42.1673 59.3906 41.995C59.9297 41.4661 60 41.1709 60 39.3011C60 37.7758 59.9648 37.4928 59.7656 37.1484C59.5195 36.7056 58.7695 36.2504 58.3008 36.2504C58.0312 36.2504 58.0078 36.2135 58.0078 35.6969C58.0078 34.7374 57.7734 32.8184 57.4688 31.207C56.0508 23.9247 51.7852 17.3682 45.7617 13.2104C42.4102 10.9101 38.4961 9.39703 34.418 8.81888C33.9141 8.75737 33.4453 8.69587 33.3867 8.69587C33.3281 8.69587 33.2812 8.11771 33.2812 7.40425V6.12493L35.2969 5.43607C36.3984 5.06703 37.4062 4.66109 37.5234 4.55038C37.7109 4.37817 37.7344 4.14444 37.7344 2.65601C37.7344 0.970749 37.7344 0.95845 37.4297 0.712425C37.125 0.454102 37.0195 0.454102 30.1875 0.454102C23.5312 0.454102 23.25 0.466404 22.8867 0.700127ZM35.8594 2.77902C35.8594 3.13575 35.8359 3.14805 33.8438 3.83691C32.7305 4.23055 31.7227 4.62419 31.6172 4.7349C31.4297 4.89481 31.4062 5.16544 31.4062 6.75229V8.57285H30H28.5938V6.75229C28.5938 5.16544 28.5703 4.89481 28.3945 4.7349C28.2773 4.62419 27.2695 4.23055 26.168 3.83691C24.1641 3.14805 24.1406 3.13575 24.1406 2.77902V2.42228H30H35.8594V2.77902ZM30.7617 22.0672C31.6992 23.3342 31.8516 23.9616 31.3828 24.6873C31.0781 25.1548 30.4336 25.5484 30 25.5484C29.5664 25.5484 28.9219 25.1548 28.6289 24.6873C28.1484 23.9616 28.3008 23.3342 29.2383 22.0672C29.5664 21.6367 29.8594 21.366 30 21.366C30.1406 21.366 30.4336 21.6367 30.7617 22.0672ZM36.4219 28.6483L36.457 29.7308H30H23.5547V28.7098C23.5547 28.144 23.5898 27.6396 23.6367 27.6027C23.6719 27.5535 26.5664 27.5289 30.0469 27.5412L36.3867 27.5781L36.4219 28.6483ZM48.5625 27.9841C49.5 28.4515 50.3086 29.2757 50.7188 30.1983C51.1641 31.1947 51.1641 32.5724 50.7188 33.5688C50.3086 34.5037 49.5 35.3155 48.5391 35.7953C47.8359 36.1397 47.6367 36.1889 46.6992 36.1889C45.2578 36.1766 44.4844 35.8568 43.5234 34.8481C42.5625 33.8394 42.2578 33.0275 42.3281 31.6375C42.3867 30.5058 42.6328 29.8907 43.3828 29.042C44.707 27.5289 46.7812 27.1107 48.5625 27.9841ZM14.4141 29.657C15.1758 29.9891 15.5977 30.432 17.2383 32.6216C19.0781 35.0695 19.1836 35.3401 18.5039 35.9306L18.1406 36.2504H13.1719C9.82031 36.2504 8.10938 36.2012 7.94531 36.1151C7.65234 35.9552 7.35938 35.2294 7.46484 34.9342C7.60547 34.5283 10.7812 30.3582 11.168 30.0752C12.0938 29.3741 13.418 29.2142 14.4141 29.657ZM36.4453 33.9747V36.2504H30H23.5547V33.9747V31.699H30H36.4453V33.9747ZM14.4844 53.6196C12.3516 58.2203 12.2695 58.3802 12.082 58.454C11.9883 58.4909 11.8359 58.454 11.7539 58.3556C11.6133 58.2203 11.6133 57.6913 11.707 55.1819C11.7773 53.5335 11.8359 51.8114 11.8359 51.3439V50.5197H13.875H15.9258L14.4844 53.6196ZM48.2812 51.3439C48.2812 51.8114 48.3398 53.5335 48.4102 55.1819C48.5039 57.6913 48.5039 58.2203 48.3633 58.3556C48.1641 58.5647 47.8828 58.454 47.7188 58.1095C47.6602 57.9619 46.8398 56.1906 45.9023 54.1732L44.1914 50.5197H46.2422H48.2812V51.3439Z" fill="#2A396D"/>
<path d="M44.5781 29.4972C44.3086 29.6448 44.0625 30.1 44.0625 30.4567C44.0625 30.5797 44.168 30.8257 44.3086 31.0102C44.5195 31.2932 44.6367 31.3301 45.2344 31.3301C45.7969 31.3301 45.9727 31.2809 46.1719 31.0595C46.4648 30.7273 46.4766 30.1 46.1953 29.7309C45.9492 29.4111 44.9883 29.2758 44.5781 29.4972Z" fill="#2A396D"/>
<path d="M46.9336 32.4986C46.5469 32.8922 46.5352 33.5196 46.9102 33.8886C47.2852 34.2576 48.8086 34.2822 49.2305 33.9255C49.6289 33.5934 49.6055 32.8676 49.1719 32.4863C48.9024 32.2402 48.7266 32.191 48.0352 32.191C47.3203 32.191 47.1797 32.2279 46.9336 32.4986Z" fill="#2A396D"/>
</svg>
