<svg width="60" height="61" viewBox="0 0 60 61" fill="none" xmlns="http://www.w3.org/2000/svg">
<path d="M10.0781 0.0805626C8.71873 0.550419 8.32029 1.17689 7.10154 4.81826C6.55076 6.48885 5.30858 10.2085 4.34764 13.0799C2.63671 18.2352 2.60156 18.3005 2.27343 18.3396C1.61718 18.4049 0.996091 18.6529 0.667967 18.9922C0.0703123 19.6187 0 19.9058 0 21.733C0 23.2731 0.0234374 23.4558 0.269531 23.8604C0.667967 24.513 1.23047 24.8915 1.82812 24.8915H2.34374V35.8547C2.34374 46.6483 2.34374 46.818 2.57812 47.079C2.90624 47.4445 3.6328 47.4314 3.93749 47.066C4.14843 46.805 4.16014 46.4004 4.1953 35.8417L4.21874 24.8915H11.4609C18.4687 24.8915 18.7031 24.8784 19.2187 24.6174C19.6171 24.4216 21.0117 22.9468 24.8788 18.6529L29.9999 12.9493L35.1327 18.6529C38.9882 22.9468 40.3827 24.4216 40.7811 24.6174C41.2968 24.8784 41.5311 24.8915 48.5507 24.8915H55.7811V26.2619C55.7811 27.7498 55.8866 28.1805 56.3319 28.4023C56.742 28.6112 56.9998 28.5851 57.3514 28.2718C57.6444 28.0108 57.6561 27.9716 57.6561 26.4446V24.8915H58.1717C58.7694 24.8915 59.3319 24.513 59.7303 23.8604C59.9764 23.4558 59.9998 23.2731 59.9998 21.733C59.9998 19.9058 59.9295 19.6187 59.3319 18.9922C59.0037 18.6529 58.3827 18.4049 57.7264 18.3396C57.3983 18.3005 57.3631 18.2352 55.6522 13.0799C54.6913 10.2085 53.4491 6.48885 52.8983 4.81826C51.785 1.51623 51.4686 0.915859 50.4608 0.315491L49.9803 0.0283585L30.1757 0.00225449C19.289 -0.0107956 10.2422 0.0283585 10.0781 0.0805626ZM49.7811 2.37763C49.9686 2.56035 50.2147 2.9519 50.3319 3.25208C50.7538 4.43977 55.3124 18.1569 55.3124 18.2613C55.3124 18.3135 52.6053 18.3657 49.3124 18.3657H43.3007L37.4413 11.853C31.8046 5.5883 31.5585 5.32727 30.9491 5.1315C30.5976 5.01403 30.1757 4.92267 29.9999 4.92267C29.8241 4.92267 29.4023 5.01403 29.0507 5.1315C28.4413 5.32727 28.1952 5.5883 22.5585 11.853L16.6992 18.3657H10.6875C7.39451 18.3657 4.68749 18.3135 4.68749 18.2613C4.68749 18.1569 9.24607 4.43977 9.66794 3.25208C9.78513 2.9519 10.0312 2.56035 10.2187 2.37763L10.5703 2.05134H29.9999H49.4296L49.7811 2.37763ZM30.3866 7.15448C30.5273 7.23279 33.3046 10.2607 36.5624 13.876L42.4804 20.454H50.2381C59.1209 20.454 58.242 20.3104 58.242 21.7461C58.242 22.2812 58.1834 22.5814 58.0545 22.7249C57.8905 22.9076 57.0116 22.9338 50.1092 22.9338C45.8319 22.9338 42.1522 22.8946 41.9413 22.8554C41.6132 22.7771 40.5702 21.6939 35.9765 16.5907C30.7851 10.822 30.3749 10.4043 29.9999 10.4043C29.6249 10.4043 29.2148 10.822 24.0234 16.5907C19.4296 21.6939 18.3867 22.7771 18.0585 22.8554C17.8476 22.8946 14.1679 22.9338 9.8906 22.9338C2.98827 22.9338 2.10937 22.9076 1.94531 22.7249C1.8164 22.5814 1.75781 22.2812 1.75781 21.7461C1.75781 20.3104 0.878904 20.454 9.76169 20.454H17.5195L23.4374 13.876C26.6952 10.2607 29.4609 7.23279 29.5898 7.16753C29.8945 6.97176 30.0702 6.97176 30.3866 7.15448Z" fill="#2A396D"/>
<path d="M28.8398 20.4882C27.4336 20.9059 26.3555 21.9108 25.6992 23.3856C25.3945 24.0643 25.3711 24.2601 25.3711 25.5652C25.3711 26.9226 25.3945 27.0531 25.7461 27.8623C26.6836 29.9636 28.9219 31.2165 30.914 30.7336C32.3672 30.3943 33.6094 29.3241 34.2422 27.8754C34.6054 27.0531 34.6289 26.9356 34.6289 25.5652C34.6289 24.2601 34.6054 24.0643 34.3008 23.3856C33.6328 21.8847 32.5547 20.9059 31.1133 20.4752C30.2695 20.2402 29.6719 20.2402 28.8398 20.4882ZM30.7734 22.5634C32.2734 23.0593 33.1289 24.8213 32.6953 26.5572C32.5429 27.1706 31.8515 28.045 31.2422 28.3974C30.8906 28.6062 30.5508 28.6845 30 28.6845C29.0859 28.6845 28.4648 28.3713 27.8672 27.5882C26.5664 25.9046 27.2695 23.229 29.1797 22.5634C29.8711 22.3285 30.0703 22.3285 30.7734 22.5634Z" fill="#2A396D"/>
<path d="M56.2734 32.117C56.1913 32.1562 56.0507 32.3519 55.957 32.5477C55.8046 32.874 55.7812 34.4532 55.7812 43.7068V54.4742H46.6992H37.6172L37.5937 44.3463L37.5586 34.2183L37.2304 33.9051L36.9023 33.5918H30H23.0977L22.7695 33.9051L22.4414 34.2183L22.4063 44.3463L22.3828 54.4742H13.3008H4.21882V53.0516C4.21882 51.8248 4.18366 51.5899 3.97272 51.2897C3.66804 50.859 2.94147 50.8068 2.57819 51.2114C2.36726 51.4463 2.34382 51.6421 2.34382 52.9733V54.4742H1.40632C-0.0350801 54.4742 7.60544e-05 54.3829 7.60544e-05 57.7371C7.60544e-05 60.3083 0.0117948 60.491 0.23445 60.739C0.468825 61 0.621169 61 30 61C59.3788 61 59.5312 61 59.7655 60.739C59.9882 60.491 59.9999 60.3083 59.9999 57.7371C59.9999 54.3829 60.0351 54.4742 58.5937 54.4742H57.6562V43.524V32.5608L57.3515 32.2997C57.0585 32.0387 56.6132 31.9604 56.2734 32.117ZM35.7422 45.0772V54.4742H30H24.2578V50.9503V47.4264H25.0078C25.418 47.4264 25.8516 47.3873 25.957 47.3481C26.2383 47.2176 26.4961 46.565 26.4141 46.1865C26.2852 45.5992 25.8399 45.3382 25.0078 45.3382H24.2578V40.5091V35.6801H30H35.7422V45.0772ZM58.2421 57.7371V58.9118H30H1.75788V57.7371V56.5625H30H58.2421V57.7371Z" fill="#2A396D"/>
<path d="M26.4844 38.1594C26.2617 38.4074 26.25 38.5901 26.25 41.0177V43.628L26.5547 43.889C26.8594 44.15 27.0117 44.1631 30 44.1631C32.9883 44.1631 33.1406 44.15 33.4453 43.889L33.75 43.628V41.0177C33.75 38.5901 33.7383 38.4074 33.5156 38.1594C33.2929 37.9114 33.1289 37.8984 30 37.8984C26.8711 37.8984 26.707 37.9114 26.4844 38.1594ZM31.875 41.0307V42.0748H30H28.125V41.0307V39.9866H30H31.875V41.0307Z" fill="#2A396D"/>
<path d="M6.7383 33.7352C6.19924 34.0745 6.21096 33.8005 6.21096 43.3672C6.22268 53.1689 6.18752 52.7512 6.84377 53.0384C7.3008 53.2211 18.8203 53.2211 19.3242 53.0253C19.5234 52.947 19.7461 52.7773 19.8047 52.6468C19.875 52.4902 19.9219 49.0055 19.9219 43.3411C19.9219 34.6097 19.9101 34.2573 19.6992 33.9701L19.4765 33.6569L13.2188 33.6308C8.82423 33.6047 6.90236 33.6438 6.7383 33.7352ZM12.1875 37.9639V40.2479H10.1367H8.08595V37.9639V35.6799H10.1367H12.1875V37.9639ZM18.0469 37.9639V40.2479H16.0547H14.0625V37.9639V35.6799H16.0547H18.0469V37.9639ZM12.1875 44.5549V46.7737H10.1367H8.08595V44.5549V42.3361H10.1367H12.1875V44.5549ZM18.0469 44.5549V46.7737H16.0547H14.0625V44.5549V42.3361H16.0547H18.0469V44.5549ZM18.0469 49.9713V51.0807H13.0664H8.08595V49.9713V48.8619H13.0664H18.0469V49.9713Z" fill="#2A396D"/>
<path d="M40.582 33.7221C40.4414 33.7874 40.2773 33.9571 40.207 34.1006C40.0429 34.44 40.0312 52.2944 40.1953 52.6468C40.2539 52.7773 40.4765 52.947 40.6758 53.0253C41.1797 53.2211 52.664 53.2211 53.1679 53.0384C53.3671 52.9601 53.5781 52.7512 53.6601 52.5685C53.8007 52.2161 53.8593 34.5966 53.7187 34.179C53.5195 33.6047 53.3202 33.5916 46.9101 33.6047C43.5703 33.6047 40.7226 33.6569 40.582 33.7221ZM45.9375 37.9639V40.2479H43.9453H41.9531V37.9639V35.6799H43.9453H45.9375V37.9639ZM51.914 37.9639V40.2479H49.8632H47.8125V37.9639V35.6799H49.8632H51.914V37.9639ZM45.9375 44.5549V46.7737H43.9453H41.9531V44.5549V42.3361H43.9453H45.9375V44.5549ZM51.914 44.5549V46.7737H49.8632H47.8125V44.5549V42.3361H49.8632H51.914V44.5549ZM51.914 49.9713V51.0807H46.9335H41.9531V49.9713V48.8619H46.9335H51.914V49.9713Z" fill="#2A396D"/>
</svg>
