<svg width="25" height="25" viewBox="0 0 25 25" fill="none" xmlns="http://www.w3.org/2000/svg">
<g clip-path="url(#clip0_1072_56175)">
<path d="M12.174 19.1185C12.0959 19.2058 12.0418 19.2722 11.9813 19.3327C10.1642 21.1519 8.34652 22.9697 6.52816 24.7875C6.45459 24.861 6.37581 24.9294 6.29899 25.0004H6.10368C5.81852 24.7354 5.53337 24.4704 5.22933 24.1878C5.30094 24.1051 5.35498 24.0381 5.41423 23.9756C6.35563 22.9742 7.29899 21.9735 8.2404 20.9715C8.3068 20.9005 8.37646 20.8283 8.42399 20.7449C8.53076 20.5594 8.48389 20.3269 8.31592 20.1954C8.14209 20.0587 7.95524 20.0554 7.77425 20.1804C7.70199 20.2306 7.64404 20.3022 7.58219 20.3673C6.59587 21.4155 5.60954 22.4644 4.64534 23.4892C4.23063 23.0745 3.81982 22.663 3.3986 22.2418C3.78532 21.8531 4.2085 21.4273 4.63298 21.0015C4.93506 20.6981 4.98128 20.4331 4.76709 20.2254C4.55941 20.0235 4.3029 20.0704 4.00928 20.3627C3.59456 20.7768 3.17985 21.1903 2.76514 21.6037C2.75407 21.6141 2.73714 21.6193 2.74691 21.6141C2.32438 21.1922 1.90837 20.7755 1.48193 20.3497C2.17008 19.7078 3.00277 19.3034 3.95784 19.1394C4.618 19.0261 5.26839 19.1185 5.92399 19.1954C7.34001 19.362 8.63167 19.0124 9.80355 18.207C9.84977 18.1758 9.89665 18.1458 9.96631 18.0996C10.1388 18.4544 10.4604 18.5749 10.8042 18.6719C11.1948 18.7819 11.5796 18.9122 11.967 19.0352C12.0256 19.0534 12.0822 19.0814 12.174 19.1185Z" fill="#4C40ED"/>
<path d="M9.83594 16.9052C9.83789 16.9846 9.77213 17.0869 9.70768 17.1428C8.59961 18.1038 7.30924 18.5186 5.86393 18.2874C3.96549 17.9847 2.30208 18.4137 0.865885 19.699C0.854167 19.7094 0.837891 19.7139 0.767578 19.7777C0.511719 19.4997 0.255859 19.2224 0 18.945V18.7009C0.094401 18.6013 0.185547 18.4984 0.282552 18.4014C2.3418 16.3414 4.40169 14.2814 6.46094 12.222C6.52279 12.1608 6.58724 12.1022 6.68685 12.0078C6.70378 12.2891 6.72005 12.528 6.73177 12.767C6.74219 12.9786 6.71615 13.1967 6.76042 13.3998C6.85417 13.8354 6.70312 14.1329 6.38086 14.4324C5.66667 15.0972 4.99284 15.8055 4.30273 16.4963C4.2513 16.5478 4.19727 16.5979 4.14974 16.6539C3.98242 16.8512 3.98568 17.0992 4.1543 17.2705C4.32096 17.4384 4.58268 17.4495 4.77083 17.2822C4.92904 17.1415 5.07357 16.9866 5.22331 16.8375C5.92513 16.1356 6.62956 15.4357 7.32682 14.7293C7.43815 14.616 7.52995 14.5861 7.6875 14.6375C8.3737 14.8621 9.06575 15.0698 9.76497 15.2866C9.79102 15.8335 9.82292 16.3694 9.83594 16.9052Z" fill="#4C40ED"/>
<path d="M25 6.05408V6.29824C24.8659 6.43822 24.7337 6.5808 24.5964 6.71818C22.8939 8.42204 21.1901 10.1246 19.4883 11.8291C19.4258 11.8923 19.3776 11.9698 19.306 12.0629C19.1634 11.9372 19.0586 11.8402 18.9492 11.7484C18.6504 11.4977 18.3197 11.4339 17.9466 11.5648C17.8757 11.5895 17.7546 11.5739 17.7012 11.5264C17.4089 11.2679 17.1309 10.9938 16.8034 10.6819C17.0508 10.4475 17.2995 10.2288 17.5286 9.99114C17.7734 9.73656 17.6973 9.36675 17.3874 9.25217C17.1895 9.17924 17.0195 9.23784 16.8783 9.38629C16.6543 9.62067 16.4323 9.85636 16.1986 10.1031C15.64 9.57119 15.1172 9.07247 14.5762 8.55617C15.0495 8.1245 15.5801 7.82436 16.1667 7.61536C16.9922 7.32173 17.834 7.30415 18.6934 7.43306C20.5137 7.70456 22.1035 7.20193 23.4577 5.96098C23.7018 5.73636 23.918 5.48179 24.1986 5.1875C24.4863 5.49871 24.7435 5.77672 25 6.05408Z" fill="#4C40ED"/>
<path d="M16.7935 11.9035C16.759 11.8696 16.7232 11.8358 16.688 11.8019C13.7414 8.99706 10.7948 6.19158 7.84816 3.38675C6.79933 2.388 5.7518 1.38794 4.70167 0.390496C4.40089 0.104022 4.19126 0.106627 3.9074 0.399611C3.11964 1.2115 2.32928 2.02079 1.55259 2.84245C1.45102 2.94987 1.36248 3.12371 1.36378 3.2663C1.36964 3.933 1.41001 4.5997 1.43605 5.2664C1.44712 5.53595 1.57537 5.69481 1.841 5.77294C2.50246 5.96891 3.16131 6.17595 3.81756 6.39016C4.21665 6.52037 4.42628 6.8114 4.44647 7.22614C4.47902 7.89284 4.51027 8.55954 4.53826 9.22559C4.55324 9.58694 4.63722 9.70348 4.97446 9.80765C5.5643 9.98865 6.1548 10.169 6.74399 10.3513C7.32667 10.531 7.53501 10.8051 7.5617 11.4113C7.59165 12.1105 7.62941 12.8091 7.65285 13.5084C7.65806 13.6555 7.70819 13.718 7.84686 13.7597C8.54673 13.97 9.24464 14.1874 9.94191 14.4075C10.4302 14.5625 10.6301 14.8144 10.6594 15.3307C10.6997 16.0619 10.7238 16.7937 10.7668 17.5249C10.772 17.6082 10.8397 17.7358 10.9074 17.7605C11.2811 17.894 11.6639 18.0014 12.022 18.1115C12.1789 17.9012 12.3013 17.7111 12.4491 17.5431C12.8514 17.0847 13.2642 16.6348 13.673 16.1823C14.7245 15.0163 15.7772 13.8508 16.828 12.6835C17.0858 12.3976 17.0734 12.1769 16.7935 11.9035ZM5.22446 2.91862C5.10923 2.98829 4.87615 3.01042 4.7824 2.93881C4.48358 2.70898 4.19582 2.44985 3.96014 2.15686C3.7492 1.89383 3.98943 1.50644 4.33058 1.50383C4.60532 1.50188 5.43735 2.26755 5.41847 2.53905C5.40871 2.67447 5.32993 2.85547 5.22446 2.91862ZM10.5877 7.8987C10.4068 8.08686 10.1496 8.09207 9.93605 7.88893C8.63332 6.65319 7.33384 5.41354 6.03436 4.1739C5.87811 4.0248 5.80389 3.83403 5.92368 3.64783C6.00636 3.51891 6.16326 3.43818 6.29347 3.3301C6.44386 3.41474 6.56496 3.45511 6.64829 3.53454C7.95233 4.76898 9.25246 6.00733 10.55 7.24828C10.7564 7.44555 10.7629 7.71705 10.5877 7.8987Z" fill="#4C40ED"/>
<path d="M24.851 18.5579C24.737 18.2903 24.5574 18.026 24.3438 17.8287C23.0639 16.649 21.765 15.4894 20.4727 14.3233C19.7605 13.6807 19.0476 13.0381 18.3087 12.3721C18.2071 12.4841 18.1257 12.5733 18.045 12.6631C17.517 13.2491 16.9883 13.8357 16.4603 14.4217C15.3432 15.6607 14.2253 16.8983 13.112 18.1399C13.043 18.2174 12.9656 18.3333 12.9721 18.4258C13.004 18.888 13.0574 19.349 13.1166 19.808C13.129 19.9031 13.1784 20.0144 13.2481 20.0775C14.9109 21.5867 16.5743 23.0946 18.2507 24.5889C18.4232 24.7425 18.6674 24.8584 18.8952 24.8988C19.6075 25.0244 20.2377 24.8167 20.7279 24.2789C22.0215 22.8596 23.3021 21.4292 24.5899 20.0053C24.9792 19.5749 25.0723 19.0795 24.851 18.5579ZM22.9623 19.0749C21.7566 20.4181 20.5476 21.7573 19.3334 23.0927C19.2527 23.1812 19.1231 23.2255 18.9975 23.301C18.8659 23.2288 18.7396 23.1864 18.6485 23.1051C17.9922 22.5217 17.3412 21.9325 16.6921 21.3413C16.4493 21.1199 16.435 20.8823 16.6557 20.6375C17.851 19.3073 19.0495 17.9798 20.2494 16.6535C20.474 16.4055 20.7045 16.3879 20.9519 16.608C21.614 17.1972 22.2715 17.791 22.9258 18.3887C23.1602 18.6022 23.1752 18.8379 22.9623 19.0749Z" fill="#4C40ED"/>
<path d="M22.259 3.37999C22.2218 3.41515 22.1672 3.46267 22.1157 3.51411C21.7524 3.87546 21.395 4.24331 21.0246 4.5975C20.8267 4.78761 20.5669 4.77524 20.3924 4.59294C20.2244 4.41715 20.2231 4.17495 20.3963 3.97702C20.4875 3.8735 20.5897 3.7791 20.688 3.68209C21.0096 3.36371 21.3312 3.04664 21.6242 2.75691C21.1834 2.31743 20.7713 1.90726 20.3462 1.4834C19.9588 1.87535 19.5558 2.28944 19.145 2.69506C18.9438 2.89363 18.6691 2.89363 18.492 2.71394C18.3097 2.52903 18.3156 2.27251 18.5194 2.06286C18.8143 1.76011 19.1125 1.45931 19.4178 1.16698C19.533 1.05695 19.6743 0.973613 19.8299 0.858372C19.5604 0.601848 19.3696 0.424756 19.1847 0.242455C18.8592 -0.0785255 18.7635 -0.0811298 18.4458 0.236595C16.4549 2.22758 14.4647 4.21792 12.4744 6.20891C12.4191 6.26425 12.367 6.3235 12.3013 6.39382C12.8468 6.91272 13.3807 7.42056 13.9178 7.93166C13.981 7.88087 14.0252 7.84637 14.0688 7.81056C15.4035 6.70959 16.9256 6.2597 18.6392 6.53575C20.6554 6.85999 22.2505 6.14706 23.5116 4.62289C23.0942 4.20881 22.6802 3.79798 22.259 3.37999ZM17.897 3.9308C17.4653 4.38395 17.0181 4.82277 16.5688 5.25899C16.5044 5.32215 16.3983 5.34233 16.259 5.40614C16.1444 5.31629 15.9673 5.24402 15.9185 5.12031C15.8651 4.98554 15.8683 4.7479 15.9543 4.65219C16.3735 4.18797 16.8234 3.7511 17.2752 3.31683C17.438 3.16058 17.6932 3.18597 17.8534 3.33506C18.0187 3.48872 18.0584 3.76152 17.897 3.9308Z" fill="#4C40ED"/>
</g>
<defs>
<clipPath id="clip0_1072_56175">
<rect width="25" height="25" fill="white"/>
</clipPath>
</defs>
</svg>
