<svg width="25" height="25" viewBox="0 0 25 25" fill="none" xmlns="http://www.w3.org/2000/svg">
<path d="M8.03516 15.6396V17.1872C8.03451 18.109 7.69741 18.5355 6.7974 18.7529C6.78373 18.7562 6.77267 18.7718 6.75184 18.7881C6.81952 19.2816 6.88916 19.7803 6.95618 20.279C7.06421 21.0843 7.20022 21.887 7.26986 22.6963C7.33493 23.4443 6.8 24.0225 6.04771 24.1025C5.38002 24.1729 4.74357 23.6676 4.63228 22.9639C4.54378 22.402 4.47154 21.8376 4.39345 21.2738C4.27826 20.4385 4.16373 19.6025 4.04594 18.7503C3.89301 18.7503 3.7557 18.751 3.61903 18.7503C2.80557 18.7432 2.24526 18.1839 2.23615 17.3669C2.23224 17.0173 2.2355 16.667 2.2355 16.3174V15.6436H1.01855C1.02441 15.7021 1.02441 15.7432 1.03287 15.7822C1.62182 18.4893 2.21012 21.1956 2.80167 23.902C2.91946 24.4398 3.24419 24.7946 3.77522 24.9548C3.8045 24.9632 3.82923 24.9847 3.85591 25.0003H21.1339C21.7274 24.8018 22.0853 24.4183 22.2187 23.7848C22.6996 21.5036 23.2066 19.2275 23.7031 16.9502C23.7975 16.5166 23.8879 16.0824 23.9823 15.6396H8.03516ZM10.5211 24.0654C9.9211 24.2178 9.2905 23.9521 9.01132 23.404C8.92151 23.2275 8.85709 23.0205 8.84667 22.8245C8.75687 21.1917 8.67812 19.5589 8.60654 17.9255C8.57335 17.167 9.14473 16.5537 9.89441 16.5146C10.6116 16.4769 11.2396 17.0576 11.2799 17.8018C11.3261 18.6462 11.3658 19.4912 11.4088 20.3363C11.4459 21.1488 11.496 21.9613 11.5155 22.7738C11.5305 23.3857 11.1022 23.9183 10.5211 24.0654ZM16.38 17.9626C16.3605 18.3604 16.337 18.7581 16.3182 19.1566C16.2986 19.5459 16.283 19.9365 16.2655 20.3265C16.2648 20.3258 16.2635 20.3258 16.2629 20.3258C16.2251 21.1383 16.1893 21.9508 16.1496 22.7633C16.1112 23.5524 15.5119 24.1351 14.768 24.111C14.0177 24.0869 13.4424 23.4749 13.475 22.6878C13.5433 21.0303 13.6253 19.3727 13.7177 17.7165C13.7561 17.0244 14.4121 16.4756 15.1051 16.5179C15.8665 16.5641 16.419 17.1891 16.38 17.9626ZM21.0428 18.0244C20.9289 18.8577 20.8013 19.7992 20.6718 20.7399C20.5697 21.4801 20.4772 22.2217 20.3595 22.9593C20.241 23.7021 19.615 24.1605 18.8692 24.0791C18.1774 24.0029 17.6549 23.3923 17.7206 22.6605C17.7883 21.9007 17.9119 21.1462 18.0154 20.3903C18.1403 19.473 18.2653 18.5557 18.3993 17.6403C18.5067 16.9079 19.136 16.4313 19.8818 16.5036C20.5697 16.5706 21.0857 17.195 21.0428 18.0244Z" fill="#4C40ED"/>
<path d="M24.872 1.63021C24.6996 1.82422 24.516 2.00977 24.3228 2.18294C24.1249 2.36003 23.8887 2.34701 23.6876 2.1569C23.4696 1.95052 23.2633 1.73112 23.0473 1.52214C22.7948 1.27734 22.552 1.27865 22.3073 1.53125C21.844 2.01042 21.391 2.4987 20.9199 2.97005C20.8353 3.05469 20.6889 3.10938 20.5672 3.11784C20.2678 3.13932 19.9659 3.11523 19.6659 3.12891C19.4862 3.13737 19.3704 3.08594 19.2624 2.93359C18.9428 2.48307 18.5986 2.05013 18.2739 1.60352C18.1365 1.41406 17.9654 1.32813 17.7357 1.33333C17.4851 1.33919 17.2346 1.33464 16.9365 1.33464V0H23.7696C24.1451 0.356771 24.531 0.703776 24.8915 1.07552C25.0516 1.24023 25.0256 1.45833 24.872 1.63021Z" fill="#4C40ED"/>
<path d="M2.21718 12.9434V14.7371H1.37052C1.11087 14.7371 0.850557 14.7305 0.5909 14.739C0.32083 14.7488 0.115186 14.6609 0 14.4044V13.2325C0.154883 13.004 0.368336 12.9291 0.643612 12.9382C1.16163 12.9558 1.68094 12.9434 2.21718 12.9434Z" fill="#4C40ED"/>
<path d="M16.0576 0H14.7397V1.32292H16.0576V0Z" fill="#4C40ED"/>
<path d="M7.1357 13.8566C7.1357 14.9953 7.13635 16.134 7.13505 17.2726C7.13505 17.714 6.99058 17.8605 6.55261 17.8618C5.60118 17.8631 4.64975 17.8631 3.69898 17.8612C3.27923 17.8605 3.12435 17.7036 3.1237 17.2856C3.1237 14.9842 3.12305 12.6821 3.12435 10.3807C3.12435 9.9777 3.28184 9.8195 3.68531 9.81885C4.65301 9.81689 5.6207 9.81689 6.58775 9.81885C6.97886 9.8195 7.1344 9.97575 7.13505 10.3677C7.137 11.5304 7.1357 12.6938 7.1357 13.8566Z" fill="#4C40ED"/>
<path d="M24.9882 14.2448C24.9817 14.5436 24.821 14.7109 24.5249 14.7344C24.4526 14.7402 24.3791 14.737 24.3056 14.737H8.04932V12.9434H24.385C24.8418 12.9434 24.9882 13.0885 24.9895 13.5371C24.9902 13.7728 24.9934 14.0091 24.9882 14.2448Z" fill="#4C40ED"/>
<path d="M13.3823 11.8672C13.3823 11.9219 13.3739 11.9772 13.368 12.0436H12.4947V9.9857C12.4947 9.59052 12.3444 9.38284 12.0567 9.37698C11.7613 9.37112 11.607 9.58271 11.6064 9.99482C11.6057 10.6693 11.6064 11.3431 11.6064 12.0371H8.03496V11.4356C8.03496 11.0944 8.02975 10.7526 8.03561 10.4108C8.04733 9.76956 7.78246 9.29885 7.17529 9.0137C7.21824 8.51565 7.392 8.05927 7.66662 7.64065C8.4098 6.50719 9.82913 5.98375 11.1281 6.3581C12.4342 6.73505 13.3563 7.9206 13.3784 9.28062C13.3928 10.1426 13.3823 11.0046 13.3823 11.8672Z" fill="#4C40ED"/>
<path d="M6.73272 7.50796C6.54074 7.95979 6.38716 8.42789 6.20364 8.93179H5.85613C5.09928 8.93179 4.34309 8.92789 3.58624 8.93309C2.81313 8.9383 2.24891 9.49755 2.23785 10.2716C2.22939 10.8563 2.23589 11.4403 2.23589 12.0405H1.36842C1.35931 12.0177 1.34239 11.9956 1.34239 11.9735C1.34629 11.0138 1.29683 10.0496 1.36972 9.09455C1.46864 7.80093 2.18123 6.89273 3.39752 6.44742C4.61576 6.00145 5.71361 6.27815 6.66504 7.1564C6.77957 7.26252 6.80105 7.34651 6.73272 7.50796Z" fill="#4C40ED"/>
<path d="M22.8666 12.0492H17.1392C17.4294 11.5635 17.7457 11.1078 17.9839 10.6143C18.2155 10.1345 18.373 9.61754 18.5507 9.11233C18.5988 8.97496 18.6626 8.92743 18.809 8.92874C19.6791 8.9359 20.5492 8.92939 21.4193 8.9372C21.4987 8.93785 21.6178 8.98603 21.651 9.04853C22.1488 9.98212 22.5549 10.9554 22.8614 11.9698C22.8679 11.9919 22.8646 12.0166 22.8666 12.0492Z" fill="#4C40ED"/>
<path d="M8.95215 2.33757V5.51855C9.40443 5.46517 9.8372 5.37207 10.2693 5.37337C10.7086 5.37533 11.1478 5.46973 11.5956 5.52441V2.33301C10.7105 2.64225 9.83459 2.65007 8.95215 2.33757ZM10.255 4.45605C10.0181 4.45215 9.82288 4.26139 9.81702 4.02702C9.81052 3.78809 10.0188 3.57389 10.2589 3.57064C10.5023 3.56803 10.7034 3.77051 10.7027 4.01855C10.7021 4.27246 10.5101 4.46061 10.255 4.45605Z" fill="#4C40ED"/>
<path d="M5.78917 3.11893H3.16136C3.01493 2.54927 3.20951 1.93664 3.65594 1.61373C4.12124 1.27649 4.62494 1.23807 5.12343 1.51998C5.73711 1.86828 5.8575 2.44641 5.78917 3.11893Z" fill="#4C40ED"/>
<path d="M5.89007 23.1979C5.6597 23.1634 5.5367 23.0163 5.50547 22.7897C5.39483 21.9935 5.28355 21.1979 5.17357 20.4017C5.09938 19.8633 5.02715 19.3249 4.94971 18.7598H5.84452C5.94539 19.4805 6.0456 20.1934 6.14452 20.9062C6.22392 21.4772 6.30136 22.0482 6.38075 22.6191C6.43151 22.9876 6.21611 23.2467 5.89007 23.1979Z" fill="#4C40ED"/>
<path d="M5.78714 4.02539V5.57812C4.90405 5.29297 4.02681 5.28125 3.13721 5.58398V4.02539H5.78714Z" fill="#4C40ED"/>
<path d="M16.9398 4.48861C16.9365 4.61165 16.8344 4.7653 16.7315 4.84798C16.3216 5.17871 15.8953 5.48991 15.4697 5.80176C15.2354 5.97363 14.9784 5.94303 14.8209 5.74056C14.6666 5.54329 14.7057 5.27376 14.9296 5.09733C15.2094 4.87598 15.4944 4.65983 15.786 4.4541C15.9832 4.31478 16.0704 4.1429 16.0658 3.89876C16.0541 3.35645 16.0619 2.81413 16.0619 2.25488H16.9495C16.9495 3.0127 16.9593 3.75098 16.9398 4.48861Z" fill="#4C40ED"/>
<path d="M21.4205 8.01774H18.7426C18.7426 7.71956 18.7361 7.43571 18.7446 7.15251C18.7524 6.88428 18.9196 6.70329 19.1878 6.69808C19.78 6.68766 20.3728 6.68831 20.9657 6.69743C21.2338 6.70199 21.4069 6.87712 21.4179 7.14404C21.4297 7.42725 21.4205 7.71175 21.4205 8.01774Z" fill="#4C40ED"/>
<path d="M20.5144 4.02734H19.645V5.79362H20.5144V4.02734Z" fill="#4C40ED"/>
<path d="M10.7024 4.01923C10.7017 4.27314 10.5098 4.46064 10.2547 4.45673C10.0171 4.45282 9.82255 4.26207 9.81604 4.02704C9.81018 3.78876 10.0178 3.57392 10.2579 3.57131C10.502 3.56871 10.703 3.77118 10.7024 4.01923Z" fill="white"/>
<path d="M20.1562 17.917C20.054 18.6696 19.9499 19.4346 19.8458 20.1989C19.7377 20.988 19.6291 21.777 19.5204 22.5654C19.5087 22.654 19.4963 22.7432 19.4781 22.8304C19.4215 23.098 19.2243 23.2393 18.9666 23.2008C18.7336 23.1657 18.5729 22.9658 18.6002 22.7067C18.6438 22.3031 18.7063 21.9014 18.7616 21.499C18.9184 20.3558 19.0753 19.2126 19.2321 18.07C19.2445 17.9814 19.2568 17.8929 19.2744 17.805C19.3284 17.5322 19.5165 17.389 19.7755 17.4216C20.0117 17.4502 20.164 17.6442 20.1562 17.917Z" fill="#4C40ED"/>
<path d="M10.2166 23.2068C9.93803 23.2244 9.75256 23.0506 9.73499 22.7166C9.67316 21.563 9.62175 20.4093 9.56709 19.2557C9.54626 18.8169 9.52414 18.3781 9.50982 17.9393C9.49876 17.6202 9.6569 17.4295 9.92566 17.4184C10.2003 17.4074 10.3812 17.6014 10.3968 17.9223C10.4352 18.727 10.4736 19.531 10.5263 20.6281C10.5504 21.1072 10.5908 21.8787 10.6278 22.6508C10.6441 22.9803 10.486 23.1899 10.2166 23.2068Z" fill="#4C40ED"/>
<path d="M15.4836 17.9243C15.4387 18.8657 15.3964 19.8071 15.3521 20.7485C15.3222 21.3976 15.2949 22.0473 15.2591 22.6964C15.2421 23.0017 15.1178 23.1593 14.892 23.199C14.5744 23.255 14.3434 23.0336 14.3597 22.6743C14.3955 21.8872 14.4378 21.1 14.4775 20.3136C14.4768 20.3136 14.4768 20.3136 14.4762 20.3136C14.5152 19.5102 14.5536 18.7068 14.5933 17.9034C14.6109 17.5401 14.8842 17.3266 15.1953 17.4412C15.4152 17.5226 15.494 17.6977 15.4836 17.9243Z" fill="#4C40ED"/>
</svg>
