<svg width="60" height="60" viewBox="0 0 60 60" fill="none" xmlns="http://www.w3.org/2000/svg">
<path d="M29.5654 0.0866051C29.271 0.185555 29.0047 0.544243 28.3458 1.71926C26.3411 5.25667 26.0047 6.65432 26.8318 7.96539C27.2664 8.64566 27.8972 9.15277 28.5981 9.37541C28.9346 9.47436 29.0187 9.57331 29.0187 9.85778V10.2165H28.0935C27.0561 10.2165 26.5234 10.4267 26.1589 10.9586C25.9626 11.2678 25.9346 11.9233 25.9346 16.5739V21.8429L15.3224 21.8677L4.69626 21.9048L3.92523 22.2264C2.22897 22.9314 1.1215 24.2672 0.827103 25.9369C0.742991 26.4069 0.700935 28.3364 0.728972 30.4515L0.771028 34.1497L1.14953 34.731C1.64019 35.4607 2.42523 35.8194 3.54673 35.8194H4.34579V44.3537V52.8881H3.47664C2.31308 52.8881 1.7243 53.0489 1.06542 53.5312C0.11215 54.2239 0 54.6073 0 57.2294C0 59.4063 0.0140187 59.5424 0.294393 59.765C0.588785 60 1.2757 60 30 60C58.7243 60 59.4112 60 59.7056 59.765C59.986 59.5424 60 59.4063 60 57.2294C60 54.6197 59.8738 54.2115 58.9626 53.5436C58.3178 53.0736 57.6168 52.8881 56.5093 52.8881H55.6542V44.3537V35.8194H56.5234C57.6168 35.8194 58.3878 35.4484 58.8785 34.6815C59.229 34.1497 59.229 34.1373 59.271 30.4515C59.2991 28.3364 59.257 26.4069 59.1729 25.9369C58.8785 24.2672 57.771 22.9314 56.0748 22.2264L55.3037 21.9048L44.6916 21.8677L34.0654 21.8429V16.5739C34.0654 11.9233 34.0374 11.2678 33.8411 10.9586C33.4766 10.4267 32.9439 10.2165 31.9065 10.2165H30.9813V9.85778C30.9813 9.57331 31.0654 9.47436 31.4019 9.37541C32.1028 9.15277 32.7336 8.64566 33.1682 7.96539C33.9813 6.66669 33.6729 5.33088 31.7523 1.88005C30.785 0.123711 30.4065 -0.185505 29.5654 0.0866051ZM30.6028 4.05692C31.2617 5.42983 31.5701 6.40695 31.4579 6.80275C31.3178 7.29749 30.6308 7.74276 30 7.74276C29.3692 7.74276 28.6822 7.29749 28.5421 6.80275C28.486 6.62959 28.5421 6.17195 28.6682 5.78852C28.9626 4.88562 29.8598 3.0427 30 3.0427C30.0561 3.0427 30.3364 3.50033 30.6028 4.05692ZM32.1028 16.8955V21.8429H30H27.8972V16.8955V11.9481H30H32.1028V16.8955ZM55.1636 23.8961C55.8785 24.2424 56.4393 24.7372 56.8318 25.368C57.1121 25.838 57.1262 26.0483 57.1682 29.7217C57.2103 33.4818 57.2103 33.5807 56.9159 33.8405C56.6495 34.0755 56.6075 34.0755 56.1028 33.9023C55.8224 33.791 55.1636 33.4447 54.6308 33.1231C52.2897 31.676 51.2383 31.2802 49.4019 31.1565C47.3832 31.0204 45.5467 31.5152 43.6542 32.7273C42.0701 33.7415 41.1729 34.0878 39.8972 34.1744C38.1729 34.2857 36.8692 33.9023 35.257 32.7891C33.5327 31.6017 32.1589 31.1812 30 31.1812C27.8411 31.1812 26.4673 31.6017 24.743 32.7891C23.1308 33.9023 21.8271 34.2857 20.1028 34.1744C18.8411 34.0878 17.8318 33.7044 16.472 32.8015C14.8037 31.676 13.6963 31.2802 11.8458 31.1565C9.61682 31.0081 7.97663 31.4781 5.84579 32.8386C3.8972 34.0878 3.07009 34.2857 2.87383 33.556C2.81776 33.3952 2.80374 31.6017 2.83178 29.5733C2.87383 26.0483 2.88785 25.838 3.16822 25.368C3.70093 24.5022 4.54206 23.9085 5.53738 23.6859C5.7757 23.6364 16.9065 23.6116 30.2804 23.6116L54.6028 23.6364L55.1636 23.8961ZM13.528 33.3952C13.9766 33.5683 14.7897 34.026 15.3364 34.397C16.528 35.201 17.5935 35.6463 18.8832 35.8813C21.4065 36.3513 23.7056 35.8565 26.0187 34.3105C27.5888 33.2591 28.2477 33.0489 30 33.0365C31.3178 33.0365 31.5561 33.0736 32.3131 33.3828C32.7757 33.5807 33.6028 34.026 34.1495 34.397C35.986 35.6463 37.8224 36.1534 39.9393 36.0297C41.8738 35.906 43.0374 35.4978 44.8178 34.2981C46.3037 33.2962 47.1308 33.0489 48.8551 33.0365C50.0888 33.0365 50.3551 33.086 51.0701 33.3705C51.5187 33.556 52.3037 33.9765 52.7944 34.2981L53.6916 34.8794V39.7526V44.6382L53.1869 44.564C52.4579 44.4527 51.0841 43.8466 50.1168 43.1911C48.4766 42.0779 46.3598 41.5337 44.1729 41.6698C42.2523 41.7811 40.9766 42.2387 38.8738 43.5374C37.514 44.3909 36.6308 44.6506 34.9766 44.6506C33.1963 44.663 32.4813 44.4527 30.715 43.389C29.986 42.9437 29.0467 42.449 28.6542 42.2882C27.0561 41.645 24.9112 41.4719 23.0888 41.8306C21.771 42.0903 21.0981 42.3748 19.528 43.3148C18.0421 44.2053 16.9907 44.5888 15.757 44.6877C14.0888 44.8238 12.5047 44.3909 10.9486 43.3766C9.51869 42.449 8.43925 42.0285 6.70093 41.6945L6.30841 41.6327V38.256V34.8918L7.06542 34.3723C8.67757 33.2839 9.71495 32.9623 11.4393 33.0241C12.4486 33.0489 12.8832 33.1354 13.528 33.3952ZM7.33178 43.7353C7.92056 43.8961 8.64953 44.2424 9.40654 44.7248C10.9206 45.6896 12 46.1348 13.3458 46.3822C16.0374 46.8769 18.3224 46.3946 20.7757 44.8361C22.1776 43.9332 23.1589 43.5993 24.6168 43.5251C26.4533 43.4137 27.715 43.7848 29.4673 44.9227C30.6168 45.6648 31.8224 46.1472 33.1121 46.3822C34.4439 46.6296 35.285 46.6296 36.6168 46.4069C37.9766 46.1719 38.9439 45.7885 40.5701 44.799C42.1682 43.8343 43.3037 43.4879 44.7897 43.4879C46.3178 43.4879 47.3832 43.8343 49.1916 44.898C50.8178 45.8627 51.9252 46.308 53.0187 46.4193L53.6916 46.4935V49.6846V52.8881H30H6.30841V48.188C6.30841 45.603 6.33645 43.4879 6.36449 43.4879C6.39252 43.4879 6.8271 43.5993 7.33178 43.7353ZM57.6168 54.9907C57.8692 55.2134 57.8972 55.3989 57.8972 56.7223V58.2066H30H2.1028V56.7223C2.1028 55.3989 2.13084 55.2134 2.38318 54.9907C2.66355 54.7434 2.84579 54.7434 30 54.7434C57.1542 54.7434 57.3364 54.7434 57.6168 54.9907Z" fill="#2A396D"/>
</svg>
