<svg width="25" height="25" viewBox="0 0 25 25" fill="none" xmlns="http://www.w3.org/2000/svg">
<path d="M22.2856 7.37353C22.8628 7.37256 23.4409 7.354 24.0166 7.37891C24.4707 7.39893 24.8052 7.2583 25 6.83594V3.51562C24.8052 3.09326 24.4702 2.9707 24.0171 2.97217C19.5391 2.98291 15.061 2.97852 10.583 2.97852H10.2539V2.73779C10.2539 2.15283 10.2349 1.56689 10.2598 0.982422C10.2793 0.528809 10.1392 0.194336 9.7168 0H6.39648C5.97461 0.194824 5.83594 0.528809 5.85303 0.98291C5.87793 1.63818 5.85938 2.29492 5.85938 2.97852H5.57959C4.52344 2.97852 3.4668 2.9917 2.41064 2.97266C1.93359 2.96387 1.64209 3.15381 1.43652 3.58105C0.974121 4.54346 0.480957 5.4917 0 6.44531V6.78711C0.158691 7.23584 0.485352 7.38525 0.946777 7.37842C2.08447 7.36182 3.22217 7.37305 4.39453 7.37305C4.39453 7.60156 4.39258 7.81738 4.39502 8.0332C4.40088 8.54102 4.69287 8.83203 5.20117 8.8374C5.41113 8.83984 5.62109 8.83789 5.84521 8.83789V23.521H4.40771V22.0215H0V24.4629C0.179199 24.6421 0.35791 24.8208 0.537109 25H19.1406C19.1406 23.7793 19.1367 22.5586 19.1426 21.3379C19.145 20.7544 19.6802 20.3916 20.1792 20.6289C20.4839 20.7744 20.6069 21.0317 20.6064 21.3623C20.604 22.5752 20.6055 23.7876 20.6055 25H24.4629C24.6421 24.8208 24.8208 24.6421 25 24.4629V24.0723C24.7124 23.3926 24.0991 23.5527 23.5488 23.5327V20.1602C23.626 20.229 23.6826 20.2798 23.7393 20.3306C24.1519 20.7002 24.6841 20.605 24.938 20.1162C24.9561 20.0825 24.9795 20.0518 25 20.0195V19.6289C24.8438 19.436 24.7026 19.228 24.5283 19.0527C23.1919 17.708 21.8496 16.3691 20.5083 15.0298C20.0635 14.5854 19.686 14.582 19.249 15.0186C17.8555 16.4102 16.4634 17.8022 15.0713 19.1953C14.9971 19.2695 14.9214 19.3467 14.8643 19.4341C14.6724 19.7266 14.7212 20.1069 14.9727 20.3491C15.2256 20.5928 15.603 20.626 15.8906 20.4224C15.9893 20.3525 16.0757 20.2646 16.1899 20.166V23.519H10.2671V8.83789C10.395 8.83789 10.5298 8.82861 10.6631 8.83936C11.4141 8.89893 11.7832 8.58301 11.7202 7.76953C11.7104 7.64893 11.7188 7.52734 11.7188 7.38965H20.5913V8.83789H20.3672C19.7485 8.83789 19.1304 8.83643 18.5122 8.83838C17.9692 8.84033 17.6777 9.12598 17.6763 9.66162C17.6738 10.5811 17.6738 11.5005 17.6768 12.4199C17.6782 12.9409 17.9727 13.231 18.4995 13.2319C20.3384 13.2334 22.1772 13.2227 24.0156 13.2393C24.4697 13.2437 24.8052 13.1182 25 12.6953V9.375C24.8062 8.95117 24.4702 8.81445 24.0171 8.83154C23.3779 8.85596 22.7368 8.83789 22.0835 8.83789V7.38721C22.147 7.38281 22.2163 7.37402 22.2856 7.37353ZM4.37695 5.90234H1.92188C2.06592 5.61475 2.23535 5.36182 2.32275 5.08301C2.48975 4.55029 2.80615 4.34863 3.3623 4.43408C3.68701 4.48438 4.02637 4.44336 4.37695 4.44336V5.90234ZM7.33691 1.48389H8.77197V2.96729H7.33691V1.48389ZM7.3252 8.84277H8.77051V12.1484C8.71631 12.105 8.66699 12.0718 8.62549 12.0308C8.23389 11.6406 7.84229 11.2505 7.4541 10.8564C7.40039 10.8022 7.33154 10.7275 7.33057 10.6616C7.32129 10.062 7.3252 9.4624 7.3252 8.84277ZM7.34521 18.8022C7.67432 19.1304 8.04102 19.4966 8.41406 19.8682C8.08301 20.1997 7.72168 20.561 7.34521 20.9385V18.8022ZM7.34229 15.0444V12.9136C7.68799 13.2612 8.0542 13.6289 8.40576 13.9829C8.07129 14.3169 7.70605 14.6812 7.34229 15.0444ZM7.69189 16.895C8.04297 16.5449 8.4082 16.1807 8.77002 15.8203V17.9722C8.40771 17.6099 8.04248 17.2451 7.69189 16.895ZM8.77246 23.5225H7.34766C7.27051 23.2261 7.3457 23.0083 7.57031 22.8032C7.97559 22.4316 8.35254 22.0293 8.77246 21.6084V23.5225ZM19.8809 17.6289C20.2798 17.6333 20.6079 17.9683 20.6035 18.3667C20.5991 18.7656 20.2637 19.0942 19.8652 19.0898C19.4668 19.0854 19.1382 18.75 19.1426 18.3516C19.147 17.9521 19.4819 17.6245 19.8809 17.6289ZM14.7148 4.90186C14.4224 5.1958 14.1304 5.48975 13.8335 5.77979C13.7788 5.83301 13.7041 5.90088 13.6377 5.90186C13.0063 5.91113 12.374 5.90723 11.7305 5.90723V4.46143H15.1455C14.9902 4.62061 14.8535 4.76221 14.7148 4.90186ZM15.8677 5.89453C16.228 5.53467 16.5923 5.1709 16.9355 4.82812C17.2778 5.17041 17.6455 5.53857 18.0015 5.89453H15.8677ZM19.8276 5.53174C19.4976 5.20215 19.1362 4.84131 18.7588 4.46436H20.895L19.8276 5.53174ZM21.6606 5.89453C22.146 5.40771 22.5933 4.94043 23.0669 4.50244C23.1572 4.41846 23.353 4.44824 23.5254 4.42139V5.89453H21.6606Z" fill="#4C40ED"/>
</svg>
