<svg width="25" height="25" viewBox="0 0 25 25" fill="none" xmlns="http://www.w3.org/2000/svg">
<g clip-path="url(#clip0_1072_56233)">
<path d="M15.7778 2.38037C15.7808 1.14551 14.9966 0.180176 13.8599 0.0244141C13.8452 0.0224609 13.832 0.00830078 13.8184 0H3.56446C3.21533 0.143066 2.83106 0.233398 2.52442 0.439453C1.86768 0.880859 1.60987 1.55127 1.61084 2.33154C1.61231 4.77246 1.61133 7.21289 1.61133 9.65332V22.0576H15.7715V21.7832C15.7715 15.3154 15.7642 8.84814 15.7778 2.38037ZM9.37207 20.0938C8.91407 19.9116 8.47901 19.7388 8.01416 19.5537C8.3003 18.832 8.58252 18.1206 8.87403 17.3862H6.33985C6.89942 15.9858 7.44873 14.6113 8.01074 13.2056C8.47705 13.3921 8.9126 13.5659 9.36914 13.7485C9.08252 14.4692 8.80176 15.1753 8.5083 15.9121H11.0449C10.4814 17.3203 9.93116 18.6968 9.37207 20.0938ZM12.8403 9.96143C12.8403 9.98438 12.8315 10.0073 12.8237 10.0469H4.54102V9.79883C4.54102 7.8623 4.54395 5.92627 4.53614 3.99023C4.53516 3.80176 4.58838 3.72461 4.76953 3.67236C6.37793 3.20703 8.01367 2.99805 9.68701 3.12598C10.7036 3.2041 11.6968 3.40771 12.6748 3.69482C12.7969 3.73047 12.8447 3.77686 12.8442 3.90869C12.8403 5.92627 12.8413 7.94385 12.8403 9.96143Z" fill="#4C40ED"/>
<path d="M24.9999 2.44141V5.46875C24.9238 5.75732 24.8769 6.05811 24.7665 6.33301C24.3911 7.271 23.7109 7.89404 22.746 8.20264C22.6855 8.22217 22.6274 8.24805 22.5585 8.27441V8.57178C22.5585 11.8257 22.561 15.0796 22.5571 18.3335C22.5561 19.5366 21.7377 20.5347 20.5883 20.7554C19.1386 21.0332 17.7436 19.9121 17.7299 18.4292C17.7128 16.6313 17.7211 14.8335 17.7275 13.0356C17.7289 12.6187 17.6743 12.2407 17.2993 11.981C17.2626 11.9556 17.2397 11.8853 17.2392 11.8359C17.2348 11.3647 17.2368 10.8936 17.2368 10.4204C18.3681 10.5981 19.185 11.6167 19.1879 12.854C19.1928 14.668 19.1884 16.4824 19.1899 18.2964C19.1904 18.7783 19.4194 19.1323 19.8139 19.2754C20.3974 19.4873 21.018 19.0986 21.0864 18.4771C21.0937 18.4126 21.0932 18.3472 21.0932 18.2822C21.0937 15.0122 21.0937 11.7417 21.0937 8.47168V8.32764C20.6982 8.11963 20.309 7.96484 19.9765 7.72998C19.1069 7.11719 18.6826 6.24561 18.6577 5.19092C18.6367 4.31299 18.6528 3.43408 18.6533 2.55566C18.6533 2.5249 18.6611 2.49414 18.6669 2.44678H19.3847V0H20.8496V2.42432H22.8027V0H24.2675V2.44141H24.9999Z" fill="#4C40ED"/>
<path d="M17.3828 23.5352H0V25H17.3828V23.5352Z" fill="#4C40ED"/>
<path d="M11.3771 8.57635H6.00598C6.00598 7.37128 6.00451 6.18378 6.01184 4.99628C6.01233 4.94256 6.08606 4.85272 6.13977 4.84051C7.50207 4.53192 8.87658 4.46844 10.2609 4.66083C10.5826 4.70526 10.9025 4.76727 11.2194 4.83807C11.2804 4.85174 11.3697 4.94159 11.3702 4.99676C11.379 6.18378 11.3771 7.37128 11.3771 8.57635Z" fill="#4C40ED"/>
</g>
<defs>
<clipPath id="clip0_1072_56233">
<rect width="25" height="25" fill="white"/>
</clipPath>
</defs>
</svg>
