<svg width="100" height="101" viewBox="0 0 100 101" fill="none" xmlns="http://www.w3.org/2000/svg">
<path d="M49.9995 97.3926C75.7059 97.3926 96.545 76.5535 96.545 50.8472C96.545 25.1409 75.7059 4.30176 49.9995 4.30176C24.2932 4.30176 3.4541 25.1409 3.4541 50.8472C3.4541 76.5535 24.2932 97.3926 49.9995 97.3926Z" fill="#E7E3E6"/>
<path d="M50 98.8476C23.5331 98.8476 2 77.3145 2 50.8476C2 24.3808 23.5331 2.84766 50 2.84766C76.4668 2.84766 98 24.3808 98 50.8476C98 77.3145 76.4668 98.8476 50 98.8476ZM50 5.75675C25.1363 5.75675 4.9091 25.984 4.9091 50.8476C4.9091 75.7113 25.1364 95.9385 50 95.9385C74.8636 95.9385 95.0909 75.7113 95.0909 50.8476C95.0909 25.984 74.8636 5.75675 50 5.75675Z" fill="#D2D2D2"/>
<path d="M49.9998 98.8476C34.4183 98.8476 21.7422 77.3145 21.7422 50.8476C21.7422 24.3808 34.4183 2.84766 49.9998 2.84766C65.5803 2.84766 78.2565 24.3808 78.2565 50.8476C78.2565 77.3145 65.5803 98.8476 49.9998 98.8476ZM49.9998 5.75675C36.0225 5.75675 24.6513 25.984 24.6513 50.8476C24.6513 75.7112 36.0225 95.9385 49.9998 95.9385C63.9761 95.9385 75.3474 75.7113 75.3474 50.8476C75.3474 25.984 63.9761 5.75675 49.9998 5.75675Z" fill="#D2D2D2"/>
<path d="M51.4545 4.30176H48.5454V97.3926H51.4545V4.30176Z" fill="#D2D2D2"/>
<path d="M50 79.1041C23.5331 79.1041 2 66.428 2 50.8475C2 35.266 23.5331 22.5898 50 22.5898C76.4668 22.5898 98 35.266 98 50.8475C98 66.428 76.4668 79.1041 50 79.1041ZM50 25.4989C25.1363 25.4989 4.9091 36.8702 4.9091 50.8475C4.9091 64.8238 25.1364 76.195 50 76.195C74.8636 76.195 95.0909 64.8238 95.0909 50.8475C95.0909 36.8702 74.8636 25.4989 50 25.4989Z" fill="#D2D2D2"/>
<path d="M96.5455 49.3936H3.45459V52.3027H96.5455V49.3936Z" fill="#D2D2D2"/>
<path d="M96.5454 31.6079C96.5454 44.6057 83.6699 54.7683 83.6699 54.7683C83.6699 54.7683 70.7944 44.6057 70.7944 31.6079C70.7944 24.497 76.559 18.7324 83.6699 18.7324C90.7808 18.7324 96.5454 24.497 96.5454 31.6079Z" fill="#FFC966"/>
<path d="M83.6698 39.2702C87.9013 39.2702 91.3317 35.8398 91.3317 31.6082C91.3317 27.3767 87.9013 23.9463 83.6698 23.9463C79.4382 23.9463 76.0078 27.3767 76.0078 31.6082C76.0078 35.8398 79.4382 39.2702 83.6698 39.2702Z" fill="white"/>
<path d="M29.5263 20.8774C29.5263 33.8753 16.6509 44.0379 16.6509 44.0379C16.6509 44.0379 3.77539 33.8753 3.77539 20.8774C3.77539 13.7665 9.53993 8.00195 16.6509 8.00195C23.7618 8.00195 29.5263 13.7665 29.5263 20.8774Z" fill="#53B1E2"/>
<path d="M16.6507 28.5397C20.8823 28.5397 24.3127 25.1093 24.3127 20.8778C24.3127 16.6462 20.8823 13.2158 16.6507 13.2158C12.4191 13.2158 8.98877 16.6462 8.98877 20.8778C8.98877 25.1093 12.4191 28.5397 16.6507 28.5397Z" fill="white"/>
<path d="M56.4614 68.9097C56.4614 81.9075 43.5859 92.0701 43.5859 92.0701C43.5859 92.0701 30.7104 81.9075 30.7104 68.9097C30.7104 61.7987 36.475 56.0342 43.5859 56.0342C50.6969 56.0342 56.4614 61.7987 56.4614 68.9097Z" fill="#EC6E62"/>
<path d="M43.5858 76.5719C47.8174 76.5719 51.2477 73.1416 51.2477 68.91C51.2477 64.6784 47.8174 61.248 43.5858 61.248C39.3542 61.248 35.9238 64.6784 35.9238 68.91C35.9238 73.1416 39.3542 76.5719 43.5858 76.5719Z" fill="white"/>
</svg>
