<svg width="158" height="172" viewBox="0 0 158 172" fill="none" xmlns="http://www.w3.org/2000/svg">
<path d="M116.778 46.5562C115.18 40.1648 109.648 36.0141 101.295 37.1726C94.097 38.1728 88.7418 41.0768 80.7583 36.5505C50.2596 19.2546 40.7629 40.4356 41.23 56.4174C41.8981 79.3607 34.8012 82.9827 27.8785 94.2635C23.0388 102.148 19.839 108.991 21.8401 118.877C24.8357 133.682 38.1551 140.112 50.7012 137.927C56.8622 136.856 63.4445 134.733 67.5269 133.721C78.492 131.004 82.7773 131.745 97.18 132.522C125.251 133.564 136.034 112.808 122.271 95.0965C110.489 79.9353 109.522 79.0252 113.995 65.0165C115.874 59.1339 118.607 53.8667 116.778 46.5562Z" fill="#203066" fill-opacity="0.08"/>
<path d="M100.745 33.2107L100.746 33.2105C105.696 32.5239 110.168 33.3728 113.735 35.6702C117.307 37.9703 119.64 41.5121 120.659 45.5854L100.745 33.2107ZM100.745 33.2107C98.5979 33.509 96.7957 33.881 95.1966 34.211M100.745 33.2107L95.1966 34.211M96.9981 136.518L96.9646 136.516C95.1114 136.416 93.435 136.318 91.8993 136.228C81.3694 135.612 77.4534 135.383 68.4894 137.604C67.4249 137.868 66.0635 138.247 64.5122 138.679C60.7456 139.729 55.8596 141.09 51.3874 141.868C37.1285 144.351 21.425 136.995 17.9196 119.67C15.6102 108.261 19.4763 100.305 24.4692 92.1713L96.9981 136.518ZM96.9981 136.518L97.0316 136.519M96.9981 136.518L97.0316 136.519M97.0316 136.519C111.994 137.074 123.342 131.822 128.818 122.941M97.0316 136.519L128.818 122.941M95.1966 34.211C90.4811 35.1844 87.5326 35.793 82.7315 33.0711L95.1966 34.211ZM128.818 122.941C134.36 113.954 133.106 102.52 125.429 92.6421M128.818 122.941L125.429 92.6421M125.429 92.6421C125.246 92.4064 125.066 92.1747 124.889 91.9468M125.429 92.6421L124.889 91.9468M124.889 91.9468C122.182 88.464 120.17 85.8762 118.673 83.7018M124.889 91.9468L118.673 83.7018M118.673 83.7018C117.085 81.3954 116.272 79.8265 115.871 78.481M118.673 83.7018L115.871 78.481M115.871 78.481C115.12 75.9657 115.514 73.4102 117.805 66.2331M115.871 78.481L117.805 66.2331M117.805 66.2331C118.067 65.4138 118.371 64.5568 118.689 63.6601M117.805 66.2331L118.689 63.6601M118.689 63.6601C120.392 58.8624 122.496 52.9309 120.659 45.5856L118.689 63.6601ZM82.7311 33.0709C66.8219 24.0488 54.8007 24.2508 46.8141 30.9379C39.3223 37.2107 36.9826 48.007 37.2317 56.5338C37.5527 67.5579 36.0018 73.5067 33.8133 77.9449C32.685 80.2328 31.3274 82.2433 29.722 84.4956C29.4607 84.8621 29.1918 85.2364 28.9165 85.6195C27.5328 87.5457 25.9903 89.6928 24.4695 92.1709L82.7311 33.0709Z" stroke="#203066" stroke-opacity="0.03" stroke-width="8"/>
<path d="M120.61 14.2803C116.21 14.2803 112.61 17.8803 112.61 22.2803C112.61 26.6803 116.21 30.2803 120.61 30.2803C125.01 30.2803 128.61 26.6803 128.61 22.2803C128.61 17.8803 125.01 14.2803 120.61 14.2803ZM123.61 21.3803C123.41 21.4803 123.21 21.5803 123.01 21.5803C122.71 21.5803 122.41 21.3803 122.21 21.1803C121.81 20.6803 121.21 20.2803 120.61 20.2803C120.01 20.2803 119.61 19.8803 119.61 19.2803C119.61 18.6803 120.01 18.2803 120.61 18.2803C121.91 18.2803 123.11 18.8803 123.91 19.9803C124.21 20.4803 124.11 21.0803 123.61 21.3803Z" fill="#203066" fill-opacity="0.1"/>
<path d="M107.61 14.2803C104.81 14.2803 102.61 12.0803 102.61 9.28027C102.61 6.48027 104.81 4.28027 107.61 4.28027C110.41 4.28027 112.61 6.48027 112.61 9.28027C112.61 12.0803 110.41 14.2803 107.61 14.2803Z" fill="#203066" fill-opacity="0.1"/>
<path d="M104.11 26.2803C101.61 26.2803 99.6099 24.2803 99.6099 21.7803C99.6099 19.2803 101.61 17.2803 104.11 17.2803C106.61 17.2803 108.61 19.2803 108.61 21.7803C108.61 24.2803 106.61 26.2803 104.11 26.2803Z" fill="#203066" fill-opacity="0.1"/>
<path d="M117.61 7.28027C117.01 7.28027 116.61 6.88027 116.61 6.28027V3.28027C116.61 2.68027 117.01 2.28027 117.61 2.28027C118.21 2.28027 118.61 2.68027 118.61 3.28027V6.28027C118.61 6.88027 118.21 7.28027 117.61 7.28027Z" fill="#203066" fill-opacity="0.1"/>
<path d="M124.61 11.2803H121.61C121.01 11.2803 120.61 10.8803 120.61 10.2803C120.61 9.68027 121.01 9.28027 121.61 9.28027H124.61C125.21 9.28027 125.61 9.68027 125.61 10.2803C125.61 10.8803 125.21 11.2803 124.61 11.2803Z" fill="#203066" fill-opacity="0.1"/>
<path d="M120.41 8.47988C120.11 8.47988 119.91 8.37988 119.71 8.17988C119.31 7.77988 119.31 7.17988 119.71 6.77988L121.81 4.67988C122.21 4.27988 122.81 4.27988 123.21 4.67988C123.61 5.07988 123.61 5.67988 123.21 6.07988L121.11 8.17988C120.91 8.37988 120.71 8.47988 120.41 8.47988Z" fill="#203066" fill-opacity="0.1"/>
<g clip-path="url(#clip0_7169_259615)">
<path d="M124.408 137.708V116.28H112.163V59.1371V57.6064V41.79H76.449V56.0758H45.8367V116.28H33.5918V137.708H29V140.77H129V137.708H124.408ZM45.8367 137.708H36.6531V119.341H45.8367V137.708ZM84.6123 137.708H73.3879V128.525H77.4695V133.117H80.5307V128.525H84.6123V137.708ZM109.102 137.708H87.6734V128.525H91.2449V125.463H66.7551V128.525H70.3266V137.708H48.898V121.382H109.102V137.708H109.102ZM55.0203 118.321V109.137H64.2039V118.321H55.0203ZM74.4082 118.321V109.137H83.5918V118.321H74.4082ZM93.7959 118.321V109.137H102.979V118.321H93.7959ZM109.102 118.321H106.041V106.076H90.7348V118.321H86.6531V106.076H71.3471V118.321H67.2654V106.076H51.9594V118.321H48.8982V103.015H109.102V118.321H109.102ZM109.102 99.9533H48.898V96.8922H109.102V99.9533H109.102ZM55.0203 93.8309V84.6473H64.2039V93.8309H55.0203ZM74.4082 93.8309V84.6473H83.5918V93.8309H74.4082ZM93.7959 93.8309V84.6473H102.979V93.8309H93.7959ZM109.102 93.8309H106.041V81.5859H90.7348V93.8309H86.6531V81.5859H71.3471V93.8309H67.2654V81.5859H51.9594V93.8309H48.8982V77.5043H109.102V93.8309H109.102ZM55.0203 74.4432V65.2596H64.2039V74.4432H55.0203ZM74.4082 74.4432V65.2596H83.5918V74.4432H74.4082ZM93.7959 74.4432V65.2596H102.979V74.4432H93.7959ZM109.102 74.4432H106.041V62.1982H90.7348V74.4432H86.6531V62.1982H71.3471V74.4432H67.2654V62.1982H51.9594V74.4432H48.8982V59.1371H109.102V74.4432H109.102ZM109.102 56.0758H79.5102V44.8514H109.102V56.0758ZM121.347 137.708H112.163V119.341H121.347V137.708Z" fill="#203066"/>
<path d="M87.1632 48.9336H83.0815V51.9947H87.1632V48.9336Z" fill="#203066"/>
<path d="M93.2857 48.9336H89.2041V51.9947H93.2857V48.9336Z" fill="#203066"/>
<path d="M99.4083 48.9336H95.3267V51.9947H99.4083V48.9336Z" fill="#203066"/>
<path d="M105.531 48.9336H101.449V51.9947H105.531V48.9336Z" fill="#203066"/>
<path d="M51.959 124.443V134.647H63.1834V124.443H51.959ZM60.1223 131.586H55.0203V127.504H60.1223V131.586Z" fill="#203066"/>
<path d="M94.8164 124.443V134.647H106.041V124.443H94.8164ZM102.98 131.586H97.8777V127.504H102.98V131.586Z" fill="#203066"/>
</g>
<defs>
<clipPath id="clip0_7169_259615">
<rect width="100" height="100" fill="white" transform="translate(29 41.2803)"/>
</clipPath>
</defs>
</svg>
