<svg width="158" height="172" viewBox="0 0 158 172" fill="none" xmlns="http://www.w3.org/2000/svg">
<path d="M116.778 46.5562C115.18 40.1648 109.648 36.0141 101.295 37.1726C94.097 38.1728 88.7418 41.0768 80.7583 36.5505C50.2596 19.2546 40.7629 40.4356 41.23 56.4174C41.8981 79.3607 34.8012 82.9827 27.8785 94.2635C23.0388 102.148 19.839 108.991 21.8401 118.877C24.8357 133.682 38.1551 140.112 50.7012 137.927C56.8622 136.856 63.4445 134.733 67.5269 133.721C78.492 131.004 82.7773 131.745 97.18 132.522C125.251 133.564 136.034 112.808 122.271 95.0965C110.489 79.9353 109.522 79.0252 113.995 65.0165C115.874 59.1339 118.607 53.8667 116.778 46.5562Z" fill="#FF008A" fill-opacity="0.08"/>
<path d="M100.745 33.2107L100.746 33.2105C105.696 32.5239 110.168 33.3728 113.735 35.6702C117.307 37.9703 119.64 41.5121 120.659 45.5854L100.745 33.2107ZM100.745 33.2107C98.5979 33.509 96.7957 33.881 95.1966 34.211M100.745 33.2107L95.1966 34.211M96.9981 136.518L96.9646 136.516C95.1114 136.416 93.435 136.318 91.8993 136.228C81.3694 135.612 77.4534 135.383 68.4894 137.604C67.4249 137.868 66.0635 138.247 64.5122 138.679C60.7456 139.729 55.8596 141.09 51.3874 141.868C37.1285 144.351 21.425 136.995 17.9196 119.67C15.6102 108.261 19.4763 100.305 24.4692 92.1713L96.9981 136.518ZM96.9981 136.518L97.0316 136.519M96.9981 136.518L97.0316 136.519M97.0316 136.519C111.994 137.074 123.342 131.822 128.818 122.941M97.0316 136.519L128.818 122.941M95.1966 34.211C90.4811 35.1844 87.5326 35.793 82.7315 33.0711L95.1966 34.211ZM128.818 122.941C134.36 113.954 133.106 102.52 125.429 92.6421M128.818 122.941L125.429 92.6421M125.429 92.6421C125.246 92.4064 125.066 92.1747 124.889 91.9468M125.429 92.6421L124.889 91.9468M124.889 91.9468C122.182 88.464 120.17 85.8762 118.673 83.7018M124.889 91.9468L118.673 83.7018M118.673 83.7018C117.085 81.3954 116.272 79.8265 115.871 78.481M118.673 83.7018L115.871 78.481M115.871 78.481C115.12 75.9657 115.514 73.4102 117.805 66.2331M115.871 78.481L117.805 66.2331M117.805 66.2331C118.067 65.4138 118.371 64.5568 118.689 63.6601M117.805 66.2331L118.689 63.6601M118.689 63.6601C120.392 58.8624 122.496 52.9309 120.659 45.5856L118.689 63.6601ZM82.7311 33.0709C66.8219 24.0488 54.8007 24.2508 46.8141 30.9379C39.3223 37.2107 36.9826 48.007 37.2317 56.5338C37.5527 67.5579 36.0018 73.5067 33.8133 77.9449C32.685 80.2328 31.3274 82.2433 29.722 84.4956C29.4607 84.8621 29.1918 85.2364 28.9165 85.6195C27.5328 87.5457 25.9903 89.6928 24.4695 92.1709L82.7311 33.0709Z" stroke="#FF008A" stroke-opacity="0.03" stroke-width="8"/>
<path d="M120.61 14.2803C116.21 14.2803 112.61 17.8803 112.61 22.2803C112.61 26.6803 116.21 30.2803 120.61 30.2803C125.01 30.2803 128.61 26.6803 128.61 22.2803C128.61 17.8803 125.01 14.2803 120.61 14.2803ZM123.61 21.3803C123.41 21.4803 123.21 21.5803 123.01 21.5803C122.71 21.5803 122.41 21.3803 122.21 21.1803C121.81 20.6803 121.21 20.2803 120.61 20.2803C120.01 20.2803 119.61 19.8803 119.61 19.2803C119.61 18.6803 120.01 18.2803 120.61 18.2803C121.91 18.2803 123.11 18.8803 123.91 19.9803C124.21 20.4803 124.11 21.0803 123.61 21.3803Z" fill="#FF008A" fill-opacity="0.1"/>
<path d="M107.61 14.2803C104.81 14.2803 102.61 12.0803 102.61 9.28027C102.61 6.48027 104.81 4.28027 107.61 4.28027C110.41 4.28027 112.61 6.48027 112.61 9.28027C112.61 12.0803 110.41 14.2803 107.61 14.2803Z" fill="#FF008A" fill-opacity="0.1"/>
<path d="M104.11 26.2803C101.61 26.2803 99.6099 24.2803 99.6099 21.7803C99.6099 19.2803 101.61 17.2803 104.11 17.2803C106.61 17.2803 108.61 19.2803 108.61 21.7803C108.61 24.2803 106.61 26.2803 104.11 26.2803Z" fill="#FF008A" fill-opacity="0.1"/>
<path d="M117.61 7.28027C117.01 7.28027 116.61 6.88027 116.61 6.28027V3.28027C116.61 2.68027 117.01 2.28027 117.61 2.28027C118.21 2.28027 118.61 2.68027 118.61 3.28027V6.28027C118.61 6.88027 118.21 7.28027 117.61 7.28027Z" fill="#FF008A" fill-opacity="0.1"/>
<path d="M124.61 11.2803H121.61C121.01 11.2803 120.61 10.8803 120.61 10.2803C120.61 9.68027 121.01 9.28027 121.61 9.28027H124.61C125.21 9.28027 125.61 9.68027 125.61 10.2803C125.61 10.8803 125.21 11.2803 124.61 11.2803Z" fill="#FF008A" fill-opacity="0.1"/>
<path d="M120.41 8.47988C120.11 8.47988 119.91 8.37988 119.71 8.17988C119.31 7.77988 119.31 7.17988 119.71 6.77988L121.81 4.67988C122.21 4.27988 122.81 4.27988 123.21 4.67988C123.61 5.07988 123.61 5.67988 123.21 6.07988L121.11 8.17988C120.91 8.37988 120.71 8.47988 120.41 8.47988Z" fill="#FF008A" fill-opacity="0.1"/>
<path d="M121.575 55.9961V53.0797C121.575 50.6008 119.68 48.7051 117.201 48.7051H41.2288C38.8957 48.7051 37 50.6008 37 53.0797V55.9961C37 57.9882 38.2247 59.6027 39.9164 60.1602V89.7695C38.1898 90.3491 37 91.9455 37 93.909V96.8254C37 98.789 38.1898 100.385 39.9164 100.965V131.822C39.9164 132.697 40.4996 133.28 41.3746 133.28H71.9966H86.5786H117.201C118.076 133.28 118.659 132.697 118.659 131.822V100.965C120.385 100.385 121.575 98.789 121.575 96.8254V93.909C121.575 91.9455 120.385 90.3489 118.659 89.7696V60.1602C120.351 59.6027 121.575 57.9882 121.575 55.9961ZM39.9164 53.0797C39.9164 52.2047 40.4996 51.6214 41.2288 51.6214H117.346C118.076 51.6214 118.659 52.2047 118.659 53.0797V55.9961C118.659 56.871 118.076 57.4543 117.201 57.4543H41.3746H41.2288C40.4996 57.4543 39.9164 56.871 39.9164 55.9961V53.0797ZM115.742 89.5344H42.8327V60.3707H115.742V89.5344ZM73.4549 130.364V109.949H85.1205V130.364H73.4549ZM115.742 130.364H88.0368V108.491C88.0368 107.616 87.4536 107.033 86.5786 107.033H71.9966C71.1216 107.033 70.5384 107.616 70.5384 108.491V130.364H42.8327V101.2H115.742V130.364ZM118.659 96.8254C118.659 97.5545 118.076 98.2837 117.201 98.2837H41.3746C40.4996 98.2837 39.9164 97.7004 39.9164 96.8254V93.909C39.9164 93.1799 40.4996 92.4508 41.3746 92.4508H117.201C117.93 92.4508 118.659 93.034 118.659 93.909V96.8254Z" fill="#FF008A"/>
<path d="M70.5383 83.7016H71.9966H86.5786H88.0368C88.9118 83.7016 89.4951 83.1183 89.4951 82.2433C89.4951 81.3683 88.9118 80.7851 88.0368 80.7851V67.6614C88.0368 66.7864 87.4535 66.2031 86.5786 66.2031H71.9966C71.1216 66.2031 70.5383 66.7864 70.5383 67.6614V80.7851C69.6634 80.7851 69.0801 81.3683 69.0801 82.2433C69.0801 83.1183 69.6635 83.7016 70.5383 83.7016ZM80.7458 80.7852V76.4106H85.1205V80.7852H80.7458ZM85.1203 73.4943H80.7457V69.1196H85.1203V73.4943ZM77.8293 69.1196V73.4943H73.4549V69.1196H77.8293ZM73.4549 76.4106H77.8295V80.7852H73.4549V76.4106Z" fill="#FF008A"/>
<path d="M47.2073 83.7016H48.6655H63.2475H64.7058C65.5808 83.7016 66.164 83.1183 66.164 82.2433C66.164 81.3683 65.5808 80.7851 64.7058 80.7851V67.6614C64.7058 66.7864 64.1225 66.2031 63.2475 66.2031H48.6655C47.7906 66.2031 47.2073 66.7864 47.2073 67.6614V80.7851C46.3323 80.7851 45.749 81.3683 45.749 82.2433C45.749 83.1183 46.3325 83.7016 47.2073 83.7016ZM57.4146 80.7852V76.4106H61.7892V80.7852H57.4146ZM61.7892 73.4943H57.4146V69.1196H61.7892V73.4943ZM54.4983 69.1196V73.4943H50.1236V69.1196H54.4983ZM50.1236 76.4106H54.4983V80.7852H50.1236V76.4106Z" fill="#FF008A"/>
<path d="M93.8694 83.7016H95.3277H109.91H111.368C112.243 83.7016 112.826 83.1183 112.826 82.2433C112.826 81.3683 112.243 80.7851 111.368 80.7851V67.6614C111.368 66.7864 110.785 66.2031 109.91 66.2031H95.3277C94.4527 66.2031 93.8694 66.7864 93.8694 67.6614V80.7851C92.9944 80.7851 92.4111 81.3683 92.4111 82.2433C92.4111 83.1183 92.9944 83.7016 93.8694 83.7016ZM104.077 80.7852V76.4106H108.451V80.7852H104.077ZM108.451 73.4943H104.077V69.1196H108.451V73.4943ZM101.16 69.1196V73.4943H96.7858V69.1196H101.16ZM96.7858 76.4106H101.16V80.7852H96.7858V76.4106Z" fill="#FF008A"/>
<path d="M47.2073 124.531H48.6655H63.2475H64.7058C65.5808 124.531 66.164 123.947 66.164 123.072C66.164 122.197 65.5808 121.614 64.7058 121.614V108.49C64.7058 107.615 64.1225 107.032 63.2475 107.032H48.6655C47.7906 107.032 47.2073 107.615 47.2073 108.49V121.614C46.3323 121.614 45.749 122.197 45.749 123.072C45.7492 123.947 46.3325 124.531 47.2073 124.531ZM57.4146 121.614V117.24H61.7892V121.614H57.4146ZM61.7892 114.323H57.4146V109.949H61.7892V114.323ZM54.4983 109.949V114.324H50.1236V109.949H54.4983ZM50.1236 117.24H54.4983V121.615H50.1236V117.24Z" fill="#FF008A"/>
<path d="M93.8694 124.531H95.3277H109.91H111.368C112.243 124.531 112.826 123.947 112.826 123.072C112.826 122.197 112.243 121.614 111.368 121.614V108.49C111.368 107.615 110.785 107.032 109.91 107.032H95.3277C94.4527 107.032 93.8694 107.615 93.8694 108.49V121.614C92.9944 121.614 92.4111 122.197 92.4111 123.072C92.4111 123.947 92.9944 124.531 93.8694 124.531ZM104.077 121.614V117.24H108.451V121.614H104.077ZM108.451 114.323H104.077V109.949H108.451V114.323ZM101.16 109.949V114.324H96.7858V109.949H101.16ZM96.7858 117.24H101.16V121.615H96.7858V117.24Z" fill="#FF008A"/>
<path d="M82.2041 118.698H80.7459C79.8709 118.698 79.2876 119.282 79.2876 120.157C79.2876 121.031 79.8709 121.615 80.7459 121.615H82.2041C83.0791 121.615 83.6624 121.031 83.6624 120.157C83.6624 119.282 83.0791 118.698 82.2041 118.698Z" fill="#FF008A"/>
</svg>
