<svg width="158" height="172" viewBox="0 0 158 172" fill="none" xmlns="http://www.w3.org/2000/svg">
<path d="M116.778 46.5562C115.18 40.1648 109.648 36.0141 101.295 37.1726C94.097 38.1728 88.7418 41.0768 80.7583 36.5505C50.2596 19.2546 40.7629 40.4356 41.23 56.4174C41.8981 79.3607 34.8012 82.9827 27.8785 94.2635C23.0388 102.148 19.839 108.991 21.8401 118.877C24.8357 133.682 38.1551 140.112 50.7012 137.927C56.8622 136.856 63.4445 134.733 67.5269 133.721C78.492 131.004 82.7773 131.745 97.18 132.522C125.251 133.564 136.034 112.808 122.271 95.0965C110.489 79.9353 109.522 79.0252 113.995 65.0165C115.874 59.1339 118.607 53.8667 116.778 46.5562Z" fill="#203066" fill-opacity="0.08"/>
<path d="M100.745 33.2107L100.746 33.2105C105.696 32.5239 110.168 33.3728 113.735 35.6702C117.307 37.9703 119.64 41.5121 120.659 45.5854L100.745 33.2107ZM100.745 33.2107C98.5979 33.509 96.7957 33.881 95.1966 34.211M100.745 33.2107L95.1966 34.211M96.9981 136.518L96.9646 136.516C95.1114 136.416 93.435 136.318 91.8993 136.228C81.3694 135.612 77.4534 135.383 68.4894 137.604C67.4249 137.868 66.0635 138.247 64.5122 138.679C60.7456 139.729 55.8596 141.09 51.3874 141.868C37.1285 144.351 21.425 136.995 17.9196 119.67C15.6102 108.261 19.4763 100.305 24.4692 92.1713L96.9981 136.518ZM96.9981 136.518L97.0316 136.519M96.9981 136.518L97.0316 136.519M97.0316 136.519C111.994 137.074 123.342 131.822 128.818 122.941M97.0316 136.519L128.818 122.941M95.1966 34.211C90.4811 35.1844 87.5326 35.793 82.7315 33.0711L95.1966 34.211ZM128.818 122.941C134.36 113.954 133.106 102.52 125.429 92.6421M128.818 122.941L125.429 92.6421M125.429 92.6421C125.246 92.4064 125.066 92.1747 124.889 91.9468M125.429 92.6421L124.889 91.9468M124.889 91.9468C122.182 88.464 120.17 85.8762 118.673 83.7018M124.889 91.9468L118.673 83.7018M118.673 83.7018C117.085 81.3954 116.272 79.8265 115.871 78.481M118.673 83.7018L115.871 78.481M115.871 78.481C115.12 75.9657 115.514 73.4102 117.805 66.2331M115.871 78.481L117.805 66.2331M117.805 66.2331C118.067 65.4138 118.371 64.5568 118.689 63.6601M117.805 66.2331L118.689 63.6601M118.689 63.6601C120.392 58.8624 122.496 52.9309 120.659 45.5856L118.689 63.6601ZM82.7311 33.0709C66.8219 24.0488 54.8007 24.2508 46.8141 30.9379C39.3223 37.2107 36.9826 48.007 37.2317 56.5338C37.5527 67.5579 36.0018 73.5067 33.8133 77.9449C32.685 80.2328 31.3274 82.2433 29.722 84.4956C29.4607 84.8621 29.1918 85.2364 28.9165 85.6195C27.5328 87.5457 25.9903 89.6928 24.4695 92.1709L82.7311 33.0709Z" stroke="#203066" stroke-opacity="0.03" stroke-width="8"/>
<path d="M120.61 14.2803C116.21 14.2803 112.61 17.8803 112.61 22.2803C112.61 26.6803 116.21 30.2803 120.61 30.2803C125.01 30.2803 128.61 26.6803 128.61 22.2803C128.61 17.8803 125.01 14.2803 120.61 14.2803ZM123.61 21.3803C123.41 21.4803 123.21 21.5803 123.01 21.5803C122.71 21.5803 122.41 21.3803 122.21 21.1803C121.81 20.6803 121.21 20.2803 120.61 20.2803C120.01 20.2803 119.61 19.8803 119.61 19.2803C119.61 18.6803 120.01 18.2803 120.61 18.2803C121.91 18.2803 123.11 18.8803 123.91 19.9803C124.21 20.4803 124.11 21.0803 123.61 21.3803Z" fill="#203066" fill-opacity="0.1"/>
<path d="M107.61 14.2803C104.81 14.2803 102.61 12.0803 102.61 9.28027C102.61 6.48027 104.81 4.28027 107.61 4.28027C110.41 4.28027 112.61 6.48027 112.61 9.28027C112.61 12.0803 110.41 14.2803 107.61 14.2803Z" fill="#203066" fill-opacity="0.1"/>
<path d="M104.11 26.2803C101.61 26.2803 99.6099 24.2803 99.6099 21.7803C99.6099 19.2803 101.61 17.2803 104.11 17.2803C106.61 17.2803 108.61 19.2803 108.61 21.7803C108.61 24.2803 106.61 26.2803 104.11 26.2803Z" fill="#203066" fill-opacity="0.1"/>
<path d="M117.61 7.28027C117.01 7.28027 116.61 6.88027 116.61 6.28027V3.28027C116.61 2.68027 117.01 2.28027 117.61 2.28027C118.21 2.28027 118.61 2.68027 118.61 3.28027V6.28027C118.61 6.88027 118.21 7.28027 117.61 7.28027Z" fill="#203066" fill-opacity="0.1"/>
<path d="M124.61 11.2803H121.61C121.01 11.2803 120.61 10.8803 120.61 10.2803C120.61 9.68027 121.01 9.28027 121.61 9.28027H124.61C125.21 9.28027 125.61 9.68027 125.61 10.2803C125.61 10.8803 125.21 11.2803 124.61 11.2803Z" fill="#203066" fill-opacity="0.1"/>
<path d="M120.41 8.47988C120.11 8.47988 119.91 8.37988 119.71 8.17988C119.31 7.77988 119.31 7.17988 119.71 6.77988L121.81 4.67988C122.21 4.27988 122.81 4.27988 123.21 4.67988C123.61 5.07988 123.61 5.67988 123.21 6.07988L121.11 8.17988C120.91 8.37988 120.71 8.47988 120.41 8.47988Z" fill="#203066" fill-opacity="0.1"/>
<path d="M74.0001 101.3H54.0001C53.0001 101.3 52.3335 100.634 52.3335 99.6338V86.3004C52.3335 85.3004 53.0001 84.6338 54.0001 84.6338H74.0001C75.0001 84.6338 75.6667 85.3004 75.6667 86.3004V99.6338C75.6667 100.634 75.0001 101.3 74.0001 101.3ZM55.6667 97.967H72.3333V87.967H55.6667V97.967Z" fill="#203066"/>
<path d="M74.0001 127.968H54.0001C53.0001 127.968 52.3335 127.301 52.3335 126.301V109.634C52.3335 108.634 53.0001 107.968 54.0001 107.968H74.0001C75.0001 107.968 75.6667 108.634 75.6667 109.634V126.301C75.6667 127.301 75.0001 127.968 74.0001 127.968ZM55.6667 124.634H72.3333V111.301H55.6667V124.634Z" fill="#203066"/>
<path d="M104 101.3H84.0001C83.0001 101.3 82.3335 100.634 82.3335 99.6338V86.3004C82.3335 85.3004 83.0001 84.6338 84.0001 84.6338H104C105 84.6338 105.667 85.3004 105.667 86.3004V99.6338C105.667 100.634 105 101.3 104 101.3ZM85.6667 97.967H102.333V87.967H85.6667V97.967Z" fill="#203066"/>
<path d="M36.3333 91.634C34.4999 91.634 32.8333 90.9674 31.4999 89.4674C30.1665 88.134 29.6665 86.3008 29.6665 84.4674C29.8331 82.634 30.6665 80.9674 32.1665 79.8008L77.9999 43.3008C78.6665 42.8008 79.4999 42.8008 79.9999 43.3008L125.833 79.6342C127.333 80.8008 128.167 82.4676 128.333 84.3008C128.5 86.1342 127.833 87.9674 126.5 89.3008C124.167 91.8008 120.333 92.1342 117.5 89.9674L78.9999 60.4674L40.3333 90.134C39.1665 91.134 37.6665 91.634 36.3333 91.634ZM78.9999 46.8008L34.3333 82.3008C33.4999 82.9674 33.1667 83.8008 32.9999 84.6342C32.9999 85.6342 33.1665 86.4676 33.8333 87.1342C34.9999 88.4676 36.9999 88.6342 38.3333 87.4676L77.9999 56.9674C78.6665 56.4674 79.4999 56.4674 79.9999 56.9674L119.667 87.4674C121 88.4674 123 88.3008 124.167 87.134C124.833 86.4674 125.167 85.4674 125 84.634C125 83.634 124.5 82.8006 123.667 82.3006L78.9999 46.8008Z" fill="#203066"/>
<path d="M117.333 139.634H40.6666C39.6666 139.634 39 138.968 39 137.968V111.301C39 110.301 39.6666 109.635 40.6666 109.635C41.6666 109.635 42.3332 110.301 42.3332 111.301V136.301H115.667V88.6344L79 60.3012L42.3334 88.6344V94.6344C42.3334 95.6344 41.6668 96.301 40.6668 96.301C39.6668 96.301 39.0002 95.6344 39.0002 94.6344V87.9678C39.0002 87.4678 39.1668 86.8012 39.6668 86.4678L78 56.9678C78.6666 56.4678 79.5 56.4678 80 56.9678L118.333 86.4678C118.667 86.8012 119 87.3012 119 87.8012V137.968C119 138.968 118.333 139.634 117.333 139.634Z" fill="#203066"/>
<path d="M104 139.634H84.0001C83.0001 139.634 82.3335 138.968 82.3335 137.968V109.634C82.3335 108.634 83.0001 107.968 84.0001 107.968H104C105 107.968 105.667 108.634 105.667 109.634V137.968C105.667 138.968 105 139.634 104 139.634ZM85.6667 136.301H102.333V111.301H85.6667V136.301Z" fill="#203066"/>
<path d="M30.6666 139.634C29.6666 139.634 29 138.967 29 137.967V122.967C29 121.967 29.6666 121.301 30.6666 121.301C31.6666 121.301 32.3332 121.967 32.3332 122.967V137.967C32.3334 138.967 31.6666 139.634 30.6666 139.634Z" fill="#203066"/>
<path d="M35.6666 139.634C34.6666 139.634 34 138.967 34 137.967V122.967C34 121.967 34.6666 121.301 35.6666 121.301C36.6666 121.301 37.3332 121.967 37.3332 122.967V137.967C37.3334 138.967 36.6666 139.634 35.6666 139.634Z" fill="#203066"/>
<path d="M122.334 139.634C121.334 139.634 120.667 138.967 120.667 137.967V122.967C120.667 121.967 121.334 121.301 122.334 121.301C123.334 121.301 124 121.967 124 122.967V137.967C124 138.967 123.334 139.634 122.334 139.634Z" fill="#203066"/>
<path d="M127.334 139.634C126.334 139.634 125.667 138.967 125.667 137.967V122.967C125.667 121.967 126.334 121.301 127.334 121.301C128.334 121.301 129 121.967 129 122.967V137.967C129 138.967 128.334 139.634 127.334 139.634Z" fill="#203066"/>
<path d="M40.6666 127.967H30.6666C29.6666 127.967 29 127.3 29 126.3C29 125.3 29.6666 124.634 30.6666 124.634H40.6666C41.6666 124.634 42.3332 125.3 42.3332 126.3C42.3334 127.3 41.6666 127.967 40.6666 127.967Z" fill="#203066"/>
<path d="M40.6666 136.301H30.6666C29.6666 136.301 29 135.634 29 134.634C29 133.634 29.6666 132.968 30.6666 132.968H40.6666C41.6666 132.968 42.3332 133.634 42.3332 134.634C42.3332 135.634 41.6666 136.301 40.6666 136.301Z" fill="#203066"/>
<path d="M127.334 127.967H117.334C116.334 127.967 115.667 127.3 115.667 126.3C115.667 125.3 116.334 124.634 117.334 124.634H127.334C128.334 124.634 129 125.3 129 126.3C129 127.3 128.334 127.967 127.334 127.967Z" fill="#203066"/>
<path d="M127.334 136.301H117.334C116.334 136.301 115.667 135.634 115.667 134.634C115.667 133.634 116.334 132.968 117.334 132.968H127.334C128.334 132.968 129 133.634 129 134.634C129 135.634 128.334 136.301 127.334 136.301Z" fill="#203066"/>
<path d="M64.0001 127.968C63.0001 127.968 62.3335 127.301 62.3335 126.301V109.634C62.3335 108.634 63.0001 107.968 64.0001 107.968C65.0001 107.968 65.6667 108.634 65.6667 109.634V126.301C65.6667 127.301 65.0001 127.968 64.0001 127.968Z" fill="#203066"/>
<path d="M74.0001 119.634H54.0001C53.0001 119.634 52.3335 118.967 52.3335 117.967C52.3335 116.967 53.0001 116.301 54.0001 116.301H74.0001C75.0001 116.301 75.6667 116.967 75.6667 117.967C75.6667 118.967 75.0001 119.634 74.0001 119.634Z" fill="#203066"/>
<path d="M74.0001 94.634H54.0001C53.0001 94.634 52.3335 93.9674 52.3335 92.9674C52.3335 91.9674 53.0001 91.3008 54.0001 91.3008H74.0001C75.0001 91.3008 75.6667 91.9674 75.6667 92.9674C75.6667 93.9674 75.0001 94.634 74.0001 94.634Z" fill="#203066"/>
<path d="M104 94.634H84.0001C83.0001 94.634 82.3335 93.9674 82.3335 92.9674C82.3335 91.9674 83.0001 91.3008 84.0001 91.3008H104C105 91.3008 105.667 91.9674 105.667 92.9674C105.667 93.9674 105 94.634 104 94.634Z" fill="#203066"/>
<path d="M40.6666 106.3C39.6666 106.3 39 105.634 39 104.634V101.3C39 100.3 39.6666 99.6338 40.6666 99.6338C41.6666 99.6338 42.3332 100.3 42.3332 101.3V104.634C42.3334 105.634 41.6666 106.3 40.6666 106.3Z" fill="#203066"/>
</svg>
