<svg width="63" height="63" viewBox="0 0 63 63" fill="none" xmlns="http://www.w3.org/2000/svg">
<path d="M53.5471 33.6016V33.6013C53.5536 31.0647 53.5537 28.5283 53.5538 25.9918C53.5539 24.2164 53.554 22.441 53.5563 20.6653C53.5581 18.7629 52.9805 17.0772 51.7071 15.6676C48.44 12.0525 45.1607 8.44976 41.8807 4.84621C41.3422 4.25456 40.8036 3.6629 40.2651 3.07115C38.7385 1.39372 36.8318 0.598179 34.5645 0.600003C31.208 0.602112 27.8516 0.602078 24.4952 0.602045L53.5471 33.6016ZM53.5471 33.6016C53.5471 33.8039 53.5617 33.9849 53.6413 34.1429C53.7228 34.3048 53.8648 34.4287 54.0896 34.5352M53.5471 33.6016L0.505527 54.8372M0.505527 54.8372L0.605527 54.8371C0.609172 59.2543 3.75514 62.3945 8.18475 62.3963C20.8007 62.4019 33.4165 62.4055 46.0324 62.3871C47.4798 62.3853 48.9427 62.3685 50.3525 62.1265M0.505527 54.8372L0.605527 54.8371C0.600359 49.397 0.601522 43.9579 0.602685 38.5184C0.603183 36.187 0.603681 33.8556 0.603681 31.524C0.603681 29.218 0.602883 26.9121 0.602085 24.6062M0.505527 54.8372L0.602085 24.6062M50.3525 62.1265L50.3694 62.2251L50.3525 62.1265C50.3525 62.1265 50.3525 62.1265 50.3525 62.1265ZM50.3525 62.1265C56.555 61.0582 61.4195 56.0035 62.2588 49.8731C63.1389 43.4426 59.8719 37.2875 54.0896 34.5352M54.0896 34.5352L54.132 34.4457L54.0895 34.5351C54.0895 34.5351 54.0896 34.5352 54.0896 34.5352ZM8.3452 3.34298H8.34524C17.0173 3.34114 25.6894 3.34114 34.3634 3.34667L34.3637 3.34667C34.6999 3.34791 35.0394 3.37989 35.3957 3.41344C35.574 3.43023 35.7565 3.44741 35.9449 3.46134L36.0375 3.46819V3.56107V4.36739C36.0375 5.70521 36.0373 7.0428 36.0371 8.38032C36.0367 11.0551 36.0363 13.7296 36.0375 16.4049C36.0393 17.8424 36.4882 19.0002 37.2872 19.7995C38.0862 20.5988 39.2456 21.0498 40.6882 21.0544C42.4634 21.0599 44.2404 21.0618 46.0154 21.0525L46.0155 21.0525C46.5456 21.0507 46.9478 20.918 47.2161 20.6878C47.4822 20.4594 47.6285 20.1247 47.6285 19.6912C47.6285 19.2593 47.4785 18.9209 47.21 18.6886C46.9396 18.4546 46.5381 18.3187 46.0192 18.3169C45.2388 18.3146 44.4579 18.3152 43.6768 18.3159C42.6349 18.3168 41.5926 18.3177 40.5507 18.3114C40.008 18.3085 39.5655 18.1631 39.2578 17.8698C38.9493 17.5757 38.7904 17.1463 38.7885 16.6048C38.7749 14.0311 38.7784 11.4573 38.7819 8.88318C38.7831 7.97454 38.7843 7.06586 38.7848 6.15711C38.7848 6.11475 38.7997 6.07753 38.8116 6.04826C38.8148 6.04044 38.8182 6.0324 38.8218 6.02389C38.8332 5.9966 38.8466 5.96455 38.8628 5.92002L38.9141 5.77902L39.0245 5.88062C39.0761 5.92815 39.1285 5.97396 39.1803 6.01921C39.2828 6.10881 39.3828 6.19624 39.4696 6.29057L39.47 6.29098C40.5961 7.52842 41.7216 8.76604 42.847 10.0036C45.0728 12.4511 47.2983 14.8984 49.528 17.3432L49.528 17.3432C50.3378 18.2318 50.7997 19.2716 50.8035 20.475C50.8153 23.7968 50.8129 27.1186 50.8106 30.4391C50.81 31.2689 50.8094 32.0986 50.809 32.9282C50.809 32.983 50.7999 33.0353 50.79 33.0819C50.7854 33.1032 50.7811 33.1217 50.777 33.1392C50.7713 33.1639 50.766 33.1865 50.7612 33.2123L50.7427 33.3109L50.6441 33.2921C41.4312 31.5309 33.1156 38.6748 33.0478 47.6918L33.0471 47.7869L32.952 47.7909C32.8703 47.7944 32.7864 47.7991 32.7013 47.8038C32.5214 47.8139 32.3358 47.8242 32.1524 47.8242C31.0369 47.8249 29.9214 47.8246 28.806 47.8243C26.8543 47.8237 24.9027 47.8232 22.951 47.8279C22.4184 47.8297 21.9958 47.9761 21.7099 48.2205C21.4258 48.4633 21.2683 48.8096 21.2753 49.2319C21.2822 49.6439 21.4431 49.9809 21.7228 50.2166C22.004 50.4537 22.4131 50.5949 22.9252 50.5967H22.9253C24.6875 50.6046 26.4495 50.6031 28.2126 50.6016C28.9179 50.601 29.6233 50.6004 30.329 50.6004H33.2744H33.3547L33.3721 50.6787C34.1568 54.215 35.9636 57.1032 38.9489 59.4788L39.1729 59.657H38.8867H38.023C34.7244 59.657 31.4259 59.6572 28.1273 59.6574C21.5302 59.6579 14.9331 59.6583 8.33598 59.657C6.78151 59.6561 5.53091 59.1912 4.6689 58.3239C3.80696 57.4567 3.34543 56.1991 3.34543 54.6361C3.34358 39.209 3.34358 23.7818 3.34543 8.35286M8.3452 3.34298L3.34543 8.35286M8.3452 3.34298C6.7881 3.34392 5.53524 3.80732 4.67159 4.67246M8.3452 3.34298L4.67159 4.67246M3.34543 8.35286C3.34543 6.79245 3.80795 5.53758 4.67159 4.67246M3.34543 8.35286L4.67159 4.67246M0.602085 24.6062C0.600169 19.0722 0.598253 13.5383 0.607372 8.00435L0.602085 24.6062ZM6.17458 0.827811C6.80554 0.675117 7.47838 0.612906 8.13325 0.611074L0.607372 8.0043C0.614679 4.49365 2.83026 1.64327 6.17458 0.827811ZM35.8394 47.7097C35.8543 54.3184 41.1658 59.6385 47.7561 59.646C54.3155 59.6553 59.66 54.2886 59.6675 47.693C59.6749 41.1904 54.2555 35.8023 47.741 35.8283C41.1646 35.8581 35.8263 41.1847 35.8394 47.7097Z" fill="#D2CFFA" stroke="white" stroke-width="0.2"/>
<mask id="path-2-inside-1_5940_243567" fill="white">
<path d="M8.6387 46.1853C8.6387 45.9676 8.63685 45.748 8.63501 45.5303C8.63685 45.748 8.63685 45.9657 8.63685 46.1853C8.6387 46.6687 8.63132 47.1521 8.63132 47.6356C8.63132 47.1521 8.6387 46.6687 8.6387 46.1853Z"/>
</mask>
<path d="M8.6387 46.1853C8.6387 45.9676 8.63685 45.748 8.63501 45.5303C8.63685 45.748 8.63685 45.9657 8.63685 46.1853C8.6387 46.6687 8.63132 47.1521 8.63132 47.6356C8.63132 47.1521 8.6387 46.6687 8.6387 46.1853Z" fill="white"/>
<path d="M8.63685 46.1853H8.43685L8.43685 46.1861L8.63685 46.1853ZM8.8387 46.1853C8.8387 45.9666 8.83685 45.7462 8.835 45.5286L8.43502 45.532C8.43686 45.7498 8.4387 45.9686 8.4387 46.1853H8.8387ZM8.43502 45.532C8.43685 45.7487 8.43685 45.9656 8.43685 46.1853H8.83685C8.83685 45.9659 8.83685 45.7473 8.835 45.5286L8.43502 45.532ZM8.43685 46.1861C8.43871 46.6721 8.43132 47.145 8.43132 47.6356H8.83132C8.83132 47.1593 8.83869 46.6653 8.83685 46.1845L8.43685 46.1861ZM8.83132 47.6356C8.83132 47.3947 8.83316 47.1538 8.835 46.912C8.83685 46.6704 8.8387 46.4279 8.8387 46.1853H8.4387C8.4387 46.4261 8.43686 46.6671 8.43501 46.9089C8.43317 47.1505 8.43132 47.393 8.43132 47.6356H8.83132Z" fill="white" mask="url(#path-2-inside-1_5940_243567)"/>
<path d="M15.9303 51.4236C14.5 51.4383 13.0698 51.4383 11.6413 51.4236L11.6424 51.3236C11.6424 51.3236 11.6424 51.3236 11.6424 51.3236C9.96509 51.3057 8.78164 50.1383 8.74051 48.4652L8.74051 48.465C8.73316 48.1895 8.73132 47.9138 8.73132 47.6355C8.73132 47.4226 8.73277 47.208 8.73422 46.9929L15.9303 51.4236ZM15.9303 51.4236C17.6669 51.407 18.9053 50.2039 18.9385 48.4788L15.9303 51.4236ZM16.0761 41.2019L16.0759 41.2019C14.5579 41.1429 13.0342 41.1447 11.5177 41.2C10.6881 41.2305 10.0031 41.5432 9.52127 42.0522C9.03913 42.5615 8.75487 43.2734 8.73868 44.1114L8.73868 44.1114C8.73063 44.5249 8.73244 44.9369 8.73425 45.3514L16.0761 41.2019ZM16.0761 41.2019C17.7008 41.2626 18.8117 42.432 18.8404 44.0521L16.0761 41.2019ZM8.73685 46.1851V46.1849V46.1851ZM15.9617 48.5271H16.0617V48.4271V44.1169V44.0169H15.9617H11.5971H11.4971V44.1169V48.4271V48.5271H11.5971H15.9617Z" fill="#D2CFFA" stroke="white" stroke-width="0.2"/>
<path d="M8.74239 14.5597L8.74239 14.5597C8.71841 16.0107 8.72026 17.4617 8.74239 18.9148L8.74239 18.9149C8.75407 19.7454 9.04239 20.4519 9.53052 20.9574C10.0185 21.4628 10.7116 21.7731 11.5433 21.8018C13.0396 21.8533 14.5395 21.8533 16.0339 21.8018L16.034 21.8018C16.8676 21.7739 17.5588 21.4646 18.0463 20.9599C18.534 20.455 18.8234 19.7488 18.8422 18.9177C18.8422 18.9177 18.8422 18.9177 18.8422 18.9177L18.9422 18.92L8.74239 14.5597ZM8.74239 14.5597C8.75586 13.6985 9.0625 12.9819 9.57606 12.4791C10.0897 11.9761 10.8169 11.6808 11.6826 11.6745L8.74239 14.5597ZM18.8422 14.5641L18.8422 14.5641L15.9037 11.6745C16.7675 11.6817 17.491 11.9778 18.0031 12.4814C18.5152 12.985 18.8225 13.7024 18.8422 14.5641ZM15.9617 18.9868H16.0617V18.8868V14.547V14.447H15.9617H11.6192H11.5192V14.547V18.8868V18.9868H11.6192H15.9617Z" fill="#D2CFFA" stroke="white" stroke-width="0.2"/>
<path d="M11.4051 36.6352C12.9941 36.6795 14.5886 36.6795 16.1776 36.6352C17.6891 36.5946 18.8647 35.3971 18.9311 33.8841M11.4051 36.6352L11.4079 36.5352M11.4051 36.6352L11.4079 36.5352C11.4079 36.5352 11.4079 36.5352 11.4079 36.5352M11.4051 36.6352C9.89182 36.5928 8.69592 35.3953 8.65348 33.886M11.4079 36.5352C12.9951 36.5795 14.5877 36.5795 16.1748 36.5352L16.1749 36.5352C17.632 36.4961 18.767 35.3423 18.8312 33.8797M11.4079 36.5352C9.94766 36.4943 8.79443 35.3395 8.75344 33.8832M18.8312 33.8797C18.8312 33.8798 18.8312 33.8798 18.8312 33.8799L18.9311 33.8841M18.8312 33.8797L18.9311 33.8841M18.8312 33.8797C18.8539 33.3447 18.848 32.8106 18.8421 32.2731C18.8394 32.0274 18.8367 31.7809 18.8367 31.5334C18.8367 31.278 18.8396 31.0236 18.8425 30.7698C18.8489 30.2173 18.8552 29.6676 18.8312 29.117L18.9311 29.1126C18.9552 29.666 18.9488 30.2203 18.9425 30.7743C18.9396 31.0274 18.9367 31.2805 18.9367 31.5334C18.9367 31.7785 18.9394 32.0237 18.9421 32.2687C18.948 32.8076 18.954 33.3463 18.9311 33.8841M8.75344 33.8832C8.71104 32.2945 8.71104 30.704 8.75344 29.1171C8.79262 27.6574 9.94753 26.5043 11.406 26.4633L8.75344 33.8832ZM8.75344 33.8832C8.75344 33.8832 8.75344 33.8833 8.75344 33.8833L8.65348 33.886M8.75344 33.8832C8.75344 33.8832 8.75344 33.8832 8.75344 33.8831L8.65348 33.886M8.75344 33.8832L11.4033 26.3634C9.89182 26.4058 8.69408 27.6015 8.65348 29.1145C8.61103 30.7031 8.61103 32.2955 8.65348 33.886M15.9617 33.8014H16.0617V33.7014V29.3359V29.2359H15.9617H11.6321H11.5321V29.3359V33.7014V33.8014H11.6321H15.9617Z" fill="#D2CFFA" stroke="white" stroke-width="0.2"/>
<path d="M34.0318 20.5275L34.0316 20.5277C33.7145 20.806 33.2303 21.0167 32.8189 21.0306L32.8186 21.0306C31.6163 21.0747 30.4128 21.0674 29.2078 21.0601C28.7526 21.0573 28.297 21.0545 27.8413 21.0545L27.8412 21.0545C27.4767 21.0549 27.1123 21.0555 26.7481 21.0561C25.4742 21.0582 24.2013 21.0603 22.9272 21.0545C22.4083 21.0518 21.9986 20.9159 21.7188 20.6849C21.4409 20.4554 21.2822 20.125 21.2753 19.7118L21.2753 19.7116C21.2675 19.2855 21.4242 18.9409 21.7071 18.7011C21.992 18.4597 22.414 18.3171 22.947 18.3171L22.9471 18.3171C24.5969 18.3152 26.2463 18.3152 27.8957 18.3152H27.8957C29.5451 18.3152 31.1946 18.3152 32.8446 18.3134L32.8445 18.2134V18.3134C33.161 18.3134 33.4376 18.3721 33.6664 18.4988C33.894 18.6247 34.0806 18.8212 34.2135 19.1078C34.4542 19.6317 34.4358 20.1749 34.0318 20.5275ZM21.1753 19.7135L21.1753 19.7135L21.1753 19.7135Z" fill="#D2CFFA" stroke="white" stroke-width="0.2"/>
<path d="M22.903 33.0907L22.9032 33.0907C24.0934 33.084 25.2844 33.0851 26.4753 33.0862C26.9221 33.0866 27.3688 33.087 27.8154 33.087C28.2627 33.087 28.7098 33.0866 29.1568 33.0862C30.3478 33.0851 31.5381 33.084 32.7295 33.0907L32.7295 33.0907C33.2587 33.0934 33.6606 33.2261 33.9286 33.4561C34.1945 33.6843 34.3408 34.0184 34.3408 34.4518C34.34 34.8806 34.1884 35.2197 33.9186 35.4533C33.6472 35.6883 33.2455 35.8254 32.7299 35.8263C29.4542 35.8318 26.1785 35.8318 22.9029 35.8263C22.3958 35.8254 21.9888 35.6834 21.71 35.4448C21.4326 35.2075 21.2743 34.8682 21.2734 34.4537C21.2726 34.0431 21.4294 33.7068 21.7063 33.4712C21.9848 33.2342 22.3929 33.0925 22.903 33.0907Z" fill="#D2CFFA" stroke="white" stroke-width="0.2"/>
<path d="M29.7877 15.1704L29.7878 15.1704C30.2974 15.1677 30.7018 15.0227 30.9768 14.7812C31.2505 14.5409 31.4045 14.198 31.4028 13.7799C31.401 13.3628 31.2454 13.0249 30.9704 12.7884C30.6938 12.5505 30.2876 12.4078 29.7743 12.4015C28.9831 12.3939 28.1915 12.3959 27.3996 12.3979C27.0394 12.3988 26.6791 12.3997 26.3187 12.3997C25.9669 12.3997 25.6154 12.3985 25.2641 12.3973C24.4623 12.3946 23.6618 12.3918 22.8617 12.4034L29.7877 15.1704ZM29.7877 15.1704C27.4831 15.1833 25.1784 15.1833 22.8737 15.1704L22.8731 15.2704L22.8739 15.1704C22.376 15.1668 21.9715 15.014 21.6952 14.7654C21.42 14.5178 21.2658 14.1697 21.2752 13.7597L21.2753 13.7595M29.7877 15.1704L21.2753 13.7595M21.2753 13.7595C21.2839 13.3581 21.4414 13.0255 21.7117 12.7903M21.2753 13.7595L21.7117 12.7903M21.7117 12.7903C21.9832 12.5542 22.3755 12.4105 22.8617 12.4034L21.7117 12.7903Z" fill="#D2CFFA" stroke="white" stroke-width="0.2"/>
<path d="M29.923 30.0053C30.8679 29.9923 31.5064 29.3816 31.5046 28.5421C31.5009 27.7044 30.8476 27.0807 29.9138 27.0752L29.923 30.0053ZM29.923 30.0053C29.0745 30.0183 28.2251 30.0157 27.3761 30.013C27.0266 30.0119 26.6772 30.0108 26.3279 30.0108C25.9753 30.0108 25.6226 30.0118 25.2699 30.0128C24.447 30.0151 23.6241 30.0174 22.8012 30.0071L29.923 30.0053ZM29.9215 29.9053L29.9216 29.9053C30.3728 29.8991 30.7437 29.7506 31.0006 29.5106C31.2569 29.2711 31.4054 28.9356 31.4046 28.5425L29.9215 29.9053ZM29.9215 29.9053C29.074 29.9183 28.2261 29.9157 27.3774 29.913C27.0277 29.9119 26.6779 29.9108 26.3279 29.9108C25.9746 29.9108 25.6216 29.9118 25.2688 29.9128C24.4462 29.9151 23.6245 29.9174 22.8024 29.9071L22.8023 29.9071M29.9215 29.9053L22.8023 29.9071M22.8023 29.9071C22.3313 29.9018 21.9438 29.7497 21.6779 29.5044M22.8023 29.9071L21.6779 29.5044M21.6779 29.5044C21.4128 29.2598 21.2631 28.9178 21.2734 28.5189L21.6779 29.5044ZM29.9132 27.1752C30.799 27.1805 31.4011 27.7662 31.4046 28.5423L29.9132 27.1752Z" fill="#D2CFFA" stroke="white" stroke-width="0.2"/>
<path d="M22.8699 41.9477L22.8698 41.9477C22.3705 41.9495 21.9655 42.0982 21.6898 42.3424C21.4154 42.5855 21.2622 42.9289 21.2734 43.3377L22.8699 41.9477ZM22.8699 41.9477C25.1986 41.9385 27.5255 41.9385 29.8524 41.9477C30.3329 41.9504 30.7217 42.0956 30.9885 42.3346C31.2544 42.5728 31.4063 42.9102 31.4046 43.314C31.402 43.7167 31.2455 44.0542 30.9768 44.2932M22.8699 41.9477L30.9768 44.2932M30.9768 44.2932C30.7072 44.533 30.3185 44.6789 29.8446 44.6833L30.9768 44.2932Z" fill="#D2CFFA" stroke="white" stroke-width="0.2"/>
<path d="M52.1146 43.0112C50.1823 45.3268 48.2519 47.6424 46.244 50.0521L46.1738 50.1365L46.0963 50.0586C45.7954 49.7562 45.5004 49.4575 45.2087 49.1621C44.4707 48.4148 43.7544 47.6894 43.0197 46.9826C42.7591 46.7328 42.4172 46.5145 42.0812 46.424C41.5068 46.2721 40.9057 46.5976 40.6429 47.1334C40.4888 47.4488 40.4499 47.7405 40.5049 48.0105C40.56 48.2815 40.7116 48.5402 40.9545 48.7847C42.3013 50.1405 43.6537 51.4908 45.0063 52.8413L45.0068 52.8418L52.1146 43.0112ZM52.1146 43.0112C52.1602 42.9565 52.2049 42.9019 52.2493 42.8478C52.38 42.6882 52.5076 42.5324 52.6483 42.3877C53.2035 41.8187 54.0024 41.7686 54.5625 42.2411C54.8541 42.4876 55.0179 42.8005 55.05 43.1309C55.0822 43.4615 54.9832 43.8172 54.7352 44.1493C54.4864 44.4813 54.2173 44.7976 53.9463 45.116C53.8294 45.2534 53.7121 45.3913 53.596 45.5309M52.1146 43.0112L45.0069 52.8419C45.5112 53.3443 45.9357 53.5677 46.3306 53.5535C46.725 53.5394 47.1253 53.287 47.5781 52.7469C48.9566 51.1018 50.3299 49.4525 51.7035 47.8028C52.3341 47.0455 52.9648 46.288 53.596 45.5309M53.596 45.5309C53.596 45.5309 53.5961 45.5308 53.5961 45.5308L53.6729 45.5949L53.596 45.5309Z" fill="#D2CFFA" stroke="white" stroke-width="0.2"/>
</svg>
