<svg width="50" height="51" viewBox="0 0 50 51" fill="none" xmlns="http://www.w3.org/2000/svg">
<path d="M16.667 1.04492H6.66699C6.66699 13.9283 14.867 24.3783 25.0003 24.3783C35.1337 24.3783 43.3337 13.9283 43.3337 1.04492H33.3337" stroke="#203066" stroke-width="2" stroke-linecap="round" stroke-linejoin="round"/>
<path d="M34.167 41.0449H15.8337C14.9132 41.0449 14.167 41.7911 14.167 42.7116V47.7116C14.167 48.6321 14.9132 49.3783 15.8337 49.3783H34.167C35.0875 49.3783 35.8337 48.6321 35.8337 47.7116V42.7116C35.8337 41.7911 35.0875 41.0449 34.167 41.0449Z" stroke="#203066" stroke-width="2" stroke-linecap="round" stroke-linejoin="round"/>
<path d="M21.667 24.0449V41.0449" stroke="#203066" stroke-width="2" stroke-linecap="round" stroke-linejoin="round"/>
<path d="M28.334 24.0449V41.0449" stroke="#203066" stroke-width="2" stroke-linecap="round" stroke-linejoin="round"/>
<path d="M42.667 7.71181C44.0653 7.68713 45.4222 8.18656 46.4709 9.11185C47.5195 10.0371 48.184 11.3213 48.3337 12.7118C48.3337 15.4785 46.1003 21.0451 43.3337 21.0451" stroke="#203066" stroke-width="2" stroke-linecap="round" stroke-linejoin="round"/>
<path d="M6.66699 21.0451C3.90033 21.0451 1.66699 15.4785 1.66699 12.7118C1.81662 11.3213 2.48111 10.0371 3.52977 9.11185C4.57843 8.18656 5.93536 7.68713 7.33366 7.71181" stroke="#203066" stroke-width="2" stroke-linecap="round" stroke-linejoin="round"/>
<path d="M25.834 1.62862L27.3507 5.94529C27.4037 6.11057 27.5051 6.25613 27.6418 6.36311C27.7785 6.47008 27.9442 6.53355 28.1173 6.54529L32.5007 6.72862C32.6991 6.72214 32.8942 6.78148 33.0554 6.8974C33.2167 7.01333 33.335 7.17932 33.3921 7.36953C33.4491 7.55973 33.4417 7.76347 33.3709 7.949C33.3001 8.13454 33.1699 8.29144 33.0007 8.39529L29.5507 11.1786C29.4191 11.2948 29.3217 11.4446 29.2689 11.612C29.216 11.7794 29.2097 11.958 29.2507 12.1286L30.4507 16.562C30.5019 16.7341 30.4995 16.9178 30.4437 17.0885C30.3879 17.2592 30.2814 17.4089 30.1383 17.5175C29.9953 17.6262 29.8225 17.6886 29.6431 17.6966C29.4637 17.7045 29.2861 17.6575 29.134 17.562L25.484 14.9953C25.3419 14.8971 25.1734 14.8445 25.0007 14.8445C24.828 14.8445 24.6594 14.8971 24.5173 14.9953L20.834 17.562C20.6819 17.6575 20.5043 17.7045 20.3249 17.6966C20.1454 17.6886 19.9727 17.6262 19.8297 17.5175C19.6866 17.4089 19.5801 17.2592 19.5243 17.0885C19.4685 16.9178 19.4661 16.7341 19.5173 16.562L20.834 12.1286C20.8749 11.958 20.8687 11.7794 20.8158 11.612C20.763 11.4446 20.6655 11.2948 20.534 11.1786L17.0007 8.32862C16.8314 8.22478 16.7012 8.06787 16.6304 7.88234C16.5596 7.69681 16.5522 7.49307 16.6092 7.30286C16.6663 7.11265 16.7847 6.94666 16.9459 6.83074C17.1071 6.71481 17.3022 6.65547 17.5007 6.66195L21.9007 6.47862C22.0738 6.46688 22.2395 6.40342 22.3762 6.29644C22.5129 6.18946 22.6143 6.0439 22.6673 5.87862L24.1673 1.62862C24.2191 1.44752 24.3284 1.2882 24.4787 1.17478C24.6291 1.06135 24.8123 1 25.0007 1C25.189 1 25.3722 1.06135 25.5226 1.17478C25.6729 1.2882 25.7823 1.44752 25.834 1.62862V1.62862Z" stroke="#203066" stroke-width="2" stroke-linecap="round" stroke-linejoin="round"/>
</svg>
