<svg width="50" height="50" viewBox="0 0 50 50" fill="none" xmlns="http://www.w3.org/2000/svg">
<path d="M27.2262 39.637H22.1951V36.3452C20.2675 36.1741 18.2609 35.6223 16.8995 34.8701L16.3164 34.5477L17.7702 28.8782L18.7425 29.4106C19.6835 29.9259 21.6094 30.7905 23.934 30.7905C25.1358 30.7905 26.3483 30.4095 26.3483 29.5581C26.3483 28.9872 25.9815 28.3352 23.3208 27.4362C20.2191 26.3926 16.6576 24.6542 16.6576 20.4414C16.6576 17.1627 18.8245 14.6456 22.364 13.7397V10.3623H27.3951V13.38C29.5299 13.5526 30.931 14.1069 31.8302 14.5299L32.4801 14.8358L31.016 20.3507L30.0457 19.8852C29.2032 19.4808 27.7929 18.8038 25.5885 18.8038C24.8256 18.8038 23.5457 18.9419 23.5457 19.8673C23.5457 20.5675 25.4085 21.3367 27.0316 21.9286C31.3776 23.4496 33.2364 25.5912 33.2364 29.0853C33.2364 30.8254 32.6259 32.4041 31.4706 33.6507C30.4265 34.7776 28.9692 35.582 27.2262 35.9998V39.637ZM23.9172 37.9149H25.5042V34.5729L26.2189 34.4497C29.4852 33.8866 31.5143 31.831 31.5143 29.0853C31.5143 26.8265 30.6535 25.0207 26.4522 23.5502C23.915 22.6249 21.8237 21.7121 21.8237 19.8673C21.8237 18.5206 22.8128 17.0817 25.5885 17.0817C27.4843 17.0817 28.8995 17.5154 29.8797 17.9198L30.4414 15.8046C29.5592 15.4584 28.298 15.1088 26.5084 15.0555L25.6731 15.0305V12.0844H24.0861V15.1461L23.3832 15.2774C20.2502 15.8631 18.3796 17.7935 18.3796 20.4414C18.3796 22.9055 20.0219 24.5094 23.871 25.8042C26.0526 26.5413 28.0704 27.5061 28.0704 29.5581C28.0704 31.3529 26.4468 32.5126 23.934 32.5126C21.8845 32.5126 20.1114 31.9413 18.8999 31.406L18.324 33.6518C19.4313 34.1352 21.1485 34.6161 23.0818 34.6738L23.9171 34.6988V37.9149H23.9172Z" fill="white"/>
<path d="M24.8455 47.8226C12.2611 47.8226 2.02284 37.5843 2.02284 24.9999C2.02284 12.4154 12.2611 2.17716 24.8455 2.17716C37.43 2.17716 47.6685 12.4154 47.6685 24.9999C47.6685 29.011 46.627 32.7828 44.8024 36.0617L46.5134 36.5201C48.3484 33.0827 49.3905 29.1609 49.3905 24.9999C49.3905 11.4659 38.3797 0.455078 24.8455 0.455078C11.3115 0.455078 0.300781 11.4659 0.300781 24.9999C0.300781 38.534 11.3115 49.5446 24.8455 49.5446C29.1452 49.5446 33.1895 48.432 36.7076 46.4815L36.2475 44.7645C32.8906 46.7086 28.9958 47.8226 24.8455 47.8226Z" fill="white"/>
<path d="M46.155 49.5448C45.9347 49.5448 45.7144 49.4607 45.5462 49.2928L41.3703 45.1169L40.0271 47.9082C39.871 48.2328 39.5278 48.4262 39.1709 48.3923C38.8124 48.3587 38.5126 48.1055 38.4194 47.7578L35.331 36.2314C35.2515 35.9343 35.3366 35.6172 35.554 35.3997C35.7716 35.1821 36.0885 35.0972 36.3857 35.1768L47.9119 38.2654C48.2595 38.3586 48.5127 38.6584 48.5463 39.0169C48.5797 39.3753 48.3868 39.7169 48.0623 39.8731L45.2709 41.2165L49.4468 45.3922C49.6082 45.5536 49.6988 45.7727 49.6988 46.0009C49.6988 46.2294 49.6082 46.4483 49.4468 46.61L46.764 49.2928C46.5958 49.4607 46.3753 49.5448 46.155 49.5448ZM41.1209 42.7887C41.3472 42.7887 41.5668 42.878 41.7297 43.0409L46.155 47.4662L47.6202 46.001L43.1949 41.5759C42.9977 41.3785 42.9081 41.0978 42.9549 40.8225C43.0018 40.5474 43.1788 40.3122 43.4303 40.1912L45.2238 39.3279L37.3805 37.2263L39.4819 45.0695L40.3449 43.2763C40.4659 43.0248 40.7014 42.8477 40.9765 42.8009C41.0246 42.7927 41.0729 42.7887 41.1209 42.7887Z" fill="white"/>
</svg>
