<svg width="50" height="50" viewBox="0 0 50 50" fill="none" xmlns="http://www.w3.org/2000/svg">
<path d="M5.32031 17.5625V42.3437H13.2109C13.9596 42.3417 14.677 42.0428 15.2057 41.5127C15.7344 40.9825 16.0313 40.2643 16.0313 39.5156V20.3906C16.0313 20.0192 15.9581 19.6515 15.816 19.3083C15.6738 18.9652 15.4655 18.6535 15.2029 18.3908C14.9403 18.1282 14.6285 17.9199 14.2854 17.7778C13.9423 17.6357 13.5745 17.5625 13.2031 17.5625H5.32031Z" stroke="white" stroke-width="2"/>
<path d="M31.3594 19.9527C32.3445 16.8774 32.8709 13.6737 32.9219 10.4449C32.9219 5.46832 27.4531 5.98394 27.4531 5.98394C27.4531 5.98394 25.2266 17.3902 16.0469 20.648" stroke="white" stroke-width="2"/>
<path d="M26.2422 19.9922H42.1875C42.1875 19.9922 44.25 20.1719 44.25 22.7891C44.25 25.4062 42.2734 25.4141 42.2734 25.4141H38.2109" stroke="white" stroke-width="2"/>
<path d="M38.2109 31.25H42.1875C42.1875 31.25 44.4453 31.25 44.4453 28.3203C44.4453 25.3906 42.1875 25.4141 42.1875 25.4141" stroke="white" stroke-width="2"/>
<path d="M38.2109 37.1406H42.1875C42.1875 37.1406 44.4453 37.1406 44.4453 34.2109C44.4453 31.2813 42.1875 31.25 42.1875 31.25" stroke="white" stroke-width="2"/>
<path d="M16.0312 39.5156L23.2031 41.8594C23.2031 41.8594 24.9844 42.5391 31.6328 42.3828C38.2813 42.2266 37.0313 42.2734 38.6641 42.2188C41.4375 42.2188 43.7734 39.3047 40.5469 37.1797" stroke="white" stroke-width="2"/>
</svg>
