<svg width="50" height="50" viewBox="0 0 50 50" fill="none" xmlns="http://www.w3.org/2000/svg">
<path d="M47.5 40.1667C47.3333 40.0834 47.0833 39.9167 46.9167 39.8334C45.4647 39.0942 43.9622 38.4309 42.4152 37.8396C42.3287 37.7232 42.2188 37.6285 42.0834 37.5834C40.1667 36.9167 38.0834 36.2501 36.0001 35.7501C35.8721 35.7181 35.7318 35.7232 35.5981 35.7603C34.5805 35.5209 33.5487 35.3076 32.5043 35.1192C32.5487 34.8073 32.577 34.4898 32.5834 34.1667V31.964C36.0981 28.8631 38.2709 23.8522 38.1667 19.1667V15.043C38.2232 15.0022 38.2789 14.9603 38.3334 14.9167C39.4167 14 40.0001 12.6667 40.0001 11.3334C40 5.0833 34.9167 0 28.75 0H21.3333C15.0833 0 10 5.0833 9.9166 11.25C9.9166 12.6667 10.4999 13.9167 11.5833 14.8333C11.6105 14.8543 11.639 14.8738 11.6666 14.8942V19.1666C11.6666 23.8926 13.9172 28.9487 17.4999 32.043V34.1666C17.4999 34.4577 17.5179 34.7441 17.5495 35.0262C12.364 35.9569 7.49189 37.5055 3.0832 39.7499L2.4999 40.0832C0.916699 40.8333 0 42.4167 0 44.1667V49.1667C0 49.6667 0.333301 50 0.833301 50H9.1666H40.8333H49.1666C49.6666 50 49.9999 49.6667 49.9999 49.25V44.25C50 42.5833 49 41 47.5 40.1667ZM36.3333 43.3333H33.0833L36.3062 37.5486C37.7026 37.9025 39.0687 38.3106 40.3989 38.7698L36.3333 43.3333ZM37.25 13.5833C37.2281 13.6024 37.2053 13.6202 37.1829 13.6387C37.0893 13.6604 36.9983 13.6955 36.9167 13.75C36.5562 14.0204 36.1712 14.1924 35.7752 14.2679C35.4611 14.316 35.1416 14.3117 34.8334 14.25C28.8565 13.1151 22.811 13.0107 17.0086 13.9365C16.3646 14.0296 15.7228 14.1337 15.0834 14.25C14.9808 14.2614 14.8781 14.2677 14.7757 14.2697C14.1058 14.2577 13.4565 14.0716 12.9167 13.6667C12.4167 13.3334 12.0834 12.8334 11.9167 12.3334L15.5 11.6667C21.75 10.5 28.1667 10.5 34.5833 11.6667L38.1387 12.3281C37.9542 12.7999 37.6469 13.236 37.25 13.5833ZM21.25 1.6667H28.6667C33.7783 1.6667 37.9706 5.64736 38.3105 10.6738L34.8334 10.0834C28.2501 8.9167 21.5834 8.9167 15.1667 10.0834L11.6896 10.6738C12.0292 5.64736 16.2183 1.6667 21.25 1.6667ZM13.3333 19.1667V15.75C14 15.9167 14.75 16 15.5 15.8333C18.6114 15.2525 21.7641 14.961 24.9375 14.9585C28.1113 14.961 31.3057 15.2524 34.5 15.8333C34.7276 15.8902 34.9161 15.9079 35.0926 15.9137C35.6172 15.9534 36.1654 15.8753 36.6666 15.75V19.1667C36.6666 26.938 30.9669 32.8597 25.6396 33.3054C25.5794 33.3102 25.5191 33.3152 25.459 33.3187C25.4171 33.3212 25.3752 33.3232 25.3333 33.3251C25.222 33.3298 25.1108 33.3334 24.9999 33.3334C24.8889 33.3334 24.7774 33.3298 24.6659 33.3251C24.6249 33.3232 24.5839 33.3213 24.5428 33.3187C24.4783 33.315 24.4137 33.3097 24.3491 33.3044C23.2757 33.2131 22.1875 32.9003 21.1339 32.3942C21.125 32.3898 21.1159 32.386 21.107 32.3815C21.1007 32.3784 21.0943 32.3751 21.088 32.3721C20.3322 31.9943 19.6012 31.5079 18.9166 30.9167C18.8433 30.8678 18.7554 30.8264 18.6617 30.796C15.6258 28.28 13.3333 24.0951 13.3333 19.1667ZM24.599 34.9917C24.6087 34.9921 24.6184 34.9929 24.628 34.9932C24.7515 34.9976 24.8754 34.9999 24.9999 34.9999C25.1244 34.9999 25.2483 34.9975 25.3718 34.9932C25.3814 34.9928 25.3912 34.9921 25.4009 34.9917C27.3735 34.9166 29.2065 34.2899 30.8332 33.2729V34.1666C30.8332 37.4166 28.2499 39.9999 24.9999 39.9999C21.7499 39.9999 19.1666 37.4166 19.1666 34.1666V33.275C20.7958 34.2909 22.6277 34.9167 24.599 34.9917ZM18.1171 37.1657C18.1329 37.2018 18.149 37.2375 18.1654 37.2731C18.5077 38.0315 18.9716 38.721 19.5336 39.3176C19.5631 39.3491 19.5929 39.3803 19.6229 39.4112C19.6589 39.4482 19.695 39.4851 19.7318 39.5213C19.7962 39.585 19.8617 39.6474 19.9283 39.7085C19.9363 39.7158 19.944 39.7234 19.9521 39.7308C21.1021 40.779 22.5696 41.4551 24.1957 41.6238C24.2217 41.6266 24.2479 41.6289 24.2739 41.6314C24.3658 41.64 24.4582 41.647 24.5511 41.6522C24.582 41.654 24.6129 41.6562 24.6439 41.6576C24.762 41.663 24.8806 41.6665 25.0001 41.6665C25.1196 41.6665 25.2385 41.663 25.3568 41.6576C25.3871 41.6562 25.4171 41.6541 25.4473 41.6524C25.5428 41.647 25.6378 41.6398 25.7323 41.6311C25.7546 41.6289 25.777 41.627 25.7991 41.6246C28.1786 41.3808 30.2566 40.0581 31.436 38.0779C31.4434 38.066 31.4505 38.0539 31.4577 38.042C31.4726 38.0167 31.4875 37.9915 31.5021 37.966C31.7449 37.5581 31.9512 37.1256 32.1163 36.6723C32.9368 36.8073 33.7478 36.9637 34.5502 37.1367L31.1455 43.3332H18.8086L15.409 37.1459C16.2354 36.9665 17.071 36.8052 17.9167 36.6666C17.9635 36.7961 18.0145 36.923 18.0674 37.0488C18.0835 37.0881 18.1003 37.1269 18.1171 37.1657ZM9.67441 38.7589C11.0048 38.2943 12.3711 37.8853 13.7674 37.5319L16.9167 43.3333H13.6667L9.67441 38.7589ZM1.6667 44.1667C1.6667 43.0834 2.25 42.0834 3.25 41.5834L3.8333 41.2501C5.15654 40.5755 6.52842 39.9575 7.94355 39.4011L11.5686 43.4354C9.69697 43.8489 8.3332 45.488 8.3332 47.5001V48.3334H1.6667V44.1667ZM10 48.3333V47.5C10 46.0833 11.0833 45 12.5 45H13.3333H18.3333H31.6666H36.6666H37.5C38.9167 45 40 46.0833 40 47.5V48.3333H10ZM48.3333 48.3333H41.6666V47.5C41.6666 45.4655 40.2728 43.8117 38.369 43.4212L42.0187 39.3594C43.4472 39.9073 44.8316 40.5122 46.1666 41.1666C46.3333 41.3333 46.5833 41.4166 46.7499 41.4999C47.7499 42.0832 48.3332 43.0832 48.3332 44.1666V48.3333H48.3333Z" fill="white"/>
<path d="M20.8333 7.5H29.1666C29.6666 7.5 29.9999 7.1667 29.9999 6.6667V3.3333C29.9999 2.8333 29.6666 2.5 29.1666 2.5H20.8333C20.3333 2.5 20 2.8333 20 3.3333V6.6666C20 7.1667 20.3333 7.5 20.8333 7.5ZM21.6667 4.1667H28.3334V5.8334H21.6667V4.1667Z" fill="white"/>
<path d="M15.8333 45.833C15.3333 45.833 15 46.1663 15 46.6663C15 47.1663 15.3333 47.4996 15.8333 47.4996C16.3333 47.4996 16.6666 47.1663 16.6666 46.6663C16.6666 46.1663 16.3333 45.833 15.8333 45.833Z" fill="white"/>
<path d="M34.1663 45.833C33.6663 45.833 33.333 46.1663 33.333 46.6663C33.333 47.1663 33.6663 47.4996 34.1663 47.4996C34.6663 47.4996 34.9996 47.1663 34.9996 46.6663C34.9996 46.1663 34.6663 45.833 34.1663 45.833Z" fill="white"/>
</svg>
