<svg width="59" height="63" viewBox="0 0 59 63" fill="none" xmlns="http://www.w3.org/2000/svg">
<g clip-path="url(#clip0_5940_243579)">
<path d="M58.5777 48.9618C57.3423 42.0451 50.7017 37.8537 43.9307 39.7169C39.268 41.0005 35.8051 45.342 35.5571 50.213C35.3026 55.2133 38.2484 59.8987 42.8049 61.6295C43.8469 62.0266 44.9663 62.2155 46.0503 62.4997H48.3454C48.4759 62.4593 48.6031 62.3996 48.7352 62.3835C55.1132 61.5665 59.7099 55.2989 58.5777 48.9618ZM47.1584 60.5623C41.8047 60.5558 37.4592 56.2046 37.4753 50.8669C37.4931 45.476 41.8369 41.1684 47.2357 41.1894C52.5169 41.2088 56.8173 45.5938 56.7995 50.9428C56.7834 56.2175 52.4251 60.5671 47.1584 60.5623Z" fill="#D2CFFA"/>
<path d="M47.8542 13.0954C45.58 13.0921 43.3042 13.0954 41.03 13.0954H40.3728C40.3728 12.1153 40.3809 11.2273 40.3696 10.3409C40.3616 9.58857 40.0056 9.23498 39.2551 9.22207C38.6785 9.21238 38.1003 9.22045 37.4737 9.22045C37.4737 7.96757 37.4769 6.7825 37.4737 5.59581C37.4641 2.56693 35.4105 0.50516 32.389 0.503545C28.0403 0.498702 23.6917 0.500316 19.343 0.503545C19.0418 0.503545 18.7374 0.506774 18.441 0.555211C15.9623 0.958846 14.3001 2.91083 14.2824 5.43597C14.2744 6.68078 14.2808 7.92559 14.2808 9.22045C13.6559 9.22045 13.097 9.21561 12.5381 9.22207C11.7441 9.23176 11.3914 9.57565 11.3833 10.3635C11.3753 11.2483 11.3817 12.1331 11.3817 13.0954C8.82564 13.0954 6.35173 13.0921 3.87943 13.097C1.95474 13.0986 0.756442 14.3014 0.753221 16.234C0.748389 18.4944 0.75 20.7547 0.751611 23.0151C0.753221 24.6684 1.46995 25.6904 3.03869 26.1473C3.5412 26.2942 3.66361 26.5267 3.662 27.024C3.64589 33.5629 3.64911 40.1018 3.65072 46.6407C3.65234 49.7987 5.67688 51.8427 8.80793 51.8443C16.6194 51.846 24.4293 51.8443 32.2408 51.8443C32.4019 51.8443 32.5646 51.854 32.724 51.8347C33.2475 51.7685 33.6308 51.3503 33.5986 50.8514C33.5664 50.3186 33.2603 50.0022 32.7369 49.9198C32.5404 49.8891 32.3358 49.9069 32.1345 49.9069H8.82242C6.73828 49.9069 5.58347 48.7396 5.58347 46.6358V27.0385C5.71232 27.045 5.77674 27.0337 5.82989 27.0514C11.4187 28.8452 17.0044 30.6438 22.5964 32.4279C22.9137 32.5296 22.991 32.6862 22.983 32.9897C22.9669 33.7356 22.9701 34.4832 22.9814 35.2291C22.991 35.9556 23.3405 36.3318 24.0412 36.3399C25.2685 36.3544 26.4974 36.3544 27.7246 36.3399C28.3995 36.3318 28.7587 35.9589 28.7732 35.2775C28.7877 34.572 28.8102 33.8632 28.7651 33.1593C28.7345 32.6894 28.9052 32.5005 29.3401 32.3617C33.2491 31.1265 37.1516 29.8672 41.0557 28.6159C42.7356 28.0767 44.4187 27.5439 46.1711 26.9836V27.7005C46.1711 30.5469 46.1662 33.3918 46.1743 36.2382C46.1775 36.8953 46.585 37.3183 47.1519 37.3086C47.6963 37.2989 48.0732 36.8888 48.1022 36.2673C48.1086 36.1058 48.1038 35.9443 48.1038 35.7829V26.3733C48.3019 26.3023 48.4324 26.2522 48.5661 26.2087C50.3877 25.5935 51.0029 24.7378 51.0029 22.8117C51.0029 20.632 51.0045 18.4524 51.0029 16.2728C50.9997 14.2901 49.8191 13.0986 47.8542 13.0954ZM38.4127 11.1999V13.0631H30.7591V11.1999H38.4127ZM21.7122 9.22045C21.192 9.21884 20.6734 9.22045 20.108 9.22045V6.34496H31.6304V9.22045C31.1198 9.22045 30.6028 9.21884 30.0874 9.22045C29.0921 9.22368 28.7812 9.53045 28.7764 10.5089C28.7732 11.3161 28.7699 12.1234 28.7651 12.9307C28.7651 12.9646 28.7361 13.0001 28.7087 13.0647H22.9782C22.9782 12.2106 22.9798 11.3533 22.9782 10.4943C22.9749 9.54498 22.656 9.2253 21.7122 9.22045ZM16.2586 4.95322C16.365 3.5292 17.6212 2.4523 19.0579 2.44745C23.6031 2.42969 28.1499 2.42969 32.6966 2.44745C34.2283 2.45391 35.4782 3.67289 35.5265 5.19379C35.5684 6.50157 35.5361 7.81419 35.5361 9.17202H33.6082V6.18673C33.6082 5.94455 33.6147 5.70237 33.6066 5.4618C33.5841 4.74979 33.2314 4.38167 32.5162 4.38006C28.0903 4.3736 23.6643 4.3736 19.2383 4.38006C18.5039 4.38167 18.1543 4.75786 18.1479 5.52154C18.1399 6.72922 18.1463 7.93528 18.1463 9.19301H16.2361C16.2361 7.76252 16.1556 6.35141 16.2586 4.95322ZM13.3628 11.1999H21.018V13.0647H13.3628V11.1999ZM26.805 34.3944H24.9592V29.6089H26.805V34.3944ZM48.3084 24.2534C41.8981 26.3088 35.4894 28.3657 29.0792 30.421C29.0051 30.4452 28.9246 30.4533 28.7764 30.484C28.7764 29.8511 28.7844 29.2876 28.7732 28.7241C28.7587 28.0056 28.4043 27.6375 27.6957 27.6295C26.4893 27.6182 25.2813 27.6182 24.0734 27.6295C23.3566 27.6359 23.0007 27.9976 22.9798 28.708C22.9637 29.2714 22.962 29.8365 22.9524 30.4C22.9524 30.4162 22.9347 30.4307 22.8976 30.4872C21.287 29.9738 19.6619 29.4571 18.0384 28.9372C13.2548 27.405 8.47131 25.8696 3.68777 24.3358C2.84219 24.0645 2.68435 23.845 2.68435 22.9344C2.68435 20.716 2.68274 18.496 2.68596 16.276C2.68757 15.3638 3.01292 15.0344 3.9197 15.0344C18.5522 15.0328 33.1863 15.0328 47.8187 15.0344C48.7303 15.0344 49.067 15.3638 49.0686 16.2615C49.0734 18.5412 49.0637 20.8209 49.0734 23.1007C49.0766 23.6738 48.8737 24.0726 48.3084 24.2534Z" fill="#D2CFFA"/>
<path d="M20.8634 44.0927C18.8099 44.0976 16.7563 44.0943 14.7028 44.0943C12.6895 44.0943 10.6778 44.0976 8.66457 44.0927C8.0026 44.0911 7.59673 43.7779 7.52747 43.2467C7.44694 42.6413 7.90113 42.165 8.60336 42.1601C10.3944 42.1504 12.187 42.1569 13.978 42.1569C16.2731 42.1569 18.5683 42.1537 20.8634 42.1585C21.5254 42.1601 21.9296 42.4717 22.0005 43.0045C22.0842 43.6261 21.6123 44.0895 20.8634 44.0927Z" fill="#D2CFFA"/>
<path d="M16.2087 47.0248C16.2104 47.6141 15.7819 47.979 15.0652 47.9822C13.999 47.9887 12.9327 47.9838 11.8665 47.9838C10.7987 47.9838 9.73244 47.9887 8.66621 47.9822C7.94788 47.979 7.52106 47.6157 7.52106 47.028C7.51945 46.4484 7.95593 46.0544 8.66299 46.0512C10.7954 46.0415 12.9295 46.0415 15.062 46.0512C15.7723 46.0544 16.2071 46.4452 16.2087 47.0248Z" fill="#D2CFFA"/>
<path d="M50.9981 50.8867C50.99 51.4534 50.5697 51.8328 49.9061 51.8409C49.0203 51.8522 48.136 51.8538 47.2518 51.8409C46.5431 51.8296 46.1807 51.4647 46.1743 50.7495C46.163 49.5402 46.163 48.3309 46.1743 47.1216C46.1807 46.458 46.5673 46.0382 47.1358 46.0366C47.7028 46.035 48.0909 46.4548 48.1006 47.1184C48.1119 48.0209 48.1038 48.925 48.1038 49.9067C48.7674 49.9067 49.3472 49.897 49.9286 49.9099C50.5842 49.9244 51.0045 50.3184 50.9981 50.8867Z" fill="#D2CFFA"/>
<path d="M48.099 43.1418C48.0893 43.6649 47.6415 44.0992 47.1213 44.0895C46.5963 44.0799 46.1662 43.6342 46.1759 43.1095C46.1855 42.5816 46.6285 42.1521 47.1535 42.1618C47.677 42.1715 48.1086 42.6171 48.099 43.1418Z" fill="#D2CFFA"/>
<path d="M40.368 50.9029C40.3519 51.4276 39.8977 51.8555 39.3775 51.8393C38.854 51.8232 38.4288 51.3711 38.4449 50.8464C38.461 50.3184 38.9104 49.8954 39.4338 49.9116C39.9589 49.9277 40.3841 50.3798 40.368 50.9029Z" fill="#D2CFFA"/>
<path d="M55.83 50.8542C55.8412 51.3774 55.4112 51.8278 54.8878 51.8391C54.3659 51.8504 53.9182 51.4209 53.9069 50.8946C53.8956 50.3683 54.3224 49.9227 54.8475 49.9114C55.3709 49.9 55.8187 50.3295 55.83 50.8542Z" fill="#D2CFFA"/>
<path d="M48.099 58.6413C48.0893 59.166 47.6415 59.5987 47.1197 59.5891C46.5962 59.5794 46.1662 59.1321 46.1759 58.6074C46.1855 58.0811 46.6285 57.6516 47.1535 57.6613C47.6786 57.671 48.1086 58.1166 48.099 58.6413Z" fill="#D2CFFA"/>
<path d="M44.2399 44.165C44.2415 44.6898 43.8083 45.1289 43.2864 45.1305C42.7694 45.1338 42.3185 44.6881 42.3169 44.1731C42.3136 43.6484 42.7453 43.2205 43.2784 43.2173C43.8163 43.2157 44.2383 43.629 44.2399 44.165Z" fill="#D2CFFA"/>
<path d="M41.4181 54.7502C41.4213 55.2685 40.98 55.7141 40.4598 55.7173C39.9251 55.7206 39.5079 55.3008 39.5047 54.7615C39.5031 54.2239 39.9219 53.7912 40.4485 53.7896C40.9623 53.7863 41.4149 54.2352 41.4181 54.7502Z" fill="#D2CFFA"/>
<path d="M44.2399 57.6627C44.1964 58.1923 43.7471 58.5701 43.2043 58.5297C42.6776 58.4893 42.2734 58.0179 42.3217 57.5012C42.37 56.9846 42.8516 56.5793 43.3637 56.6245C43.892 56.6714 44.2818 57.1331 44.2399 57.6627Z" fill="#D2CFFA"/>
<path d="M51.9725 57.608C51.9644 58.1408 51.536 58.5525 50.9981 58.5444C50.4698 58.5363 50.0381 58.0972 50.0494 57.5757C50.0591 57.0558 50.5052 56.6263 51.0303 56.6344C51.5586 56.6425 51.9805 57.0784 51.9725 57.608Z" fill="#D2CFFA"/>
<path d="M41.4165 46.9779C41.4278 47.4929 40.9865 47.9514 40.4711 47.9611C39.9444 47.9708 39.5144 47.5494 39.5047 47.0134C39.4966 46.4725 39.9041 46.043 40.4372 46.0334C40.9559 46.0237 41.4068 46.458 41.4165 46.9779Z" fill="#D2CFFA"/>
<path d="M51.9709 44.1685C51.9661 44.6981 51.536 45.1179 51.0029 45.1114C50.4779 45.1066 50.043 44.6658 50.0478 44.1459C50.0543 43.626 50.4956 43.1998 51.0239 43.2046C51.5586 43.2095 51.9774 43.6357 51.9709 44.1685Z" fill="#D2CFFA"/>
<path d="M54.7991 47.0068C54.7959 47.538 54.3675 47.9691 53.8424 47.9675C53.3158 47.9659 52.8938 47.5348 52.897 47.0004C52.8986 46.4676 53.327 46.0365 53.8489 46.0381C54.3707 46.0413 54.8007 46.4805 54.7991 47.0068Z" fill="#D2CFFA"/>
<path d="M54.7992 54.7435C54.7992 55.2699 54.3643 55.7106 53.8457 55.7106C53.3239 55.7106 52.897 55.2763 52.897 54.7435C52.8954 54.2091 53.3158 53.7829 53.8457 53.7812C54.3708 53.7812 54.7992 54.2123 54.7992 54.7435Z" fill="#D2CFFA"/>
</g>
<defs>
<clipPath id="clip0_5940_243579">
<rect width="58" height="62" fill="white" transform="translate(0.75 0.5)"/>
</clipPath>
</defs>
</svg>
