<svg width="63" height="63" viewBox="0 0 63 63" fill="none" xmlns="http://www.w3.org/2000/svg">
<g clip-path="url(#clip0_5940_243554)">
<path d="M62.2388 27.158V26.5521C60.8541 26.3872 59.6218 26.4671 58.5071 27.2529C58.0334 27.5865 57.4848 27.8189 56.9599 28.0737C56.8137 28.1437 56.6113 28.1874 56.4613 28.1475C54.9279 27.7314 53.3982 27.3029 51.8736 26.8607C51.6474 26.7944 51.4486 26.6358 51.2374 26.5196C51.3724 26.316 51.4686 26.0673 51.6486 25.9162C52.4947 25.2003 53.1458 24.3483 53.6169 23.3451C54.3867 21.706 54.353 19.9544 54.203 18.2341C53.9431 15.2282 52.4009 13.0557 49.5603 11.9375C48.758 11.6214 47.8557 11.5602 46.9596 11.3741C47.2096 10.7794 47.4483 10.116 47.7645 9.49261C47.9782 9.07159 47.8844 8.82922 47.5633 8.51564C46.0611 7.05143 44.5877 5.55725 43.1017 4.07555C42.9655 3.93938 42.8168 3.81445 42.6681 3.67827C41.7346 4.28544 40.8485 4.88137 39.9362 5.43731C39.755 5.54725 39.4463 5.58348 39.2501 5.50852C38.2178 5.11499 37.2006 4.68022 36.1833 4.24421C36.0333 4.1805 35.8259 4.05806 35.7984 3.92813C35.5522 2.79 35.341 1.64438 35.1185 0.5H27.3702C27.149 1.64438 26.9353 2.78875 26.6954 3.92813C26.6691 4.04932 26.4992 4.17425 26.368 4.23047C25.3144 4.68022 24.2597 5.12873 23.1912 5.53851C23.015 5.60722 22.7275 5.54725 22.5563 5.44106C21.6328 4.87262 20.7305 4.2692 19.7869 3.65578C18.0835 5.3636 16.4002 7.04269 14.7368 8.74301C14.6293 8.85295 14.6143 9.14654 14.6743 9.3102C14.9392 10.0211 15.2467 10.7157 15.5004 11.3229C14.4494 11.5865 13.3871 11.7027 12.456 12.1149C9.80163 13.2893 8.39819 15.4131 8.26572 18.3091C8.20074 19.7108 8.127 21.1288 8.56316 22.5093C8.99556 23.876 9.75789 25.0029 10.8514 25.9237C11.0289 26.0736 11.1201 26.3259 11.2513 26.5308C11.0564 26.6395 10.8676 26.7645 10.6652 26.8532C9.19552 27.4978 7.87456 27.2992 6.59359 26.296C4.7415 24.8467 2.64322 24.1109 0.25 24.4645V45.1607C3.47428 46.2464 6.68732 47.362 9.9291 48.3914C10.5327 48.5838 11.2526 48.4739 11.9074 48.4027C12.0574 48.3864 12.1624 47.9554 12.3061 47.6831C13.1396 48.1803 13.9632 48.6863 14.8005 49.1648C15.1017 49.3359 15.2542 49.5346 15.3217 49.8944C15.5416 51.0762 16.2415 51.887 17.385 52.2881C17.6649 52.3855 17.9623 52.4317 18.2373 52.4979C18.5472 54.2333 19.2558 54.9828 20.9567 55.4413C21.0979 55.4801 21.2666 55.6725 21.2966 55.8186C21.5878 57.2354 22.4213 58.1099 23.8398 58.3872C24.1884 58.456 24.2784 58.6246 24.3384 58.9394C24.6646 60.6548 26.3105 61.8629 27.9614 61.3419C28.9649 61.0246 29.5135 61.2819 30.2558 61.8554C32.1004 63.2821 34.7336 62.2102 35.1923 59.9227C35.2235 59.7702 35.256 59.6178 35.286 59.4791C36.9794 59.2368 37.8167 58.4547 38.2103 56.8356C38.2503 56.6694 38.4878 56.4658 38.6627 56.4333C39.9587 56.1884 40.9785 55.2377 41.1634 53.9734C41.2222 53.5736 41.3684 53.4487 41.7545 53.3837C43.0917 53.1626 44.1365 52.0195 44.1903 50.6814C44.2103 50.193 44.4227 49.9906 44.8164 49.7944C50.4451 46.9959 56.0639 44.1787 61.6964 41.3865C62.1213 41.1754 62.2525 40.9367 62.25 40.4707C62.23 36.0332 62.2388 31.5956 62.2388 27.158ZM47.3146 13.4992C49.3104 13.5054 51.3374 15.0258 51.9298 16.9923C52.3809 18.489 52.3459 20.0269 52.0935 21.541C51.8473 23.0152 50.9563 24.0984 49.6715 24.8405C49.3504 25.0267 49.2254 25.2365 49.2404 25.6063C49.2691 26.3309 49.2679 27.058 49.2441 27.7827C49.2329 28.1487 49.3454 28.3061 49.719 28.3923C51.1662 28.7284 52.6021 29.1069 54.2268 29.5155C50.5051 31.4756 46.9259 33.3609 43.2417 35.3011C43.198 33.086 43.5754 30.8972 41.7945 29.1369C42.8793 28.8608 43.8428 28.596 44.8151 28.3773C45.1688 28.2986 45.2675 28.1387 45.2588 27.8014C45.2388 27.0555 45.2813 26.3072 45.2363 25.5639C45.2213 25.334 45.0651 25.0229 44.8764 24.908C43.073 23.8161 42.1832 22.2332 42.2582 20.1343C42.2957 19.0936 42.2669 18.018 42.5219 17.0235C43.0643 14.8947 45.0801 13.4917 47.3146 13.4992ZM41.2572 35.9482C41.2634 36.348 41.1009 36.5104 40.7198 36.4679C40.4611 36.4379 40.1986 36.4167 39.9499 36.348C38.1653 35.8495 36.3857 35.3335 34.6011 34.8376C32.2791 34.1917 29.9497 33.567 27.6277 32.9211C25.7219 32.3914 23.806 32.4039 21.879 32.7699C21.7402 32.7974 21.6015 32.8212 21.4603 32.8337C21.4078 32.8386 21.3503 32.8099 21.2991 32.7974C21.1816 31.3045 22.0652 30.0827 23.5911 29.6804C25.207 29.2544 26.8241 28.8258 28.4587 28.481C29.1186 28.3423 29.3086 28.0675 29.2523 27.4353C29.1961 26.8144 29.2723 26.1835 29.2223 25.5626C29.2048 25.329 29.0536 25.0154 28.8649 24.8992C27.0628 23.8036 26.183 22.2144 26.2642 20.1156C26.3042 19.0749 26.263 17.9942 26.5354 17.0073C27.0753 15.0421 28.4975 13.8827 30.4983 13.5791C32.6566 13.2518 34.3524 14.1413 35.4384 15.9891C35.8696 16.7224 36.0721 17.6394 36.1845 18.4977C36.3045 19.4072 36.2845 20.3604 36.1595 21.2712C35.9483 22.8129 35.101 24.0035 33.7538 24.788C33.3402 25.0292 33.2089 25.2953 33.2352 25.7488C33.2714 26.4121 33.2664 27.0793 33.2414 27.7439C33.2264 28.1312 33.3452 28.3049 33.7451 28.3998C35.4297 28.7959 37.1081 29.2244 38.7852 29.6566C40.3524 30.0614 41.1859 31.0696 41.2422 32.6825C41.2797 33.7694 41.2397 34.8601 41.2572 35.9482ZM39.61 27.6115C39.4738 27.6452 39.3226 27.7127 39.1989 27.6827C37.9454 27.3829 36.6819 27.1143 35.4534 26.732C34.9898 26.5871 35.2335 26.2335 35.5184 26.0099C36.4907 25.2478 37.2505 24.312 37.6892 23.1577C38.7027 20.4891 38.6952 15.7042 35.8221 13.2805C33.6538 11.4528 31.2206 10.9556 28.6062 12.035C25.9081 13.1494 24.4746 15.2757 24.2534 18.1941C24.2222 18.6151 24.2497 19.0412 24.2497 19.4622C24.1335 21.4399 24.5134 23.2826 25.8006 24.8468C26.1568 25.2778 26.6104 25.6276 26.9966 26.0374C27.1178 26.1673 27.2253 26.3709 27.2178 26.5358C27.214 26.6295 26.9778 26.757 26.8279 26.7957C25.7368 27.083 24.6421 27.3529 23.5473 27.6227C23.4149 27.6565 23.2636 27.6989 23.1374 27.669C21.9239 27.3766 20.7105 27.0805 19.5045 26.7582C19.1296 26.6583 19.1446 26.3097 19.5357 26.0011C20.4055 25.314 21.1254 24.4944 21.549 23.4725C22.5775 21.0013 22.5151 18.4877 21.6802 15.9803C21.5553 15.6068 21.5328 15.3344 21.7502 14.9809C23.9185 11.4553 27.0903 9.54383 31.1956 9.52884C35.406 9.51259 38.6352 11.4803 40.7948 15.117C40.9047 15.3032 40.8235 15.6418 40.7548 15.8879C39.9537 18.7288 39.8012 21.5361 41.3484 24.1859C41.7433 24.8642 42.4094 25.3815 42.9355 25.9874C43.0668 26.1385 43.2017 26.3434 43.2042 26.5258C43.2067 26.6208 42.9393 26.7682 42.7718 26.8119C41.7208 27.0918 40.6648 27.3491 39.61 27.6115ZM17.1575 9.14904C18.0198 8.24578 18.9059 7.36127 19.8132 6.50173C19.9269 6.39304 20.2593 6.37555 20.4055 6.46176C21.1166 6.88028 21.8077 7.33628 22.4888 7.80352C22.7525 7.98343 22.9537 8.02216 23.2437 7.83726C24.6821 6.92026 26.2417 6.27561 27.9039 5.89456C28.25 5.81461 28.4075 5.66469 28.4687 5.31238C28.6037 4.53905 28.8012 3.77822 28.9411 3.00614C29.0061 2.65258 29.1336 2.48892 29.526 2.49641C30.6758 2.5214 31.8255 2.5164 32.9752 2.49891C33.3227 2.49267 33.4789 2.6101 33.5414 2.95491C33.6863 3.74698 33.8388 4.53905 34.0475 5.31613C34.105 5.52851 34.3399 5.79837 34.5424 5.85209C36.212 6.28935 37.7854 6.934 39.2663 7.82102C39.4363 7.92221 39.7737 7.91471 39.9462 7.81102C40.7735 7.31754 41.5721 6.77409 42.4106 6.22813C43.4342 7.24633 44.4365 8.23454 45.4212 9.23899C45.5062 9.3252 45.4925 9.52259 45.4975 9.66876C45.5 9.74122 45.4375 9.81493 45.4062 9.88989C44.5039 12.0712 44.5039 12.0712 42.2269 13.5217C39.5588 9.67875 35.9146 7.51618 31.1931 7.53367C26.4929 7.55241 22.8725 9.72123 20.2518 13.5491C19.527 13.0707 18.8546 12.6346 18.1923 12.1824C18.0685 12.0987 17.9561 11.9638 17.8961 11.8263C17.5937 11.1455 17.29 10.4646 17.0375 9.76496C16.975 9.5913 17.0325 9.28022 17.1575 9.14904ZM12.8247 28.3748C13.1521 28.3086 13.2484 28.1612 13.2421 27.8451C13.2259 27.0605 13.2621 26.2722 13.2196 25.4889C13.2084 25.2803 13.0384 25.0029 12.8585 24.893C11.0826 23.8098 10.2003 22.2407 10.2653 20.1668C10.299 19.1261 10.259 18.048 10.5152 17.056C11.0726 14.8959 13.0109 13.5329 15.2867 13.5017C17.2425 13.4729 19.2508 14.9309 19.8981 16.9036C20.4255 18.5127 20.3918 20.1755 20.0444 21.7984C19.7532 23.1552 18.8746 24.1696 17.6586 24.853C17.335 25.0354 17.2125 25.2503 17.2287 25.6201C17.2587 26.3035 17.2762 26.9918 17.2287 27.674C17.1937 28.1724 17.4112 28.3324 17.8461 28.4286C18.7621 28.6297 19.6669 28.8758 20.5905 29.1057C20.2531 29.6679 19.8494 30.1476 19.6644 30.7011C19.4332 31.3957 19.352 32.1478 19.2658 32.8811C19.2283 33.2022 19.1933 33.3821 18.8221 33.4483C17.9573 33.6057 17.1025 33.8219 16.234 34.0155C16.234 33.4483 16.2077 32.9261 16.2427 32.4089C16.2689 32.0366 16.139 31.8329 15.8165 31.6493C14.2444 30.7535 12.686 29.8315 10.9989 28.8471C11.6875 28.6647 12.2498 28.4898 12.8247 28.3748ZM2.58573 43.8751C2.18832 43.7502 2.2583 43.4741 2.2583 43.2055C2.25456 41.0892 2.25581 38.9741 2.25581 36.8577V26.4509C2.63947 26.5283 2.99689 26.5158 3.26058 26.667C5.50009 27.9438 7.72084 29.2494 9.94785 30.5486C10.0153 30.5886 10.0728 30.6448 10.1616 30.7136C8.95682 35.5284 7.75334 40.3408 6.5411 45.1869C5.17891 44.7322 3.88794 44.2849 2.58573 43.8751ZM11.8024 41.895C11.3713 43.4029 10.9426 44.9108 10.489 46.5012C9.78164 46.2638 9.13803 46.0502 8.44318 45.8178C9.61917 41.1216 10.7839 36.4679 11.9674 31.7343C12.7172 32.169 13.4121 32.5313 14.0494 32.9748C14.1869 33.0698 14.2019 33.4808 14.1382 33.7094C13.3746 36.4417 12.5848 39.1677 11.8024 41.895ZM18.9521 50.2579C18.5359 50.6227 17.9573 50.5078 17.5837 50.128C17.2212 49.7594 17.1138 49.1473 17.4662 48.7525C18.1073 48.0329 18.8096 47.367 19.5095 46.7036C19.6569 46.5637 19.9056 46.5324 20.2281 46.4038C20.4943 46.6037 20.9079 46.7661 21.0391 47.0559C21.1816 47.3707 21.2166 47.9317 21.0266 48.1628C20.4055 48.9211 19.6907 49.6108 18.9521 50.2579ZM22.2489 53.0464C21.6965 53.5711 21.0441 53.5899 20.5842 53.1276C20.1368 52.6779 20.1381 52.0419 20.6392 51.506C21.1891 50.9176 21.7652 50.3529 22.3513 49.8007C22.7038 49.4683 23.1749 49.3534 23.5761 49.612C23.8948 49.8182 24.0997 50.2005 24.3784 50.5315C24.1472 50.9276 24.031 51.2336 23.8248 51.4585C23.3224 52.0095 22.79 52.5329 22.2489 53.0464ZM25.2657 56.0335C24.7221 56.552 24.0485 56.5845 23.5948 56.1397C23.1237 55.6787 23.1399 55.0303 23.6711 54.4731C24.2134 53.9059 24.7358 53.3025 25.3569 52.834C25.6569 52.6079 26.2092 52.5129 26.5617 52.6254C26.8853 52.7278 27.094 53.1901 27.3802 53.5261C27.1453 53.9234 27.0166 54.247 26.7979 54.4894C26.3117 55.0266 25.7893 55.5326 25.2657 56.0335ZM30.0809 57.0892C29.4098 57.8838 28.6325 58.5896 27.8789 59.3117C27.7639 59.4229 27.5452 59.4242 27.2128 59.5266C26.9728 59.3305 26.5654 59.1443 26.4192 58.8345C26.2817 58.5434 26.278 58.0012 26.4642 57.7788C27.0928 57.0267 27.8051 56.3346 28.5412 55.685C28.9524 55.3227 29.4635 55.4239 29.8634 55.7849C30.2658 56.1497 30.4183 56.6894 30.0809 57.0892ZM33.1752 59.5766C33.1165 59.8839 32.789 60.2662 32.4941 60.3787C31.668 60.6922 31.1631 60.0838 30.6295 59.5716C31.0969 59.0231 31.5456 58.4959 32.033 57.9237C32.4978 58.4222 33.3489 58.6746 33.1752 59.5766ZM41.9695 51.0912C41.5421 51.5922 40.7573 51.5934 40.1274 51.0712C38.6502 49.8506 37.1818 48.6201 35.7096 47.3945C35.4484 47.1771 35.186 46.9635 34.8836 46.7148C34.4524 47.2308 34.0438 47.7206 33.6076 48.2415C35.2672 49.627 36.8919 50.9825 38.5153 52.3393C38.609 52.4167 38.7077 52.4867 38.7952 52.5704C39.2601 53.0139 39.3563 53.5249 39.0626 53.9796C38.7652 54.4419 38.0954 54.6243 37.5555 54.3532C37.308 54.2283 37.0893 54.0384 36.8731 53.8597C35.2285 52.4954 33.5876 51.1262 31.893 49.7157C31.4693 50.2167 31.0594 50.7014 30.6083 51.2349C31.1969 51.7296 31.7605 52.2069 32.3266 52.6791C33.4264 53.5961 34.5299 54.5081 35.6259 55.4301C36.2483 55.9523 36.3895 56.5045 36.0508 56.9992C35.6884 57.524 34.9561 57.6664 34.3374 57.1729C33.3677 56.3983 32.4391 55.5638 31.5706 54.678C30.9194 54.0134 30.1984 53.5824 29.2561 53.4687C29.0086 51.8158 28.1338 50.8264 26.5279 50.5015C26.3905 50.4741 26.218 50.2679 26.188 50.1192C25.9031 48.6975 25.0557 47.8605 23.6486 47.5332C23.4624 47.4907 23.2274 47.2446 23.1837 47.0547C22.6113 44.5598 19.8881 43.654 17.9748 45.3568C17.24 46.0115 16.5614 46.7298 15.8215 47.4532C14.9342 46.921 14.0144 46.385 13.1171 45.8128C12.9909 45.7329 12.8897 45.4455 12.9309 45.2956C13.7395 42.3872 14.5656 39.4825 15.4116 36.5841C15.4641 36.4055 15.7016 36.1968 15.8878 36.1556C18.3847 35.6034 20.8754 35.0012 23.3949 34.5715C25.2907 34.2491 27.134 34.7264 29.0311 35.4547C28.7262 35.6134 28.5212 35.7246 28.3125 35.8295C26.8554 36.5629 25.3794 37.2625 23.946 38.0383C22.6463 38.7417 22.0852 40.0572 22.2951 41.6451C22.4638 42.9294 23.4686 44.0376 24.8071 44.3649C25.7056 44.5848 26.5667 44.4511 27.3665 43.9676C28.4887 43.2917 29.6122 42.6183 30.7382 41.9487C31.8755 41.2741 32.7278 41.359 33.7063 42.2398C36.347 44.6135 38.9864 46.9872 41.6246 49.3622C42.2944 49.9643 42.4131 50.5728 41.9695 51.0912ZM59.6656 40.1597C54.4167 42.7657 49.1729 45.3856 43.9378 48.0229C43.5266 48.229 43.2905 48.1915 42.9543 47.8855C40.3299 45.498 37.6867 43.1293 35.0435 40.7593C33.3389 39.2314 31.6543 39.0753 29.6822 40.2521C28.6087 40.8918 27.5427 41.5414 26.4654 42.1748C25.6456 42.6558 24.827 42.4834 24.4284 41.7663C24.006 41.0055 24.2847 40.0972 25.1107 39.6749C26.9053 38.7592 28.7062 37.8584 30.512 36.9664C31.6318 36.4155 32.7953 36.3792 33.9863 36.7278C35.7059 37.23 37.4293 37.7235 39.1539 38.2082C39.5388 38.3169 39.9362 38.3944 40.3324 38.4556C41.0734 38.5693 41.7295 38.3769 42.4031 38.0196C48.0944 34.995 53.8044 32.0029 59.5081 29.002C59.7168 28.892 59.928 28.7909 60.2329 28.6372V29.3306C60.2329 32.6375 60.2217 35.9445 60.2454 39.2514C60.2492 39.7324 60.0817 39.9535 59.6656 40.1597Z" fill="#D2CFFA"/>
</g>
<defs>
<clipPath id="clip0_5940_243554">
<rect width="62" height="62" fill="white" transform="translate(0.25 0.5)"/>
</clipPath>
</defs>
</svg>
