<svg width="62" height="63" viewBox="0 0 62 63" fill="none" xmlns="http://www.w3.org/2000/svg">
<g clip-path="url(#clip0_5940_243557)">
<path d="M61.8886 52.1219C61.2153 49.8713 59.9802 47.9839 58.1072 46.5695C57.2031 45.8882 56.1794 45.3635 55.2171 44.7725C56.9157 42.6446 57.3096 41.9003 57.3597 40.3374C57.4194 38.534 56.7994 36.9743 55.4932 35.715C53.2586 33.5596 49.734 33.4611 47.3945 35.4776C46.2126 36.4948 45.4941 37.78 45.3133 39.3219C45.0566 41.5192 45.8429 43.3437 47.5462 44.842C45.6039 45.5863 44.0361 46.7116 42.7671 48.2422C40.1175 45.2924 39.7236 44.7774 35.4272 42.8819C39.9803 39.4785 39.3926 33.7694 36.4767 30.923C33.4057 27.928 28.583 27.9345 25.5201 30.923C22.6413 33.7307 21.989 39.451 26.5712 42.8835C22.5105 44.7031 22.1376 45.0067 19.2329 48.2422C17.9574 46.6987 16.3703 45.5766 14.4764 44.8436C17.6167 42.0294 17.1533 38.0205 15.0043 35.8409C12.7536 33.5563 9.06911 33.4175 6.67953 35.5535C5.43146 36.6692 4.74365 38.0722 4.65 39.7384C4.53375 41.784 5.35073 43.4535 6.91042 44.8371C6.70698 44.9292 6.56651 44.9953 6.42443 45.0551C4.79693 45.7397 3.41807 46.7649 2.2701 48.105C1.20609 49.3465 0.52151 50.7932 0 52.327V53.5379C0.0403646 53.6267 0.0920312 53.7123 0.121094 53.8043C0.616771 55.3187 1.78896 56.1873 3.3874 56.1906C7.54333 56.197 11.6993 56.1922 15.8568 56.1922H16.6754C16.6754 56.7024 16.6738 57.1771 16.6754 57.6534C16.6899 60.595 18.5903 62.497 21.5272 62.497C27.8435 62.5002 34.1581 62.5002 40.4744 62.497C43.4113 62.497 45.3084 60.5967 45.3246 57.6517C45.3262 57.1916 45.3246 56.7314 45.3246 56.1922H57.949C60.3289 56.1922 61.0813 55.6998 62 53.5379V52.327C61.9629 52.2592 61.9112 52.1946 61.8886 52.1219ZM6.5649 40.0984C6.55036 37.8445 8.40391 35.9781 10.6659 35.9717C12.9522 35.9652 14.7799 37.7767 14.7896 40.0581C14.7993 42.333 12.9716 44.1865 10.7063 44.1994C8.45719 44.2107 6.57943 42.3523 6.5649 40.0984ZM17.9703 50.5461C17.4956 51.7361 17.1033 52.9599 16.6496 54.2547H16.162C11.9867 54.2547 7.81135 54.2564 3.63604 54.2547C2.19745 54.2547 1.64042 53.483 2.14901 52.1397C3.37932 48.8993 5.70594 46.8779 9.11594 46.2934C12.6438 45.6864 15.5807 46.8618 17.8654 49.6388C18.1124 49.9391 18.1205 50.17 17.9703 50.5461ZM25.181 36.4577C25.173 33.2092 27.7741 30.6033 31.0145 30.613C34.2356 30.6227 36.8157 33.2092 36.819 36.4286C36.8206 39.6254 34.2098 42.2506 31.0145 42.2603C27.8241 42.27 25.1891 39.6496 25.181 36.4577ZM43.3403 58.3234C43.2579 59.6134 42.0857 60.5547 40.6875 60.5579C37.439 60.5676 34.1904 60.5611 30.9419 60.5611C27.7934 60.5611 24.645 60.5628 21.4982 60.5595C19.664 60.5579 18.692 59.5068 18.5968 57.6663C18.445 54.7294 19.0376 52.0218 20.7199 49.579C23.6068 45.3893 28.8413 43.3501 33.7884 44.5013C38.792 45.6654 42.6234 49.7453 43.3112 54.7601C43.471 55.929 43.4161 57.1399 43.3403 58.3234ZM47.2104 40.0371C47.2266 37.7606 49.064 35.9588 51.3551 35.9717C53.6106 35.9862 55.4658 37.872 55.4351 40.121C55.4044 42.3782 53.5202 44.2236 51.2711 44.1994C49.0058 44.1752 47.1943 42.3184 47.2104 40.0371ZM58.6384 54.2499C54.2419 54.2612 49.8454 54.2531 45.4489 54.2515C45.3908 54.2515 45.331 54.2321 45.3617 54.237C44.8709 52.8808 44.3978 51.6214 43.9716 50.3476C43.9086 50.1587 43.999 49.8487 44.1282 49.6759C46.6259 46.3532 51.2436 45.1923 55.0444 46.9312C57.4646 48.0388 59.0954 49.8713 59.943 52.3916C60.2869 53.4168 59.7121 54.2467 58.6384 54.2499Z" fill="#D2CFFA"/>
<path d="M18.9714 14.9486C18.6953 14.306 18.1495 14.1123 17.5021 14.0848C16.0506 14.0219 14.6007 13.9428 13.1492 13.8911C12.7746 13.8782 12.5889 13.7409 12.4581 13.3793C11.9673 12.0166 11.4377 10.6652 10.9194 9.31225C10.6207 8.53082 10.1703 8.15463 9.53088 8.17723C8.7801 8.20468 8.38937 8.66644 8.14557 9.33001C7.64667 10.6911 7.11224 12.0392 6.61979 13.4035C6.49708 13.7409 6.32109 13.8749 5.9675 13.8879C4.61771 13.9363 3.26792 14.0412 1.91812 14.0606C1.09469 14.0719 0.427865 14.2899 0 15.031V15.8786C0.293854 16.1999 0.557031 16.5599 0.888021 16.8376C1.87776 17.6659 2.87234 18.4909 3.90891 19.2594C4.38359 19.613 4.51437 19.9343 4.33516 20.5123C3.92828 21.8185 3.59891 23.1489 3.24208 24.4712C3.0225 25.2865 3.16297 25.8258 3.71031 26.1971C4.30932 26.604 4.88411 26.4829 5.45406 26.1035C6.68115 25.2898 7.92276 24.5002 9.14338 23.6784C9.44047 23.4766 9.65359 23.4766 9.95068 23.6768C11.1697 24.4986 12.4129 25.2881 13.6368 26.1051C14.2099 26.4894 14.7831 26.5959 15.3805 26.1971C15.9036 25.8468 16.0635 25.2849 15.8633 24.5293C15.4903 23.1279 15.1222 21.7248 14.7169 20.3331C14.5991 19.9295 14.6394 19.6873 14.9946 19.4144C16.1781 18.5055 17.3342 17.5609 18.4886 16.6148C19.065 16.1434 19.2265 15.5428 18.9714 14.9486ZM13.3849 18.2245C12.6212 18.7848 12.4323 19.4451 12.7068 20.3331C13.0426 21.4213 13.3106 22.5321 13.6513 23.7931C12.5663 23.0811 11.6089 22.4901 10.6918 21.8395C9.91677 21.2889 9.21443 21.2582 8.4249 21.8266C7.4949 22.4982 6.51 23.094 5.42661 23.8028C5.77536 22.5273 6.05792 21.3955 6.39698 20.2814C6.65531 19.4387 6.46641 18.8058 5.75437 18.2697C4.8276 17.5706 3.94281 16.8183 2.90786 15.9819C4.25604 15.9077 5.43469 15.814 6.61495 15.7898C7.46422 15.772 7.95505 15.3829 8.23276 14.6047C8.62833 13.4955 9.06427 12.4009 9.54219 11.1464C9.98943 12.3185 10.4286 13.3325 10.7612 14.3787C11.076 15.3684 11.6557 15.8189 12.71 15.8092C13.8111 15.7963 14.9123 15.9125 16.1878 15.9819C15.169 16.8037 14.3036 17.5496 13.3849 18.2245Z" fill="#D2CFFA"/>
<path d="M60.0803 14.0606C58.7305 14.0396 57.3807 13.9363 56.0309 13.8879C55.6757 13.8749 55.5013 13.7377 55.3802 13.4019C54.8861 12.0392 54.3533 10.6895 53.8544 9.3284C53.6106 8.66483 53.2167 8.20468 52.4675 8.17723C51.8265 8.15463 51.3809 8.5292 51.0806 9.31387C50.5623 10.6669 50.0327 12.0182 49.5419 13.3825C49.4111 13.7442 49.2238 13.8782 48.8492 13.8911C47.3783 13.9444 45.9074 14.0138 44.4366 14.0913C43.6454 14.1333 43.1707 14.4626 42.9899 15.0649C42.78 15.7591 43.0625 16.2693 43.6018 16.6956C44.724 17.5852 45.8251 18.5038 46.9585 19.3773C47.3105 19.6502 47.4219 19.8843 47.2863 20.3331C46.8794 21.6829 46.5307 23.0504 46.1625 24.4098C45.9333 25.2558 46.0721 25.829 46.6195 26.1971C47.2411 26.6153 47.8272 26.4668 48.4149 26.0728C49.6032 25.2768 50.8174 24.518 52.0009 23.7123C52.3367 23.4847 52.5708 23.4734 52.9115 23.7059C54.0772 24.5002 55.2753 25.2478 56.4442 26.0373C57.0432 26.4425 57.6374 26.6379 58.2881 26.1971C58.8564 25.8129 58.9791 25.2768 58.7305 24.3533C58.3898 23.0891 58.0879 21.8136 57.6826 20.5705C57.4759 19.9376 57.6277 19.6017 58.1411 19.2255C59.1503 18.4877 60.1109 17.6837 61.0668 16.878C61.4123 16.5858 61.6916 16.2144 62 15.8786V15.031C61.5721 14.2867 60.9053 14.0735 60.0803 14.0606ZM56.4281 18.118C55.5707 18.7331 55.2962 19.4322 55.6531 20.4607C56.0131 21.502 56.2424 22.5886 56.5637 23.7898C55.5271 23.1117 54.5681 22.537 53.6687 21.8815C52.8292 21.2695 52.0881 21.2647 51.2469 21.8863C50.3621 22.5402 49.4079 23.1004 48.3471 23.7931C48.6716 22.5967 48.9122 21.5392 49.2496 20.5123C49.5871 19.4903 49.3885 18.7396 48.4779 18.1067C47.6044 17.498 46.8068 16.7795 45.8961 16.0465C46.1125 16.0029 46.2497 15.9561 46.3902 15.948C47.4381 15.8883 48.4843 15.8076 49.5338 15.7882C50.3798 15.7737 50.8739 15.3862 51.1452 14.5999C51.4665 13.6667 51.8394 12.7512 52.193 11.8309C52.2624 11.6501 52.3464 11.4741 52.4723 11.1819C52.9357 12.4009 53.3733 13.4971 53.7672 14.608C54.0449 15.3894 54.5406 15.772 55.3867 15.7898C56.5669 15.814 57.744 15.9093 59.097 15.9835C58.1185 16.7714 57.3048 17.4899 56.4281 18.118Z" fill="#D2CFFA"/>
<path d="M31.9801 1.90465C31.9397 2.89114 31.9752 3.88085 31.9655 4.86895C31.9591 5.57612 31.5748 5.98944 30.9693 5.9733C30.3897 5.95715 30.0393 5.55513 30.0329 4.86733C30.0248 3.87923 30.0603 2.88952 30.0199 1.90304C29.9973 1.3105 30.141 0.840668 30.6367 0.5H31.3633C31.8557 0.842283 32.0027 1.31211 31.9801 1.90465Z" fill="#D2CFFA"/>
<path d="M39.9561 14.3832C39.6542 14.1911 39.2408 14.1152 38.8727 14.0926C37.4632 14.0006 36.0537 13.9408 34.6425 13.8956C34.2453 13.8827 34.0419 13.7439 33.903 13.3564C33.4074 11.9743 32.86 10.61 32.3514 9.23122C32.1173 8.59671 31.7072 8.21245 31.0242 8.17854C30.3978 8.14787 29.9328 8.51275 29.6518 9.24253C29.1368 10.5761 28.6024 11.9033 28.1357 13.253C27.9678 13.7455 27.703 13.8908 27.2267 13.9053C25.7962 13.9489 24.3657 14.0167 22.9368 14.0958C22.1505 14.1378 21.7129 14.4704 21.5224 15.1082C21.3206 15.7863 21.6161 16.2706 22.1311 16.6807C23.2807 17.5994 24.4157 18.5358 25.575 19.4432C25.8721 19.6741 25.9577 19.8775 25.8479 20.2553C25.4378 21.6664 25.068 23.0888 24.6902 24.508C24.4836 25.283 24.6305 25.8045 25.1455 26.1855C25.6461 26.5569 26.2289 26.5407 26.8877 26.1145C28.1212 25.3153 29.3596 24.5193 30.577 23.6943C30.8967 23.4779 31.1211 23.4828 31.4343 23.6943C32.6372 24.5048 33.853 25.2975 35.0752 26.0806C35.3545 26.2598 35.6775 26.3744 35.8163 26.4406C36.9611 26.4632 37.6053 25.635 37.3566 24.6743C36.9837 23.2325 36.6026 21.7907 36.1796 20.3635C36.052 19.9292 36.1118 19.6773 36.4767 19.3964C37.6586 18.4858 38.8194 17.5477 39.969 16.5968C40.7505 15.9493 40.7537 14.8918 39.9561 14.3832ZM34.7911 18.2694C34.0742 18.8038 33.8917 19.4351 34.1468 20.2763C34.4778 21.3677 34.7507 22.4769 35.0494 23.5764C34.9993 23.6023 34.9493 23.6281 34.9008 23.6539C33.9256 23.0178 32.9407 22.393 31.9785 21.7391C31.3116 21.2854 30.69 21.2789 30.0232 21.7407C29.2127 22.3025 28.3747 22.8273 27.548 23.3681C27.3882 23.4715 27.2235 23.57 26.9038 23.7669C27.2154 22.6012 27.4108 21.5922 27.7595 20.638C28.1809 19.4819 27.8887 18.6827 26.8925 17.9982C26.0529 17.4234 25.2925 16.734 24.3592 15.9832C25.7058 15.909 26.8812 15.8153 28.0582 15.7895C28.8994 15.7717 29.4032 15.4068 29.6825 14.6189C30.0749 13.5081 30.5156 12.4167 31 11.1509C31.4456 12.3182 31.8751 13.3096 32.1996 14.3316C32.5177 15.331 33.0828 15.8299 34.1759 15.8105C35.2722 15.7927 36.3717 15.9122 37.6424 15.9816C36.6042 16.8196 35.7194 17.5736 34.7911 18.2694Z" fill="#D2CFFA"/>
<path d="M41.7015 6.50115C41.4883 6.84504 41.3802 7.14051 41.1751 7.32941C39.9157 8.49188 38.6402 9.63659 37.3582 10.7732C36.8965 11.1849 36.3249 11.1639 35.9519 10.7684C35.5806 10.3744 35.5967 9.77382 36.0407 9.36696C37.334 8.1835 38.6273 6.99681 39.9674 5.86502C40.2015 5.66804 40.7004 5.61476 41.0056 5.71487C41.2784 5.8069 41.4512 6.20084 41.7015 6.50115Z" fill="#D2CFFA"/>
<path d="M26.4323 10.179C26.1966 10.468 26.0319 10.8636 25.78 10.9314C25.4442 11.0218 24.9501 10.9766 24.6821 10.7764C23.9426 10.2226 23.2855 9.56067 22.5961 8.94069C22.0116 8.41435 21.4223 7.89285 20.8459 7.35683C20.3583 6.90314 20.2969 6.33644 20.6667 5.91665C21.0477 5.48234 21.6063 5.45813 22.1117 5.90374C23.3953 7.03876 24.6708 8.18347 25.9302 9.34755C26.1336 9.53484 26.2321 9.83838 26.4323 10.179Z" fill="#D2CFFA"/>
</g>
<defs>
<clipPath id="clip0_5940_243557">
<rect width="62" height="62" fill="white" transform="translate(0 0.5)"/>
</clipPath>
</defs>
</svg>
