<svg width="50" height="51" viewBox="0 0 50 51" fill="none" xmlns="http://www.w3.org/2000/svg">
<g clip-path="url(#clip0_7169_258577)">
<path d="M30.072 15.3712C29.8064 15.3712 29.5394 15.269 29.3349 15.0661L25.0701 10.7997C24.6635 10.3922 24.6635 9.73313 25.0701 9.32726C25.4768 8.91826 26.1368 8.91826 26.5434 9.32726L30.8089 13.592C31.2148 13.9994 31.2148 14.6586 30.8089 15.0661C30.606 15.269 30.339 15.3712 30.072 15.3712Z" fill="#203066"/>
<path d="M34.1248 5.03338C33.2872 4.03539 31.6574 2.92763 29.7669 2.07311C28.18 1.35443 25.7119 0.5 22.9615 0.5C20.6155 0.5 18.4533 1.31937 16.8717 2.80409C15.2436 4.33452 14.3472 6.47377 14.3472 8.82825V9.87038H18.5143V17.1626H26.8479V10.8362L34.3689 8.55959V5.32324L34.1248 5.03338Z" fill="#E6E9ED"/>
<path d="M31.0146 2.69434V9.57605L34.3686 8.5598V5.32334L34.1244 5.03339C33.4775 4.26285 32.3605 3.42825 31.0146 2.69434Z" fill="#FF008A"/>
<path d="M26.8475 12.9951H18.5142V18.2043H26.8475V12.9951Z" fill="#CCD1D9"/>
<path d="M27.9723 23.7241L27.8899 16.11C27.8838 15.5394 27.4184 15.0801 26.8478 15.0801H19.5563H18.5141C18.2005 15.0801 17.9053 15.2205 17.7069 15.4615C14.6483 19.2106 14.0258 26.1166 13.8007 35.9891C13.6358 43.237 14.347 49.5145 14.3538 49.5771C14.4141 50.1036 14.8596 50.5003 15.3883 50.5003H35.1821C35.7573 50.5003 36.2242 50.0334 36.2242 49.4596V33.8316C36.2242 28.5749 29.9589 24.7923 27.9723 23.7241Z" fill="#FF008A"/>
<path opacity="0.2" d="M27.9721 23.7241L27.8897 16.11C27.8836 15.5394 27.4182 15.0801 26.8475 15.0801H24.7646C25.3354 15.0801 25.8 15.5394 25.8061 16.11L25.8893 23.7241C27.876 24.7923 34.1396 28.5749 34.1396 33.8315V49.4595C34.1396 50.0333 33.6743 50.5002 33.0975 50.5002H35.1819C35.7571 50.5002 36.224 50.0333 36.224 49.4595V33.8316C36.224 28.5749 29.9587 24.7923 27.9721 23.7241Z" fill="white"/>
<path d="M16.3115 34.872C16.8867 34.872 17.353 34.4065 17.353 33.8313C17.353 33.2561 16.8868 32.7891 16.3115 32.7891H13.8938C13.8686 33.4666 13.8472 34.1624 13.8281 34.872H16.3115Z" fill="#203066"/>
<path d="M17.226 37.9977C17.226 37.4239 16.7599 36.957 16.1846 36.957H13.7836C13.7752 37.6651 13.7736 38.3609 13.779 39.0414H16.1846C16.7599 39.0413 17.226 38.5745 17.226 37.9977Z" fill="#203066"/>
<path d="M16.3518 30.7049C16.9263 30.7049 17.3925 30.2394 17.3925 29.6642C17.3925 29.089 16.9264 28.6221 16.3518 28.6221H14.1118C14.0638 29.2965 14.021 29.9908 13.9844 30.7049H16.3518Z" fill="#203066"/>
<path d="M16.8942 26.5394C17.4696 26.5394 17.9364 26.0725 17.9364 25.4973C17.9364 24.9205 17.4695 24.4551 16.8942 24.4551H14.5353C14.4422 25.1235 14.3605 25.8176 14.2881 26.5394H16.8942Z" fill="#203066"/>
</g>
<defs>
<clipPath id="clip0_7169_258577">
<rect width="50" height="50" fill="white" transform="translate(0 0.5)"/>
</clipPath>
</defs>
</svg>
