<svg width="50" height="51" viewBox="0 0 50 51" fill="none" xmlns="http://www.w3.org/2000/svg">
<g clip-path="url(#clip0_7169_258923)">
<path d="M45.6521 43.8262H15.2174L13.0435 18.8262H47.8261L45.6521 43.8262Z" fill="#FF008A"/>
<path d="M47.8261 16.6523V18.8263L47.637 21.0002H13.2325L13.0435 18.8263V16.6523H47.8261Z" fill="#203066" fill-opacity="0.54"/>
<path d="M50.0001 14.4786V16.6525C50.0001 17.8532 49.0269 18.8265 47.8262 18.8265H13.0436C11.8429 18.8265 10.8696 17.8532 10.8696 16.6525V14.4786C10.8696 13.2779 11.8429 12.3047 13.0436 12.3047H47.8262C49.0269 12.3047 50.0001 13.2779 50.0001 14.4786Z" fill="url(#paint0_linear_7169_258923)"/>
<path d="M46.7392 42.7385C46.7392 44.5394 45.2793 45.9993 43.4783 45.9993H36.7703C36.8905 46.3394 36.9566 46.7051 36.9566 47.0862C36.9566 48.8871 35.4968 50.3471 33.6958 50.3471H3.26084C1.45986 50.3472 0 48.8872 0 47.0863C0 45.2854 1.45986 43.8255 3.26084 43.8255H9.96885C9.84863 43.4854 9.78252 43.1197 9.78252 42.7386C9.78252 40.9377 11.2424 39.4777 13.0434 39.4777H43.4781C45.2792 39.4776 46.7392 40.9376 46.7392 42.7385ZM37.8291 15.5541C38.3062 15.6005 38.7533 15.4897 39.1304 15.2714V19.8603C39.1304 21.0391 40.047 22.043 41.225 22.0849C42.4617 22.1289 43.4781 21.1394 43.4781 19.9124V12.3037C43.4781 11.7034 42.9915 11.2168 42.3912 11.2168H40.2173H39.1304H36.9564C36.3562 11.2168 35.8695 11.7034 35.8695 12.3037V13.3412C35.8695 14.4681 36.7076 15.445 37.8291 15.5541Z" fill="#448FFC"/>
<path d="M17.3912 42.7385C17.3912 43.3388 16.9046 43.8254 16.3043 43.8254H13.0435C12.4432 43.8254 11.9565 43.3388 11.9565 42.7385C11.9565 42.1382 12.4432 41.6516 13.0435 41.6516H16.3043C16.9046 41.6516 17.3912 42.1382 17.3912 42.7385ZM11.9564 45.9993H3.26074C2.66045 45.9993 2.17383 46.4859 2.17383 47.0862C2.17383 47.6865 2.66045 48.1731 3.26074 48.1731H11.9563C12.5566 48.1731 13.0433 47.6865 13.0433 47.0862C13.0433 46.4859 12.5567 45.9993 11.9564 45.9993ZM41.3043 13.3906C40.704 13.3906 40.2174 13.8772 40.2174 14.4775V19.9123C40.2174 20.5126 40.704 20.9992 41.3043 20.9992C41.9046 20.9992 42.3912 20.5126 42.3912 19.9123V14.4775C42.3912 13.8772 41.9046 13.3906 41.3043 13.3906Z" fill="#448FFC"/>
<path d="M34.7828 37.304H41.3046C46.1071 37.304 50.0002 41.1972 50.0002 45.9996V49.2604C50.0002 49.8607 49.5136 50.3474 48.9133 50.3474H28.261C23.4585 50.3474 19.5654 46.4542 19.5654 41.6518V34.0431C19.5654 32.8424 20.5387 31.8691 21.7394 31.8691H30.435C31.6356 31.8691 32.6089 32.8424 32.6089 34.0431V35.13C32.6089 36.3308 33.5821 37.304 34.7828 37.304Z" fill="#A89B80"/>
<path d="M50 45.9995V50.3474H32.6087C27.8062 50.3474 23.9131 46.4542 23.9131 41.6518V34.0431C23.9131 32.8424 24.8863 31.8691 26.087 31.8691H30.4349C31.6355 31.8691 32.6088 32.8424 32.6088 34.0431V35.13C32.6088 36.3307 33.582 37.3039 34.7827 37.3039H39.1306H41.3045C46.1068 37.3039 50 41.1971 50 45.9995Z" fill="#C1B291"/>
<path d="M49.9998 46.0003V50.3481H36.9563C32.1538 50.3481 28.2607 46.455 28.2607 41.6525V37.3047C28.2607 42.1072 32.1539 46.0003 36.9563 46.0003H49.9998Z" fill="#A89B80"/>
<path d="M48.8336 41.6517H36.9563C32.1538 41.6517 28.2607 37.7585 28.2607 32.9561V31.8691H30.4347C31.6354 31.8691 32.6086 32.8424 32.6086 34.0431V35.13C32.6086 36.3307 33.5818 37.3039 34.7825 37.3039H41.3043C44.5222 37.3038 47.3299 39.0532 48.8336 41.6517Z" fill="#DBCBA1"/>
<path d="M28.2608 2.52158V26.4347V28.6086H23.9131V26.4346V2.52158C23.9131 1.3209 24.8863 0.347656 26.0869 0.347656C27.2876 0.347656 28.2608 1.3209 28.2608 2.52158Z" fill="#203066" fill-opacity="0.51"/>
<path d="M26.0869 2.52158V28.6085H23.9131V2.52158C23.9131 1.3209 24.8863 0.347656 26.0869 0.347656C26.4833 0.347656 26.8539 0.455469 27.1738 0.64082C26.5248 1.01689 26.0869 1.71748 26.0869 2.52158Z" fill="#203066"/>
<path d="M33.6954 30.7823C33.6954 31.983 32.7222 32.9562 31.5215 32.9562H20.652C19.4513 32.9562 18.478 31.983 18.478 30.7823C18.478 29.5816 19.4513 28.6084 20.652 28.6084H22.8259V27.5215C22.8259 26.9212 23.3125 26.4346 23.9128 26.4346H28.2606C28.8609 26.4346 29.3476 26.9212 29.3476 27.5215V28.6084H31.5215C32.7222 28.6084 33.6954 29.5816 33.6954 30.7823Z" fill="#FFC248"/>
<path d="M33.6954 30.7823H18.478C18.478 29.5816 19.4513 28.6084 20.652 28.6084H31.5215C32.7222 28.6084 33.6954 29.5816 33.6954 30.7823Z" fill="#FFFF63"/>
</g>
<defs>
<linearGradient id="paint0_linear_7169_258923" x1="11.3383" y1="12.3047" x2="45.5537" y2="30.2244" gradientUnits="userSpaceOnUse">
<stop stop-color="#FF008A"/>
<stop offset="1" stop-color="#203066"/>
</linearGradient>
<clipPath id="clip0_7169_258923">
<rect width="50" height="50" fill="white" transform="translate(0 0.347656)"/>
</clipPath>
</defs>
</svg>
