<svg width="50" height="51" viewBox="0 0 50 51" fill="none" xmlns="http://www.w3.org/2000/svg">
<path d="M0 29.2193C1.27259 28.9807 2.54518 28.8216 3.89731 28.8216C11.2147 28.8216 17.4981 33.1962 20.2819 39.4001L40.1662 19.5158C31.8148 8.53972 18.6912 1.46094 3.81777 1.46094C2.54518 1.46094 1.27259 1.54047 0 1.62001V29.2193Z" fill="#7DCEEA"/>
<path d="M0 29.2191C1.27259 28.9805 2.54518 28.8214 3.89731 28.8214C11.2147 28.8214 17.4981 33.196 20.2819 39.3999L40.1662 19.5156" fill="#61BBE2"/>
<path d="M49.8696 47.5133C50.1082 47.7519 50.0287 48.3882 49.5515 48.7858C49.0743 49.2631 48.5175 49.3426 48.2789 49.104L33.0873 33.9124C32.8487 33.6738 32.9283 33.0375 33.4055 32.6398C33.8827 32.1626 34.4395 32.0831 34.6781 32.3217L49.8696 47.5133Z" fill="#203066"/>
<path d="M33.4053 32.6398C33.8825 32.1626 34.4393 32.0831 34.6779 32.3217L49.8694 47.5133C50.108 47.7519 50.0285 48.3882 49.5513 48.7858" fill="#203066"/>
<path d="M22.5091 35.4238H17.8164V40.1165H22.5091V35.4238Z" fill="#00233F"/>
<path d="M24.3382 33.5938H19.6455V38.2864H24.3382V33.5938Z" fill="#00233F"/>
<path d="M26.1678 31.7646H21.4751V36.4573H26.1678V31.7646Z" fill="#00233F"/>
<path d="M27.9969 29.8555H23.3042V34.5481H27.9969V29.8555Z" fill="#00233F"/>
<path d="M29.8265 28.0264H25.1338V32.719H29.8265V28.0264Z" fill="#00233F"/>
<path d="M31.6556 26.1973H26.9629V30.9695H31.6556V26.1973Z" fill="#00233F"/>
<path d="M33.4852 24.3682H28.7925V29.0608H33.4852V24.3682Z" fill="#00233F"/>
<path d="M35.3939 22.5381H30.7012V27.2308H35.3939V22.5381Z" fill="#00233F"/>
<path d="M37.2234 20.709H32.5308V25.4017H37.2234V20.709Z" fill="#00233F"/>
<path d="M39.0525 18.8799H34.3599V23.5726H39.0525V18.8799Z" fill="#00233F"/>
<path d="M40.8821 17.0508H36.1895V21.7435H40.8821V17.0508Z" fill="#00233F"/>
<path d="M22.5091 35.4238H17.8164V40.1165H22.5091V35.4238Z" fill="#00233F"/>
<path d="M24.3382 33.5938H19.6455V38.2864H24.3382V33.5938Z" fill="#00233F"/>
<path d="M26.1678 31.7646H21.4751V36.4573H26.1678V31.7646Z" fill="#00233F"/>
<path d="M27.9969 29.8555H23.3042V34.5481H27.9969V29.8555Z" fill="#00233F"/>
<path d="M29.8265 28.0264H25.1338V32.719H29.8265V28.0264Z" fill="#00233F"/>
<path d="M31.6556 26.1973H26.9629V30.9695H31.6556V26.1973Z" fill="#00233F"/>
<path d="M33.4852 24.3682H28.7925V29.0608H33.4852V24.3682Z" fill="#00233F"/>
<path d="M35.3939 22.5381H30.7012V27.2308H35.3939V22.5381Z" fill="#00233F"/>
<path d="M37.2234 20.709H32.5308V25.4017H37.2234V20.709Z" fill="#00233F"/>
<path d="M39.0525 18.8799H34.3599V23.5726H39.0525V18.8799Z" fill="#00233F"/>
<path d="M40.8821 17.0508H36.1895V21.7435H40.8821V17.0508Z" fill="#00233F"/>
<path d="M18.8504 36.4578H20.6797V34.6284H22.5886V32.7991H24.418V30.9697H26.2473V29.1404H28.0767V27.311H29.906V25.4817H31.7354V23.6523H33.5647V21.7435H35.3941V19.9141H37.303V18.0848H40.8821V17.0508H36.1894V18.8801H34.3601V20.7095H32.5307V22.5388H30.7014V24.3682H28.7925V26.1975H26.9632V28.0269H25.1338V29.8562H23.3045V31.7651H21.4751V33.5945H19.6458V35.4238H17.8164V40.1165H18.8504V36.4578Z" fill="#0A4D7A"/>
<path d="M43.4271 16.4938C44.2224 17.2892 45.0973 17.7664 43.5066 19.3572L20.1227 42.741C18.532 44.3318 18.0548 43.4569 17.2594 42.6615C16.464 41.8661 17.1003 39.8777 18.6911 38.287L39.1321 17.846C40.7228 16.3348 42.6317 15.6985 43.4271 16.4938Z" fill="#FF008A"/>
<path d="M43.4269 16.4941C44.2223 17.2895 45.0972 17.7667 43.5065 19.3575L20.1226 42.7413C18.5319 44.3321 18.0546 43.4572 17.2593 42.6618" fill="#FF008A"/>
<path d="M36.0299 26.357C37.4616 27.7887 38.1774 32.4814 35.7118 34.947C33.2461 37.4127 28.5534 36.6968 27.1218 35.2652C25.6901 33.8335 27.9967 32.1632 30.4623 29.6976C33.0075 27.3115 34.5982 24.9254 36.0299 26.357Z" fill="#FF008A"/>
<path d="M34.042 29.3784C34.2011 29.5375 34.2011 29.8557 34.042 30.0943L30.8605 33.2758C30.7015 33.4348 30.3833 33.4348 30.1447 33.2758C29.9856 33.1167 29.9856 32.7985 30.1447 32.5599L33.2466 29.458C33.4852 29.2194 33.8034 29.2194 34.042 29.3784Z" fill="#203066"/>
<path d="M34.6783 31.7647C34.7579 31.8443 34.7579 32.0829 34.6783 32.1624L32.9285 33.9122C32.849 33.9918 32.6104 33.9918 32.5308 33.9122C32.4513 33.8327 32.4513 33.5941 32.5308 33.5145L34.2807 31.7647C34.4397 31.6852 34.5988 31.6852 34.6783 31.7647Z" fill="#203066"/>
<path d="M6.36302 12.0398C6.58265 12.0398 6.7607 10.9715 6.7607 9.65369C6.7607 8.33588 6.58265 7.26758 6.36302 7.26758C6.14338 7.26758 5.96533 8.33588 5.96533 9.65369C5.96533 10.9715 6.14338 12.0398 6.36302 12.0398Z" fill="#FDFFFF"/>
<path d="M6.36316 10.0512C7.68097 10.0512 8.74927 9.87318 8.74927 9.65354C8.74927 9.43391 7.68097 9.25586 6.36316 9.25586C5.04535 9.25586 3.97705 9.43391 3.97705 9.65354C3.97705 9.87318 5.04535 10.0512 6.36316 10.0512Z" fill="#FDFFFF"/>
<path d="M26.2476 17.0505C26.6429 17.0505 26.9634 14.9851 26.9634 12.4374C26.9634 9.88959 26.6429 7.82422 26.2476 7.82422C25.8522 7.82422 25.5317 9.88959 25.5317 12.4374C25.5317 14.9851 25.8522 17.0505 26.2476 17.0505Z" fill="#FDFFFF"/>
<path d="M26.2474 13.1533C28.7952 13.1533 30.8606 12.8329 30.8606 12.4375C30.8606 12.0422 28.7952 11.7217 26.2474 11.7217C23.6997 11.7217 21.6343 12.0422 21.6343 12.4375C21.6343 12.8329 23.6997 13.1533 26.2474 13.1533Z" fill="#FDFFFF"/>
<path d="M7.89739 20.2528C8.82987 19.3216 9.45999 18.4407 9.3048 18.2853C9.1496 18.1299 8.26787 18.7588 7.33538 19.69C6.4029 20.6211 5.77278 21.502 5.92798 21.6574C6.08317 21.8128 6.96491 21.1839 7.89739 20.2528Z" fill="#FDFFFF"/>
<path d="M7.36114 20.2047C8.29296 21.1365 9.17425 21.766 9.32956 21.6107C9.48486 21.4554 8.85537 20.5741 7.92354 19.6423C6.99172 18.7105 6.11043 18.081 5.95513 18.2363C5.79982 18.3916 6.42932 19.2729 7.36114 20.2047Z" fill="#FDFFFF"/>
<path d="M17.1006 13.3923C17.8913 13.3923 18.5323 13.2854 18.5323 13.1537C18.5323 13.0219 17.8913 12.915 17.1006 12.915C16.3099 12.915 15.6689 13.0219 15.6689 13.1537C15.6689 13.2854 16.3099 13.3923 17.1006 13.3923Z" fill="#FDFFFF"/>
<path d="M17.1004 14.585C17.2322 14.585 17.339 13.944 17.339 13.1533C17.339 12.3627 17.2322 11.7217 17.1004 11.7217C16.9686 11.7217 16.8618 12.3627 16.8618 13.1533C16.8618 13.944 16.9686 14.585 17.1004 14.585Z" fill="#FDFFFF"/>
<path d="M12.0693 7.78742C12.5055 7.35393 12.8089 6.95199 12.7469 6.88967C12.685 6.82736 12.2812 7.12826 11.845 7.56176C11.4088 7.99526 11.1054 8.3972 11.1673 8.45951C11.2292 8.52183 11.6331 8.22092 12.0693 7.78742Z" fill="#FDFFFF"/>
<path d="M11.8455 7.8384C12.2797 8.27393 12.6821 8.57671 12.7443 8.51469C12.8065 8.45266 12.505 8.04932 12.0708 7.61379C11.6366 7.17826 11.2342 6.87548 11.172 6.9375C11.1098 6.99953 11.4113 7.40287 11.8455 7.8384Z" fill="#FDFFFF"/>
<path d="M13.3207 16.515C13.7569 16.0815 14.0603 15.6795 13.9984 15.6172C13.9365 15.5549 13.5327 15.8558 13.0965 16.2893C12.6603 16.7228 12.3568 17.1247 12.4188 17.1871C12.4807 17.2494 12.8845 16.9485 13.3207 16.515Z" fill="#FDFFFF"/>
<path d="M13.118 16.5132C13.5521 16.9487 13.9545 17.2515 14.0168 17.1895C14.079 17.1275 13.7774 16.7241 13.3433 16.2886C12.9091 15.8531 12.5067 15.5503 12.4445 15.6123C12.3823 15.6743 12.6838 16.0777 13.118 16.5132Z" fill="#FDFFFF"/>
<path d="M14.9533 23.3344C15.173 23.3344 15.351 23.1564 15.351 22.9367C15.351 22.7171 15.173 22.5391 14.9533 22.5391C14.7337 22.5391 14.5557 22.7171 14.5557 22.9367C14.5557 23.1564 14.7337 23.3344 14.9533 23.3344Z" fill="#FDFFFF"/>
<path d="M20.8388 8.14252C21.6735 8.14252 22.35 7.46593 22.35 6.63132C22.35 5.79671 21.6735 5.12012 20.8388 5.12012C20.0042 5.12012 19.3276 5.79671 19.3276 6.63132C19.3276 7.46593 20.0042 8.14252 20.8388 8.14252Z" fill="#FDFFFF"/>
<path d="M6.28359 15.9373C6.37144 15.9373 6.44266 15.8661 6.44266 15.7782C6.44266 15.6904 6.37144 15.6191 6.28359 15.6191C6.19573 15.6191 6.12451 15.6904 6.12451 15.7782C6.12451 15.8661 6.19573 15.9373 6.28359 15.9373Z" fill="#FDFFFF"/>
<path d="M20.7592 21.743C20.847 21.743 20.9182 21.6717 20.9182 21.5839C20.9182 21.496 20.847 21.4248 20.7592 21.4248C20.6713 21.4248 20.6001 21.496 20.6001 21.5839C20.6001 21.6717 20.6713 21.743 20.7592 21.743Z" fill="#FDFFFF"/>
<path d="M27.1225 21.8232C27.5618 21.8232 27.9179 21.4671 27.9179 21.0278C27.9179 20.5885 27.5618 20.2324 27.1225 20.2324C26.6832 20.2324 26.3271 20.5885 26.3271 21.0278C26.3271 21.4671 26.6832 21.8232 27.1225 21.8232Z" fill="#FDFFFF"/>
<path d="M21.7934 17.7664C22.2766 17.7664 22.6683 17.3747 22.6683 16.8915C22.6683 16.4083 22.2766 16.0166 21.7934 16.0166C21.3102 16.0166 20.9185 16.4083 20.9185 16.8915C20.9185 17.3747 21.3102 17.7664 21.7934 17.7664Z" fill="#FDFFFF"/>
<path d="M16.2259 7.66559C16.4016 7.66559 16.544 7.52315 16.544 7.34745C16.544 7.17174 16.4016 7.0293 16.2259 7.0293C16.0502 7.0293 15.9077 7.17174 15.9077 7.34745C15.9077 7.52315 16.0502 7.66559 16.2259 7.66559Z" fill="#FDFFFF"/>
<path d="M6.36309 30.651C7.32949 30.651 8.11291 29.8676 8.11291 28.9012C8.11291 27.9348 7.32949 27.1514 6.36309 27.1514C5.3967 27.1514 4.61328 27.9348 4.61328 28.9012C4.61328 29.8676 5.3967 30.651 6.36309 30.651Z" fill="#FDFFFF"/>
<path d="M12.4079 27.5493C12.6276 27.5493 12.8056 27.3712 12.8056 27.1516C12.8056 26.932 12.6276 26.7539 12.4079 26.7539C12.1883 26.7539 12.0103 26.932 12.0103 27.1516C12.0103 27.3712 12.1883 27.5493 12.4079 27.5493Z" fill="#FDFFFF"/>
<path d="M17.3395 26.3567C17.647 26.3567 17.8962 26.1074 17.8962 25.7999C17.8962 25.4924 17.647 25.2432 17.3395 25.2432C17.032 25.2432 16.7827 25.4924 16.7827 25.7999C16.7827 26.1074 17.032 26.3567 17.3395 26.3567Z" fill="#FDFFFF"/>
</svg>
