<svg width="42" height="48" viewBox="0 0 42 48" fill="none" xmlns="http://www.w3.org/2000/svg">
<path d="M40.0234 44.9375H38.1875V3.07812C38.1875 1.88477 37.1777 0.875 35.9844 0.875H5.14062C3.85547 0.875 2.9375 1.88477 2.9375 3.07812V44.9375H1.10156C0.458984 44.9375 0 45.4883 0 46.0391V47.875H41.125V46.0391C41.125 45.4883 40.5742 44.9375 40.0234 44.9375ZM11.75 7.85156C11.75 7.30078 12.209 6.75 12.8516 6.75H16.5234C17.0742 6.75 17.625 7.30078 17.625 7.85156V11.5234C17.625 12.166 17.0742 12.625 16.5234 12.625H12.8516C12.209 12.625 11.75 12.166 11.75 11.5234V7.85156ZM11.75 16.6641C11.75 16.1133 12.209 15.5625 12.8516 15.5625H16.5234C17.0742 15.5625 17.625 16.1133 17.625 16.6641V20.3359C17.625 20.9785 17.0742 21.4375 16.5234 21.4375H12.8516C12.209 21.4375 11.75 20.9785 11.75 20.3359V16.6641ZM16.5234 30.25H12.8516C12.209 30.25 11.75 29.791 11.75 29.1484V25.4766C11.75 24.9258 12.209 24.375 12.8516 24.375H16.5234C17.0742 24.375 17.625 24.9258 17.625 25.4766V29.1484C17.625 29.791 17.0742 30.25 16.5234 30.25ZM23.5 44.9375H17.625V37.2266C17.625 36.6758 18.084 36.125 18.7266 36.125H22.3984C22.9492 36.125 23.5 36.6758 23.5 37.2266V44.9375ZM29.375 29.1484C29.375 29.791 28.8242 30.25 28.2734 30.25H24.6016C23.959 30.25 23.5 29.791 23.5 29.1484V25.4766C23.5 24.9258 23.959 24.375 24.6016 24.375H28.2734C28.8242 24.375 29.375 24.9258 29.375 25.4766V29.1484ZM29.375 20.3359C29.375 20.9785 28.8242 21.4375 28.2734 21.4375H24.6016C23.959 21.4375 23.5 20.9785 23.5 20.3359V16.6641C23.5 16.1133 23.959 15.5625 24.6016 15.5625H28.2734C28.8242 15.5625 29.375 16.1133 29.375 16.6641V20.3359ZM29.375 11.5234C29.375 12.166 28.8242 12.625 28.2734 12.625H24.6016C23.959 12.625 23.5 12.166 23.5 11.5234V7.85156C23.5 7.30078 23.959 6.75 24.6016 6.75H28.2734C28.8242 6.75 29.375 7.30078 29.375 7.85156V11.5234Z" fill="#FF008A"/>
</svg>
