<svg width="59" height="48" viewBox="0 0 59 48" fill="none" xmlns="http://www.w3.org/2000/svg">
<path d="M57.3813 39.0625H35.0746C34.9828 40.8984 33.6977 42 32.0453 42H26.5375C24.7934 42 23.4164 40.4395 23.5082 39.0625H1.56875C0.742579 39.0625 0.1 39.7969 0.1 40.5312V42C0.1 45.3047 2.67031 47.875 5.975 47.875H52.975C56.1879 47.875 58.85 45.3047 58.85 42V40.5312C58.85 39.7969 58.1156 39.0625 57.3813 39.0625ZM52.975 5.28125C52.975 2.89453 50.9555 0.875 48.5688 0.875H10.3813C7.90273 0.875 5.975 2.89453 5.975 5.28125V36.125H52.975V5.28125ZM47.1 30.25H11.85V6.75H47.1V30.25Z" fill="#FF008A"/>
</svg>
