<svg width="14" height="12" viewBox="0 0 14 12" fill="none" xmlns="http://www.w3.org/2000/svg">
<path d="M12.8333 5.271C13.0725 5.271 13.2708 5.07266 13.2708 4.8335V4.25016C13.2708 1.67766 12.4891 0.895996 9.91663 0.895996H6.27079V2.2085C6.27079 2.44766 6.07246 2.646 5.83329 2.646C5.59413 2.646 5.39579 2.44766 5.39579 2.2085V0.895996H4.08329C1.51079 0.895996 0.729126 1.67766 0.729126 4.25016V4.54183C0.729126 4.781 0.927459 4.97933 1.16663 4.97933C1.72663 4.97933 2.18746 5.44016 2.18746 6.00016C2.18746 6.56016 1.72663 7.021 1.16663 7.021C0.927459 7.021 0.729126 7.21933 0.729126 7.4585V7.75016C0.729126 10.3227 1.51079 11.1043 4.08329 11.1043H5.39579V9.79183C5.39579 9.55266 5.59413 9.35433 5.83329 9.35433C6.07246 9.35433 6.27079 9.55266 6.27079 9.79183V11.1043H9.91663C12.4891 11.1043 13.2708 10.3227 13.2708 7.75016C13.2708 7.511 13.0725 7.31266 12.8333 7.31266C12.2733 7.31266 11.8125 6.85183 11.8125 6.29183C11.8125 5.73183 12.2733 5.271 12.8333 5.271ZM6.27079 7.266C6.27079 7.50516 6.07246 7.7035 5.83329 7.7035C5.59413 7.7035 5.39579 7.50516 5.39579 7.266V4.73433C5.39579 4.49516 5.59413 4.29683 5.83329 4.29683C6.07246 4.29683 6.27079 4.49516 6.27079 4.73433V7.266Z" fill="#74788D"/>
</svg>
