<svg width="30" height="30" viewBox="0 0 30 30" fill="none" xmlns="http://www.w3.org/2000/svg">
<path d="M26.25 5H3.75C3.41848 5 3.10054 5.1317 2.86612 5.36612C2.6317 5.60054 2.5 5.91848 2.5 6.25V23.75C2.5 24.0815 2.6317 24.3995 2.86612 24.6339C3.10054 24.8683 3.41848 25 3.75 25H26.25C26.5815 25 26.8995 24.8683 27.1339 24.6339C27.3683 24.3995 27.5 24.0815 27.5 23.75V6.25C27.5 5.91848 27.3683 5.60054 27.1339 5.36612C26.8995 5.1317 26.5815 5 26.25 5ZM25 18.75C24.0054 18.75 23.0516 19.1451 22.3483 19.8483C21.6451 20.5516 21.25 21.5054 21.25 22.5H8.75C8.75 21.5054 8.35491 20.5516 7.65165 19.8483C6.94839 19.1451 5.99456 18.75 5 18.75V11.25C5.99456 11.25 6.94839 10.8549 7.65165 10.1517C8.35491 9.44839 8.75 8.49456 8.75 7.5H21.25C21.25 8.49456 21.6451 9.44839 22.3483 10.1517C23.0516 10.8549 24.0054 11.25 25 11.25V18.75Z" fill="#4C40ED"/>
<path d="M15 10C12.2425 10 10 12.2425 10 15C10 17.7575 12.2425 20 15 20C17.7575 20 20 17.7575 20 15C20 12.2425 17.7575 10 15 10ZM15 17.5C13.6212 17.5 12.5 16.3787 12.5 15C12.5 13.6212 13.6212 12.5 15 12.5C16.3787 12.5 17.5 13.6212 17.5 15C17.5 16.3787 16.3787 17.5 15 17.5Z" fill="#4C40ED"/>
</svg>
