<svg width="30" height="30" viewBox="0 0 30 30" fill="none" xmlns="http://www.w3.org/2000/svg">
<path d="M15 18.75C12.7 18.75 12.5 17.675 12.5 17.5H10C10 18.65 10.825 20.6875 13.75 21.15V22.5H16.25V21.15C18.75 20.725 20 19.1125 20 17.5C20 16.1 19.35 13.75 15 13.75C12.5 13.75 12.5 12.9625 12.5 12.5C12.5 12.0375 13.375 11.25 15 11.25C16.625 11.25 16.7375 12.05 16.75 12.5H19.25C19.2331 11.6484 18.9268 10.828 18.3816 10.1737C17.8363 9.51938 17.0845 9.07018 16.25 8.9V7.5H13.75V8.8625C11.25 9.275 10 10.8875 10 12.5C10 13.9 10.65 16.25 15 16.25C17.5 16.25 17.5 17.1 17.5 17.5C17.5 17.9 16.725 18.75 15 18.75Z" fill="#4C40ED"/>
<path d="M6.25 2.5H2.5V5H5V26.25C5 26.5815 5.1317 26.8995 5.36612 27.1339C5.60054 27.3683 5.91848 27.5 6.25 27.5H23.75C24.0815 27.5 24.3995 27.3683 24.6339 27.1339C24.8683 26.8995 25 26.5815 25 26.25V5H27.5V2.5H6.25ZM22.5 25H7.5V5H22.5V25Z" fill="#4C40ED"/>
</svg>
