<svg width="66" height="59" viewBox="0 0 66 59" fill="none" xmlns="http://www.w3.org/2000/svg">
<path d="M0 29.5C0 13.2076 13.2076 0 29.5 0H36C52.5685 0 66 13.4315 66 30V59H29.5C13.2076 59 0 45.7924 0 29.5Z" fill="white"/>
<path d="M32 33.459C31.9998 34.6692 31.5707 35.846 30.7783 36.8098C29.9859 37.7736 28.8737 38.4713 27.6117 38.7963C26.3496 39.1214 25.007 39.056 23.789 38.61C22.571 38.1641 21.5445 37.3621 20.8663 36.3267C20.1881 35.2912 19.8955 34.0792 20.0332 32.8757C20.1709 31.6722 20.7313 30.5434 21.6288 29.6618C22.5263 28.7801 23.7116 28.194 25.0036 27.9931C26.2956 27.7921 27.6234 27.9873 28.784 28.5488C28.3829 27.1744 27.8171 26.0233 27.14 25.1049C25.7857 23.265 24.0114 22.3751 22.1429 22.3751C21.8019 22.3751 21.4748 22.25 21.2337 22.0273C20.9926 21.8046 20.8571 21.5025 20.8571 21.1876C20.8571 20.8726 20.9926 20.5705 21.2337 20.3478C21.4748 20.1251 21.8019 20 22.1429 20C25.0074 20 27.5206 21.3982 29.2674 23.7685C30.9989 26.1215 32 29.4419 32 33.459Z" fill="#FF0080"/>
<path d="M46 33.459C45.9998 34.6692 45.6065 35.846 44.8801 36.8098C44.1537 37.7736 43.1342 38.4713 41.9774 38.7963C40.8205 39.1214 39.5898 39.056 38.4733 38.61C37.3568 38.1641 36.4158 37.3621 35.7941 36.3267C35.1725 35.2912 34.9042 34.0792 35.0305 32.8757C35.1567 31.6722 35.6704 30.5434 36.4931 29.6618C37.3158 28.7801 38.4023 28.194 39.5867 27.9931C40.771 27.7921 41.9881 27.9873 43.052 28.5488C42.6843 27.1744 42.1657 26.0233 41.545 25.1049C40.3036 23.265 38.6771 22.3751 36.9643 22.3751C36.6517 22.3751 36.3519 22.25 36.1309 22.0273C35.9099 21.8046 35.7857 21.5025 35.7857 21.1876C35.7857 20.8726 35.9099 20.5705 36.1309 20.3478C36.3519 20.1251 36.6517 20 36.9643 20C39.5901 20 41.8939 21.3982 43.4951 23.7685C45.0823 26.1215 46 29.4419 46 33.459Z" fill="#FF0080"/>
</svg>
