<svg width="20" height="20" viewBox="0 0 20 20" fill="none" xmlns="http://www.w3.org/2000/svg">
<path d="M15.0334 11.2904C14.6834 11.632 14.4834 12.1237 14.5334 12.6487C14.6084 13.5487 15.4334 14.207 16.3334 14.207H17.9167V15.1987C17.9167 16.9237 16.5084 18.332 14.7834 18.332H5.21671C3.49171 18.332 2.08337 16.9237 2.08337 15.1987V9.59037C2.08337 7.86537 3.49171 6.45703 5.21671 6.45703H14.7834C16.5084 6.45703 17.9167 7.86537 17.9167 9.59037V10.7904H16.2334C15.7667 10.7904 15.3417 10.9737 15.0334 11.2904Z" stroke="#00E343" stroke-width="1.5" stroke-linecap="round" stroke-linejoin="round"/>
<path d="M2.08337 10.3401V6.53183C2.08337 5.54017 2.69171 4.6568 3.61671 4.3068L10.2334 1.8068C11.2667 1.41513 12.375 2.18182 12.375 3.29015V6.45681" stroke="#00E343" stroke-width="1.5" stroke-linecap="round" stroke-linejoin="round"/>
<path d="M18.799 11.6429V13.3596C18.799 13.818 18.4324 14.1929 17.9657 14.2096H16.3324C15.4324 14.2096 14.6074 13.5513 14.5324 12.6513C14.4824 12.1263 14.6824 11.6346 15.0324 11.2929C15.3407 10.9763 15.7657 10.793 16.2324 10.793H17.9657C18.4324 10.8096 18.799 11.1846 18.799 11.6429Z" stroke="#00E343" stroke-width="1.5" stroke-linecap="round" stroke-linejoin="round"/>
<path d="M5.83337 10H11.6667" stroke="#00E343" stroke-width="1.5" stroke-linecap="round" stroke-linejoin="round"/>
</svg>
