<svg width="20" height="20" viewBox="0 0 20 20" fill="none" xmlns="http://www.w3.org/2000/svg">
<path d="M15.0333 11.2904C14.6833 11.632 14.4833 12.1237 14.5333 12.6487C14.6083 13.5487 15.4333 14.207 16.3333 14.207H17.9166V15.1987C17.9166 16.9237 16.5083 18.332 14.7833 18.332H6.36665C7.05831 17.7237 7.49998 16.832 7.49998 15.832C7.49998 13.9904 6.00831 12.4987 4.16665 12.4987C3.38331 12.4987 2.65831 12.7737 2.08331 13.232V9.59037C2.08331 7.86537 3.49164 6.45703 5.21664 6.45703H14.7833C16.5083 6.45703 17.9166 7.86537 17.9166 9.59037V10.7904H16.2333C15.7666 10.7904 15.3416 10.9737 15.0333 11.2904Z" stroke="#005CFF" stroke-width="1.5" stroke-linecap="round" stroke-linejoin="round"/>
<path d="M2.08331 9.59103V6.53272C2.08331 5.54105 2.69164 4.65768 3.61664 4.30768L10.2333 1.80768C11.2666 1.42435 12.375 2.1827 12.375 3.29104V6.45769" stroke="#005CFF" stroke-width="1.5" stroke-linecap="round" stroke-linejoin="round"/>
<path d="M18.799 11.6429V13.3596C18.799 13.818 18.4323 14.1929 17.9657 14.2096H16.3323C15.4323 14.2096 14.6073 13.5513 14.5323 12.6513C14.4823 12.1263 14.6823 11.6346 15.0323 11.2929C15.3406 10.9763 15.7657 10.793 16.2323 10.793H17.9657C18.4323 10.8096 18.799 11.1846 18.799 11.6429Z" stroke="#005CFF" stroke-width="1.5" stroke-linecap="round" stroke-linejoin="round"/>
<path d="M5.83331 10H11.6666" stroke="#005CFF" stroke-width="1.5" stroke-linecap="round" stroke-linejoin="round"/>
<path d="M7.49998 15.8333C7.49998 16.8333 7.05831 17.725 6.36665 18.3333C5.77498 18.85 5.00831 19.1667 4.16665 19.1667C2.32498 19.1667 0.833313 17.675 0.833313 15.8333C0.833313 14.7833 1.31665 13.8417 2.08331 13.2333C2.65831 12.775 3.38331 12.5 4.16665 12.5C6.00831 12.5 7.49998 13.9917 7.49998 15.8333Z" stroke="#005CFF" stroke-width="1.5" stroke-miterlimit="10" stroke-linecap="round" stroke-linejoin="round"/>
<path d="M4.37498 14.793V16.043L3.33331 16.668" stroke="#005CFF" stroke-width="1.5" stroke-miterlimit="10" stroke-linecap="round" stroke-linejoin="round"/>
</svg>
