<svg width="20" height="20" viewBox="0 0 20 20" fill="none" xmlns="http://www.w3.org/2000/svg">
<path d="M15.4167 10.543V13.6263C15.4167 16.2263 12.9917 18.3346 10 18.3346C7.00837 18.3346 4.58337 16.2263 4.58337 13.6263V10.543C4.58337 13.143 7.00837 15.0013 10 15.0013C12.9917 15.0013 15.4167 13.143 15.4167 10.543Z" stroke="#FF4B42" stroke-width="1.5" stroke-linecap="round" stroke-linejoin="round"/>
<path d="M15.4167 6.3763C15.4167 7.13464 15.2084 7.83463 14.8417 8.43463C13.95 9.9013 12.1167 10.8346 10 10.8346C7.88337 10.8346 6.05004 9.9013 5.15838 8.43463C4.79171 7.83463 4.58337 7.13464 4.58337 6.3763C4.58337 5.0763 5.1917 3.9013 6.1667 3.0513C7.15004 2.19297 8.50004 1.66797 10 1.66797C11.5 1.66797 12.85 2.19297 13.8334 3.04297C14.8084 3.9013 15.4167 5.0763 15.4167 6.3763Z" stroke="#FF4B42" stroke-width="1.5" stroke-linecap="round" stroke-linejoin="round"/>
<path d="M15.4167 6.3763V10.543C15.4167 13.143 12.9917 15.0013 10 15.0013C7.00837 15.0013 4.58337 13.143 4.58337 10.543V6.3763C4.58337 3.7763 7.00837 1.66797 10 1.66797C11.5 1.66797 12.85 2.19297 13.8334 3.04297C14.8084 3.9013 15.4167 5.0763 15.4167 6.3763Z" stroke="#FF4B42" stroke-width="1.5" stroke-linecap="round" stroke-linejoin="round"/>
</svg>
