<svg width="20" height="21" viewBox="0 0 20 21" fill="none" xmlns="http://www.w3.org/2000/svg">
<path d="M3.46044 3.46832L17.7727 4.87719C18.5908 4.95773 19.1917 5.68177 19.1201 6.50071L18.8982 9.03682C18.8393 9.71032 18.3371 10.2612 17.6718 10.382L5.8932 12.5205M0.932129 1.74219L2.23343 2.01261C2.81346 2.13315 3.26821 2.58379 3.39402 3.1627L6.08745 15.5567C6.23731 16.2463 6.84756 16.7381 7.55324 16.7381H18.9724" stroke="#EB7907" stroke-width="1.5" stroke-linecap="round"/>
<mask id="path-2-inside-1_710_4141" fill="white">
<ellipse cx="6.06209" cy="19.6966" rx="1.28255" ry="1.28255"/>
</mask>
<ellipse cx="6.06209" cy="19.6966" rx="1.28255" ry="1.28255" fill="#52536D"/>
<path d="M5.84464 19.6966C5.84464 19.5765 5.942 19.4792 6.06209 19.4792V22.4792C7.59885 22.4792 8.84464 21.2334 8.84464 19.6966H5.84464ZM6.06209 19.4792C6.18218 19.4792 6.27954 19.5765 6.27954 19.6966H3.27954C3.27954 21.2334 4.52533 22.4792 6.06209 22.4792V19.4792ZM6.27954 19.6966C6.27954 19.8167 6.18218 19.9141 6.06209 19.9141V16.9141C4.52533 16.9141 3.27954 18.1599 3.27954 19.6966H6.27954ZM6.06209 19.9141C5.942 19.9141 5.84464 19.8167 5.84464 19.6966H8.84464C8.84464 18.1599 7.59885 16.9141 6.06209 16.9141V19.9141Z" fill="#EB7907" mask="url(#path-2-inside-1_710_4141)"/>
<circle cx="15.533" cy="19.6966" r="0.75" fill="#52536D" stroke="#EB7907" stroke-width="1.0651"/>
</svg>
