<svg width="66" height="67" viewBox="0 0 66 67" fill="none" xmlns="http://www.w3.org/2000/svg">
<path d="M32.8766 10.8512C17.8771 10.4645 13.0199 22.0764 12.6487 26.4334C12.3599 29.8211 10.9058 42.2115 17.9699 50.5337C21.6154 54.8289 27.4574 56.9687 33.6501 56.8243C39.8943 56.68 45.5352 55.4373 49.3302 50.4358C55.7188 42.0156 55.0382 29.4344 54.1719 25.3661C53.3573 21.5814 50.1965 11.2947 32.8766 10.8512Z" fill="#FFEAC8"/>
<path d="M49.9233 33.7758C50.4544 37.8028 48.7064 41.6442 44.1019 41.9175C39.8892 42.1701 37.2905 39.4837 37.0842 35.5289C36.8728 31.4761 39.09 27.7069 42.6117 27.3201C46.3294 26.9128 49.3973 29.7487 49.9233 33.7758Z" fill="#D27856"/>
<path d="M9.74578 14.3311C9.74578 14.3311 4.67718 16.3163 3.45515 19.2657C1.81031 23.236 2.56828 31.1147 3.45515 34.1724C4.32656 37.1733 6.64687 40.2722 10.2305 40.1742C13.8141 40.0763 16.9594 36.4463 18.068 31.7077C19.1817 26.9639 19.4241 18.8377 19.7592 17.3836C20.0944 15.9296 20.677 14.7694 20.677 14.7694C20.677 14.7694 16.2272 10.4588 9.74578 14.3311Z" fill="#D27856"/>
<path d="M52.1863 13.7025C52.1863 13.7025 59.0596 13.9449 60.7044 14.6719C62.3492 15.3989 63.8497 18.6886 63.7053 23.0921C63.561 27.4955 63.2722 34.6163 61.0447 37.0758C59.2039 39.1074 55.4811 39.2517 53.398 36.7355C51.3149 34.2192 50.0103 29.9602 49.5257 27.2016C49.041 24.443 48.2211 20.8646 47.6849 19.2661C47.1538 17.6677 45.8441 14.476 45.1686 13.7489C44.488 13.0271 45.8441 12.3464 52.1863 13.7025Z" fill="#D27856"/>
<path d="M15.4534 12.0574C11.7255 11.8202 5.57923 14.7695 4.32111 17.8169C3.06298 20.8642 3.80033 30.7539 4.85736 33.6414C5.97111 36.6888 8.29142 40.5147 12.3081 37.225C16.3249 33.9353 17.387 25.6595 17.7789 22.9989C18.1656 20.3383 18.6967 17.095 19.2794 16.4195C19.862 15.7441 20.6819 14.7747 20.6819 14.7747C20.6819 14.7747 20.0528 12.3461 15.4534 12.0574Z" fill="#865B51"/>
<path d="M53.0064 11.4281C56.5075 11.6705 60.3129 12.975 61.7154 16.0275C63.1179 19.0748 62.5868 26.2884 62.0557 29.7225C61.5246 33.1566 60.2664 36.7402 57.1211 36.3534C53.9758 35.9667 52.3774 31.7077 51.4132 27.6909C50.4438 23.6742 49.428 19.6575 48.1699 16.7545C47.4119 15.0014 44.7822 13.7072 44.7822 13.7072C44.7822 13.7072 45.9424 10.9434 53.0064 11.4281Z" fill="#865B51"/>
<path d="M26.0392 35.4563C25.833 37.2198 24.9255 38.6429 22.9558 38.4366C21.5584 38.2871 20.62 36.6216 20.8262 34.8531C21.0325 33.0896 21.6461 31.8212 23.2961 31.8521C25.8587 31.8985 26.2455 33.6877 26.0392 35.4563Z" fill="#2F2F2F"/>
<path d="M46.272 34.9617C46.3545 36.7355 45.6533 38.2514 43.6062 38.401C41.8273 38.5299 40.9147 36.9881 40.8373 35.2144C40.7548 33.4406 41.6366 32.0175 43.333 31.8061C45.5347 31.5225 46.1895 33.188 46.272 34.9617Z" fill="#2F2F2F"/>
<path d="M38.734 43.9022C38.8165 45.6759 37.6203 47.3362 33.8923 47.2898C30.2623 47.2434 28.9423 45.7739 28.8598 44.0002C28.7773 42.2264 30.8398 40.6331 33.7943 40.5661C37.8626 40.463 38.6515 42.1233 38.734 43.9022Z" fill="#2F2F2F"/>
<path d="M30.5039 51.0646C30.5039 51.0646 30.9422 55.2773 31.3753 56.5354C32.2931 59.1961 36.1603 58.7526 36.8461 56.2467C37.4287 54.1172 37.042 50.4407 37.042 50.4407L33.608 49.9561L30.5039 51.0646Z" fill="#E94B8C"/>
<path d="M34.0105 52.4673C33.4072 52.493 33.4278 53.0499 33.4278 54.3287C33.4278 55.6126 33.5 56.386 34.0827 56.3602C34.6653 56.3344 34.5931 55.3444 34.5931 54.4266C34.5931 53.5088 34.6395 52.4415 34.0105 52.4673Z" fill="#EF87B2"/>
<path d="M25.8587 47.0681C25.1626 48.0942 26.5136 49.0017 27.6273 49.7545C28.7411 50.5021 30.092 51.6417 31.6904 51.6159C33.4797 51.5901 33.9643 50.3836 33.9643 50.3836C33.9643 50.3836 34.547 51.8118 37.0839 51.5437C38.44 51.3993 40.1106 49.8782 40.6159 49.5379C41.5853 48.8831 42.7454 48.0632 42.235 47.3826C41.6523 46.604 40.42 47.6507 39.1618 48.3004C37.9037 48.9553 37.4706 49.2698 36.527 49.2698C35.5834 49.2698 34.9286 48.8831 34.8822 47.3104C34.8409 46.0265 34.8564 45.7842 34.8564 45.7842H32.7011C32.7011 45.7842 32.7732 47.1403 32.7732 47.527C32.7732 48.5428 32.2422 48.9811 31.2264 49.0275C30.2106 49.0739 29.1226 48.2282 28.5864 47.9137C28.0604 47.6043 26.4156 46.2482 25.8587 47.0681Z" fill="#2F2F30"/>
</svg>
