<svg width="57" height="40" viewBox="0 0 57 40" fill="none" xmlns="http://www.w3.org/2000/svg">
<path d="M47.2266 12.6037L42.6353 5.97152C42.295 5.481 41.8427 5.07863 41.3159 4.79776C40.7891 4.51689 40.2029 4.36561 39.606 4.35645L30.893 4.23145H30.875C26.3766 4.23145 22.9252 4.98387 20.7023 8.65598C18.6328 12.0741 17.75 17.8967 17.75 28.1248V29.3748H20.606L18.7675 38.7498H21.3152L23.1537 29.3748H24C26.0415 29.393 28.0083 28.6075 29.4756 27.1879C30.8021 25.9187 31.7589 24.1823 32.2427 22.1665L32.2471 22.1484L34.3911 11.8748H31.8372L29.8076 21.6004C29.1895 24.1536 27.3411 26.8748 24 26.8748H20.2547C20.3226 18.0259 21.1283 12.7796 22.841 9.95027C24.2785 7.57527 26.3797 6.73223 30.8663 6.73105L39.5701 6.85605C39.7691 6.85908 39.9645 6.9095 40.1401 7.00312C40.3157 7.09675 40.4664 7.23089 40.5798 7.39441L45.7734 14.8959L52.75 16.0587V17.3836L51.5866 23.5884C51.2432 25.4197 50.6562 26.3422 48.2492 26.6314L38.3816 28.3196L38.3163 38.7498H40.8163L40.8684 30.43L48.5794 29.1097C50.3262 28.895 51.6151 28.332 52.5189 27.3892C53.2916 26.5831 53.7618 25.5532 54.0438 24.0492L55.25 17.616V13.9409L47.2266 12.6037Z" fill="#2A396D"/>
<path d="M12.5 26C14.0759 26 15.6363 25.6896 17.0922 25.0866C18.5481 24.4835 19.871 23.5996 20.9853 22.4853C22.0996 21.371 22.9835 20.0481 23.5866 18.5922C24.1896 17.1363 24.5 15.5759 24.5 14C24.5 12.4241 24.1896 10.8637 23.5866 9.4078C22.9835 7.95189 22.0996 6.62902 20.9853 5.51472C19.871 4.40041 18.5481 3.5165 17.0922 2.91344C15.6363 2.31039 14.0759 2 12.5 2L12.5 14L12.5 26Z" fill="#FF0080" fill-opacity="0.2"/>
</svg>
