<svg width="40" height="40" viewBox="0 0 40 40" fill="none" xmlns="http://www.w3.org/2000/svg">
<g clip-path="url(#clip0_443_2113)">
<path d="M5.85387 0.00816345C13.3928 0.00816345 20.9328 0.00816345 28.4717 0.00816345C28.386 0.298144 28.1189 0.227691 27.9262 0.258323C26.8781 0.422714 25.8707 0.716779 24.9316 1.20689C22.0033 2.73439 20.1018 5.09712 19.4503 8.34307C18.7427 11.8698 19.6603 14.983 22.1481 17.6112C23.4328 18.9682 24.9877 19.8637 26.772 20.3793C26.8719 20.4079 26.9719 20.4365 27.0534 20.507C27.136 20.7632 26.8995 20.8071 26.771 20.8939C25.6138 21.671 24.4382 22.4204 23.2758 23.1903C22.3541 23.7907 21.4171 24.3686 20.5188 25.0047C20.1365 25.2763 19.8102 25.2814 19.4248 25.0068C18.5601 24.3911 17.6558 23.8346 16.7646 23.2567C13.0431 20.8306 9.32663 18.4005 5.60305 15.9786C5.23905 15.7417 5.11058 15.4772 5.11364 15.0545C5.12893 12.5846 5.12078 10.1146 5.1218 7.64365C5.1218 7.40982 5.1167 7.176 5.08203 6.94422C5.11466 5.1349 5.08713 3.32559 5.09631 1.51627C5.09733 1.33452 5.09325 1.15175 5.09936 0.970001C5.11976 0.372682 5.29003 0.156217 5.85387 0.00816345Z" fill="#F0F1F1"/>
<path d="M39.901 12.072C39.8979 12.0924 39.8949 12.1138 39.8918 12.1343C39.8796 12.2221 39.8663 12.3089 39.851 12.3957C39.6696 13.4596 39.3188 14.4664 38.7998 15.418C37.7038 17.4305 36.1356 18.9529 34.0689 19.9423C32.1449 20.8633 30.123 21.189 28.0094 20.8582C27.6882 20.8082 27.3263 20.8633 27.0703 20.5794L27.0673 20.5764C24.2144 19.831 22.007 18.2106 20.5184 15.6579C19.2908 13.5515 18.8656 11.2766 19.2418 8.85973C19.6905 5.97523 21.122 3.68602 23.4609 1.96758C24.8914 0.915885 26.5096 0.311418 28.2694 0.0878061C28.3438 0.0786165 28.4284 0.0949535 28.4733 0.00816345H28.5508C28.7333 0.0714691 28.9148 0.0714691 29.0973 0.00816345H30.5788C31.4832 0.0908693 32.3723 0.232797 33.2247 0.568725C33.7283 0.768853 34.2228 0.982254 34.6878 1.25998C34.7 1.26509 34.7123 1.27224 34.7235 1.2804C34.7388 1.28857 34.753 1.29776 34.7683 1.30695C38.7213 3.67581 40.4506 7.57217 39.901 12.072Z" fill="#203066"/>
<path d="M16.8508 23.2015C16.8365 23.2291 16.8202 23.2567 16.8039 23.2832C16.6775 23.4905 16.5031 23.6579 16.3318 23.8295C11.3878 28.7816 6.44269 33.7338 1.4966 38.6849C1.38241 38.7992 1.28453 38.9371 1.12547 38.9973C1.11629 39.0004 1.1061 39.0034 1.0959 39.0065C1.08774 39.0096 1.07959 39.0116 1.07041 39.0137C0.484139 38.7033 0.262885 38.1427 0.0895528 37.5556C0.0538667 37.4351 0.0742588 37.2993 0.00390625 37.1839V12.1915C0.167043 12.1414 0.271042 12.2578 0.391355 12.3273C1.85448 13.1737 3.22993 14.156 4.65023 15.0678C4.74709 15.1301 4.846 15.2608 4.95305 15.2148C5.09478 15.1546 5.02748 14.9851 5.02748 14.8636C5.03156 12.3252 5.02952 9.78583 5.02952 7.24748V7.14027C5.03768 7.09126 5.05603 7.05042 5.09274 7.03C5.10905 7.02081 5.12944 7.0157 5.15391 7.01468C5.27423 7.14946 5.22019 7.31283 5.22019 7.46292C5.22427 10.0493 5.22631 12.6346 5.21815 15.2209C5.21713 15.4813 5.28748 15.6375 5.51689 15.7866C9.21703 18.1892 12.91 20.6029 16.604 23.0157C16.6897 23.0719 16.7682 23.1392 16.8508 23.2015Z" fill="#4C40ED"/>
<path d="M5.15511 7.01459C5.13064 7.04829 5.10617 7.08198 5.0817 7.1167C5.05009 7.28313 4.91754 7.37707 4.80946 7.4853C3.35653 8.94337 1.90258 10.4004 0.444546 11.8524C0.324233 11.9729 0.228391 12.1587 0.00407841 12.1138C0.00509801 8.17758 0.00713721 4.24242 0 0.306233C0 0.0795578 0.0295684 -0.00212694 0.289567 -8.48249e-05C2.14422 0.01421 3.99888 0.00808365 5.85353 0.00808365C5.39879 0.223527 5.21118 0.560477 5.21934 1.0853C5.24585 2.89768 5.23056 4.7121 5.22852 6.52448C5.22954 6.69092 5.26013 6.86348 5.15511 7.01459Z" fill="#FEFEFE"/>
<path d="M39.9366 12.4794C39.9366 20.4579 39.9407 28.4355 39.9325 36.414C39.9325 37.4126 39.6256 38.3061 38.8569 38.9953C38.1788 39.711 37.3162 39.9765 36.3639 39.9918C35.3637 40.0082 34.3624 39.9959 33.3622 39.9959H3.73463C2.73236 39.9959 1.81778 39.7549 1.0959 39.0065C1.08774 39.0096 1.07959 39.0116 1.07041 39.0137C0.484139 38.7033 0.262885 38.1427 0.0895528 37.5556C0.0538667 37.4351 0.0742588 37.2993 0.00390625 37.1839C0.241473 37.5056 0.251669 37.9262 0.48108 38.2581C0.664608 38.5215 0.830803 38.7931 1.0857 38.9963C1.09896 38.9953 1.11221 38.9953 1.12547 38.9973C1.26209 39.0034 1.36813 39.0861 1.47009 39.1637C2.16444 39.6957 2.96483 39.8591 3.81722 39.8591C6.54567 39.856 9.27413 39.8581 12.0026 39.8581C20.033 39.8581 28.0633 39.856 36.0937 39.8601C37.1072 39.8611 38.0218 39.6222 38.7732 38.9044C38.7743 38.9034 38.7743 38.9034 38.7753 38.9024C38.7987 38.8799 38.8212 38.8564 38.8426 38.8329C39.5604 38.0824 39.803 37.1604 39.802 36.1332C39.7959 28.5192 39.801 20.9052 39.7939 13.2911C39.7939 12.992 39.852 12.6938 39.8499 12.3957C39.8489 12.2803 39.8398 12.1659 39.8132 12.0505C40.2853 8.31244 39.1617 5.15532 36.3833 2.60165C35.8745 2.13401 35.2964 1.75928 34.7142 1.39068C34.705 1.34677 34.6959 1.30287 34.6867 1.25998C34.5878 0.796421 34.4583 0.348176 34.0872 0.00816345C34.6724 0.262407 34.7591 0.743326 34.7224 1.2804C34.7377 1.28857 34.7519 1.29776 34.7672 1.30695C38.7202 3.67581 40.4495 7.57217 39.8999 12.072C39.8968 12.0924 39.8938 12.1138 39.8907 12.1343C39.9519 12.2353 39.9366 12.3599 39.9366 12.4794Z" fill="#FEFEFE"/>
<path d="M0.00585938 12.1139C0.154721 12.073 0.232211 11.9444 0.331112 11.8453C1.81157 10.3658 3.28898 8.88424 4.7674 7.40473C4.86732 7.30467 4.97744 7.21277 5.08246 7.11679C5.17014 7.19848 5.15281 7.30671 5.15281 7.40881C5.15281 10.0483 5.15281 12.6887 5.15281 15.3281C5.15281 15.3772 5.14159 15.4251 5.13548 15.4813C4.98458 15.465 4.89179 15.371 4.78677 15.3026C3.48474 14.4541 2.18475 13.6026 0.879658 12.7592C0.588052 12.5713 0.271975 12.4212 0.00687898 12.1915C0.00585937 12.1659 0.00585938 12.1394 0.00585938 12.1139Z" fill="#203066"/>
<path d="M34.7228 1.2804C34.7208 1.31614 34.7177 1.35392 34.7147 1.39068V1.3917C33.486 0.706568 32.1758 0.26547 30.78 0.0888271C30.7066 0.0796376 30.6209 0.0949535 30.5781 0.00816345H34.0876C34.6728 0.262407 34.7595 0.743326 34.7228 1.2804Z" fill="#F0F1F1"/>
<path d="M29.0963 0.00816345C28.9148 0.121501 28.7323 0.13988 28.5508 0.00816345C28.7323 0.00816345 28.9148 0.00816345 29.0963 0.00816345Z" fill="#94CAEF"/>
<path d="M38.8571 38.9953C38.1791 39.711 37.3165 39.9765 36.3642 39.9918C35.3639 40.0082 34.3627 39.9959 33.3625 39.9959H3.73486C2.73259 39.9959 1.81801 39.7549 1.09613 39.0065C1.09307 39.0034 1.089 38.9994 1.08594 38.9963C1.19707 38.8697 1.30209 38.737 1.42037 38.6185C6.37869 33.6511 11.337 28.6836 16.3045 23.7243C16.4564 23.5732 16.5411 23.3445 16.7409 23.2424C16.7746 23.225 16.8102 23.2107 16.851 23.2015C17.6881 23.7417 18.5476 24.2502 19.3531 24.8342C19.8007 25.1599 20.1178 25.1691 20.5736 24.8454C21.4372 24.2308 22.3202 23.6406 23.2419 23.1147C23.2613 23.1341 23.2806 23.1546 23.3 23.174C28.3185 28.3252 33.4542 33.359 38.5145 38.4694C38.6267 38.5828 38.7898 38.6726 38.8428 38.8329C38.8591 38.8799 38.8652 38.933 38.8571 38.9953Z" fill="#203066"/>
<path d="M39.9371 12.4794C39.9371 20.4579 39.9412 28.4355 39.9331 36.414C39.9331 37.4126 39.6262 38.3061 38.8574 38.9953C38.8299 38.9646 38.8034 38.934 38.7758 38.9024C38.6932 38.8054 38.6117 38.7084 38.5219 38.6185C33.5534 33.6419 28.5839 28.6652 23.6154 23.6896C23.4696 23.5436 23.3115 23.4068 23.2585 23.2015C23.2503 23.174 23.2452 23.1454 23.2422 23.1147C24.0395 22.5807 24.8348 22.0457 25.6332 21.5147C26.1083 21.1982 26.5885 20.8888 27.0667 20.5764C27.0677 20.5764 27.0677 20.5764 27.0688 20.5764C33.1456 21.9099 38.7381 18.1687 39.8138 12.0505C39.8474 12.0761 39.8729 12.1036 39.8913 12.1343C39.9524 12.2353 39.9371 12.3599 39.9371 12.4794Z" fill="#4C40ED"/>
<path d="M28.642 8.59631C28.2025 8.88833 27.8396 9.13645 27.4705 9.37333C27.1391 9.58469 26.7863 9.63574 26.4437 9.41111C25.9441 9.08335 25.9044 8.37678 26.406 8.01839C27.2727 7.3986 28.1597 6.80537 29.0641 6.24379C29.6432 5.88437 30.2519 6.20907 30.3682 6.88603C30.3926 7.02592 30.4018 7.16989 30.4018 7.31283C30.4039 9.69497 30.4049 12.0761 30.4008 14.4582C30.4008 14.6389 30.3824 14.8227 30.3417 14.9983C30.2519 15.3904 29.9226 15.6375 29.5209 15.6375C29.1079 15.6365 28.8051 15.3986 28.7001 14.9973C28.6501 14.8064 28.641 14.6134 28.641 14.4174C28.643 12.6468 28.642 10.8774 28.642 9.10684C28.642 8.96491 28.642 8.82298 28.642 8.59631Z" fill="#F0F1F1"/>
</g>
<defs>
<clipPath id="clip0_443_2113">
<rect width="40" height="40" fill="white"/>
</clipPath>
</defs>
</svg>
