<svg width="24" height="25" viewBox="0 0 24 25" fill="none" xmlns="http://www.w3.org/2000/svg">
<g clip-path="url(#clip0_7170_281714)">
<path d="M14 9.53047V12.4305H16.6C16.8 12.4305 16.9 12.6305 16.9 12.8305L16.5 14.7305C16.5 14.8305 16.3 14.9305 16.2 14.9305H14V22.2305H11V15.0305H9.3C9.1 15.0305 9 14.9305 9 14.7305V12.8305C9 12.6305 9.1 12.5305 9.3 12.5305H11V9.23047C11 7.53047 12.3 6.23047 14 6.23047H16.7C16.9 6.23047 17 6.33047 17 6.53047V8.93047C17 9.13047 16.9 9.23047 16.7 9.23047H14.3C14.1 9.23047 14 9.33047 14 9.53047Z" stroke="#FF008A" stroke-miterlimit="10" stroke-linecap="round"/>
<path d="M15 22.2305H9C4 22.2305 2 20.2305 2 15.2305V9.23047C2 4.23047 4 2.23047 9 2.23047H15C20 2.23047 22 4.23047 22 9.23047V15.2305C22 20.2305 20 22.2305 15 22.2305Z" stroke="#FF008A" stroke-linecap="round" stroke-linejoin="round"/>
</g>
<defs>
<clipPath id="clip0_7170_281714">
<rect width="24" height="24" fill="white" transform="translate(0 0.230469)"/>
</clipPath>
</defs>
</svg>
