<svg width="19" height="18" viewBox="0 0 19 18" fill="none" xmlns="http://www.w3.org/2000/svg">
<g clip-path="url(#clip0_8153_264406)">
<path d="M9.5 18.0013C14.4706 18.0013 18.5 13.9718 18.5 9.00127C18.5 4.0307 14.4706 0.00126648 9.5 0.00126648C4.52944 0.00126648 0.5 4.0307 0.5 9.00127C0.5 13.9718 4.52944 18.0013 9.5 18.0013Z" fill="#1977F3"/>
<path d="M13.0033 11.6034L13.402 9.00126H10.9061V7.31289C10.9061 6.6016 11.2542 5.90676 12.373 5.90676H13.5083V3.69189C13.5083 3.69189 12.4781 3.51596 11.4934 3.51596C9.43797 3.51596 8.09386 4.76136 8.09386 7.018V9.00126H5.80811V11.6034H8.09386V17.8924C8.55202 17.9646 9.02158 18.0013 9.49999 18.0013C9.9784 18.0013 10.448 17.9633 10.9061 17.8924V11.6034H13.0033Z" fill="white"/>
</g>
<defs>
<clipPath id="clip0_8153_264406">
<rect width="18" height="18" fill="white" transform="translate(0.5)"/>
</clipPath>
</defs>
</svg>
