<svg width="48" height="30" viewBox="0 0 48 30" fill="none" xmlns="http://www.w3.org/2000/svg">
<path d="M19.025 0.00387248C27.8512 0.002623 36.6787 0.002623 45.5062 0.00512196C45.7237 0.00512196 45.945 0.0113694 46.1575 0.0513527C47.1375 0.233777 47.6662 0.904747 48 1.78063V22.9606C47.5175 24.3162 46.5362 24.791 45.1325 24.7548C42.775 24.6936 40.4138 24.7373 38.055 24.7373H36.9725C37.1012 25.2608 37.2188 25.7357 37.3425 26.2379C37.6487 26.2379 37.9288 26.2342 38.2075 26.2379C39.5263 26.2529 40.4787 27.2 40.5012 28.5132C40.5237 29.8802 40.42 29.9864 39.0675 29.9864C34.5525 29.9864 30.0375 29.9601 25.5225 29.9989C23.855 30.0139 23.965 29.5528 24.0175 28.3558C24.0675 27.1676 25.0375 26.2654 26.2275 26.2392C26.5375 26.2317 26.8487 26.2379 27.1712 26.2379C27.2962 25.7282 27.4113 25.2533 27.5375 24.7373H26.96C24.32 24.7373 21.6787 24.7386 19.0387 24.7373C17.42 24.7373 16.5088 23.8314 16.5088 22.2171C16.5075 15.6573 16.5075 9.09883 16.5088 2.53907C16.5088 0.913493 17.4112 0.00387248 19.025 0.00387248ZM46.4987 2.60904C46.4987 1.71816 46.285 1.50325 45.3988 1.50325C36.6375 1.502 27.875 1.502 19.1138 1.50325C18.23 1.50325 18.0088 1.72441 18.0088 2.60904C18.0075 8.30666 18.0075 14.0055 18.0075 19.7044V20.203H46.4987V2.60904ZM45.1662 23.2379C46.4037 23.2379 46.5663 23.0605 46.475 21.7736H32.6713C32.77 21.9947 32.9625 22.2371 32.9625 22.4808C32.9637 22.7257 32.7738 22.9706 32.6562 23.2379H45.1662ZM29.085 24.7548C28.9625 25.2608 28.8512 25.7257 28.7325 26.2179H35.7837C35.6575 25.7119 35.54 25.2346 35.4213 24.7548H29.085ZM26.4575 27.7373C25.845 27.7386 25.665 27.8773 25.5312 28.4545H38.9738C38.875 27.9247 38.6763 27.7423 38.1613 27.7398C37.0688 27.7323 35.9762 27.7373 34.8837 27.7373C32.075 27.7373 29.2663 27.7361 26.4575 27.7373ZM18.0125 22.457C18.0438 22.9456 18.33 23.2179 18.8288 23.2354C19.1088 23.2467 19.39 23.2379 19.6712 23.2379H31.9175C31.3538 22.6369 31.3525 22.3533 31.8738 21.7623H18.01C18.01 22.0022 17.9975 22.2309 18.0125 22.457Z" fill="#4C40ED"/>
<path d="M0.135007 1.49685C0.496257 0.578481 1.27251 0.0112172 2.25751 0.0074688C5.75501 -0.00127755 9.25251 -0.00502599 12.75 0.00871828C14.035 0.0149657 14.9975 0.994558 14.9975 2.28027C15.0038 10.7555 15.0038 19.232 14.9975 27.7072C14.9975 28.9916 14.0363 29.9737 12.7513 29.9787C9.25376 29.995 5.75626 29.9912 2.25876 29.9812C1.27251 29.9775 0.497508 29.4102 0.136258 28.4918C0.0975084 28.3944 0.0462589 28.3032 8.58307e-06 28.2082V1.78048C0.0450087 1.68552 0.0975065 1.59431 0.135007 1.49685ZM1.50126 27.4123C1.50126 28.2619 1.72876 28.4856 2.58876 28.4869C5.87001 28.4869 9.15126 28.4869 12.4325 28.4856C13.2825 28.4856 13.5013 28.2619 13.5013 27.3961V6.7709H1.50126V27.4123ZM13.4738 5.2203V4.53933H1.52001V5.2203H13.4738ZM1.50126 2.98623H13.4925C13.4925 2.70135 13.5188 2.42396 13.4863 2.15407C13.435 1.71926 13.115 1.50435 12.5588 1.5031C9.54751 1.50185 6.53751 1.50185 3.52626 1.50185C3.19876 1.50185 2.87126 1.50185 2.54376 1.5031C1.73126 1.50559 1.49751 1.74549 1.50126 2.5714V2.98623Z" fill="#4C40ED"/>
<path d="M7.49753 11.249C8.72378 11.2465 9.73753 12.2461 9.75003 13.4681C9.76128 14.7176 8.75253 15.7422 7.50753 15.7434C6.26128 15.7459 5.24503 14.7238 5.25253 13.4793C5.26128 12.2561 6.27253 11.2515 7.49753 11.249ZM7.48253 14.2428C7.89128 14.2528 8.23628 13.9267 8.24753 13.5168C8.25878 13.1095 7.93003 12.7621 7.52253 12.7509C7.11878 12.7397 6.76628 13.0733 6.75503 13.4781C6.74378 13.8829 7.07628 14.2315 7.48253 14.2428Z" fill="#4C40ED"/>
<path d="M3.75504 20.9937C3.75379 21.4486 4.09004 21.7397 4.64129 21.7434C5.59379 21.7497 6.54754 21.7447 7.50004 21.7447C8.45254 21.7447 9.40629 21.7497 10.3588 21.7434C10.9163 21.7409 11.245 21.4573 11.2475 20.9987C11.25 20.5414 10.9163 20.2491 10.3638 20.2478C8.45879 20.2441 6.55255 20.2441 4.6463 20.2478C4.09629 20.2491 3.75629 20.5414 3.75504 20.9937Z" fill="#4C40ED"/>
<path d="M3.75497 23.2615C3.76622 23.7126 4.10121 23.99 4.65871 23.9937C5.61246 23.9975 6.56496 23.995 7.51871 23.995C8.45496 23.995 9.39247 23.9975 10.33 23.9937C10.9175 23.9912 11.2575 23.7026 11.2475 23.2303C11.2375 22.7755 10.905 22.4981 10.3462 22.4968C8.45621 22.4931 6.56496 22.4931 4.67496 22.4968C4.09496 22.4968 3.74497 22.7955 3.75497 23.2615Z" fill="#4C40ED"/>
<path d="M3.755 25.5031C3.76125 25.9691 4.1025 26.2403 4.69875 26.2428C5.63625 26.2465 6.57375 26.244 7.51125 26.244C8.44875 26.244 9.385 26.2465 10.3225 26.2428C10.9163 26.2403 11.2525 25.9604 11.2475 25.4868C11.2425 25.0183 10.9038 24.7459 10.3063 24.7459C8.43125 24.7434 6.5575 24.7421 4.6825 24.7459C4.0975 24.7459 3.75 25.037 3.755 25.5031Z" fill="#4C40ED"/>
</svg>
