<svg width="45" height="45" viewBox="0 0 45 45" fill="none" xmlns="http://www.w3.org/2000/svg">
<g clip-path="url(#clip0_4638_218174)">
<path d="M37.1142 13.2724C38.153 13.2706 39.1936 13.2372 40.2299 13.282C41.0473 13.3181 41.6493 13.0649 42 12.3047V6.32812C41.6493 5.56787 41.0464 5.34727 40.2308 5.3499C32.1703 5.36924 24.1099 5.36133 16.0494 5.36133H15.457V4.92803C15.457 3.8751 15.4228 2.82041 15.4676 1.76836C15.5027 0.951856 15.2505 0.349805 14.4902 0H8.51367C7.7543 0.350684 7.50469 0.951855 7.53545 1.76924C7.58027 2.94873 7.54688 4.13086 7.54688 5.36133H7.04326C5.14219 5.36133 3.24023 5.38506 1.33916 5.35078C0.480469 5.33496 -0.0442383 5.67686 -0.414258 6.4459C-1.24658 8.17822 -2.13428 9.88506 -3 11.6016V12.2168C-2.71436 13.0245 -2.12637 13.2935 -1.2958 13.2812C0.752051 13.2513 2.7999 13.2715 4.91016 13.2715C4.91016 13.6828 4.90664 14.0713 4.91104 14.4598C4.92158 15.3738 5.44717 15.8977 6.36211 15.9073C6.74004 15.9117 7.11797 15.9082 7.52139 15.9082V42.3378H4.93389V39.6387H-3V44.0332C-2.67744 44.3558 -2.35576 44.6774 -2.0332 45H31.4531C31.4531 42.8027 31.4461 40.6055 31.4566 38.4082C31.461 37.3579 32.4243 36.7049 33.3226 37.132C33.871 37.3939 34.0925 37.8571 34.0916 38.4521C34.0872 40.6354 34.0898 42.8177 34.0898 45H41.0332C41.3558 44.6774 41.6774 44.3558 42 44.0332V43.3301C41.4823 42.1066 40.3784 42.3949 39.3879 42.3589V36.2883C39.5268 36.4122 39.6287 36.5036 39.7307 36.595C40.4733 37.2603 41.4313 37.089 41.8884 36.2092C41.9209 36.1485 41.9631 36.0932 42 36.0352V35.332C41.7188 34.9849 41.4647 34.6105 41.151 34.2949C38.7454 31.8744 36.3293 29.4645 33.9149 27.0536C33.1143 26.2538 32.4349 26.2477 31.6482 27.0334C29.1398 29.5383 26.6341 32.044 24.1283 34.5516C23.9947 34.6852 23.8585 34.824 23.7557 34.9813C23.4103 35.5078 23.4981 36.1925 23.9508 36.6284C24.4061 37.067 25.0854 37.1268 25.6031 36.7603C25.7807 36.6346 25.9362 36.4764 26.1419 36.2988V42.3343H15.4808V15.9082C15.711 15.9082 15.9536 15.8915 16.1936 15.9108C17.5453 16.0181 18.2098 15.4494 18.0964 13.9852C18.0788 13.7681 18.0938 13.5492 18.0938 13.3014H34.0644V15.9082H33.6609C32.5474 15.9082 31.4347 15.9056 30.322 15.9091C29.3446 15.9126 28.8199 16.4268 28.8173 17.3909C28.8129 19.0459 28.8129 20.7009 28.8182 22.3559C28.8208 23.2937 29.3508 23.8157 30.2991 23.8175C33.6091 23.8201 36.919 23.8008 40.2281 23.8307C41.0455 23.8386 41.6493 23.6127 42 22.8516V16.875C41.6511 16.1121 41.0464 15.866 40.2308 15.8968C39.0803 15.9407 37.9263 15.9082 36.7503 15.9082V13.297C36.8646 13.2891 36.9894 13.2732 37.1142 13.2724ZM4.87852 10.6242H0.459375C0.718652 10.1065 1.02363 9.65127 1.18096 9.14941C1.48154 8.19053 2.05107 7.82754 3.05215 7.98135C3.63662 8.07187 4.24746 7.99805 4.87852 7.99805V10.6242ZM10.2064 2.671H12.7895V5.34111H10.2064V2.671ZM10.1854 15.917H12.7869V21.8672C12.6894 21.789 12.6006 21.7292 12.5259 21.6554C11.821 20.9531 11.1161 20.2509 10.4174 19.5416C10.3207 19.444 10.1968 19.3096 10.195 19.1909C10.1783 18.1116 10.1854 17.0323 10.1854 15.917ZM10.2214 33.844C10.8138 34.4347 11.4738 35.0938 12.1453 35.7627C11.5494 36.3595 10.899 37.0099 10.2214 37.6893V33.844ZM10.2161 27.08V23.2444C10.8384 23.8702 11.4976 24.532 12.1304 25.1692C11.5283 25.7704 10.8709 26.4261 10.2161 27.08ZM10.8454 30.411C11.4773 29.7809 12.1348 29.1252 12.786 28.4766V32.3499C12.1339 31.6978 11.4765 31.0412 10.8454 30.411ZM12.7904 42.3404H10.2258C10.0869 41.8069 10.2223 41.4149 10.6266 41.0458C11.3561 40.377 12.0346 39.6527 12.7904 38.8951V42.3404ZM32.7855 31.732C33.5036 31.7399 34.0942 32.3429 34.0863 33.0601C34.0784 33.7781 33.4746 34.3696 32.7574 34.3617C32.0402 34.3538 31.4487 33.75 31.4566 33.0328C31.4646 32.3139 32.0675 31.7241 32.7855 31.732ZM23.4867 8.82334C22.9603 9.35244 22.4347 9.88154 21.9003 10.4036C21.8019 10.4994 21.6674 10.6216 21.5478 10.6233C20.4114 10.64 19.2732 10.633 18.1148 10.633V8.03057H24.2619C23.9824 8.31709 23.7363 8.57197 23.4867 8.82334ZM25.5618 10.6102C26.2104 9.9624 26.8661 9.30762 27.484 8.69063C28.1001 9.30674 28.7619 9.96943 29.4026 10.6102H25.5618ZM32.6897 9.95713C32.0956 9.36387 31.4452 8.71436 30.7658 8.03584H34.611L32.6897 9.95713ZM35.9892 10.6102C36.8628 9.73389 37.6679 8.89277 38.5204 8.10439C38.683 7.95322 39.0354 8.00684 39.3457 7.9585V10.6102H35.9892Z" fill="white"/>
<path d="M4.87939 31.7285H-3V37.002H4.87939V31.7285Z" fill="white"/>
<path d="M4.88818 23.8174V29.0908H-3V24.7842C-2.64932 24.0231 -2.04551 23.7875 -1.22812 23.8051C0.645703 23.8447 2.52129 23.8174 4.396 23.8174H4.88818Z" fill="white"/>
</g>
<defs>
<clipPath id="clip0_4638_218174">
<rect width="45" height="45" fill="white"/>
</clipPath>
</defs>
</svg>
