<svg width="48" height="48" viewBox="0 0 48 48" fill="none" xmlns="http://www.w3.org/2000/svg">
<path d="M48.0001 22.6846V25.2371C47.8779 26.2316 47.7804 27.2308 47.6277 28.2217C47.2648 30.5872 46.5295 32.8425 45.4443 34.9652C44.8664 36.0947 44.1675 37.1637 43.4945 38.2399C43.1457 38.7975 42.5843 38.9301 42.1332 38.6341C41.654 38.318 41.5601 37.7557 41.9512 37.1838C42.9906 35.6625 43.9056 34.0737 44.5798 32.3523C45.6428 29.6436 46.1807 26.8366 46.149 23.9183C46.1079 20.2079 45.207 16.7261 43.437 13.4798C41.6822 10.2632 39.2885 7.62425 36.2441 5.5986C33.6401 3.86656 30.7895 2.73712 27.7157 2.24462C22.1002 1.34604 16.843 2.34525 12.0098 5.41983C11.7326 5.59623 11.4636 5.78803 11.1782 5.94904C10.6649 6.23909 10.134 6.1278 9.85799 5.69331C9.5808 5.25764 9.68534 4.66924 10.1716 4.37327C11.3602 3.6499 12.5371 2.89339 13.7833 2.28605C16.2921 1.0619 18.9654 0.362217 21.7385 0.107679C25.1235 -0.202503 28.4475 0.150299 31.6704 1.26908C37.8685 3.42141 42.4821 7.43483 45.4595 13.3259C46.8796 16.1341 47.6853 19.1258 47.9214 22.2714C47.9319 22.4111 47.973 22.5473 48.0001 22.6846Z" fill="#4C40ED"/>
<path d="M38.2349 42.4676C37.9765 42.1018 37.5301 41.9727 37.1144 42.1645C36.9311 42.2486 36.7596 42.3622 36.5929 42.4782C34.0852 44.2375 31.3274 45.4001 28.337 46.0169C26.3415 46.4277 24.9402 45.2912 24.9379 43.2419C24.9344 41.1937 24.9367 39.1456 24.9379 37.0986C24.9379 36.9471 24.9531 36.7955 24.9602 36.6558C26.527 36.3267 26.9933 35.7383 26.9933 34.1318C26.9933 33.8642 26.9616 33.5907 27.0051 33.3303C27.0309 33.1811 27.1472 32.9881 27.2752 32.9265C30.672 31.2726 32.4221 28.5698 32.4315 24.7505C32.435 23.3808 32.4326 22.011 32.4326 20.6365C34.1075 19.9984 35.1165 18.8322 35.0295 17.0007C34.9403 15.0911 33.7939 13.9936 31.964 13.5603V13.0323C31.964 11.3003 31.9663 9.56703 31.9628 7.8338C31.9605 6.74935 31.5494 5.86498 30.6168 5.29197C28.7164 4.12346 26.3826 5.45298 26.3438 7.73554C26.3133 9.49955 26.3368 11.2647 26.3368 13.0288V13.5165H21.648V12.9767C21.648 11.26 21.6515 9.54335 21.6468 7.8267C21.6433 6.74106 21.2287 5.85906 20.2937 5.28724C18.3898 4.12465 16.0642 5.4589 16.0266 7.74383C15.9984 9.52323 16.0208 11.3038 16.0208 13.0844V13.5745C13.9406 14.0007 13.0386 15.5149 12.9576 16.816C12.8377 18.7411 13.8091 19.9593 15.5556 20.6424C15.5556 22.1886 15.511 23.7336 15.565 25.275C15.6813 28.5343 17.2106 30.9826 20.0165 32.543C20.787 32.9703 21.0572 33.3717 21.0126 34.2312C20.935 35.7324 21.5247 36.3776 23.061 36.6523V37.1815C23.061 39.3089 23.0375 41.4352 23.0692 43.5615C23.1091 46.3247 25.4359 48.3587 28.142 47.9467C31.3661 47.4553 34.3248 46.2253 37.0568 44.44C37.4362 44.1925 37.8144 43.9333 38.1468 43.629C38.4874 43.3176 38.4933 42.8334 38.2349 42.4676ZM28.2195 7.66332C28.2783 7.13175 28.6436 6.77421 29.1333 6.76474C29.6419 6.75527 30.0695 7.12228 30.0753 7.67753C30.0965 9.60965 30.0835 11.543 30.0835 13.5118H28.236C28.2278 13.3673 28.2137 13.2288 28.2137 13.0915C28.2113 11.3772 28.2125 9.66174 28.2125 7.94627C28.2125 7.85275 28.209 7.75685 28.2195 7.66332ZM17.9035 7.66214C17.9623 7.13057 18.3287 6.77421 18.8185 6.76474C19.3271 6.75646 19.7534 7.12346 19.7593 7.67753C19.7805 9.61084 19.7675 11.5441 19.7675 13.5248H17.9212C17.9118 13.3662 17.8977 13.2288 17.8977 13.0903C17.8965 11.376 17.8965 9.66056 17.8965 7.94509C17.8965 7.85156 17.893 7.75567 17.9035 7.66214ZM14.8439 17.4968C14.643 16.6124 15.2385 15.6748 16.1241 15.4995C16.3367 15.4569 16.5575 15.4415 16.776 15.4415C21.5869 15.438 26.3978 15.438 31.2088 15.4404C32.1824 15.4404 32.8167 15.8299 33.0775 16.5674C33.458 17.6483 32.7368 18.7801 31.5834 18.8204C30.2574 18.8654 28.929 18.8381 27.6017 18.8405C26.9992 18.8417 26.3978 18.8417 25.7965 18.8417H21.7431C20.0565 18.8429 18.3698 18.8429 16.682 18.8393C15.6884 18.8358 15.0377 18.3504 14.8439 17.4968ZM17.5665 26.4139C17.5136 26.1688 17.4584 25.9179 17.456 25.6681C17.4466 24.0473 17.4513 22.4254 17.4513 20.7572H30.5569C30.5569 21.9885 30.5757 23.1973 30.5498 24.4048C30.5346 25.1093 30.5287 25.8314 30.3772 26.5134C29.6912 29.6033 27.045 31.7154 23.963 31.6917C20.8446 31.6692 18.2312 29.5145 17.5665 26.4139ZM22.8965 34.6775V33.5682C22.9682 33.5564 23.0128 33.5422 23.0574 33.5422C23.7257 33.541 24.3929 33.5422 25.0894 33.5422V34.6775H22.8965Z" fill="#4C40ED"/>
<path d="M10.3278 37.6349C9.04402 36.4664 7.55353 36.303 5.94676 36.9648C5.89508 36.9293 5.86337 36.9163 5.84457 36.8938C5.79642 36.8311 5.75413 36.7648 5.71067 36.6996C3.36511 33.1787 2.09426 29.3038 1.92865 25.0631C1.74307 20.2955 2.92349 15.9056 5.50278 11.9017C5.68953 11.6128 5.8892 11.3251 6.03132 11.0138C6.21808 10.603 6.05364 10.1294 5.69423 9.89024C5.32308 9.64281 4.87088 9.68543 4.54083 10.0134C4.41985 10.1341 4.32237 10.2797 4.22605 10.4218C1.93687 13.7983 0.55796 17.5098 0.135125 21.586C-0.240728 25.2158 0.164489 28.745 1.35313 32.1866C2.0555 34.2206 3.02802 36.1148 4.24367 37.8824C4.38227 38.0836 4.46918 38.2399 4.31297 38.5075C3.47317 39.94 3.48257 41.4033 4.38697 42.7825C5.26905 44.1274 6.56574 44.6969 8.17251 44.5359C9.59371 44.3926 11.0032 43.2679 11.4189 41.8958C11.9158 40.2549 11.5975 38.7916 10.3278 37.6349ZM7.65337 42.6985C6.48822 42.6771 5.57208 41.7052 5.59792 40.5213C5.62258 39.3705 6.58336 38.4471 7.72854 38.4731C8.87489 38.4992 9.77929 39.4546 9.76167 40.6207C9.74288 41.7774 8.7868 42.721 7.65337 42.6985Z" fill="#4C40ED"/>
<path d="M8.50368 7.79951C8.51073 8.29556 8.03386 8.77504 7.54056 8.76794C7.04725 8.76083 6.63029 8.32279 6.63381 7.8149C6.63733 7.30582 7.05077 6.89027 7.55818 6.88554C8.06323 6.8808 8.49663 7.2999 8.50368 7.79951Z" fill="#4C40ED"/>
<path d="M41.2359 40.6137C41.2147 41.1192 40.7919 41.5193 40.2857 41.511C39.7806 41.5039 39.3707 41.0825 39.3754 40.5781C39.3801 40.0821 39.81 39.65 40.2998 39.6476C40.8095 39.6452 41.2558 40.1058 41.2359 40.6137Z" fill="#4C40ED"/>
<path d="M26.1395 25.5686C25.4959 26.807 24.7994 28.0193 24.0911 29.2221C23.8503 29.6294 23.3136 29.7123 22.9248 29.4932C22.5161 29.2636 22.3211 28.816 22.4961 28.3697C22.6382 28.0063 22.8473 27.67 23.034 27.3255C23.2126 26.9952 23.4005 26.6684 23.5825 26.3381C23.5966 26.3133 23.5943 26.2789 23.6119 26.1653C23.3335 26.1653 23.0646 26.1712 22.7956 26.1641C22.3763 26.1546 22.0333 26.0031 21.843 25.5994C21.6598 25.2099 21.7702 24.8618 22.018 24.5457C22.7803 23.569 23.5403 22.5887 24.3178 21.6227C24.7312 21.1077 25.2797 21.0307 25.7108 21.3871C26.143 21.7446 26.1712 22.2809 25.766 22.816C25.4183 23.2754 25.0554 23.7241 24.6161 24.2829C24.9485 24.2829 25.1505 24.2687 25.349 24.2853C26.0174 24.3409 26.4484 24.9767 26.1395 25.5686Z" fill="#4C40ED"/>
</svg>
