<svg width="45" height="45" viewBox="0 0 45 45" fill="none" xmlns="http://www.w3.org/2000/svg">
<g clip-path="url(#clip0_4638_218085)">
<path d="M31.3469 38.5808C31.3469 38.7883 31.3574 38.9607 31.3445 39.1307C31.3187 39.466 31.3176 39.8084 31.2391 40.132C30.8688 41.6668 29.6093 42.5907 27.8822 42.5942C24.2958 42.6013 20.7093 42.5977 17.1229 42.5954C16.9178 42.5942 16.7128 42.5778 16.5101 42.5555C15.0291 42.3949 13.8575 41.2248 13.7005 39.7416C13.6606 39.3687 13.6571 38.99 13.6372 38.6078H0.0119434C0.0119434 39.4613 -0.0196915 40.2821 0.0189733 41.0993C0.092788 42.6775 0.843823 43.8511 2.25333 44.571C2.62358 44.7598 3.04069 44.8595 3.43554 45.0002H41.5731C41.709 44.958 41.8449 44.9158 41.9809 44.8759C43.5274 44.4198 44.4999 43.4115 44.9053 41.8509C44.9299 41.7559 44.9686 41.6644 45.0002 41.5706V38.5808H31.3469ZM2.39979 41.77C1.97213 41.7618 1.62298 41.4147 1.61478 40.9926C1.60657 40.5635 1.98385 40.1777 2.41502 40.1754C2.84854 40.173 3.22112 40.5494 3.21644 40.9868C3.21292 41.4335 2.85205 41.7794 2.39979 41.77ZM5.62772 41.77C5.17428 41.7676 4.82981 41.4171 4.83802 40.9633C4.84622 40.5365 5.19069 40.1871 5.61483 40.1754C6.05186 40.1648 6.4221 40.5283 6.42679 40.9715C6.43148 41.4241 6.08232 41.7723 5.62772 41.77ZM11.2552 41.7688C10.8463 41.7852 10.4362 41.7723 10.0261 41.7723C9.63128 41.7723 9.23526 41.7852 8.84158 41.7688C8.37409 41.7489 8.05774 41.4288 8.04837 40.9973C8.03782 40.5717 8.35066 40.1965 8.80409 40.1824C9.63714 40.1578 10.4725 40.1566 11.3056 40.1848C11.7625 40.2 12.0625 40.5705 12.0508 41.0032C12.039 41.4393 11.7297 41.75 11.2552 41.7688Z" fill="white"/>
<path d="M43.4007 36.4047V36.9276H1.62865C1.62162 36.7728 1.60873 36.6181 1.60873 36.4633C1.60756 27.3331 1.60756 18.2042 1.60873 9.07403C1.60873 7.39034 2.60113 6.40311 4.28949 6.40311C10.6305 6.40194 16.9716 6.40311 23.3114 6.40311H23.7379C23.7555 6.44297 23.7742 6.48284 23.7918 6.52153C23.4133 6.88617 23.0302 7.2473 22.6553 7.61663C22.1339 8.13253 21.9956 8.74222 22.2534 9.42812C22.3881 9.78456 22.4092 10.1199 22.128 10.4083C21.8457 10.6968 21.5106 10.6897 21.1532 10.5537C20.4502 10.2864 19.8339 10.4294 19.3067 10.9676C19.0923 11.188 18.865 11.3967 18.6587 11.6242C17.7847 12.5891 17.7917 13.9844 18.688 14.9283C19.0606 15.3187 19.4695 15.674 19.8796 16.062C19.7261 16.2239 19.6301 16.3294 19.5293 16.4314C16.7853 19.1773 14.0436 21.9256 11.2937 24.6646C11.1027 24.8545 10.8613 25.014 10.6153 25.1254C9.7506 25.5181 8.87537 25.8898 7.99897 26.2568C7.28308 26.557 6.73357 27.0377 6.35747 27.7142C5.66736 28.9547 4.97491 30.1952 4.29418 31.4404C3.85597 32.24 3.95439 32.9071 4.59178 33.5555C5.0124 33.9847 5.4342 34.4114 5.86537 34.83C6.4512 35.3963 7.13311 35.5194 7.83728 35.1384C9.16243 34.422 10.477 33.6857 11.787 32.9412C12.4044 32.5894 12.8297 32.0559 13.1074 31.4017C13.4917 30.5 13.8725 29.5972 14.2662 28.6991C14.347 28.5174 14.4583 28.3333 14.5978 28.1926C17.418 25.3575 20.2452 22.5283 23.0712 19.6991C23.1228 19.6475 23.179 19.603 23.2974 19.4974C23.6301 19.848 23.9523 20.2033 24.2909 20.5409C25.3876 21.6349 26.8053 21.6337 27.9114 20.5456C28.0894 20.3709 28.2664 20.1962 28.4398 20.0168C28.9354 19.5021 29.0643 18.903 28.8135 18.2358C28.68 17.8794 28.6554 17.5452 28.9366 17.2556C29.2166 16.966 29.5505 16.9696 29.909 17.1056C30.6308 17.3811 31.2471 17.2134 31.7896 16.6682C33.6595 14.7876 35.5365 12.9151 37.4112 11.0403C38.2091 10.243 38.9941 9.43281 39.8072 8.65076C40.4446 8.03755 41.0023 7.3962 40.9812 6.45235C42.2115 6.35738 43.2847 7.37862 43.3913 8.70939C43.4031 8.85478 43.3995 9.00134 43.3995 9.1479C43.4007 18.2335 43.4007 27.3191 43.4007 36.4047Z" fill="white"/>
<path d="M39.2612 6.00815C38.1118 3.23405 36.161 1.26662 33.3888 0.107031C32.9014 -0.0969817 32.5382 -0.00904534 32.1691 0.362633C29.4638 3.08397 26.7478 5.79593 24.0296 8.5032C23.8351 8.69783 23.7707 8.84674 23.8597 9.13986C24.401 10.9209 22.8298 12.6327 21.0313 12.1789C20.5134 12.0488 20.2498 12.1731 19.9897 12.5471C19.9733 12.5706 19.951 12.5905 19.9311 12.6128C19.5081 13.0888 19.5046 13.4722 19.9452 13.9154C21.7753 15.7515 23.6078 17.5853 25.4426 19.4167C25.8058 19.779 26.1421 19.8388 26.5053 19.6301C27.0267 19.3299 27.2704 18.8844 27.1673 18.4377C27.1216 18.2395 27.0993 18.0355 27.0841 17.9441C27.0876 16.1842 28.6858 15.014 30.2488 15.5287C30.5019 15.612 30.6589 15.5967 30.8545 15.3974C33.5704 12.6444 36.2922 9.89963 39.0198 7.15836C39.3608 6.81599 39.4498 6.46308 39.2612 6.00815ZM27.3255 10.9009C26.9084 11.316 26.4315 11.3301 26.0882 10.9689C25.7531 10.6172 25.7836 10.1775 26.1925 9.76714C28.2171 7.7364 30.2464 5.71034 32.2711 3.67842C32.5487 3.39937 32.885 3.26571 33.2201 3.45213C33.458 3.58462 33.6114 3.86954 33.8247 4.1099C33.6536 4.40067 33.5681 4.64572 33.4041 4.81104C31.3853 6.84882 29.3571 8.87605 27.3255 10.9009ZM35.8317 6.90745C35.7556 7.01414 35.6583 7.10443 35.5646 7.19822C33.5997 9.16448 31.6372 11.1343 29.6629 13.0935C29.4661 13.2881 29.2036 13.4159 29.0759 13.5027C28.312 13.4792 27.9394 12.8074 28.2534 12.2856C28.3284 12.1625 28.4362 12.0582 28.5393 11.955C30.4936 9.99695 32.4492 8.04124 34.4047 6.08554C34.5078 5.98236 34.6109 5.87566 34.7292 5.79124C35.0456 5.5673 35.4662 5.6013 35.7368 5.86276C36.0122 6.12775 36.0579 6.58736 35.8317 6.90745Z" fill="white"/>
<path d="M22.1901 18.4821C22.0413 18.5723 21.8808 18.6321 21.7695 18.7435C19.0008 21.5035 16.2334 24.2648 13.4811 27.04C13.2105 27.3132 12.989 27.6579 12.8262 28.0073C12.4184 28.882 12.0529 29.7754 11.6803 30.6654C11.4917 31.1156 11.1929 31.4497 10.7617 31.6854C9.53264 32.3596 8.3106 33.0478 7.11316 33.715C6.6363 33.2354 6.17349 32.77 5.66968 32.2646C6.15475 31.3911 6.73589 30.4907 7.1694 29.5245C7.68494 28.3767 8.47815 27.6333 9.6791 27.2745C11.262 26.8032 12.4923 25.8265 13.6299 24.6364C15.9053 22.2551 18.2721 19.9606 20.599 17.6285C20.7115 17.5159 20.804 17.3799 20.9282 17.2263C21.3582 17.6519 21.7167 18.0095 22.1901 18.4821Z" fill="white"/>
<path d="M29.704 39.6289C29.6208 40.3676 28.9647 40.9608 28.1937 40.9632C24.401 40.9737 20.6084 40.9749 16.8169 40.9632C15.9709 40.9608 15.3277 40.2984 15.2879 39.4565C15.2738 39.181 15.2855 38.9055 15.2855 38.6018H29.7098C29.7098 38.9618 29.7403 39.2994 29.704 39.6289Z" fill="white"/>
</g>
<defs>
<clipPath id="clip0_4638_218085">
<rect width="45" height="45" fill="white"/>
</clipPath>
</defs>
</svg>
