<svg width="48" height="48" viewBox="0 0 48 48" fill="none" xmlns="http://www.w3.org/2000/svg">
<path d="M47.4269 0H36.8358C36.5176 0.238352 36.2099 0.492249 35.8782 0.708839C35.7487 0.79278 35.5653 0.825942 35.4067 0.826979C34.016 0.835269 32.6263 0.83216 31.2366 0.83216H3.59186C2.18351 0.83216 1.77417 1.13891 1.3897 2.48301C0.986571 3.8924 0.584481 5.30178 0.17721 6.71013C0.135757 6.85315 0.0601062 6.98683 0 7.12466V7.68738C0.20519 8.08014 0.527484 8.27497 0.972063 8.30398C1.36068 8.32886 1.74723 8.39104 2.13481 8.43767C5.40334 8.82525 8.67188 9.21387 11.9414 9.60249C15.5043 10.0263 19.0671 10.4502 22.63 10.8751C26.1928 11.3 29.7567 11.7176 33.3185 12.157C34.6626 12.3228 36.0098 12.6265 37.2244 11.7072C37.2337 11.7 37.2534 11.7072 37.3146 11.7072C37.5042 11.956 37.7146 12.2233 37.9167 12.4979C38.2742 12.984 38.7457 13.2358 39.3551 13.2348C41.9158 13.2327 44.4755 13.2379 47.0362 13.2327C47.6829 13.2306 47.9824 12.9259 47.9876 12.2834C47.9948 11.3932 47.9865 10.503 47.9907 9.61285C47.9927 9.12267 47.7958 8.75064 47.402 8.45321C47.2798 8.36098 47.1699 8.16823 47.1668 8.01796C47.145 7.08113 47.1471 6.14431 47.1647 5.20748C47.1678 5.06861 47.259 4.87793 47.3699 4.80228C47.8166 4.50175 47.9969 4.0924 47.9917 3.56907C47.9834 2.7566 47.9648 1.94309 47.9979 1.13269C48.0197 0.625934 47.8559 0.258042 47.4269 0ZM34.8854 10.6813C34.132 10.5569 33.3672 10.502 32.6107 10.3911C32.4843 10.3725 32.2957 10.2367 32.275 10.1289C32.134 9.39937 31.9423 9.12889 31.4801 9.10402C31.0044 9.07915 30.7236 9.38175 30.5588 10.1486C29.2116 9.988 27.8582 9.82737 26.5193 9.66881C26.3835 8.59519 26.1939 8.29362 25.6726 8.276C25.1617 8.25839 24.9057 8.58586 24.7772 9.46362C23.4394 9.30403 22.0984 9.1434 20.691 8.97552C20.691 8.76411 20.6993 8.56721 20.69 8.37031C20.6641 7.80034 20.3283 7.44488 19.8371 7.45628C19.3615 7.46768 19.0537 7.81381 19.0288 8.36306C19.0236 8.4843 19.0184 8.60659 19.0112 8.77447C17.6381 8.61177 16.2971 8.45218 14.896 8.28637C14.896 7.98066 14.9063 7.7309 14.8939 7.48322C14.867 6.97232 14.5436 6.64174 14.0794 6.63552C13.611 6.62827 13.2783 6.94641 13.2368 7.45628C13.2213 7.63971 13.2337 7.82624 13.2337 8.08947C11.5601 7.88946 9.92996 7.69567 8.26253 7.4967C8.26253 7.1744 8.27393 6.8946 8.26046 6.61687C8.23455 6.12876 7.92055 5.81476 7.46768 5.8044C6.99201 5.793 6.6635 6.10907 6.63137 6.62101C6.6179 6.83346 6.6293 7.04901 6.6293 7.30291C5.01887 7.11119 3.47373 6.92672 1.89231 6.73915C2.283 5.36811 2.65815 4.03333 3.05091 2.70478C3.07993 2.60944 3.23123 2.52446 3.34315 2.48819C3.45611 2.45088 3.59083 2.47783 3.71519 2.47783H35.559C35.5684 2.69649 35.5818 2.8623 35.5829 3.02915C35.5839 4.70072 35.5839 6.3723 35.5839 8.04387C35.5839 9.22631 35.5839 9.22631 36.2275 10.3041C35.8233 10.5849 35.4129 10.7694 34.8854 10.6813ZM46.3253 11.5932H45.832C43.804 11.5932 41.7749 11.5881 39.7468 11.5995C39.438 11.6015 39.2328 11.5197 39.0462 11.2575C38.5229 10.5196 37.9633 9.80768 37.4265 9.08018C37.3384 8.95997 37.2358 8.80763 37.2348 8.67084C37.2234 6.36297 37.2265 4.0551 37.2265 1.68712H46.3232C46.3232 2.20424 46.3346 2.71307 46.3139 3.22086C46.3098 3.31517 46.1958 3.42916 46.1035 3.48927C45.7035 3.75353 45.5128 4.12453 45.5118 4.59398C45.5077 5.93601 45.5087 7.27803 45.5097 8.62006C45.5108 9.10713 45.7025 9.48849 46.1201 9.76312C46.2175 9.82633 46.3118 9.97245 46.317 10.0854C46.3377 10.5663 46.3253 11.0481 46.3253 11.5932Z" fill="#4C40ED"/>
<path d="M45.5035 36.5311C45.488 35.413 44.832 34.7725 43.7097 34.7642C42.8039 34.757 41.8992 34.7632 40.8588 34.7632C41.0339 34.6119 41.1096 34.5414 41.1904 34.4772C44.6019 31.7641 45.688 27.1307 43.7055 23.2591C42.034 19.9926 39.2722 18.2464 35.6036 18.2174C27.966 18.1552 20.3273 18.1967 12.6887 18.2029C12.1446 18.2029 11.5881 18.2101 11.0554 18.3107C7.21691 19.0371 4.60954 21.2414 3.6323 25.0343C2.66542 28.7816 3.83645 31.9568 6.79617 34.4595C6.88322 34.5331 6.96509 34.614 7.12779 34.7632C6.12153 34.7632 5.22097 34.759 4.32041 34.7642C3.14109 34.7704 2.49339 35.4078 2.48199 36.583C2.47266 37.5042 2.47888 38.4266 2.47992 39.3478C2.48095 40.7821 3.06751 41.3707 4.49451 41.3728C4.92251 41.3738 5.35051 41.3728 5.77332 41.3728V46.3347C5.52046 46.3347 5.2904 46.3264 5.06034 46.3367C4.49555 46.3626 4.12455 46.7077 4.13595 47.1865C4.14735 47.6674 4.52146 47.9948 5.09247 47.9959C7.21691 48 9.34135 48.0011 11.4658 47.9959C12.0472 47.9938 12.3954 47.6746 12.3964 47.172C12.3964 46.6746 12.0503 46.3595 11.4689 46.3357C11.243 46.3274 11.0171 46.3347 10.8005 46.3347V41.408H37.1954V46.3378C36.9187 46.3378 36.67 46.3222 36.4234 46.3409C35.9073 46.3803 35.5902 46.7077 35.5922 47.1741C35.5943 47.6611 35.9332 47.9928 36.4783 47.9948C38.6338 48.0021 40.7893 48.0011 42.9449 47.9948C43.4775 47.9928 43.8434 47.6487 43.8527 47.1834C43.862 46.7202 43.5055 46.372 42.9718 46.3388C42.7283 46.3243 42.4827 46.3367 42.1904 46.3367V41.3728C42.7407 41.3728 43.2371 41.38 43.7325 41.3707C44.832 41.351 45.4849 40.7168 45.5035 39.6245C45.5201 38.5944 45.518 37.5623 45.5035 36.5311ZM18.1832 19.8682C24.0715 19.8672 29.9599 19.862 35.8482 19.8693C39.2432 19.8734 42.4951 22.7409 42.921 26.0882C42.9345 26.1939 42.9221 26.3017 42.9221 26.4768H42.3241C38.0131 26.4768 33.702 26.4768 29.3909 26.4789C29.1888 26.4789 28.9816 26.4768 28.7857 26.5172C28.3598 26.6053 28.1494 26.8996 28.1349 27.3183C28.1204 27.7152 28.4437 28.0676 28.8479 28.1194C29.0179 28.1411 29.1909 28.1308 29.3629 28.1308H42.9407C42.9065 29.0624 42.635 29.8894 42.2257 30.6563C40.809 33.3103 38.5706 34.7248 35.5684 34.7497C29.821 34.7953 24.0726 34.7621 18.3252 34.7621H18.0847C18.0516 34.8036 18.0194 34.844 17.9863 34.8855C17.9293 34.844 17.8733 34.8036 17.8163 34.7621H18.0847C18.4993 34.2419 18.9034 33.7144 19.3428 33.217C19.4382 33.1092 19.6838 33.104 19.8599 33.104C23.5927 33.0978 27.3266 33.0999 31.0594 33.0989C31.8874 33.0989 32.2636 32.8346 32.2543 32.2594C32.246 31.6998 31.8802 31.4459 31.076 31.4459C27.7639 31.4449 24.4529 31.4459 21.1419 31.4459H20.5253C21.8289 28.6614 21.8227 25.9327 20.5232 23.1668H31.0252C31.1972 23.1668 31.3703 23.1741 31.5402 23.1534C31.9599 23.1026 32.247 22.7782 32.2553 22.3626C32.2646 21.9409 31.9973 21.6092 31.5765 21.545C31.392 21.517 31.2024 21.5212 31.0159 21.5212C27.3142 21.5201 23.6124 21.516 19.9107 21.5274C19.5687 21.5284 19.3366 21.432 19.1024 21.1781C18.6941 20.7356 18.2319 20.3429 17.749 19.889C17.92 19.8807 18.0516 19.8682 18.1832 19.8682ZM4.96707 27.2737C4.97433 23.1689 8.31851 19.8568 12.4441 19.8672C16.5489 19.8776 19.8765 23.2311 19.861 27.3411C19.8465 31.4366 16.4702 34.786 12.3788 34.7621C8.27291 34.7393 4.95982 31.391 4.96707 27.2737ZM9.06984 46.2984H7.47392V41.3977H9.06984V46.2984ZM40.5054 46.3088H38.9157V41.4008H40.5054V46.3088ZM43.8309 39.7043H4.14838V36.4389H43.8309V39.7043Z" fill="#4C40ED"/>
<path d="M17.8163 34.7621C17.8733 34.8035 17.9292 34.844 17.9862 34.8854C18.0194 34.844 18.0515 34.8035 18.0847 34.7621H17.8163Z" fill="white"/>
<path d="M43.8475 5.67895C43.7832 4.38977 42.7967 3.40838 41.5044 3.31097C40.3085 3.22081 39.1706 4.09235 38.9416 5.31831C38.8649 5.72869 38.8939 6.15772 38.8742 6.57743C38.8804 6.57743 38.8866 6.57847 38.8929 6.57847C38.8929 6.87485 38.8877 7.17124 38.8939 7.46762C38.9219 8.83349 39.9862 9.90918 41.3282 9.93094C42.6661 9.95271 43.7822 8.91225 43.8485 7.55053C43.8786 6.92771 43.8786 6.30177 43.8475 5.67895ZM42.179 7.52359C42.1459 7.95055 41.8277 8.24175 41.4132 8.26144C40.9696 8.28113 40.5997 8.00962 40.5738 7.56297C40.5375 6.94118 40.5385 6.31421 40.5707 5.69242C40.5935 5.24784 40.9665 4.95664 41.3966 4.97011C41.8194 4.98462 42.1531 5.30173 42.1821 5.74527C42.2008 6.04062 42.1852 6.33804 42.1852 6.63443C42.1842 6.63443 42.1842 6.63443 42.1832 6.63443C42.1832 6.93081 42.2018 7.22824 42.179 7.52359Z" fill="#4C40ED"/>
<path d="M26.4633 27.3307C26.453 27.7649 26.1493 28.0924 25.6996 28.1225C25.4042 28.1422 25.1068 28.1266 24.8104 28.1266V28.1277C24.5296 28.1277 24.2477 28.1411 23.9679 28.1245C23.5244 28.0997 23.1969 27.7763 23.1679 27.3577C23.1388 26.9442 23.4332 26.54 23.8726 26.5131C24.5089 26.4727 25.1514 26.4737 25.7866 26.5162C26.2136 26.5452 26.4747 26.9131 26.4633 27.3307Z" fill="#4C40ED"/>
<path d="M37.2192 32.3226C37.1975 32.732 36.9021 33.0543 36.4762 33.0874C36.1663 33.1113 35.8523 33.0926 35.5404 33.0926C35.2595 33.0936 34.9777 33.1102 34.6989 33.0895C34.2554 33.0563 33.9403 32.7185 33.93 32.2967C33.9186 31.8666 34.2056 31.4967 34.6554 31.4708C35.2772 31.4355 35.9041 31.4355 36.5249 31.477C36.9757 31.5081 37.242 31.8811 37.2192 32.3226Z" fill="#4C40ED"/>
<path d="M37.2203 22.3378C37.2234 22.7731 36.927 23.1036 36.4845 23.1575C36.4534 23.1617 36.4223 23.1637 36.3912 23.1637H35.5487V23.1575C35.2523 23.1575 34.9539 23.1783 34.6595 23.1523C34.2419 23.1161 33.9445 22.7803 33.93 22.3741C33.9144 21.9419 34.2025 21.5678 34.6471 21.544C35.2689 21.5119 35.8959 21.5119 36.5177 21.5461C36.9467 21.5699 37.2182 21.9181 37.2203 22.3378Z" fill="#4C40ED"/>
<path d="M12.4109 21.5211C9.2211 21.5159 6.63239 24.1015 6.62824 27.2965C6.62306 30.4956 9.19727 33.0874 12.386 33.0957C15.5872 33.103 18.1821 30.5339 18.1935 27.3452C18.2059 24.1233 15.6276 21.5273 12.4109 21.5211ZM12.4088 31.4387C10.1206 31.4376 8.25837 29.5733 8.26873 27.2955C8.27909 25.0197 10.1621 23.1544 12.4337 23.1678C14.6959 23.1813 16.5323 25.0249 16.5447 27.2955C16.5572 29.5754 14.697 31.4387 12.4088 31.4387Z" fill="#4C40ED"/>
<path d="M12.3912 24.8352C11.0233 24.8414 9.92891 25.9472 9.93306 27.3172C9.93824 28.681 11.0481 29.795 12.4067 29.7971C13.7747 29.7992 14.9125 28.6468 14.8949 27.2778C14.8763 25.914 13.7643 24.829 12.3912 24.8352ZM12.4192 28.1276C11.9528 28.1317 11.5963 27.7753 11.5974 27.3068C11.5984 26.855 11.9321 26.5089 12.3798 26.4944C12.8503 26.4778 13.2161 26.8229 13.2254 27.2903C13.2337 27.7566 12.8814 28.1235 12.4192 28.1276Z" fill="#4C40ED"/>
</svg>
