<svg width="48" height="40" viewBox="0 0 48 40" fill="none" xmlns="http://www.w3.org/2000/svg">
<path d="M47.9393 38.8098C47.7379 37.9865 47.5339 37.1632 47.3274 36.3399C47.1169 35.5037 46.9607 35.3832 46.097 35.3832H43.3782V5.84903C43.3782 5.60921 43.3794 5.36812 43.3691 5.1283C43.2775 2.80199 41.6211 0.698821 39.3282 0.19996C38.3367 -0.0154872 37.2807 -0.00779266 36.2543 0.00503155C33.8363 0.0345272 31.7538 1.71578 31.1651 4.05364C31.058 4.48068 31.0089 4.92183 30.9302 5.37453C30.4615 5.37453 30.011 5.3694 29.5604 5.37581C28.9549 5.38607 28.6735 5.66179 28.6619 6.2594C28.6541 6.71979 28.6606 7.18018 28.6606 7.68289C28.4708 7.68289 28.3301 7.6816 28.1893 7.68289C27.4457 7.68802 27.2934 7.79189 27.0623 8.47542C26.5924 9.8707 26.1211 11.266 25.659 12.6651C25.4201 13.3897 25.739 13.8359 26.4994 13.8359C30.0019 13.8411 33.5032 13.8411 37.0044 13.8372C37.77 13.8359 38.0992 13.3948 37.8629 12.6779C37.3866 11.2339 36.8908 9.79504 36.4157 8.35103C36.2647 7.89192 35.9781 7.66109 35.4875 7.6816C35.2861 7.69058 35.0834 7.68289 34.9078 7.68289C34.8781 7.59953 34.8678 7.58414 34.8678 7.57003C34.8639 7.15325 34.8626 6.73646 34.8574 6.32096C34.8484 5.65666 34.5799 5.38351 33.9215 5.37581C33.4722 5.37068 33.0242 5.37453 32.5801 5.37453C32.4484 3.94976 33.5096 2.39418 34.9427 1.81196C35.8438 1.44647 36.7811 1.53111 37.7119 1.52983C40.1958 1.52598 41.8276 3.15466 41.8289 5.62845C41.8302 15.3736 41.8289 25.1187 41.8289 34.8651V35.3832C40.8 35.3832 39.8485 35.3806 38.897 35.3845C38.3083 35.387 38.094 35.555 37.9443 36.1283C37.7416 36.8977 37.5466 37.6697 37.353 38.4238H31.7887V36.9259C33.3056 36.4078 34.0609 35.5755 34.0738 34.3213C34.097 31.9489 34.0957 29.5764 34.0738 27.2039C34.0635 26.0446 33.2566 25.0584 32.1295 24.7186C32.0095 24.6827 31.8907 24.6455 31.7526 24.6032C31.7526 24.0017 31.7719 23.4246 31.7487 22.8501C31.6557 20.4956 29.6856 18.5181 27.314 18.4706C25.1206 18.4257 22.9259 18.4309 20.7311 18.468C18.57 18.5052 16.6967 20.139 16.3623 22.2589C16.2578 22.9181 16.2849 23.599 16.272 24.271C16.2668 24.5018 16.2371 24.6339 15.9673 24.7134C14.6595 25.1007 13.9469 26.0702 13.9443 27.4232C13.9404 29.602 13.943 31.7821 13.943 33.9623C13.9443 35.4794 14.5665 36.3412 16.0073 36.8426C16.1067 36.8772 16.2487 36.9862 16.2526 37.067C16.2771 37.5235 16.2642 37.9814 16.2642 38.4366H9.29532V30.2997C9.29532 29.4571 9.05906 29.2288 8.19537 29.2276H7.19354C7.18193 29.1532 7.16772 29.1211 7.17418 29.0916C7.34847 28.2119 7.52534 27.3334 7.70091 26.4537C7.83389 25.7843 7.52534 25.3944 6.84368 25.3816C6.3802 25.3739 5.91544 25.3803 5.45067 25.3803C5.42873 25.3405 5.40549 25.3008 5.38354 25.2598C5.49586 25.1661 5.59398 25.0443 5.72179 24.9827C6.19946 24.7519 6.67972 24.5185 7.17676 24.3351C7.35363 24.271 7.617 24.28 7.78096 24.3672C8.53491 24.7647 9.25401 24.7275 9.90855 24.2094C10.2416 23.9466 10.5502 23.6131 10.7697 23.2528C11.3532 22.2884 11.5727 21.1996 11.7005 20.0967C11.7637 19.553 11.3467 19.1426 10.7994 19.2465C9.94857 19.4081 9.08359 19.5722 8.27671 19.871C6.70296 20.4545 6.20204 21.3355 6.37762 22.9911C6.08456 23.1181 5.78246 23.2502 5.44422 23.3977C5.43389 23.2233 5.42356 23.1143 5.42356 23.0053C5.42227 22.1396 5.4184 21.274 5.42872 20.4084C5.42872 20.3109 5.47649 20.1724 5.55008 20.1211C6.49769 19.4658 6.31824 18.0269 5.77601 17.1908C5.13179 16.1994 4.23195 15.4736 3.24562 14.8503C2.81183 14.5759 2.3135 14.7477 2.13534 15.2287C1.73254 16.3161 1.43948 17.4306 1.53502 18.6078C1.64863 19.9993 2.39613 20.7251 3.77881 20.7969C3.80463 20.7982 3.82786 20.8354 3.84077 20.8457V25.3444C3.77751 25.3598 3.74782 25.3739 3.71684 25.3752C3.31404 25.3777 2.90995 25.3765 2.50715 25.3803C1.75836 25.3893 1.45885 25.7612 1.60473 26.4922C1.78419 27.386 1.96105 28.2799 2.14954 29.2276C1.76095 29.2276 1.40979 29.2263 1.05863 29.2276C0.238838 29.2301 0 29.4674 0 30.2907V38.8496C0 39.7947 0.207854 39.9999 1.16708 39.9999H47.0085C47.8502 39.9986 48.1394 39.6267 47.9393 38.8098ZM34.8032 9.23077C34.9155 9.23077 35.0963 9.32695 35.1286 9.41928C35.4604 10.3516 35.7676 11.2929 36.0942 12.2714H27.4238C27.7491 11.3006 28.0564 10.3593 28.3869 9.42698C28.4204 9.33336 28.596 9.23077 28.7058 9.23077C30.7378 9.21923 32.7712 9.21923 34.8032 9.23077ZM33.2863 6.93908V7.64954H30.2408V6.93908H33.2863ZM8.51684 21.442C8.95191 21.224 9.43217 21.0944 9.89177 20.9239C9.94599 20.9739 9.99892 21.0226 10.0519 21.0714C9.77945 21.6395 9.55611 22.2384 9.21786 22.7642C8.93254 23.2053 8.69887 23.1771 8.31673 22.8244C7.64669 22.205 7.68155 21.8613 8.51684 21.442ZM3.51027 19.2183C3.38892 19.2272 3.1333 18.8605 3.12168 18.6553C3.08682 18.0602 3.14492 17.4601 3.16686 16.8612C3.25078 16.8304 3.3334 16.7983 3.41603 16.7676C3.79946 17.2485 4.21001 17.7127 4.55083 18.2231C4.66057 18.3873 4.67606 18.8194 4.58311 18.8733C4.26165 19.0605 3.87821 19.1913 3.51027 19.2183ZM6.01743 26.941C5.87929 27.6399 5.75406 28.3132 5.60172 28.9801C5.57977 29.0775 5.42873 29.2109 5.33061 29.216C4.88133 29.2417 4.42948 29.2404 3.9802 29.216C3.87821 29.2109 3.71813 29.0891 3.69618 28.9954C3.54255 28.3273 3.41861 27.654 3.27789 26.941H6.01743ZM7.71124 38.4315H1.55826V35.4217H7.71124V38.4315ZM7.72544 33.8186H1.58924V30.8011H7.72544V33.8186ZM16.5237 35.3639C15.9492 35.3293 15.5064 34.8561 15.5025 34.2713C15.487 31.9348 15.4961 29.5982 15.4961 27.2603C15.4961 27.2129 15.4999 27.1641 15.509 27.118C15.6445 26.3755 16.241 26.0767 17.4416 26.1523C18.0962 26.1921 18.579 26.6371 18.5829 27.2873C18.5958 29.9598 18.5881 32.6324 18.5881 35.3729C17.869 35.3729 17.1938 35.4037 16.5237 35.3639ZM18.9521 37.7133C18.7494 38.5264 18.7481 38.5264 17.8406 38.42V36.9452H19.1264C19.0644 37.2183 19.0141 37.4671 18.9521 37.7133ZM20.3684 38.4418C20.4975 37.9237 20.6201 37.4338 20.7441 36.9388H27.2818C27.4057 37.4351 27.5271 37.9249 27.6562 38.4418H20.3684ZM27.886 35.3588H20.1773V33.884H27.886V35.3588ZM21.4528 30.7716C23.1273 30.7665 24.8017 30.7703 26.4762 30.7742C27.4715 30.7767 27.9131 31.241 27.8679 32.2823H20.1825C20.065 31.3153 20.522 30.7742 21.4528 30.7716ZM27.8885 27.2693C27.8769 27.9887 27.8872 28.7082 27.8872 29.3622C25.3039 29.1583 22.7555 29.166 20.1399 29.3468C20.1399 28.7941 20.1412 28.1632 20.1399 27.5322C20.1373 26.0574 19.4879 25.1687 18.0859 24.6904C17.9787 24.6532 17.8289 24.5172 17.8289 24.4275C17.8328 23.7568 17.7915 23.0719 17.9116 22.4179C18.1685 21.0201 19.4014 20.0159 20.8306 20.0018C22.9439 19.98 25.0586 19.9787 27.172 20.0005C28.84 20.0185 30.1646 21.3509 30.2059 23.0104C30.2188 23.5375 30.2072 24.0645 30.2072 24.6096C30.0639 24.6519 29.9425 24.6852 29.8225 24.7224C28.6812 25.0725 27.9105 26.0792 27.8885 27.2693ZM30.1827 38.4392H29.2661C29.1447 37.957 29.0208 37.4697 28.8891 36.9477H30.1827V38.4392ZM29.9464 35.3832H29.4352V27.6156C29.4365 26.5447 29.8393 26.151 30.9315 26.1498C31.0761 26.1498 31.2207 26.1446 31.3665 26.1523C32.0469 26.1869 32.5233 26.6384 32.5272 27.318C32.5401 29.6225 32.5401 31.9271 32.5259 34.2316C32.522 34.9048 32.0353 35.3563 31.3485 35.3793C30.8824 35.3934 30.4138 35.3832 29.9464 35.3832ZM38.9603 38.4418C39.0894 37.9249 39.2108 37.4351 39.3347 36.9388H45.8724C45.9963 37.4338 46.119 37.9237 46.2481 38.4418H38.9603Z" fill="#4C40ED"/>
</svg>
