<svg width="45" height="45" viewBox="0 0 45 45" fill="none" xmlns="http://www.w3.org/2000/svg">
<path d="M44.9843 28.87C44.8959 28.336 44.559 28.1001 43.8814 28.1001H39.5372C39.5372 26.8383 39.5385 25.6587 39.5372 24.4776C39.5346 23.1273 39.0286 22.5142 37.9101 22.5127C34.968 22.5111 32.0259 22.5127 29.0851 22.5127H28.6065V32.7144H27.0236V22.5142C23.8175 22.5142 20.6647 22.5064 17.5119 22.5204C16.6977 22.5235 16.1423 23.2049 16.1306 24.1811C16.115 25.46 16.1267 26.7374 16.1267 28.1001H15.5388C14.2069 28.1001 12.8738 28.1017 11.5419 28.1001C11.0932 28.1001 10.7771 28.3422 10.6861 28.8653C10.5989 29.3697 10.8122 29.722 11.2089 29.9129C11.2818 29.9471 11.3546 29.9797 11.4431 30.0216V38.2321C11.4431 39.4722 11.4366 40.7138 11.4457 41.9555C11.4509 42.581 11.7825 42.9985 12.2326 42.9954C12.6852 42.9907 12.9882 42.5794 13.0025 41.94C13.009 41.6792 13.0038 41.4185 13.0038 41.1655H42.6588C42.6588 41.4402 42.6535 41.687 42.66 41.9338C42.6757 42.5655 42.9826 42.9861 43.43 42.9954C43.884 43.0047 44.2 42.5934 44.2182 41.9617C44.2234 41.7677 44.2195 41.5737 44.2195 41.3797V30.048C44.836 29.7096 45.065 29.3526 44.9843 28.87ZM33.4514 26.2376C33.6452 26.2345 33.8416 26.2283 34.0354 26.2407C34.5297 26.2702 34.8574 26.6536 34.8509 27.1813C34.8444 27.7059 34.5141 28.0706 34.0146 28.0986C33.9379 28.1032 33.8624 28.1017 33.787 28.1001C33.7493 28.0986 33.7103 28.0986 33.6725 28.0986C33.6179 28.1001 33.5646 28.1001 33.51 28.1001H33.4293C32.8609 28.0831 32.511 27.7214 32.5176 27.1549C32.5241 26.59 32.8687 26.2501 33.4514 26.2376ZM21.648 26.2392C21.7247 26.2345 21.8002 26.2361 21.8756 26.2376C21.9133 26.2392 21.9523 26.2392 21.9901 26.2392C22.046 26.2376 22.1019 26.2361 22.1578 26.2361C22.1995 26.2361 22.2411 26.2376 22.2827 26.2392C22.8121 26.2625 23.1515 26.635 23.145 27.1828C23.1372 27.7074 22.8082 28.0737 22.3074 28.097C22.0798 28.1079 21.8522 28.1094 21.6246 28.097C21.1316 28.0675 20.8052 27.6826 20.8117 27.1549C20.8195 26.6272 21.1472 26.2671 21.648 26.2392ZM13.0273 29.9906H16.1007V32.702C15.0992 32.9286 14.0288 32.4925 13.0273 32.9892V29.9906ZM42.6197 38.305H13.0273V36.5093H42.6197V38.305ZM42.6301 33.1226C41.6768 32.3994 40.6102 32.9457 39.5567 32.7005V30.0014H42.6301V33.1226Z" fill="white"/>
<path d="M9.83684 41.7538C9.9487 42.3219 9.7406 42.8046 9.31788 42.9583C8.90428 43.1088 8.48416 42.8341 8.34109 42.2707C8.09137 41.2898 7.86765 40.298 7.63094 39.3109C7.14579 37.2823 6.65935 35.2538 6.1729 33.2236C6.13909 33.0824 6.09877 32.9412 5.98041 32.8077V41.5521C5.98041 41.7073 5.98561 41.864 5.9778 42.0177C5.95049 42.609 5.63053 43.0033 5.19221 42.9955C4.75779 42.9862 4.43003 42.5827 4.42482 41.9929C4.41182 40.655 4.41962 39.3171 4.41962 37.9792C4.41962 36.2548 4.41962 34.5305 4.33768 32.786C4.03983 34.0199 3.74198 35.2537 3.44543 36.4876C2.9863 38.4045 2.53367 40.3244 2.06674 42.2396C1.92627 42.8108 1.51916 43.0995 1.10816 42.9691C0.662033 42.8279 0.446124 42.3312 0.568386 41.729C0.587896 41.6359 0.607405 41.5412 0.630817 41.4481C1.55948 37.5772 2.49075 33.7063 3.41942 29.8355C3.47665 29.5949 3.52347 29.3512 3.59111 29.0315C3.25163 29.0315 2.94988 29.0191 2.64943 29.0346C2.22932 29.0563 2.05893 28.8235 2.07454 28.333C2.09145 27.8674 2.09015 27.4018 2.07584 26.9362C2.06024 26.4473 2.22932 26.2207 2.64943 26.2331C3.21652 26.2502 3.7836 26.2377 4.3858 26.2377V18.8219H2.85884V19.9363C2.85884 20.7124 2.86144 21.4884 2.85754 22.2644C2.85493 23.0032 2.57139 23.4316 2.09015 23.4394C1.61021 23.4456 1.30195 23.0032 1.29935 22.2862C1.29545 21.1454 1.29805 20.0031 1.29805 18.7831H0C0.434418 15.3546 0.863634 11.9757 1.29415 8.57202H9.10328C9.53379 11.9524 9.96301 15.3344 10.4013 18.7785H6.00902V26.2377C6.59301 26.2377 7.1575 26.2548 7.72198 26.2315C8.1642 26.2145 8.345 26.4395 8.32549 26.9595C8.30728 27.4049 8.30468 27.8535 8.32549 28.2973C8.3515 28.8623 8.13169 29.0703 7.68036 29.0361C7.40852 29.0144 7.13279 29.0315 6.79852 29.0315C7.09767 30.2964 7.37991 31.5024 7.66865 32.7068C8.3645 35.6107 9.06426 38.5131 9.76141 41.417C9.78872 41.5272 9.81473 41.6405 9.83684 41.7538Z" fill="white"/>
<path d="M19.2732 3V11.9275C19.4618 11.7816 19.6088 11.673 19.7505 11.555C21.1735 10.3646 22.5951 9.1726 24.0193 7.98372C24.6852 7.42807 24.9701 7.47619 25.5072 8.22273C26.2564 9.26573 27.0069 10.3072 27.7665 11.361C27.9421 11.2198 28.0916 11.1065 28.2373 10.9854C29.3936 10.0169 30.5512 9.04844 31.7074 8.07994C32.5204 7.40013 32.7441 7.43118 33.3775 8.31431C33.7573 8.84512 34.1449 9.36972 34.5156 9.90829C34.6001 10.0325 34.6313 10.2094 34.6872 10.3615C34.7328 10.2994 34.777 10.2389 34.8225 10.1783V3H19.2732ZM28.6249 8.11409C27.9421 8.12185 27.414 7.50723 27.4101 6.6986C27.4049 5.88376 27.9186 5.25672 28.5989 5.24741C29.2778 5.23654 29.8072 5.85582 29.8137 6.666C29.8202 7.47929 29.3064 8.10633 28.6249 8.11409Z" fill="white"/>
<path d="M34.8992 14.1037H27.224C29.0007 12.6183 30.6798 11.2152 32.3824 9.79199C33.1849 10.9095 33.9822 11.9789 34.7301 13.0964C34.8822 13.3245 34.8432 13.7358 34.8992 14.1037Z" fill="white"/>
<path d="M26.4839 12.446C25.844 12.98 25.2353 13.4937 24.6227 13.9997C24.5459 14.0618 24.4471 14.1223 24.3587 14.1238C22.7562 14.13 21.1538 14.1285 19.5189 14.0214C21.1968 12.6183 22.8746 11.2152 24.5785 9.79199C25.2197 10.686 25.8414 11.552 26.4839 12.446Z" fill="white"/>
<path d="M22.1581 26.2361C22.1022 26.2361 22.0462 26.2369 21.9903 26.2376C21.9526 26.2376 21.9136 26.2376 21.8759 26.2369H21.9903C22.0462 26.2369 22.1022 26.2361 22.1581 26.2361Z" fill="white"/>
<path d="M33.787 28.0994H33.51C33.5646 28.0994 33.618 28.0994 33.6726 28.0986C33.7103 28.0986 33.7493 28.0986 33.787 28.0994Z" fill="white"/>
</svg>
