<svg width="48" height="48" viewBox="0 0 48 48" fill="none" xmlns="http://www.w3.org/2000/svg">
<path d="M47.7525 44.5537C47.3125 43.705 46.6175 43.2337 45.6575 43.2137C44.645 43.1937 43.63 43.21 42.565 43.21C42.7637 42.1275 42.9513 41.0888 43.1463 40.0525C43.635 37.4463 44.125 34.8387 44.6275 32.235C44.6575 32.08 44.7762 31.8863 44.91 31.815C45.9825 31.2362 46.535 30.3062 46.3787 29.2862C46.205 28.16 45.4425 27.425 44.22 27.2038C44.2 27.2 44.18 27.1963 44.1637 27.1938C43.8875 26.5238 43.73 25.8663 43.3675 25.3525C43.0513 24.905 42.5363 24.5637 42.0475 24.285C41.7388 24.1087 41.6087 23.9588 41.565 23.6063C41.32 21.5925 39.9125 20.2075 37.9062 20.0275C36.575 19.9088 35.455 20.3975 34.5762 21.4013C34.4012 21.6025 34.245 21.6687 33.9813 21.64C32.43 21.4688 31.1112 22.3025 30.5637 23.7638C30.5112 23.9037 30.3975 24.0788 30.2712 24.125C28.8525 24.6362 28.1175 25.655 27.9825 27.1562C27.8175 27.1912 27.6525 27.225 27.4888 27.2625C26.4838 27.4875 25.7625 28.2712 25.6162 29.2975C25.48 30.2525 25.9925 31.2713 26.895 31.7C27.24 31.8638 27.3575 32.0763 27.4212 32.4263C28.0763 35.9713 28.7462 39.5125 29.4112 43.0537C29.4175 43.0837 29.4062 43.115 29.4 43.1763H24.0163C23.94 41.6938 23.3862 40.4463 22.2412 39.4925C21.105 38.545 19.76 38.3112 18.3037 38.42C18.34 37.585 18.375 36.8013 18.41 35.99C19.51 35.77 20.2612 35.1437 20.4825 33.9987C20.7038 32.855 20.0688 32.0688 19.1537 31.2488C19.3512 31.1238 19.5362 31.0487 19.6675 30.9188C28.5537 22.0413 37.4275 13.15 46.3275 4.28625C47.565 3.05375 47.4 1.33625 46.2637 0.48625C45.995 0.28625 45.6725 0.16 45.375 0H44.3438C43.6963 0.19375 43.2 0.6 42.7287 1.0725C35.1112 8.70125 27.4875 16.3213 19.865 23.9463C18.5425 25.27 17.225 26.5988 15.865 27.965C15.145 27.1075 14.3287 26.4988 13.1737 26.7213C12.0262 26.9425 11.4175 27.7075 11.2037 28.8025C7.6 28.685 4.77125 30.0425 3.2325 33.3262C1.47 37.0887 2.45875 40.39 5.5325 43.2075H5.01375C4.12375 43.2075 3.2325 43.1975 2.3425 43.2125C1.46 43.2275 0.7925 43.6412 0.33625 44.3887C0.20125 44.6087 0.11125 44.8575 0 45.0938V46.0312C0.28875 47.055 0.94875 47.7075 1.96875 48H46.0312C47.0537 47.71 47.7088 47.0525 48 46.0312V45.0938C47.9175 44.9137 47.8425 44.7287 47.7525 44.5537ZM31.0462 25.605C31.78 25.5125 31.8912 25.4013 32.0062 24.655C32.1838 23.5088 33.1625 22.94 34.2612 23.345C34.8525 23.5625 35.1488 23.4562 35.465 22.9112C36.105 21.8137 37.2463 21.3563 38.3775 21.7425C39.5062 22.1287 40.1175 23.1812 39.9475 24.4487C39.8375 25.2638 40.06 25.54 40.8725 25.6C41.7425 25.6637 42.365 26.3112 42.3587 27.1712H29.6725C29.575 26.4087 30.1887 25.7125 31.0462 25.605ZM27.5725 30.24C27.3875 30.0725 27.2037 29.76 27.2337 29.5387C27.2662 29.2962 27.51 29.045 27.725 28.8787C27.8625 28.7725 28.1138 28.7962 28.3125 28.7962C33.4338 28.7925 38.5538 28.7925 43.6738 28.7925C43.7675 28.7925 43.8613 28.7887 43.955 28.795C44.46 28.8288 44.81 29.17 44.8 29.6162C44.79 30.0675 44.445 30.3862 43.92 30.3888C41.75 30.395 39.58 30.3913 37.4113 30.3925H36.0062C33.415 30.3925 30.8238 30.395 28.2313 30.3862C28.0063 30.385 27.7175 30.3725 27.5725 30.24ZM28.9625 32.0137H43.0363C42.335 35.7475 41.64 39.4512 40.94 43.1787H31.0613C30.3625 39.4662 29.6675 35.7625 28.9625 32.0137ZM17.38 28.6912C26.2463 19.8237 35.1138 10.9563 43.9813 2.08875C44.0475 2.0225 44.1125 1.955 44.1813 1.89C44.5838 1.51375 45.05 1.495 45.3812 1.8425C45.6925 2.16625 45.6662 2.635 45.315 3.015C45.2512 3.08375 45.1825 3.1475 45.1162 3.21375C36.2388 12.0925 27.36 20.97 18.4825 29.8512C18.3725 29.9613 18.2887 30.0963 18.1938 30.2175C17.775 29.8063 17.4112 29.4475 17.025 29.0675C17.1488 28.9362 17.2612 28.81 17.38 28.6912ZM13.1112 28.47C13.415 28.2325 13.7463 28.2288 14.0675 28.44C14.1825 28.5163 14.28 28.6225 14.38 28.7213C15.75 30.0913 17.1238 31.4562 18.485 32.835C18.685 33.0375 18.8237 33.2975 18.92 33.4325C18.94 34.1725 18.2975 34.5812 17.7712 34.3037C17.6362 34.2337 17.5175 34.1225 17.4088 34.0137C16.0037 32.6125 14.6 31.21 13.2013 29.8037C13.0712 29.6725 12.9325 29.5238 12.8725 29.3575C12.7538 29.0238 12.8162 28.7 13.1112 28.47ZM4.17375 38.2775C3.1025 33.8862 6.96125 29.7188 11.3938 30.4888C11.5625 30.5188 11.7462 30.6187 11.8687 30.74C13.4112 32.2675 14.945 33.8025 16.475 35.3413C16.5763 35.4438 16.6825 35.5975 16.685 35.7287C16.6987 36.505 16.6888 37.2812 16.6725 38.0563C16.6675 38.3175 16.5238 38.4312 16.2437 38.4125C15.9025 38.3887 15.5562 38.3962 15.2137 38.4137C14.7325 38.4375 14.4338 38.725 14.415 39.1587C14.395 39.6125 14.69 39.9562 15.1788 39.995C15.5513 40.025 15.9275 40.0062 16.3013 40.0075C17.3638 40.0125 18.4263 39.9812 19.4862 40.03C21.0875 40.105 22.4225 41.5713 22.3713 43.2075H21.9713C18.1313 43.2075 14.29 43.2175 10.4487 43.2038C7.41 43.1925 4.885 41.195 4.17375 38.2775ZM45.2325 46.4025H2.7675C2.65875 46.4025 2.54875 46.4075 2.44 46.4012C1.9375 46.3713 1.58875 46.0275 1.60125 45.5775C1.615 45.14 1.95125 44.8288 2.43875 44.8075C2.595 44.8 2.75125 44.805 2.9075 44.805H45.2313C46.0075 44.805 46.3812 45.0525 46.3975 45.5762C46.415 46.1162 46.0125 46.4025 45.2325 46.4025Z" fill="#4C40ED"/>
<path d="M28.9001 8.015C28.6701 7.9775 28.4326 7.98875 28.2001 7.97125C26.6576 7.86125 25.3126 7.3075 24.2813 6.12875C23.0238 4.69125 22.5338 2.95 22.4176 1.08875C22.3876 0.61125 22.2651 0.2425 21.8438 0H21.3751C20.9701 0.1975 20.8376 0.52125 20.7763 0.97C20.6488 1.92375 20.5263 2.8975 20.2251 3.805C19.4613 6.1075 17.9076 7.57375 15.4363 7.9275C15.0676 7.98 14.6876 7.96125 14.3163 8.01C13.8538 8.07 13.5726 8.41 13.5926 8.83875C13.6126 9.25 13.8938 9.535 14.3476 9.585C14.5951 9.6125 14.8463 9.62125 15.0951 9.64125C17.1663 9.815 18.7138 10.8062 19.7176 12.6287C20.4076 13.8837 20.7026 15.2488 20.7938 16.665C20.8326 17.2675 21.1313 17.62 21.6038 17.6125C22.0763 17.6037 22.3251 17.23 22.4138 16.645C22.5638 15.6475 22.6813 14.625 23.0013 13.6775C23.6713 11.6962 24.9888 10.3013 27.0901 9.80375C27.6613 9.6675 28.2638 9.6575 28.8513 9.585C29.2901 9.53125 29.5851 9.2275 29.5988 8.82375C29.6138 8.43 29.3288 8.085 28.9001 8.015ZM21.5938 12.8025C20.8638 11.0387 19.7101 9.73125 18.0463 8.7975C19.7251 7.855 20.8651 6.55625 21.5913 4.79375C22.3263 6.57 23.4801 7.87 25.1338 8.79875C23.4813 9.7325 22.3213 11.0312 21.5938 12.8025Z" fill="#4C40ED"/>
<path d="M10.42 17.6113C10.3575 17.605 10.295 17.6038 10.2325 17.6013C8.6325 17.52 7.5025 16.7313 6.9425 15.2475C6.66 14.5 6.5425 13.685 6.405 12.89C6.3075 12.32 6.05625 11.9925 5.58375 12.0013C5.1225 12.0113 4.83875 12.3563 4.785 12.9213C4.73875 13.4013 4.69125 13.8875 4.57875 14.3538C4.09 16.37 2.89875 17.4625 1.03 17.5875C0.59125 17.6163 0.2575 17.7488 0 18.0938V18.6563C0.22875 19.0288 0.5475 19.2075 1 19.2188C2.445 19.2538 3.47875 19.9563 4.13 21.2363C4.54625 22.0563 4.7425 22.9325 4.78875 23.8475C4.81875 24.4513 5.1175 24.7988 5.6 24.7988C6.065 24.7988 6.34 24.4738 6.39875 23.8913C6.44125 23.4725 6.4775 23.0488 6.575 22.6413C6.93125 21.1475 7.59375 19.875 9.19125 19.385C9.5875 19.2638 10.02 19.2588 10.435 19.2013C10.9025 19.135 11.1887 18.8263 11.1862 18.3938C11.1825 17.9575 10.8912 17.6588 10.42 17.6113ZM5.59625 20.3638C5.06125 19.745 4.47 19.0588 3.89625 18.3938C4.4375 17.7738 5.04375 17.08 5.6 16.4425C6.14 17.0625 6.7475 17.7588 7.305 18.3975C6.74 19.0475 6.1425 19.735 5.59625 20.3638Z" fill="#4C40ED"/>
<path d="M11.2025 2.40503C11.1887 2.87128 9.71497 4.41253 9.24622 4.37878C8.99997 4.36128 8.67997 4.20753 8.55622 4.01253C8.43247 3.81628 8.39372 3.39503 8.52122 3.24253C8.98497 2.68503 9.48997 2.13878 10.0662 1.70253C10.5387 1.34628 11.22 1.81128 11.2025 2.40503Z" fill="#4C40ED"/>
<path d="M11.2237 7.29747C11.0949 7.45997 10.9624 7.77247 10.7387 7.86747C10.5099 7.96372 10.1112 7.94747 9.92744 7.80122C9.42994 7.40747 8.98244 6.93997 8.56369 6.45872C8.30494 6.16122 8.32744 5.78622 8.59619 5.47372C8.84994 5.17747 9.23619 5.05497 9.51744 5.28872C10.0874 5.76372 10.5874 6.32247 11.1049 6.85872C11.1699 6.92622 11.1637 7.06372 11.2237 7.29747Z" fill="#4C40ED"/>
<path d="M7.68244 5.94997C7.53744 6.21997 7.46744 6.43372 7.32994 6.58622C6.97369 6.97747 6.59369 7.34747 6.21119 7.71247C5.83994 8.06747 5.36619 8.08122 5.04494 7.76497C4.70994 7.43747 4.71119 6.98497 5.07244 6.60247C5.44744 6.20747 5.80744 5.78372 6.24119 5.46622C6.46244 5.30372 6.86244 5.24747 7.12744 5.32622C7.34994 5.39247 7.49369 5.72372 7.68244 5.94997Z" fill="#4C40ED"/>
<path d="M7.64256 3.68876C7.49631 3.87251 7.36881 4.17751 7.15381 4.26501C6.92006 4.35876 6.52256 4.35501 6.34131 4.21126C5.84256 3.81626 5.39881 3.34626 4.97631 2.86751C4.70756 2.56251 4.74881 2.18876 5.02006 1.88501C5.29006 1.58251 5.68006 1.47001 5.98756 1.72751C6.52256 2.17626 6.99506 2.70001 7.47756 3.20751C7.56381 3.29876 7.57006 3.46501 7.64256 3.68876Z" fill="#4C40ED"/>
<path d="M40.8587 12.81C39.5362 12.775 38.4487 13.8012 38.4125 15.12C38.375 16.4637 39.4037 17.56 40.7425 17.6037C42.05 17.6462 43.1787 16.56 43.2037 15.235C43.2287 13.93 42.1787 12.8437 40.8587 12.81ZM40.77 15.9975C40.33 15.9787 39.995 15.6062 40.015 15.1575C40.0337 14.725 40.3687 14.4112 40.8087 14.4137C41.2525 14.4175 41.6137 14.785 41.6 15.22C41.5875 15.65 41.1975 16.0162 40.77 15.9975Z" fill="#4C40ED"/>
<path d="M44.825 17.6113C43.4863 17.6013 42.3975 18.6713 42.395 19.9975C42.3925 21.3175 43.4963 22.4113 44.82 22.4013C46.1325 22.3913 47.19 21.3225 47.1913 20.0038C47.1925 18.6775 46.1475 17.62 44.825 17.6113ZM44.8 20.8C44.3688 20.8 43.995 20.4213 44.0013 19.99C44.0063 19.5713 44.3525 19.2238 44.7738 19.2113C45.2288 19.1988 45.5788 19.5338 45.585 19.9875C45.5913 20.4363 45.24 20.8 44.8 20.8Z" fill="#4C40ED"/>
<path d="M39.9975 34.4313C39.9787 34.8513 39.6662 35.1638 39.1962 35.1875C38.7912 35.2075 38.385 35.1913 37.9787 35.1913C37.5887 35.1913 37.1975 35.2088 36.8075 35.1875C36.3137 35.1613 35.9987 34.8338 36.0037 34.39C36.0087 33.9688 36.3125 33.6238 36.7787 33.6088C37.59 33.5813 38.4025 33.5813 39.2137 33.6088C39.7012 33.625 40.0175 33.995 39.9975 34.4313Z" fill="#4C40ED"/>
<path d="M34.3937 34.44C34.3512 34.8612 34.1175 35.1375 33.6825 35.1775C33.3887 35.2037 33.09 35.1825 32.7938 35.1825C32.7938 35.1812 32.7938 35.18 32.7938 35.18C32.4975 35.18 32.1987 35.2037 31.9062 35.1737C31.4875 35.1325 31.2237 34.8275 31.2125 34.4275C31.2 34.025 31.4412 33.6662 31.8512 33.6362C32.4712 33.5887 33.0975 33.5875 33.7175 33.6287C34.1437 33.6562 34.435 34.0437 34.3937 34.44Z" fill="#4C40ED"/>
</svg>
