<svg width="45" height="45" viewBox="0 0 45 45" fill="none" xmlns="http://www.w3.org/2000/svg">
<g clip-path="url(#clip0_4638_218114)">
<path d="M44.9011 13.2096C44.8536 13.2032 44.8035 13.1904 44.7585 13.1981C43.9362 13.3378 43.5598 12.9162 43.2707 12.1921C42.1388 9.35358 40.9555 6.53684 39.7889 3.7124C38.8009 1.32368 37.0009 0.125475 34.4082 0.124194C30.4253 0.122912 26.4424 0.139572 22.4596 0.117786C20.2651 0.106253 18.6116 0.999461 17.4296 2.84483C15.3559 6.0819 13.2437 9.29463 11.1649 12.5279C10.9028 12.9367 10.5791 13.1699 10.1178 13.2904C9.0797 13.5646 8.05058 13.8683 7.0176 14.1631C5.80347 14.5091 4.58934 14.8589 3.36364 15.2101C3.36364 16.5428 3.36621 17.8397 3.36236 19.1353C3.36107 19.8529 3.09512 20.1118 2.36921 20.1144C1.68441 20.1182 0.999616 20.1157 0.314819 20.1157V24.7278C1.2964 24.7278 2.24201 24.7291 3.18891 24.7265C3.24929 24.7265 3.31097 24.7098 3.39705 24.697C3.91225 21.1447 6.67585 18.8521 9.74009 18.5984C11.2407 18.474 12.6476 18.8085 13.9247 19.6082C15.8185 20.7936 16.8797 22.53 17.2099 24.6996H18.8853C18.8737 24.574 18.8711 24.4779 18.8557 24.3843C18.5345 22.4185 19.5174 20.5373 21.3225 19.7389C22.9414 19.0225 24.4305 19.3301 25.8669 20.3027C28.7178 22.234 31.8476 22.8453 35.2279 22.1391C36.8866 21.7931 38.3589 21.0435 39.7658 20.1169C41.3705 19.0584 43.0176 19.0776 44.648 20.1041C44.7469 20.1669 44.8523 20.2182 44.9654 20.281V13.2532C44.9268 13.2263 44.9152 13.2122 44.9011 13.2096ZM28.7654 16.2391H25.7474V14.7564H28.7654V16.2391ZM41.1161 16.2391H38.0814V14.7577H41.1161V16.2391ZM40.0587 13.1955H27.6322C23.5067 13.1955 19.3799 13.1943 15.2544 13.1981C14.8561 13.1981 14.4771 13.1878 14.2536 12.7816C14.039 12.3907 14.2356 12.0781 14.4334 11.7577C16.0998 9.0614 17.7701 6.3664 19.4262 3.66371C20.251 2.31685 21.4317 1.65431 23.0159 1.65815C26.7405 1.66969 30.4651 1.66072 34.1898 1.662C36.045 1.66328 37.3876 2.57058 38.0506 4.28139C39.0322 6.81621 40.0073 9.35358 40.9838 11.891C41.3204 12.7688 41.0185 13.1955 40.0587 13.1955Z" fill="white"/>
<path d="M43.9117 44.1221C42.979 44.8513 41.9434 44.9192 40.8873 44.3758C40.6034 44.2297 40.3451 44.0324 40.0741 43.8632C39.4432 43.4685 39.3931 42.9482 39.9225 42.4049C41.4154 40.8735 41.1135 41.6052 41.1327 39.4587C41.152 37.2648 41.0621 35.0683 41.161 32.8782C41.2355 31.2225 40.0445 29.7526 38.0852 30.1998C37.8552 27.5446 37.1087 26.8333 34.8899 27.1473C34.4659 26.1131 33.7297 25.4634 32.5554 25.5095C31.4929 25.5505 30.8197 26.1682 30.4291 27.1537C30.3199 27.1383 30.212 27.1306 30.1079 27.1076C28.6239 26.7756 27.2788 27.829 27.2646 29.3592C27.2492 30.9918 27.2608 32.6257 27.2608 34.2596V34.794C26.806 34.794 26.3691 34.7248 25.9631 34.8081C24.9199 35.0221 24.203 35.9153 24.1824 36.9713C24.1644 37.9798 24.185 38.9897 24.1747 39.9982C24.1708 40.3967 24.3648 40.6505 24.6835 40.8594C25.5815 41.4463 26.4719 42.0448 27.4291 42.683C27.0347 42.8752 26.6852 43.0238 26.3589 43.2109C25.8038 43.53 25.2565 43.8671 24.7156 44.2105C23.504 44.982 22.11 44.8666 21.14 43.9068C20.1777 42.9533 20.0312 41.5245 20.8419 40.3455C21.9045 38.8 22.764 37.1751 23.1392 35.3182C23.7867 32.1118 23.2445 29.1182 21.5396 26.331C21.3057 25.9491 21.0424 25.5851 20.8008 25.2071C20.0621 24.0512 20.1918 22.6582 21.1182 21.7201C22.0651 20.7616 23.486 20.5885 24.6424 21.3626C26.1212 22.3519 27.6783 23.158 29.418 23.5655C33.2942 24.4715 36.8968 23.8167 40.2308 21.6496C40.6047 21.4061 40.9914 21.1537 41.409 21.014C42.4933 20.6513 43.6766 21.0448 44.3871 21.9393C45.0899 22.8222 45.1914 24.0102 44.6325 25.0033C44.4437 25.3365 44.2098 25.6454 44.0068 25.9709C41.1713 30.5202 41.1726 35.0695 43.9965 39.6266C44.3306 40.1661 44.7096 40.712 44.8843 41.3092C45.2132 42.4305 44.8252 43.4083 43.9117 44.1221Z" fill="white"/>
<path d="M39.5846 40.2174C39.5834 40.4122 39.4883 40.6852 39.3418 40.7877C38.2086 41.5874 37.8527 42.6753 38.0493 43.9991C38.0801 44.2157 38.0532 44.4413 38.0532 44.6912H30.3444C30.3444 44.3131 30.3135 43.9466 30.3508 43.5865C30.4163 42.9791 30.1491 42.6126 29.6467 42.2947C28.4416 41.5335 27.2737 40.7121 26.075 39.9406C25.7923 39.7586 25.7024 39.5613 25.7127 39.2422C25.7345 38.5387 25.7127 37.8338 25.7217 37.129C25.7281 36.6023 26.0365 36.2665 26.4887 36.2665C26.941 36.2653 27.2506 36.5997 27.2583 37.1264C27.2673 37.8441 27.2609 38.5617 27.2609 39.3152H28.8026V29.7475C28.8026 29.6194 28.7975 29.4912 28.8052 29.3631C28.8347 28.903 29.1354 28.5891 29.5517 28.5775C29.9885 28.5647 30.3315 28.8877 30.338 29.3695C30.3534 30.3627 30.3444 31.3545 30.3444 32.3477V34.6877H31.8861V34.1854C31.8861 32.1042 31.8836 30.0231 31.8887 27.9419C31.89 27.3498 32.2664 26.9744 32.7598 27.0448C33.1812 27.1051 33.4253 27.428 33.4266 27.956C33.4305 30.0218 33.4279 32.0876 33.4279 34.1521V34.698H34.9697V29.6437C34.9697 28.944 35.2266 28.5865 35.7277 28.5775C36.2442 28.5686 36.5114 28.9389 36.5114 29.6668V34.6903H38.0532C38.0532 34.006 38.0506 33.3229 38.0532 32.6399C38.0557 32.0017 38.3461 31.6403 38.842 31.6531C39.3187 31.6647 39.5936 32.0158 39.5936 32.6284C39.5962 35.158 39.6001 37.6877 39.5846 40.2174Z" fill="white"/>
<path d="M10.2784 20.117C7.31307 20.1285 4.89637 22.5595 4.90665 25.5211C4.91821 28.4762 7.35933 30.8906 10.3246 30.8791C13.2912 30.8675 15.7079 28.4352 15.6964 25.4737C15.6848 22.5147 13.2475 20.1055 10.2784 20.117ZM10.2411 29.3412C8.14434 29.3143 6.43941 27.5766 6.4484 25.4737C6.45868 23.3579 8.20729 21.6407 10.3362 21.6548C12.4574 21.6702 14.1739 23.4194 14.1546 25.5454C14.1341 27.6574 12.3713 29.3669 10.2411 29.3412Z" fill="white"/>
<path d="M6.71692 3.19351C4.87837 3.63178 3.79143 4.6698 3.37131 6.55105C2.92805 4.71209 1.89251 3.62409 0 3.20889C1.84625 2.76677 2.93704 1.73131 3.35974 0C3.79786 1.71081 4.85396 2.76292 6.71692 3.19351Z" fill="white"/>
<path d="M6.71946 36.2588C4.87064 36.6945 3.79141 37.739 3.36871 39.6151C2.92931 37.7671 1.88477 36.6881 0.0102539 36.2703C1.85137 35.8269 2.93702 34.7889 3.361 33.0627C3.79912 34.7774 4.85908 35.8269 6.71946 36.2588Z" fill="white"/>
<path d="M15.9738 41.6437C14.1121 42.0756 13.0432 43.1302 12.6154 45C12.1811 43.1405 11.1263 42.0717 9.25562 41.6475C11.1109 41.2106 12.1888 40.1648 12.6128 38.4451C13.0535 40.17 14.1186 41.2106 15.9738 41.6437Z" fill="white"/>
<path d="M1.80641 15.6511V18.5396H0.313477V16.083C0.774719 15.9497 1.26037 15.8087 1.80641 15.6511Z" fill="white"/>
<path d="M39.1695 11.6424H28.8411V3.25751C28.8526 3.24854 28.877 3.21394 28.9027 3.21394C30.7798 3.21009 32.6569 3.18062 34.534 3.21778C35.4179 3.23572 36.131 3.69963 36.4612 4.51851C37.4017 6.84444 38.2843 9.19472 39.1862 11.5347C39.1965 11.5604 39.1773 11.5963 39.1695 11.6424Z" fill="white"/>
<path d="M27.2223 3.19998V11.6246H16.3503C16.4403 11.4631 16.5032 11.3401 16.5765 11.2209C17.9538 8.98596 19.3439 6.75871 20.7058 4.5148C21.2583 3.60493 22.024 3.17306 23.0917 3.19357C24.4548 3.22048 25.8193 3.19998 27.2223 3.19998Z" fill="white"/>
<path d="M12.6128 25.5135C12.6051 26.7706 11.5696 27.7997 10.3092 27.8035C9.02954 27.8073 7.98372 26.7604 7.99014 25.4814C7.99785 24.2063 9.05909 23.1734 10.3413 23.1926C11.6004 23.2106 12.6193 24.2525 12.6128 25.5135Z" fill="white"/>
</g>
<defs>
<clipPath id="clip0_4638_218114">
<rect width="45" height="45" fill="white"/>
</clipPath>
</defs>
</svg>
