<svg width="48" height="48" viewBox="0 0 48 48" fill="none" xmlns="http://www.w3.org/2000/svg">
<path d="M46.8176 7.20872C47.7445 7.20772 47.997 6.95921 47.998 6.05136C47.999 5.17658 48.002 4.30179 47.997 3.427C47.993 2.6905 47.7184 2.41093 46.9739 2.40792C45.3796 2.40191 43.7864 2.40592 42.1931 2.40592H41.6059C41.6059 1.94197 41.609 1.5131 41.6049 1.08422C41.5979 0.285589 41.3214 0.00201046 40.5378 0.00201046C38.0387 -0.000995675 35.5386 -0.000995675 33.0395 0.00201046C32.2849 0.00301251 32.0053 0.2906 31.9923 1.05716C31.9853 1.46299 31.9833 1.86882 31.9753 2.27465C31.9753 2.30171 31.9482 2.32776 31.9061 2.40592H31.335C21.2905 2.40592 11.245 2.40792 1.19945 2.40191C0.685399 2.40191 0.227464 2.45502 0 3.00113V6.6566C0.262536 7.08948 0.653334 7.23077 1.14534 7.21474C1.8117 7.19269 2.47906 7.20872 3.19352 7.20872V7.80494C3.19352 12.5677 3.19352 17.3304 3.19452 22.0921C3.19452 22.8356 3.35886 23.0471 4.04325 23.2114C4.54929 23.3336 4.80581 23.6052 4.78076 24.0251C4.75671 24.4309 4.54428 24.6954 4.13143 24.7646C3.69554 24.8387 3.43 24.6533 3.22458 24.1503C3.20755 24.1082 3.1835 24.0681 3.14943 24.001C2.72356 24.001 2.28767 24 1.85178 24.002C1.77663 24.003 1.70147 24.021 1.51109 24.0471C1.68945 24.498 1.8127 24.9309 2.02814 25.3117C2.16342 25.5502 2.14738 25.6814 1.99608 25.8829C1.3227 26.7807 0.664356 27.6895 0 28.5944V32.2499C0.604234 32.8791 1.19143 33.5245 1.82172 34.1247C1.99407 34.288 2.29468 34.3832 2.54019 34.3912C3.50816 34.4213 4.47814 34.4263 5.44512 34.3892C5.71667 34.3782 5.98221 34.1938 6.24776 34.0836C6.28784 34.0666 6.31189 34.0145 6.34896 33.9874C7.69471 33.0214 8.17369 31.7548 8.04041 30.0774C7.95524 29.0032 7.81395 28.0783 7.06643 27.2677C6.60348 26.7657 6.23373 26.1775 5.81788 25.6213C5.96117 25.3417 6.12851 25.0782 6.23673 24.7926C6.65258 23.6954 6.18062 22.4599 5.14049 21.9137C4.91804 21.7975 4.78276 21.6933 4.78377 21.3967C4.79579 16.7562 4.79279 12.1167 4.79279 7.47727C4.79279 7.41515 4.80281 7.35402 4.81082 7.25081H31.9923C31.9923 7.39911 31.9893 7.56144 31.9923 7.72478C32.0053 8.52241 32.2799 8.79997 33.0655 8.80599C33.4864 8.80899 33.9072 8.80699 34.3652 8.80699V46.3707H31.2127V14.4395H29.6245V17.5719H24.8117V16.0428H23.1974V17.5759H18.4146C18.3996 17.3244 18.3865 17.0949 18.3705 16.8294H16.8193C16.8003 17.0759 16.7823 17.3174 16.7622 17.5819H12.0366V15.2071H22.3767V13.6158H12.0055V10.4283H10.4213V46.3667C9.68577 46.4428 9.08755 46.4639 8.53743 45.8406C7.60853 44.7885 6.56741 43.8355 5.57137 42.8435C4.98518 42.2603 4.61242 42.2593 4.02321 42.8455C2.95002 43.9147 1.87383 44.9818 0.813661 46.0641C0.57818 46.3045 0.343702 46.4639 0 46.4068V48H47.998V46.4268C47.8076 46.4118 47.6433 46.3997 47.4188 46.3817C47.9048 45.6803 48.1443 44.9388 47.8908 44.1211C47.6373 43.3064 47.0701 42.7803 46.2484 42.4978C46.5871 41.2873 46.3386 40.2692 45.2684 39.5748C44.4337 39.0317 43.5409 39.0397 42.7092 39.5848C41.654 40.2762 41.4306 41.2913 41.7332 42.4557C40.0708 43.122 39.4916 44.8005 40.5608 46.3647H39.2301V8.80699H40.4255C41.3474 8.80498 41.5949 8.56048 41.6049 7.64361C41.6069 7.52036 41.6059 7.39611 41.6059 7.20872H42.131C43.6932 7.20872 45.2554 7.20973 46.8176 7.20872ZM4.38195 5.58641H1.62532V3.92803C1.94196 4.03324 2.23456 4.07533 2.46503 4.21762C3.12538 4.62345 3.76168 5.07036 4.407 5.50124C4.39898 5.5303 4.39096 5.55835 4.38195 5.58641ZM6.38804 29.6255C6.38804 30.2868 6.45418 30.9452 6.35798 31.5795C6.31489 31.8621 5.93211 32.0855 5.72469 32.3511C5.44211 32.7128 5.0944 32.8731 4.63246 32.811C4.41802 32.7819 4.18955 32.7719 3.97912 32.812C3.02217 32.9964 2.33176 32.5915 1.78965 31.851C1.70348 31.7338 1.61029 31.5875 1.60628 31.4512C1.58524 30.861 1.59726 30.2698 1.59726 29.6255H6.38804ZM5.57639 27.9781H2.42295C2.82276 27.449 3.14442 26.915 3.58131 26.5041C3.73863 26.3558 4.28976 26.3799 4.46111 26.5402C4.87996 26.933 5.18258 27.4501 5.57639 27.9781ZM7.2007 5.44011C6.52432 4.98919 5.86898 4.5523 5.10643 4.04326H9.29297C8.53743 4.54829 7.87307 4.9912 7.2007 5.44011ZM13.9595 5.58441H9.87817C10.6147 5.0904 11.2359 4.66754 11.8672 4.26071C11.9354 4.21662 12.0867 4.22864 12.1598 4.27674C12.7811 4.67856 13.3923 5.09441 14.0056 5.50625C13.9906 5.5323 13.9745 5.55835 13.9595 5.58441ZM16.7993 5.43911C16.1299 4.9932 15.4706 4.5533 14.718 4.05128H18.8815C18.129 4.5523 17.4727 4.99019 16.7993 5.43911ZM23.5771 5.59643H19.6221C19.606 5.56838 19.589 5.54032 19.572 5.51226C20.2203 5.08338 20.8666 4.6525 21.5189 4.23165C21.567 4.20058 21.6773 4.21862 21.7314 4.25369C22.3637 4.66854 22.9899 5.0914 23.6182 5.51126C23.6042 5.54032 23.5912 5.56838 23.5771 5.59643ZM26.3999 5.44212C25.7145 4.98418 25.0682 4.5523 24.3277 4.05629H28.4651C27.7356 4.54629 27.0793 4.98619 26.3999 5.44212ZM31.9673 5.57238H29.2417C30.1085 5.01124 30.8069 4.14647 31.9673 3.94907V5.57238ZM2.86385 46.3677C3.52119 45.7123 4.16751 45.067 4.79679 44.4397C5.40904 45.067 6.05336 45.7274 6.67964 46.3677H2.86385ZM24.8387 19.2433H29.5714V27.1765H24.8387V19.2433ZM18.4206 19.2423H23.1613V25.932C23.1232 25.959 23.0861 25.9851 23.0491 26.0121C22.6793 25.6193 22.2815 25.2496 21.9478 24.8287C21.4217 24.1663 20.7664 23.9269 19.9367 24.012C19.4457 24.0631 18.9447 24.021 18.4206 24.021V19.2423ZM12.0356 19.2283H16.7532V20.4989H12.0356V19.2283ZM29.5774 46.3737H12.0306V22.1542H16.7512C16.7642 22.2695 16.7883 22.3867 16.7893 22.505C16.7933 23.1603 16.7903 23.8166 16.7913 24.473C16.7933 25.3838 17.0408 25.6283 17.9677 25.6303C18.6701 25.6323 19.3746 25.6103 20.075 25.6434C20.2984 25.6534 20.564 25.7546 20.7243 25.9059C21.5761 26.7095 22.4077 27.5352 23.2304 28.3689C23.525 28.6685 23.8467 28.8028 24.2695 28.7988C25.8618 28.7828 27.4551 28.7928 29.0483 28.7928H29.5774V46.3737ZM45.6352 44.0139C46.052 44.0349 46.4007 44.4027 46.3927 44.8135C46.3827 45.2534 46.0099 45.5971 45.562 45.5791C45.1331 45.561 44.8045 45.2143 44.8115 44.7864C44.8185 44.3476 45.1983 43.9918 45.6352 44.0139ZM44.0129 40.8023C44.4167 40.8113 44.7894 41.1871 44.7955 41.5899C44.8015 42.0248 44.4277 42.3896 43.9848 42.3815C43.5349 42.3745 43.1932 42.0108 43.2132 41.5619C43.2323 41.145 43.602 40.7933 44.0129 40.8023ZM42.4356 44.0139C42.8545 44.0349 43.1992 44.4007 43.1912 44.8135C43.1812 45.2544 42.8094 45.5971 42.3615 45.5791C41.9286 45.561 41.6089 45.2213 41.615 44.7864C41.622 44.3435 41.9957 43.9908 42.4356 44.0139ZM33.6257 1.62332H36.7761V4.75672H33.6257V1.62332ZM36.0175 10.1387V8.83304H36.8693C36.5957 9.2529 36.3462 9.63568 36.0175 10.1387ZM37.5537 10.7129V14.8884C37.1038 14.215 36.6969 13.6278 36.3202 13.0216C36.253 12.9134 36.251 12.6909 36.3171 12.5837C36.6939 11.9775 37.1007 11.3893 37.5537 10.7129ZM37.3693 17.5158C37.4034 17.5679 37.3633 17.6971 37.3192 17.7643C36.9274 18.3645 36.5286 18.9597 36.1268 19.5539C36.1097 19.579 36.0576 19.581 36.0085 19.598V15.4546C36.5105 16.2101 36.9474 16.8584 37.3693 17.5158ZM37.3112 27.3739C36.9174 27.9912 36.5055 28.5974 36.0406 29.2968V25.1033C36.5055 25.8037 36.9234 26.4199 37.3222 27.0482C37.3723 27.1254 37.3633 27.2927 37.3112 27.3739ZM37.5667 29.888V34.1076C37.0787 33.3751 36.6568 32.7499 36.248 32.1166C36.2099 32.0585 36.2169 31.9302 36.256 31.8701C36.6659 31.2368 37.0857 30.6105 37.5667 29.888ZM37.3693 36.719C37.4024 36.7711 37.3633 36.8993 37.3192 36.9665C36.9144 37.5877 36.5015 38.203 36.0907 38.8213C36.0626 38.8072 36.0356 38.7942 36.0075 38.7802V34.6548C36.5135 35.4153 36.9484 36.0626 37.3693 36.719ZM36.0105 46.3637V44.4277C36.0366 44.4117 36.0626 44.3956 36.0887 44.3796C36.5186 45.0229 36.9484 45.6672 37.4134 46.3637H36.0105ZM37.5757 43.7273C37.0767 42.9737 36.6428 42.3264 36.224 41.6701C36.1909 41.62 36.237 41.4917 36.2821 41.4226C36.6819 40.8113 37.0897 40.2061 37.4956 39.5979C37.5226 39.6079 37.5497 39.6179 37.5757 39.6279V43.7273ZM37.5767 24.5281C37.0827 23.7846 36.6548 23.1523 36.245 22.509C36.2049 22.4458 36.237 22.2975 36.2861 22.2224C36.6829 21.6091 37.0917 21.0039 37.5767 20.2764V24.5281ZM39.9746 7.17465H33.6216V6.39406H35.9273C36.4264 6.39406 36.9264 6.40007 37.4264 6.39206C38.1048 6.38204 38.3914 6.10547 38.4004 5.41807C38.4134 4.3559 38.4044 3.29373 38.4044 2.23156V1.63535H39.9746V7.17465ZM46.3807 4.17253V5.5794H44.4357C44.4187 5.55535 44.4027 5.5303 44.3856 5.50525C45.0269 5.07737 45.6682 4.6485 46.3807 4.17253ZM41.631 4.03424H43.7062C42.9637 4.52925 42.3254 4.95412 41.631 5.41707V4.03424Z" fill="#4C40ED"/>
<path d="M24.7716 36.8292H23.2284V38.3664H24.7716V36.8292Z" fill="#4C40ED"/>
<path d="M24.7746 40.0327H23.2425V41.5709H24.7746V40.0327Z" fill="#4C40ED"/>
<path d="M24.7756 43.2423H23.2415V44.7714H24.7756V43.2423Z" fill="#4C40ED"/>
<path d="M24.7646 33.6227H23.2334V35.1748H24.7646V33.6227Z" fill="#4C40ED"/>
<path d="M24.7595 30.4261H23.2214V31.9613H24.7595V30.4261Z" fill="#4C40ED"/>
<path d="M18.3475 30.4271H16.8163V31.9613H18.3475V30.4271Z" fill="#4C40ED"/>
<path d="M15.17 30.4231H13.6178V31.9562H15.17V30.4231Z" fill="#4C40ED"/>
<path d="M15.1569 36.8282H13.6258V38.3824H15.1569V36.8282Z" fill="#4C40ED"/>
<path d="M21.564 27.2327H20.0099V28.7568H21.564V27.2327Z" fill="#4C40ED"/>
<path d="M18.3655 27.2236H16.8243V28.7718H18.3655V27.2236Z" fill="#4C40ED"/>
<path d="M15.17 40.0417H13.6358V41.5799H15.17V40.0417Z" fill="#4C40ED"/>
<path d="M18.3655 40.0417H16.8173V41.5789H18.3655V40.0417Z" fill="#4C40ED"/>
<path d="M15.1579 43.2313H13.6248V44.7845H15.1579V43.2313Z" fill="#4C40ED"/>
<path d="M18.3715 43.2493H16.8193V44.7744H18.3715V43.2493Z" fill="#4C40ED"/>
<path d="M21.554 43.2383H20.0319V44.7904H21.554V43.2383Z" fill="#4C40ED"/>
<path d="M15.1559 33.6206H13.6248V35.1628H15.1559V33.6206Z" fill="#4C40ED"/>
<path d="M27.9811 43.2363H26.443V44.7775H27.9811V43.2363Z" fill="#4C40ED"/>
<path d="M15.166 27.2166H13.6308V28.7527H15.166V27.2166Z" fill="#4C40ED"/>
<path d="M18.3505 33.6267H16.8153V35.1648H18.3505V33.6267Z" fill="#4C40ED"/>
<path d="M21.566 33.6458V35.1949C21.1091 35.1949 20.6772 35.2089 20.2483 35.1839C20.1592 35.1789 20.076 35.0306 19.9968 34.9424C19.9808 34.9254 19.9938 34.8823 19.9928 34.8512C19.9237 33.5265 20.0539 33.4233 21.566 33.6458Z" fill="#4C40ED"/>
<path d="M27.9661 33.6246H26.442V35.1668H27.9661V33.6246Z" fill="#4C40ED"/>
<path d="M18.3575 36.8473H16.8073V38.3794H18.3575V36.8473Z" fill="#4C40ED"/>
<path d="M21.561 36.8462H20.0109V38.3803H21.561V36.8462Z" fill="#4C40ED"/>
<path d="M21.559 30.4191H20.0259V31.9682H21.559V30.4191Z" fill="#4C40ED"/>
<path d="M27.9761 36.8292H26.434V38.3664H27.9761V36.8292Z" fill="#4C40ED"/>
<path d="M21.565 40.0317H20.0259V41.5689H21.565V40.0317Z" fill="#4C40ED"/>
<path d="M27.9631 30.4131H26.447V31.9592H27.9631V30.4131Z" fill="#4C40ED"/>
<path d="M27.9761 40.0327H26.441V41.5789H27.9761V40.0327Z" fill="#4C40ED"/>
</svg>
