<svg width="45" height="45" viewBox="0 0 45 45" fill="none" xmlns="http://www.w3.org/2000/svg">
<g clip-path="url(#clip0_4638_218134)">
<path d="M14.4631 28.1509V30.9364C14.4619 32.5958 13.8551 33.3634 12.2351 33.7548C12.2105 33.7606 12.1906 33.7888 12.1531 33.8181C12.2749 34.7063 12.4003 35.604 12.5209 36.5017C12.7154 37.9513 12.9602 39.3962 13.0855 40.8528C13.2027 42.1993 12.2398 43.2399 10.8857 43.3841C9.68383 43.5106 8.53821 42.6013 8.3379 41.3345C8.17859 40.3231 8.04857 39.3071 7.908 38.2923C7.70067 36.7888 7.4945 35.2841 7.28248 33.7501C7.00721 33.7501 6.76004 33.7513 6.51405 33.7501C5.04982 33.7372 4.04126 32.7306 4.02486 31.2599C4.01783 30.6306 4.02368 30.0001 4.02368 29.3708V28.1579H1.83319C1.84373 28.2634 1.84373 28.3372 1.85896 28.4075C2.91907 33.2802 3.978 38.1517 5.04279 43.0231C5.25481 43.9911 5.83933 44.6298 6.79519 44.9181C6.8479 44.9333 6.89241 44.972 6.94044 45.0001H38.0408C39.1091 44.6427 39.7533 43.9524 39.9935 42.8122C40.8591 38.706 41.7716 34.6091 42.6654 30.5099C42.8353 29.7294 42.9981 28.9478 43.1679 28.1509H14.4631ZM18.9378 43.3173C17.8578 43.5915 16.7227 43.1134 16.2202 42.1267C16.0585 41.8091 15.9425 41.4364 15.9238 41.0837C15.7622 38.1446 15.6204 35.2056 15.4916 32.2653C15.4318 30.9001 16.4603 29.7962 17.8097 29.7259C19.1006 29.6579 20.231 30.7032 20.3036 32.0427C20.3868 33.5626 20.4582 35.0837 20.5356 36.6048C20.6023 38.0673 20.6925 39.5298 20.7277 40.9923C20.7546 42.0938 19.9838 43.0524 18.9378 43.3173ZM29.4838 32.3321C29.4486 33.0481 29.4065 33.7642 29.3725 34.4813C29.3374 35.1821 29.3092 35.8853 29.2776 36.5872C29.2764 36.586 29.2741 36.586 29.2729 36.586C29.205 38.0485 29.1406 39.511 29.0691 40.9735C29 42.3938 27.9211 43.4427 26.5823 43.3993C25.2316 43.356 24.1961 42.2544 24.2547 40.8376C24.3777 37.854 24.5253 34.8704 24.6916 31.8892C24.7607 30.6435 25.9415 29.6556 27.189 29.7317C28.5596 29.8149 29.5541 30.9399 29.4838 32.3321ZM37.8768 32.4435C37.6718 33.9435 37.4422 35.638 37.2091 37.3313C37.0252 38.6638 36.8588 39.9985 36.6468 41.3263C36.4336 42.6634 35.3067 43.4884 33.9643 43.3419C32.7192 43.2048 31.7785 42.1056 31.8968 40.7884C32.0187 39.4208 32.2412 38.0626 32.4275 36.7021C32.6524 35.0509 32.8773 33.3997 33.1186 31.7521C33.3119 30.4337 34.4446 29.5759 35.787 29.706C37.0252 29.8267 37.9541 30.9505 37.8768 32.4435Z" fill="white"/>
<path d="M44.7692 2.93438C44.4588 3.28359 44.1285 3.61758 43.7806 3.9293C43.4245 4.24805 42.9993 4.22461 42.6373 3.88242C42.2449 3.51094 41.8736 3.11602 41.4847 2.73984C41.0302 2.29922 40.5932 2.30156 40.1528 2.75625C39.3188 3.61875 38.5035 4.49766 37.6554 5.34609C37.5031 5.49844 37.2396 5.59687 37.0205 5.61211C36.4817 5.65078 35.9382 5.60742 35.3981 5.63203C35.0748 5.64727 34.8663 5.55469 34.6719 5.28047C34.0967 4.46953 33.4771 3.69023 32.8926 2.88633C32.6454 2.54531 32.3373 2.39062 31.9238 2.4C31.4728 2.41055 31.0218 2.40234 30.4854 2.40234V0H42.7849C43.4608 0.642187 44.1554 1.2668 44.8044 1.93594C45.0925 2.23242 45.0457 2.625 44.7692 2.93438Z" fill="white"/>
<path d="M3.99092 23.298V26.5266H2.46694C1.99956 26.5266 1.531 26.5148 1.06362 26.5301C0.577494 26.5477 0.207335 26.3895 0 25.9277V23.8184C0.27879 23.407 0.663005 23.2723 1.1585 23.2887C2.09093 23.3203 3.02569 23.298 3.99092 23.298Z" fill="white"/>
<path d="M28.904 0H26.5319V2.38125H28.904V0Z" fill="white"/>
<path d="M12.8443 24.9422C12.8443 26.9918 12.8454 29.0415 12.8431 31.0911C12.8431 31.8856 12.583 32.1493 11.7947 32.1516C10.0821 32.154 8.36957 32.154 6.65817 32.1504C5.90263 32.1493 5.62384 31.8668 5.62267 31.1145C5.62267 26.9719 5.6215 22.8282 5.62384 18.6856C5.62384 17.9602 5.90732 17.6754 6.63358 17.6743C8.37543 17.6708 10.1173 17.6708 11.858 17.6743C12.562 17.6754 12.8419 17.9567 12.8431 18.6622C12.8466 20.7551 12.8443 22.8493 12.8443 24.9422Z" fill="white"/>
<path d="M44.9789 25.6407C44.9672 26.1786 44.6779 26.4797 44.1449 26.5219C44.0149 26.5325 43.8825 26.5266 43.7501 26.5266H14.4889V23.2981H43.893C44.7154 23.2981 44.9789 23.5594 44.9813 24.3668C44.9824 24.7911 44.9883 25.2165 44.9789 25.6407Z" fill="white"/>
<path d="M24.0884 21.3608C24.0884 21.4593 24.0732 21.5589 24.0626 21.6784H22.4906V17.9741C22.4906 17.2628 22.22 16.889 21.7023 16.8784C21.1705 16.8679 20.8929 17.2487 20.8917 17.9905C20.8905 19.2046 20.8917 20.4175 20.8917 21.6667H14.4631V20.5839C14.4631 19.9698 14.4537 19.3546 14.4643 18.7394C14.4854 17.5851 14.0086 16.7378 12.9157 16.2245C12.993 15.328 13.3058 14.5065 13.8001 13.753C15.1378 11.7128 17.6926 10.7706 20.0307 11.4444C22.3817 12.1229 24.0415 14.2569 24.0814 16.705C24.1071 18.2565 24.0884 19.8081 24.0884 21.3608Z" fill="white"/>
<path d="M12.1192 13.514C11.7736 14.3273 11.4972 15.1699 11.1668 16.0769H10.5413C9.17901 16.0769 7.81785 16.0699 6.45553 16.0792C5.06392 16.0886 4.04833 17.0952 4.02842 18.4886C4.01319 19.5409 4.0249 20.5921 4.0249 21.6726H2.46344C2.44704 21.6316 2.41659 21.5917 2.41659 21.5519C2.42362 19.8245 2.33459 18.089 2.46579 16.3699C2.64384 14.0413 3.92651 12.4066 6.11583 11.605C8.30866 10.8023 10.2848 11.3003 11.9974 12.8812C12.2035 13.0722 12.2422 13.2234 12.1192 13.514Z" fill="white"/>
<path d="M41.1602 21.6879H30.8508C31.3733 20.8137 31.9426 19.9934 32.3713 19.1051C32.7883 18.2414 33.0718 17.3109 33.3916 16.4016C33.4783 16.1543 33.593 16.0687 33.8566 16.0711C35.4228 16.084 36.9889 16.0723 38.555 16.0863C38.698 16.0875 38.9123 16.1742 38.9721 16.2867C39.8682 17.9672 40.5991 19.7191 41.1508 21.5449C41.1625 21.5848 41.1567 21.6293 41.1602 21.6879Z" fill="white"/>
<path d="M16.1136 4.20815V9.93394C16.9277 9.83784 17.7067 9.67026 18.4845 9.67261C19.2752 9.67612 20.0658 9.84605 20.8718 9.94448V4.19995C19.2787 4.75659 17.702 4.77065 16.1136 4.20815ZM18.4587 8.02144C18.0323 8.0144 17.6809 7.67105 17.6704 7.24917C17.6586 6.81909 18.0335 6.43354 18.4657 6.42769C18.9038 6.423 19.2658 6.78745 19.2646 7.23394C19.2634 7.69097 18.9179 8.02964 18.4587 8.02144Z" fill="white"/>
<path d="M10.4207 5.6134H5.6906C5.42704 4.58801 5.77728 3.48527 6.58086 2.90402C7.4184 2.29699 8.32505 2.22785 9.22233 2.73527C10.327 3.36223 10.5437 4.40285 10.4207 5.6134Z" fill="white"/>
<path d="M10.6022 41.7562C10.1875 41.6941 9.96614 41.4293 9.90991 41.0215C9.71077 39.5883 9.51047 38.1562 9.3125 36.723C9.17897 35.7539 9.04894 34.7848 8.90955 33.7676H10.5202C10.7018 35.0648 10.8822 36.348 11.0602 37.6312C11.2031 38.659 11.3425 39.6867 11.4854 40.7145C11.5768 41.3777 11.1891 41.8441 10.6022 41.7562Z" fill="white"/>
<path d="M10.4172 7.24561V10.0405C8.82759 9.52725 7.24856 9.50615 5.64728 10.0511V7.24561H10.4172Z" fill="white"/>
<path d="M30.4912 8.07881C30.4853 8.30029 30.3014 8.57686 30.1163 8.72568C29.3784 9.321 28.6111 9.88115 27.845 10.4425C27.4233 10.7519 26.9606 10.6968 26.6771 10.3323C26.3995 9.97725 26.4698 9.49209 26.8728 9.17451C27.3765 8.77607 27.8895 8.38701 28.4143 8.0167C28.7692 7.76592 28.9262 7.45654 28.918 7.01709C28.8969 6.04092 28.911 5.06475 28.911 4.05811H30.5087C30.5087 5.42217 30.5263 6.75107 30.4912 8.07881Z" fill="white"/>
<path d="M38.5573 14.4316H33.7371C33.7371 13.8949 33.7254 13.384 33.7406 12.8742C33.7547 12.3914 34.0557 12.0656 34.5383 12.0562C35.6043 12.0375 36.6714 12.0387 37.7385 12.0551C38.2212 12.0633 38.5327 12.3785 38.5527 12.859C38.5737 13.3688 38.5573 13.8809 38.5573 14.4316Z" fill="white"/>
<path d="M36.9256 7.24927H35.3607V10.4286H36.9256V7.24927Z" fill="white"/>
<path d="M36.2814 32.2511C36.0975 33.6058 35.9101 34.9827 35.7226 36.3585C35.5282 37.7788 35.3326 39.1991 35.1369 40.6183C35.1159 40.7776 35.0936 40.9382 35.0608 41.0952C34.9589 41.5769 34.604 41.8312 34.1401 41.762C33.7207 41.6987 33.4314 41.339 33.4806 40.8726C33.5591 40.146 33.6715 39.423 33.7711 38.6987C34.0534 36.6409 34.3357 34.5831 34.618 32.5265C34.6403 32.3671 34.6625 32.2077 34.6942 32.0495C34.7914 31.5585 35.1299 31.3007 35.5961 31.3593C36.0213 31.4108 36.2954 31.7601 36.2814 32.2511Z" fill="white"/>
<path d="M18.3896 41.7715C17.8883 41.8032 17.5544 41.4903 17.5228 40.8891C17.4115 38.8125 17.319 36.736 17.2206 34.6594C17.1831 33.8696 17.1433 33.0797 17.1175 32.2899C17.0976 31.7157 17.3822 31.3723 17.866 31.3524C18.3603 31.3324 18.686 31.6817 18.7141 32.2594C18.7832 33.7078 18.8523 35.1551 18.9472 37.1297C18.9905 37.9922 19.0632 39.3809 19.1299 40.7707C19.1592 41.3637 18.8746 41.741 18.3896 41.7715Z" fill="white"/>
<path d="M27.8708 32.264C27.79 33.9585 27.7138 35.6531 27.6342 37.3476C27.5803 38.516 27.5311 39.6855 27.4667 40.8539C27.4362 41.4035 27.2125 41.6871 26.806 41.7585C26.2344 41.8593 25.8185 41.4609 25.8478 40.814C25.9123 39.3972 25.9884 37.9804 26.0599 36.5648C26.0587 36.5648 26.0587 36.5648 26.0575 36.5648C26.1278 35.1187 26.1969 33.6726 26.2684 32.2265C26.3 31.5726 26.792 31.1882 27.3519 31.3945C27.7478 31.541 27.8896 31.8562 27.8708 32.264Z" fill="white"/>
</g>
<defs>
<clipPath id="clip0_4638_218134">
<rect width="45" height="45" fill="white"/>
</clipPath>
</defs>
</svg>
