<svg width="45" height="45" viewBox="0 0 45 45" fill="none" xmlns="http://www.w3.org/2000/svg">
<g clip-path="url(#clip0_4638_218162)">
<path d="M28.4001 4.28467C28.4054 2.06191 26.9939 0.324316 24.9478 0.0439453C24.9214 0.0404297 24.8977 0.0149414 24.8731 0H6.41604C5.78763 0.25752 5.09593 0.420117 4.54397 0.791016C3.36185 1.58555 2.89778 2.79229 2.89954 4.19678C2.90218 8.59043 2.90042 12.9832 2.90042 17.376V39.7037H28.3887V39.2098C28.3887 27.5678 28.3755 15.9267 28.4001 4.28467ZM16.8698 36.1688C16.0453 35.8409 15.2622 35.5298 14.4255 35.1967C14.9406 33.8977 15.4486 32.6171 15.9733 31.2952H11.4117C12.419 28.7745 13.4077 26.3004 14.4194 23.77C15.2587 24.1058 16.0427 24.4187 16.8645 24.7474C16.3486 26.0446 15.8432 27.3155 15.315 28.6418H19.8809C18.8666 31.1766 17.8761 33.6542 16.8698 36.1688ZM23.1126 17.9306C23.1126 17.9719 23.0968 18.0132 23.0827 18.0844H8.17386V17.6379C8.17386 14.1521 8.17913 10.6673 8.16507 7.18242C8.16331 6.84316 8.25911 6.7043 8.58519 6.61025C11.4803 5.77266 14.4246 5.39648 17.4367 5.62676C19.2665 5.76738 21.0542 6.13389 22.8147 6.65068C23.0344 6.71484 23.1205 6.79834 23.1197 7.03565C23.1126 10.6673 23.1144 14.2989 23.1126 17.9306Z" fill="white"/>
<path d="M45 4.39453V9.84375C44.8629 10.3632 44.7785 10.9046 44.5799 11.3994C43.904 13.0878 42.6797 14.2093 40.943 14.7647C40.834 14.7999 40.7294 14.8465 40.6055 14.8939V15.4292C40.6055 21.2862 40.6099 27.1433 40.6029 33.0003C40.6011 35.1659 39.128 36.9624 37.0591 37.3597C34.4496 37.8598 31.9386 35.8418 31.914 33.1726C31.8832 29.9364 31.8982 26.7003 31.9096 23.4642C31.9122 22.7136 31.8138 22.0333 31.1388 21.5657C31.0729 21.52 31.0316 21.3935 31.0307 21.3047C31.0228 20.4565 31.0263 19.6084 31.0263 18.7567C33.0627 19.0767 34.5331 20.9101 34.5384 23.1372C34.5472 26.4023 34.5393 29.6684 34.5419 32.9335C34.5428 33.801 34.955 34.4382 35.6652 34.6957C36.7155 35.0771 37.8325 34.3775 37.9556 33.2587C37.9688 33.1427 37.9679 33.0249 37.9679 32.908C37.9688 27.022 37.9688 21.1351 37.9688 15.249V14.9897C37.2569 14.6153 36.5564 14.3367 35.9578 13.914C34.3925 12.8109 33.6287 11.2421 33.5839 9.34365C33.5461 7.76338 33.5751 6.18135 33.576 4.6002C33.576 4.54482 33.5901 4.48945 33.6006 4.4042H34.8926V0H37.5293V4.36377H41.0449V0H43.6817V4.39453H45Z" fill="white"/>
<path d="M31.2891 42.3633H0V45H31.2891V42.3633Z" fill="white"/>
<path d="M20.4785 15.4371H10.8105C10.8105 13.268 10.8079 11.1305 10.8211 8.993C10.8219 8.89632 10.9547 8.7346 11.0513 8.71263C13.5035 8.15716 15.9776 8.04291 18.4693 8.38919C19.0485 8.46917 19.6242 8.5808 20.1946 8.70824C20.3045 8.73285 20.4653 8.89457 20.4662 8.99388C20.482 11.1305 20.4785 13.268 20.4785 15.4371Z" fill="white"/>
</g>
<defs>
<clipPath id="clip0_4638_218162">
<rect width="45" height="45" fill="white"/>
</clipPath>
</defs>
</svg>
