<svg width="48" height="48" viewBox="0 0 48 48" fill="none" xmlns="http://www.w3.org/2000/svg">
<path d="M47.9773 5.45984C47.876 5.05995 47.6133 4.81869 47.1933 4.82269C46.7733 4.82535 46.5106 5.06795 46.4186 5.47051C46.3826 5.63046 46.3999 5.80241 46.3986 5.96903V14.384H44.7985V12.9698C44.7985 10.5544 44.8012 8.1391 44.7958 5.72244C44.7945 5.17059 44.4771 4.82269 44.0078 4.81735C43.5358 4.81069 43.2171 5.15726 43.1997 5.70377C43.1931 5.92904 43.1984 6.15565 43.1984 6.37559H41.569C40.9689 2.35271 37.7541 0.149316 34.6979 0.0120213C32.9658 -0.0652906 31.3417 0.203968 29.9177 1.25434C28.1909 2.52866 27.3295 4.28017 27.1788 6.41291H26.7855C24.568 6.41291 22.3519 6.41691 20.1358 6.41158C19.0971 6.40891 18.113 6.62485 17.2223 7.1607C15.3022 8.31771 14.3755 10.0412 14.4021 12.2726C14.4075 12.6925 14.3541 12.9644 13.9221 13.2204C12.3914 14.1321 12.4327 16.3102 13.9541 17.2459C14.0981 17.3352 14.2421 17.4219 14.5048 17.5831H11.194C11.194 17.2832 11.2033 17.0046 11.1926 16.726C11.142 15.4264 10.0766 14.4054 8.78183 14.412C7.49109 14.4187 6.41636 15.4491 6.40436 16.7527C6.38302 18.9188 6.38436 21.0848 6.40303 23.2509C6.41503 24.5585 7.47909 25.5929 8.76849 25.6062C10.0819 25.6182 11.1526 24.5825 11.194 23.2549C11.202 22.9803 11.1953 22.7044 11.1953 22.4551H14.4821C14.2195 22.6097 14.0595 22.6951 13.9088 22.7924C12.45 23.7334 12.3994 25.8782 13.8834 26.7646C14.4621 27.1098 14.4221 27.4817 14.3675 28.0069H13.7434C9.49253 28.0069 5.24296 28.0056 0.993392 28.0082C0.36269 28.0082 -0.00132976 28.3095 3.65044e-06 28.8094C0.00133706 29.2946 0.35869 29.6038 0.94939 29.6051C5.64832 29.6078 10.3486 29.6078 15.0475 29.6038C15.6995 29.6038 15.9862 29.3079 15.9956 28.6534C16.0022 28.1789 15.9969 27.703 15.9969 27.2191H20.7958C20.7958 28.3042 20.8065 29.3492 20.7945 30.3942C20.7665 32.643 19.0384 34.3718 16.7916 34.4025C16.0089 34.4131 15.2248 34.3958 14.4421 34.4105C13.9314 34.4198 13.5981 34.7544 13.6008 35.2089C13.6034 35.6635 13.9394 35.994 14.4515 35.9994C15.3689 36.01 16.2876 36.0367 17.201 35.982C19.7691 35.8287 21.9692 33.8466 22.2892 31.29C22.4479 30.025 22.3759 28.7307 22.3919 27.4497C22.3946 27.1925 22.4506 27.0432 22.7026 26.9112C23.5386 26.474 23.9867 25.7555 23.9893 24.8118C23.9907 23.8694 23.548 23.1429 22.7093 22.7111C22.4253 22.5644 22.3919 22.3898 22.3932 22.1245C22.4012 20.7423 22.4052 19.3586 22.3919 17.9764C22.3879 17.6498 22.4439 17.4445 22.7786 17.2752C23.4 16.9606 23.8107 16.4208 23.9173 15.7223C23.98 15.3078 23.9293 14.8746 23.9293 14.404C24.2387 14.404 24.5547 14.4267 24.8667 14.3987C25.3014 14.36 25.6174 14.0015 25.5894 13.5896C25.5614 13.1497 25.3081 12.8898 24.8747 12.8205C24.728 12.7978 24.5747 12.8111 24.4254 12.8111H16.0489C15.6875 10.1145 17.497 8.02046 20.1518 8.0138C22.3346 8.00713 24.5187 8.01247 26.7015 8.01247H27.1975C27.1975 10.6531 27.1895 13.2177 27.2055 15.7823C27.2082 16.1675 27.1108 16.3875 26.7562 16.6021C25.3467 17.4578 24.6747 18.7601 24.8401 20.389C25.0134 22.1019 25.9748 23.2789 27.6309 23.8081C28.0962 23.9574 28.6109 23.9787 29.1056 24C29.7963 24.0307 30.4897 24.008 31.1977 24.008C31.1977 24.9518 31.2071 25.8182 31.1884 26.6833C31.1857 26.8272 31.0924 26.9925 30.9937 27.1085C30.195 28.0549 30.195 29.1559 30.9951 30.101C31.0924 30.217 31.1777 30.3796 31.1897 30.5262C31.2564 31.358 30.7777 31.9645 30.055 32.0005C29.311 32.0391 28.8003 31.4699 28.7989 30.5915C28.7949 29.1759 28.8043 27.759 28.7923 26.3434C28.7883 25.8289 28.4563 25.5036 27.9962 25.5036C27.5349 25.5049 27.2055 25.8302 27.2028 26.346C27.1935 27.8949 27.1695 29.4452 27.2122 30.9941C27.2495 32.3497 28.3776 33.4721 29.7337 33.596C31.0937 33.72 32.3698 32.8176 32.6952 31.5006C32.7352 31.342 32.7725 31.1834 32.8178 30.9901C33.3325 31.162 33.8112 31.354 34.3059 31.4779C34.6433 31.5619 34.6926 31.7445 34.7046 32.0458C34.8299 35.2742 34.9526 38.504 35.11 41.7324C35.1726 42.9974 35.818 43.9412 36.9621 44.493C39.1315 45.5367 41.5863 43.9571 41.5943 41.5045C41.6077 36.8058 41.5983 32.1084 41.5983 27.4097C41.5983 27.3098 41.6063 27.2071 41.5877 27.1112C41.5023 26.6819 41.2423 26.4194 40.8009 26.418C40.3582 26.4167 40.0902 26.674 40.0116 27.1058C39.9822 27.2671 39.9982 27.4377 39.9982 27.6044V36.8511C39.9982 38.4174 40.0089 39.9836 39.9942 41.5485C39.9836 42.5842 39.1768 43.2987 38.1621 43.2067C37.3354 43.1307 36.734 42.4402 36.6967 41.5272C36.558 38.1321 36.4194 34.7357 36.2807 31.3407C36.2487 30.5649 36.138 30.4156 35.3873 30.1623C34.4739 29.8531 33.5605 29.5425 32.6418 29.2452C32.2618 29.1226 31.9311 28.9573 32.0164 28.4934C32.0951 28.0629 32.4405 27.9976 32.8245 28.0042C33.5565 28.0149 34.2899 28.0082 35.0233 28.0069C35.886 28.0056 36.1367 27.7563 36.1127 26.9112C36.0807 25.7622 36.038 24.6132 36.0033 23.4642C35.9793 22.6497 35.734 22.4098 34.9046 22.4085C32.9218 22.4071 30.9377 22.4218 28.9549 22.3978C28.5509 22.3925 28.1176 22.3112 27.7509 22.1485C26.7548 21.706 26.2188 20.5783 26.4441 19.5399C26.6922 18.4016 27.6269 17.6165 28.7989 17.6138C32.4325 17.6045 36.066 17.6098 39.6995 17.6125C39.7915 17.6125 39.8849 17.6391 39.9982 17.6578V20.5783C39.9982 21.71 39.9902 22.843 40.0036 23.976C40.0102 24.4786 40.3649 24.8158 40.8169 24.8038C41.2503 24.7931 41.5636 24.4652 41.5956 23.988C41.6037 23.8547 41.5983 23.7214 41.5983 23.5881V14.4107H43.1984C43.1984 14.62 43.1971 14.7679 43.1984 14.9159C43.2037 15.765 43.4491 16.0089 44.3038 16.0102C45.1705 16.0116 46.0372 16.0116 46.9039 16.0102C47.7493 16.0089 47.9987 15.7583 47.9987 14.9039C47.9987 11.9047 47.9987 8.90688 47.9973 5.90772C47.9973 5.75843 48.012 5.60247 47.9773 5.45984ZM9.5952 23.055C9.59387 23.6428 9.28185 24.0027 8.79916 24.004C8.31513 24.0054 8.00178 23.6468 7.99778 23.0603C7.99245 22.0272 7.99645 20.9942 7.99645 19.9611C7.99645 18.9614 7.99245 17.9617 7.99778 16.962C8.00178 16.3728 8.30847 16.0156 8.79383 16.0142C9.27785 16.0116 9.59387 16.3701 9.5952 16.958C9.5992 18.9894 9.5992 21.0222 9.5952 23.055ZM14.3688 20.7863H11.234V19.2413H14.3688V20.7863ZM21.6239 14.42C22.0692 14.4227 22.3919 14.7719 22.3892 15.1865C22.3879 15.6304 22.1439 15.8996 21.7199 15.9969C20.9105 16.1835 20.7972 16.3155 20.7972 17.1339V22.4085C20.0345 22.4085 19.3224 22.4058 18.6104 22.4098C17.973 22.4125 17.6103 22.6964 17.601 23.1936C17.5916 23.7054 17.9663 24.0054 18.6317 24.0067C19.5638 24.0094 20.4958 24.004 21.4292 24.0094C22.0239 24.012 22.3812 24.3079 22.3932 24.7891C22.4053 25.2863 22.0332 25.6049 21.4159 25.6062C19.4011 25.6102 17.385 25.6089 15.3702 25.6062C14.7928 25.6049 14.4488 25.3397 14.4035 24.8811C14.3595 24.4239 14.6568 24.104 15.2208 24.0067C15.7755 23.9107 15.9942 23.6441 15.9956 23.0336C15.9996 21.2528 15.9969 19.4719 15.9969 17.6098H17.7837C17.9837 17.6098 18.1837 17.6191 18.3837 17.6058C18.8597 17.5751 19.1851 17.2566 19.1931 16.8234C19.2011 16.3701 18.8664 16.0236 18.361 16.0156C17.361 16.0009 16.3622 16.0209 15.3635 16.0022C15.1422 15.9982 14.8328 15.9596 14.7248 15.8156C14.5568 15.5917 14.3901 15.2145 14.4715 14.9945C14.5621 14.7479 14.9275 14.444 15.1795 14.4387C17.3263 14.3947 19.4758 14.4067 21.6239 14.42ZM32.8285 24.032H34.4339V26.37H32.8285V24.032ZM39.6289 5.23057C39.7249 5.59714 39.8396 5.95837 39.9662 6.39158H34.4246V4.84268C34.5539 4.83335 34.6966 4.81469 34.8379 4.81469C36.2354 4.81202 37.6328 4.82802 39.0288 4.80402C39.3782 4.79736 39.5449 4.91333 39.6289 5.23057ZM31.1977 8.07645V15.9823H28.8269C28.8176 15.853 28.7989 15.7117 28.7989 15.569C28.7976 12.5885 28.7896 9.60936 28.8003 6.62885C28.8109 4.08956 30.4937 2.05145 32.9952 1.68222C34.8993 1.40097 36.7127 1.70089 38.2315 3.16981C38.0741 3.18847 37.9581 3.21247 37.8408 3.21247C36.4927 3.21513 35.1433 3.21113 33.7939 3.21513C33.0778 3.2178 32.8032 3.49639 32.7992 4.21485C32.7952 4.92799 32.7978 5.64112 32.7978 6.38492C31.1977 6.49822 31.1977 6.49822 31.1977 8.07645ZM34.3606 15.9902H32.8258V14.4347H34.3606V15.9902ZM39.9582 15.9756H36.0207V13.6376H39.9582V15.9756ZM43.1651 12.7831H41.633C41.3783 12.118 41.229 12.0127 40.5249 12.0114C38.8422 12.01 37.1607 12.01 35.478 12.0114C34.7686 12.0127 34.6139 12.1193 34.3632 12.7858H32.8258C32.8152 12.7005 32.8005 12.6378 32.8005 12.5752C32.7992 11.0783 32.7992 9.58136 32.7992 8.04846H43.1651V12.7831Z" fill="#4C40ED"/>
<path d="M20.4679 42.3776C19.8132 40.6301 18.6691 39.1985 17.389 37.8735C16.9943 37.4657 16.5116 37.4763 16.1316 37.9575C15.2476 39.0772 14.3755 40.2116 13.5835 41.3966C13.0741 42.1603 12.8221 43.0561 12.7981 43.8132C12.7981 46.1459 14.5209 47.9347 16.653 47.9974C19.6051 48.084 21.5439 45.2462 20.4679 42.3776ZM16.813 46.4005C15.2782 46.4098 14.1142 44.9902 14.4635 43.496C14.8209 41.9711 15.7956 40.8047 16.7943 39.5757C17.749 40.7128 18.6171 41.8138 19.0504 43.1734C19.5745 44.8156 18.4664 46.3912 16.813 46.4005Z" fill="#4C40ED"/>
<path d="M11.9927 35.2022C11.994 35.6994 11.626 36.0033 10.9979 36.0033C7.66576 36.006 4.33224 36.006 0.998726 36.0033C0.366691 36.0033 0.00133706 35.7061 3.65044e-06 35.2076C-0.00132976 34.7077 0.36269 34.4078 0.993392 34.4065C2.67615 34.4038 4.36025 34.4051 6.04301 34.4051C7.69243 34.4051 9.34319 34.4038 10.9926 34.4065C11.6246 34.4078 11.99 34.7037 11.9927 35.2022Z" fill="#4C40ED"/>
<path d="M38.3941 19.9985C38.4008 20.497 38.0315 20.8063 37.4074 20.8076C36.1247 20.8116 34.8406 20.809 33.5579 20.809C32.3085 20.809 31.0577 20.8116 29.8083 20.8076C29.1723 20.8063 28.8083 20.517 28.8016 20.0185C28.7949 19.5187 29.1616 19.2107 29.787 19.2107C32.3205 19.2081 34.8539 19.2081 37.3861 19.2107C38.0221 19.2107 38.3861 19.5013 38.3941 19.9985Z" fill="#4C40ED"/>
</svg>
