<svg width="48" height="48" viewBox="0 0 48 48" fill="none" xmlns="http://www.w3.org/2000/svg">
<path d="M46.6713 40.3248C44.2837 36.4072 44.2837 32.478 46.6662 28.5553C46.9009 28.1697 47.177 27.8099 47.404 27.4205C49.0835 24.541 47.0132 20.9239 43.6788 20.8968C42.5423 20.8865 41.6123 21.3894 40.69 21.9877C37.5943 23.9942 34.2534 24.492 30.6971 23.5081C29.2821 23.1174 28.0399 22.3836 26.8119 21.597C24.2979 19.9864 20.979 21.294 20.2811 24.1748C20.1186 24.844 20.1741 25.5662 20.1276 26.278H18.5527C17.9928 22.5629 15.1047 20.3642 12.138 20.1411C10.5939 20.0238 9.1557 20.3861 7.85934 21.2321C6.02768 22.4275 4.99446 24.1451 4.67843 26.2767H1.57492V21.6705C2.29082 21.6705 2.98092 21.6744 3.66973 21.6705C4.36886 21.6666 4.64232 21.3997 4.6449 20.7098C4.64877 19.517 4.65651 18.3242 4.63845 17.1314C4.63329 16.8167 4.73132 16.6955 5.0409 16.6091C7.1499 16.0237 9.24857 15.397 11.3602 14.8206C11.8993 14.6748 12.2502 14.3963 12.5469 13.9334C14.6249 10.6902 16.73 7.46639 18.8132 4.22839C19.9741 2.42435 21.6072 1.54102 23.7523 1.54747C27.7691 1.56036 31.7845 1.55005 35.8013 1.55134C38.4392 1.55134 40.2321 2.7506 41.237 5.18522C42.4521 8.13179 43.6697 11.0758 44.8797 14.0249C45.0151 14.3563 45.1841 14.6723 45.5672 14.6864C46.3656 14.7174 47.1667 14.6955 47.9651 14.6955V13.1584C47.4956 13.1584 47.0596 13.1364 46.6275 13.1661C46.3037 13.188 46.1554 13.0771 46.0315 12.7715C44.9171 10.0274 43.7858 7.29102 42.6546 4.55335C41.4343 1.59905 39.0454 0.00519718 35.8426 0.00390765C31.8258 0.00261813 27.8103 0.0129343 23.7948 3.9076e-05C21.0525 -0.00769808 18.9629 1.13353 17.482 3.43791C15.453 6.59596 13.4085 9.74498 11.3537 12.8863C11.2118 13.1029 10.9448 13.3015 10.6971 13.3737C7.37563 14.3447 4.04896 15.2964 0.721002 16.2403C0.254055 16.3731 -0.00134608 16.6272 -5.6173e-05 17.1249C0.00123373 20.4132 -0.00263599 23.7015 0.00381355 26.9911C0.00381355 27.5636 0.297912 27.8538 0.870631 27.8589C1.96834 27.868 3.06476 27.8615 4.16118 27.8615H4.66296C5.28469 31.8191 8.34564 33.8707 11.177 34.0409C12.7223 34.1325 14.1528 33.7547 15.4414 32.892C17.2292 31.6953 18.2341 29.9983 18.5527 27.8628C19.3253 27.8628 20.0657 27.8512 20.8048 27.8731C20.9313 27.8783 21.0925 28.0034 21.1725 28.1181C23.0093 30.772 23.6452 33.6708 22.95 36.8431C22.5862 38.4962 21.7465 39.9121 20.8294 41.3074C19.6955 43.0289 19.9535 45.2301 21.3827 46.6821C22.8081 48.1329 24.9932 48.3959 26.7552 47.3243C27.168 47.0729 27.5562 46.7789 27.9832 46.5545C28.6849 46.1857 29.4098 45.8568 30.2173 45.4674V47.9575H31.7433C31.7433 47.0045 31.7265 46.0735 31.7497 45.1437C31.7613 44.6731 31.5898 44.3571 31.1963 44.1005C29.9271 43.2739 28.6694 42.4293 27.4156 41.5808C27.284 41.4918 27.1164 41.3332 27.1125 41.2017C27.0867 40.348 27.0841 39.493 27.1099 38.6394C27.1228 38.2151 27.4775 37.9211 27.88 37.925C28.2837 37.9301 28.6152 38.2267 28.6359 38.6574C28.6617 39.2042 28.6449 39.7535 28.6462 40.3016V40.9902H30.1941V31.3484C30.1941 31.2517 30.1915 31.155 30.1954 31.0583C30.2121 30.527 30.5114 30.1891 30.9654 30.1865C31.4195 30.1852 31.7368 30.5218 31.7394 31.0518C31.7471 32.647 31.7433 34.2434 31.7433 35.8398V36.3505H33.2911V29.8126C33.2911 29.6669 33.2834 29.5211 33.2976 29.378C33.3376 28.9473 33.6484 28.6481 34.0496 28.6391C34.4701 28.6301 34.7965 28.9409 34.8352 29.3948C34.8468 29.5224 34.839 29.6527 34.839 29.7816C34.8403 31.7972 34.8403 33.8114 34.8403 35.8269V36.3376H36.3882C36.3882 34.5787 36.3856 32.8546 36.3895 31.1305C36.3908 30.5334 36.7004 30.1736 37.1828 30.1865C37.6472 30.2007 37.9335 30.5476 37.9348 31.124C37.94 32.3645 37.9361 33.6064 37.9361 34.8482V36.3427H39.4853C39.4853 35.6038 39.4801 34.8972 39.4866 34.1905C39.4917 33.6244 39.7974 33.2762 40.267 33.2827C40.7339 33.2878 41.0228 33.636 41.0332 34.2073C41.0344 34.3195 41.0332 34.4329 41.0332 34.5451C41.0332 36.5117 40.9635 38.4821 41.059 40.4447C41.1183 41.6878 40.899 42.6936 39.8464 43.4622C39.6349 43.6169 39.5136 44.0115 39.5008 44.303C39.4595 45.3011 39.4853 46.3017 39.4853 47.3011V47.9433H41.0499V47.1451C41.2486 47.2573 41.3956 47.3463 41.5491 47.4262C43.137 48.2541 44.7029 48.2025 46.158 47.1683C47.6117 46.1354 48.1818 44.6782 47.9303 42.9038C47.7897 41.9045 47.1731 41.1475 46.6713 40.3248ZM1.58653 17.6098C2.0509 17.477 2.55009 17.3326 3.07637 17.1817V20.0973H1.58653V17.6098ZM11.5988 32.5038C8.62039 32.4961 6.19021 30.0537 6.19536 27.0736C6.20052 24.0974 8.64619 21.6654 11.6272 21.6731C14.6056 21.6795 17.0383 24.1232 17.0306 27.102C17.0241 30.0782 14.5785 32.5103 11.5988 32.5038ZM45.6291 45.617C44.7004 46.5429 43.3008 46.6963 42.1631 45.9935C41.9438 45.8581 41.7323 45.7086 41.5143 45.5719C40.881 45.1734 40.8306 44.6511 41.3621 44.1044C42.8622 42.5634 42.5578 43.2984 42.5772 41.1398C42.5965 38.9321 42.5062 36.7206 42.6068 34.5168C42.6829 32.8352 41.4691 31.3716 39.5175 31.8204C39.2828 29.1485 38.5307 28.4302 36.3069 28.7474C35.8839 27.7055 35.1422 27.0543 33.9645 27.0994C32.8964 27.1394 32.2205 27.7622 31.8258 28.7603C31.6078 28.7216 31.3924 28.6662 31.1744 28.6456C29.8213 28.5179 28.6617 29.5779 28.6501 30.9731C28.6359 32.6173 28.6462 34.2601 28.6462 35.9043V36.4433C28.1896 36.4433 27.751 36.3737 27.3434 36.4575C26.296 36.6729 25.5749 37.5704 25.5556 38.6342C25.5362 39.6491 25.5569 40.6652 25.5465 41.6801C25.5427 42.0824 25.7374 42.3377 26.0561 42.5466C26.9577 43.1385 27.8516 43.7407 28.8139 44.3829C28.4179 44.5764 28.067 44.7259 27.7394 44.9142C27.1821 45.2366 26.6339 45.5744 26.0909 45.92C24.8745 46.6963 23.4685 46.5803 22.4985 45.6144C21.5324 44.6511 21.3853 43.2172 22.1979 42.0321C23.2647 40.4757 24.1289 38.8405 24.5069 36.972C25.157 33.7443 24.6126 30.732 22.9009 27.9273C22.6662 27.5417 22.4017 27.1755 22.1592 26.7951C21.4085 25.6177 21.5504 24.198 22.5114 23.2515C23.4595 22.3166 24.8706 22.1567 26.0161 22.9239C27.5007 23.9207 29.0641 24.7344 30.8119 25.1432C34.741 26.0613 38.3927 25.3934 41.7452 23.1509C42.5256 22.6286 43.3227 22.2946 44.2824 22.5216C46.1012 22.951 47.0028 24.9562 46.0922 26.5888C45.8729 26.9821 45.5943 27.3418 45.3608 27.7274C42.652 32.1956 42.652 36.669 45.3543 41.1411C45.562 41.4854 45.8045 41.809 46.0148 42.152C46.7165 43.2946 46.5578 44.6911 45.6291 45.617Z" fill="#4C40ED"/>
<path d="M42.4405 13.4215C41.4498 10.8373 40.4631 8.25306 39.4595 5.67401C38.8197 4.02986 37.4473 3.1014 35.684 3.10012C31.8955 3.09625 28.1058 3.1014 24.3173 3.09754C22.7849 3.09625 21.6214 3.74488 20.8204 5.04601C19.8994 6.54057 18.9797 8.03642 18.06 9.53098C17.2589 10.8347 16.4476 12.1319 15.6582 13.4421C15.2635 14.0985 15.6001 14.6788 16.3625 14.7058C16.4914 14.7097 16.6204 14.7058 16.7494 14.7058H29.0358C33.2125 14.7058 37.3879 14.7071 41.5647 14.7058C42.4444 14.7058 42.7565 14.2468 42.4405 13.4215ZM28.6269 13.1275H17.7001C17.7697 12.9934 17.8252 12.8683 17.8962 12.7535C19.2957 10.4762 20.7043 8.20406 22.0948 5.9216C22.6211 5.06019 23.3563 4.63078 24.3715 4.64239C25.7723 4.65786 27.1732 4.64626 28.6269 4.64626V13.1275ZM30.2277 13.1262V4.65399C32.1638 4.65399 34.0638 4.62562 35.9639 4.6656C36.8294 4.68494 37.5414 5.13756 37.8691 5.94352C38.83 8.30851 39.733 10.698 40.6772 13.1262H30.2277Z" fill="#4C40ED"/>
<path d="M8.49016 3.87253C8.34569 3.86092 8.19864 3.86092 8.05675 3.83642C6.55143 3.57851 5.52595 2.42697 5.42276 0.879539C5.38535 0.331491 5.10286 0.0116883 4.65268 0.00653021C4.18832 0.00137211 3.90583 0.326332 3.86713 0.911777C3.76007 2.54689 2.54627 3.76163 0.913245 3.86866C0.325047 3.90734 0.0012807 4.18588 0.00386051 4.65011C0.00773023 5.11434 0.328917 5.38514 0.922274 5.42383C2.5295 5.52828 3.7562 6.7443 3.86584 8.33944C3.9097 8.96615 4.18703 9.29627 4.66042 9.28595C5.11963 9.27564 5.38148 8.95326 5.42534 8.35621C5.49886 7.32717 5.93485 6.46834 6.82489 5.95382C7.31892 5.66755 7.92776 5.55407 8.49918 5.43027C8.95968 5.33098 9.27571 5.08468 9.28732 4.66687C9.29893 4.23101 8.9829 3.91637 8.49016 3.87253ZM4.63205 5.70236C4.31989 5.39932 3.90196 4.99183 3.54981 4.65011C3.89551 4.31097 4.30183 3.90863 4.67461 3.54241C4.98548 3.88284 5.37761 4.31612 5.70009 4.67074C5.38922 4.9712 4.97645 5.36838 4.63205 5.70236Z" fill="#4C40ED"/>
<path d="M8.48369 37.1448C8.18186 37.1126 7.87228 37.0817 7.58463 36.994C6.34632 36.6136 5.50917 35.5162 5.42404 34.1983C5.38534 33.6077 5.11059 33.284 4.64751 33.2827C4.22571 33.2814 3.88518 33.5819 3.87873 34.0487C3.85938 35.7702 2.45338 37.1461 0.762315 37.1565C0.299238 37.159 -0.00131005 37.5098 0.00384958 37.9315C0.0102991 38.3518 0.313427 38.6497 0.782953 38.6949C2.66751 38.8767 3.70588 39.9083 3.87228 41.7652C3.91614 42.2578 4.23087 42.5737 4.66686 42.5609C5.08479 42.5492 5.37502 42.2423 5.41888 41.7704C5.59172 39.9006 6.62236 38.8715 8.50304 38.6949C8.97257 38.6497 9.27828 38.3544 9.28731 37.9366C9.29505 37.4995 8.98031 37.199 8.48369 37.1448ZM4.65267 38.9979C4.30827 38.6562 3.90969 38.2603 3.5756 37.9289C3.89421 37.6039 4.30182 37.1874 4.63848 36.8431C4.96354 37.1784 5.36212 37.5897 5.69621 37.934C5.39953 38.2371 4.99063 38.6536 4.65267 38.9979Z" fill="#4C40ED"/>
<path d="M17.7659 42.5647C15.9522 42.4151 14.8623 41.3242 14.7101 39.5098C14.6688 39.0082 14.367 38.6961 13.9297 38.7C13.4937 38.7039 13.2009 39.0159 13.1609 39.5227C13.0216 41.2958 11.8878 42.4383 10.1412 42.5634C9.60591 42.6021 9.28343 42.9038 9.29504 43.3565C9.30536 43.791 9.61881 44.0747 10.1296 44.1134C11.8929 44.2449 13.028 45.3784 13.1609 47.1425C13.1996 47.6532 13.4834 47.9678 13.9181 47.9781C14.3682 47.9884 14.6249 47.6557 14.7255 47.1335C14.8287 46.5906 14.9487 46.0155 15.2222 45.5474C15.7588 44.6266 16.6359 44.1766 17.7052 44.1134C18.2534 44.0812 18.5733 43.7949 18.5772 43.3449C18.5811 42.9064 18.2689 42.606 17.7659 42.5647ZM13.9413 44.4268C13.6072 44.0902 13.2035 43.684 12.8591 43.3384C13.1802 43.0096 13.5891 42.5944 13.9323 42.2449C14.2689 42.5866 14.6714 42.9941 15.0145 43.3449C14.6946 43.6672 14.2831 44.0825 13.9413 44.4268Z" fill="#4C40ED"/>
<path d="M30.1554 16.2803H27.119V17.7671H30.1554V16.2803Z" fill="#4C40ED"/>
<path d="M42.5553 16.2545H39.5034V17.7633H42.5553V16.2545Z" fill="#4C40ED"/>
<path d="M11.6117 23.2206C9.49753 23.2206 7.75874 24.9434 7.74455 27.053C7.72907 29.1885 9.46012 30.9461 11.5898 30.9552C13.7258 30.9655 15.4788 29.2298 15.4827 27.0982C15.4866 24.9627 13.7478 23.2193 11.6117 23.2206ZM11.6246 29.4077C10.3411 29.4142 9.28728 28.3593 9.29244 27.075C9.2976 25.8125 10.3373 24.7732 11.6014 24.768C12.8874 24.7629 13.94 25.8151 13.9348 27.0995C13.9284 28.3632 12.8887 29.4026 11.6246 29.4077Z" fill="#4C40ED"/>
</svg>
