<svg width="24" height="25" viewBox="0 0 24 25" fill="none" xmlns="http://www.w3.org/2000/svg">
<g clip-path="url(#clip0_7170_281717)">
<path d="M11.9998 2.23047H8.6998C6.7998 2.23047 5.2998 3.73047 5.2998 5.53047C5.2998 7.33047 6.7998 8.83047 8.5998 8.83047H11.9998V2.23047Z" stroke="#FF008A" stroke-miterlimit="10"/>
<path d="M12.0004 8.93066H8.70039C6.90039 8.93066 5.40039 10.4307 5.40039 12.2307C5.40039 14.0307 6.90039 15.5307 8.70039 15.5307H12.0004V8.93066Z" stroke="#FF008A" stroke-miterlimit="10"/>
<path d="M12.0004 15.5303H8.70039C6.90039 15.5303 5.40039 17.0303 5.40039 18.8303C5.40039 20.6303 6.90039 22.1303 8.70039 22.1303C10.5004 22.1303 12.0004 20.6303 12.0004 18.8303V15.5303Z" stroke="#FF008A" stroke-miterlimit="10"/>
<path d="M12 2.23047H15.3C17.1 2.23047 18.6 3.73047 18.6 5.53047C18.6 7.33047 17.1 8.83047 15.3 8.83047H12V2.23047Z" stroke="#FF008A" stroke-miterlimit="10"/>
<path d="M15.3 8.93066C17.1 8.93066 18.6 10.4307 18.6 12.2307C18.6 14.0307 17.1 15.5307 15.3 15.5307C13.5 15.5307 12 14.0307 12 12.2307C12 10.4307 13.5 8.93066 15.3 8.93066Z" stroke="#FF008A" stroke-miterlimit="10"/>
</g>
<defs>
<clipPath id="clip0_7170_281717">
<rect width="24" height="24" fill="white" transform="translate(0 0.230469)"/>
</clipPath>
</defs>
</svg>
