<svg width="48" height="48" viewBox="0 0 48 48" fill="none" xmlns="http://www.w3.org/2000/svg">
<path d="M46.9072 3.20826C44.0085 3.20693 41.1084 3.20027 38.2097 3.21759C37.8392 3.21893 37.5953 3.10696 37.3541 2.83506C36.6584 2.04998 35.9214 1.3009 35.2284 0.513162C34.9032 0.143952 34.5433 0 34.0515 0C26.287 0.011996 18.5224 0.00799733 10.7566 0.00933022C9.83698 0.00933022 9.60641 0.238587 9.60641 1.15695C9.60508 4.82239 9.60108 8.48784 9.61308 12.1533C9.61441 12.4892 9.52245 12.6251 9.1946 12.7504C3.89295 14.7684 0.790331 18.5765 0.0946405 24.2213C-0.622374 30.0367 2.82276 35.8294 8.23769 38.094C8.68149 38.2806 9.13462 38.4445 9.60508 38.6271C9.60508 40.2972 9.60508 41.962 9.60641 43.6268C9.60641 44.5785 9.82898 44.7997 10.7832 44.7997C13.0316 44.8011 15.2799 44.7997 17.6042 44.7997V46.895C17.6069 47.7481 17.8534 47.9987 18.6997 48H46.8938C47.7481 48 48 47.7507 48 46.9044V4.3159C48 3.46018 47.7521 3.20826 46.9072 3.20826ZM35.227 2.88437C37.558 5.4062 39.825 7.86005 42.1559 10.3832H35.227V2.88437ZM1.6073 25.5541C1.61397 18.963 7.01157 13.5981 13.6273 13.6061C20.2523 13.6141 25.6153 19.007 25.602 25.6501C25.5886 32.2266 20.2017 37.6075 13.6353 37.6008C6.97158 37.5955 1.59931 32.2146 1.6073 25.5541ZM11.223 43.1736V38.9883C14.2897 39.5108 17.1897 39.047 19.8778 37.6621C21.7317 39.5175 23.5589 41.3476 25.3834 43.1736H11.223ZM19.2435 46.3899V44.8277C19.3741 44.8197 19.518 44.8011 19.6606 44.8011C22.0222 44.7997 24.3838 44.7931 26.7441 44.8131C26.976 44.8144 27.2466 44.9424 27.4265 45.097C27.8623 45.4715 28.2555 45.8954 28.7566 46.3899H19.2435ZM32.6588 45.7341C31.6753 46.2086 30.6384 46.0113 29.7868 45.1636C27.6517 43.0377 25.5233 40.905 23.391 38.7751C22.7326 38.118 22.0715 37.4622 21.4625 36.8557C22.6046 35.7148 23.7068 34.6138 24.841 33.4808C24.8436 33.4808 24.9289 33.5395 25.0022 33.6128C27.745 36.3559 30.4918 39.095 33.2253 41.8461C34.474 43.1043 34.1875 44.997 32.6588 45.7341ZM26.0178 32.3599C25.8885 32.2306 25.7272 32.1346 25.6166 32.0507C27.9942 26.955 27.8356 22.0873 24.5544 17.5955C21.2852 13.121 16.7099 11.4882 11.2324 12.1773V1.63679H33.6024V2.19394C33.6024 5.09297 33.6011 7.992 33.6024 10.891C33.6024 11.7667 33.8463 12.0053 34.7366 12.0067H43.1648V43.1869H35.6215C35.5909 43.1123 35.5455 43.0417 35.5336 42.9643C35.3883 42.0207 34.9232 41.2582 34.2541 40.5918C31.5047 37.8514 28.7646 35.1016 26.0178 32.3599ZM46.3754 46.3619H34.5966C34.8445 45.8967 35.0684 45.4209 35.3523 44.981C35.4283 44.8624 35.6815 44.8091 35.8547 44.8077C38.4536 44.7971 41.0524 44.8011 43.6526 44.7997C44.5669 44.7997 44.8001 44.5665 44.8001 43.6481C44.8001 32.9504 44.7988 22.2539 44.8081 11.5575C44.8081 11.0896 44.6708 10.7378 44.3536 10.3979C42.725 8.65845 41.1164 6.9017 39.5011 5.15028C39.4252 5.06764 39.3559 4.97834 39.2319 4.83172H46.3754V46.3619Z" fill="#4C40ED"/>
<path d="M31.1795 8.04272H14.4469V9.58088H31.1795V8.04272Z" fill="#4C40ED"/>
<path d="M41.5775 14.4326H27.2252V15.9708H41.5775V14.4326Z" fill="#4C40ED"/>
<path d="M41.5788 18.4299H27.2346V19.9708H41.5788V18.4299Z" fill="#4C40ED"/>
<path d="M41.5775 22.4377H28.8432V23.9786H41.5775V22.4377Z" fill="#4C40ED"/>
<path d="M31.1902 4.04932H21.6371V5.57148H31.1902V4.04932Z" fill="#4C40ED"/>
<path d="M41.5789 26.4392H33.6424V27.9774H41.5789V26.4392Z" fill="#4C40ED"/>
<path d="M19.1635 4.0332H14.4269V5.57269H19.1635V4.0332Z" fill="#4C40ED"/>
<path d="M31.9805 26.4392H28.8432V27.9774H31.9805V26.4392Z" fill="#4C40ED"/>
<path d="M13.7539 15.2069C7.87782 15.1829 3.21723 19.8014 3.2079 25.6541C3.1999 31.3295 7.88049 35.9866 13.6059 36.0013C19.2954 36.0159 23.9933 31.3388 24.0027 25.6514C24.012 19.9426 19.3874 15.2295 13.7539 15.2069ZM13.5553 34.4018C8.76276 34.3912 4.80985 30.4325 4.80719 25.6407C4.80452 20.7664 8.74677 16.797 13.5793 16.8077C18.4851 16.817 22.4007 20.7397 22.4007 25.6407C22.4007 30.4765 18.4265 34.4111 13.5553 34.4018Z" fill="#4C40ED"/>
</svg>
