<svg width="23" height="30" viewBox="0 0 23 30" fill="none" xmlns="http://www.w3.org/2000/svg">
<path fill-rule="evenodd" clip-rule="evenodd" d="M7.15622 1.875C7.15622 0.839465 7.97051 0 8.97498 0H10.1875C10.6533 0 11.0782 0.180533 11.4 0.477433C11.7218 0.180533 12.1467 0 12.6125 0H13.825C14.8295 0 15.6438 0.839465 15.6438 1.875V2.60669C15.8334 2.53759 16.0375 2.5 16.25 2.5H17.4625C18.467 2.5 19.2813 3.33946 19.2813 4.37499V8.74999H20.9811C22.0526 8.74999 22.8919 9.70017 22.7919 10.8L21.0974 29.4333C21.0662 29.777 20.7706 30.0294 20.4372 29.9972C20.1039 29.965 19.859 29.6603 19.8902 29.3166L21.5847 10.6833C21.618 10.3167 21.3383 9.99999 20.9811 9.99999H19.238C19.1447 10.4885 18.9048 10.9434 18.5594 11.3471C18.1123 11.8698 17.4843 12.3141 16.7395 12.6722C15.9917 13.0317 15.1195 13.3077 14.1768 13.4903C13.2331 13.6732 12.2289 13.7606 11.2217 13.749C10.2146 13.7373 9.21898 13.6266 8.29206 13.4217C7.36633 13.217 6.51793 12.9202 5.80065 12.5412C5.08655 12.1639 4.49316 11.7001 4.08882 11.1573C3.82341 10.801 3.64061 10.4108 3.56202 9.99999H1.81892C1.46174 9.99999 1.18198 10.3167 1.21531 10.6833L2.80673 28.1833C2.83594 28.5045 3.09744 28.75 3.41034 28.75H17.4625C17.7974 28.75 18.0688 29.0298 18.0688 29.375C18.0688 29.7201 17.7974 30 17.4625 30H3.41034C2.47163 30 1.68714 29.2635 1.59952 28.3L0.00809743 10.8C-0.0919212 9.70017 0.747391 8.74999 1.81892 8.74999H3.51869V4.37499C3.51869 3.33946 4.33298 2.5 5.33745 2.5H6.54996C6.76254 2.5 6.96659 2.53759 7.15622 2.60669V1.875ZM4.7312 9.27231C4.73973 9.32534 4.74172 9.38039 4.73635 9.43643C4.70846 9.72743 4.79253 10.0497 5.05049 10.396C5.31389 10.7496 5.74559 11.1075 6.35367 11.4288C6.59914 11.5585 6.86754 11.6791 7.15622 11.7891V4.37499C7.15622 4.02982 6.88479 3.74999 6.54996 3.74999H5.33745C5.00263 3.74999 4.7312 4.02982 4.7312 4.37499V9.27231ZM8.30963 12.1445C8.38762 12.1635 8.46653 12.1818 8.54633 12.1995C9.2552 12.3562 10.0153 12.4536 10.7937 12.487V1.875C10.7937 1.52982 10.5223 1.25 10.1875 1.25H8.97498C8.64015 1.25 8.36873 1.52982 8.36873 1.875V11.875C8.36873 11.9715 8.34751 12.0629 8.30963 12.1445ZM12.0063 12.487C12.6741 12.4584 13.33 12.3825 13.9528 12.2618C14.1156 12.2303 14.2752 12.1959 14.4313 12.1587V1.875C14.4313 1.52982 14.1598 1.25 13.825 1.25H12.6125C12.2777 1.25 12.0063 1.52982 12.0063 1.875V12.487ZM15.6438 11.7891C15.8485 11.7111 16.0432 11.6277 16.227 11.5393C16.8698 11.2302 17.3444 10.8775 17.6501 10.5203C17.951 10.1685 18.0679 9.83853 18.0688 9.54692V4.37499C18.0688 4.02982 17.7974 3.74999 17.4625 3.74999H16.25C15.9152 3.74999 15.6438 4.02982 15.6438 4.37499V11.7891Z" fill="#4C40ED"/>
<path d="M13.967 22.0715C14.5364 20.8218 14.0154 19.3328 12.8031 18.7458C11.5909 18.1587 10.1466 18.6959 9.57716 19.9456C9.00771 21.1953 9.52877 22.6842 10.741 23.2713C11.044 23.4181 11.1743 23.7903 11.0319 24.1027C10.8896 24.4152 10.5285 24.5494 10.2254 24.4027C8.40713 23.5221 7.62554 21.2886 8.47971 19.4141C9.33389 17.5396 11.5004 16.7338 13.3187 17.6144C15.137 18.495 15.9186 20.7284 15.0644 22.603C14.6473 23.5183 13.9161 24.1795 13.067 24.5129C12.7541 24.6357 12.4038 24.4738 12.2847 24.1512C12.1655 23.8287 12.3226 23.4676 12.6355 23.3447C13.2028 23.122 13.6887 22.6821 13.967 22.0715Z" fill="#4C40ED"/>
</svg>
