<svg width="26" height="26" viewBox="0 0 26 26" fill="none" xmlns="http://www.w3.org/2000/svg">
<path d="M20.5833 3.25H5.41667C4.22005 3.25 3.25 4.22005 3.25 5.41667V20.5833C3.25 21.78 4.22005 22.75 5.41667 22.75H20.5833C21.78 22.75 22.75 21.78 22.75 20.5833V5.41667C22.75 4.22005 21.78 3.25 20.5833 3.25Z" stroke="#28283C" stroke-width="1.5" stroke-linecap="round" stroke-linejoin="round"/>
<path d="M9.20837 10.8333C10.1058 10.8333 10.8334 10.1057 10.8334 9.20825C10.8334 8.31079 10.1058 7.58325 9.20837 7.58325C8.31091 7.58325 7.58337 8.31079 7.58337 9.20825C7.58337 10.1057 8.31091 10.8333 9.20837 10.8333Z" stroke="#28283C" stroke-width="1.5" stroke-linecap="round" stroke-linejoin="round"/>
<path d="M22.75 16.2499L17.3333 10.8333L5.41663 22.7499" stroke="#28283C" stroke-width="1.5" stroke-linecap="round" stroke-linejoin="round"/>
</svg>
