<svg width="20" height="21" viewBox="0 0 20 21" fill="none" xmlns="http://www.w3.org/2000/svg">
<path d="M9.99996 19.0287C14.6023 19.0287 18.3333 15.2978 18.3333 10.6954C18.3333 6.09302 14.6023 2.36206 9.99996 2.36206C5.39759 2.36206 1.66663 6.09302 1.66663 10.6954C1.66663 15.2978 5.39759 19.0287 9.99996 19.0287Z" stroke="#74788D" stroke-width="1.5" stroke-linecap="round" stroke-linejoin="round"/>
<path d="M6.66667 3.19531H7.5C5.875 8.06198 5.875 13.3286 7.5 18.1953H6.66667" stroke="#74788D" stroke-width="1.5" stroke-linecap="round" stroke-linejoin="round"/>
<path d="M12.5 3.19531C14.125 8.06198 14.125 13.3286 12.5 18.1953" stroke="#74788D" stroke-width="1.5" stroke-linecap="round" stroke-linejoin="round"/>
<path d="M2.5 14.0286V13.1953C7.36667 14.8203 12.6333 14.8203 17.5 13.1953V14.0286" stroke="#74788D" stroke-width="1.5" stroke-linecap="round" stroke-linejoin="round"/>
<path d="M2.5 8.19531C7.36667 6.57031 12.6333 6.57031 17.5 8.19531" stroke="#74788D" stroke-width="1.5" stroke-linecap="round" stroke-linejoin="round"/>
</svg>
