<svg width="36" height="36" viewBox="0 0 36 36" fill="none" xmlns="http://www.w3.org/2000/svg">
<path d="M18 33C26.2843 33 33 26.2843 33 18C33 9.71573 26.2843 3 18 3C9.71573 3 3 9.71573 3 18C3 26.2843 9.71573 33 18 33Z" stroke="#203066" stroke-width="1.8" stroke-linecap="round" stroke-linejoin="round"/>
<path d="M12.0004 4.5H13.5004C10.5754 13.26 10.5754 22.74 13.5004 31.5H12.0004" stroke="#203066" stroke-width="1.8" stroke-linecap="round" stroke-linejoin="round"/>
<path d="M22.5 4.5C25.425 13.26 25.425 22.74 22.5 31.5" stroke="#203066" stroke-width="1.8" stroke-linecap="round" stroke-linejoin="round"/>
<path d="M4.5 24V22.5C13.26 25.425 22.74 25.425 31.5 22.5V24" stroke="#203066" stroke-width="1.8" stroke-linecap="round" stroke-linejoin="round"/>
<path d="M4.5 13.5004C13.26 10.5754 22.74 10.5754 31.5 13.5004" stroke="#203066" stroke-width="1.8" stroke-linecap="round" stroke-linejoin="round"/>
</svg>
