<svg width="180" height="53" viewBox="0 0 180 53" fill="none" xmlns="http://www.w3.org/2000/svg">
<rect width="144" height="41.6" rx="8" transform="matrix(1.25 0 0 -1.25 0 52.75)" fill="#203066"/>
<path d="M66.505 15.7091C66.505 16.6604 66.2133 17.4224 65.6386 17.9907C64.9777 18.6643 64.1171 19.0033 63.0624 19.0033C62.0544 19.0033 61.1938 18.6586 60.4877 17.9793C59.7803 17.29 59.4272 16.444 59.4272 15.4313C59.4272 14.4187 59.7803 13.5727 60.4877 12.8891C61.1938 12.204 62.0544 11.8594 63.0624 11.8594C63.5642 11.8594 64.0427 11.9605 64.4993 12.1485C64.9544 12.3379 65.3249 12.5943 65.5933 12.9105L64.9836 13.5115C64.5153 12.9717 63.8779 12.7054 63.0624 12.7054C62.3272 12.7054 61.6898 12.956 61.1486 13.4616C60.6132 13.9687 60.3448 14.6252 60.3448 15.4313C60.3448 16.2375 60.6132 16.8997 61.1486 17.4067C61.6898 17.9066 62.3272 18.163 63.0624 18.163C63.8428 18.163 64.4993 17.9066 65.0171 17.401C65.3585 17.0663 65.5525 16.6049 65.6035 16.0153H63.0624V15.1921H66.4525C66.4934 15.3701 66.505 15.5424 66.505 15.7091Z" fill="white"/>
<path d="M71.8834 12.8549H68.699V15.0197H71.5698V15.8429H68.699V18.0078H71.8834V18.8466H67.7975V12.016H71.8834V12.8549Z" fill="white"/>
<path d="M75.679 18.8466H74.7775V12.8549H72.8243V12.016H77.6337V12.8549H75.679V18.8466Z" fill="white"/>
<path d="M81.1143 18.8466V12.016H82.0143V18.8466H81.1143Z" fill="white"/>
<path d="M86.004 18.8466H85.1098V12.8549H83.1492V12.016H87.9645V12.8549H86.004V18.8466Z" fill="white"/>
<path d="M97.07 17.9679C96.38 18.6586 95.5252 19.0033 94.5055 19.0033C93.48 19.0033 92.6252 18.6586 91.9352 17.9679C91.2467 17.2786 90.9039 16.4326 90.9039 15.4313C90.9039 14.4301 91.2467 13.5841 91.9352 12.8948C92.6252 12.204 93.48 11.8594 94.5055 11.8594C95.5193 11.8594 96.3742 12.204 97.0642 12.9005C97.7585 13.5955 98.1013 14.4358 98.1013 15.4313C98.1013 16.4326 97.7585 17.2786 97.07 17.9679ZM92.6019 17.3953C93.1212 17.9066 93.7528 18.163 94.5055 18.163C95.2524 18.163 95.8899 17.9066 96.4033 17.3953C96.9212 16.884 97.1838 16.2275 97.1838 15.4313C97.1838 14.6352 96.9212 13.9786 96.4033 13.4673C95.8899 12.956 95.2524 12.6997 94.5055 12.6997C93.7528 12.6997 93.1212 12.956 92.6019 13.4673C92.084 13.9786 91.8214 14.6352 91.8214 15.4313C91.8214 16.2275 92.084 16.884 92.6019 17.3953Z" fill="white"/>
<path d="M99.366 18.8466V12.016H100.46L103.862 17.3284H103.901L103.862 16.0153V12.016H104.762V18.8466H103.822L100.26 13.2722H100.221L100.26 14.591V18.8466H99.366Z" fill="white"/>
<path d="M90.6821 28.8224C87.9411 28.8224 85.702 30.859 85.702 33.669C85.702 36.4562 87.9411 38.5142 90.6821 38.5142C93.4289 38.5142 95.6681 36.4562 95.6681 33.669C95.6681 30.859 93.4289 28.8224 90.6821 28.8224ZM90.6821 36.6058C89.1781 36.6058 87.8842 35.3937 87.8842 33.669C87.8842 31.9215 89.1781 30.7308 90.6821 30.7308C92.1861 30.7308 93.4858 31.9215 93.4858 33.669C93.4858 35.3937 92.1861 36.6058 90.6821 36.6058ZM79.816 28.8224C77.0692 28.8224 74.8358 30.859 74.8358 33.669C74.8358 36.4562 77.0692 38.5142 79.816 38.5142C82.5613 38.5142 84.7961 36.4562 84.7961 33.669C84.7961 30.859 82.5613 28.8224 79.816 28.8224ZM79.816 36.6058C78.3105 36.6058 77.0123 35.3937 77.0123 33.669C77.0123 31.9215 78.3105 30.7308 79.816 30.7308C81.3199 30.7308 82.6138 31.9215 82.6138 33.669C82.6138 35.3937 81.3199 36.6058 79.816 36.6058ZM66.8857 30.3078V32.3673H71.9227C71.7754 33.518 71.3815 34.364 70.7776 34.9537C70.0424 35.6658 68.8973 36.4562 66.8857 36.4562C63.7859 36.4562 61.3585 34.0137 61.3585 30.9872C61.3585 27.9607 63.7859 25.5181 66.8857 25.5181C68.5618 25.5181 69.7813 26.1576 70.6813 26.9865L72.1678 25.5352C70.9089 24.3617 69.2343 23.4601 66.8857 23.4601C62.6349 23.4601 59.0625 26.837 59.0625 30.9872C59.0625 35.1374 62.6349 38.5142 66.8857 38.5142C69.1832 38.5142 70.9089 37.7793 72.2655 36.4007C73.6557 35.0434 74.089 33.1349 74.089 31.5939C74.089 31.1154 74.0481 30.6753 73.9752 30.3078H66.8857ZM119.759 31.9044C119.349 30.8205 118.084 28.8224 115.508 28.8224C112.956 28.8224 110.83 30.7864 110.83 33.669C110.83 36.3836 112.934 38.5142 115.753 38.5142C118.033 38.5142 119.349 37.1569 119.89 36.3665L118.198 35.2656C117.634 36.0717 116.865 36.6058 115.753 36.6058C114.649 36.6058 113.857 36.1115 113.349 35.1374L119.988 32.4556L119.759 31.9044ZM112.991 33.518C112.934 31.6494 114.477 30.6924 115.583 30.6924C116.449 30.6924 117.184 31.1154 117.43 31.7207L112.991 33.518ZM107.595 38.2194H109.777V23.9771H107.595V38.2194ZM104.021 29.9019H103.948C103.458 29.3351 102.523 28.8224 101.338 28.8224C98.8525 28.8224 96.5798 30.953 96.5798 33.6847C96.5798 36.4007 98.8525 38.5142 101.338 38.5142C102.523 38.5142 103.458 37.9972 103.948 37.4133H104.021V38.1083C104.021 39.9612 103.007 40.9568 101.372 40.9568C100.038 40.9568 99.2113 40.0168 98.87 39.2263L96.9722 39.9997C97.5192 41.2843 98.9677 42.8652 101.372 42.8652C103.93 42.8652 106.089 41.3954 106.089 37.8192V29.1172H104.021V29.9019ZM101.525 36.6058C100.021 36.6058 98.762 35.3766 98.762 33.6847C98.762 31.977 100.021 30.7308 101.525 30.7308C103.007 30.7308 104.175 31.977 104.175 33.6847C104.175 35.3766 103.007 36.6058 101.525 36.6058ZM129.976 23.9771H124.757V38.2194H126.933V32.823H129.976C132.393 32.823 134.764 31.1154 134.764 28.3994C134.764 25.6848 132.387 23.9771 129.976 23.9771ZM130.033 30.8419H126.933V25.9582H130.033C131.658 25.9582 132.586 27.2756 132.586 28.3994C132.586 29.5017 131.658 30.8419 130.033 30.8419ZM143.487 28.7953C141.914 28.7953 140.279 29.4732 139.607 30.9758L141.538 31.7662C141.954 30.9758 142.718 30.7194 143.526 30.7194C144.655 30.7194 145.801 31.3817 145.818 32.551V32.7005C145.424 32.4783 144.581 32.1493 143.544 32.1493C141.464 32.1493 139.344 33.2674 139.344 35.3539C139.344 37.2623 141.048 38.4914 142.963 38.4914C144.428 38.4914 145.236 37.8463 145.744 37.0957H145.818V38.1966H147.92V32.7333C147.92 30.2081 145.989 28.7953 143.487 28.7953ZM143.224 36.6001C142.513 36.6001 141.521 36.2554 141.521 35.3937C141.521 34.2914 142.758 33.8684 143.828 33.8684C144.787 33.8684 145.236 34.0749 145.818 34.3469C145.647 35.6658 144.485 36.6001 143.224 36.6001ZM155.578 29.1072L153.077 35.2812H153.002L150.416 29.1072H148.069L151.955 37.7352L149.738 42.5362H152.012L158 29.1072H155.578ZM135.96 38.2194H138.142V23.9771H135.96V38.2194Z" fill="white"/>
<path d="M22.5412 12.6276C22.1984 12.9779 22 13.5234 22 14.2298V39.4273C22 40.1337 22.1984 40.6792 22.5412 41.0295L22.6258 41.1064L37.0877 26.9924V26.6591L22.6258 12.545L22.5412 12.6276Z" fill="url(#paint0_linear_7169_272917)"/>
<path d="M41.9027 31.6992L37.0874 26.9921V26.6589L41.9085 21.9518L42.0165 22.013L47.726 25.1848C49.3554 26.0849 49.3554 27.5661 47.726 28.4719L42.0165 31.638L41.9027 31.6992Z" fill="url(#paint1_linear_7169_272917)"/>
<path d="M42.0161 31.6385L37.0871 26.8261L22.5405 41.0299C23.0817 41.5853 23.9643 41.6523 24.9679 41.0968L42.0161 31.6385Z" fill="url(#paint2_linear_7169_272917)"/>
<path d="M42.0161 22.0137L24.9679 12.5554C23.9643 12.0057 23.0817 12.0726 22.5405 12.628L37.0871 26.8262L42.0161 22.0137Z" fill="url(#paint3_linear_7169_272917)"/>
<defs>
<linearGradient id="paint0_linear_7169_272917" x1="35.8037" y1="39.6897" x2="16.6876" y2="20.1104" gradientUnits="userSpaceOnUse">
<stop stop-color="#00A0FF"/>
<stop offset="0.0066" stop-color="#00A1FF"/>
<stop offset="0.2601" stop-color="#00BEFF"/>
<stop offset="0.5122" stop-color="#00D2FF"/>
<stop offset="0.7604" stop-color="#00DFFF"/>
<stop offset="1" stop-color="#00E3FF"/>
</linearGradient>
<linearGradient id="paint1_linear_7169_272917" x1="49.8477" y1="26.8239" x2="21.6102" y2="26.8239" gradientUnits="userSpaceOnUse">
<stop stop-color="#FFE000"/>
<stop offset="0.4087" stop-color="#FFBD00"/>
<stop offset="0.7754" stop-color="#FFA500"/>
<stop offset="1" stop-color="#FF9C00"/>
</linearGradient>
<linearGradient id="paint2_linear_7169_272917" x1="39.3359" y1="24.2099" x2="13.4129" y2="-2.34118" gradientUnits="userSpaceOnUse">
<stop stop-color="#FF3A44"/>
<stop offset="1" stop-color="#C31162"/>
</linearGradient>
<linearGradient id="paint3_linear_7169_272917" x1="18.8789" y1="49.4131" x2="30.4546" y2="37.5569" gradientUnits="userSpaceOnUse">
<stop stop-color="#32A071"/>
<stop offset="0.0685" stop-color="#2DA771"/>
<stop offset="0.4762" stop-color="#15CF74"/>
<stop offset="0.8009" stop-color="#06E775"/>
<stop offset="1" stop-color="#00F076"/>
</linearGradient>
</defs>
</svg>
