<svg width="181" height="53" viewBox="0 0 181 53" fill="none" xmlns="http://www.w3.org/2000/svg">
<rect width="144" height="41.6" rx="8" transform="matrix(1.25 0 0 -1.25 0.134277 52.2222)" fill="white"/>
<path d="M66.6393 15.1817C66.6393 16.1331 66.3476 16.8951 65.7728 17.4633C65.112 18.137 64.2514 18.476 63.1967 18.476C62.1887 18.476 61.3281 18.1313 60.622 17.4519C59.9145 16.7626 59.5615 15.9166 59.5615 14.904C59.5615 13.8914 59.9145 13.0454 60.622 12.3617C61.3281 11.6767 62.1887 11.332 63.1967 11.332C63.6985 11.332 64.177 11.4332 64.6336 11.6211C65.0887 11.8106 65.4592 12.0669 65.7276 12.3831L65.1179 12.9841C64.6496 12.4444 64.0121 12.178 63.1967 12.178C62.4615 12.178 61.824 12.4287 61.2828 12.9343C60.7475 13.4413 60.4791 14.0979 60.4791 14.904C60.4791 15.7101 60.7475 16.3724 61.2828 16.8794C61.824 17.3793 62.4615 17.6357 63.1967 17.6357C63.9771 17.6357 64.6336 17.3793 65.1514 16.8737C65.4928 16.539 65.6868 16.0776 65.7378 15.4879H63.1967V14.6647H66.5868C66.6277 14.8428 66.6393 15.0151 66.6393 15.1817Z" fill="#28283C"/>
<path d="M72.0177 12.3276H68.8333V14.4924H71.704V15.3156H68.8333V17.4804H72.0177V18.3193H67.9317V11.4887H72.0177V12.3276Z" fill="#28283C"/>
<path d="M75.8133 18.3193H74.9118V12.3276H72.9586V11.4887H77.768V12.3276H75.8133V18.3193Z" fill="#28283C"/>
<path d="M81.2486 18.3193V11.4887H82.1486V18.3193H81.2486Z" fill="#28283C"/>
<path d="M86.1383 18.3193H85.244V12.3276H83.2835V11.4887H88.0988V12.3276H86.1383V18.3193Z" fill="#28283C"/>
<path d="M97.2043 17.4405C96.5143 18.1313 95.6595 18.476 94.6398 18.476C93.6143 18.476 92.7595 18.1313 92.0695 17.4405C91.381 16.7512 91.0382 15.9052 91.0382 14.904C91.0382 13.9028 91.381 13.0568 92.0695 12.3674C92.7595 11.6767 93.6143 11.332 94.6398 11.332C95.6536 11.332 96.5084 11.6767 97.1984 12.3731C97.8928 13.0682 98.2356 13.9085 98.2356 14.904C98.2356 15.9052 97.8928 16.7512 97.2043 17.4405ZM92.7362 16.868C93.2555 17.3793 93.8871 17.6357 94.6398 17.6357C95.3867 17.6357 96.0241 17.3793 96.5376 16.868C97.0555 16.3567 97.318 15.7001 97.318 14.904C97.318 14.1079 97.0555 13.4513 96.5376 12.94C96.0241 12.4287 95.3867 12.1723 94.6398 12.1723C93.8871 12.1723 93.2555 12.4287 92.7362 12.94C92.2183 13.4513 91.9557 14.1079 91.9557 14.904C91.9557 15.7001 92.2183 16.3567 92.7362 16.868Z" fill="#28283C"/>
<path d="M99.5003 18.3193V11.4887H100.594L103.996 16.8011H104.036L103.996 15.4879V11.4887H104.896V18.3193H103.957L100.395 12.7449H100.355L100.395 14.0637V18.3193H99.5003Z" fill="#28283C"/>
<path d="M90.8164 28.2945C88.0754 28.2945 85.8362 30.3312 85.8362 33.1412C85.8362 35.9284 88.0754 37.9864 90.8164 37.9864C93.5632 37.9864 95.8023 35.9284 95.8023 33.1412C95.8023 30.3312 93.5632 28.2945 90.8164 28.2945ZM90.8164 36.0779C89.3124 36.0779 88.0185 34.8659 88.0185 33.1412C88.0185 31.3936 89.3124 30.203 90.8164 30.203C92.3203 30.203 93.6201 31.3936 93.6201 33.1412C93.6201 34.8659 92.3203 36.0779 90.8164 36.0779ZM79.9502 28.2945C77.2034 28.2945 74.9701 30.3312 74.9701 33.1412C74.9701 35.9284 77.2034 37.9864 79.9502 37.9864C82.6956 37.9864 84.9304 35.9284 84.9304 33.1412C84.9304 30.3312 82.6956 28.2945 79.9502 28.2945ZM79.9502 36.0779C78.4448 36.0779 77.1465 34.8659 77.1465 33.1412C77.1465 31.3936 78.4448 30.203 79.9502 30.203C81.4542 30.203 82.7481 31.3936 82.7481 33.1412C82.7481 34.8659 81.4542 36.0779 79.9502 36.0779ZM67.02 29.78V31.8394H72.057C71.9097 32.9902 71.5158 33.8362 70.9119 34.4258C70.1767 35.1379 69.0316 35.9284 67.02 35.9284C63.9202 35.9284 61.4928 33.4858 61.4928 30.4593C61.4928 27.4329 63.9202 24.9903 67.02 24.9903C68.6961 24.9903 69.9156 25.6298 70.8156 26.4587L72.3021 25.0074C71.0432 23.8338 69.3686 22.9323 67.02 22.9323C62.7692 22.9323 59.1968 26.3092 59.1968 30.4593C59.1968 34.6095 62.7692 37.9864 67.02 37.9864C69.3175 37.9864 71.0432 37.2515 72.3998 35.8728C73.79 34.5155 74.2232 32.6071 74.2232 31.0661C74.2232 30.5875 74.1824 30.1474 74.1095 29.78H67.02ZM119.893 31.3765C119.483 30.2927 118.219 28.2945 115.643 28.2945C113.09 28.2945 110.964 30.2585 110.964 33.1412C110.964 35.8557 113.068 37.9864 115.888 37.9864C118.168 37.9864 119.483 36.6291 120.025 35.8387L118.333 34.7377C117.768 35.5438 116.999 36.0779 115.888 36.0779C114.783 36.0779 113.991 35.5837 113.484 34.6095L120.122 31.9277L119.893 31.3765ZM113.125 32.9902C113.068 31.1216 114.611 30.1645 115.717 30.1645C116.584 30.1645 117.319 30.5875 117.564 31.1928L113.125 32.9902ZM107.729 37.6916H109.911V23.4493H107.729V37.6916ZM104.155 29.3741H104.082C103.592 28.8072 102.657 28.2945 101.472 28.2945C98.9868 28.2945 96.7141 30.4252 96.7141 33.1568C96.7141 35.8728 98.9868 37.9864 101.472 37.9864C102.657 37.9864 103.592 37.4694 104.082 36.8855H104.155V37.5805C104.155 39.4334 103.141 40.4289 101.506 40.4289C100.173 40.4289 99.3456 39.4889 99.0043 38.6985L97.1065 39.4719C97.6535 40.7565 99.102 42.3374 101.506 42.3374C104.065 42.3374 106.224 40.8676 106.224 37.2914V28.5893H104.155V29.3741ZM101.659 36.0779C100.155 36.0779 98.8963 34.8488 98.8963 33.1568C98.8963 31.4492 100.155 30.203 101.659 30.203C103.141 30.203 104.31 31.4492 104.31 33.1568C104.31 34.8488 103.141 36.0779 101.659 36.0779ZM130.11 23.4493H124.891V37.6916H127.067V32.2952H130.11C132.528 32.2952 134.898 30.5875 134.898 27.8715C134.898 25.1569 132.522 23.4493 130.11 23.4493ZM130.167 30.3141H127.067V25.4304H130.167C131.792 25.4304 132.72 26.7478 132.72 27.8715C132.72 28.9739 131.792 30.3141 130.167 30.3141ZM143.621 28.2675C142.049 28.2675 140.413 28.9454 139.741 30.448L141.672 31.2384C142.088 30.448 142.852 30.1916 143.661 30.1916C144.79 30.1916 145.935 30.8539 145.952 32.0231V32.1727C145.558 31.9505 144.715 31.6215 143.678 31.6215C141.598 31.6215 139.478 32.7395 139.478 34.826C139.478 36.7345 141.182 37.9636 143.098 37.9636C144.562 37.9636 145.37 37.3184 145.878 36.5679H145.952V37.6688H148.054V32.2055C148.054 29.6803 146.123 28.2675 143.621 28.2675ZM143.359 36.0722C142.647 36.0722 141.655 35.7276 141.655 34.8659C141.655 33.7636 142.892 33.3406 143.963 33.3406C144.921 33.3406 145.37 33.5471 145.952 33.8191C145.782 35.1379 144.619 36.0722 143.359 36.0722ZM155.713 28.5794L153.211 34.7534H153.137L150.55 28.5794H148.203L152.089 37.2073L149.872 42.0084H152.146L158.134 28.5794H155.713ZM136.094 37.6916H138.276V23.4493H136.094V37.6916Z" fill="#28283C"/>
<path d="M22.6755 12.0998C22.3327 12.4501 22.1343 12.9956 22.1343 13.702V38.8994C22.1343 39.6059 22.3327 40.1513 22.6755 40.5017L22.7601 40.5786L37.222 26.4645V26.1312L22.7601 12.0172L22.6755 12.0998Z" fill="url(#paint0_linear_7169_259752)"/>
<path d="M42.037 31.1714L37.2217 26.4643V26.131L42.0428 21.424L42.1508 21.4852L47.8603 24.657C49.4897 25.5571 49.4897 27.0383 47.8603 27.9441L42.1508 31.1101L42.037 31.1714Z" fill="url(#paint1_linear_7169_259752)"/>
<path d="M42.1504 31.1102L37.2213 26.2977L22.6748 40.5016C23.216 41.057 24.0985 41.1239 25.1021 40.5685L42.1504 31.1102Z" fill="url(#paint2_linear_7169_259752)"/>
<path d="M42.1504 21.4854L25.1021 12.0271C24.0985 11.4773 23.216 11.5443 22.6748 12.0997L37.2213 26.2979L42.1504 21.4854Z" fill="url(#paint3_linear_7169_259752)"/>
<defs>
<linearGradient id="paint0_linear_7169_259752" x1="35.938" y1="39.1618" x2="16.8219" y2="19.5826" gradientUnits="userSpaceOnUse">
<stop stop-color="#00A0FF"/>
<stop offset="0.0066" stop-color="#00A1FF"/>
<stop offset="0.2601" stop-color="#00BEFF"/>
<stop offset="0.5122" stop-color="#00D2FF"/>
<stop offset="0.7604" stop-color="#00DFFF"/>
<stop offset="1" stop-color="#00E3FF"/>
</linearGradient>
<linearGradient id="paint1_linear_7169_259752" x1="49.982" y1="26.2961" x2="21.7445" y2="26.2961" gradientUnits="userSpaceOnUse">
<stop stop-color="#FFE000"/>
<stop offset="0.4087" stop-color="#FFBD00"/>
<stop offset="0.7754" stop-color="#FFA500"/>
<stop offset="1" stop-color="#FF9C00"/>
</linearGradient>
<linearGradient id="paint2_linear_7169_259752" x1="39.4701" y1="23.6816" x2="13.5472" y2="-2.8695" gradientUnits="userSpaceOnUse">
<stop stop-color="#FF3A44"/>
<stop offset="1" stop-color="#C31162"/>
</linearGradient>
<linearGradient id="paint3_linear_7169_259752" x1="19.0131" y1="48.8847" x2="30.5889" y2="37.0286" gradientUnits="userSpaceOnUse">
<stop stop-color="#32A071"/>
<stop offset="0.0685" stop-color="#2DA771"/>
<stop offset="0.4762" stop-color="#15CF74"/>
<stop offset="0.8009" stop-color="#06E775"/>
<stop offset="1" stop-color="#00F076"/>
</linearGradient>
</defs>
</svg>
