<svg width="19" height="18" viewBox="0 0 19 18" fill="none" xmlns="http://www.w3.org/2000/svg">
<g clip-path="url(#clip0_8153_264402)">
<path d="M18.117 9.20251C18.117 8.46001 18.0609 7.92001 17.926 7.35751H9.48828V10.6988H14.4431C14.3419 11.5313 13.8027 12.78 12.6005 13.6238L12.5892 13.7363L15.252 15.8063L15.4318 15.8288C17.1396 14.2538 18.117 11.9363 18.117 9.20251Z" fill="#4285F4"/>
<path d="M9.48835 18C11.9152 18 13.9488 17.2012 15.4431 15.8175L12.6118 13.6125C11.8478 14.1412 10.8366 14.5125 9.49958 14.5125C7.11769 14.5125 5.10656 12.9375 4.3875 10.7775L4.28638 10.7887L1.50001 12.9375L1.46631 13.0387C2.93814 15.975 5.97168 18 9.48835 18Z" fill="#34A853"/>
<path d="M4.37619 10.7775C4.18519 10.215 4.07284 9.61874 4.07284 8.99999C4.07284 8.38124 4.18519 7.78499 4.36496 7.22249V7.09874L1.55612 4.91624L1.46624 4.96124C0.848296 6.17624 0.5 7.54874 0.5 8.99999C0.5 10.4512 0.848296 11.8237 1.455 13.0387L4.37619 10.7775Z" fill="#FBBC05"/>
<path d="M9.48835 3.47625C11.1737 3.47625 12.3197 4.2075 12.9601 4.815L15.4993 2.34C13.9375 0.88875 11.9152 0 9.48835 0C5.97169 0 2.93814 2.025 1.45508 4.96125L4.36503 7.2225C5.09533 5.05125 7.10646 3.47625 9.48835 3.47625Z" fill="#EB4335"/>
</g>
<defs>
<clipPath id="clip0_8153_264402">
<rect width="18" height="18" fill="white" transform="translate(0.5)"/>
</clipPath>
</defs>
</svg>
