<svg width="142" height="42" viewBox="0 0 142 42" fill="none" xmlns="http://www.w3.org/2000/svg">
<rect width="112.8" height="32.8" rx="8" transform="matrix(1.25 0 0 -1.25 0.943359 41.9644)" fill="#2A396D"/>
<path d="M53.0394 12.7595C53.0394 13.5096 52.8109 14.1104 52.3606 14.5584C51.843 15.0896 51.1688 15.3568 50.3427 15.3568C49.5531 15.3568 48.8789 15.0851 48.3258 14.5494C47.7716 14.0059 47.4951 13.3389 47.4951 12.5405C47.4951 11.7421 47.7716 11.075 48.3258 10.536C48.8789 9.99588 49.5531 9.72412 50.3427 9.72412C50.7358 9.72412 51.1105 9.80385 51.4682 9.95208C51.8247 10.1014 52.115 10.3036 52.3252 10.5529L51.8476 11.0267C51.4808 10.6011 50.9814 10.3912 50.3427 10.3912C49.7668 10.3912 49.2674 10.5888 48.8435 10.9874C48.4241 11.3872 48.2139 11.9049 48.2139 12.5405C48.2139 13.1761 48.4241 13.6982 48.8435 14.098C49.2674 14.4922 49.7668 14.6943 50.3427 14.6943C50.954 14.6943 51.4682 14.4922 51.8739 14.0935C52.1412 13.8296 52.2932 13.4658 52.3332 13.0009H50.3427V12.3518H52.9983C53.0303 12.4922 53.0394 12.6281 53.0394 12.7595Z" fill="white"/>
<path d="M57.2524 10.5091H54.758V12.2159H57.0068V12.865H54.758V14.5719H57.2524V15.2333H54.0518V9.84764H57.2524V10.5091Z" fill="white"/>
<path d="M60.2257 15.2333H59.5195V10.5091H57.9895V9.84764H61.7569V10.5091H60.2257V15.2333Z" fill="white"/>
<path d="M64.4833 15.2333V9.84764H65.1883V15.2333H64.4833Z" fill="white"/>
<path d="M68.3136 15.2333H67.6131V10.5091H66.0773V9.84764H69.8493V10.5091H68.3136V15.2333Z" fill="white"/>
<path d="M76.9819 14.5404C76.4414 15.0851 75.7718 15.3568 74.9731 15.3568C74.1698 15.3568 73.5002 15.0851 72.9597 14.5404C72.4204 13.9969 72.1518 13.3299 72.1518 12.5405C72.1518 11.751 72.4204 11.084 72.9597 10.5405C73.5002 9.99587 74.1698 9.72412 74.9731 9.72412C75.7673 9.72412 76.4369 9.99587 76.9774 10.545C77.5213 11.093 77.7898 11.7555 77.7898 12.5405C77.7898 13.3299 77.5213 13.9969 76.9819 14.5404ZM73.4819 14.089C73.8887 14.4922 74.3835 14.6943 74.9731 14.6943C75.5582 14.6943 76.0575 14.4922 76.4597 14.089C76.8654 13.6859 77.0711 13.1682 77.0711 12.5405C77.0711 11.9127 76.8654 11.3951 76.4597 10.9919C76.0575 10.5888 75.5582 10.3867 74.9731 10.3867C74.3835 10.3867 73.8887 10.5888 73.4819 10.9919C73.0763 11.3951 72.8706 11.9127 72.8706 12.5405C72.8706 13.1682 73.0763 13.6859 73.4819 14.089Z" fill="white"/>
<path d="M78.7805 15.2333V9.84764H79.6375L82.3022 14.0362H82.3331L82.3022 13.0009V9.84764H83.0073V15.2333H82.2714L79.481 10.8381H79.4501L79.481 11.8779V15.2333H78.7805Z" fill="white"/>
<path d="M71.9777 23.0986C69.8306 23.0986 68.0766 24.7044 68.0766 26.92C68.0766 29.1176 69.8306 30.7403 71.9777 30.7403C74.1293 30.7403 75.8833 29.1176 75.8833 26.92C75.8833 24.7044 74.1293 23.0986 71.9777 23.0986ZM71.9777 29.2355C70.7996 29.2355 69.786 28.2799 69.786 26.92C69.786 25.5422 70.7996 24.6034 71.9777 24.6034C73.1558 24.6034 74.1739 25.5422 74.1739 26.92C74.1739 28.2799 73.1558 29.2355 71.9777 29.2355ZM63.4659 23.0986C61.3142 23.0986 59.5648 24.7044 59.5648 26.92C59.5648 29.1176 61.3142 30.7403 63.4659 30.7403C65.6164 30.7403 67.367 29.1176 67.367 26.92C67.367 24.7044 65.6164 23.0986 63.4659 23.0986ZM63.4659 29.2355C62.2866 29.2355 61.2696 28.2799 61.2696 26.92C61.2696 25.5422 62.2866 24.6034 63.4659 24.6034C64.644 24.6034 65.6575 25.5422 65.6575 26.92C65.6575 28.2799 64.644 29.2355 63.4659 29.2355ZM53.3372 24.2699V25.8936H57.2828C57.1674 26.801 56.8589 27.468 56.3858 27.9329C55.8099 28.4944 54.9129 29.1176 53.3372 29.1176C50.909 29.1176 49.0076 27.1918 49.0076 24.8055C49.0076 22.4192 50.909 20.4934 53.3372 20.4934C54.6501 20.4934 55.6054 20.9976 56.3104 21.6511L57.4748 20.5069C56.4887 19.5816 55.1769 18.8707 53.3372 18.8707C50.0074 18.8707 47.209 21.5332 47.209 24.8055C47.209 28.0778 50.0074 30.7403 53.3372 30.7403C55.1369 30.7403 56.4887 30.1608 57.5514 29.0738C58.6403 28.0037 58.9797 26.4989 58.9797 25.2839C58.9797 24.9066 58.9477 24.5596 58.8906 24.2699H53.3372ZM94.7547 25.5287C94.4336 24.6741 93.4429 23.0986 91.4249 23.0986C89.4252 23.0986 87.7603 24.6472 87.7603 26.92C87.7603 29.0604 89.4081 30.7403 91.6169 30.7403C93.4029 30.7403 94.4336 29.6701 94.8575 29.0469L93.532 28.1788C93.0898 28.8144 92.4876 29.2355 91.6169 29.2355C90.7519 29.2355 90.1314 28.8459 89.7337 28.0778L94.9341 25.9633L94.7547 25.5287ZM89.4527 26.801C89.4081 25.3277 90.617 24.5731 91.4832 24.5731C92.1619 24.5731 92.7378 24.9066 92.9298 25.3838L89.4527 26.801ZM85.2259 30.5078H86.9353V19.2784H85.2259V30.5078ZM82.4263 23.9498H82.3692C81.9852 23.5029 81.2528 23.0986 80.3249 23.0986C78.3778 23.0986 76.5975 24.7786 76.5975 26.9324C76.5975 29.0738 78.3778 30.7403 80.3249 30.7403C81.2528 30.7403 81.9852 30.3327 82.3692 29.8723H82.4263V30.4203C82.4263 31.8812 81.6322 32.6661 80.3512 32.6661C79.3068 32.6661 78.6589 31.925 78.3915 31.3018L76.9049 31.9115C77.3334 32.9244 78.4681 34.1709 80.3512 34.1709C82.3555 34.1709 84.0466 33.012 84.0466 30.1923V23.3311H82.4263V23.9498ZM80.4712 29.2355C79.2931 29.2355 78.307 28.2664 78.307 26.9324C78.307 25.586 79.2931 24.6034 80.4712 24.6034C81.6322 24.6034 82.5474 25.586 82.5474 26.9324C82.5474 28.2664 81.6322 29.2355 80.4712 29.2355ZM102.758 19.2784H98.6695V30.5078H100.374V26.253H102.758C104.651 26.253 106.508 24.9066 106.508 22.7651C106.508 20.6248 104.647 19.2784 102.758 19.2784ZM102.803 24.691H100.374V20.8404H102.803C104.075 20.8404 104.802 21.8791 104.802 22.7651C104.802 23.6343 104.075 24.691 102.803 24.691ZM113.341 23.0773C112.11 23.0773 110.829 23.6118 110.302 24.7965L111.815 25.4198C112.141 24.7965 112.739 24.5944 113.372 24.5944C114.257 24.5944 115.154 25.1166 115.167 26.0385V26.1564C114.859 25.9812 114.198 25.7218 113.386 25.7218C111.757 25.7218 110.096 26.6034 110.096 28.2485C110.096 29.7532 111.431 30.7223 112.931 30.7223C114.078 30.7223 114.712 30.2136 115.109 29.6218H115.167V30.4899H116.814V26.1822C116.814 24.1913 115.301 23.0773 113.341 23.0773ZM113.136 29.231C112.578 29.231 111.801 28.9593 111.801 28.2799C111.801 27.4108 112.77 27.0772 113.609 27.0772C114.36 27.0772 114.712 27.2401 115.167 27.4545C115.034 28.4944 114.123 29.231 113.136 29.231ZM122.813 23.3232L120.853 28.1912H120.795L118.769 23.3232H116.931L119.975 30.126L118.238 33.9115H120.019L124.71 23.3232H122.813ZM107.445 30.5078H109.155V19.2784H107.445V30.5078Z" fill="white"/>
<path d="M18.6007 10.3292C18.3322 10.6055 18.1768 11.0355 18.1768 11.5925V31.4597C18.1768 32.0167 18.3322 32.4468 18.6007 32.7231L18.667 32.7837L29.9955 21.6553V21.3925L18.667 10.2641L18.6007 10.3292Z" fill="url(#paint0_linear_7169_277209)"/>
<path d="M33.7671 25.3667L29.9951 21.6554V21.3926L33.7717 17.6812L33.8562 17.7295L38.3287 20.2303C39.605 20.94 39.605 22.1079 38.3287 22.8221L33.8562 25.3184L33.7671 25.3667Z" fill="url(#paint1_linear_7169_277209)"/>
<path d="M33.8565 25.3183L29.9954 21.5239L18.6006 32.7231C19.0245 33.161 19.7158 33.2138 20.502 32.7758L33.8565 25.3183Z" fill="url(#paint2_linear_7169_277209)"/>
<path d="M33.8565 17.7295L20.502 10.272C19.7158 9.83852 19.0245 9.8913 18.6006 10.3293L29.9954 21.5239L33.8565 17.7295Z" fill="url(#paint3_linear_7169_277209)"/>
<defs>
<linearGradient id="paint0_linear_7169_277209" x1="28.9896" y1="31.6666" x2="13.9153" y2="16.3275" gradientUnits="userSpaceOnUse">
<stop stop-color="#00A0FF"/>
<stop offset="0.0066" stop-color="#00A1FF"/>
<stop offset="0.2601" stop-color="#00BEFF"/>
<stop offset="0.5122" stop-color="#00D2FF"/>
<stop offset="0.7604" stop-color="#00DFFF"/>
<stop offset="1" stop-color="#00E3FF"/>
</linearGradient>
<linearGradient id="paint1_linear_7169_277209" x1="39.9907" y1="21.5227" x2="17.8713" y2="21.5227" gradientUnits="userSpaceOnUse">
<stop stop-color="#FFE000"/>
<stop offset="0.4087" stop-color="#FFBD00"/>
<stop offset="0.7754" stop-color="#FFA500"/>
<stop offset="1" stop-color="#FF9C00"/>
</linearGradient>
<linearGradient id="paint2_linear_7169_277209" x1="31.7569" y1="19.4612" x2="11.3149" y2="-1.34" gradientUnits="userSpaceOnUse">
<stop stop-color="#FF3A44"/>
<stop offset="1" stop-color="#C31162"/>
</linearGradient>
<linearGradient id="paint3_linear_7169_277209" x1="15.7323" y1="39.3328" x2="24.8606" y2="30.0442" gradientUnits="userSpaceOnUse">
<stop stop-color="#32A071"/>
<stop offset="0.0685" stop-color="#2DA771"/>
<stop offset="0.4762" stop-color="#15CF74"/>
<stop offset="0.8009" stop-color="#06E775"/>
<stop offset="1" stop-color="#00F076"/>
</linearGradient>
</defs>
</svg>
