<svg width="101" height="101" viewBox="0 0 101 101" fill="none" xmlns="http://www.w3.org/2000/svg">
<path d="M8.36182 84.7922V32.0449H91.8783V84.7922C91.8783 89.6273 87.9223 93.5834 83.0871 93.5834H17.153C12.3179 93.5834 8.36182 89.6273 8.36182 84.7922Z" fill="#CFD8DC"/>
<path d="M91.8783 23.2541V36.4409H8.36182V23.2541C8.36182 18.4189 12.3179 14.4629 17.153 14.4629H83.0871C87.9223 14.4629 91.8783 18.4189 91.8783 23.2541Z" fill="#F44336"/>
<path d="M69.9022 29.8483C73.5437 29.8483 76.4957 26.8962 76.4957 23.2547C76.4957 19.6132 73.5437 16.6611 69.9022 16.6611C66.2606 16.6611 63.3086 19.6132 63.3086 23.2547C63.3086 26.8962 66.2606 29.8483 69.9022 29.8483Z" fill="#B71C1C"/>
<path d="M30.3406 29.8483C33.9822 29.8483 36.9342 26.8962 36.9342 23.2547C36.9342 19.6132 33.9822 16.6611 30.3406 16.6611C26.6991 16.6611 23.7471 19.6132 23.7471 23.2547C23.7471 26.8962 26.6991 29.8483 30.3406 29.8483Z" fill="#B71C1C"/>
<path d="M69.9004 7.86914C67.4828 7.86914 65.5048 9.84716 65.5048 12.2647V23.2538C65.5048 25.6713 67.4828 27.6494 69.9004 27.6494C72.318 27.6494 74.296 25.6713 74.296 23.2538V12.2647C74.296 9.84716 72.318 7.86914 69.9004 7.86914ZM30.3399 7.86914C27.9224 7.86914 25.9443 9.84716 25.9443 12.2647V23.2538C25.9443 25.6713 27.9224 27.6494 30.3399 27.6494C32.7575 27.6494 34.7355 25.6713 34.7355 23.2538V12.2647C34.7355 9.84716 32.7575 7.86914 30.3399 7.86914ZM25.9443 47.4296H39.1311V60.6164H25.9443V47.4296ZM43.5268 47.4296H56.7136V60.6164H43.5268V47.4296ZM61.1092 47.4296H74.296V60.6164H61.1092V47.4296ZM25.9443 65.012H39.1311V78.1988H25.9443V65.012ZM43.5268 65.012H56.7136V78.1988H43.5268V65.012Z" fill="#B0BEC5"/>
<path d="M61.1094 65.0127H74.2962V78.1995H61.1094V65.0127Z" fill="#F44336"/>
</svg>
