<svg width="66" height="67" viewBox="0 0 66 67" fill="none" xmlns="http://www.w3.org/2000/svg">
<path d="M5.43945 56.0368V21.2236H60.5603V56.0368C60.5603 59.228 57.9493 61.839 54.7581 61.839H11.2417C8.05044 61.839 5.43945 59.228 5.43945 56.0368Z" fill="#CFD8DC"/>
<path d="M60.5603 15.4223V24.1256H5.43945V15.4223C5.43945 12.2311 8.05044 9.62012 11.2417 9.62012H54.7581C57.9493 9.62012 60.5603 12.2311 60.5603 15.4223Z" fill="#F44336"/>
<path d="M46.0559 19.7738C48.4593 19.7738 50.4076 17.8255 50.4076 15.4221C50.4076 13.0187 48.4593 11.0703 46.0559 11.0703C43.6524 11.0703 41.7041 13.0187 41.7041 15.4221C41.7041 17.8255 43.6524 19.7738 46.0559 19.7738Z" fill="#B71C1C"/>
<path d="M19.9455 19.7738C22.3489 19.7738 24.2973 17.8255 24.2973 15.4221C24.2973 13.0187 22.3489 11.0703 19.9455 11.0703C17.5421 11.0703 15.5938 13.0187 15.5938 15.4221C15.5938 17.8255 17.5421 19.7738 19.9455 19.7738Z" fill="#B71C1C"/>
<path d="M46.0549 5.26758C44.4593 5.26758 43.1538 6.57307 43.1538 8.16868V15.4214C43.1538 17.017 44.4593 18.3225 46.0549 18.3225C47.6505 18.3225 48.956 17.017 48.956 15.4214V8.16868C48.956 6.57307 47.6505 5.26758 46.0549 5.26758ZM19.945 5.26758C18.3494 5.26758 17.0439 6.57307 17.0439 8.16868V15.4214C17.0439 17.017 18.3494 18.3225 19.945 18.3225C21.5406 18.3225 22.8461 17.017 22.8461 15.4214V8.16868C22.8461 6.57307 21.5406 5.26758 19.945 5.26758ZM17.0439 31.3775H25.7472V40.0808H17.0439V31.3775ZM28.6483 31.3775H37.3516V40.0808H28.6483V31.3775ZM40.2527 31.3775H48.956V40.0808H40.2527V31.3775ZM17.0439 42.9819H25.7472V51.6852H17.0439V42.9819ZM28.6483 42.9819H37.3516V51.6852H28.6483V42.9819Z" fill="#B0BEC5"/>
<path d="M40.2529 42.9824H48.9562V51.6857H40.2529V42.9824Z" fill="#F44336"/>
</svg>
