<svg width="101" height="101" viewBox="0 0 101 101" fill="none" xmlns="http://www.w3.org/2000/svg">
<g clip-path="url(#clip0_7169_259256)">
<path d="M99.6945 61.1858C99.3801 61.731 99.0107 62.2411 98.5963 62.7087C100.025 64.3151 100.895 66.43 100.895 68.7429C100.895 71.0577 100.025 73.1704 98.5963 74.7771C100.025 76.3855 100.895 78.4982 100.895 80.811C100.895 85.8286 96.8143 89.9093 91.7988 89.9093H59.7461C55.243 89.9093 50.8215 89.1071 46.6041 87.5251L32.7783 82.3401V44.5513L53.3404 32.9831L65.0475 14.348C66.3396 12.2903 68.3564 10.8593 70.7264 10.3185C73.0943 9.77745 75.5316 10.1919 77.5893 11.4841C79.6469 12.7763 81.0779 14.7931 81.6188 17.161C82.1598 19.531 81.7453 21.9683 80.4531 24.0261L73.2371 35.5105H91.7988C96.8143 35.5105 100.895 39.5911 100.895 44.6065C100.895 46.9194 100.025 49.0341 98.5965 50.6407C100.025 52.2472 100.895 54.362 100.895 56.6749C100.895 58.3159 100.458 59.8569 99.6945 61.1858Z" fill="#FFDBA8"/>
<path d="M98.5965 74.7766C100.025 76.3852 100.895 78.4978 100.895 80.8107C100.895 85.8283 96.8143 89.909 91.7988 89.909H59.7461C55.243 89.909 50.8215 89.1068 46.6041 87.5248L32.7783 82.3398V61.1855H99.6947C99.3803 61.7307 99.0109 62.2408 98.5965 62.7084C100.025 64.3148 100.895 66.4297 100.895 68.7426C100.895 71.0574 100.025 73.1699 98.5965 74.7766Z" fill="#FFC473"/>
<path d="M20.1507 38.5518H0.89502V84.4445H20.1507V38.5518Z" fill="#FFB74D"/>
<path d="M20.1507 61.1855H0.89502V84.4443H20.1507V61.1855Z" fill="#FFA91E"/>
<path d="M38.9269 31.3271H14.0269V91.6705H38.9269V31.3271Z" fill="#67BFFF"/>
<path d="M38.9269 61.1855H14.0269V91.6705H38.9269V61.1855Z" fill="#0088FF"/>
<path d="M28.5937 39.4395H24.3579V43.6752H28.5937V39.4395Z" fill="#F4F4F4"/>
</g>
<defs>
<clipPath id="clip0_7169_259256">
<rect width="100" height="100" fill="white" transform="translate(0.89502 0.878906)"/>
</clipPath>
</defs>
</svg>
