<svg width="24" height="24" viewBox="0 0 24 24" fill="none" xmlns="http://www.w3.org/2000/svg">
<path fill-rule="evenodd" clip-rule="evenodd" d="M11.9999 1.8C7.52635 1.8 3.89985 5.42649 3.89985 9.9C3.89985 10.6875 4.18772 11.678 4.72722 12.8125C5.2602 13.9334 6.00432 15.1242 6.83646 16.2926C8.50039 18.6287 10.4619 20.7996 11.6292 22.0304C11.8366 22.2491 12.1631 22.2491 12.3705 22.0304C13.5378 20.7996 15.4993 18.6287 17.1632 16.2926C17.9954 15.1242 18.7395 13.9334 19.2725 12.8125C19.812 11.678 20.0999 10.6875 20.0999 9.9C20.0999 5.42649 16.4734 1.8 11.9999 1.8ZM2.09985 9.9C2.09985 4.43238 6.53223 0 11.9999 0C17.4675 0 21.8999 4.43238 21.8999 9.9C21.8999 11.076 21.4856 12.35 20.8981 13.5855C20.3041 14.8347 19.4964 16.1195 18.6294 17.3368C16.8949 19.772 14.8683 22.0125 13.6766 23.269C12.7593 24.2363 11.2404 24.2363 10.3231 23.269C9.13145 22.0125 7.10482 19.772 5.37034 17.3368C4.50327 16.1195 3.69562 14.8347 3.10163 13.5855C2.51415 12.35 2.09985 11.076 2.09985 9.9ZM11.9999 6.3C10.4258 6.3 9.14985 7.57599 9.14985 9.15C9.14985 10.724 10.4258 12 11.9999 12C13.5739 12 14.8499 10.724 14.8499 9.15C14.8499 7.57599 13.5739 6.3 11.9999 6.3ZM7.34985 9.15C7.34985 6.58188 9.43173 4.5 11.9999 4.5C14.568 4.5 16.6499 6.58188 16.6499 9.15C16.6499 11.7181 14.568 13.8 11.9999 13.8C9.43173 13.8 7.34985 11.7181 7.34985 9.15Z" fill="#A0ABB8"/>
<circle cx="12" cy="9.14996" r="3.75" stroke="#A0ABB8" stroke-width="1.5"/>
</svg>
