<svg width="20" height="20" viewBox="0 0 20 20" fill="none" xmlns="http://www.w3.org/2000/svg">
<path d="M5 8.33464V6.66797C5 3.90964 5.83333 1.66797 10 1.66797C14.1667 1.66797 15 3.90964 15 6.66797V8.33464" stroke="#292D32" stroke-width="1.5" stroke-linecap="round" stroke-linejoin="round"/>
<path d="M9.99984 15.4167C11.1504 15.4167 12.0832 14.4839 12.0832 13.3333C12.0832 12.1827 11.1504 11.25 9.99984 11.25C8.84924 11.25 7.9165 12.1827 7.9165 13.3333C7.9165 14.4839 8.84924 15.4167 9.99984 15.4167Z" stroke="#292D32" stroke-width="1.5" stroke-linecap="round" stroke-linejoin="round"/>
<path d="M14.1665 18.332H5.83317C2.49984 18.332 1.6665 17.4987 1.6665 14.1654V12.4987C1.6665 9.16536 2.49984 8.33203 5.83317 8.33203H14.1665C17.4998 8.33203 18.3332 9.16536 18.3332 12.4987V14.1654C18.3332 17.4987 17.4998 18.332 14.1665 18.332Z" stroke="#292D32" stroke-width="1.5" stroke-linecap="round" stroke-linejoin="round"/>
</svg>
