<svg width="25" height="15" viewBox="0 0 25 15" fill="none" xmlns="http://www.w3.org/2000/svg">
<path fill-rule="evenodd" clip-rule="evenodd" d="M12.6947 13.232C11.4061 14.3132 9.7347 14.9659 7.90828 14.9659C3.83298 14.9659 0.529297 11.7162 0.529297 7.70755C0.529297 3.69889 3.83298 0.449219 7.90828 0.449219C9.7347 0.449219 11.4061 1.10193 12.6947 2.18314C13.9832 1.10193 15.6546 0.449219 17.481 0.449219C21.5563 0.449219 24.86 3.69889 24.86 7.70755C24.86 11.7162 21.5563 14.9659 17.481 14.9659C15.6546 14.9659 13.9832 14.3132 12.6947 13.232Z" fill="#ED0006"/>
<path fill-rule="evenodd" clip-rule="evenodd" d="M12.6943 13.232C14.2809 11.9007 15.287 9.91967 15.287 7.70755C15.287 5.49543 14.2809 3.51445 12.6943 2.18313C13.9829 1.10192 15.6543 0.449219 17.4807 0.449219C21.556 0.449219 24.8597 3.69889 24.8597 7.70755C24.8597 11.7162 21.556 14.9659 17.4807 14.9659C15.6543 14.9659 13.9829 14.3132 12.6943 13.232Z" fill="#F9A000"/>
<path fill-rule="evenodd" clip-rule="evenodd" d="M12.6951 13.2319C14.2817 11.9006 15.2877 9.9196 15.2877 7.7075C15.2877 5.49539 14.2817 3.51442 12.6951 2.18311C11.1086 3.51442 10.1025 5.49539 10.1025 7.7075C10.1025 9.9196 11.1086 11.9006 12.6951 13.2319Z" fill="#FF5E00"/>
</svg>
