<svg width="14" height="14" viewBox="0 0 14 14" fill="none" xmlns="http://www.w3.org/2000/svg">
<path d="M4.95817 11.0834H4.6665C2.33317 11.0834 1.1665 10.5001 1.1665 7.58341V4.66675C1.1665 2.33341 2.33317 1.16675 4.6665 1.16675H9.33317C11.6665 1.16675 12.8332 2.33341 12.8332 4.66675V7.58341C12.8332 9.91675 11.6665 11.0834 9.33317 11.0834H9.0415C8.86067 11.0834 8.68567 11.1709 8.57484 11.3167L7.69984 12.4834C7.31484 12.9967 6.68484 12.9967 6.29984 12.4834L5.42484 11.3167C5.3315 11.1884 5.11567 11.0834 4.95817 11.0834Z" stroke="white" stroke-width="1.5" stroke-miterlimit="10" stroke-linecap="round" stroke-linejoin="round"/>
<path d="M4.0835 4.66675H9.91683" stroke="white" stroke-width="1.5" stroke-linecap="round" stroke-linejoin="round"/>
<path d="M4.0835 7.58325H7.5835" stroke="white" stroke-width="1.5" stroke-linecap="round" stroke-linejoin="round"/>
</svg>
