<svg width="20" height="20" viewBox="0 0 20 20" fill="none" xmlns="http://www.w3.org/2000/svg">
<path d="M7.08329 15.8346H6.66663C3.33329 15.8346 1.66663 15.0013 1.66663 10.8346V6.66797C1.66663 3.33464 3.33329 1.66797 6.66663 1.66797H13.3333C16.6666 1.66797 18.3333 3.33464 18.3333 6.66797V10.8346C18.3333 14.168 16.6666 15.8346 13.3333 15.8346H12.9166C12.6583 15.8346 12.4083 15.9596 12.25 16.168L11 17.8346C10.45 18.568 9.54996 18.568 8.99996 17.8346L7.74996 16.168C7.61663 15.9846 7.30829 15.8346 7.08329 15.8346Z" stroke="#34444C" stroke-width="1.5" stroke-miterlimit="10" stroke-linecap="round" stroke-linejoin="round"/>
<path d="M13.3304 9.16667H13.3379" stroke="#34444C" stroke-width="2" stroke-linecap="round" stroke-linejoin="round"/>
<path d="M9.9962 9.16667H10.0037" stroke="#34444C" stroke-width="2" stroke-linecap="round" stroke-linejoin="round"/>
<path d="M6.66209 9.16667H6.66957" stroke="#34444C" stroke-width="2" stroke-linecap="round" stroke-linejoin="round"/>
</svg>
