<svg width="15" height="13" viewBox="0 0 15 13" fill="none" xmlns="http://www.w3.org/2000/svg">
<path d="M14.4234 4.31846C14.2608 3.93203 13.9907 3.65342 13.6421 3.51309L13.6374 3.51133C13.4787 3.44917 13.3098 3.41737 13.1393 3.41758H13.1206C12.3225 3.42959 11.5078 4.10781 11.0935 5.10537C10.7897 5.83486 10.7549 6.61943 11.0004 7.2042C11.1627 7.59092 11.4334 7.86953 11.7835 8.00986L11.7873 8.01133C11.946 8.07343 12.1149 8.10523 12.2853 8.10508C13.091 8.10508 13.9142 7.42686 14.3361 6.41611C14.6361 5.6875 14.6692 4.90352 14.4234 4.31846ZM11.2347 8.621C10.7745 8.34443 10.3394 8.08281 10.0553 7.61289C9.27127 6.31211 8.79783 5.52695 7.55652 5.52695C6.31521 5.52695 5.8406 6.31211 5.05486 7.61289C4.77009 8.0834 4.33416 8.34531 3.87244 8.62305C3.34304 8.94121 2.79607 9.26992 2.55994 9.9168C2.46814 10.15 2.4219 10.3986 2.42371 10.6492C2.42371 11.7024 3.24402 12.5594 4.25183 12.5594C4.77185 12.5594 5.32527 12.3792 5.91091 12.1885C6.474 12.0051 7.05613 11.8155 7.55945 11.8155C8.06277 11.8155 8.64343 12.0051 9.20447 12.1885C9.78894 12.378 10.3397 12.5582 10.8612 12.5582C11.8676 12.5582 12.6864 11.7013 12.6864 10.648C12.6872 10.3973 12.64 10.1486 12.5472 9.91562C12.3111 9.26816 11.7638 8.93916 11.2347 8.621ZM4.45105 4.49717C4.79968 4.93457 5.24207 5.17539 5.69675 5.17539C5.75883 5.17539 5.82081 5.17079 5.8822 5.16162C6.83054 5.02217 7.42146 3.86494 7.22752 2.5249C7.14636 1.96152 6.92957 1.43682 6.61902 1.04775C6.27097 0.611231 5.828 0.370703 5.37361 0.370703C5.31154 0.370705 5.24955 0.375308 5.18816 0.384473C4.23982 0.523926 3.6489 1.68115 3.84285 3.02119C3.92371 3.58369 4.1405 4.10781 4.45105 4.49717ZM9.23113 5.16162C9.29252 5.17079 9.35451 5.17539 9.41658 5.17539C9.87156 5.17539 10.3136 4.93457 10.6623 4.49717C10.9725 4.10781 11.1882 3.58369 11.2702 3.02061C11.4641 1.68115 10.8732 0.523926 9.92488 0.383887C9.86349 0.374722 9.8015 0.370119 9.73943 0.370117C9.28504 0.370703 8.84207 0.611231 8.49402 1.04775C8.18347 1.43682 7.96668 1.96152 7.88582 2.52549C7.69187 3.86494 8.28279 5.02217 9.23113 5.16162ZM3.32576 8.01133L3.32986 8.00986C3.67937 7.86953 3.94978 7.59121 4.11179 7.20478C4.3573 6.61885 4.32273 5.83516 4.01951 5.10566C3.59968 4.09609 2.77673 3.41758 1.97195 3.41758C1.80152 3.41733 1.63257 3.44913 1.4739 3.51133L1.4698 3.51279C1.12117 3.65195 0.850757 3.93145 0.688746 4.31787C0.443238 4.90381 0.477808 5.6875 0.781031 6.41699C1.20086 7.42656 2.0238 8.10508 2.82859 8.10508C2.99872 8.10521 3.16736 8.07341 3.32576 8.01133Z" fill="#FF0080" fill-opacity="0.2"/>
</svg>
