<svg width="16" height="16" viewBox="0 0 16 16" fill="none" xmlns="http://www.w3.org/2000/svg">
<path d="M12.54 4.16665H13.4467C13.32 3.98665 13.1867 3.81999 13.0467 3.65332L12.54 4.16665Z" fill="#292D32"/>
<path d="M12.3467 2.94688C12.18 2.80688 12.0134 2.67354 11.8334 2.54688V3.45354L12.3467 2.94688Z" fill="#28283C"/>
<path d="M13.0533 3.65329L15.02 1.68663C15.2133 1.49329 15.2133 1.17329 15.02 0.979961C14.8267 0.786628 14.5067 0.786628 14.3133 0.979961L12.3467 2.94663C12.6 3.16663 12.8333 3.40663 13.0533 3.65329Z" fill="#292D32"/>
<path d="M11.8333 2C11.8333 1.72667 11.6066 1.5 11.3333 1.5C11.0666 1.5 10.8533 1.71333 10.84 1.97333C11.1866 2.14 11.52 2.32667 11.8333 2.54667V2Z" fill="#292D32"/>
<path d="M14.5 4.6665C14.5 4.39317 14.2733 4.1665 14 4.1665H13.4467C13.6667 4.47984 13.86 4.81317 14.02 5.15984C14.2867 5.1465 14.5 4.93317 14.5 4.6665Z" fill="#292D32"/>
<path d="M8.5 9.83353H8.7C8.96 9.83353 9.16667 9.6002 9.16667 9.31353C9.16667 8.95353 9.06667 8.90019 8.84 8.82019L8.5 8.7002V9.83353Z" fill="#292D32"/>
<path d="M14.0267 5.16016C14.02 5.16016 14.0134 5.16683 14 5.16683H11.3334C11.2667 5.16683 11.2067 5.1535 11.14 5.12683C11.02 5.0735 10.92 4.98016 10.8667 4.8535C10.8467 4.7935 10.8334 4.7335 10.8334 4.66683V2.00016C10.8334 1.9935 10.84 1.98683 10.84 1.9735C9.97337 1.56683 9.01337 1.3335 8.00004 1.3335C4.32004 1.3335 1.33337 4.32016 1.33337 8.00016C1.33337 11.6802 4.32004 14.6668 8.00004 14.6668C11.68 14.6668 14.6667 11.6802 14.6667 8.00016C14.6667 6.98683 14.4334 6.02683 14.0267 5.16016ZM9.16671 7.88016C9.59337 8.02683 10.1667 8.34016 10.1667 9.32016C10.1667 10.1535 9.50671 10.8402 8.70004 10.8402H8.50004V11.0068C8.50004 11.2802 8.27337 11.5068 8.00004 11.5068C7.72671 11.5068 7.50004 11.2802 7.50004 11.0068V10.8402H7.44671C6.56004 10.8402 5.83337 10.0935 5.83337 9.1735C5.83337 8.8935 6.06004 8.66683 6.33337 8.66683C6.60671 8.66683 6.83337 8.8935 6.83337 9.16683C6.83337 9.5335 7.10671 9.8335 7.44671 9.8335H7.50004V8.3535L6.83337 8.12016C6.40671 7.9735 5.83337 7.66016 5.83337 6.68016C5.83337 5.84683 6.49337 5.16016 7.30004 5.16016H7.50004V5.00016C7.50004 4.72683 7.72671 4.50016 8.00004 4.50016C8.27337 4.50016 8.50004 4.72683 8.50004 5.00016V5.16683H8.55337C9.44004 5.16683 10.1667 5.9135 10.1667 6.8335C10.1667 7.10683 9.94004 7.3335 9.66671 7.3335C9.39337 7.3335 9.16671 7.10683 9.16671 6.8335C9.16671 6.46683 8.89337 6.16683 8.55337 6.16683H8.50004V7.64683L9.16671 7.88016Z" fill="#292D32"/>
<path d="M6.83337 6.6865C6.83337 7.0465 6.93337 7.09984 7.16004 7.17984L7.50004 7.29984V6.1665H7.30004C7.04671 6.1665 6.83337 6.39984 6.83337 6.6865Z" fill="#292D32"/>
</svg>
