<svg width="100" height="101" viewBox="0 0 100 101" fill="none" xmlns="http://www.w3.org/2000/svg">
<g clip-path="url(#clip0_7169_258824)">
<path d="M46.6735 100.848C31.6375 100.848 19.4487 88.6591 19.4487 73.6232C19.4487 58.5874 31.6375 46.3955 46.6735 46.3955C61.7125 46.3955 73.9014 58.5872 73.9014 73.6232C73.9014 88.6593 61.7125 100.848 46.6735 100.848Z" fill="#EAC6BB"/>
<path d="M57.4585 70.3975H69.0887V11.9289C69.0887 8.72149 66.4793 6.11523 63.2749 6.11523C60.0675 6.11523 57.4585 8.72149 57.4585 11.9289V70.3975Z" fill="#EAC6BB"/>
<path d="M44.7905 65.1329H56.4178V6.66129C56.4178 3.45685 53.8086 0.847656 50.6044 0.847656C47.3968 0.847656 44.7905 3.45665 44.7905 6.66129V65.1329Z" fill="#EAC6BB"/>
<path d="M32.1196 70.3975H43.7469V11.9289C43.7469 8.72149 41.1377 6.11523 37.9333 6.11523C34.7259 6.11523 32.1196 8.72149 32.1196 11.9289V70.3975Z" fill="#EAC6BB"/>
<path d="M19.4487 73.6228H31.076V22.4601C31.076 19.2527 28.4697 16.6465 25.2624 16.6465C22.0581 16.6465 19.4487 19.2527 19.4487 22.4601V73.6228Z" fill="#EAC6BB"/>
<path d="M93.772 21.5811H6.22852V67.4372H93.772V21.5811Z" fill="#8CC153"/>
<path d="M18.7344 27.834H81.2649C81.2649 31.2887 84.0636 34.0872 87.5183 34.0872V54.9306C84.0636 54.9306 81.2649 57.7289 81.2649 61.1836H18.7344C18.7344 57.7289 15.9359 54.9306 12.4814 54.9306V34.0872C15.9361 34.0872 18.7344 31.2887 18.7344 27.834Z" fill="#A0D468"/>
<path d="M49.9999 54.9305C55.756 54.9305 60.4222 50.2643 60.4222 44.5082C60.4222 38.7522 55.756 34.0859 49.9999 34.0859C44.2439 34.0859 39.5776 38.7522 39.5776 44.5082C39.5776 50.2643 44.2439 54.9305 49.9999 54.9305Z" fill="#8CC153"/>
<path d="M85.1865 57.3936L85.1896 57.3905C86.1385 55.5442 86.3157 53.4386 85.6841 51.4608C85.0492 49.4832 83.6852 47.8688 81.8387 46.9166C80.7249 46.3428 79.5284 46.0498 78.2834 46.0498C75.3569 46.0498 72.7046 47.6672 71.365 50.2674L57.4585 77.2208L71.7436 84.0323L85.1836 57.3997L85.1865 57.3936Z" fill="#EAC6BB"/>
</g>
<defs>
<clipPath id="clip0_7169_258824">
<rect width="100" height="100" fill="white" transform="translate(0 0.847656)"/>
</clipPath>
</defs>
</svg>
