<svg width="14" height="14" viewBox="0 0 14 14" fill="none" xmlns="http://www.w3.org/2000/svg">
<g clip-path="url(#clip0_2239_159002)">
<path d="M4.95866 11.0833H4.66699C2.33366 11.0833 1.16699 10.5 1.16699 7.58329V4.66663C1.16699 2.33329 2.33366 1.16663 4.66699 1.16663H9.33366C11.667 1.16663 12.8337 2.33329 12.8337 4.66663V7.58329C12.8337 9.91663 11.667 11.0833 9.33366 11.0833H9.04199C8.86116 11.0833 8.68616 11.1708 8.57533 11.3166L7.70033 12.4833C7.31533 12.9966 6.68533 12.9966 6.30033 12.4833L5.42533 11.3166C5.33199 11.1883 5.11616 11.0833 4.95866 11.0833V11.0833Z" stroke="#68616D" stroke-miterlimit="10" stroke-linecap="round" stroke-linejoin="round"/>
<path d="M9.33131 6.41663H9.33715M6.9974 6.41663H7.00323M4.66406 6.41663H4.66873" stroke="#68616D" stroke-width="1.5" stroke-linecap="round" stroke-linejoin="round"/>
</g>
<defs>
<clipPath id="clip0_2239_159002">
<rect width="14" height="14" fill="white"/>
</clipPath>
</defs>
</svg>
