<svg width="48" height="35" viewBox="0 0 48 35" fill="none" xmlns="http://www.w3.org/2000/svg">
<path d="M45.832 10.5625H40.5312L39.0039 6.87891C37.4766 3.01562 33.793 0.5 29.6602 0.5H18.25C14.1172 0.5 10.4336 3.01562 8.90625 6.87891L7.37891 10.5625H2.07812C1.35938 10.5625 0.820312 11.2812 1 11.9102L1.53906 14.0664C1.62891 14.6055 2.07812 14.875 2.61719 14.875H4.41406C3.15625 15.9531 2.4375 17.4805 2.4375 19.1875V23.5C2.4375 25.0273 2.97656 26.2852 3.875 27.2734V32.125C3.875 33.7422 5.13281 35 6.75 35H9.625C11.1523 35 12.5 33.7422 12.5 32.125V29.25H35.5V32.125C35.5 33.7422 36.7578 35 38.375 35H41.25C42.7773 35 44.125 33.7422 44.125 32.125V27.2734C44.9336 26.2852 45.5625 25.0273 45.5625 23.5V19.1875C45.5625 17.4805 44.7539 15.9531 43.4961 14.875H45.3828C45.832 14.875 46.2812 14.6055 46.3711 14.0664L46.9102 11.9102C47.0898 11.2812 46.5508 10.5625 45.832 10.5625ZM14.207 9.03516C14.9258 7.32812 16.4531 6.25 18.25 6.25H29.6602C31.457 6.25 32.9844 7.32812 33.7031 9.03516L35.5 13.4375H12.5L14.207 9.03516ZM9.625 23.5C7.82812 23.5 6.75 22.4219 6.75 20.625C6.75 18.918 7.82812 17.75 9.625 17.75C11.332 17.75 13.9375 20.3555 13.9375 22.0625C13.9375 23.7695 11.332 23.5 9.625 23.5ZM38.375 23.5C36.5781 23.5 34.0625 23.7695 34.0625 22.0625C34.0625 20.3555 36.5781 17.75 38.375 17.75C40.082 17.75 41.25 18.918 41.25 20.625C41.25 22.4219 40.082 23.5 38.375 23.5Z" fill="#FF008A"/>
</svg>
