<svg width="66" height="67" viewBox="0 0 66 67" fill="none" xmlns="http://www.w3.org/2000/svg">
<g clip-path="url(#clip0_7169_275349)">
<path d="M36.7194 12.9287C34.5985 8.07253 29.7545 4.67871 24.1149 4.67871C18.4772 4.67871 13.6332 8.07253 11.5103 12.9287L10.3662 14.3033V18.4283C10.3662 26.0227 16.5215 32.179 24.1149 32.179C31.7102 32.179 37.8656 26.0227 37.8656 18.4283V14.3033L36.7194 12.9287Z" fill="#F6BB42"/>
<path d="M37.8656 14.3033C37.8656 21.8977 31.7102 28.054 24.1149 28.054C16.5215 28.054 10.3662 21.8977 10.3662 14.3033C10.3662 6.70994 16.5215 0.553711 24.1149 0.553711C31.7104 0.553711 37.8656 6.70994 37.8656 14.3033Z" fill="#FFCE54"/>
<path d="M30.9916 24.9609H28.2402V29.6016H30.9916V24.9609Z" fill="black"/>
<path d="M24.1149 8.80371C23.3556 8.80371 22.7412 9.419 22.7412 10.1783V18.4283C22.7412 19.1886 23.3556 19.804 24.1149 19.804C24.8743 19.804 25.4906 19.1887 25.4906 18.4283V10.1783C25.4906 9.419 24.8743 8.80371 24.1149 8.80371Z" fill="#E8AA3D"/>
<path d="M54.2148 38.5082C54.2148 36.7961 52.9962 35.4084 51.272 35.4084C49.548 35.4084 47.5843 36.7961 47.5843 38.5082V36.9855C47.5843 35.2736 45.8319 33.8847 44.1098 33.8847C42.3835 33.8847 40.6333 35.2734 40.6333 36.9855V34.6743C40.6333 32.9813 38.9011 31.6066 37.2052 31.5754C37.1307 31.5714 37.0541 31.5664 36.9756 31.5664C35.2535 31.5664 33.5193 32.9551 33.5193 34.6673V22.9045C33.5193 21.1926 31.8919 19.8037 30.1679 19.8037C28.4437 19.8037 26.8687 21.1925 26.8687 22.9045V46.5831L24.5866 43.6042C23.3801 42.0312 21.1183 41.725 19.5331 42.9235C17.9479 44.1219 17.6417 46.3677 18.8502 47.9427L29.5393 61.893L30.1738 63.8426C30.349 64.6079 31.0379 65.1799 31.8616 65.1799H48.7182C48.7182 65.1799 48.7202 65.1778 48.7242 65.1759C48.7383 65.1759 48.7504 65.1799 48.7644 65.1799C49.554 65.1799 50.2166 64.6563 50.428 63.9393C50.432 63.9272 50.4381 63.9192 50.4401 63.9071C54.9298 45.5737 54.2148 38.5082 54.2148 38.5082Z" fill="#F5F7FA"/>
<path d="M55.5905 38.4446C55.5562 35.967 53.673 34.0346 51.272 34.0346C50.2851 34.0346 49.2498 34.3608 48.3737 34.9248C47.538 33.5148 45.8984 32.5107 44.1098 32.5107C43.2457 32.5107 42.4178 32.7443 41.6988 33.1442C41.437 32.5228 41.0181 31.9497 40.4561 31.4633C39.5617 30.689 38.3977 30.2298 37.2576 30.2015C37.1791 30.1976 37.0843 30.1925 36.9755 30.1925C36.2423 30.1925 35.5313 30.3627 34.8928 30.6619V22.9052C34.8928 20.4793 32.7297 18.4287 30.1678 18.4287C27.6339 18.4287 25.4929 20.4792 25.4929 22.9052V42.5413C24.5461 41.4416 23.1846 40.8172 21.7142 40.8172C20.6185 40.8172 19.5772 41.1677 18.7051 41.8283C17.6416 42.63 16.9589 43.7963 16.7816 45.1114C16.6044 46.4247 16.9508 47.7257 17.7585 48.7812L28.3046 62.542L28.8485 64.2218C29.199 65.5974 30.4296 66.5542 31.8618 66.5542H48.9216L48.9357 66.5502C50.2166 66.4777 51.3446 65.6095 51.7313 64.3829C51.7454 64.3427 51.7615 64.2903 51.7757 64.2298C56.084 46.6381 55.659 39.2864 55.5905 38.4446ZM49.119 63.5168C49.1169 63.5289 49.1129 63.541 49.1089 63.553C49.0746 63.6679 48.9639 63.7887 48.7967 63.8029C48.7745 63.8029 48.7504 63.8008 48.7242 63.8008H48.2731L48.2691 63.8029H31.8617C31.6723 63.8029 31.5434 63.6679 31.5132 63.5329L31.4992 63.4765L30.774 61.2448L19.9399 47.1072C19.5814 46.64 19.4284 46.062 19.5069 45.4819C19.5854 44.8978 19.8895 44.3782 20.3629 44.0197C20.7557 43.7256 21.223 43.5685 21.7144 43.5685C22.4213 43.5685 23.0699 43.8868 23.4949 44.4385L28.2443 50.6382V22.9052C28.2443 22.002 29.1607 21.1791 30.1678 21.1791C31.1829 21.1791 32.1437 22.0181 32.1437 22.9052V34.668V40.4063H32.1458C32.1458 40.4143 32.1437 40.4224 32.1437 40.4306C32.1437 41.1879 32.76 41.8042 33.5192 41.8042C34.2786 41.8042 34.8928 41.1879 34.8928 40.4306C34.8928 40.4226 34.8928 40.4144 34.8928 40.4063V34.668C34.8928 33.7968 35.9262 32.9418 36.9755 32.9418C37.0199 32.9418 37.0642 32.9448 37.1044 32.9478L37.1789 32.9508C38.2284 32.9699 39.2595 33.825 39.2595 34.675V36.9862V40.4062C39.2595 40.4142 39.2595 40.4223 39.2595 40.4304C39.2595 41.1878 39.8739 41.8041 40.6332 41.8041C41.3925 41.8041 42.0088 41.1878 42.0088 40.4304C42.0088 40.4224 42.0067 40.4143 42.0067 40.4062H42.0088V36.9862C42.0088 36.1161 43.0481 35.2611 44.1097 35.2611C45.1489 35.2611 46.2084 36.1322 46.2084 36.9862V38.5089V40.4062H46.2105C46.2105 40.4142 46.2084 40.4223 46.2084 40.4304C46.2084 41.1878 46.8248 41.8041 47.5842 41.8041C48.3435 41.8041 48.9598 41.1878 48.9598 40.4304C48.9598 40.4224 48.9577 40.4143 48.9577 40.4062H48.9598V38.5089C48.9598 37.6871 50.1702 36.7847 51.272 36.7847C52.3012 36.7847 52.8391 37.6509 52.8391 38.5089V38.5734L52.847 38.6439C52.8532 38.7144 53.4534 45.7941 49.119 63.5168Z" fill="#434A54"/>
</g>
<defs>
<clipPath id="clip0_7169_275349">
<rect width="66" height="66" fill="white" transform="translate(0 0.553711)"/>
</clipPath>
</defs>
</svg>
