<svg width="28" height="44" viewBox="0 0 28 44" fill="none" xmlns="http://www.w3.org/2000/svg">
<path d="M0.0110476 37.4684C0.0073652 37.2536 0.00122771 37.04 0.00122771 36.8252C2.62239e-07 25.7008 0 14.5764 0 3.452C0 1.9901 1.32688 0.647272 2.77772 0.648499C4.80056 0.650954 6.8234 0.655864 8.84502 0.659546C8.96899 0.795794 8.96654 0.967637 8.97022 1.13457C8.97636 1.3641 8.97145 1.59241 8.97267 1.82194C8.98127 2.95856 9.46243 3.44954 10.588 3.45445C11.8412 3.46059 13.0932 3.45323 14.3465 3.45568C15.418 3.46305 16.4908 3.46796 17.5624 3.44954C18.4695 3.43482 18.9604 2.91315 19.0071 2.00852C19.0304 1.55804 18.8905 1.08915 19.1298 0.658319C20.0271 0.658319 20.9244 0.659546 21.8216 0.659546C23.4247 0.878033 24.3932 1.97292 24.4386 3.62016C24.4422 3.75763 24.441 3.89634 24.441 4.03381C24.441 14.871 24.4422 25.7082 24.4373 36.5453C24.4373 36.8596 24.511 37.1934 24.295 37.4794C24.0949 37.6279 23.8592 37.6071 23.6309 37.6071C15.9753 37.6095 8.3209 37.6095 0.665279 37.6071C0.441882 37.6071 0.203757 37.6378 0.0110476 37.4684Z" fill="#C0BBFF"/>
<path d="M24.2944 37.4438C24.2944 26.1758 24.2956 14.9078 24.2956 3.63858C24.2956 2.30066 23.3959 0.957831 21.8922 0.716023C21.8665 0.71234 21.8456 0.679199 21.8223 0.660787C23.0031 0.657105 24.1839 0.633784 25.3635 0.655878C26.6854 0.680427 27.9718 2.03676 27.973 3.38573C27.9779 6.66671 27.9755 9.94769 27.9755 13.2287C27.9755 21.1089 27.9755 28.9891 27.9755 36.8694C27.9755 37.0682 27.9681 37.2671 27.9632 37.4671C27.8576 37.5715 27.7214 37.5948 27.5839 37.596C26.6093 37.6083 25.6335 37.6132 24.6589 37.5936C24.5509 37.5911 24.4478 37.5678 24.3533 37.5101C24.3336 37.488 24.314 37.4659 24.2944 37.4438Z" fill="#837AFC"/>
<path d="M0.00976562 37.4684C2.6316 37.4647 5.25221 37.4598 7.87405 37.4598C13.1484 37.4585 18.4215 37.4598 23.6959 37.4585C23.8947 37.4585 24.0936 37.4487 24.2924 37.4438L24.2949 37.4745C24.5281 37.8256 24.4446 38.2171 24.4029 38.5866C24.2384 40.0399 22.9459 41.2379 21.4853 41.2686C19.973 41.3005 18.4608 41.2784 16.9486 41.2747C16.7964 41.2747 16.6417 41.271 16.5055 41.1863C16.3741 41.001 16.5644 40.9175 16.6356 40.8034C16.9326 40.321 16.7289 39.8373 16.163 39.8189C14.7134 39.7723 13.2626 39.7748 11.8142 39.8177C11.2483 39.8349 11.0396 40.3173 11.3342 40.7984C11.4054 40.9151 11.592 40.9973 11.4705 41.1851C11.2888 41.298 11.0863 41.2796 10.8887 41.2796C8.25088 41.2821 5.61308 41.2931 2.97406 41.2747C1.83867 41.2661 0.943856 40.7727 0.320311 39.803C0.111644 39.4789 0.0772753 39.1168 0.0134478 38.756C0.0134478 38.3264 0.0109931 37.8967 0.00976562 37.4684Z" fill="#776EF1"/>
<path d="M16.4523 41.1237C18.1793 41.1287 19.9075 41.1679 21.6333 41.1274C23.0007 41.0955 24.276 39.7134 24.2944 38.3448C24.2981 38.0539 24.2957 37.7642 24.2969 37.4733C25.5194 37.4709 26.742 37.4684 27.9645 37.4659C27.9682 38.524 27.9952 39.5821 27.9694 40.6401C27.9351 42.0713 26.6205 43.3368 25.1684 43.3442C22.8988 43.3565 20.6293 43.3479 18.3597 43.3479C13.2523 43.3479 8.1461 43.3491 3.03867 43.3479C1.25273 43.3479 0.00318058 42.0996 0.00195312 40.3185C0.00195312 39.7969 0.0105454 39.2764 0.0154552 38.7548C0.370189 39.9773 1.12262 40.796 2.39057 41.0894C2.49368 41.1127 2.60047 41.1373 2.7048 41.1373C5.64455 41.1348 8.58429 41.1287 11.5253 41.1237C11.6897 40.9789 11.8947 40.9949 12.0911 40.9936C13.3566 40.9887 14.6221 40.9887 15.8876 40.9936C16.0828 40.9949 16.2878 40.9801 16.4523 41.1237Z" fill="#4C40ED"/>
<path d="M14.3674 3.58334C13.0074 3.58702 11.6473 3.60052 10.2873 3.5907C9.46125 3.58456 8.85366 2.95856 8.83893 2.12635C8.83034 1.63783 8.84261 1.14807 8.84629 0.659546C11.0533 0.660773 13.259 0.663228 15.4659 0.664456C15.6807 1.41688 15.7016 2.17177 15.3788 2.89474C15.1947 3.30961 14.8313 3.53792 14.3674 3.58334Z" fill="#4C40ED"/>
<path d="M14.3652 3.58336C15.1643 3.25686 15.5301 2.67259 15.465 1.80355C15.4368 1.4255 15.4626 1.04376 15.4638 0.664478C16.6863 0.662023 17.9089 0.660795 19.1302 0.65834C19.1339 1.1616 19.1486 1.66485 19.1376 2.16811C19.1204 2.96595 18.5054 3.58336 17.7039 3.59072C16.5918 3.59931 15.4785 3.58581 14.3652 3.58336Z" fill="#4C40ED"/>
<path d="M11.5801 23.6755C9.3768 22.248 7.70379 20.4007 6.96363 17.8206C6.7476 17.0669 6.62977 16.2961 6.62854 15.5105C6.62608 14.1149 6.63222 12.7193 6.62117 11.3237C6.61872 11.061 6.6715 10.9579 6.96854 10.9395C9.52655 10.7811 11.7998 9.89614 13.7453 8.2133C13.9036 8.07706 14.008 8.00586 14.2007 8.18139C15.244 9.13144 16.4653 9.78812 17.7689 10.3024C17.8401 11.4476 17.8315 12.5941 17.7726 13.7393C17.597 14.1063 17.1809 14.191 16.9158 14.4696C15.9645 15.4663 14.9752 16.4274 14.0006 17.402C13.2506 18.152 13.2506 18.152 12.5117 17.4143C12.1975 17.1001 11.8931 16.776 11.5653 16.4765C11.2462 16.1844 10.8718 16.1696 10.6202 16.4176C10.3674 16.6668 10.371 17.0546 10.6669 17.3615C11.337 18.0562 12.0183 18.7387 12.713 19.4077C13.1083 19.7882 13.4311 19.7649 13.8656 19.3352C14.9445 18.2698 16.0087 17.1897 17.0877 16.1255C17.2264 15.9892 17.3331 15.7486 17.6069 15.8444C17.7124 16.5084 17.4694 17.1148 17.2534 17.7089C16.4076 20.0373 14.7935 21.7361 12.7486 23.0593C12.3828 23.2975 12.033 23.5884 11.5801 23.6755Z" fill="#4C40ED"/>
<path d="M11.582 23.6755C12.3504 23.1305 13.1888 22.6923 13.9179 22.0847C15.8425 20.478 17.1768 18.5227 17.5744 16.0015C17.5843 15.9425 17.572 15.8799 17.5695 15.8186C17.5499 15.7781 17.5487 15.7363 17.5646 15.6934C17.6456 15.5436 17.777 15.4381 17.8924 15.319C18.4828 14.7102 18.4386 14.369 17.7095 13.943C17.6984 13.9246 17.6874 13.9062 17.6763 13.8878C17.6751 12.8199 17.6714 11.752 17.6726 10.6829C17.6726 10.5504 17.6383 10.4031 17.7721 10.3036C18.8522 10.651 19.9545 10.8879 21.0911 10.9456C21.2433 10.953 21.3599 10.9689 21.3525 11.1678C21.2764 13.2311 21.5809 15.3141 21.1439 17.3553C20.6013 19.8925 19.0732 21.7828 17.016 23.2827C16.185 23.8891 15.2938 24.3911 14.3561 24.8158C14.0959 24.9336 13.8786 24.9336 13.6208 24.8097C12.9175 24.4721 12.2093 24.1481 11.582 23.6755Z" fill="#4C40ED"/>
<path d="M5.89254 32.1204C5.55499 32.3069 5.30828 32.4592 5.04806 32.5831C4.67614 32.7599 4.28949 32.6396 4.09064 32.3069C3.88443 31.9633 3.96299 31.5926 4.3079 31.3385C4.44292 31.2391 4.59635 31.1642 4.73997 31.0783C5.14625 30.8365 5.14625 30.8266 4.72278 30.5775C4.59145 30.5001 4.45152 30.4326 4.32754 30.343C3.97281 30.0877 3.88321 29.7293 4.07592 29.3819C4.27476 29.0223 4.67 28.8983 5.06401 29.0898C5.32178 29.215 5.56727 29.3672 5.89254 29.5476C5.89254 29.2003 5.8815 28.9167 5.895 28.6356C5.91709 28.1925 6.20554 27.9004 6.61183 27.893C7.03407 27.8844 7.33971 28.1864 7.36058 28.6516C7.37285 28.9241 7.36303 29.1978 7.36303 29.5047C7.67358 29.4335 7.88102 29.2408 8.1216 29.1205C8.5463 28.9069 8.9489 28.9965 9.16493 29.3562C9.3871 29.7256 9.28522 30.1061 8.87648 30.3798C8.66167 30.5247 8.43337 30.6499 8.18665 30.7972C8.34622 31.0414 8.60767 31.1077 8.81633 31.244C9.2619 31.5349 9.39324 31.9019 9.17843 32.2873C8.95872 32.6838 8.54016 32.766 8.06513 32.5168C7.85156 32.4051 7.66744 32.2333 7.36303 32.1695C7.36303 32.4395 7.36794 32.6911 7.3618 32.9428C7.34953 33.4546 7.07458 33.7688 6.64006 33.7762C6.1859 33.7848 5.90236 33.4632 5.89254 32.9231C5.88886 32.6801 5.89254 32.4371 5.89254 32.1204Z" fill="#203066"/>
<path d="M13.2528 32.1253C12.9496 32.2934 12.7041 32.4407 12.4488 32.5672C12.0548 32.7623 11.6559 32.6531 11.4497 32.3045C11.2373 31.9473 11.3368 31.5803 11.705 31.3066C11.9333 31.1372 12.3592 31.0832 12.3641 30.8193C12.369 30.602 11.9443 30.5271 11.7234 30.3688C11.3429 30.0975 11.2361 29.7403 11.4386 29.3782C11.6461 29.0051 12.0499 28.8946 12.4697 29.1082C12.7115 29.231 12.9447 29.3721 13.2528 29.5452C13.2528 29.2432 13.2504 29.0063 13.2528 28.7694C13.2602 28.2183 13.5241 27.8992 13.9758 27.8906C14.4459 27.882 14.7184 28.2073 14.7245 28.7891C14.727 29.0162 14.7245 29.2432 14.7245 29.5047C15.0351 29.4298 15.2425 29.2395 15.4831 29.118C15.9066 28.9057 16.3104 28.9965 16.5264 29.3562C16.7474 29.7256 16.6443 30.1061 16.2355 30.3798C16.0207 30.5235 15.7924 30.6499 15.5481 30.796C15.7065 31.0439 15.9716 31.1065 16.1791 31.244C16.6222 31.5349 16.7535 31.9043 16.5387 32.2873C16.3178 32.6813 15.8967 32.7672 15.4266 32.5119C15.2143 32.3966 15.0056 32.2763 14.7245 32.1179C14.7245 32.4076 14.7257 32.6298 14.7245 32.8519C14.7196 33.4411 14.4618 33.7688 13.9991 33.775C13.5327 33.7823 13.2589 33.4522 13.2528 32.8728C13.2516 32.647 13.2528 32.4199 13.2528 32.1253Z" fill="#203066"/>
<path d="M20.6158 29.5513C20.6158 29.1953 20.6059 28.9204 20.6182 28.6467C20.6391 28.1827 20.9459 27.8807 21.3694 27.8918C21.7745 27.9016 22.0617 28.195 22.0826 28.6393C22.0961 28.9143 22.085 29.1892 22.085 29.4936C22.3943 29.4482 22.5944 29.2444 22.8325 29.1254C23.2658 28.9081 23.6562 28.9879 23.8808 29.3451C24.1177 29.7244 24.0035 30.111 23.5727 30.4007C23.3616 30.5431 23.1075 30.6229 22.8939 30.8622C23.105 30.9874 23.2977 31.0991 23.488 31.2145C23.9888 31.5189 24.13 31.9141 23.8845 32.3155C23.65 32.6973 23.2413 32.7648 22.7601 32.4972C22.5613 32.3867 22.3649 32.2726 22.085 32.113C22.085 32.4604 22.0961 32.7415 22.0826 33.0201C22.0617 33.4828 21.7499 33.786 21.3289 33.7737C20.9251 33.7627 20.6379 33.4681 20.617 33.0238C20.6047 32.7488 20.6145 32.4739 20.6145 32.1609C20.2978 32.2394 20.0781 32.4395 19.8228 32.5622C19.3994 32.7648 19.0017 32.6543 18.7954 32.2762C18.5966 31.9117 18.7058 31.5619 19.0913 31.2894C19.3122 31.1335 19.7234 31.0709 19.7259 30.834C19.7271 30.5946 19.3147 30.5333 19.0949 30.3774C18.6948 30.0951 18.588 29.7207 18.8139 29.35C19.0336 28.9904 19.4325 28.8995 19.8572 29.1217C20.088 29.2432 20.3089 29.377 20.6158 29.5513Z" fill="#203066"/>
<path d="M16.4532 41.1237C14.8109 41.1237 13.1685 41.1237 11.525 41.1237C11.1653 40.904 10.9407 40.6119 11.0856 40.1724C11.223 39.7563 11.5594 39.6606 11.9644 39.6643C13.3134 39.6741 14.6636 39.6741 16.0125 39.6643C16.4176 39.6618 16.7539 39.7563 16.8914 40.1724C17.0375 40.6119 16.8116 40.904 16.4532 41.1237Z" fill="#EDEDED"/>
<path d="M17.583 15.7474C17.5793 15.7707 17.5744 15.7953 17.5707 15.8186C16.3961 16.9834 15.2189 18.1458 14.0455 19.3119C13.3913 19.9612 13.1212 19.9661 12.4817 19.3279C11.8643 18.7105 11.2432 18.0955 10.6295 17.4744C10.249 17.089 10.2134 16.6569 10.5215 16.3366C10.8308 16.0162 11.2751 16.0408 11.6593 16.4139C12.0877 16.83 12.5271 17.24 12.9224 17.6868C13.1887 17.9875 13.3446 17.9372 13.6024 17.672C14.7145 16.5305 15.8511 15.4135 16.9754 14.283C17.1743 14.083 17.378 13.905 17.6763 13.8878L17.6665 13.9124C17.9132 14.5359 17.9046 15.1484 17.583 15.7474Z" fill="#EDEDED"/>
<path d="M17.582 15.7474C17.7171 15.141 17.6643 14.5249 17.6655 13.9124C18.0055 13.8768 18.2264 14.0511 18.3504 14.3407C18.483 14.6488 18.4228 14.9434 18.1823 15.184C17.9883 15.3779 17.7821 15.5596 17.582 15.7474Z" fill="#DFDFDE"/>
</svg>
