<svg width="15" height="13" viewBox="0 0 15 13" fill="none" xmlns="http://www.w3.org/2000/svg">
<path d="M14.3668 4.40732C14.2042 4.0209 13.9341 3.74229 13.5854 3.60195L13.5807 3.6002C13.4221 3.53804 13.2531 3.50624 13.0827 3.50645H13.0639C12.2659 3.51846 11.4511 4.19668 11.0369 5.19424C10.7331 5.92373 10.6982 6.7083 10.9437 7.29307C11.106 7.67979 11.3767 7.9584 11.7268 8.09873L11.7306 8.10019C11.8893 8.1623 12.0583 8.1941 12.2287 8.19394C13.0344 8.19394 13.8576 7.51572 14.2795 6.50498C14.5795 5.77637 14.6126 4.99238 14.3668 4.40732ZM11.1781 8.70986C10.7178 8.4333 10.2828 8.17168 9.99861 7.70176C9.21463 6.40098 8.74119 5.61582 7.49988 5.61582C6.25857 5.61582 5.78396 6.40098 4.99822 7.70176C4.71345 8.17227 4.27752 8.43418 3.8158 8.71191C3.2864 9.03008 2.73943 9.35879 2.5033 10.0057C2.4115 10.2389 2.36525 10.4875 2.36707 10.7381C2.36707 11.7913 3.18738 12.6482 4.19519 12.6482C4.71521 12.6482 5.26863 12.4681 5.85427 12.2773C6.41736 12.0939 6.99949 11.9044 7.50281 11.9044C8.00613 11.9044 8.58679 12.0939 9.14783 12.2773C9.7323 12.4669 10.2831 12.6471 10.8046 12.6471C11.8109 12.6471 12.6298 11.7901 12.6298 10.7369C12.6306 10.4861 12.5834 10.2375 12.4906 10.0045C12.2545 9.35703 11.7072 9.02803 11.1781 8.70986ZM4.39441 4.58604C4.74304 5.02344 5.18543 5.26426 5.64011 5.26426C5.70218 5.26426 5.76417 5.25965 5.82556 5.25049C6.7739 5.11104 7.36482 3.95381 7.17088 2.61377C7.08972 2.05039 6.87293 1.52568 6.56238 1.13662C6.21433 0.700098 5.77136 0.45957 5.31697 0.45957C5.2549 0.459572 5.19291 0.464175 5.13152 0.47334C4.18318 0.612793 3.59226 1.77002 3.78621 3.11006C3.86707 3.67256 4.08386 4.19668 4.39441 4.58604ZM9.17449 5.25049C9.23588 5.25965 9.29786 5.26426 9.35994 5.26426C9.81492 5.26426 10.257 5.02344 10.6056 4.58604C10.9159 4.19668 11.1315 3.67256 11.2136 3.10947C11.4075 1.77002 10.8166 0.612793 9.86824 0.472754C9.80685 0.463589 9.74486 0.458986 9.68279 0.458984C9.22839 0.45957 8.78543 0.700098 8.43738 1.13662C8.12683 1.52568 7.91003 2.05039 7.82917 2.61436C7.63523 3.95381 8.22615 5.11104 9.17449 5.25049ZM3.26912 8.10019L3.27322 8.09873C3.62273 7.9584 3.89314 7.68008 4.05515 7.29365C4.30066 6.70771 4.26609 5.92402 3.96287 5.19453C3.54304 4.18496 2.72009 3.50645 1.91531 3.50645C1.74488 3.5062 1.57593 3.538 1.41726 3.6002L1.41316 3.60166C1.06453 3.74082 0.794117 4.02031 0.632105 4.40674C0.386597 4.99268 0.421168 5.77637 0.72439 6.50586C1.14421 7.51543 1.96716 8.19394 2.77195 8.19394C2.94208 8.19408 3.11072 8.16228 3.26912 8.10019Z" fill="#FF0080" fill-opacity="0.2"/>
</svg>
