<svg width="48" height="48" viewBox="0 0 48 48" fill="none" xmlns="http://www.w3.org/2000/svg">
<path d="M47.9248 36.4422C47.7134 35.1308 47.0768 34.0345 46.1829 33.0815C44.0288 30.7843 41.2427 29.581 38.3344 28.6057C37.8717 28.4506 37.3842 28.7491 37.2327 29.178C37.0753 29.6268 37.2597 30.091 37.7049 30.3284C37.8693 30.4153 38.049 30.4729 38.2229 30.5446C39.1602 30.9288 40.1186 31.2696 41.0313 31.7055C42.4184 32.3683 43.7152 33.1814 44.7805 34.313C46.5236 36.166 46.5623 38.1378 44.898 40.0414C43.8291 41.2658 42.4819 42.1107 41.0407 42.8075C37.073 44.7264 32.8245 45.5477 28.4786 45.9296C24.4311 46.2845 20.3917 46.1693 16.3712 45.5571C13.0859 45.0565 9.884 44.2552 6.88533 42.7793C5.3901 42.0425 4.00763 41.1483 2.91645 39.8534C1.59271 38.2788 1.52224 36.5362 2.74966 34.8817C3.74335 33.5421 5.09528 32.6444 6.55175 31.9018C10.0755 30.1039 13.8717 29.2567 17.7642 28.7596C18.0778 28.7185 18.2458 28.8384 18.4243 29.0687C19.9548 31.0451 21.4946 33.0157 23.0345 34.9863C23.7005 35.837 24.269 35.8288 24.942 34.9651C25.5481 34.1896 26.1847 33.4352 26.7461 32.6279C27.0962 32.1238 27.4485 31.9441 28.0875 32.0298C30.042 32.2919 31.9859 32.5974 33.8171 33.353C34.557 33.6585 35.27 34.078 35.9113 34.5586C36.5291 35.0215 36.515 35.5503 35.9231 36.0509C35.4767 36.4304 34.9681 36.7665 34.4361 37.0086C31.8637 38.1789 29.107 38.522 26.3256 38.7171C24.0117 38.8781 21.7002 38.8041 19.4015 38.5103C17.3848 38.253 15.381 37.8969 13.5334 36.9992C12.9414 36.7113 12.3905 36.3 11.8984 35.8582C11.4943 35.4951 11.5049 35.1214 11.9031 34.756C12.3565 34.3388 12.8909 34.0075 13.4007 33.6526C13.8846 33.3142 14.0443 32.8124 13.7906 32.3624C13.5346 31.9088 13.0119 31.7549 12.4927 32.031C12.0252 32.2801 11.5554 32.5433 11.1431 32.8712C9.24504 34.3776 9.29789 36.3705 11.2477 37.8346C12.1979 38.5479 13.2715 39.005 14.3908 39.3646C17.0595 40.2224 19.815 40.5314 22.6034 40.6289C25.8817 40.7441 29.1305 40.5196 32.3218 39.7288C33.951 39.3258 35.5249 38.777 36.8756 37.7289C38.6234 36.3729 38.6786 34.4164 36.9907 33.0004C36.6466 32.7102 36.266 32.4552 35.8726 32.2355C34.1154 31.2578 32.1856 30.8113 30.2299 30.4588C29.7307 30.3683 29.2292 30.2931 28.6795 30.2026C28.8052 30.0287 28.8909 29.9018 28.9849 29.7819C29.8294 28.6962 30.6798 27.6151 31.5208 26.527C32.8398 24.8208 34.2751 23.1899 35.4415 21.385C38.2933 16.9703 38.6187 12.2853 36.2625 7.57803C34.0555 3.16803 30.3732 0.574674 25.4717 0.0870239C19.7058 -0.486405 15.132 1.79556 12.1533 6.76841C9.38951 11.3829 9.48465 16.1748 12.1768 20.8315C12.9766 22.2146 14.0608 23.4343 15.0274 24.7198C15.5889 25.4671 16.1738 26.1957 16.7834 26.9771C16.5509 27.0182 16.3841 27.0499 16.2173 27.0758C13.0283 27.5705 9.9075 28.3155 6.94758 29.6304C4.92027 30.5293 3.04331 31.6538 1.55043 33.3471C-0.368822 35.5245 -0.528564 38.3752 1.19688 40.703C2.41843 42.3504 4.07223 43.469 5.87637 44.3668C10.2105 46.523 14.8665 47.4172 19.6435 47.8191C20.3741 47.8802 21.1047 47.9401 21.8353 48.0001H26.1483C26.8789 47.9401 27.6083 47.8802 28.3389 47.8191C33.1276 47.4161 37.7977 46.523 42.1365 44.3492C44.1086 43.3609 45.9398 42.1483 47.0967 40.2C47.5172 39.4938 47.7064 38.6489 48 37.8675V36.5538C47.9742 36.5174 47.9319 36.4821 47.9248 36.4422ZM14.5694 21.0618C10.3656 15.5426 11.5766 7.88942 17.2685 3.91889C22.3814 0.352587 29.6696 1.52177 33.4165 6.50872C36.7194 10.9058 36.7582 16.626 33.4259 21.0043C30.3779 25.0089 27.2512 28.9524 24.1586 32.9217C24.1128 32.9805 24.0575 33.0322 23.9659 33.1309C22.3333 31.0381 20.7359 28.9947 19.142 26.9489C17.615 24.9889 16.0752 23.0395 14.5694 21.0618Z" fill="#4C40ED"/>
<path d="M34.8484 28.433C34.8308 28.9347 34.4044 29.3389 33.9005 29.3319C33.3696 29.3236 32.9632 28.8995 32.9773 28.3671C32.9902 27.8536 33.4013 27.46 33.9134 27.4694C34.4385 27.4788 34.866 27.9195 34.8484 28.433Z" fill="#4C40ED"/>
<path d="M16.895 31.7431C16.9067 32.2731 16.4862 32.7102 15.9706 32.7031C15.4655 32.6961 15.0709 32.2883 15.0685 31.7713C15.065 31.2555 15.462 30.8465 15.9682 30.8418C16.4827 30.8371 16.8832 31.2273 16.895 31.7431Z" fill="#4C40ED"/>
<path d="M28.1532 21.3038C26.8659 22.0394 25.4776 22.406 23.9929 22.4013C19.0397 22.4107 15.1402 18.1664 15.5689 13.2323C15.9283 9.08905 19.3017 5.78949 23.4608 5.58738C24.3523 5.5439 25.2603 5.69666 26.1482 5.83296C26.8271 5.93755 27.1372 6.42284 27.0092 6.98922C26.8894 7.51918 26.4172 7.80119 25.7571 7.64491C24.707 7.39814 23.6675 7.35937 22.6034 7.5556C19.3686 8.15371 16.9478 11.5825 17.4823 14.8386C18.0707 18.4284 20.885 20.6963 24.5191 20.5095C28.0076 20.3308 30.9229 16.8867 30.5047 13.4321C30.4577 13.0455 30.3861 12.6612 30.3086 12.2793C30.1653 11.5626 30.4119 11.0526 30.971 10.9409C31.5548 10.8258 31.9718 11.1701 32.1456 11.8657C33.1111 15.7223 31.3187 19.4954 28.1532 21.3038Z" fill="#4C40ED"/>
<path d="M30.2253 8.72245C30.2006 9.22068 29.7437 9.64017 29.2586 9.61197C28.7418 9.58259 28.333 9.11727 28.3671 8.60024C28.4012 8.09027 28.8369 7.71072 29.3502 7.7448C29.8471 7.7777 30.2488 8.22658 30.2253 8.72245Z" fill="#4C40ED"/>
</svg>
