<svg width="66" height="67" viewBox="0 0 66 67" fill="none" xmlns="http://www.w3.org/2000/svg">
<g clip-path="url(#clip0_7169_275320)">
<path d="M8.86152 18.0645C8.86152 10.647 14.8961 4.61249 22.3137 4.61249C29.7312 4.61249 35.7658 10.6471 35.7658 18.0645C35.7658 19.6079 35.5061 21.1224 34.9937 22.5657L38.8186 23.9235C39.4861 22.0432 39.8246 20.0719 39.8246 18.0645C39.8245 8.40908 31.9691 0.553711 22.3137 0.553711C12.6582 0.553711 4.80273 8.40908 4.80273 18.0645C4.80273 21.705 5.90983 25.1957 8.0043 28.1594C10.051 31.0553 12.8824 33.2389 16.1925 34.4742L17.6114 30.6716C12.3779 28.7185 8.86152 23.6521 8.86152 18.0645Z" fill="#00E7F0"/>
<path d="M15.6262 18.0647C15.6262 14.3773 18.6261 11.3771 22.3135 11.3771C26.0011 11.3771 29.0011 14.3771 29.0011 18.0647C29.0011 18.0988 28.9996 18.1326 28.9984 18.1664L28.9957 18.2534L33.0528 18.3651L33.0548 18.3043C33.0576 18.2246 33.0599 18.1449 33.0599 18.0647C33.0599 12.1391 28.2391 7.31836 22.3135 7.31836C16.3881 7.31836 11.5674 12.1391 11.5674 18.0647C11.5674 21.3563 13.0515 24.4234 15.6394 26.4795L18.1643 23.3016C16.5513 22.0201 15.6262 20.1112 15.6262 18.0647Z" fill="#00E7F0"/>
<path d="M19.6074 66.5535L35.8374 47.0671L19.6074 12.2617V66.5535Z" fill="#FFDA44"/>
<path d="M19.6074 12.2617L35.8374 47.0671L61.1974 47.1598L19.6074 12.2617Z" fill="#FFCD00"/>
</g>
<defs>
<clipPath id="clip0_7169_275320">
<rect width="66" height="66" fill="white" transform="translate(0 0.553711)"/>
</clipPath>
</defs>
</svg>
