<svg width="27" height="46" viewBox="0 0 27 46" fill="none" xmlns="http://www.w3.org/2000/svg">
<path d="M21.0938 15.1562V33.1562H4.21875V15.1562C4.21875 6.15625 9.84375 1.65625 12.6562 1.65625C15.4688 1.65625 21.0938 6.15625 21.0938 15.1562Z" stroke="#FF008A" stroke-width="2" stroke-linecap="round" stroke-linejoin="round"/>
<path d="M4.21875 33.1562L0 39.1562H25.3125L21.0938 33.1562H4.21875Z" stroke="#FF008A" stroke-width="2" stroke-linecap="round" stroke-linejoin="round"/>
<path d="M12.6562 22.6562C14.9862 22.6562 16.875 20.6415 16.875 18.1562C16.875 15.671 14.9862 13.6562 12.6562 13.6562C10.3263 13.6562 8.4375 15.671 8.4375 18.1562C8.4375 20.6415 10.3263 22.6562 12.6562 22.6562Z" stroke="#FF008A" stroke-width="2" stroke-linecap="round" stroke-linejoin="round"/>
<path d="M12.6562 39.1562V46.6562" stroke="#FF008A" stroke-width="2" stroke-linecap="round" stroke-linejoin="round"/>
<path d="M18.2812 39.1562V43.6563" stroke="#FF008A" stroke-width="2" stroke-linecap="round" stroke-linejoin="round"/>
<path d="M7.03125 39.1562V43.6562" stroke="#FF008A" stroke-width="2" stroke-linecap="round" stroke-linejoin="round"/>
</svg>
