<svg width="247" height="86" viewBox="0 0 247 86" fill="none" xmlns="http://www.w3.org/2000/svg">
<path fill-rule="evenodd" clip-rule="evenodd" d="M0 39C0 36.7909 1.79086 35 4 35H8C10.2091 35 12 36.7909 12 39V82C12 84.2091 10.2091 86 8 86H4C1.79086 86 0 84.2091 0 82V39Z" fill="#4C40ED"/>
<path fill-rule="evenodd" clip-rule="evenodd" d="M22 4C22 1.79086 23.7909 0 26 0H30C32.2091 0 34 1.79086 34 4V82C34 84.2091 32.2091 86 30 86H26C23.7909 86 22 84.2091 22 82V4Z" fill="#4C40ED"/>
<path fill-rule="evenodd" clip-rule="evenodd" d="M44 49C44 46.7909 45.7909 45 48 45H51C53.2091 45 55 46.7909 55 49V82C55 84.2091 53.2091 86 51 86H48C45.7909 86 44 84.2091 44 82V49Z" fill="#4C40ED"/>
<path fill-rule="evenodd" clip-rule="evenodd" d="M65 33C65 30.7909 66.7909 29 69 29H73C75.2091 29 77 30.7909 77 33V82C77 84.2091 75.2091 86 73 86H69C66.7909 86 65 84.2091 65 82V33Z" fill="#4C40ED"/>
<path fill-rule="evenodd" clip-rule="evenodd" d="M87 49C87 46.7909 88.7909 45 91 45H94C96.2091 45 98 46.7909 98 49V82C98 84.2091 96.2091 86 94 86H91C88.7909 86 87 84.2091 87 82V49Z" fill="#4C40ED"/>
<path fill-rule="evenodd" clip-rule="evenodd" d="M108 33C108 30.7909 109.791 29 112 29H115C117.209 29 119 30.7909 119 33V82C119 84.2091 117.209 86 115 86H112C109.791 86 108 84.2091 108 82V33Z" fill="#4C40ED"/>
<path fill-rule="evenodd" clip-rule="evenodd" d="M129 49C129 46.7909 130.791 45 133 45H135C137.209 45 139 46.7909 139 49V82C139 84.2091 137.209 86 135 86H133C130.791 86 129 84.2091 129 82V49Z" fill="#4C40ED"/>
<path fill-rule="evenodd" clip-rule="evenodd" d="M149 64C149 61.7909 150.791 60 153 60H156C158.209 60 160 61.7909 160 64V82C160 84.2091 158.209 86 156 86H153C150.791 86 149 84.2091 149 82V64Z" fill="#4C40ED"/>
<rect x="170" y="23" width="12" height="63" rx="4" fill="#4C40ED"/>
<path fill-rule="evenodd" clip-rule="evenodd" d="M192 4C192 1.79086 193.791 0 196 0H200C202.209 0 204 1.79086 204 4V82C204 84.2091 202.209 86 200 86H196C193.791 86 192 84.2091 192 82V4Z" fill="#4C40ED"/>
<rect x="214" y="25" width="11" height="61" rx="4" fill="#4C40ED"/>
<path fill-rule="evenodd" clip-rule="evenodd" d="M235 41C235 38.7909 236.791 37 239 37H243C245.209 37 247 38.7909 247 41V82C247 84.2091 245.209 86 243 86H239C236.791 86 235 84.2091 235 82V41Z" fill="#4C40ED"/>
</svg>
