<svg width="24" height="24" viewBox="0 0 24 24" fill="none" xmlns="http://www.w3.org/2000/svg">
<path d="M19.3009 7.91998V13.07C19.3009 16.15 17.5409 17.47 14.9009 17.47H6.11093C5.66093 17.47 5.23093 17.43 4.83093 17.34C4.58093 17.3 4.34094 17.23 4.12094 17.15C2.62094 16.59 1.71094 15.29 1.71094 13.07V7.91998C1.71094 4.83998 3.47093 3.52002 6.11093 3.52002H14.9009C17.1409 3.52002 18.7509 4.47001 19.1809 6.64001C19.2509 7.04001 19.3009 7.44998 19.3009 7.91998Z" stroke="#68616D" stroke-width="1.5" stroke-miterlimit="10" stroke-linecap="round" stroke-linejoin="round"/>
<path d="M22.302 10.9201V16.0701C22.302 19.1501 20.542 20.4701 17.902 20.4701H9.11203C8.37203 20.4701 7.70204 20.3701 7.12204 20.1501C5.93204 19.7101 5.12203 18.8001 4.83203 17.3401C5.23203 17.4301 5.66203 17.4701 6.11203 17.4701H14.902C17.542 17.4701 19.302 16.1501 19.302 13.0701V7.9201C19.302 7.4501 19.262 7.03014 19.182 6.64014C21.082 7.04014 22.302 8.38011 22.302 10.9201Z" stroke="#68616D" stroke-width="1.5" stroke-miterlimit="10" stroke-linecap="round" stroke-linejoin="round"/>
<path d="M10.4994 13.1399C11.9574 13.1399 13.1394 11.9579 13.1394 10.4999C13.1394 9.04185 11.9574 7.85986 10.4994 7.85986C9.04136 7.85986 7.85938 9.04185 7.85938 10.4999C7.85938 11.9579 9.04136 13.1399 10.4994 13.1399Z" stroke="#68616D" stroke-width="1.5" stroke-miterlimit="10" stroke-linecap="round" stroke-linejoin="round"/>
<path d="M4.78125 8.2998V12.6998" stroke="#68616D" stroke-width="1.5" stroke-miterlimit="10" stroke-linecap="round" stroke-linejoin="round"/>
<path d="M16.2227 8.30029V12.7003" stroke="#68616D" stroke-width="1.5" stroke-miterlimit="10" stroke-linecap="round" stroke-linejoin="round"/>
</svg>
