<svg width="245" height="86" viewBox="0 0 245 86" fill="none" xmlns="http://www.w3.org/2000/svg">
<path fill-rule="evenodd" clip-rule="evenodd" d="M0 39C0 36.7909 1.79086 35 4 35H7C9.20914 35 11 36.7909 11 39V82C11 84.2091 9.20914 86 7 86H4C1.79086 86 0 84.2091 0 82V39Z" fill="#337AB7"/>
<path fill-rule="evenodd" clip-rule="evenodd" d="M21 4C21 1.79086 22.7909 0 25 0H28C30.2091 0 32 1.79086 32 4V82C32 84.2091 30.2091 86 28 86H25C22.7909 86 21 84.2091 21 82V4Z" fill="#337AB7"/>
<path fill-rule="evenodd" clip-rule="evenodd" d="M42 49C42 46.7909 43.7909 45 46 45H48C50.2091 45 52 46.7909 52 49V82C52 84.2091 50.2091 86 48 86H46C43.7909 86 42 84.2091 42 82V49Z" fill="#337AB7"/>
<path fill-rule="evenodd" clip-rule="evenodd" d="M62 33C62 30.7909 63.7909 29 66 29H69C71.2091 29 73 30.7909 73 33V82C73 84.2091 71.2091 86 69 86H66C63.7909 86 62 84.2091 62 82V33Z" fill="#337AB7"/>
<path fill-rule="evenodd" clip-rule="evenodd" d="M83 49C83 46.7909 84.7909 45 87 45H92C94.2091 45 96 46.7909 96 49V82C96 84.2091 94.2091 86 92 86H87C84.7909 86 83 84.2091 83 82V49Z" fill="#337AB7"/>
<path fill-rule="evenodd" clip-rule="evenodd" d="M106 33C106 30.7909 107.791 29 110 29H114C116.209 29 118 30.7909 118 33V82C118 84.2091 116.209 86 114 86H110C107.791 86 106 84.2091 106 82V33Z" fill="#337AB7"/>
<path fill-rule="evenodd" clip-rule="evenodd" d="M128 49C128 46.7909 129.791 45 132 45H135C137.209 45 139 46.7909 139 49V82C139 84.2091 137.209 86 135 86H132C129.791 86 128 84.2091 128 82V49Z" fill="#337AB7"/>
<path fill-rule="evenodd" clip-rule="evenodd" d="M149 64C149 61.7909 150.791 60 153 60H158C160.209 60 162 61.7909 162 64V82C162 84.2091 160.209 86 158 86H153C150.791 86 149 84.2091 149 82V64Z" fill="#337AB7"/>
<rect x="172" y="23" width="11" height="63" rx="4" fill="#337AB7"/>
<path fill-rule="evenodd" clip-rule="evenodd" d="M193 4C193 1.79086 194.791 0 197 0H200C202.209 0 204 1.79086 204 4V82C204 84.2091 202.209 86 200 86H197C194.791 86 193 84.2091 193 82V4Z" fill="#337AB7"/>
<rect x="214" y="25" width="10" height="61" rx="4" fill="#337AB7"/>
<path fill-rule="evenodd" clip-rule="evenodd" d="M234 41C234 38.7909 235.791 37 238 37H241C243.209 37 245 38.7909 245 41V82C245 84.2091 243.209 86 241 86H238C235.791 86 234 84.2091 234 82V41Z" fill="#337AB7"/>
</svg>
