<svg width="250" height="110" viewBox="0 0 250 110" fill="none" xmlns="http://www.w3.org/2000/svg">
<g clip-path="url(#clip0_1194_50861)">
<path d="M2.5 71.9557L0 77.3906V110H2.5H14.7917H29.375H44.1667H58.75H73.5417H88.3333H102.917H117.708H132.292H147.083H161.667H176.458H191.25H205.833H220.625H235.208H247.5H250V12.1719H247.5L235.208 28.4765L220.625 53.0115H205.833L191.25 50.2161L176.458 26.6649L161.667 28.4765L147.083 55.651L132.292 75.5789L117.708 53.8394L102.917 55.651L88.3333 57.4626L73.5417 39.3463L58.75 68.3324L44.1667 81.0138L29.375 86.4487L14.7917 59.2743L2.5 71.9557Z" fill="url(#paint0_linear_1194_50861)"/>
<path d="M0 77.1177L1.25 80.5441L2.5 71.6326L4.03646 63.8639L5.57292 68.433L7.10938 73.0022L8.64583 65.2334L10.1823 57.4647L11.7188 62.0338L13.2552 66.603L14.7917 58.8342L15.7031 54.3794L16.6146 62.2624L17.526 70.1454L18.4375 65.6905L19.349 61.2357L20.2604 69.1187L21.1719 77.0016L22.0833 72.5468L22.9948 71.7933L23.9062 75.9749L24.8177 80.1566L25.7292 79.4031L26.6406 79.8834L27.5521 84.065L28.4635 83.3115L29.375 87.4931L31.224 84.3399L33.0729 86.1219L34.9219 82.9687L36.7708 83.5169L38.6198 81.5974L40.4688 83.3794L42.3177 80.2262L44.1667 82.0081L45.0781 78.7407L45.9896 80.4083L46.901 77.7577L47.8125 78.8085L48.724 75.5411L49.6354 77.2087L50.5469 73.9412L51.4583 74.992L52.3698 72.3415L53.2812 74.0091L54.1927 71.3585L55.1042 77.3445L56.0156 69.7588L56.9271 70.1926L57.8385 62.6069L58.75 67.9759L59.6745 66.7645L60.599 63.7024L61.5234 63.1078L62.4479 60.0457L63.3724 60.6849L64.2969 55.7721L65.2213 61.3465L66.1458 52.7323L67.0703 52.7547L67.9948 42.9067L68.9193 54.0331L69.8438 39.8669L70.7682 44.2075L71.6927 43.6129L72.6172 39.317L73.5417 39.9563L74.4661 33.6963L75.3906 47.1768L76.3151 42.1506L77.2396 40.2089L78.1641 46.9036L79.0885 43.7281L80.013 47.9553L80.9375 47.8642L81.862 50.8576L82.7865 50.1496L83.7109 53.143L84.6354 52.435L85.5599 53.5778L86.4844 56.5711L87.4089 55.8632L88.3333 57.0059L90.1563 57.3942L91.9792 50.3799L93.8021 56.9372L95.625 62.2606L97.4479 56.4801L99.2708 53.1671L101.094 59.1074L102.917 55.1775L104.766 58.0335L106.615 54.7205L108.464 54.4919L110.313 57.3478L112.161 54.0348L114.01 53.8063L115.859 47.4088L117.708 47.1803L118.62 54.7205L119.531 56.0917L120.443 60.5474L121.354 58.8342L122.266 60.2055L123.177 64.6612L124.089 62.948L125 58.1503L125.911 68.775L126.823 67.0618L127.734 68.433L128.646 75.9732L129.557 65.0066L130.469 78.7157L131.38 73.9181L132.292 75.2893L133.216 74.0323L134.141 70.3078L135.065 71.5183L135.99 67.1769L136.914 69.0044L137.839 64.6629L138.763 66.4904L139.688 62.149L141.536 62.7195L142.461 65.1638L143.385 60.2055L144.31 62.6499L145.234 57.6915L146.159 60.1359L147.083 55.1775L147.995 47.2946L148.906 51.7494L149.818 43.8664L150.729 48.3213L151.641 46.6072L152.552 38.7242L153.464 43.1791L154.375 41.465L155.286 45.9198L156.198 38.0369L157.109 42.4917L158.021 34.6087L158.932 39.0636L159.844 31.1806L160.755 29.4665L161.667 33.9214L163.516 21.355L165.365 27.2953L167.214 33.2357L169.063 26.8383L170.911 38.9476L172.76 32.5501L174.609 26.1526L176.458 19.7552L177.383 27.4096L178.307 35.0641L179.232 30.3807L180.156 31.8662L181.081 39.5206L182.005 34.8373L182.93 30.1539L183.854 37.8083L184.779 39.2938L185.703 34.6105L186.628 42.2649L187.552 43.7504L188.477 51.4049L189.401 46.7215L190.326 48.207L191.25 55.8614L193.073 50.0452L194.896 44.2289L196.719 50.7505L198.542 44.9342L200.365 51.4558L202.188 49.3409L204.01 53.3949L205.833 50.0462L207.682 53.7475L209.531 50.0462L211.38 52.5137L213.229 46.3448L215.078 52.5137L216.927 58.6827L218.776 46.3448L220.625 52.5137L221.536 50.9662L222.448 55.5875L223.359 47.871L224.271 52.4923L225.182 44.7758L226.094 37.0593L227.005 41.6807L227.917 46.302L228.828 38.5855L229.74 30.869L230.651 35.4903L231.562 40.1117L232.474 32.3952L233.385 24.6787L234.297 29.3L235.208 27.7524L235.977 32.8929L236.745 25.6955L237.513 24.6671L238.281 23.6387L239.049 22.6102L239.818 27.7507L240.586 20.5533L241.354 19.5249L242.122 12.3275L242.891 17.468L243.659 16.4396L244.427 9.24221L245.195 14.3827L245.964 13.3542L246.732 12.3258L247.5 5L248.75 11.2974H250" stroke="#007AFF" stroke-width="2" stroke-linecap="round" stroke-linejoin="round"/>
</g>
<defs>
<linearGradient id="paint0_linear_1194_50861" x1="153.017" y1="26.4013" x2="166.614" y2="127.576" gradientUnits="userSpaceOnUse">
<stop stop-color="#007AFF" stop-opacity="0.2"/>
<stop offset="1" stop-color="white" stop-opacity="0"/>
</linearGradient>
<clipPath id="clip0_1194_50861">
<rect width="250" height="110" fill="white"/>
</clipPath>
</defs>
</svg>
