<svg width="106" height="101" viewBox="0 0 106 101" fill="none" xmlns="http://www.w3.org/2000/svg">
<rect x="0.943359" y="0.964355" width="105" height="100" rx="10" fill="white"/>
<g clip-path="url(#clip0_7169_277025)">
<path d="M28.6397 29.0782H9.99686C9.68569 29.0782 9.43457 28.8296 9.43457 28.5216V10.0615C9.43457 9.75347 9.68569 9.50488 9.99686 9.50488H28.6452C28.9564 9.50488 29.2075 9.75347 29.2075 10.0615V28.5216C29.202 28.8296 28.9509 29.0782 28.6397 29.0782ZM10.5537 27.965H28.0775V10.6181H10.5537V27.965Z" fill="#28283C"/>
<path d="M25.4134 13.2554H13.2178V25.3279H25.4134V13.2554Z" fill="#28283C"/>
<path d="M28.6397 92.0836H9.99686C9.68569 92.0836 9.43457 91.835 9.43457 91.527V73.0669C9.43457 72.7588 9.68569 72.5103 9.99686 72.5103H28.6452C28.9564 72.5103 29.2075 72.7588 29.2075 73.0669V91.527C29.202 91.835 28.9509 92.0836 28.6397 92.0836ZM10.5537 90.9758H28.0775V73.6289H10.5537V90.9758Z" fill="#28283C"/>
<path d="M25.4134 76.2607H13.2178V88.3333H25.4134V76.2607Z" fill="#28283C"/>
<path d="M96.7751 92.0836H78.1267C77.8156 92.0836 77.5645 91.835 77.5645 91.527V73.0669C77.5645 72.7588 77.8156 72.5103 78.1267 72.5103H96.7751C97.0863 72.5103 97.3374 72.7588 97.3374 73.0669V91.527C97.3374 91.835 97.0863 92.0836 96.7751 92.0836ZM78.6945 90.9758H96.2183V73.6289H78.6945V90.9758Z" fill="#28283C"/>
<path d="M93.5492 76.2607H81.3535V88.3333H93.5492V76.2607Z" fill="#28283C"/>
<path d="M88.2257 22.0688H52.7852V28.5915H88.2257V22.0688Z" fill="#28283C"/>
<path d="M72.2415 31.4019H52.7852V37.9245H72.2415V31.4019Z" fill="#28283C"/>
<path d="M71.963 46.9111H56.541V53.4338H71.963V46.9111Z" fill="#28283C"/>
<path d="M67.2468 52.6938H50.8477V59.2165H67.2468V52.6938Z" fill="#28283C"/>
<path d="M57.9768 71.4077H38.5205V77.9304H57.9768V71.4077Z" fill="#28283C"/>
<path d="M68.2945 82.8208H47.2441V89.3435H68.2945V82.8208Z" fill="#28283C"/>
<path d="M71.9635 62.6641H56.9072V69.1867H71.9635V62.6641Z" fill="#28283C"/>
<path d="M78.651 36.9897H68.9229V43.5124H78.651V36.9897Z" fill="#28283C"/>
<path d="M97.8556 64.0962H83.4053V70.6188H97.8556V64.0962Z" fill="#28283C"/>
<path d="M97.8996 31.4019H87.0469V37.9245H97.8996V31.4019Z" fill="#28283C"/>
<path d="M25.1569 33.7256H8.94336V40.2482H25.1569V33.7256Z" fill="#28283C"/>
<path d="M58.4358 40.9399H27.5645V47.4626H58.4358V40.9399Z" fill="#28283C"/>
<path d="M45.7488 62.6641H18.1748V69.1867H45.7488V62.6641Z" fill="#28283C"/>
<path d="M97.9488 55.1201H75.0479V61.6428H97.9488V55.1201Z" fill="#28283C"/>
<path d="M55.2313 9.09424H32.7998V15.6169H55.2313V9.09424Z" fill="#28283C"/>
<path d="M97.8614 9.12646H76.8438V15.9734H97.8614V9.12646Z" fill="#28283C"/>
<path d="M92.1843 15.6167H72.2422V22.1393H92.1843V15.6167Z" fill="#28283C"/>
<path d="M48.1285 25.3276H41.4902V77.9249H48.1285V25.3276Z" fill="#28283C"/>
<path d="M72.2477 31.4019H65.6094V76.7361H72.2477V31.4019Z" fill="#28283C"/>
<path d="M38.4938 21.1182H31.7627V43.1665H38.4938V21.1182Z" fill="#28283C"/>
<path d="M88.2262 22.0688H81.4951V37.9242H88.2262V22.0688Z" fill="#28283C"/>
<path d="M24.6549 45.2144H17.9238V55.1253H24.6549V45.2144Z" fill="#28283C"/>
<path d="M68.2623 83.4209H61.5312V92.9644H68.2623V83.4209Z" fill="#28283C"/>
<path d="M88.0846 46.4897H81.3535V58.892H88.0846V46.4897Z" fill="#28283C"/>
<path d="M97.9 34.7417H91.1689V58.8976H97.9V34.7417Z" fill="#28283C"/>
<path d="M41.6159 62.9395H34.8848V92.2724H41.6159V62.9395Z" fill="#28283C"/>
<path d="M15.6745 39.8916H8.94336V62.6641H15.6745V39.8916Z" fill="#28283C"/>
<path d="M67.3395 8.96436H60.6084V26.576H67.3395V8.96436Z" fill="#28283C"/>
</g>
<defs>
<clipPath id="clip0_7169_277025">
<rect width="89" height="84" fill="white" transform="translate(8.94336 8.96436)"/>
</clipPath>
</defs>
</svg>
