<svg width="100" height="101" viewBox="0 0 100 101" fill="none" xmlns="http://www.w3.org/2000/svg">
<g clip-path="url(#clip0_7169_258757)">
<path d="M82.6621 92.9578L67.4567 48.7197H32.543L17.3375 92.9578C16.8899 94.2602 18.0744 95.5357 19.4063 95.1857L28.3153 92.8449L33.9024 100.168C34.7377 101.263 36.4561 100.985 36.9037 99.6828L49.9998 61.5814L63.0959 99.683C63.5436 100.985 65.2619 101.263 66.0973 100.168L71.6844 92.8451L80.5934 95.1859C81.9252 95.5355 83.1098 94.2602 82.6621 92.9578Z" fill="#FF6464"/>
<path d="M73.1729 65.3498L67.4568 48.7197H32.5432L26.8271 65.3498C32.259 69.549 38.8557 72.3129 46.0559 73.0568L50 61.5814L53.9441 73.0566C61.1443 72.3127 67.741 69.5488 73.1729 65.3498Z" fill="#D2555A"/>
<path d="M49.9999 69.8133C69.0442 69.8133 84.4827 54.3748 84.4827 35.3305C84.4827 16.2861 69.0442 0.847656 49.9999 0.847656C30.9556 0.847656 15.5171 16.2861 15.5171 35.3305C15.5171 54.3748 30.9556 69.8133 49.9999 69.8133Z" fill="#FFC36E"/>
<path d="M49.9999 0.847656C30.9556 0.847656 15.5171 16.2859 15.5171 35.3305C15.5171 54.3746 30.9554 69.8133 49.9999 69.8133C69.0444 69.8133 84.4827 54.3746 84.4827 35.3305C84.4827 16.2859 69.0442 0.847656 49.9999 0.847656ZM49.9999 64.6408C33.8122 64.6408 20.6896 51.5182 20.6896 35.3305C20.6896 19.1428 33.8122 6.02012 49.9999 6.02012C66.1876 6.02012 79.3102 19.1428 79.3102 35.3305C79.3102 51.5182 66.1876 64.6408 49.9999 64.6408Z" fill="#FFD782"/>
<path d="M49.9998 6.02051C33.8121 6.02051 20.6895 19.1432 20.6895 35.3309C20.6895 51.5186 33.8121 64.6412 49.9998 64.6412C66.1875 64.6412 79.3102 51.5186 79.3102 35.3309C79.3102 19.1432 66.1875 6.02051 49.9998 6.02051ZM49.9998 61.193C35.7166 61.193 24.1377 49.6141 24.1377 35.3309C24.1377 21.0477 35.7166 9.46875 49.9998 9.46875C64.283 9.46875 75.8619 21.0477 75.8619 35.3309C75.8619 49.6141 64.283 61.193 49.9998 61.193Z" fill="#EBB45F"/>
<path d="M50.1182 46.153L41.6152 50.6233C40.2076 51.3634 38.5627 50.1683 38.8315 48.6007L40.4553 39.1325L33.5762 32.427C32.4373 31.3171 33.0658 29.3831 34.6395 29.1544L44.1459 27.7729L48.3975 19.1585C49.1014 17.7323 51.1348 17.7323 51.8385 19.1585L56.09 27.7729L65.5965 29.1544C67.1701 29.3831 67.7986 31.3171 66.6598 32.427L59.7807 39.1325L61.4045 48.6007C61.6733 50.1681 60.0281 51.3632 58.6207 50.6233L50.1182 46.153Z" fill="#FFD782"/>
<path d="M50.1181 18.0889C50.8023 18.0889 51.4867 18.4453 51.8386 19.1584L56.0902 27.7729L65.5967 29.1543C67.1703 29.383 67.7988 31.317 66.6599 32.427L59.781 39.1324L61.4049 48.6006C61.6175 49.8406 60.632 50.8479 59.514 50.8479C59.2189 50.8479 58.9146 50.7777 58.6209 50.6232L50.1181 46.1529L41.6154 50.6232C41.3216 50.7777 41.0172 50.8479 40.7222 50.8479C39.6041 50.8479 38.6187 49.8408 38.8314 48.6006L40.4552 39.1324L33.5763 32.427C32.4375 31.317 33.066 29.383 34.6396 29.1543L44.1461 27.7729L48.3976 19.1584C48.7494 18.4453 49.4338 18.0889 50.1181 18.0889ZM50.1181 14.6406C48.0603 14.6406 46.2162 15.7869 45.3054 17.6324L41.8562 24.6213L34.1437 25.742C32.1074 26.0379 30.4472 27.4375 29.8111 29.3945C29.1752 31.3516 29.6957 33.4598 31.1693 34.8963L36.7502 40.3361L35.4328 48.0176C35.1644 49.5816 35.5945 51.1705 36.6119 52.3777C37.6396 53.5969 39.1381 54.2961 40.7222 54.2961C41.584 54.2961 42.4476 54.0814 43.2201 53.6754L50.1183 50.0486L57.0166 53.6754C57.789 54.0814 58.6527 54.2961 59.5144 54.2961C61.0986 54.2961 62.5968 53.5967 63.6248 52.3775C64.6422 51.1707 65.0722 49.5814 64.8039 48.0176L63.4865 40.3361L69.0674 34.8963C70.541 33.46 71.0613 31.3518 70.4256 29.3945C69.7896 27.4375 68.1295 26.0379 66.0929 25.742L58.3804 24.6213L54.9312 17.6324C54.0201 15.7869 52.1758 14.6406 50.1181 14.6406Z" fill="#EBB45F"/>
<path d="M65.5967 29.1544L56.0902 27.7729L51.8387 19.1585C51.1348 17.7323 49.1014 17.7323 48.3977 19.1585L45.668 24.6897L60.7672 50.3583C61.24 49.9466 61.5281 49.3183 61.4051 48.6005L59.7813 39.1323L66.6602 32.4269C67.7986 31.3169 67.1705 29.3831 65.5967 29.1544Z" fill="#FFE6A0"/>
<path d="M70.5216 17.3578C67.5458 16.6793 65.203 14.3367 64.5245 11.3605C64.4733 11.1363 64.1767 11.1363 64.1257 11.3605C63.4472 14.3363 61.1046 16.6791 58.1286 17.3578C57.9044 17.409 57.9044 17.7057 58.1286 17.7566C61.1044 18.4352 63.4472 20.7775 64.1257 23.7537C64.1769 23.9779 64.4735 23.9779 64.5245 23.7537C65.203 20.7775 67.5456 18.4352 70.5216 17.7566C70.7458 17.7057 70.7458 17.4088 70.5216 17.3578Z" fill="white"/>
<path d="M60.2083 27.1049C58.397 26.6358 56.9707 25.2094 56.5015 23.3981C56.4542 23.2163 56.2189 23.2163 56.1718 23.3981C55.7027 25.2094 54.2763 26.6358 52.465 27.1049C52.2832 27.1522 52.2832 27.3876 52.465 27.4346C54.2763 27.9038 55.7027 29.3299 56.1718 31.1415C56.2191 31.3233 56.4544 31.3233 56.5015 31.1415C56.9707 29.3297 58.397 27.9038 60.2083 27.4346C60.3902 27.3874 60.3902 27.1518 60.2083 27.1049Z" fill="white"/>
</g>
<defs>
<clipPath id="clip0_7169_258757">
<rect width="100" height="100" fill="white" transform="translate(0 0.847656)"/>
</clipPath>
</defs>
</svg>
