<svg width="40" height="32" viewBox="0 0 40 32" fill="none" xmlns="http://www.w3.org/2000/svg">
<path d="M0.203072 22.4917C0.203402 24.4948 0.859386 26.4427 2.07083 28.0379C3.28227 29.6331 4.98257 30.7879 6.91202 31.326C8.84148 31.864 10.894 31.7557 12.7561 31.0176C14.6182 30.2795 16.1875 28.9521 17.2244 27.2382C18.2612 25.5244 18.7085 23.5183 18.498 21.5263C18.2875 19.5343 17.4308 17.666 16.0587 16.2067C14.6866 14.7474 12.8745 13.7773 10.8992 13.4447C8.92396 13.1121 6.89412 13.4351 5.11973 14.3646C5.733 12.0897 6.59787 10.1843 7.6331 8.66427C9.70355 5.61888 12.4161 4.14598 15.2728 4.14598C15.7941 4.14598 16.2941 3.93888 16.6627 3.57026C17.0313 3.20163 17.2384 2.70167 17.2384 2.18036C17.2384 1.65905 17.0313 1.15908 16.6627 0.790461C16.2941 0.421835 15.7941 0.214743 15.2728 0.214743C10.8934 0.214743 7.05128 2.52893 4.38066 6.4523C1.73363 10.3468 0.203072 15.8427 0.203072 22.4917Z" fill="#FF0080"/>
<path d="M21.5489 22.4917C21.5492 24.4948 22.2052 26.4427 23.4167 28.0379C24.6281 29.6331 26.3284 30.7879 28.2578 31.326C30.1873 31.864 32.2398 31.7557 34.1019 31.0176C35.9641 30.2795 37.5334 28.9521 38.5702 27.2382C39.607 25.5244 40.0543 23.5183 39.8439 21.5263C39.6334 19.5343 38.7766 17.666 37.4045 16.2067C36.0324 14.7474 34.2203 13.7773 32.245 13.4447C30.2698 13.1121 28.2399 13.4351 26.4656 14.3646C27.0788 12.0897 27.9437 10.1843 28.9789 8.66427C31.0494 5.61888 33.7619 4.14598 36.6186 4.14598C37.1399 4.14598 37.6399 3.93888 38.0085 3.57026C38.3771 3.20163 38.5842 2.70167 38.5842 2.18036C38.5842 1.65905 38.3771 1.15908 38.0085 0.790461C37.6399 0.421835 37.1399 0.214743 36.6186 0.214743C32.2392 0.214743 28.3971 2.52893 25.7265 6.4523C23.0795 10.3468 21.5489 15.8427 21.5489 22.4917Z" fill="#FF0080"/>
</svg>
