<svg width="16" height="16" viewBox="0 0 16 16" fill="none" xmlns="http://www.w3.org/2000/svg">
<path d="M11.1425 0.5H4.8575C2.1275 0.5 0.5 2.1275 0.5 4.8575V11.135C0.5 13.8725 2.1275 15.5 4.8575 15.5H11.135C13.865 15.5 15.4925 13.8725 15.4925 11.1425V4.8575C15.5 2.1275 13.8725 0.5 11.1425 0.5ZM9.44 11.0975H5.75C5.4425 11.0975 5.1875 10.8425 5.1875 10.535C5.1875 10.2275 5.4425 9.9725 5.75 9.9725H9.44C10.4 9.9725 11.1875 9.1925 11.1875 8.225C11.1875 7.2575 10.4075 6.4775 9.44 6.4775H5.6375L5.8325 6.6725C6.05 6.8975 6.05 7.25 5.825 7.475C5.7125 7.5875 5.57 7.64 5.4275 7.64C5.285 7.64 5.1425 7.5875 5.03 7.475L3.8525 6.29C3.635 6.0725 3.635 5.7125 3.8525 5.495L5.03 4.3175C5.2475 4.1 5.6075 4.1 5.825 4.3175C6.0425 4.535 6.0425 4.895 5.825 5.1125L5.5775 5.36H9.44C11.0225 5.36 12.3125 6.65 12.3125 8.2325C12.3125 9.815 11.0225 11.0975 9.44 11.0975Z" fill="#28283C"/>
</svg>
