<svg width="56" height="39" viewBox="0 0 56 39" fill="none" xmlns="http://www.w3.org/2000/svg">
<path d="M45.6479 38.1595C43.9395 38.1595 42.6298 37.434 41.7187 35.9831C40.8076 34.5299 40.7507 33.0345 41.5479 31.497L45.05 24.4928H38.2166C36.3375 24.4928 34.7294 23.8232 33.3923 22.4838C32.053 21.1468 31.3833 19.5387 31.3833 17.6595V7.4095C31.3833 5.53034 32.053 3.92223 33.3923 2.58517C34.7294 1.24584 36.3375 0.576172 38.2166 0.576172H48.4666C50.3458 0.576172 51.9551 1.24584 53.2944 2.58517C54.6314 3.92223 55.3 5.53034 55.3 7.4095V22.8699C55.3 23.3824 55.2567 23.9097 55.1701 24.4518C55.0859 24.9917 54.9014 25.4894 54.6166 25.9449L49.7479 35.597C49.3493 36.3942 48.7798 37.0206 48.0396 37.4762C47.2993 37.9317 46.502 38.1595 45.6479 38.1595ZM14.8979 38.1595C13.1896 38.1595 11.8798 37.434 10.9687 35.9831C10.0576 34.5299 10.0007 33.0345 10.7979 31.497L14.3 24.4928H7.46663C5.58747 24.4928 3.97936 23.8232 2.6423 22.4838C1.30297 21.1468 0.633301 19.5387 0.633301 17.6595V7.4095C0.633301 5.53034 1.30297 3.92223 2.6423 2.58517C3.97936 1.24584 5.58747 0.576172 7.46663 0.576172H17.7166C19.5958 0.576172 21.2051 1.24584 22.5444 2.58517C23.8814 3.92223 24.55 5.53034 24.55 7.4095V22.8699C24.55 23.3824 24.5078 23.9097 24.4236 24.4518C24.337 24.9917 24.1514 25.4894 23.8666 25.9449L18.9979 35.597C18.5993 36.3942 18.0298 37.0206 17.2896 37.4762C16.5493 37.9317 15.7521 38.1595 14.8979 38.1595Z" fill="#626262" fill-opacity="0.1"/>
</svg>
