<svg width="45" height="46" viewBox="0 0 45 46" fill="none" xmlns="http://www.w3.org/2000/svg">
<path d="M13.5335 1.09116C11.9251 1.60093 11.0373 2.46227 8.9631 5.52091C8.2336 6.60198 7.35468 7.55121 6.7658 7.89399C6.12419 8.26314 5.33317 8.43013 4.70034 8.32466C3.90932 8.19282 3.23255 7.90278 2.6261 7.44574C1.74718 6.77776 1.6505 6.72503 1.22862 6.72503C0.173913 6.72503 -0.239178 7.59516 0.138757 9.04537C0.613373 10.8911 2.1339 12.4819 4.01479 13.0884L4.47183 13.2378L4.49819 19.4518C4.52456 25.4899 4.53335 25.6833 4.71792 26.3337C5.09586 27.6872 5.69352 28.8298 6.54607 29.8582C7.47773 31.0008 10.6418 33.7166 12.7952 35.2372C13.3225 35.6151 13.762 35.9491 13.7708 35.9754C13.7884 36.0106 12.7952 36.6522 11.5823 37.3993C9.67502 38.5683 9.33225 38.8144 9.16525 39.1132C8.78732 39.79 9.00705 40.7392 9.62229 41.0995C10.3342 41.5126 12.1184 41.662 13.2259 41.4072C13.5159 41.3368 16.8294 40.0273 20.6 38.5067L27.4468 35.7293L30.9273 37.8651L34.4078 40.0097L34.4605 40.8622C34.5396 41.9521 34.8033 42.7959 35.3482 43.6132C36.3678 45.125 37.8795 45.9248 39.7428 45.9248C41.3161 45.9248 42.3708 45.4853 43.4694 44.3955C44.5681 43.2968 44.9988 42.2421 44.9988 40.6513C44.9988 39.7196 44.8757 39.1483 44.489 38.3397C43.5134 36.2567 41.1139 35.0526 38.7936 35.4745C38.5123 35.5272 38.0289 35.6678 37.7301 35.7821L37.1852 36.0018L34.8297 34.4285C33.5377 33.5584 32.3687 32.7322 32.2457 32.6004C31.8765 32.1961 31.7535 31.7566 31.8941 31.3523C31.9644 31.1765 32.0787 30.9305 32.1578 30.8162C32.2281 30.7019 33.397 29.8757 34.7506 28.9793C37.1588 27.3972 37.2203 27.362 37.484 27.4675C38.653 27.9421 39.9362 28.074 40.9557 27.8279C42.8718 27.362 44.3747 25.8942 44.8757 24.0134C45.0339 23.4157 45.0339 21.9303 44.8669 21.3151C44.4011 19.5397 42.9948 18.1158 41.1755 17.5709C40.3405 17.316 38.9958 17.3599 38.0817 17.65C35.9107 18.3707 34.4605 20.401 34.4517 22.7389V23.3278L33.7926 23.7233C33.4234 23.943 33.107 24.1276 33.0894 24.1276C33.063 24.1276 33.0543 21.6754 33.063 18.6783L33.0894 13.2202L33.6871 13.0093C34.0211 12.895 34.5133 12.6665 34.7857 12.5083C35.4098 12.1392 36.3502 11.1987 36.7194 10.5659C37.3961 9.44089 37.695 7.92915 37.3698 7.34906C37.1676 6.97113 36.7194 6.72503 36.2535 6.72503C35.8844 6.72503 35.7789 6.77776 34.8648 7.44574C33.5377 8.43013 32.149 8.60592 30.8921 7.97309C30.2681 7.66547 29.2398 6.5844 28.4751 5.4506C26.7964 2.95447 25.9087 1.97887 24.8012 1.42515C23.9311 0.994479 23.3774 0.897798 22.0678 0.950533C20.7933 0.994479 20.2572 1.15268 19.3343 1.72398L18.763 2.08434L18.4994 1.92613C17.7259 1.4691 17.1195 1.17905 16.6536 1.056C15.9153 0.871431 14.1751 0.88022 13.5335 1.09116ZM16.3021 2.64685C16.5482 2.70837 17.0404 2.94568 17.4183 3.16541C18.473 3.79823 19.1322 3.79823 20.0814 3.15662C21.3822 2.2777 23.2279 2.25133 24.4496 3.10388C25.1879 3.62245 25.8032 4.36953 27.2446 6.48772C28.4311 8.24556 29.5913 9.28268 30.8658 9.72214C31.7095 10.021 33.107 10.0034 34.0562 9.68699C34.4429 9.56394 34.9351 9.34421 35.1549 9.20358C35.3746 9.07174 35.6031 8.93112 35.6559 8.88717C35.7437 8.84322 35.7525 8.87838 35.6822 9.04537C35.0758 10.6626 33.6519 11.5854 31.1997 11.9634C30.0484 12.1392 27.4468 12.1304 26.2251 11.9546C23.5268 11.5591 21.8217 10.7768 20.2572 9.20358C19.7474 8.69381 19.4574 8.47408 19.2025 8.40376C18.4466 8.19282 18.1214 8.34224 17.1195 9.32663C15.6253 10.7856 13.8675 11.5854 11.301 11.9546C10.1848 12.1128 7.60078 12.1392 6.54607 11.9985C4.17299 11.6733 2.64367 10.812 1.98449 9.41452C1.69444 8.80807 1.70323 8.7817 2.01964 9.01022C2.74036 9.51999 4.20815 9.97703 5.12223 9.97703C5.73747 9.97703 6.6867 9.73093 7.3371 9.41452C8.44454 8.8608 9.16525 8.07856 10.9231 5.5297C12.3557 3.45545 13.3753 2.62927 14.6761 2.50622C15.3353 2.4447 15.6868 2.47106 16.3021 2.64685ZM20.2045 11.3394C21.9887 12.7017 25.0649 13.6597 27.7104 13.6685C28.1499 13.6685 28.3872 13.7036 28.3872 13.7652C28.3872 13.8179 28.2378 14.1695 28.0444 14.5474C27.06 16.525 25.6362 17.8082 24.0278 18.1773C23.1752 18.3795 22.7797 18.1686 22.3227 17.2633C21.9887 16.6129 21.4877 16.1734 20.8724 15.9976C20.4769 15.8834 20.0375 15.857 18.5169 15.8834L16.6536 15.9097L16.1878 16.1646C15.6868 16.4459 15.4319 16.7271 15.0892 17.4215C14.7815 18.0279 14.4915 18.2389 13.9817 18.2389C13.0413 18.2389 11.7844 17.5797 10.8528 16.6129C10.2991 16.0328 9.64866 15.0308 9.27072 14.1695L9.05099 13.6685H9.71018C11.9075 13.6685 14.72 12.9302 16.4427 11.9106C17.1722 11.48 18.306 10.5747 18.5697 10.2319L18.7543 9.97703L19.2113 10.4516C19.4662 10.7153 19.9144 11.1108 20.2045 11.3394ZM7.34589 13.7036C7.35468 13.7036 7.50409 14.064 7.67109 14.4947C8.78732 17.2457 10.6682 19.109 12.9182 19.6979C14.5794 20.1373 15.7747 19.6276 16.513 18.1686C16.6712 17.8521 16.8558 17.6148 17.0052 17.5533C17.1546 17.483 17.7699 17.4478 18.7894 17.4478C20.5736 17.4478 20.6088 17.4566 20.9691 18.1686C21.7689 19.7506 23.1137 20.1989 25.0825 19.5485C27.0688 18.8893 29.0112 16.7535 29.9253 14.2398C30.0132 13.9937 30.1099 13.774 30.1362 13.7476C30.1626 13.7124 30.479 13.6597 30.8306 13.6245L31.4634 13.563V19.0123C31.4634 22.0006 31.437 24.6286 31.4107 24.8395L31.3492 25.2263L24.2827 29.5769C20.389 31.9676 16.7943 34.1825 16.2933 34.4901L15.3704 35.0526L14.6058 34.534C12.593 33.1717 10.1057 31.1502 8.51485 29.5769C7.50409 28.5749 6.92401 27.7312 6.54607 26.7204C6.08025 25.4812 6.06267 25.2702 6.06267 19.1881V13.563L6.70428 13.6245C7.04706 13.6597 7.34589 13.6949 7.34589 13.7036ZM40.3493 19.0299C41.527 19.2584 42.5466 20.0319 43.0739 21.1041C43.32 21.5963 43.3728 21.8073 43.3991 22.4577C43.4431 23.4069 43.2937 23.987 42.7927 24.7341C42.3796 25.3493 41.7028 25.8767 40.9645 26.1579C40.0153 26.5183 38.5827 26.3601 37.8004 25.8064C37.2379 25.4021 37.1324 25.446 34.0386 27.5115C31.7535 29.032 31.147 29.4802 30.9009 29.8142C30.7339 30.0427 30.3736 30.7986 30.0923 31.5017C29.7671 32.3191 29.4858 32.8817 29.3189 33.0662C29.0903 33.3123 27.8686 33.8309 21.1361 36.5555C16.7855 38.3134 13.0501 39.8075 12.8303 39.8603C12.3733 39.9833 11.0725 40.0009 10.8616 39.8866C10.7561 39.8339 13.8235 37.9003 23.3334 32.0467C30.2769 27.7751 35.9898 24.2067 36.0426 24.11C36.1041 23.9958 36.1129 23.6618 36.0777 23.1608C35.9195 21.1305 37.1061 19.4781 39.0221 19.065C39.6462 18.9244 39.778 18.9244 40.3493 19.0299ZM34.1705 35.9139C36.0514 37.1796 36.9918 37.7509 37.1588 37.7509C37.2906 37.7509 37.6774 37.6102 38.0114 37.4432C38.3541 37.2675 38.8727 37.0829 39.1803 37.0301C40.7184 36.7489 42.3884 37.6454 43.0915 39.1308C43.3552 39.6933 43.3728 39.79 43.3728 40.6952C43.3728 41.6093 43.3552 41.6972 43.0915 42.2421C42.7399 42.9541 41.9489 43.7275 41.2458 44.0615C40.7887 44.2724 40.6305 44.2988 39.7692 44.2988C38.8639 44.2988 38.7672 44.2812 38.2311 44.0263C37.1764 43.5166 36.4557 42.664 36.1656 41.5742C36.0602 41.1699 36.0426 40.8359 36.0777 40.1679C36.1393 39.3241 36.1305 39.2802 35.9283 39.1044C35.8229 38.9989 34.2847 38.0321 32.5181 36.951L29.3101 34.9823L29.7319 34.7801C29.9605 34.6659 30.3296 34.367 30.5493 34.1121L30.9624 33.6463L31.191 33.866C31.314 33.9891 32.6587 34.912 34.1705 35.9139Z" fill="white"/>
<path d="M39.1979 20.4613C38.0465 20.7777 37.317 21.8412 37.4752 22.9574C37.5807 23.7748 38.1256 24.4691 38.8903 24.7943C39.321 24.9701 40.2087 24.9789 40.6218 24.8031C41.4216 24.4691 42.0104 23.5902 42.0104 22.7289C42.0104 22.0433 41.8522 21.6127 41.4216 21.138C40.8503 20.4964 39.9977 20.2416 39.1979 20.4613ZM40.235 22.2191C40.6393 22.5883 40.3405 23.3353 39.7956 23.3353C39.444 23.3353 39.2418 23.2123 39.1188 22.9135C38.9694 22.5619 39.1188 22.2191 39.4792 22.0697C39.7956 21.9291 39.945 21.9642 40.235 22.2191Z" fill="white"/>
<path d="M27.2006 31.1145C27.0424 31.2639 26.9809 31.4221 26.9809 31.6594C26.9897 32.679 28.3696 32.7669 28.5366 31.7561C28.5805 31.4749 28.5454 31.3958 28.3169 31.1584C27.9741 30.8157 27.517 30.7981 27.2006 31.1145Z" fill="white"/>
<path d="M38.9871 38.5068C38.363 38.7001 37.7566 39.3417 37.5632 40.0009C37.3786 40.6425 37.4402 41.2138 37.7566 41.7939C38.1697 42.5498 38.8376 42.9365 39.7429 42.9365C40.7361 42.9365 41.5359 42.3916 41.8787 41.4951C42.0633 41.0117 42.0281 40.0537 41.8084 39.623C41.3074 38.6562 40.0593 38.164 38.9871 38.5068ZM40.0681 40.08C40.49 40.291 40.5603 40.792 40.2087 41.1347C39.8484 41.5039 39.3123 41.3984 39.1101 40.9238C38.9783 40.5986 39.1277 40.2295 39.4617 40.0625C39.7429 39.9218 39.7693 39.9218 40.0681 40.08Z" fill="white"/>
</svg>
