<svg width="27" height="43" viewBox="0 0 27 43" fill="none" xmlns="http://www.w3.org/2000/svg">
<path d="M0.780616 38.438C1.6607 40.875 3.64377 42.2958 6.12957 42.3055C7.8042 42.3121 9.03618 41.7675 10.1138 40.5419C11.3492 39.1337 11.6407 38.1929 11.9163 34.6615C12.1381 31.4962 12.8544 28.987 13.5086 28.9896C14.1104 28.992 14.8835 32.0303 15.0543 35.171C15.2272 37.7883 15.355 38.5477 15.8746 39.4917C17.5373 42.5336 21.7732 43.3352 24.2677 41.1209C25.6857 39.8443 26.3984 38.2771 26.3801 36.2622C26.394 32.7298 24.0494 30.1039 20.8572 30.0652C19.7059 30.0606 19.6798 30.0344 19.344 28.934C19.137 28.3314 18.5671 26.8638 18.0746 25.6844C17.5301 24.4001 17.2206 23.2737 17.3004 22.9338C17.3541 22.5939 18.4379 19.7983 19.6537 16.7154C22.2965 10.0795 22.8531 8.25003 22.8877 6.13067C22.8952 4.22053 22.4819 2.85824 21.4917 1.80768C20.6319 0.8623 19.3241 0.726327 18.9023 1.50967C18.6652 1.9274 14.6233 11.6978 13.8304 13.7095C13.5659 14.415 13.3841 14.0741 10.9742 8.07248C9.57501 4.56065 8.27863 1.52021 8.12236 1.33644C7.57554 0.653951 6.4232 0.911087 5.58207 1.87594C4.11028 3.51865 3.83884 6.00342 4.74159 9.33013C5.0252 10.4041 6.29335 13.9677 7.56263 17.2435L9.86817 23.1663L8.49404 26.5887L7.11992 30.0111L6.23026 30.0076C4.1108 29.9993 2.0649 31.2472 1.06286 33.2058C0.456612 34.3286 0.314563 37.1802 0.780616 38.438ZM2.81312 33.9453C3.103 33.4232 3.75994 32.7192 4.25843 32.381C5.07175 31.8347 5.33362 31.7834 6.85064 31.9464L8.52466 32.11L8.81661 31.0645C9.26792 29.4177 10.695 25.8385 10.9043 25.8393C10.9828 25.8397 11.2953 26.2334 11.5289 26.7053C11.9965 27.5706 11.9963 27.623 11.4696 28.4844C10.6792 29.842 10.1198 32.3779 10.1106 34.7067C10.1013 37.0617 9.70371 38.3684 8.6002 39.5154C7.36535 40.7927 5.55946 40.8903 3.91521 39.811C2.34925 38.7844 1.75926 35.7729 2.81312 33.9453ZM6.46431 3.76341L6.91233 2.95401L7.48284 4.26458C7.97558 5.39169 16.8623 27.8776 18.0538 30.97L18.4422 32.0182L20.1171 31.9462C21.3995 31.8989 21.9486 32.0058 22.6272 32.4271C24.2455 33.454 25.0744 35.6029 24.5177 37.4324C23.8549 39.6278 21.7822 41.0326 20.0049 40.5285C17.731 39.8653 17.0294 38.6066 16.8353 34.7332C16.6146 30.9905 15.9686 28.8946 14.5609 27.5546C13.2054 26.2409 12.2969 24.3795 9.78388 17.985C6.02744 8.39319 5.40964 5.80026 6.46431 3.76341ZM17.2991 9.95518C18.7784 6.40234 20.0462 3.39816 20.1775 3.29401C20.4403 3.00721 21.2174 4.99893 21.2137 5.94092C21.2083 7.32773 20.1484 10.6991 18.1405 15.5843C17.0571 18.2752 16.1062 20.5218 16.08 20.5479C15.9486 20.6782 14.6794 17.3762 14.6552 16.8789C14.6301 16.6172 15.8198 13.508 17.2991 9.95518Z" fill="white"/>
</svg>
