<svg width="45" height="46" viewBox="0 0 45 46" fill="none" xmlns="http://www.w3.org/2000/svg">
<path d="M2.41579 1.03138C1.42372 1.36491 0.609472 2.12727 0.272542 3.02304C0.0292038 3.69964 -0.073747 5.15765 0.0572813 6.1106C0.244465 7.44473 0.946402 8.46438 2.02271 8.97898C2.51874 9.21721 2.66849 9.23627 4.13788 9.28392L5.71022 9.33156L5.88804 9.79851C6.44023 11.2946 7.76924 12.2952 9.3135 12.4096L9.99672 12.4572L10.0154 27.9998L10.0435 43.5424L10.3149 44.0951C10.6425 44.7431 11.2602 45.3626 11.9153 45.6866C12.3178 45.8962 12.5143 45.9248 13.366 45.9248C14.2271 45.9248 14.4049 45.8962 14.8167 45.6866C15.4531 45.3626 16.1363 44.6479 16.4358 43.9903L16.6885 43.4471L16.7166 27.9522L16.7353 12.4572L17.4279 12.4096C18.9441 12.3048 20.4509 11.1231 20.8533 9.69369L20.975 9.30298L22.5754 9.26486C24.0916 9.23627 24.2039 9.22674 24.6906 8.97898C25.3925 8.62638 25.9728 8.02602 26.3191 7.28272C26.5999 6.6919 26.6092 6.60613 26.6373 5.24341C26.656 4.30952 26.628 3.66152 26.5531 3.38516C26.3004 2.41316 25.6452 1.6508 24.7 1.19338L24.1759 0.945613L13.4596 0.926555C5.4856 0.917025 2.65913 0.945613 2.41579 1.03138ZM24.0542 2.97539C24.2414 3.09928 24.4941 3.35657 24.6157 3.54716C24.8123 3.86164 24.831 4.01411 24.831 5.09094C24.831 6.16777 24.8123 6.32025 24.6157 6.63472C24.4941 6.82531 24.2414 7.0826 24.0542 7.20649L23.7079 7.42567H13.366C1.79809 7.42567 2.71528 7.48285 2.16309 6.74908C1.92911 6.4346 1.90104 6.31072 1.87296 5.46259C1.8168 4.16658 1.89168 3.75681 2.25669 3.33752C2.81824 2.67998 2.21925 2.70857 13.5064 2.73716L23.7079 2.75622L24.0542 2.97539ZM18.9815 9.37921C18.9815 9.55074 18.3825 10.1511 18.0082 10.3608C17.6338 10.5609 17.5308 10.5704 13.6468 10.599C10.9888 10.618 9.51004 10.599 9.19183 10.5228C8.69579 10.4179 8.18104 10.0463 7.84411 9.5698L7.64757 9.28392H13.3099C16.8944 9.28392 18.9815 9.32204 18.9815 9.37921ZM14.9571 13.8104V15.0016H13.366H11.775V13.8104V12.6192H13.366H14.9571V13.8104ZM14.9571 18.7658V20.624H13.366H11.775V18.7658V16.9075H13.366H14.9571V18.7658ZM14.9571 24.2929V26.1511H13.366H11.775V24.2929V22.4346H13.366H14.9571V24.2929ZM14.9384 35.5091C14.9103 42.3703 14.9009 42.9993 14.7512 43.2756C14.4236 43.876 13.6842 44.2476 13.0384 44.1237C12.5986 44.038 11.9247 43.3709 11.8405 42.9325C11.803 42.7515 11.775 39.3399 11.775 35.3375V28.057H13.366H14.9664L14.9384 35.5091Z" fill="white"/>
<path d="M4.14729 4.27095C3.41727 4.59495 3.5015 5.71943 4.26895 5.94814C4.51229 6.02438 7.3294 6.04343 13.572 6.02438L22.538 5.99579L22.7907 5.73849C23.1464 5.36684 23.1464 4.81413 22.7907 4.44248L22.538 4.18518L13.4784 4.16613C6.13143 4.14707 4.37191 4.16613 4.14729 4.27095Z" fill="white"/>
<path d="M12.8886 39.2542C12.5329 39.4448 12.4019 39.8641 12.4487 40.5979C12.4861 41.1506 12.5236 41.2649 12.7482 41.4555C13.0477 41.7223 13.5905 41.7605 13.8994 41.5413C14.1802 41.3412 14.3299 40.798 14.2737 40.2071C14.2176 39.6354 14.0772 39.359 13.7683 39.2161C13.4689 39.0731 13.1881 39.0922 12.8886 39.2542Z" fill="white"/>
<path d="M40.648 2.20318C40.545 2.23177 40.1894 2.45095 39.8525 2.70825C38.9259 3.38484 38.1865 3.81367 37.5127 4.0519C36.9418 4.25202 36.6984 4.27108 33.8626 4.31873C30.8583 4.37591 30.8115 4.37591 30.3716 4.61414C29.8569 4.87144 29.4731 5.28121 29.1643 5.88156C28.9865 6.2151 28.949 6.43428 28.949 7.1871L28.9397 8.08288L28.6683 8.14958C27.0491 8.49264 26.1132 10.5129 26.8619 12.0471C27.0023 12.333 27.1053 12.5713 27.0959 12.5808C27.0866 12.5903 26.5999 12.7523 26.0196 12.9524C24.8497 13.3432 24.4379 13.629 24.101 14.277C23.7453 14.9727 23.8015 15.3634 25.4768 22.9489C26.3285 26.8274 27.021 30.0007 27.0117 30.0007C26.993 30.0102 26.8245 30.0865 26.628 30.1818C26.4221 30.2771 26.2349 30.4486 26.1881 30.5915C26.1226 30.7535 26.1038 33.0883 26.1132 37.0525L26.1413 43.2753L26.4221 43.7422C26.5999 44.0281 26.8807 44.314 27.1614 44.4951L27.62 44.7809L34.134 44.8095C38.6451 44.8286 40.7977 44.8095 41.1253 44.7333C41.6962 44.6094 42.2858 44.1329 42.5947 43.5516L42.8006 43.1609V36.9572C42.8006 30.1246 42.8193 30.3533 42.2203 30.1341C42.0519 30.0674 41.9115 29.9816 41.9115 29.9435C41.9115 29.8959 42.6041 26.6844 43.4557 22.7964C44.3917 18.5081 45 15.5254 45 15.2205C45 14.582 44.7192 13.953 44.27 13.5719C44.0641 13.4003 43.5306 13.1526 42.8942 12.9429C42.3326 12.7523 41.8553 12.5808 41.8366 12.5713C41.8272 12.5617 41.9208 12.3235 42.0519 12.0376C42.5853 10.8655 42.1829 9.26453 41.1908 8.57841L40.8913 8.36876L41.1253 8.01617C41.6962 7.14899 42.0987 5.40509 42.0987 3.7279C42.0987 2.9179 42.0893 2.88931 41.7992 2.5653C41.4903 2.2413 41.0504 2.09836 40.648 2.20318ZM40.1894 5.01438C39.8993 6.44381 39.7869 6.75828 39.3658 7.24428C38.9727 7.69217 38.4486 7.9304 37.5875 8.04476C36.7827 8.14005 36.4832 8.39735 36.4832 8.95959C36.4832 9.77913 36.8294 9.95066 38.4673 9.95066C39.8899 9.95066 40.0958 10.0174 40.3485 10.551C40.517 10.8941 40.517 10.9131 40.3485 11.2562C40.0396 11.8947 39.581 11.9709 37.5595 11.7041C36.0526 11.5135 32.8518 11.5135 31.4386 11.7041C30.8489 11.7898 30.0721 11.8566 29.7165 11.8566C29.1081 11.8566 29.052 11.8375 28.7525 11.5326C28.322 11.0942 28.322 10.713 28.7525 10.2747L29.0707 9.95066H30.4465C31.2701 9.95066 31.8972 9.91254 32.0188 9.84583C32.3558 9.6743 32.5523 9.3503 32.5523 8.98818C32.5523 8.47359 32.2715 8.17817 31.6725 8.04476C31.1391 7.9304 30.9425 7.77793 30.7834 7.34911C30.7086 7.14899 30.7179 7.00604 30.8115 6.75828C31.0548 6.16745 31.2046 6.13886 34.2182 6.13886C36.6329 6.13886 36.9886 6.1198 37.6437 5.94827C38.3363 5.75768 39.8993 5.06203 40.0022 4.8905C40.1052 4.71897 40.2268 4.81426 40.1894 5.01438ZM36.53 13.4861C39.085 13.7148 43.0346 14.7249 43.1656 15.1823C43.1937 15.2681 42.4824 18.632 41.6026 22.6725L39.9928 30.0102L38.7481 30.0388L37.5127 30.0674V28.7238C37.5127 26.8941 37.3348 26.5129 36.5112 26.5129C36.2773 26.5129 36.1088 26.5891 35.931 26.7607C35.6876 27.0084 35.6876 27.037 35.6596 28.5332L35.6315 30.0579H34.5177H33.404L33.3759 28.5236L33.3478 26.9894L33.0858 26.7607C32.9173 26.6177 32.7021 26.532 32.4962 26.532C31.6913 26.532 31.5228 26.9036 31.5228 28.7238V30.0579H30.2219C28.949 30.0579 28.921 30.0484 28.8742 29.8387C28.8461 29.7243 28.1161 26.3986 27.255 22.4438C26.16 17.3932 25.7201 15.2109 25.7856 15.1156C25.8979 14.9251 27.124 14.5058 28.7618 14.096C31.3169 13.4575 33.9375 13.2479 36.53 13.4861ZM40.9756 32.7261V33.4885H39.8899C38.8229 33.4885 38.8042 33.4885 38.5328 33.7649C38.2427 34.0698 38.1772 34.4796 38.3737 34.8512C38.5796 35.2515 38.7294 35.2896 39.8805 35.2991H40.9756V35.9662V36.6332H39.9928C38.9446 36.6332 38.5422 36.7476 38.355 37.1002C38.1491 37.5004 38.2988 38.1103 38.6638 38.3485C38.8042 38.4343 39.2348 38.501 39.9273 38.5201L40.9756 38.5582V39.1681V39.778H40.049C39.0101 39.778 38.617 39.8828 38.4111 40.2068C38.0929 40.7023 38.3082 41.3884 38.8417 41.579C39.0008 41.6362 39.5436 41.6839 40.049 41.6839H40.9756V42.1889C40.9756 42.4653 40.9288 42.7416 40.8632 42.8083C40.779 42.8941 39.216 42.9227 34.4054 42.9227H28.0599L27.9663 42.6749C27.9102 42.5415 27.8727 42.2652 27.8727 42.065V41.7029L28.9958 41.6648C30.0721 41.6362 30.1283 41.6267 30.3716 41.3694C30.5682 41.1788 30.6337 41.0168 30.6337 40.7309C30.6337 40.445 30.5682 40.283 30.3716 40.0924C30.1283 39.8351 30.0721 39.8256 28.9958 39.797L27.8727 39.7589V39.1585V38.5582L28.9865 38.5296C30.0066 38.4915 30.1283 38.4724 30.3342 38.2723C30.6337 37.9864 30.7179 37.6529 30.5869 37.2431C30.4184 36.7476 30.1189 36.6332 28.9022 36.6332H27.8727V35.9662V35.2991H28.9865C29.9505 35.2991 30.1283 35.2705 30.3248 35.1085C30.7834 34.7464 30.7179 33.8983 30.2032 33.6314C30.016 33.5266 29.6322 33.4885 28.9022 33.4885H27.8727V32.7261V31.9638H34.4241H40.9756V32.7261Z" fill="white"/>
</svg>
