<svg width="33" height="50" viewBox="0 0 33 50" fill="none" xmlns="http://www.w3.org/2000/svg">
<path d="M17.5879 1.18854C17.0836 1.34901 16.0749 1.76164 15.3643 2.10549C14.6307 2.42643 12.4071 3.22877 10.4357 3.87064C2.6186 6.41519 1.86211 7.05706 1.05977 11.6648C0.601295 14.3469 0.738838 16.1808 1.65579 19.5506C2.0455 20.926 2.41228 22.8287 2.50398 23.7457C2.66445 25.6484 2.82491 25.5567 3.35216 23.1726C3.62725 21.9347 3.6731 20.9489 3.55848 19.115L3.42094 16.708L4.20035 15.9286C5.23193 14.92 6.65321 14.5303 11.3985 14.0259C16.2583 13.4987 19.8345 13.4758 20.889 13.9113L21.6913 14.2552L22.8146 12.9944C24.2588 11.4126 25.107 10.1518 26.0239 8.36372C27.4681 5.49823 26.8033 3.20584 24.1212 1.69286C22.998 1.07392 22.6312 0.982223 20.6826 0.936375C19.2843 0.890527 18.1839 0.982223 17.5879 1.18854Z" fill="white"/>
<path d="M27.3764 9.46408C26.9867 9.78501 26.001 11.0458 25.1528 12.2837L23.6398 14.5073L25.084 14.8741C25.8864 15.0804 26.7116 15.3326 26.9179 15.4243C27.5827 15.6994 28.0641 17.3728 28.2475 20.2383C28.3622 21.7513 28.5685 23.5623 28.7289 24.25L29.004 25.5108L29.302 24.3188C29.4625 23.654 30.1273 22.1181 30.7692 20.8802C32.0988 18.2898 32.3738 16.8914 32.0988 14.3239C31.6403 9.89963 29.4854 7.69894 27.3764 9.46408Z" fill="white"/>
<path d="M3.16877 31.9295C3.23754 32.8006 3.65017 34.9555 4.08573 36.6748C4.52128 38.3941 4.86514 40.0904 4.86514 40.4114C4.86514 42.4516 8.00572 45.4317 13.645 48.7328C14.7453 49.3976 15.7998 49.9248 16.0062 49.9248C16.1896 49.9248 17.7484 49.0766 19.4906 48.045C21.9893 46.555 23.0667 45.7527 24.7402 44.0792C26.5053 42.337 26.8492 41.8556 26.9638 41.0991C27.0326 40.5948 27.4681 38.6233 27.9037 36.7436C28.706 33.1903 29.1874 29.6371 28.6602 31.0126C28.5226 31.3794 27.812 32.3422 27.1013 33.1445C25.4967 34.9326 24.4651 36.6289 24.0754 38.119C23.9149 38.7379 23.7774 39.2881 23.7774 39.311C23.7544 39.3569 23.0667 38.715 22.2415 37.9127C20.3617 36.0558 19.3301 35.712 15.8686 35.712C12.5905 35.712 11.6048 36.0558 9.70209 37.9127C8.87683 38.715 8.21203 39.3569 8.18911 39.311C8.18911 39.2881 8.05156 38.7379 7.8911 38.119C7.50139 36.6289 6.46981 34.9326 4.86514 33.1445C4.1545 32.3422 3.44386 31.3794 3.30631 31.0126C3.07708 30.4395 3.05415 30.577 3.16877 31.9295ZM20.7743 38.5775C21.2787 38.8296 21.8976 39.311 22.1498 39.6549C22.7229 40.4572 22.7458 42.039 22.1727 42.9101C21.4162 44.0563 18.2756 45.1566 17.8172 44.4231C17.7484 44.3084 17.8401 43.8958 18.0464 43.529C18.2298 43.1393 18.3902 42.635 18.3902 42.4058C18.3902 41.4888 15.7998 41.0303 14.2869 41.6722C13.4845 41.9931 13.3928 42.4745 13.9201 43.529C14.4244 44.4689 14.1722 44.744 12.9802 44.5606C10.3669 44.2168 8.89975 42.5204 9.44992 40.5031C10.0001 38.5316 11.5589 37.9814 16.4417 38.0731C19.3301 38.119 20.0178 38.2107 20.7743 38.5775Z" fill="white"/>
</svg>
