<svg width="86" height="87" viewBox="0 0 86 87" fill="none" xmlns="http://www.w3.org/2000/svg">
<path d="M72.8559 16.5154C71.684 11.9183 67.6889 8.94785 61.6809 9.81002C56.5036 10.5543 52.659 12.6634 46.898 9.43067C24.8896 -2.92215 18.1253 12.3619 18.5148 23.8687C19.0723 40.3879 13.9766 43.0198 9.03176 51.1661C5.57483 56.8595 3.29469 61.7983 4.76798 68.91C6.97339 79.5611 16.5812 84.147 25.6036 82.5318C30.0343 81.7396 34.7646 80.1893 37.6994 79.4469C45.5822 77.454 48.6689 77.9731 59.0375 78.4843C79.2446 79.1406 86.9362 64.1586 76.9712 51.4506C68.441 40.5725 67.7417 39.9204 70.914 29.8178C72.2468 25.5755 74.1966 21.7736 72.8559 16.5154Z" fill="#FF008A" fill-opacity="0.1"/>
<path d="M61.3963 7.83038L61.3968 7.83031C64.7878 7.34368 67.7895 7.91895 70.1574 9.42926C72.5274 10.9409 74.0963 13.2847 74.7939 16.0213C76.0694 21.0238 74.6787 25.0206 73.474 28.4828C73.2432 29.1461 73.0193 29.7897 72.8222 30.417C71.2089 35.5547 70.8291 37.6555 71.4681 39.7631C71.8009 40.8607 72.4517 42.0765 73.6222 43.7605C74.7223 45.343 76.194 47.2192 78.1443 49.7056C78.2757 49.8731 78.4092 50.0434 78.545 50.2165C83.9269 57.0798 84.7537 64.9091 81.0264 71.0205C77.3313 77.079 69.54 80.8265 58.9726 80.4832L58.9558 80.4827L58.939 80.4819C57.6105 80.4164 56.4062 80.3513 55.3005 80.2916C47.7111 79.8818 44.7677 79.7229 38.1899 81.3859C37.3843 81.5897 36.3775 81.8754 35.2423 82.1977C32.547 82.9628 29.1274 83.9335 25.956 84.5005C16.0769 86.2691 5.27545 81.2248 2.80956 69.3158C1.17871 61.4434 3.78908 55.9471 7.32208 50.1283L61.3963 7.83038ZM61.3963 7.83038C59.9817 8.03374 58.7502 8.29502 57.6247 8.53379M61.3963 7.83038L57.6247 8.53379M57.6247 8.53379C54.1225 9.27683 51.6469 9.80203 47.8769 7.6866M57.6247 8.53379L47.8769 7.6866M47.8769 7.6866C36.5417 1.32442 28.3351 1.67694 23.0158 6.17515C17.9434 10.4645 16.3122 17.9151 16.516 23.9362L47.8769 7.6866ZM14.0386 39.7814C15.6791 36.4137 16.7871 31.9722 16.516 23.9364L14.0386 39.7814ZM14.0386 39.7814C13.2016 41.4998 12.1967 42.9999 11.0437 44.6342M14.0386 39.7814L11.0437 44.6342M11.0437 44.6342C10.8539 44.9033 10.6595 45.1767 10.4614 45.4554M11.0437 44.6342L10.4614 45.4554M10.4614 45.4554C9.47218 46.8468 8.39042 48.3683 7.32221 50.1281L10.4614 45.4554Z" stroke="#FF008A" stroke-opacity="0.05" stroke-width="4"/>
<g clip-path="url(#clip0_7169_259050)">
<path d="M79.2549 29.54C75.8816 29.54 73.1216 32.2711 73.1216 35.609C73.1216 38.9469 75.8816 41.678 79.2549 41.678C82.6282 41.678 85.3882 38.9469 85.3882 35.609C85.3882 32.2711 82.6282 29.54 79.2549 29.54ZM81.5549 34.9262C81.4016 35.0021 81.2482 35.078 81.0949 35.078C80.8649 35.078 80.6349 34.9262 80.4816 34.7745C80.1749 34.3952 79.7149 34.0918 79.2549 34.0918C78.7949 34.0918 78.4882 33.7883 78.4882 33.3331C78.4882 32.878 78.7949 32.5745 79.2549 32.5745C80.2516 32.5745 81.1716 33.0297 81.7849 33.8642C82.0149 34.2435 81.9382 34.6987 81.5549 34.9262Z" fill="#FF008A" fill-opacity="0.1"/>
<path d="M69.2884 29.5393C67.1417 29.5393 65.4551 27.8704 65.4551 25.7462C65.4551 23.6221 67.1417 21.9531 69.2884 21.9531C71.4351 21.9531 73.1217 23.6221 73.1217 25.7462C73.1217 27.8704 71.4351 29.5393 69.2884 29.5393Z" fill="#FF008A" fill-opacity="0.1"/>
<path d="M66.6048 38.643C64.6881 38.643 63.1548 37.1258 63.1548 35.2292C63.1548 33.3327 64.6881 31.8154 66.6048 31.8154C68.5215 31.8154 70.0548 33.3327 70.0548 35.2292C70.0548 37.1258 68.5215 38.643 66.6048 38.643Z" fill="#FF008A" fill-opacity="0.1"/>
<path d="M76.9547 24.2296C76.4947 24.2296 76.188 23.9262 76.188 23.471V21.1951C76.188 20.74 76.4947 20.4365 76.9547 20.4365C77.4147 20.4365 77.7213 20.74 77.7213 21.1951V23.471C77.7213 23.9262 77.4147 24.2296 76.9547 24.2296Z" fill="#FF008A" fill-opacity="0.1"/>
<path d="M82.3215 27.2643H80.0215C79.5615 27.2643 79.2549 26.9609 79.2549 26.5057C79.2549 26.0505 79.5615 25.7471 80.0215 25.7471H82.3215C82.7815 25.7471 83.0882 26.0505 83.0882 26.5057C83.0882 26.9609 82.7815 27.2643 82.3215 27.2643Z" fill="#FF008A" fill-opacity="0.1"/>
<path d="M79.1016 25.1396C78.8716 25.1396 78.7183 25.0638 78.565 24.9121C78.2583 24.6086 78.2583 24.1534 78.565 23.85L80.175 22.2569C80.4816 21.9534 80.9416 21.9534 81.2483 22.2569C81.555 22.5603 81.555 23.0155 81.2483 23.319L79.6383 24.9121C79.485 25.0638 79.3316 25.1396 79.1016 25.1396Z" fill="#FF008A" fill-opacity="0.1"/>
</g>
<g clip-path="url(#clip1_7169_259050)">
<path d="M45.2051 24H46.6336V41.8571H45.2051V24Z" fill="#FF008A"/>
<path d="M31.6665 64.0004H33.4908C33.9086 63.531 35.2051 61.6324 35.2051 56.1433H36.6337C36.6337 60.4061 35.8837 62.7482 35.2051 64.0004H36.348C36.7657 63.531 38.0623 61.6324 38.0623 56.1433H39.4908C39.4908 60.4061 38.7408 62.7482 38.0623 64.0004H40.6337C41.0514 63.531 42.348 61.6324 42.348 56.1433H43.7765C43.7765 60.4061 43.0265 62.7482 42.348 64.0004H47.0623C47.48 63.531 48.7765 61.6324 48.7765 56.1433H50.2051C50.2051 60.4061 49.4551 62.7482 48.7765 64.0004H49.9194C50.3371 63.531 51.6337 61.6324 51.6337 56.1433H53.0623C53.0623 60.4061 52.3123 62.7482 51.6337 64.0004H56.5623C56.7765 63.9076 58.678 62.7998 58.7685 53.2861H33.0967C33.1764 55.4755 33.231 61.342 31.6665 64.0004Z" fill="#FF008A"/>
<path d="M43.0625 43.2861H48.7768V44.7147H43.0625V43.2861Z" fill="#FF008A"/>
<path d="M58.0625 46.1426H33.7768C33.3823 46.1426 33.0625 46.4624 33.0625 46.8569V51.8569H58.7768V46.8569C58.7768 46.6675 58.7015 46.4857 58.5676 46.3518C58.4337 46.2178 58.2519 46.1426 58.0625 46.1426ZM35.9196 48.9997H34.4911V47.5711H35.9196V48.9997ZM53.0625 48.9997H50.2054V47.5711H53.0625V48.9997ZM57.3482 50.4283H55.9196V48.9997H54.4911V47.5711H56.6339C56.8233 47.5711 57.0051 47.6464 57.139 47.7803C57.273 47.9143 57.3482 48.096 57.3482 48.2854V50.4283Z" fill="#FF008A"/>
<path d="M50.9194 36.857C51.4876 36.857 52.0329 37.0827 52.4346 37.4845C52.8363 37.8863 53.0622 38.4316 53.0622 38.9998C53.0622 39.3942 53.382 39.7141 53.7765 39.7141C54.1709 39.7141 54.4908 39.3942 54.4908 38.9998C54.4908 38.4315 54.7165 37.8862 55.1183 37.4845C55.5201 37.0828 56.0654 36.857 56.6336 36.857C57.028 36.857 57.3479 36.5371 57.3479 36.1427C57.3479 35.7482 57.028 35.4284 56.6336 35.4284C56.0653 35.4284 55.52 35.2026 55.1183 34.8008C54.7166 34.3991 54.4908 33.8537 54.4908 33.2856C54.4908 32.8911 54.1709 32.5713 53.7765 32.5713C53.382 32.5713 53.0622 32.8911 53.0622 33.2856C53.0622 33.8538 52.8364 34.3991 52.4346 34.8008C52.0328 35.2026 51.4875 35.4284 50.9194 35.4284C50.5249 35.4284 50.2051 35.7482 50.2051 36.1427C50.2051 36.5371 50.5249 36.857 50.9194 36.857ZM53.7765 35.4063C53.9847 35.6863 54.2328 35.9344 54.5128 36.1426C54.2328 36.3509 53.9847 36.5989 53.7765 36.8789C53.5683 36.5989 53.3202 36.3509 53.0402 36.1426C53.3202 35.9344 53.5683 35.6863 53.7765 35.4063Z" fill="#FF008A"/>
<path d="M34.4911 40.4283C35.0594 40.4283 35.6047 40.654 36.0064 41.0558C36.4081 41.4576 36.634 42.0029 36.634 42.5711C36.634 42.9655 36.9538 43.2854 37.3482 43.2854C37.7427 43.2854 38.0625 42.9655 38.0625 42.5711C38.0625 42.0028 38.2883 41.4575 38.6901 41.0558C39.0919 40.6541 39.6372 40.4283 40.2053 40.4283C40.5998 40.4283 40.9196 40.1084 40.9196 39.714C40.9196 39.3195 40.5998 38.9997 40.2053 38.9997C39.6371 38.9997 39.0918 38.7739 38.6901 38.3721C38.2884 37.9703 38.0625 37.425 38.0625 36.8569C38.0625 36.4624 37.7427 36.1426 37.3482 36.1426C36.9538 36.1426 36.634 36.4624 36.634 36.8569C36.634 37.4251 36.4082 37.9704 36.0064 38.3721C35.6046 38.7738 35.0593 38.9997 34.4911 38.9997C34.0967 38.9997 33.7769 39.3195 33.7769 39.714C33.7769 40.1084 34.0967 40.4283 34.4911 40.4283ZM37.3483 38.9776C37.5565 39.2576 37.8046 39.5057 38.0846 39.7139C37.8046 39.9222 37.5565 40.1702 37.3483 40.4502C37.1401 40.1702 36.892 39.9221 36.612 39.7139C36.892 39.5057 37.1401 39.2576 37.3483 38.9776Z" fill="#FF008A"/>
</g>
<defs>
<clipPath id="clip0_7169_259050">
<rect width="23" height="22" fill="white" transform="translate(62.6875 20)"/>
</clipPath>
<clipPath id="clip1_7169_259050">
<rect width="40" height="40" fill="white" transform="translate(25 24)"/>
</clipPath>
</defs>
</svg>
