<svg width="86" height="87" viewBox="0 0 86 87" fill="none" xmlns="http://www.w3.org/2000/svg">
<path d="M72.8559 16.5154C71.684 11.9183 67.6889 8.94785 61.6809 9.81002C56.5036 10.5543 52.659 12.6634 46.898 9.43067C24.8896 -2.92215 18.1253 12.3619 18.5148 23.8687C19.0723 40.3879 13.9766 43.0198 9.03176 51.1661C5.57483 56.8595 3.29469 61.7983 4.76798 68.91C6.97339 79.5611 16.5812 84.147 25.6036 82.5318C30.0343 81.7396 34.7646 80.1893 37.6994 79.4469C45.5822 77.454 48.6689 77.9731 59.0375 78.4843C79.2446 79.1406 86.9362 64.1586 76.9712 51.4506C68.441 40.5725 67.7417 39.9204 70.914 29.8178C72.2468 25.5755 74.1966 21.7736 72.8559 16.5154Z" fill="#FF008A" fill-opacity="0.1"/>
<path d="M61.3963 7.83038L61.3968 7.83031C64.7878 7.34368 67.7895 7.91895 70.1574 9.42926C72.5274 10.9409 74.0963 13.2847 74.7939 16.0213C76.0694 21.0238 74.6787 25.0206 73.474 28.4828C73.2432 29.1461 73.0193 29.7897 72.8222 30.417C71.2089 35.5547 70.8291 37.6555 71.4681 39.7631C71.8009 40.8607 72.4517 42.0765 73.6222 43.7605C74.7223 45.343 76.194 47.2192 78.1443 49.7056C78.2757 49.8731 78.4092 50.0434 78.545 50.2165C83.9269 57.0798 84.7537 64.9091 81.0264 71.0205C77.3313 77.079 69.54 80.8265 58.9726 80.4832L58.9558 80.4827L58.939 80.4819C57.6105 80.4164 56.4062 80.3513 55.3005 80.2916C47.7111 79.8818 44.7677 79.7229 38.1899 81.3859C37.3843 81.5897 36.3775 81.8754 35.2423 82.1977C32.547 82.9628 29.1274 83.9335 25.956 84.5005C16.0769 86.2691 5.27545 81.2248 2.80956 69.3158C1.17871 61.4434 3.78908 55.9471 7.32208 50.1283L61.3963 7.83038ZM61.3963 7.83038C59.9817 8.03374 58.7502 8.29502 57.6247 8.53379M61.3963 7.83038L57.6247 8.53379M57.6247 8.53379C54.1225 9.27683 51.6469 9.80203 47.8769 7.6866M57.6247 8.53379L47.8769 7.6866M47.8769 7.6866C36.5417 1.32442 28.3351 1.67694 23.0158 6.17515C17.9434 10.4645 16.3122 17.9151 16.516 23.9362L47.8769 7.6866ZM14.0386 39.7814C15.6791 36.4137 16.7871 31.9722 16.516 23.9364L14.0386 39.7814ZM14.0386 39.7814C13.2016 41.4998 12.1967 42.9999 11.0437 44.6342M14.0386 39.7814L11.0437 44.6342M11.0437 44.6342C10.8539 44.9033 10.6595 45.1767 10.4614 45.4554M11.0437 44.6342L10.4614 45.4554M10.4614 45.4554C9.47218 46.8468 8.39042 48.3683 7.32221 50.1281L10.4614 45.4554Z" stroke="#FF008A" stroke-opacity="0.01" stroke-width="4"/>
<g clip-path="url(#clip0_7169_258970)">
<path d="M79.2549 29.54C75.8816 29.54 73.1216 32.2711 73.1216 35.609C73.1216 38.9469 75.8816 41.678 79.2549 41.678C82.6282 41.678 85.3882 38.9469 85.3882 35.609C85.3882 32.2711 82.6282 29.54 79.2549 29.54ZM81.5549 34.9262C81.4016 35.0021 81.2482 35.078 81.0949 35.078C80.8649 35.078 80.6349 34.9262 80.4816 34.7745C80.1749 34.3952 79.7149 34.0918 79.2549 34.0918C78.7949 34.0918 78.4882 33.7883 78.4882 33.3331C78.4882 32.878 78.7949 32.5745 79.2549 32.5745C80.2516 32.5745 81.1716 33.0297 81.7849 33.8642C82.0149 34.2435 81.9382 34.6987 81.5549 34.9262Z" fill="#FF008A" fill-opacity="0.1"/>
<path d="M69.2884 29.5393C67.1417 29.5393 65.4551 27.8704 65.4551 25.7462C65.4551 23.6221 67.1417 21.9531 69.2884 21.9531C71.4351 21.9531 73.1217 23.6221 73.1217 25.7462C73.1217 27.8704 71.4351 29.5393 69.2884 29.5393Z" fill="#FF008A" fill-opacity="0.1"/>
<path d="M66.6048 38.643C64.6881 38.643 63.1548 37.1258 63.1548 35.2292C63.1548 33.3327 64.6881 31.8154 66.6048 31.8154C68.5215 31.8154 70.0548 33.3327 70.0548 35.2292C70.0548 37.1258 68.5215 38.643 66.6048 38.643Z" fill="#FF008A" fill-opacity="0.1"/>
<path d="M76.9547 24.2296C76.4947 24.2296 76.188 23.9262 76.188 23.471V21.1951C76.188 20.74 76.4947 20.4365 76.9547 20.4365C77.4147 20.4365 77.7213 20.74 77.7213 21.1951V23.471C77.7213 23.9262 77.4147 24.2296 76.9547 24.2296Z" fill="#FF008A" fill-opacity="0.1"/>
<path d="M82.3215 27.2643H80.0215C79.5615 27.2643 79.2549 26.9609 79.2549 26.5057C79.2549 26.0505 79.5615 25.7471 80.0215 25.7471H82.3215C82.7815 25.7471 83.0882 26.0505 83.0882 26.5057C83.0882 26.9609 82.7815 27.2643 82.3215 27.2643Z" fill="#FF008A" fill-opacity="0.1"/>
<path d="M79.1016 25.1396C78.8716 25.1396 78.7183 25.0638 78.565 24.9121C78.2583 24.6086 78.2583 24.1534 78.565 23.85L80.175 22.2569C80.4816 21.9534 80.9416 21.9534 81.2483 22.2569C81.555 22.5603 81.555 23.0155 81.2483 23.319L79.6383 24.9121C79.485 25.0638 79.3316 25.1396 79.1016 25.1396Z" fill="#FF008A" fill-opacity="0.1"/>
</g>
<path d="M49.791 37.6973V57.6211H55.9886V38.4352C55.9886 38.0293 55.6788 37.6973 55.3 37.6973H49.791ZM52.5455 55.4073C52.5455 55.8132 52.2356 56.1452 51.8569 56.1452C51.4781 56.1452 51.1683 55.8132 51.1683 55.4073V53.297C51.1683 52.8912 51.4781 52.5591 51.8569 52.5591C52.2356 52.5591 52.5455 52.8912 52.5455 53.297V55.4073ZM52.5455 51.1939C52.5455 51.5998 52.2356 51.9318 51.8569 51.9318C51.4781 51.9318 51.1683 51.5998 51.1683 51.1939V49.0836C51.1683 48.6778 51.4781 48.3457 51.8569 48.3457C52.2356 48.3457 52.5455 48.6778 52.5455 49.0836V51.1939ZM52.5455 46.9729C52.5455 47.3788 52.2356 47.7109 51.8569 47.7109C51.4781 47.7109 51.1683 47.3788 51.1683 46.9729V44.8623C51.1683 44.4565 51.4781 44.1244 51.8569 44.1244C52.2356 44.1244 52.5455 44.4565 52.5455 44.8623V46.9729ZM52.5455 42.7592C52.5455 43.1651 52.2356 43.4971 51.8569 43.4971C51.4781 43.4971 51.1683 43.1651 51.1683 42.7592V40.6489C51.1683 40.2431 51.4781 39.911 51.8569 39.911C52.2356 39.911 52.5455 40.2431 52.5455 40.6489V42.7592Z" fill="#FF008A"/>
<path d="M28.4424 38.4352V57.6211H34.64V37.6973H29.131C28.7523 37.6973 28.4424 38.0293 28.4424 38.4352ZM31.8855 40.6489C31.8855 40.2431 32.1954 39.911 32.5741 39.911C32.9529 39.911 33.2628 40.2431 33.2628 40.6489V42.7592C33.2628 43.1651 32.9529 43.4971 32.5741 43.4971C32.1954 43.4971 31.8855 43.1651 31.8855 42.7592V40.6489ZM31.8855 44.8623C31.8855 44.4565 32.1954 44.1244 32.5741 44.1244C32.9529 44.1244 33.2628 44.4565 33.2628 44.8623V46.9729C33.2628 47.3788 32.9529 47.7109 32.5741 47.7109C32.1954 47.7109 31.8855 47.3788 31.8855 46.9729V44.8623ZM31.8855 49.0833C31.8855 48.6774 32.1954 48.3454 32.5741 48.3454C32.9529 48.3454 33.2628 48.6774 33.2628 49.0833V51.1936C33.2628 51.5994 32.9529 51.9315 32.5741 51.9315C32.1954 51.9315 31.8855 51.5994 31.8855 51.1936V49.0833ZM31.8855 53.297C31.8855 52.8912 32.1954 52.5591 32.5741 52.5591C32.9529 52.5591 33.2628 52.8912 33.2628 53.297V55.4073C33.2628 55.8132 32.9529 56.1452 32.5741 56.1452C32.1954 56.1452 31.8855 55.8132 31.8855 55.4073V53.297Z" fill="#FF008A"/>
<path d="M58.0544 58.3584H26.3776C25.9973 58.3584 25.689 58.6885 25.689 59.0963V62.048C25.689 62.4558 25.9973 62.7859 26.3776 62.7859H58.0544C58.4347 62.7859 58.743 62.4558 58.743 62.048V59.0963C58.743 58.6885 58.4347 58.3584 58.0544 58.3584Z" fill="#FF008A"/>
<path d="M49.1016 57.6211V32.5319C49.1016 32.126 48.7917 31.7939 48.413 31.7939H36.0177C35.639 31.7939 35.3291 32.126 35.3291 32.5319V57.6211H39.4609V53.1936C39.4609 52.7857 39.7692 52.4557 40.1495 52.4557H44.2812C44.6615 52.4557 44.9699 52.7857 44.9699 53.1936V57.6211H49.1016ZM40.1495 49.504C40.1495 49.9098 39.8396 50.2419 39.4609 50.2419C39.0821 50.2419 38.7722 49.9098 38.7722 49.504V47.3937C38.7722 46.9878 39.0821 46.6558 39.4609 46.6558C39.8396 46.6558 40.1495 46.9878 40.1495 47.3937V49.504ZM40.1495 45.2906C40.1495 45.6964 39.8396 46.0285 39.4609 46.0285C39.0821 46.0285 38.7722 45.6964 38.7722 45.2906V43.1803C38.7722 42.7745 39.0821 42.4424 39.4609 42.4424C39.8396 42.4424 40.1495 42.7745 40.1495 43.1803V45.2906ZM40.1495 41.0696C40.1495 41.4755 39.8396 41.8075 39.4609 41.8075C39.0821 41.8075 38.7722 41.4755 38.7722 41.0696V38.959C38.7722 38.5531 39.0821 38.2211 39.4609 38.2211C39.8396 38.2211 40.1495 38.5531 40.1495 38.959V41.0696ZM40.1495 36.8559C40.1495 37.2617 39.8396 37.5938 39.4609 37.5938C39.0821 37.5938 38.7722 37.2617 38.7722 36.8559V34.7456C38.7722 34.3398 39.0821 34.0077 39.4609 34.0077C39.8396 34.0077 40.1495 34.3398 40.1495 34.7456V36.8559ZM42.904 49.5042C42.904 49.9101 42.5941 50.2421 42.2154 50.2421C41.8366 50.2421 41.5267 49.9101 41.5267 49.5042V47.394C41.5267 46.9881 41.8366 46.656 42.2154 46.656C42.5941 46.656 42.904 46.9881 42.904 47.394V49.5042ZM42.904 45.2908C42.904 45.6967 42.5941 46.0288 42.2154 46.0288C41.8366 46.0288 41.5267 45.6967 41.5267 45.2908V43.1806C41.5267 42.7747 41.8366 42.4427 42.2154 42.4427C42.5941 42.4427 42.904 42.7747 42.904 43.1806V45.2908ZM42.904 41.0699C42.904 41.4757 42.5941 41.8078 42.2154 41.8078C41.8366 41.8078 41.5267 41.4757 41.5267 41.0699V38.9593C41.5267 38.5534 41.8366 38.2213 42.2154 38.2213C42.5941 38.2213 42.904 38.5534 42.904 38.9593V41.0699ZM42.904 36.8561C42.904 37.262 42.5941 37.5941 42.2154 37.5941C41.8366 37.5941 41.5267 37.262 41.5267 36.8561V34.7459C41.5267 34.34 41.8366 34.008 42.2154 34.008C42.5941 34.008 42.904 34.34 42.904 34.7459V36.8561ZM44.2812 34.7459C44.2812 34.34 44.5911 34.008 44.9699 34.008C45.3486 34.008 45.6585 34.34 45.6585 34.7459V36.8561C45.6585 37.262 45.3486 37.5941 44.9699 37.5941C44.5911 37.5941 44.2812 37.262 44.2812 36.8561V34.7459ZM44.2812 38.9593C44.2812 38.5534 44.5911 38.2213 44.9699 38.2213C45.3486 38.2213 45.6585 38.5534 45.6585 38.9593V41.0699C45.6585 41.4757 45.3486 41.8078 44.9699 41.8078C44.5911 41.8078 44.2812 41.4757 44.2812 41.0699V38.9593ZM44.2812 43.1802C44.2812 42.7744 44.5911 42.4423 44.9699 42.4423C45.3486 42.4423 45.6585 42.7744 45.6585 43.1802V45.2905C45.6585 45.6964 45.3486 46.0284 44.9699 46.0284C44.5911 46.0284 44.2812 45.6964 44.2812 45.2905V43.1802ZM44.2812 49.5042V47.394C44.2812 46.9881 44.5911 46.656 44.9699 46.656C45.3486 46.656 45.6585 46.9881 45.6585 47.394V49.5042C45.6585 49.9101 45.3486 50.2421 44.9699 50.2421C44.5911 50.2421 44.2812 49.9101 44.2812 49.5042Z" fill="#FF008A"/>
<path d="M33.9518 33.2693H34.6404V32.5314C34.6404 31.7197 35.2602 31.0556 36.0177 31.0556H48.413C49.1704 31.0556 49.7902 31.7197 49.7902 32.5314V33.2693H50.4788C50.8576 33.2693 51.1675 32.9372 51.1675 32.5314V29.5797C51.1675 29.1739 50.8576 28.8418 50.4788 28.8418H33.9518C33.5731 28.8418 33.2632 29.1739 33.2632 29.5797V32.5314C33.2632 32.9372 33.5731 33.2693 33.9518 33.2693Z" fill="#FF008A"/>
<path d="M34.6411 34.7451H26.3776C25.9988 34.7451 25.689 35.0772 25.689 35.483V38.4347C25.689 38.8406 25.9988 39.1726 26.3776 39.1726H27.7548V38.4347C27.7548 37.623 28.3746 36.9589 29.1321 36.9589H34.6411V34.7451Z" fill="#FF008A"/>
<path d="M49.791 36.9589H55.3C56.0575 36.9589 56.6773 37.623 56.6773 38.4347V39.1726H58.0545C58.4333 39.1726 58.7432 38.8406 58.7432 38.4347V35.483C58.7432 35.0772 58.4333 34.7451 58.0545 34.7451H49.791V36.9589Z" fill="#FF008A"/>
<path d="M27.7545 31.7936C27.7545 32.2014 28.0629 32.5315 28.4431 32.5315C28.8234 32.5315 29.1318 32.2014 29.1318 31.7936C29.1318 30.5727 30.0583 29.5799 31.1976 29.5799C31.5779 29.5799 31.8863 29.2498 31.8863 28.8419C31.8863 28.4341 31.5779 28.104 31.1976 28.104C30.0583 28.104 29.1318 27.1112 29.1318 25.8903C29.1318 25.4824 28.8234 25.1523 28.4431 25.1523C28.0629 25.1523 27.7545 25.4824 27.7545 25.8903C27.7545 27.1112 26.828 28.104 25.6886 28.104C25.3083 28.104 25 28.4341 25 28.8419C25 29.2498 25.3083 29.5799 25.6886 29.5799C26.828 29.5799 27.7545 30.5727 27.7545 31.7936ZM28.4431 28.1017C28.6396 28.3821 28.8726 28.6315 29.1339 28.842C28.8726 29.0525 28.6396 29.3018 28.4431 29.5822C28.2467 29.3018 28.0137 29.0525 27.7524 28.842C28.0137 28.6315 28.2467 28.3821 28.4431 28.1017Z" fill="#FF008A"/>
<path d="M63.5629 53.1929C62.4235 53.1929 61.497 52.2 61.497 50.9791C61.497 50.5713 61.1886 50.2412 60.8084 50.2412C60.4281 50.2412 60.1197 50.5713 60.1197 50.9791C60.1197 52.2 59.1932 53.1929 58.0539 53.1929C57.6736 53.1929 57.3652 53.523 57.3652 53.9308C57.3652 54.3386 57.6736 54.6687 58.0539 54.6687C59.1932 54.6687 60.1197 55.6616 60.1197 56.8825C60.1197 57.2903 60.4281 57.6204 60.8084 57.6204C61.1886 57.6204 61.497 57.2903 61.497 56.8825C61.497 55.6616 62.4235 54.6687 63.5629 54.6687C63.9431 54.6687 64.2515 54.3386 64.2515 53.9308C64.2515 53.523 63.9431 53.1929 63.5629 53.1929ZM60.8084 54.671C60.6119 54.3907 60.3789 54.1413 60.1176 53.9308C60.3789 53.7203 60.6119 53.4709 60.8084 53.1906C61.0048 53.4709 61.2378 53.7203 61.4991 53.9308C61.2378 54.1413 61.0048 54.3907 60.8084 54.671Z" fill="#FF008A"/>
<defs>
<clipPath id="clip0_7169_258970">
<rect width="23" height="22" fill="white" transform="translate(62.6875 20)"/>
</clipPath>
</defs>
</svg>
