<svg width="86" height="87" viewBox="0 0 86 87" fill="none" xmlns="http://www.w3.org/2000/svg">
<path d="M72.8559 16.5154C71.684 11.9183 67.6889 8.94785 61.6809 9.81002C56.5036 10.5543 52.659 12.6634 46.898 9.43067C24.8896 -2.92215 18.1253 12.3619 18.5148 23.8687C19.0723 40.3879 13.9766 43.0198 9.03176 51.1661C5.57483 56.8595 3.29469 61.7983 4.76798 68.91C6.97339 79.5611 16.5812 84.147 25.6036 82.5318C30.0343 81.7396 34.7646 80.1893 37.6994 79.4469C45.5822 77.454 48.6689 77.9731 59.0375 78.4843C79.2446 79.1406 86.9362 64.1586 76.9712 51.4506C68.441 40.5725 67.7417 39.9204 70.914 29.8178C72.2468 25.5755 74.1966 21.7736 72.8559 16.5154Z" fill="#FF008A" fill-opacity="0.1"/>
<path d="M61.3963 7.83038L61.3968 7.83031C64.7878 7.34368 67.7895 7.91895 70.1574 9.42926C72.5274 10.9409 74.0963 13.2847 74.7939 16.0213C76.0694 21.0238 74.6787 25.0206 73.474 28.4828C73.2432 29.1461 73.0193 29.7897 72.8222 30.417C71.2089 35.5547 70.8291 37.6555 71.4681 39.7631C71.8009 40.8607 72.4517 42.0765 73.6222 43.7605C74.7223 45.343 76.194 47.2192 78.1443 49.7056C78.2757 49.8731 78.4092 50.0434 78.545 50.2165C83.9269 57.0798 84.7537 64.9091 81.0264 71.0205C77.3313 77.079 69.54 80.8265 58.9726 80.4832L58.9558 80.4827L58.939 80.4819C57.6105 80.4164 56.4062 80.3513 55.3005 80.2916C47.7111 79.8818 44.7677 79.7229 38.1899 81.3859C37.3843 81.5897 36.3775 81.8754 35.2423 82.1977C32.547 82.9628 29.1274 83.9335 25.956 84.5005C16.0769 86.2691 5.27545 81.2248 2.80956 69.3158C1.17871 61.4434 3.78908 55.9471 7.32208 50.1283L61.3963 7.83038ZM61.3963 7.83038C59.9817 8.03374 58.7502 8.29502 57.6247 8.53379M61.3963 7.83038L57.6247 8.53379M57.6247 8.53379C54.1225 9.27683 51.6469 9.80203 47.8769 7.6866M57.6247 8.53379L47.8769 7.6866M47.8769 7.6866C36.5417 1.32442 28.3351 1.67694 23.0158 6.17515C17.9434 10.4645 16.3122 17.9151 16.516 23.9362L47.8769 7.6866ZM14.0386 39.7814C15.6791 36.4137 16.7871 31.9722 16.516 23.9364L14.0386 39.7814ZM14.0386 39.7814C13.2016 41.4998 12.1967 42.9999 11.0437 44.6342M14.0386 39.7814L11.0437 44.6342M11.0437 44.6342C10.8539 44.9033 10.6595 45.1767 10.4614 45.4554M11.0437 44.6342L10.4614 45.4554M10.4614 45.4554C9.47218 46.8468 8.39042 48.3683 7.32221 50.1281L10.4614 45.4554Z" stroke="#FF008A" stroke-opacity="0.05" stroke-width="4"/>
<g clip-path="url(#clip0_7169_259111)">
<path d="M79.2549 29.54C75.8816 29.54 73.1216 32.2711 73.1216 35.609C73.1216 38.9469 75.8816 41.678 79.2549 41.678C82.6282 41.678 85.3882 38.9469 85.3882 35.609C85.3882 32.2711 82.6282 29.54 79.2549 29.54ZM81.5549 34.9262C81.4016 35.0021 81.2482 35.078 81.0949 35.078C80.8649 35.078 80.6349 34.9262 80.4816 34.7745C80.1749 34.3952 79.7149 34.0918 79.2549 34.0918C78.7949 34.0918 78.4882 33.7883 78.4882 33.3331C78.4882 32.878 78.7949 32.5745 79.2549 32.5745C80.2516 32.5745 81.1716 33.0297 81.7849 33.8642C82.0149 34.2435 81.9382 34.6987 81.5549 34.9262Z" fill="#FF008A" fill-opacity="0.1"/>
<path d="M69.2884 29.5393C67.1417 29.5393 65.4551 27.8704 65.4551 25.7462C65.4551 23.6221 67.1417 21.9531 69.2884 21.9531C71.4351 21.9531 73.1217 23.6221 73.1217 25.7462C73.1217 27.8704 71.4351 29.5393 69.2884 29.5393Z" fill="#FF008A" fill-opacity="0.1"/>
<path d="M66.6048 38.643C64.6881 38.643 63.1548 37.1258 63.1548 35.2292C63.1548 33.3327 64.6881 31.8154 66.6048 31.8154C68.5215 31.8154 70.0548 33.3327 70.0548 35.2292C70.0548 37.1258 68.5215 38.643 66.6048 38.643Z" fill="#FF008A" fill-opacity="0.1"/>
<path d="M76.9547 24.2296C76.4947 24.2296 76.188 23.9262 76.188 23.471V21.1951C76.188 20.74 76.4947 20.4365 76.9547 20.4365C77.4147 20.4365 77.7213 20.74 77.7213 21.1951V23.471C77.7213 23.9262 77.4147 24.2296 76.9547 24.2296Z" fill="#FF008A" fill-opacity="0.1"/>
<path d="M82.3215 27.2643H80.0215C79.5615 27.2643 79.2549 26.9609 79.2549 26.5057C79.2549 26.0505 79.5615 25.7471 80.0215 25.7471H82.3215C82.7815 25.7471 83.0882 26.0505 83.0882 26.5057C83.0882 26.9609 82.7815 27.2643 82.3215 27.2643Z" fill="#FF008A" fill-opacity="0.1"/>
<path d="M79.1016 25.1396C78.8716 25.1396 78.7183 25.0638 78.565 24.9121C78.2583 24.6086 78.2583 24.1534 78.565 23.85L80.175 22.2569C80.4816 21.9534 80.9416 21.9534 81.2483 22.2569C81.555 22.5603 81.555 23.0155 81.2483 23.319L79.6383 24.9121C79.485 25.0638 79.3316 25.1396 79.1016 25.1396Z" fill="#FF008A" fill-opacity="0.1"/>
</g>
<g clip-path="url(#clip1_7169_259111)">
<path d="M64.2327 58.2002H25.8006C25.3602 58.2002 25 58.5301 25 58.9334V61.933C25 62.3363 25.3602 62.6662 25.8006 62.6662H64.2327C64.6811 62.6662 65.0333 62.3363 65.0333 61.933V58.9337C65.0333 58.5301 64.6811 58.2002 64.2327 58.2002V58.2002Z" fill="#FF008A"/>
<path d="M44.2162 26H29.075C28.6266 26 28.2744 26.3226 28.2744 26.7332V41.3704H44.216L44.2162 26ZM41.9262 35.7162C39.9484 35.7162 38.5155 37.0289 38.5155 38.8404C38.5155 39.2437 38.1552 39.5736 37.7149 39.5736C37.2746 39.5736 36.9144 39.2437 36.9144 38.8404C36.9144 37.0289 35.4811 35.7162 33.5033 35.7162C33.063 35.7162 32.7028 35.3863 32.7028 34.983C32.7028 34.5797 33.063 34.2497 33.5033 34.2497C35.4811 34.2497 36.9144 32.937 36.9144 31.1256C36.9144 30.7223 37.2746 30.3923 37.7149 30.3923C38.1552 30.3923 38.5155 30.7223 38.5155 31.1256C38.5155 32.937 39.9487 34.2497 41.9262 34.2497C42.3665 34.2497 42.7267 34.5797 42.7267 34.983C42.7267 35.3863 42.3665 35.7162 41.9262 35.7162Z" fill="#FF008A"/>
<path d="M61.7664 26.7332C61.7664 26.3226 61.4062 26 60.9658 26H45.8203V41.3671H61.7671L61.7664 26.7332Z" fill="#FF008A"/>
<path d="M28.2744 42.8369H44.216V56.7339H28.2744V42.8369Z" fill="#FF008A"/>
<path d="M61.7662 42.8369H45.8169V56.7339H61.7662V42.8369ZM58.2513 49.9501C56.2735 49.9501 54.8403 51.2628 54.8403 53.074C54.8403 53.4773 54.4801 53.8072 54.0397 53.8072C53.5994 53.8072 53.2392 53.4773 53.2392 53.074C53.2392 51.2625 51.806 49.9501 49.8285 49.9501C49.3882 49.9501 49.028 49.6202 49.028 49.2169C49.028 48.8136 49.3882 48.4836 49.8285 48.4836C51.8063 48.4836 53.2392 47.1709 53.2392 45.3595C53.2392 44.9562 53.5994 44.6262 54.0397 44.6262C54.4801 44.6262 54.8403 44.9562 54.8403 45.3595C54.8403 47.1709 56.2735 48.4836 58.2513 48.4836C58.6917 48.4836 59.0519 48.8136 59.0519 49.2169C59.0519 49.6202 58.6917 49.9501 58.2513 49.9501Z" fill="#FF008A"/>
</g>
<defs>
<clipPath id="clip0_7169_259111">
<rect width="23" height="22" fill="white" transform="translate(62.6875 20)"/>
</clipPath>
<clipPath id="clip1_7169_259111">
<rect width="40" height="40" fill="white" transform="translate(25 24)"/>
</clipPath>
</defs>
</svg>
