<svg width="86" height="87" viewBox="0 0 86 87" fill="none" xmlns="http://www.w3.org/2000/svg">
<path d="M72.8559 16.5154C71.684 11.9183 67.6889 8.94785 61.6809 9.81002C56.5036 10.5543 52.659 12.6634 46.898 9.43067C24.8896 -2.92215 18.1253 12.3619 18.5148 23.8687C19.0723 40.3879 13.9766 43.0198 9.03176 51.1661C5.57483 56.8595 3.29469 61.7983 4.76798 68.91C6.97339 79.5611 16.5812 84.147 25.6036 82.5318C30.0343 81.7396 34.7646 80.1893 37.6994 79.4469C45.5822 77.454 48.6689 77.9731 59.0375 78.4843C79.2446 79.1406 86.9362 64.1586 76.9712 51.4506C68.441 40.5725 67.7417 39.9204 70.914 29.8178C72.2468 25.5755 74.1966 21.7736 72.8559 16.5154Z" fill="#FF008A" fill-opacity="0.1"/>
<path d="M61.3963 7.83038L61.3968 7.83031C64.7878 7.34368 67.7895 7.91895 70.1574 9.42926C72.5274 10.9409 74.0963 13.2847 74.7939 16.0213C76.0694 21.0238 74.6787 25.0206 73.474 28.4828C73.2432 29.1461 73.0193 29.7897 72.8222 30.417C71.2089 35.5547 70.8291 37.6555 71.4681 39.7631C71.8009 40.8607 72.4517 42.0765 73.6222 43.7605C74.7223 45.343 76.194 47.2192 78.1443 49.7056C78.2757 49.8731 78.4092 50.0434 78.545 50.2165C83.9269 57.0798 84.7537 64.9091 81.0264 71.0205C77.3313 77.079 69.54 80.8265 58.9726 80.4832L58.9558 80.4827L58.939 80.4819C57.6105 80.4164 56.4062 80.3513 55.3005 80.2916C47.7111 79.8818 44.7677 79.7229 38.1899 81.3859C37.3843 81.5897 36.3775 81.8754 35.2423 82.1977C32.547 82.9628 29.1274 83.9335 25.956 84.5005C16.0769 86.2691 5.27545 81.2248 2.80956 69.3158C1.17871 61.4434 3.78908 55.9471 7.32208 50.1283L61.3963 7.83038ZM61.3963 7.83038C59.9817 8.03374 58.7502 8.29502 57.6247 8.53379M61.3963 7.83038L57.6247 8.53379M57.6247 8.53379C54.1225 9.27683 51.6469 9.80203 47.8769 7.6866M57.6247 8.53379L47.8769 7.6866M47.8769 7.6866C36.5417 1.32442 28.3351 1.67694 23.0158 6.17515C17.9434 10.4645 16.3122 17.9151 16.516 23.9362L47.8769 7.6866ZM14.0386 39.7814C15.6791 36.4137 16.7871 31.9722 16.516 23.9364L14.0386 39.7814ZM14.0386 39.7814C13.2016 41.4998 12.1967 42.9999 11.0437 44.6342M14.0386 39.7814L11.0437 44.6342M11.0437 44.6342C10.8539 44.9033 10.6595 45.1767 10.4614 45.4554M11.0437 44.6342L10.4614 45.4554M10.4614 45.4554C9.47218 46.8468 8.39042 48.3683 7.32221 50.1281L10.4614 45.4554Z" stroke="#FF008A" stroke-opacity="0.05" stroke-width="4"/>
<g clip-path="url(#clip0_7169_258947)">
<path d="M79.2549 29.54C75.8816 29.54 73.1216 32.2711 73.1216 35.609C73.1216 38.9469 75.8816 41.678 79.2549 41.678C82.6282 41.678 85.3882 38.9469 85.3882 35.609C85.3882 32.2711 82.6282 29.54 79.2549 29.54ZM81.5549 34.9262C81.4016 35.0021 81.2482 35.078 81.0949 35.078C80.8649 35.078 80.6349 34.9262 80.4816 34.7745C80.1749 34.3952 79.7149 34.0918 79.2549 34.0918C78.7949 34.0918 78.4882 33.7883 78.4882 33.3331C78.4882 32.878 78.7949 32.5745 79.2549 32.5745C80.2516 32.5745 81.1716 33.0297 81.7849 33.8642C82.0149 34.2435 81.9382 34.6987 81.5549 34.9262Z" fill="#FF008A" fill-opacity="0.1"/>
<path d="M69.2884 29.5393C67.1417 29.5393 65.4551 27.8704 65.4551 25.7462C65.4551 23.6221 67.1417 21.9531 69.2884 21.9531C71.4351 21.9531 73.1217 23.6221 73.1217 25.7462C73.1217 27.8704 71.4351 29.5393 69.2884 29.5393Z" fill="#FF008A" fill-opacity="0.1"/>
<path d="M66.6048 38.643C64.6881 38.643 63.1548 37.1258 63.1548 35.2292C63.1548 33.3327 64.6881 31.8154 66.6048 31.8154C68.5215 31.8154 70.0548 33.3327 70.0548 35.2292C70.0548 37.1258 68.5215 38.643 66.6048 38.643Z" fill="#FF008A" fill-opacity="0.1"/>
<path d="M76.9547 24.2296C76.4947 24.2296 76.188 23.9262 76.188 23.471V21.1951C76.188 20.74 76.4947 20.4365 76.9547 20.4365C77.4147 20.4365 77.7213 20.74 77.7213 21.1951V23.471C77.7213 23.9262 77.4147 24.2296 76.9547 24.2296Z" fill="#FF008A" fill-opacity="0.1"/>
<path d="M82.3215 27.2643H80.0215C79.5615 27.2643 79.2549 26.9609 79.2549 26.5057C79.2549 26.0505 79.5615 25.7471 80.0215 25.7471H82.3215C82.7815 25.7471 83.0882 26.0505 83.0882 26.5057C83.0882 26.9609 82.7815 27.2643 82.3215 27.2643Z" fill="#FF008A" fill-opacity="0.1"/>
<path d="M79.1016 25.1396C78.8716 25.1396 78.7183 25.0638 78.565 24.9121C78.2583 24.6086 78.2583 24.1534 78.565 23.85L80.175 22.2569C80.4816 21.9534 80.9416 21.9534 81.2483 22.2569C81.555 22.5603 81.555 23.0155 81.2483 23.319L79.6383 24.9121C79.485 25.0638 79.3316 25.1396 79.1016 25.1396Z" fill="#FF008A" fill-opacity="0.1"/>
</g>
<path d="M54.7293 54.421H29.8981V44.5459H25.0205V59.359H26.7945V63.8476H29.4551L31.1602 59.359H53.4675L55.1726 63.8476H57.8332V59.359H59.6068V44.5459H54.7296L54.7293 54.421Z" fill="#FF008A"/>
<path d="M31.228 50.3809H53.3981V53.0742H31.228V50.3809Z" fill="#FF008A"/>
<path d="M37.8788 30.5801C39.3481 30.5801 40.5394 29.3743 40.5394 27.8867C40.5394 26.3994 39.3483 25.1934 37.8788 25.1934C36.4096 25.1934 35.2183 26.3992 35.2183 27.8867C35.2189 29.3738 36.41 30.5801 37.8788 30.5801ZM37.8788 26.5403C38.612 26.5403 39.2092 27.1442 39.2092 27.8871C39.2092 28.63 38.6124 29.2338 37.8788 29.2338C37.1456 29.2338 36.5485 28.6296 36.5485 27.8871C36.5488 27.1445 37.1456 26.5403 37.8788 26.5403Z" fill="#FF008A"/>
<path d="M30.341 28.3363C31.5656 28.3363 32.558 27.3317 32.558 26.092C32.558 24.8523 31.5656 23.8477 30.341 23.8477C29.1164 23.8477 28.124 24.8523 28.124 26.092C28.124 27.3314 29.1164 28.3363 30.341 28.3363ZM30.341 25.1945C30.8299 25.1945 31.228 25.5978 31.228 26.0924C31.228 26.5873 30.8296 26.99 30.341 26.99C29.8521 26.99 29.4544 26.5867 29.4544 26.0924C29.4544 25.5971 29.8521 25.1945 30.341 25.1945Z" fill="#FF008A"/>
<path d="M61.5854 35.8684C61.04 34.9856 60.2427 34.3265 59.3148 33.9571C59.6633 32.606 59.4683 31.1337 58.7112 29.91C57.7715 28.3911 56.1526 27.4844 54.3802 27.4844C53.425 27.4844 52.4909 27.7562 51.679 28.2709C51.2546 28.5395 50.8757 28.8656 50.5524 29.2397C49.4995 28.699 48.3249 28.4099 47.1378 28.4099C45.7369 28.4099 44.3668 28.8092 43.1748 29.5639C41.4755 30.6407 40.2925 32.3223 39.8435 34.2998C39.7812 34.5719 39.7381 34.8456 39.7062 35.1193H36.4392C36.437 35.107 36.4364 35.0951 36.4339 35.0828C35.9134 32.5498 33.6825 30.711 31.1297 30.711H31.1294C30.7583 30.711 30.3844 30.7496 30.0193 30.8265C28.2543 31.1981 26.8111 32.4403 26.1294 34.0786C25.8733 34.0798 25.6157 34.1068 25.3636 34.1599C23.2954 34.5964 21.9636 36.6546 22.393 38.7502C22.5855 39.6829 23.1107 40.4914 23.8331 41.0463C23.6334 41.6473 23.5888 42.3 23.7211 42.9391C23.7766 43.2128 23.8659 43.4723 23.9788 43.718C24.2224 43.4045 24.596 43.1993 25.0204 43.1993H25.212C25.1311 43.031 25.0626 42.855 25.0232 42.6638C24.8481 41.8171 25.1649 40.9888 25.7676 40.4581C24.7659 40.3047 23.9152 39.5401 23.696 38.4765C23.4151 37.1069 24.2826 35.764 25.6346 35.479C25.806 35.4429 25.9772 35.4253 26.1458 35.4253C26.4707 35.4253 26.7873 35.49 27.0787 35.6099C27.3193 33.933 28.5612 32.5094 30.2909 32.145C30.572 32.0857 30.8535 32.0571 31.1301 32.0568C32.9502 32.0568 34.5856 33.294 35.0723 35.1187L31.2278 35.119C28.7891 35.119 26.7935 37.1392 26.7935 39.6079V43.1989H29.8969C29.979 43.1989 30.059 43.2089 30.1378 43.2237C30.1616 43.228 30.1852 43.2343 30.2094 43.2403C30.2646 43.2538 30.3182 43.2704 30.37 43.2908C30.3935 43.3002 30.4168 43.3078 30.4394 43.3188C30.9029 43.5287 31.2275 43.9985 31.2275 44.5462V49.0351H53.3975V44.5462C53.3975 43.8024 53.9931 43.1994 54.7279 43.1994H56.9216C57.1287 43.2274 57.3389 43.2431 57.5519 43.2431C58.4438 43.2431 59.3168 42.9888 60.0765 42.5074C61.1538 41.8245 61.9037 40.7581 62.1889 39.5045C62.4745 38.2508 62.2602 36.9589 61.5853 35.8683L61.5854 35.8684ZM38.8193 43.1995L37.879 44.1514L36.9194 43.18L35.9599 44.1514L35.0196 43.1995L35.9791 42.2281L35.0196 41.2567L35.9599 40.3048L36.9194 41.2762L37.879 40.3048L38.8193 41.2567L37.8594 42.2281L38.8193 43.1995ZM49.6067 43.1995L48.6664 44.1514L47.7068 43.18L46.7473 44.1514L45.807 43.1995L46.7665 42.2281L45.807 41.2567L46.7473 40.3048L47.7068 41.2762L48.6664 40.3048L49.6067 41.2567L48.6472 42.2281L49.6067 43.1995ZM59.3711 41.366C58.8893 41.6711 58.3616 41.8336 57.8318 41.8773V39.6082C57.8318 37.1394 55.8368 35.1193 53.3975 35.1193H41.0474C41.2954 33.3614 42.2754 31.7219 43.8798 30.7053C44.8945 30.0623 46.0221 29.7565 47.1372 29.7565C48.5045 29.7565 49.8518 30.2169 50.9481 31.0812C51.2423 30.415 51.7278 29.8287 52.3841 29.4125C53.0054 29.0189 53.6964 28.8313 54.38 28.8313C55.6375 28.8313 56.867 29.4674 57.5834 30.6245C58.4431 32.0139 58.3058 33.7445 57.3732 34.9722C57.4318 34.9691 57.4904 34.9678 57.5493 34.9678C58.6912 34.9678 59.8082 35.5305 60.4583 36.5831C61.4633 38.2079 60.9744 40.3489 59.3707 41.3658L59.3711 41.366Z" fill="#FF008A"/>
<defs>
<clipPath id="clip0_7169_258947">
<rect width="23" height="22" fill="white" transform="translate(62.6875 20)"/>
</clipPath>
</defs>
</svg>
