<svg width="86" height="87" viewBox="0 0 86 87" fill="none" xmlns="http://www.w3.org/2000/svg">
<path d="M72.8559 16.5154C71.684 11.9183 67.6889 8.94785 61.6809 9.81002C56.5036 10.5543 52.659 12.6634 46.898 9.43067C24.8896 -2.92215 18.1253 12.3619 18.5148 23.8687C19.0723 40.3879 13.9766 43.0198 9.03176 51.1661C5.57483 56.8595 3.29469 61.7983 4.76798 68.91C6.97339 79.5611 16.5812 84.147 25.6036 82.5318C30.0343 81.7396 34.7646 80.1893 37.6994 79.4469C45.5822 77.454 48.6689 77.9731 59.0375 78.4843C79.2446 79.1406 86.9362 64.1586 76.9712 51.4506C68.441 40.5725 67.7417 39.9204 70.914 29.8178C72.2468 25.5755 74.1966 21.7736 72.8559 16.5154Z" fill="#FF008A" fill-opacity="0.1"/>
<path d="M61.3963 7.83038L61.3968 7.83031C64.7878 7.34368 67.7895 7.91895 70.1574 9.42926C72.5274 10.9409 74.0963 13.2847 74.7939 16.0213C76.0694 21.0238 74.6787 25.0206 73.474 28.4828C73.2432 29.1461 73.0193 29.7897 72.8222 30.417C71.2089 35.5547 70.8291 37.6555 71.4681 39.7631C71.8009 40.8607 72.4517 42.0765 73.6222 43.7605C74.7223 45.343 76.194 47.2192 78.1443 49.7056C78.2757 49.8731 78.4092 50.0434 78.545 50.2165C83.9269 57.0798 84.7537 64.9091 81.0264 71.0205C77.3313 77.079 69.54 80.8265 58.9726 80.4832L58.9558 80.4827L58.939 80.4819C57.6105 80.4164 56.4062 80.3513 55.3005 80.2916C47.7111 79.8818 44.7677 79.7229 38.1899 81.3859C37.3843 81.5897 36.3775 81.8754 35.2423 82.1977C32.547 82.9628 29.1274 83.9335 25.956 84.5005C16.0769 86.2691 5.27545 81.2248 2.80956 69.3158C1.17871 61.4434 3.78908 55.9471 7.32208 50.1283L61.3963 7.83038ZM61.3963 7.83038C59.9817 8.03374 58.7502 8.29502 57.6247 8.53379M61.3963 7.83038L57.6247 8.53379M57.6247 8.53379C54.1225 9.27683 51.6469 9.80203 47.8769 7.6866M57.6247 8.53379L47.8769 7.6866M47.8769 7.6866C36.5417 1.32442 28.3351 1.67694 23.0158 6.17515C17.9434 10.4645 16.3122 17.9151 16.516 23.9362L47.8769 7.6866ZM14.0386 39.7814C15.6791 36.4137 16.7871 31.9722 16.516 23.9364L14.0386 39.7814ZM14.0386 39.7814C13.2016 41.4998 12.1967 42.9999 11.0437 44.6342M14.0386 39.7814L11.0437 44.6342M11.0437 44.6342C10.8539 44.9033 10.6595 45.1767 10.4614 45.4554M11.0437 44.6342L10.4614 45.4554M10.4614 45.4554C9.47218 46.8468 8.39042 48.3683 7.32221 50.1281L10.4614 45.4554Z" stroke="#FF008A" stroke-opacity="0.05" stroke-width="4"/>
<g clip-path="url(#clip0_7169_259135)">
<path d="M79.2549 29.54C75.8816 29.54 73.1216 32.2711 73.1216 35.609C73.1216 38.9469 75.8816 41.678 79.2549 41.678C82.6282 41.678 85.3882 38.9469 85.3882 35.609C85.3882 32.2711 82.6282 29.54 79.2549 29.54ZM81.5549 34.9262C81.4016 35.0021 81.2482 35.078 81.0949 35.078C80.8649 35.078 80.6349 34.9262 80.4816 34.7745C80.1749 34.3952 79.7149 34.0918 79.2549 34.0918C78.7949 34.0918 78.4882 33.7883 78.4882 33.3331C78.4882 32.878 78.7949 32.5745 79.2549 32.5745C80.2516 32.5745 81.1716 33.0297 81.7849 33.8642C82.0149 34.2435 81.9382 34.6987 81.5549 34.9262Z" fill="#FF008A" fill-opacity="0.1"/>
<path d="M69.2884 29.5393C67.1417 29.5393 65.4551 27.8704 65.4551 25.7462C65.4551 23.6221 67.1417 21.9531 69.2884 21.9531C71.4351 21.9531 73.1217 23.6221 73.1217 25.7462C73.1217 27.8704 71.4351 29.5393 69.2884 29.5393Z" fill="#FF008A" fill-opacity="0.1"/>
<path d="M66.6048 38.643C64.6881 38.643 63.1548 37.1258 63.1548 35.2292C63.1548 33.3327 64.6881 31.8154 66.6048 31.8154C68.5215 31.8154 70.0548 33.3327 70.0548 35.2292C70.0548 37.1258 68.5215 38.643 66.6048 38.643Z" fill="#FF008A" fill-opacity="0.1"/>
<path d="M76.9547 24.2296C76.4947 24.2296 76.188 23.9262 76.188 23.471V21.1951C76.188 20.74 76.4947 20.4365 76.9547 20.4365C77.4147 20.4365 77.7213 20.74 77.7213 21.1951V23.471C77.7213 23.9262 77.4147 24.2296 76.9547 24.2296Z" fill="#FF008A" fill-opacity="0.1"/>
<path d="M82.3215 27.2643H80.0215C79.5615 27.2643 79.2549 26.9609 79.2549 26.5057C79.2549 26.0505 79.5615 25.7471 80.0215 25.7471H82.3215C82.7815 25.7471 83.0882 26.0505 83.0882 26.5057C83.0882 26.9609 82.7815 27.2643 82.3215 27.2643Z" fill="#FF008A" fill-opacity="0.1"/>
<path d="M79.1016 25.1396C78.8716 25.1396 78.7183 25.0638 78.565 24.9121C78.2583 24.6086 78.2583 24.1534 78.565 23.85L80.175 22.2569C80.4816 21.9534 80.9416 21.9534 81.2483 22.2569C81.555 22.5603 81.555 23.0155 81.2483 23.319L79.6383 24.9121C79.485 25.0638 79.3316 25.1396 79.1016 25.1396Z" fill="#FF008A" fill-opacity="0.1"/>
</g>
<path d="M41.4324 31.3299C42.904 31.3299 44.0973 30.1366 44.0973 28.6649C44.0973 27.1933 42.9034 26 41.4324 26C39.9604 26 38.7681 27.1933 38.7681 28.6649C38.7681 30.1363 39.9604 31.3299 41.4324 31.3299ZM41.4324 27.3325C42.1671 27.3325 42.7648 27.9302 42.7648 28.6649C42.7648 29.3997 42.1671 29.9974 41.4324 29.9974C40.6976 29.9974 40.0999 29.3997 40.0999 28.6649C40.1002 27.9302 40.6973 27.3325 41.4324 27.3325Z" fill="#FF008A"/>
<path d="M35.2141 33.1064C36.4409 33.1064 37.4345 32.1122 37.4345 30.886C37.4345 29.6592 36.4406 28.665 35.2141 28.665C33.9874 28.665 32.9932 29.6592 32.9932 30.886C32.9935 32.1121 33.988 33.1064 35.2141 33.1064ZM35.2141 29.9975C35.7033 29.9975 36.1021 30.3959 36.1021 30.886C36.1021 31.3758 35.7034 31.7745 35.2141 31.7745C34.7234 31.7745 34.3256 31.3758 34.3256 30.886C34.3259 30.3955 34.724 29.9975 35.2141 29.9975Z" fill="#FF008A"/>
<path d="M63.5093 40.2097L60.9519 37.6526C61.3057 37.2834 61.5853 36.845 61.7576 36.3478C62.0742 35.4364 62.0159 34.4564 61.5946 33.5886C61.3134 33.0082 60.8849 32.5249 60.3628 32.1764C60.6009 31.2997 60.5296 30.3455 60.1179 29.4979C59.4793 28.1828 58.1232 27.333 56.6606 27.333C56.0774 27.333 55.5157 27.4629 54.989 27.7177C54.7556 27.8312 54.537 27.9658 54.3339 28.1205C53.5223 27.6573 52.5994 27.4099 51.6423 27.4099C50.8196 27.4099 50.025 27.5931 49.2809 27.954C46.7173 29.1972 45.5761 32.2038 46.5961 34.8142L45.8756 35.535C45.7888 35.6221 45.7107 35.7145 45.6307 35.8059C45.0417 35.2311 44.2695 34.9028 43.4423 34.8836L43.3651 34.8827C42.3023 34.8827 41.3509 35.4103 40.7566 36.2145L35.393 36.2151C36.079 37.4177 36.5469 39.0388 36.5469 41.1005V50.8711H51.6477V48.528L52.9795 49.8605V52.2036H35.2152V41.1004C35.2152 38.792 34.58 37.2084 33.8018 36.2151H27.6643C26.1929 36.2151 25 38.6016 25 41.5443C25 44.4873 26.1929 46.8735 27.6643 46.8735H29.8626L29.8853 61.9743H31.2171V57.5326H33.7543V61.9743H35.0868V57.5326H37.6249V61.9743H38.9567V57.5326H41.4948V61.9743H42.8273V57.5326H45.3651V61.9743H46.6976V57.5326H49.2348V61.9743H50.5673V57.5326H53.1052V61.975H54.4376V57.5326H56.9757V61.9743H58.3075L58.292 51.6299C59.1744 51.4076 59.9851 50.9577 60.6411 50.3005L63.5091 47.4328C64.4711 46.4723 65 45.1898 65 43.8223C65 42.4548 64.4711 41.1719 63.5098 40.2105L63.5093 40.2097ZM27.664 45.5415C27.332 45.5415 26.3322 44.1238 26.3322 41.5441C26.3322 38.965 27.3323 37.5473 27.664 37.5473C27.9954 37.5473 28.9965 38.965 28.9965 41.5441C28.9965 44.1238 27.9957 45.5415 27.664 45.5415ZM49.8632 29.1525C50.4374 28.8744 51.0448 28.7424 51.6434 28.7424C52.7043 28.7424 53.7354 29.1572 54.5049 29.9025C54.7458 29.4892 55.1085 29.141 55.5708 28.9166C55.9227 28.7464 56.2944 28.6652 56.6611 28.6652C57.5921 28.6652 58.4859 29.186 58.9199 30.0788C59.3896 31.0464 59.176 32.1656 58.4741 32.8994C59.2725 32.9456 60.0239 33.4004 60.3971 34.171C60.8194 35.0413 60.6244 36.0355 60.0012 36.7018L55.966 32.6665C55.0053 31.7052 53.7221 31.176 52.3549 31.176C50.9874 31.176 49.7051 31.7049 48.7441 32.6665L47.6618 33.7488C47.2463 31.9299 48.1129 30.0022 49.8632 29.1525L49.8632 29.1525ZM43.3665 36.2148C43.382 36.2148 43.3966 36.2148 43.4127 36.2151C44.0141 36.2287 44.5393 36.5195 44.8785 36.9604C43.9825 38.8559 44.3124 41.1918 45.878 42.7571L48.7463 45.626C48.3529 45.7832 47.9282 45.8771 47.4796 45.8771C47.4526 45.8771 47.425 45.8768 47.3968 45.8762C45.9105 45.8421 44.6689 44.8668 44.217 43.5334C43.893 43.7405 43.5086 43.8601 43.0966 43.8601C43.0783 43.8601 43.0609 43.8601 43.0429 43.8598C41.8816 43.8335 40.9612 42.8677 40.9881 41.7061C41.0089 40.802 41.5979 40.0484 42.4049 39.7706C41.8255 39.4293 41.4386 38.8 41.455 38.0823C41.4798 37.0415 42.3327 36.2147 43.3666 36.2147L43.3665 36.2148ZM62.5673 46.4902L59.6996 49.3579C58.99 50.0672 58.0422 50.4585 57.0306 50.4585C56.0181 50.4585 55.0701 50.0678 54.3604 49.3579L46.8191 41.8157C45.3465 40.3438 45.3465 37.9491 46.8182 36.4772L49.6859 33.6091C50.3955 32.8998 51.3426 32.5086 52.3549 32.5086C53.3664 32.5086 54.3145 32.8992 55.0242 33.6091L62.5673 41.1516C64.0396 42.6236 64.0396 45.0182 62.5673 46.4902H62.5673Z" fill="#FF008A"/>
<path d="M60.9882 43.685C60.9882 44.421 60.3917 45.0175 59.6557 45.0175C58.92 45.0175 58.3232 44.421 58.3232 43.685C58.3232 42.949 58.92 42.3525 59.6557 42.3525C60.3917 42.3525 60.9882 42.949 60.9882 43.685Z" fill="#FF008A"/>
<path d="M51.6612 39.9109C51.6612 40.5242 51.1643 41.0214 50.5511 41.0214C49.9379 41.0214 49.4409 40.5242 49.4409 39.9109C49.4409 39.298 49.9379 38.8008 50.5511 38.8008C51.1643 38.8008 51.6612 39.2981 51.6612 39.9109Z" fill="#FF008A"/>
<path d="M55.658 44.5745C55.658 45.0649 55.2605 45.4626 54.77 45.4626C54.2796 45.4626 53.8818 45.0649 53.8818 44.5745C53.8818 44.084 54.2796 43.6865 54.77 43.6865C55.2605 43.6865 55.658 44.084 55.658 44.5745Z" fill="#FF008A"/>
<path d="M55.2141 39.688C55.2141 40.1784 54.8167 40.5759 54.3262 40.5759C53.8357 40.5759 53.438 40.1785 53.438 39.688C53.438 39.1975 53.8357 38.7998 54.3262 38.7998C54.8166 38.7998 55.2141 39.1976 55.2141 39.688Z" fill="#FF008A"/>
<defs>
<clipPath id="clip0_7169_259135">
<rect width="23" height="22" fill="white" transform="translate(62.6875 20)"/>
</clipPath>
</defs>
</svg>
