<svg width="86" height="87" viewBox="0 0 86 87" fill="none" xmlns="http://www.w3.org/2000/svg">
<path d="M72.8559 16.5154C71.684 11.9183 67.6889 8.94785 61.6809 9.81002C56.5036 10.5543 52.659 12.6634 46.898 9.43067C24.8896 -2.92215 18.1253 12.3619 18.5148 23.8687C19.0723 40.3879 13.9766 43.0198 9.03176 51.1661C5.57483 56.8595 3.29469 61.7983 4.76798 68.91C6.97339 79.5611 16.5812 84.147 25.6036 82.5318C30.0343 81.7396 34.7646 80.1893 37.6994 79.4469C45.5822 77.454 48.6689 77.9731 59.0375 78.4843C79.2446 79.1406 86.9362 64.1586 76.9712 51.4506C68.441 40.5725 67.7417 39.9204 70.914 29.8178C72.2468 25.5755 74.1966 21.7736 72.8559 16.5154Z" fill="#FF008A" fill-opacity="0.1"/>
<path d="M61.3963 7.83038L61.3968 7.83031C64.7878 7.34368 67.7895 7.91895 70.1574 9.42926C72.5274 10.9409 74.0963 13.2847 74.7939 16.0213C76.0694 21.0238 74.6787 25.0206 73.474 28.4828C73.2432 29.1461 73.0193 29.7897 72.8222 30.417C71.2089 35.5547 70.8291 37.6555 71.4681 39.7631C71.8009 40.8607 72.4517 42.0765 73.6222 43.7605C74.7223 45.343 76.194 47.2192 78.1443 49.7056C78.2757 49.8731 78.4092 50.0434 78.545 50.2165C83.9269 57.0798 84.7537 64.9091 81.0264 71.0205C77.3313 77.079 69.54 80.8265 58.9726 80.4832L58.9558 80.4827L58.939 80.4819C57.6105 80.4164 56.4062 80.3513 55.3005 80.2916C47.7111 79.8818 44.7677 79.7229 38.1899 81.3859C37.3843 81.5897 36.3775 81.8754 35.2423 82.1977C32.547 82.9628 29.1274 83.9335 25.956 84.5005C16.0769 86.2691 5.27545 81.2248 2.80956 69.3158C1.17871 61.4434 3.78908 55.9471 7.32208 50.1283L61.3963 7.83038ZM61.3963 7.83038C59.9817 8.03374 58.7502 8.29502 57.6247 8.53379M61.3963 7.83038L57.6247 8.53379M57.6247 8.53379C54.1225 9.27683 51.6469 9.80203 47.8769 7.6866M57.6247 8.53379L47.8769 7.6866M47.8769 7.6866C36.5417 1.32442 28.3351 1.67694 23.0158 6.17515C17.9434 10.4645 16.3122 17.9151 16.516 23.9362L47.8769 7.6866ZM14.0386 39.7814C15.6791 36.4137 16.7871 31.9722 16.516 23.9364L14.0386 39.7814ZM14.0386 39.7814C13.2016 41.4998 12.1967 42.9999 11.0437 44.6342M14.0386 39.7814L11.0437 44.6342M11.0437 44.6342C10.8539 44.9033 10.6595 45.1767 10.4614 45.4554M11.0437 44.6342L10.4614 45.4554M10.4614 45.4554C9.47218 46.8468 8.39042 48.3683 7.32221 50.1281L10.4614 45.4554Z" stroke="#FF008A" stroke-opacity="0.05" stroke-width="4"/>
<g clip-path="url(#clip0_7169_258998)">
<path d="M79.2549 29.54C75.8816 29.54 73.1216 32.2711 73.1216 35.609C73.1216 38.9469 75.8816 41.678 79.2549 41.678C82.6282 41.678 85.3882 38.9469 85.3882 35.609C85.3882 32.2711 82.6282 29.54 79.2549 29.54ZM81.5549 34.9262C81.4016 35.0021 81.2482 35.078 81.0949 35.078C80.8649 35.078 80.6349 34.9262 80.4816 34.7745C80.1749 34.3952 79.7149 34.0918 79.2549 34.0918C78.7949 34.0918 78.4882 33.7883 78.4882 33.3331C78.4882 32.878 78.7949 32.5745 79.2549 32.5745C80.2516 32.5745 81.1716 33.0297 81.7849 33.8642C82.0149 34.2435 81.9382 34.6987 81.5549 34.9262Z" fill="#FF008A" fill-opacity="0.1"/>
<path d="M69.2884 29.5393C67.1417 29.5393 65.4551 27.8704 65.4551 25.7462C65.4551 23.6221 67.1417 21.9531 69.2884 21.9531C71.4351 21.9531 73.1217 23.6221 73.1217 25.7462C73.1217 27.8704 71.4351 29.5393 69.2884 29.5393Z" fill="#FF008A" fill-opacity="0.1"/>
<path d="M66.6048 38.643C64.6881 38.643 63.1548 37.1258 63.1548 35.2292C63.1548 33.3327 64.6881 31.8154 66.6048 31.8154C68.5215 31.8154 70.0548 33.3327 70.0548 35.2292C70.0548 37.1258 68.5215 38.643 66.6048 38.643Z" fill="#FF008A" fill-opacity="0.1"/>
<path d="M76.9547 24.2296C76.4947 24.2296 76.188 23.9262 76.188 23.471V21.1951C76.188 20.74 76.4947 20.4365 76.9547 20.4365C77.4147 20.4365 77.7213 20.74 77.7213 21.1951V23.471C77.7213 23.9262 77.4147 24.2296 76.9547 24.2296Z" fill="#FF008A" fill-opacity="0.1"/>
<path d="M82.3215 27.2643H80.0215C79.5615 27.2643 79.2549 26.9609 79.2549 26.5057C79.2549 26.0505 79.5615 25.7471 80.0215 25.7471H82.3215C82.7815 25.7471 83.0882 26.0505 83.0882 26.5057C83.0882 26.9609 82.7815 27.2643 82.3215 27.2643Z" fill="#FF008A" fill-opacity="0.1"/>
<path d="M79.1016 25.1396C78.8716 25.1396 78.7183 25.0638 78.565 24.9121C78.2583 24.6086 78.2583 24.1534 78.565 23.85L80.175 22.2569C80.4816 21.9534 80.9416 21.9534 81.2483 22.2569C81.555 22.5603 81.555 23.0155 81.2483 23.319L79.6383 24.9121C79.485 25.0638 79.3316 25.1396 79.1016 25.1396Z" fill="#FF008A" fill-opacity="0.1"/>
</g>
<g clip-path="url(#clip1_7169_258998)">
<path fill-rule="evenodd" clip-rule="evenodd" d="M63.432 52.5003C62.7171 52.5003 62.1173 52.9999 61.9292 53.6795H60.8218C60.7339 52.5498 60.3174 51.4434 59.5714 50.5308L60.3549 49.716C60.5894 49.8511 60.8519 49.9208 61.1117 49.9208C61.513 49.9208 61.9132 49.7642 62.2191 49.4459C62.8294 48.8112 62.8294 47.7776 62.2191 47.143C61.6087 46.5083 60.6148 46.5083 60.0075 47.143C59.5031 47.6675 59.4181 48.4636 59.7477 49.0811L58.6749 50.1998C58.5047 50.3736 58.5047 50.6575 58.6749 50.8345C60.4223 52.6516 60.4223 55.6063 58.6749 57.4234C56.9274 59.2405 54.0859 59.2405 52.3385 57.4234C52.1713 57.2465 51.8983 57.2465 51.7281 57.4234L50.655 58.5393C50.0596 58.1963 49.2956 58.2878 48.7912 58.8095C48.1809 59.4441 48.1809 60.4777 48.7912 61.1124C49.0974 61.4304 49.4973 61.5873 49.8986 61.5873C50.2999 61.5873 50.7001 61.4304 51.0059 61.1124C51.5104 60.5878 51.5953 59.7917 51.2657 59.1743L52.0493 58.3595C52.9282 59.1355 53.9906 59.5715 55.0773 59.6598V60.8113C54.4236 61.0069 53.9432 61.6338 53.9432 62.374C53.9432 63.2711 54.6446 64.0003 55.5073 64.0003C56.3699 64.0003 57.0713 63.271 57.0713 62.374C57.0713 61.6306 56.5906 61.0069 55.9369 60.8113V59.6598C57.0233 59.5683 58.0873 59.1353 58.9649 58.3595L59.7454 59.1711C59.6186 59.4086 59.5485 59.6785 59.5485 59.9609C59.5485 60.394 59.7112 60.8036 60.0083 61.1124C60.3141 61.4305 60.714 61.5874 61.1156 61.5874C61.5172 61.5874 61.9171 61.4305 62.223 61.1124C62.8333 60.4778 62.8333 59.4442 62.223 58.8127C61.9276 58.5055 61.5349 58.3349 61.1156 58.3349C60.844 58.3349 60.5875 58.4063 60.3561 58.5397L59.5755 57.728C60.3218 56.8141 60.7411 55.7091 60.826 54.5794H61.9334C62.1214 55.2591 62.7243 55.7586 63.4361 55.7586C64.2989 55.7586 65.0002 55.0293 65.0002 54.1323C65.0002 53.2291 64.2972 52.4996 63.4331 52.4996L63.432 52.5003Z" fill="#FF008A"/>
<path fill-rule="evenodd" clip-rule="evenodd" d="M52.8225 52.4876C52.5083 52.8023 52.3335 53.2206 52.3335 53.6672C52.3335 54.1108 52.5066 54.5304 52.8225 54.8468C53.1478 55.1726 53.5732 55.3333 54.0003 55.3333C54.4274 55.3333 54.8528 55.1726 55.1781 54.8468C55.4923 54.5322 55.6668 54.1138 55.6668 53.6672C55.6668 53.2236 55.4938 52.804 55.1781 52.4876C54.5257 51.8375 53.4685 51.8375 52.8226 52.4876H52.8225Z" fill="#FF008A"/>
<path fill-rule="evenodd" clip-rule="evenodd" d="M58.0007 55.9997C58.2587 55.9997 58.514 55.8689 58.7076 55.6089C59.0975 55.0893 59.0975 54.2423 58.7076 53.7227C58.3178 53.2031 57.6824 53.2031 57.2926 53.7227C56.9025 54.2424 56.9025 55.0893 57.2926 55.6089C57.4888 55.8723 57.7454 55.9997 58.0007 55.9997Z" fill="#FF008A"/>
<path fill-rule="evenodd" clip-rule="evenodd" d="M31 48.5547L32.8877 46.667L42.3333 56.1127L40.4457 58.0003L31 48.5547Z" fill="#FF008A"/>
<path fill-rule="evenodd" clip-rule="evenodd" d="M32.3352 42.0003C34.2937 42.0003 36.1355 41.2039 37.5212 39.7545C40.3818 36.7652 40.3818 31.9022 37.5212 28.9128C36.1355 27.4648 34.2934 26.667 32.3352 26.667C30.3767 26.667 28.5349 27.4666 27.1492 28.9128C25.7635 30.3608 25 32.2857 25 34.332C25 36.3785 25.7652 38.3031 27.1492 39.7511C28.5305 41.2023 30.3723 42.0001 32.3352 42.0001V42.0003ZM35.4927 38.9221C35.4792 39.0577 35.4048 39.1793 35.2942 39.2524C34.386 39.8493 33.3628 40.1485 32.3352 40.1485C31.3613 40.1485 30.3872 39.8789 29.5087 39.338C29.3937 39.2663 29.3176 39.143 29.2983 39.0044C29.2818 38.8656 29.3281 38.7271 29.4207 38.6303L32.1278 35.8015C32.2069 35.7188 32.3189 35.669 32.4335 35.669C32.5485 35.669 32.6557 35.7156 32.7392 35.8015L35.3702 38.5508C35.4612 38.6505 35.5059 38.7861 35.4924 38.9218L35.4927 38.9221ZM36.8067 31.1649C36.9396 31.1821 37.0559 31.2616 37.1259 31.3846C38.1907 33.2658 38.1579 35.5805 37.0438 37.4305C36.9751 37.5475 36.8574 37.6221 36.7276 37.6379C36.7111 37.6411 36.6962 37.6411 36.6799 37.6411C36.5652 37.6411 36.4577 37.5944 36.3742 37.5086L33.7432 34.7593C33.6641 34.6766 33.6164 34.5597 33.6164 34.4398C33.6164 34.3197 33.661 34.2077 33.7432 34.1204L36.4503 31.2916C36.5412 31.1948 36.6741 31.1482 36.8067 31.1652L36.8067 31.1649ZM29.173 29.748C29.1865 29.6123 29.2609 29.4908 29.3714 29.4176C31.2268 28.194 33.6029 28.23 35.4254 29.5063C35.5313 29.5812 35.6029 29.7028 35.6134 29.8367C35.6269 29.9692 35.582 30.1031 35.488 30.1999L32.7362 33.0754C32.6513 33.1644 32.5425 33.2079 32.4305 33.2079C32.3186 33.2079 32.2098 33.1644 32.1249 33.0754L29.2923 30.1155C29.2044 30.0187 29.1594 29.8833 29.1729 29.7477L29.173 29.748ZM27.6263 31.2426C27.6949 31.1257 27.8129 31.0511 27.9425 31.0353C28.0723 31.0211 28.2021 31.0681 28.2958 31.1663L31.1284 34.1262C31.2954 34.3008 31.2954 34.5859 31.1284 34.7636L28.3766 37.6391C28.2948 37.725 28.1856 37.7716 28.071 37.7716C28.0574 37.7716 28.0412 37.7716 28.0293 37.7685C27.9025 37.7543 27.7848 37.6826 27.7132 37.572C26.4901 35.6629 26.456 33.1814 27.6266 31.2427L27.6263 31.2426Z" fill="#FF008A"/>
<path fill-rule="evenodd" clip-rule="evenodd" d="M45.0002 25.3333C45.0002 26.0697 44.4032 26.6667 43.6668 26.6667C42.9305 26.6667 42.3335 26.0697 42.3335 25.3333C42.3335 24.597 42.9305 24 43.6668 24C44.4032 24 45.0002 24.597 45.0002 25.3333Z" fill="#FF008A"/>
<path fill-rule="evenodd" clip-rule="evenodd" d="M64.3332 41.3333C64.3332 42.0697 63.7362 42.6667 62.9998 42.6667C62.2635 42.6667 61.6665 42.0697 61.6665 41.3333C61.6665 40.597 62.2635 40 62.9998 40C63.7362 40 64.3332 40.597 64.3332 41.3333Z" fill="#FF008A"/>
<path fill-rule="evenodd" clip-rule="evenodd" d="M58.6602 37.1498C58.4138 36.8823 58.0777 36.7318 57.7161 36.7227C57.3559 36.7168 57.015 36.8534 56.7582 37.1129L52.4022 41.5156C52.2319 41.6877 51.9537 41.6877 51.7803 41.5156C51.6935 41.4278 51.6511 41.3159 51.6511 41.2006C51.6511 41.0853 51.6935 40.9732 51.7803 40.8857L58.5933 33.9999C59.1072 33.4805 59.1345 32.6384 58.6557 32.119C58.4093 31.8515 58.0732 31.701 57.7116 31.6919C57.3514 31.686 57.0106 31.8226 56.7538 32.0821L51.1555 37.7403C50.9852 37.9124 50.707 37.9124 50.5337 37.7403C50.4469 37.6525 50.4044 37.5406 50.4044 37.4253C50.4044 37.31 50.4469 37.1978 50.5337 37.1101L57.3756 30.1951C57.6293 29.9386 57.7678 29.5941 57.7616 29.227C57.7555 28.8629 57.6049 28.5247 57.3391 28.2728C56.8251 27.7889 55.992 27.8195 55.4781 28.3358L54.2634 29.5638L48.6651 35.2216C48.4949 35.3937 48.2167 35.3937 48.0433 35.2216C47.9568 35.1342 47.9141 35.022 47.9141 34.9067C47.9141 34.7914 47.9568 34.6792 48.0433 34.5918L53.6416 28.9336C53.8953 28.6772 54.0338 28.3327 54.0277 27.9656C54.0215 27.6015 53.8712 27.2633 53.6051 27.0114C53.0912 26.5275 52.258 26.5581 51.7441 27.0744L42.1305 36.7908C41.9571 36.9629 41.6821 36.9629 41.5087 36.7908C41.4219 36.7031 41.3794 36.5912 41.3794 36.4759C41.3794 36.3606 41.4219 36.2484 41.5087 36.1609L45.2427 32.3868C45.4922 32.1346 45.6287 31.7981 45.6287 31.4431C45.6287 31.0882 45.4905 30.7516 45.2427 30.4997C44.7287 29.9803 43.8895 29.9803 43.3755 30.4997L40.4881 33.418C40.7315 35.8566 39.9301 38.3814 38.0889 40.2453C36.9928 41.3531 35.6457 42.1153 34.1798 42.4765L33 45.7881L42.4446 55.3337L58.5882 39.0175C59.1097 38.5117 59.1386 37.6666 58.6595 37.1503L58.6602 37.1498Z" fill="#FF008A"/>
<path fill-rule="evenodd" clip-rule="evenodd" d="M31.6668 57.3337C31.6668 58.8064 30.4729 60.0003 29.0002 60.0003C27.5274 60.0003 26.3335 58.8064 26.3335 57.3337C26.3335 55.8609 27.5274 54.667 29.0002 54.667C30.4729 54.667 31.6668 55.8609 31.6668 57.3337Z" fill="#FF008A"/>
</g>
<defs>
<clipPath id="clip0_7169_258998">
<rect width="23" height="22" fill="white" transform="translate(62.6875 20)"/>
</clipPath>
<clipPath id="clip1_7169_258998">
<rect width="40" height="40" fill="white" transform="translate(25 24)"/>
</clipPath>
</defs>
</svg>
