<svg width="82" height="79" viewBox="0 0 82 79" fill="none" xmlns="http://www.w3.org/2000/svg">
<path d="M69.0053 12.5154C67.8334 7.91827 63.8383 4.94785 57.8303 5.81002C52.653 6.55433 48.8084 8.66336 43.0474 5.43067C21.039 -6.92215 14.2747 8.36185 14.6643 19.8687C15.2217 36.3879 10.126 39.0198 5.18117 47.1661C1.72425 52.8595 -0.555894 57.7983 0.917396 64.91C3.12281 75.5611 12.7306 80.147 21.753 78.5318C26.1837 77.7396 30.914 76.1893 33.8489 75.4469C41.7316 73.454 44.8183 73.9731 55.1869 74.4843C75.394 75.1406 83.0856 60.1586 73.1206 47.4506C64.5904 36.5725 63.8911 35.9204 67.0635 25.8178C68.3962 21.5755 70.3461 17.7736 69.0053 12.5154Z" fill="#FF008A" fill-opacity="0.1"/>
<path d="M75.4043 25.5403C72.031 25.5403 69.271 28.2713 69.271 31.6093C69.271 34.9472 72.031 37.6782 75.4043 37.6782C78.7776 37.6782 81.5376 34.9472 81.5376 31.6093C81.5376 28.2713 78.7776 25.5403 75.4043 25.5403ZM77.7043 30.9265C77.5509 31.0024 77.3976 31.0782 77.2443 31.0782C77.0143 31.0782 76.7843 30.9265 76.631 30.7748C76.3243 30.3955 75.8643 30.092 75.4043 30.092C74.9443 30.092 74.6376 29.7886 74.6376 29.3334C74.6376 28.8782 74.9443 28.5748 75.4043 28.5748C76.401 28.5748 77.321 29.0299 77.9343 29.8644C78.1643 30.2437 78.0876 30.6989 77.7043 30.9265Z" fill="#FF008A" fill-opacity="0.1"/>
<path d="M65.4376 25.5403C63.291 25.5403 61.6043 23.8713 61.6043 21.7472C61.6043 19.6231 63.291 17.9541 65.4376 17.9541C67.5843 17.9541 69.271 19.6231 69.271 21.7472C69.271 23.8713 67.5843 25.5403 65.4376 25.5403Z" fill="#FF008A" fill-opacity="0.1"/>
<path d="M62.7543 34.6437C60.8376 34.6437 59.3043 33.1265 59.3043 31.2299C59.3043 29.3334 60.8376 27.8162 62.7543 27.8162C64.671 27.8162 66.2043 29.3334 66.2043 31.2299C66.2043 33.1265 64.671 34.6437 62.7543 34.6437Z" fill="#FF008A" fill-opacity="0.1"/>
<path d="M73.1043 20.2299C72.6443 20.2299 72.3376 19.9265 72.3376 19.4713V17.1955C72.3376 16.7403 72.6443 16.4368 73.1043 16.4368C73.5643 16.4368 73.871 16.7403 73.871 17.1955V19.4713C73.871 19.9265 73.5643 20.2299 73.1043 20.2299Z" fill="#FF008A" fill-opacity="0.1"/>
<path d="M78.471 23.2644H76.171C75.711 23.2644 75.4043 22.961 75.4043 22.5058C75.4043 22.0506 75.711 21.7472 76.171 21.7472H78.471C78.931 21.7472 79.2376 22.0506 79.2376 22.5058C79.2376 22.961 78.931 23.2644 78.471 23.2644Z" fill="#FF008A" fill-opacity="0.1"/>
<path d="M75.251 21.1403C75.021 21.1403 74.8676 21.0644 74.7143 20.9127C74.4076 20.6093 74.4076 20.1541 74.7143 19.8506L76.3243 18.2575C76.631 17.9541 77.091 17.9541 77.3976 18.2575C77.7043 18.561 77.7043 19.0162 77.3976 19.3196L75.7876 20.9127C75.6343 21.0644 75.481 21.1403 75.251 21.1403Z" fill="#FF008A" fill-opacity="0.1"/>
<g clip-path="url(#clip0_7169_259025)">
<path d="M61.4619 40.3772C61.4619 40.8285 61.2827 41.2613 60.9632 41.5808C60.6441 41.9 60.2113 42.0792 59.7599 42.0792H23.1638C22.5559 42.0792 21.9939 41.7546 21.6897 41.228C21.386 40.7015 21.386 40.0526 21.6897 39.526C21.9938 38.9994 22.5559 38.6748 23.1638 38.6748H59.7599C60.2112 38.6748 60.644 38.8541 60.9632 39.1735C61.2827 39.4927 61.4619 39.9255 61.4619 40.3772V40.3772Z" fill="#FF008A"/>
<path d="M27.1188 41.6616V58.3157C27.1188 58.6566 26.9837 58.9835 26.7426 59.2245C26.5016 59.4652 26.1748 59.6006 25.8338 59.6006H25.1082C24.7672 59.6006 24.4404 59.4652 24.1994 59.2245C23.9586 58.9835 23.8232 58.6567 23.8232 58.3157V41.6616C23.8232 41.4311 24.0099 41.2441 24.2403 41.2441H26.7016C26.8124 41.2441 26.9183 41.2883 26.9968 41.3664C27.0749 41.4448 27.1187 41.5508 27.1187 41.6616H27.1188Z" fill="#FF008A"/>
<path d="M58.0037 59.6006H45.0208C44.6798 59.6006 44.353 59.4652 44.1123 59.2245C43.8712 58.9835 43.7358 58.6567 43.7358 58.3157V41.6616C43.7358 41.4311 43.9225 41.2441 44.1529 41.2441H58.8715C58.9819 41.2441 59.0882 41.2883 59.1663 41.3664C59.2448 41.4448 59.2886 41.5508 59.2886 41.6616V58.3157C59.2886 58.6566 59.1532 58.9835 58.9122 59.2245C58.6711 59.4652 58.3443 59.6006 58.0037 59.6006H58.0037ZM44.57 42.0787L44.5697 58.3157C44.5697 58.5648 44.7717 58.7664 45.0204 58.7664H58.0034C58.2521 58.7664 58.4537 58.5648 58.4537 58.3157V42.0787H44.57Z" fill="#FF008A"/>
<path d="M50.3402 25.8217C50.4407 25.7423 50.4993 25.6206 50.4986 25.4923V25.1542C50.3943 25.1542 50.2899 25.1126 50.1859 25.0873L50.1856 25.0877C50.0095 25.0445 49.8367 24.9888 49.6683 24.9206L49.3888 24.8037C49.3136 24.7704 49.2387 24.7285 49.1635 24.6869L49.0719 24.612L48.8507 24.466L48.521 24.2074L48.3248 24.024L48.3251 24.0236C48.2467 23.9449 48.1401 23.9004 48.029 23.9004C47.9176 23.9004 47.811 23.9449 47.7326 24.0236C47.5674 24.183 47.5617 24.4458 47.7201 24.612C48.4669 25.3562 48.8865 26.3675 48.8865 27.4216C48.8865 28.476 48.4669 29.4872 47.7201 30.2314C47.6414 30.3128 47.5994 30.4229 47.6033 30.5359C47.6062 30.6492 47.6522 30.7567 47.7326 30.8364C47.8955 30.9981 48.158 30.9981 48.3209 30.8364C48.392 30.7654 48.4628 30.6988 48.538 30.6361C48.6132 30.5736 48.6507 30.54 48.7131 30.4901C48.8674 30.372 49.0306 30.266 49.2012 30.1732L49.4099 30.0647C49.4893 30.0231 49.5726 29.9895 49.6519 29.9562H49.6516C49.819 29.8899 49.9906 29.8342 50.1648 29.7894C50.2733 29.7644 50.3776 29.7436 50.4861 29.727V29.3844C50.49 29.2542 50.4324 29.1293 50.3309 29.0477C50.2294 28.9657 50.0953 28.936 49.9689 28.9673C49.7771 29.0144 49.5892 29.0746 49.4055 29.1466C49.8258 28.0365 49.8258 26.8111 49.4055 25.7006C49.5876 25.7723 49.7742 25.8309 49.9647 25.8761C50.0911 25.9193 50.2307 25.8991 50.3402 25.8216L50.3402 25.8217Z" fill="#FF008A"/>
<path d="M50.3402 25.8217C50.4407 25.7423 50.4993 25.6206 50.4986 25.4923V25.1542C50.3943 25.1542 50.2899 25.1126 50.1859 25.0873L50.1856 25.0877C50.0095 25.0445 49.8367 24.9888 49.6683 24.9206L49.3888 24.8037C49.3114 24.7701 49.2361 24.7311 49.1635 24.6869L49.0719 24.612L48.8507 24.466L48.521 24.2074L48.3248 24.024L48.3251 24.0236C48.2467 23.9449 48.1401 23.9004 48.029 23.9004C47.9176 23.9004 47.811 23.9449 47.7326 24.0236C47.5674 24.183 47.5617 24.4458 47.7201 24.612C48.4669 25.3562 48.8865 26.3675 48.8865 27.4216C48.8865 28.476 48.4669 29.4872 47.7201 30.2314C47.6414 30.3128 47.5994 30.4229 47.6033 30.5359C47.6062 30.6492 47.6522 30.7567 47.7326 30.8364C47.8955 30.9981 48.158 30.9981 48.3209 30.8364C48.392 30.7654 48.4628 30.6988 48.538 30.6361L48.7131 30.4901C48.8674 30.372 49.0306 30.266 49.2012 30.1732C49.2685 30.1329 49.3382 30.0967 49.4096 30.0647C49.4884 30.024 49.569 29.9879 49.6516 29.9562C49.819 29.8899 49.9906 29.8342 50.1648 29.7894C50.2733 29.7644 50.3776 29.7436 50.4861 29.727V29.3844C50.49 29.2542 50.4324 29.1293 50.3309 29.0477C50.2294 28.9657 50.0953 28.936 49.9689 28.9673C49.7771 29.0144 49.5892 29.0746 49.4055 29.1466C49.8258 28.0365 49.8258 26.8111 49.4055 25.7006C49.5876 25.7723 49.7742 25.8309 49.9647 25.8761C50.0911 25.9193 50.2307 25.8991 50.3402 25.8216L50.3402 25.8217Z" fill="#FF008A"/>
<path d="M49.6641 24.0023V23.2014H32.8305V33.9398H49.6641V30.8693C49.8859 30.748 50.1231 30.6568 50.3693 30.5982C50.5338 30.5585 50.7012 30.5319 50.8699 30.5188H51.1535C51.3453 30.5182 51.5364 30.5348 51.7253 30.5691C51.9471 30.6088 52.1638 30.6731 52.3719 30.7608V35.3499C52.3719 35.6879 52.2377 36.0118 51.9993 36.2513C51.7608 36.4904 51.4372 36.6255 51.0995 36.6265H31.4002C31.0615 36.6265 30.7369 36.492 30.4974 36.2526C30.258 36.0131 30.1235 35.6885 30.1235 35.3498V21.7662C30.1303 21.432 30.2676 21.1135 30.5061 20.8796C30.7449 20.6456 31.0659 20.5146 31.4001 20.5146H51.0994C51.433 20.5156 51.7528 20.6472 51.9906 20.8812C52.2285 21.1149 52.3651 21.4327 52.3719 21.7663V24.1107C52.1619 24.2026 51.942 24.2698 51.7166 24.3111C51.6123 24.3111 51.4954 24.3444 51.2995 24.3569H51.0533C50.8222 24.3556 50.5924 24.3245 50.3693 24.265C50.1244 24.2064 49.8878 24.1181 49.6641 24.0022L49.6641 24.0023Z" fill="#FF008A"/>
<path d="M44.9832 39.5086H37.5154C37.382 39.5083 37.2565 39.4443 37.178 39.3364C37.0996 39.2282 37.0778 39.0889 37.1191 38.9618L38.0535 36.0959C38.1118 35.9166 38.2827 35.7988 38.4709 35.8081H44.0443C44.2326 35.7988 44.4035 35.9166 44.4618 36.0959L45.4003 38.9618C45.4429 39.0925 45.4189 39.2359 45.3353 39.345C45.2521 39.4542 45.1202 39.5153 44.9832 39.5086H44.9832ZM38.0913 38.674H44.4073L43.744 36.6423H38.7379L38.0913 38.674Z" fill="#FF008A"/>
<path d="M48.5545 23.2011H47.4946C47.6617 23.1217 47.8439 23.0804 48.0289 23.0801C48.2107 23.0807 48.3903 23.122 48.5545 23.2011H48.5545Z" fill="#FF008A"/>
<path d="M54.5489 30.8693C54.3882 31.0204 54.1379 31.0204 53.9772 30.8693C53.4109 30.2976 52.683 29.9131 51.8914 29.7678C51.5386 29.7073 51.1801 29.6904 50.8232 29.7179C50.6097 29.7349 50.3978 29.7685 50.1891 29.8181C49.4909 29.9932 48.8536 30.3552 48.3453 30.8651C48.2672 30.9449 48.1606 30.99 48.0492 30.9903C47.9403 30.9909 47.8353 30.949 47.7569 30.8735C47.6769 30.7938 47.6305 30.6862 47.6276 30.5732C47.6237 30.4599 47.666 30.3501 47.7444 30.2685C48.4996 29.5194 48.9221 28.4982 48.9173 27.4349C48.9128 26.3712 48.481 25.3538 47.7194 24.6115C47.6404 24.5331 47.5962 24.4265 47.5962 24.3154C47.5962 24.204 47.6404 24.0974 47.7194 24.019C47.7979 23.9403 47.9045 23.8958 48.0155 23.8958C48.1269 23.8958 48.2335 23.9403 48.312 24.019C48.8228 24.5331 49.465 24.8968 50.1682 25.0706C50.5626 25.1746 50.972 25.2085 51.3783 25.1704C52.3453 25.1141 53.2576 24.7028 53.9398 24.0148C54.1021 23.8557 54.3617 23.8557 54.5236 24.0148C54.6075 24.0926 54.6559 24.2011 54.6575 24.3154C54.6603 24.429 54.6165 24.5392 54.5364 24.6198C53.7896 25.3641 53.37 26.3753 53.37 27.4297C53.37 28.4838 53.7897 29.495 54.5364 30.2393C54.6293 30.3168 54.6837 30.4307 54.6863 30.5514C54.6885 30.6724 54.6386 30.7883 54.5489 30.8693L54.5489 30.8693Z" fill="#FF008A"/>
<path d="M41.2784 31.7033C41.1996 31.7814 41.093 31.8246 40.982 31.824C40.8712 31.8246 40.7646 31.7814 40.6859 31.7033C40.1657 31.1847 39.4442 30.9209 38.7124 30.9814C38.1285 31.0301 37.5808 31.2862 37.1689 31.7033C37.0907 31.782 36.9841 31.8265 36.8728 31.8265C36.7614 31.8265 36.6548 31.782 36.5766 31.7033C36.4963 31.6245 36.4512 31.517 36.4512 31.4049C36.4512 31.2926 36.4963 31.185 36.5766 31.1066C37.0402 30.638 37.3004 30.0054 37.3004 29.3461C37.3004 28.687 37.0402 28.0541 36.5766 27.5855C36.4147 27.4229 36.4147 27.1601 36.5766 26.9975C36.7393 26.8355 37.0021 26.8355 37.1647 26.9975C37.6317 27.4667 38.2675 27.7295 38.9294 27.7273H39.0796C39.6868 27.6892 40.2592 27.4312 40.69 27.0016C40.8523 26.8425 41.1119 26.8425 41.2742 27.0016C41.3561 27.0797 41.4029 27.1882 41.4035 27.3019C41.4051 27.4142 41.3616 27.5224 41.2825 27.6021C40.8174 28.0711 40.5565 28.7046 40.5565 29.365C40.5565 30.0251 40.8174 30.6585 41.2825 31.1275C41.4349 31.2898 41.4329 31.5433 41.2783 31.7034L41.2784 31.7033Z" fill="#FF008A"/>
<path d="M57.2022 42.9131H45.8214C45.5909 42.9131 45.4043 43.1 45.4043 43.3305V48.0531C45.4043 48.1635 45.4482 48.2698 45.5266 48.3479C45.6047 48.4263 45.711 48.4702 45.8214 48.4702H57.2022C57.313 48.4702 57.4193 48.4263 57.4974 48.3479C57.5755 48.2698 57.6197 48.1635 57.6197 48.0531V43.3305C57.6197 43.2198 57.5755 43.1138 57.4974 43.0354C57.4193 42.9573 57.313 42.9131 57.2022 42.9131H57.2022ZM52.4547 46.109H50.5648C50.3347 46.109 50.1477 45.9221 50.1477 45.6916C50.1477 45.4615 50.3347 45.2745 50.5648 45.2745H52.4547C52.6852 45.2745 52.8721 45.4615 52.8721 45.6916C52.8721 45.9221 52.6852 46.109 52.4547 46.109Z" fill="#FF008A"/>
<path d="M57.2022 49.2461H45.8214C45.5909 49.2461 45.4043 49.433 45.4043 49.6632V57.373C45.4043 57.4837 45.4482 57.5897 45.5266 57.6678C45.6047 57.7462 45.711 57.7901 45.8214 57.7901H57.2022C57.313 57.7901 57.4193 57.7462 57.4974 57.6678C57.5755 57.5897 57.6197 57.4837 57.6197 57.373V49.6632C57.6197 49.5528 57.5755 49.4465 57.4974 49.3684C57.4193 49.2899 57.313 49.2461 57.2022 49.2461L57.2022 49.2461ZM55.9507 54.8447H55.951C55.951 55.0752 55.764 55.2618 55.5336 55.2618C55.3034 55.2618 55.1165 55.0752 55.1165 54.8447V52.2541C55.1165 52.0237 55.3034 51.8367 55.5336 51.8367C55.764 51.8367 55.951 52.0237 55.951 52.2541L55.9507 54.8447Z" fill="#FF008A"/>
</g>
<defs>
<clipPath id="clip0_7169_259025">
<rect width="40" height="40" fill="white" transform="translate(21.4619 19.8477)"/>
</clipPath>
</defs>
</svg>
