<svg width="86" height="87" viewBox="0 0 86 87" fill="none" xmlns="http://www.w3.org/2000/svg">
<path d="M72.8559 16.5154C71.684 11.9183 67.6889 8.94785 61.6809 9.81002C56.5036 10.5543 52.659 12.6634 46.898 9.43067C24.8896 -2.92215 18.1253 12.3619 18.5148 23.8687C19.0723 40.3879 13.9766 43.0198 9.03176 51.1661C5.57483 56.8595 3.29469 61.7983 4.76798 68.91C6.97339 79.5611 16.5812 84.147 25.6036 82.5318C30.0343 81.7396 34.7646 80.1893 37.6994 79.4469C45.5822 77.454 48.6689 77.9731 59.0375 78.4843C79.2446 79.1406 86.9362 64.1586 76.9712 51.4506C68.441 40.5725 67.7417 39.9204 70.914 29.8178C72.2468 25.5755 74.1966 21.7736 72.8559 16.5154Z" fill="#FF008A" fill-opacity="0.1"/>
<path d="M61.3963 7.83038L61.3968 7.83031C64.7878 7.34368 67.7895 7.91895 70.1574 9.42926C72.5274 10.9409 74.0963 13.2847 74.7939 16.0213C76.0694 21.0238 74.6787 25.0206 73.474 28.4828C73.2432 29.1461 73.0193 29.7897 72.8222 30.417C71.2089 35.5547 70.8291 37.6555 71.4681 39.7631C71.8009 40.8607 72.4517 42.0765 73.6222 43.7605C74.7223 45.343 76.194 47.2192 78.1443 49.7056C78.2757 49.8731 78.4092 50.0434 78.545 50.2165C83.9269 57.0798 84.7537 64.9091 81.0264 71.0205C77.3313 77.079 69.54 80.8265 58.9726 80.4832L58.9558 80.4827L58.939 80.4819C57.6105 80.4164 56.4062 80.3513 55.3005 80.2916C47.7111 79.8818 44.7677 79.7229 38.1899 81.3859C37.3843 81.5897 36.3775 81.8754 35.2423 82.1977C32.547 82.9628 29.1274 83.9335 25.956 84.5005C16.0769 86.2691 5.27545 81.2248 2.80956 69.3158C1.17871 61.4434 3.78908 55.9471 7.32208 50.1283L61.3963 7.83038ZM61.3963 7.83038C59.9817 8.03374 58.7502 8.29502 57.6247 8.53379M61.3963 7.83038L57.6247 8.53379M57.6247 8.53379C54.1225 9.27683 51.6469 9.80203 47.8769 7.6866M57.6247 8.53379L47.8769 7.6866M47.8769 7.6866C36.5417 1.32442 28.3351 1.67694 23.0158 6.17515C17.9434 10.4645 16.3122 17.9151 16.516 23.9362L47.8769 7.6866ZM14.0386 39.7814C15.6791 36.4137 16.7871 31.9722 16.516 23.9364L14.0386 39.7814ZM14.0386 39.7814C13.2016 41.4998 12.1967 42.9999 11.0437 44.6342M14.0386 39.7814L11.0437 44.6342M11.0437 44.6342C10.8539 44.9033 10.6595 45.1767 10.4614 45.4554M11.0437 44.6342L10.4614 45.4554M10.4614 45.4554C9.47218 46.8468 8.39042 48.3683 7.32221 50.1281L10.4614 45.4554Z" stroke="#FF008A" stroke-opacity="0.05" stroke-width="4"/>
<g clip-path="url(#clip0_7169_259075)">
<path d="M79.2549 29.54C75.8816 29.54 73.1216 32.2711 73.1216 35.609C73.1216 38.9469 75.8816 41.678 79.2549 41.678C82.6282 41.678 85.3882 38.9469 85.3882 35.609C85.3882 32.2711 82.6282 29.54 79.2549 29.54ZM81.5549 34.9262C81.4016 35.0021 81.2482 35.078 81.0949 35.078C80.8649 35.078 80.6349 34.9262 80.4816 34.7745C80.1749 34.3952 79.7149 34.0918 79.2549 34.0918C78.7949 34.0918 78.4882 33.7883 78.4882 33.3331C78.4882 32.878 78.7949 32.5745 79.2549 32.5745C80.2516 32.5745 81.1716 33.0297 81.7849 33.8642C82.0149 34.2435 81.9382 34.6987 81.5549 34.9262Z" fill="#FF008A" fill-opacity="0.1"/>
<path d="M69.2884 29.5393C67.1417 29.5393 65.4551 27.8704 65.4551 25.7462C65.4551 23.6221 67.1417 21.9531 69.2884 21.9531C71.4351 21.9531 73.1217 23.6221 73.1217 25.7462C73.1217 27.8704 71.4351 29.5393 69.2884 29.5393Z" fill="#FF008A" fill-opacity="0.1"/>
<path d="M66.6048 38.643C64.6881 38.643 63.1548 37.1258 63.1548 35.2292C63.1548 33.3327 64.6881 31.8154 66.6048 31.8154C68.5215 31.8154 70.0548 33.3327 70.0548 35.2292C70.0548 37.1258 68.5215 38.643 66.6048 38.643Z" fill="#FF008A" fill-opacity="0.1"/>
<path d="M76.9547 24.2296C76.4947 24.2296 76.188 23.9262 76.188 23.471V21.1951C76.188 20.74 76.4947 20.4365 76.9547 20.4365C77.4147 20.4365 77.7213 20.74 77.7213 21.1951V23.471C77.7213 23.9262 77.4147 24.2296 76.9547 24.2296Z" fill="#FF008A" fill-opacity="0.1"/>
<path d="M82.3215 27.2643H80.0215C79.5615 27.2643 79.2549 26.9609 79.2549 26.5057C79.2549 26.0505 79.5615 25.7471 80.0215 25.7471H82.3215C82.7815 25.7471 83.0882 26.0505 83.0882 26.5057C83.0882 26.9609 82.7815 27.2643 82.3215 27.2643Z" fill="#FF008A" fill-opacity="0.1"/>
<path d="M79.1016 25.1396C78.8716 25.1396 78.7183 25.0638 78.565 24.9121C78.2583 24.6086 78.2583 24.1534 78.565 23.85L80.175 22.2569C80.4816 21.9534 80.9416 21.9534 81.2483 22.2569C81.555 22.5603 81.555 23.0155 81.2483 23.319L79.6383 24.9121C79.485 25.0638 79.3316 25.1396 79.1016 25.1396Z" fill="#FF008A" fill-opacity="0.1"/>
</g>
<path d="M37.1828 37.855L37.0977 37.9826C36.5399 38.8222 36.1282 39.7501 35.8799 40.7271H44.0614C43.8146 39.7491 43.4023 38.8209 42.8419 37.9826L42.7568 37.8546V37.855C42.024 36.7579 41.5773 35.4952 41.4575 34.1816H38.4821C38.3623 35.4953 37.9156 36.7582 37.1828 37.855L37.1828 37.855Z" fill="#FF008A"/>
<path d="M38.5151 30.5459H41.4242V32.7277H38.5151V30.5459Z" fill="#FF008A"/>
<path d="M37.0192 30.5459H36.1591C35.761 31.8586 35.1322 33.09 34.3022 34.1822H35.3029C36.2604 33.1923 36.8636 31.9141 37.0191 30.5459H37.0192Z" fill="#FF008A"/>
<path d="M48.6968 34.9092H57.424V42.1819H48.6968V34.9092Z" fill="#FF008A"/>
<path d="M54.8459 58.2109C55.1501 57.9632 55.3417 57.6028 55.3764 57.2119C55.4112 56.8207 55.2862 56.4324 55.03 56.135L47.2421 47.0869V47.5924C47.2431 48.2541 46.9921 48.8915 46.5402 49.3752C46.3379 49.5927 46.0992 49.7732 45.835 49.9086L52.8265 58.0313H52.8268C53.0726 58.3196 53.4219 58.5002 53.7995 58.5339C54.1771 58.5674 54.5527 58.4511 54.8459 58.2106V58.2109Z" fill="#FF008A"/>
<path d="M56.1722 30.5451H55.2421C54.8405 30.5451 54.5148 30.2194 54.5148 29.8178V28.3633H51.6057V29.8178C51.6057 30.0107 51.5291 30.1957 51.3928 30.3321C51.2564 30.4685 51.0713 30.5451 50.8785 30.5451H49.9483L48.9785 33.4542H57.1421L56.1722 30.5451Z" fill="#FF008A"/>
<path d="M50.8789 24H55.2425V26.9091H50.8789V24Z" fill="#FF008A"/>
<path d="M32.6973 26.9092H33.4245V28.3637H32.6973V26.9092Z" fill="#FF008A"/>
<path d="M42.8788 28.5591C42.8781 28.1218 42.7044 27.7023 42.395 27.3929C42.0856 27.0835 41.6661 26.9098 41.2288 26.9092H34.8789V29.091H42.8788L42.8788 28.5591Z" fill="#FF008A"/>
<path d="M47.2427 43.6357V44.8585C47.2466 44.8627 47.2505 44.8663 47.2544 44.8705L48.6956 46.5449H61.7881V43.6358L47.2427 43.6357Z" fill="#FF008A"/>
<path d="M45.0605 57.4541H37.7878C37.7875 57.8846 37.6596 58.3054 37.4209 58.6639C37.182 59.022 36.8427 59.3018 36.4453 59.4678C36.556 59.7327 36.7424 59.959 36.9813 60.1184C37.22 60.2778 37.5008 60.3629 37.7878 60.3632H45.0605C45.5803 60.3632 46.0605 60.0859 46.3202 59.6359C46.58 59.1859 46.58 58.6314 46.3202 58.1814C46.0605 57.7314 45.5803 57.4541 45.0605 57.4541L45.0605 57.4541Z" fill="#FF008A"/>
<path d="M33.7475 47.9991C34.0436 48.0102 34.3316 47.9001 34.5449 47.6946C34.7585 47.4887 34.879 47.2053 34.879 46.9089V45.0907C34.879 44.6891 35.2046 44.3634 35.6063 44.3634C36.0079 44.3634 36.3335 44.6891 36.3335 45.0907V47.5927C36.3335 48.1972 36.8046 48.706 37.3839 48.7265C37.68 48.7375 37.9679 48.6274 38.1813 48.4219C38.3949 48.2161 38.5153 47.9326 38.5153 47.6362V45.0908C38.5153 44.6891 38.841 44.3635 39.2426 44.3635C39.6442 44.3635 39.9699 44.6891 39.9699 45.0908V47.6362C39.9699 48.2388 40.4582 48.7271 41.0608 48.7271C41.6634 48.7271 42.1517 48.2388 42.1517 47.6362V45.0908C42.1517 44.6891 42.4773 44.3635 42.879 44.3635C43.2806 44.3635 43.6062 44.6891 43.6062 45.0908V47.6362C43.6062 47.9326 43.7267 48.2161 43.9403 48.4219C44.1536 48.6274 44.4416 48.7375 44.7377 48.7265C45.3169 48.7057 45.788 48.1972 45.788 47.5927V43.6362C45.7877 43.2505 45.6341 42.881 45.3614 42.6083C45.0887 42.3355 44.7192 42.182 44.3335 42.1816H34.1518C33.7661 42.182 33.3966 42.3355 33.1239 42.6083C32.8512 42.881 32.6976 43.2505 32.6973 43.6362V46.8654C32.6973 47.4699 33.1684 47.9784 33.7476 47.9992L33.7475 47.9991Z" fill="#FF008A"/>
<path d="M56.1328 55.1859C56.639 55.77 56.8916 56.5316 56.8354 57.3024C56.7789 58.0735 56.4179 58.79 55.8322 59.2946C55.2462 59.7989 54.4838 60.0492 53.7131 59.9901C52.9423 59.9313 52.227 59.568 51.7244 58.9804L44.0888 50.1094C43.6521 50.0026 43.2518 49.7812 42.9294 49.4682C42.9119 49.4513 42.8947 49.4344 42.8778 49.4169C42.3999 49.9062 41.7446 50.1818 41.0606 50.1818C40.3766 50.1818 39.7213 49.9062 39.2431 49.4169C39.2262 49.4341 39.209 49.4513 39.1915 49.4682H39.1918C38.7041 49.9415 38.0464 50.1987 37.3668 50.1812C36.6873 50.1639 36.0434 49.8734 35.5808 49.3756C35.4659 49.2526 35.3633 49.1188 35.274 48.9763C34.7746 49.3373 34.1604 49.5029 33.5471 49.4425C32.9341 49.3821 32.364 49.0997 31.9445 48.6484C31.765 48.4558 31.6156 48.2373 31.5013 48H29.8511L31.0455 62.3326C31.0858 62.7861 31.2939 63.2085 31.629 63.5166C31.964 63.8251 32.402 63.9972 32.8575 63.9998H34.8789V59.5709C34.8789 59.5511 34.8802 59.5316 34.8818 59.5121C34.2406 59.2868 33.7409 58.7755 33.5302 58.1293C33.3198 57.4829 33.4227 56.7755 33.8084 56.2158C34.1945 55.6563 34.8188 55.3083 35.498 55.2752C36.1769 55.2421 36.8325 55.5272 37.2711 56.0466C37.4415 56.0158 37.6146 56.0002 37.7879 55.9999H45.0606C45.832 56.0008 46.5713 56.3077 47.1168 56.8528C47.6619 57.3983 47.9687 58.1375 47.9697 58.9089C47.9697 58.958 47.9684 59.0067 47.9661 59.055C47.9684 59.0791 47.9697 59.1037 47.9697 59.1284V63.9998H57.2638C57.7193 63.9972 58.1573 63.8251 58.4923 63.5167C58.8274 63.2086 59.0355 62.7862 59.0757 62.3326L60.2702 48H49.9472L56.1328 55.1859ZM39.2428 55.2726C38.6642 55.2726 38.109 55.0427 37.7 54.6336C37.2909 54.2245 37.061 53.6693 37.061 53.0908C37.061 52.5123 37.2909 51.957 37.7 51.548C38.109 51.139 38.6643 50.909 39.2428 50.909C39.8213 50.909 40.3766 51.1389 40.7856 51.548C41.1946 51.9571 41.4245 52.5123 41.4245 53.0908C41.4239 53.6694 41.1937 54.2239 40.7849 54.633C40.3758 55.0418 39.8213 55.272 39.2427 55.2726L39.2428 55.2726Z" fill="#FF008A"/>
<path d="M39.9697 53.0905C39.9697 53.4922 39.644 53.8178 39.2424 53.8178C38.8408 53.8178 38.5151 53.4922 38.5151 53.0905C38.5151 52.6889 38.8408 52.3633 39.2424 52.3633C39.644 52.3633 39.9697 52.6889 39.9697 53.0905Z" fill="#FF008A"/>
<path d="M37.788 61.818C37.277 61.8183 36.7753 61.6832 36.3335 61.4268V63.9998H46.5152V61.4268C46.0734 61.6832 45.5717 61.8183 45.0607 61.818H37.788Z" fill="#FF008A"/>
<path d="M28.3335 43.6357H31.2426V46.5448H28.3335V43.6357Z" fill="#FF008A"/>
<path d="M36.305 57.2553C36.2771 57.2063 36.2554 57.154 36.2404 57.0998C36.0505 56.7595 35.6278 56.6264 35.2774 56.7965C34.9268 56.9667 34.7696 57.3809 34.9193 57.7406C35.0693 58.1004 35.4735 58.2809 35.8414 58.152C36.2093 58.0234 36.4125 57.6299 36.305 57.2553L36.305 57.2553Z" fill="#FF008A"/>
<defs>
<clipPath id="clip0_7169_259075">
<rect width="23" height="22" fill="white" transform="translate(62.6875 20)"/>
</clipPath>
</defs>
</svg>
