<svg width="164" height="192" viewBox="0 0 164 192" fill="none" xmlns="http://www.w3.org/2000/svg">
<g filter="url(#filter0_d_7169_259764)">
<rect x="44.6343" y="5.72217" width="74" height="28" rx="9.5" fill="#FF008A"/>
<path d="M53.3903 24.3202C52.7369 24.3202 52.1489 24.2082 51.6263 23.9842C51.1036 23.7508 50.6929 23.4242 50.3943 23.0042C50.0956 22.5842 49.9463 22.0942 49.9463 21.5342H51.6543C51.6916 21.9542 51.8549 22.2995 52.1443 22.5702C52.4429 22.8408 52.8583 22.9762 53.3903 22.9762C53.9409 22.9762 54.3703 22.8455 54.6783 22.5842C54.9863 22.3135 55.1403 21.9682 55.1403 21.5482C55.1403 21.2215 55.0423 20.9555 54.8463 20.7502C54.6596 20.5448 54.4216 20.3862 54.1323 20.2742C53.8523 20.1622 53.4603 20.0408 52.9563 19.9102C52.3216 19.7422 51.8036 19.5742 51.4023 19.4062C51.0103 19.2288 50.6743 18.9582 50.3943 18.5942C50.1143 18.2302 49.9743 17.7448 49.9743 17.1382C49.9743 16.5782 50.1143 16.0882 50.3943 15.6682C50.6743 15.2482 51.0663 14.9262 51.5703 14.7022C52.0743 14.4782 52.6576 14.3662 53.3203 14.3662C54.2629 14.3662 55.0329 14.6042 55.6303 15.0802C56.2369 15.5468 56.5729 16.1908 56.6383 17.0122H54.8743C54.8463 16.6575 54.6783 16.3542 54.3703 16.1022C54.0623 15.8502 53.6563 15.7242 53.1523 15.7242C52.6949 15.7242 52.3216 15.8408 52.0323 16.0742C51.7429 16.3075 51.5983 16.6435 51.5983 17.0822C51.5983 17.3808 51.6869 17.6282 51.8643 17.8242C52.0509 18.0108 52.2843 18.1602 52.5643 18.2722C52.8443 18.3842 53.2269 18.5055 53.7123 18.6362C54.3563 18.8135 54.8789 18.9908 55.2803 19.1682C55.6909 19.3455 56.0363 19.6208 56.3163 19.9942C56.6056 20.3582 56.7503 20.8482 56.7503 21.4642C56.7503 21.9588 56.6149 22.4255 56.3443 22.8642C56.0829 23.3028 55.6956 23.6575 55.1823 23.9282C54.6783 24.1895 54.0809 24.3202 53.3903 24.3202ZM58.1015 20.3582C58.1015 19.5648 58.2602 18.8695 58.5775 18.2722C58.9042 17.6655 59.3522 17.1988 59.9215 16.8722C60.4908 16.5455 61.1442 16.3822 61.8815 16.3822C62.8148 16.3822 63.5848 16.6062 64.1915 17.0542C64.8075 17.4928 65.2228 18.1228 65.4375 18.9442H63.7155C63.5755 18.5615 63.3515 18.2628 63.0435 18.0482C62.7355 17.8335 62.3482 17.7262 61.8815 17.7262C61.2282 17.7262 60.7055 17.9595 60.3135 18.4262C59.9308 18.8835 59.7395 19.5275 59.7395 20.3582C59.7395 21.1888 59.9308 21.8375 60.3135 22.3042C60.7055 22.7708 61.2282 23.0042 61.8815 23.0042C62.8055 23.0042 63.4168 22.5982 63.7155 21.7862H65.4375C65.2135 22.5702 64.7935 23.1955 64.1775 23.6622C63.5615 24.1195 62.7962 24.3482 61.8815 24.3482C61.1442 24.3482 60.4908 24.1848 59.9215 23.8582C59.3522 23.5222 58.9042 23.0555 58.5775 22.4582C58.2602 21.8515 58.1015 21.1515 58.1015 20.3582ZM66.496 20.3302C66.496 19.5555 66.6547 18.8695 66.972 18.2722C67.2987 17.6748 67.7374 17.2128 68.288 16.8862C68.848 16.5502 69.464 16.3822 70.136 16.3822C70.7427 16.3822 71.27 16.5035 71.718 16.7462C72.1754 16.9795 72.5394 17.2735 72.81 17.6282V16.5082H74.42V24.2222H72.81V23.0742C72.5394 23.4382 72.1707 23.7415 71.704 23.9842C71.2374 24.2268 70.7054 24.3482 70.108 24.3482C69.4454 24.3482 68.8387 24.1802 68.288 23.8442C67.7374 23.4988 67.2987 23.0228 66.972 22.4162C66.6547 21.8002 66.496 21.1048 66.496 20.3302ZM72.81 20.3582C72.81 19.8262 72.698 19.3642 72.474 18.9722C72.2594 18.5802 71.9747 18.2815 71.62 18.0762C71.2654 17.8708 70.8827 17.7682 70.472 17.7682C70.0614 17.7682 69.6787 17.8708 69.324 18.0762C68.9694 18.2722 68.68 18.5662 68.456 18.9582C68.2414 19.3408 68.134 19.7982 68.134 20.3302C68.134 20.8622 68.2414 21.3288 68.456 21.7302C68.68 22.1315 68.9694 22.4395 69.324 22.6542C69.688 22.8595 70.0707 22.9622 70.472 22.9622C70.8827 22.9622 71.2654 22.8595 71.62 22.6542C71.9747 22.4488 72.2594 22.1502 72.474 21.7582C72.698 21.3568 72.81 20.8902 72.81 20.3582ZM80.4083 16.3822C81.015 16.3822 81.5563 16.5082 82.0323 16.7602C82.5176 17.0122 82.8956 17.3855 83.1663 17.8802C83.437 18.3748 83.5723 18.9722 83.5723 19.6722V24.2222H81.9903V19.9102C81.9903 19.2195 81.8176 18.6922 81.4723 18.3282C81.127 17.9548 80.6556 17.7682 80.0583 17.7682C79.461 17.7682 78.985 17.9548 78.6303 18.3282C78.285 18.6922 78.1123 19.2195 78.1123 19.9102V24.2222H76.5163V16.5082H78.1123V17.3902C78.3736 17.0728 78.705 16.8255 79.1063 16.6482C79.517 16.4708 79.951 16.3822 80.4083 16.3822ZM99.4928 14.4922V24.2222H97.8968V17.5582L94.9288 24.2222H93.8228L90.8408 17.5582V24.2222H89.2448V14.4922H90.9668L94.3828 22.1222L97.7848 14.4922H99.4928ZM108.661 20.1762C108.661 20.4655 108.642 20.7268 108.605 20.9602H102.711C102.757 21.5762 102.986 22.0708 103.397 22.4442C103.807 22.8175 104.311 23.0042 104.909 23.0042C105.767 23.0042 106.374 22.6448 106.729 21.9262H108.451C108.217 22.6355 107.793 23.2188 107.177 23.6762C106.57 24.1242 105.814 24.3482 104.909 24.3482C104.171 24.3482 103.509 24.1848 102.921 23.8582C102.342 23.5222 101.885 23.0555 101.549 22.4582C101.222 21.8515 101.059 21.1515 101.059 20.3582C101.059 19.5648 101.217 18.8695 101.535 18.2722C101.861 17.6655 102.314 17.1988 102.893 16.8722C103.481 16.5455 104.153 16.3822 104.909 16.3822C105.637 16.3822 106.285 16.5408 106.855 16.8582C107.424 17.1755 107.867 17.6235 108.185 18.2022C108.502 18.7715 108.661 19.4295 108.661 20.1762ZM106.995 19.6722C106.985 19.0842 106.775 18.6128 106.365 18.2582C105.954 17.9035 105.445 17.7262 104.839 17.7262C104.288 17.7262 103.817 17.9035 103.425 18.2582C103.033 18.6035 102.799 19.0748 102.725 19.6722H106.995ZM112.233 14.4922L112.051 21.2822H110.721L110.539 14.4922H112.233ZM111.435 24.3202C111.146 24.3202 110.903 24.2222 110.707 24.0262C110.511 23.8302 110.413 23.5875 110.413 23.2982C110.413 23.0088 110.511 22.7662 110.707 22.5702C110.903 22.3742 111.146 22.2762 111.435 22.2762C111.715 22.2762 111.953 22.3742 112.149 22.5702C112.345 22.7662 112.443 23.0088 112.443 23.2982C112.443 23.5875 112.345 23.8302 112.149 24.0262C111.953 24.2222 111.715 24.3202 111.435 24.3202Z" fill="white"/>
<path d="M81.1343 40.3247L86.3304 32.0747H75.9381L81.1343 40.3247Z" fill="#FF008A"/>
<rect x="44.6343" y="5.72217" width="74" height="28" rx="9.5" stroke="#F0F0F0"/>
</g>
<g filter="url(#filter1_dd_7169_259764)">
<rect x="19.1343" y="49.2222" width="125" height="119" rx="10" fill="white"/>
<g clip-path="url(#clip0_7169_259764)">
<path d="M51.2568 81.8854H28.4245C28.0434 81.8854 27.7358 81.5806 27.7358 81.2029V58.5673C27.7358 58.1896 28.0434 57.8848 28.4245 57.8848H51.2635C51.6446 57.8848 51.9521 58.1896 51.9521 58.5673V81.2029C51.9454 81.5806 51.6379 81.8854 51.2568 81.8854ZM29.1064 80.5204H50.5681V59.2498H29.1064V80.5204Z" fill="#28283C"/>
<path d="M47.3054 62.4834H32.3691V77.2867H47.3054V62.4834Z" fill="#28283C"/>
<path d="M51.2568 159.142H28.4245C28.0434 159.142 27.7358 158.837 27.7358 158.46V135.824C27.7358 135.446 28.0434 135.142 28.4245 135.142H51.2635C51.6446 135.142 51.9521 135.446 51.9521 135.824V158.46C51.9454 158.837 51.6379 159.142 51.2568 159.142ZM29.1064 157.784H50.5681V136.513H29.1064V157.784Z" fill="#28283C"/>
<path d="M47.3054 139.74H32.3691V154.543H47.3054V139.74Z" fill="#28283C"/>
<path d="M134.703 159.142H111.864C111.483 159.142 111.176 158.837 111.176 158.46V135.824C111.176 135.446 111.483 135.142 111.864 135.142H134.703C135.085 135.142 135.392 135.446 135.392 135.824V158.46C135.392 158.837 135.085 159.142 134.703 159.142ZM112.56 157.784H134.021V136.513H112.56V157.784Z" fill="#28283C"/>
<path d="M130.752 139.74H115.816V154.543H130.752V139.74Z" fill="#28283C"/>
<path d="M124.233 73.291H80.8286V81.289H124.233V73.291Z" fill="#28283C"/>
<path d="M104.657 84.7349H80.8286V92.7329H104.657V84.7349Z" fill="#28283C"/>
<path d="M104.316 103.752H85.4287V111.75H104.316V103.752Z" fill="#28283C"/>
<path d="M98.5395 110.843H78.4551V118.841H98.5395V110.843Z" fill="#28283C"/>
<path d="M87.1869 133.79H63.3584V141.788H87.1869V133.79Z" fill="#28283C"/>
<path d="M99.8233 147.785H74.0425V155.783H99.8233V147.785Z" fill="#28283C"/>
<path d="M104.316 123.068H85.8765V131.066H104.316V123.068Z" fill="#28283C"/>
<path d="M112.507 91.5864H100.592V99.5844H112.507V91.5864Z" fill="#28283C"/>
<path d="M136.027 124.824H118.33V132.822H136.027V124.824Z" fill="#28283C"/>
<path d="M136.081 84.7349H122.789V92.7329H136.081V84.7349Z" fill="#28283C"/>
<path d="M46.9914 87.584H27.1343V95.582H46.9914V87.584Z" fill="#28283C"/>
<path d="M87.7486 96.4302H49.9399V104.428H87.7486V96.4302Z" fill="#28283C"/>
<path d="M72.2104 123.068H38.4399V131.066H72.2104V123.068Z" fill="#28283C"/>
<path d="M136.141 113.818H108.094V121.816H136.141V113.818Z" fill="#28283C"/>
<path d="M83.8239 57.3813H56.3516V65.3794H83.8239V57.3813Z" fill="#28283C"/>
<path d="M136.034 57.4209H110.293V65.8165H136.034V57.4209Z" fill="#28283C"/>
<path d="M129.081 65.3794H104.657V73.3774H129.081V65.3794Z" fill="#28283C"/>
<path d="M75.1256 77.2866H66.9956V141.781H75.1256V77.2866Z" fill="#28283C"/>
<path d="M104.664 84.7349H96.5337V140.323H104.664V84.7349Z" fill="#28283C"/>
<path d="M63.3248 72.125H55.0811V99.1605H63.3248V72.125Z" fill="#28283C"/>
<path d="M124.233 73.291H115.99V92.7327H124.233V73.291Z" fill="#28283C"/>
<path d="M46.376 101.672H38.1323V113.825H46.376V101.672Z" fill="#28283C"/>
<path d="M99.7832 148.52H91.5396V160.222H99.7832V148.52Z" fill="#28283C"/>
<path d="M124.06 103.235H115.816V118.443H124.06V103.235Z" fill="#28283C"/>
<path d="M136.081 88.8301H127.837V118.45H136.081V88.8301Z" fill="#28283C"/>
<path d="M67.1495 123.406H58.9058V159.374H67.1495V123.406Z" fill="#28283C"/>
<path d="M35.378 95.1445H27.1343V123.068H35.378V95.1445Z" fill="#28283C"/>
<path d="M98.6534 57.2222H90.4097V78.8174H98.6534V57.2222Z" fill="#28283C"/>
</g>
</g>
<defs>
<filter id="filter0_d_7169_259764" x="29.1343" y="0.222168" width="105" height="65.1025" filterUnits="userSpaceOnUse" color-interpolation-filters="sRGB">
<feFlood flood-opacity="0" result="BackgroundImageFix"/>
<feColorMatrix in="SourceAlpha" type="matrix" values="0 0 0 0 0 0 0 0 0 0 0 0 0 0 0 0 0 0 127 0" result="hardAlpha"/>
<feMorphology radius="5" operator="erode" in="SourceAlpha" result="effect1_dropShadow_7169_259764"/>
<feOffset dy="10"/>
<feGaussianBlur stdDeviation="10"/>
<feComposite in2="hardAlpha" operator="out"/>
<feColorMatrix type="matrix" values="0 0 0 0 1 0 0 0 0 0 0 0 0 0 0.541176 0 0 0 0.08 0"/>
<feBlend mode="normal" in2="BackgroundImageFix" result="effect1_dropShadow_7169_259764"/>
<feBlend mode="normal" in="SourceGraphic" in2="effect1_dropShadow_7169_259764" result="shape"/>
</filter>
<filter id="filter1_dd_7169_259764" x="0.134277" y="34.6222" width="163" height="157" filterUnits="userSpaceOnUse" color-interpolation-filters="sRGB">
<feFlood flood-opacity="0" result="BackgroundImageFix"/>
<feColorMatrix in="SourceAlpha" type="matrix" values="0 0 0 0 0 0 0 0 0 0 0 0 0 0 0 0 0 0 127 0" result="hardAlpha"/>
<feMorphology radius="1" operator="erode" in="SourceAlpha" result="effect1_dropShadow_7169_259764"/>
<feOffset dy="4"/>
<feGaussianBlur stdDeviation="4.5"/>
<feColorMatrix type="matrix" values="0 0 0 0 0.0745098 0 0 0 0 0.0627451 0 0 0 0 0.133333 0 0 0 0.03 0"/>
<feBlend mode="normal" in2="BackgroundImageFix" result="effect1_dropShadow_7169_259764"/>
<feColorMatrix in="SourceAlpha" type="matrix" values="0 0 0 0 0 0 0 0 0 0 0 0 0 0 0 0 0 0 127 0" result="hardAlpha"/>
<feMorphology radius="1" operator="erode" in="SourceAlpha" result="effect2_dropShadow_7169_259764"/>
<feOffset dy="4.4"/>
<feGaussianBlur stdDeviation="10"/>
<feColorMatrix type="matrix" values="0 0 0 0 0.0745098 0 0 0 0 0.0627451 0 0 0 0 0.133333 0 0 0 0.05 0"/>
<feBlend mode="normal" in2="effect1_dropShadow_7169_259764" result="effect2_dropShadow_7169_259764"/>
<feBlend mode="normal" in="SourceGraphic" in2="effect2_dropShadow_7169_259764" result="shape"/>
</filter>
<clipPath id="clip0_7169_259764">
<rect width="109" height="103" fill="white" transform="translate(27.1343 57.2222)"/>
</clipPath>
</defs>
</svg>
