<svg width="25" height="25" viewBox="0 0 25 25" fill="none" xmlns="http://www.w3.org/2000/svg">
<path fill-rule="evenodd" clip-rule="evenodd" d="M6.04895 4.29004C4.94438 4.29004 4.04895 5.18547 4.04895 6.29004C4.04895 7.39461 4.94438 8.29004 6.04895 8.29004C7.15352 8.29004 8.04895 7.39461 8.04895 6.29004C8.04895 5.18547 7.15352 4.29004 6.04895 4.29004ZM2.04895 6.29004C2.04895 4.0809 3.83981 2.29004 6.04895 2.29004C8.25809 2.29004 10.049 4.0809 10.049 6.29004C10.049 8.49918 8.25809 10.29 6.04895 10.29C3.83981 10.29 2.04895 8.49918 2.04895 6.29004Z" fill="#F9F9F9"/>
<path fill-rule="evenodd" clip-rule="evenodd" d="M6.04895 16.29C4.94438 16.29 4.04895 17.1855 4.04895 18.29C4.04895 19.3946 4.94438 20.29 6.04895 20.29C7.15352 20.29 8.04895 19.3946 8.04895 18.29C8.04895 17.1855 7.15352 16.29 6.04895 16.29ZM2.04895 18.29C2.04895 16.0809 3.83981 14.29 6.04895 14.29C8.25809 14.29 10.049 16.0809 10.049 18.29C10.049 20.4992 8.25809 22.29 6.04895 22.29C3.83981 22.29 2.04895 20.4992 2.04895 18.29Z" fill="#F9F9F9"/>
<path fill-rule="evenodd" clip-rule="evenodd" d="M20.7561 3.58293C21.1466 3.97346 21.1466 4.60662 20.7561 4.99715L8.87605 16.8771C8.48553 17.2677 7.85236 17.2677 7.46184 16.8771C7.07131 16.4866 7.07131 15.8535 7.46184 15.4629L19.3418 3.58293C19.7324 3.19241 20.3655 3.19241 20.7561 3.58293Z" fill="#F9F9F9"/>
<path fill-rule="evenodd" clip-rule="evenodd" d="M13.8112 14.064C14.2013 13.6732 14.8345 13.6726 15.2254 14.0628L20.7554 19.5828C21.1463 19.9729 21.1468 20.6061 20.7567 20.997C20.3665 21.3879 19.7333 21.3884 19.3425 20.9983L13.8125 15.4783C13.4216 15.0881 13.421 14.4549 13.8112 14.064Z" fill="#F9F9F9"/>
<path fill-rule="evenodd" clip-rule="evenodd" d="M7.46184 7.70305C7.85236 7.31253 8.48553 7.31253 8.87605 7.70305L12.7561 11.583C13.1466 11.9736 13.1466 12.6067 12.7561 12.9973C12.3655 13.3878 11.7324 13.3878 11.3418 12.9973L7.46184 9.11726C7.07131 8.72674 7.07131 8.09357 7.46184 7.70305Z" fill="#F9F9F9"/>
</svg>
