<svg width="24" height="24" viewBox="0 0 24 24" fill="none" xmlns="http://www.w3.org/2000/svg">
<path fill-rule="evenodd" clip-rule="evenodd" d="M6 4C4.89543 4 4 4.89543 4 6C4 7.10457 4.89543 8 6 8C7.10457 8 8 7.10457 8 6C8 4.89543 7.10457 4 6 4ZM2 6C2 3.79086 3.79086 2 6 2C8.20914 2 10 3.79086 10 6C10 8.20914 8.20914 10 6 10C3.79086 10 2 8.20914 2 6Z" fill="#424242"/>
<path fill-rule="evenodd" clip-rule="evenodd" d="M6 16C4.89543 16 4 16.8954 4 18C4 19.1046 4.89543 20 6 20C7.10457 20 8 19.1046 8 18C8 16.8954 7.10457 16 6 16ZM2 18C2 15.7909 3.79086 14 6 14C8.20914 14 10 15.7909 10 18C10 20.2091 8.20914 22 6 22C3.79086 22 2 20.2091 2 18Z" fill="#424242"/>
<path fill-rule="evenodd" clip-rule="evenodd" d="M20.7071 3.29289C21.0976 3.68342 21.0976 4.31658 20.7071 4.70711L8.8271 16.5871C8.43658 16.9776 7.80341 16.9776 7.41289 16.5871C7.02236 16.1966 7.02236 15.5634 7.41289 15.1729L19.2929 3.29289C19.6834 2.90237 20.3166 2.90237 20.7071 3.29289Z" fill="#424242"/>
<path fill-rule="evenodd" clip-rule="evenodd" d="M13.7622 13.774C14.1524 13.3831 14.7856 13.3826 15.1764 13.7727L20.7064 19.2927C21.0973 19.6829 21.0979 20.3161 20.7077 20.7069C20.3175 21.0978 19.6844 21.0984 19.2935 20.7082L13.7635 15.1882C13.3726 14.798 13.3721 14.1649 13.7622 13.774Z" fill="#424242"/>
<path fill-rule="evenodd" clip-rule="evenodd" d="M7.41289 7.41301C7.80341 7.02249 8.43658 7.02249 8.8271 7.41301L12.7071 11.293C13.0976 11.6835 13.0976 12.3167 12.7071 12.7072C12.3166 13.0977 11.6834 13.0977 11.2929 12.7072L7.41289 8.82722C7.02236 8.4367 7.02236 7.80353 7.41289 7.41301Z" fill="#424242"/>
</svg>
