<svg width="20" height="20" viewBox="0 0 20 20" fill="none" xmlns="http://www.w3.org/2000/svg">
<path d="M13.45 2.4667L5.92501 4.9667C0.866673 6.65837 0.866673 9.4167 5.92501 11.1L8.15834 11.8417L8.90001 14.075C10.5833 19.1334 13.35 19.1334 15.0333 14.075L17.5417 6.55837C18.6583 3.18337 16.825 1.3417 13.45 2.4667ZM13.7167 6.95004L10.55 10.1334C10.425 10.2584 10.2667 10.3167 10.1083 10.3167C9.95001 10.3167 9.79167 10.2584 9.66667 10.1334C9.42501 9.8917 9.42501 9.4917 9.66667 9.25004L12.8333 6.0667C13.075 5.82504 13.475 5.82504 13.7167 6.0667C13.9583 6.30837 13.9583 6.70837 13.7167 6.95004Z" fill="#74788D"/>
</svg>
