<svg width="30" height="30" viewBox="0 0 30 30" fill="none" xmlns="http://www.w3.org/2000/svg">
<path fill-rule="evenodd" clip-rule="evenodd" d="M5 3.75C4.30964 3.75 3.75 4.30964 3.75 5V10C3.75 10.6904 4.30964 11.25 5 11.25H25C25.6904 11.25 26.25 10.6904 26.25 10V5C26.25 4.30964 25.6904 3.75 25 3.75H5ZM1.25 5C1.25 2.92893 2.92893 1.25 5 1.25H25C27.0711 1.25 28.75 2.92893 28.75 5V10C28.75 12.0711 27.0711 13.75 25 13.75H5C2.92893 13.75 1.25 12.0711 1.25 10V5Z" fill="#2A396D"/>
<path fill-rule="evenodd" clip-rule="evenodd" d="M5 18.75C4.30964 18.75 3.75 19.3096 3.75 20V25C3.75 25.6904 4.30964 26.25 5 26.25H25C25.6904 26.25 26.25 25.6904 26.25 25V20C26.25 19.3096 25.6904 18.75 25 18.75H5ZM1.25 20C1.25 17.9289 2.92893 16.25 5 16.25H25C27.0711 16.25 28.75 17.9289 28.75 20V25C28.75 27.0711 27.0711 28.75 25 28.75H5C2.92893 28.75 1.25 27.0711 1.25 25V20Z" fill="#2A396D"/>
</svg>
