<svg width="24" height="24" viewBox="0 0 24 24" fill="none" xmlns="http://www.w3.org/2000/svg">
<path d="M1.84615 4H6.46154V3C6.46457 2.20536 6.75731 1.44421 7.27598 0.882315C7.79466 0.320418 8.49726 0.00329046 9.23077 0H14.7692C15.5027 0.00329046 16.2053 0.320418 16.724 0.882315C17.2427 1.44421 17.5354 2.20536 17.5385 3V4H22.1538C22.6435 4 23.1131 4.21071 23.4593 4.58579C23.8055 4.96086 24 5.46957 24 6V22C24 22.5304 23.8055 23.0391 23.4593 23.4142C23.1131 23.7893 22.6435 24 22.1538 24H1.84615C1.35652 24 0.886948 23.7893 0.540726 23.4142C0.194506 23.0391 0 22.5304 0 22V6C0 5.46957 0.194506 4.96086 0.540726 4.58579C0.886948 4.21071 1.35652 4 1.84615 4ZM15.6923 3C15.6923 2.73478 15.5951 2.48043 15.4219 2.29289C15.2488 2.10536 15.014 2 14.7692 2H9.23077C8.98595 2 8.75117 2.10536 8.57805 2.29289C8.40494 2.48043 8.30769 2.73478 8.30769 3V4H15.6923V3ZM1.84615 6V15H22.1538V6H1.84615ZM1.84615 22H22.1538V17H1.84615V22Z" fill="white"/>
</svg>
