<svg width="100" height="101" viewBox="0 0 100 101" fill="none" xmlns="http://www.w3.org/2000/svg">
<g clip-path="url(#clip0_7169_258798)">
<path d="M71.5383 51.6351H27.5638C25.7668 51.6351 24.3926 50.1551 24.604 48.3581L26.7182 26.3709C26.6125 12.4174 36.8661 1.00098 49.5511 1.00098C62.236 1.00098 72.4897 12.4174 72.4897 26.3709L74.6039 48.3581C74.7096 50.1551 73.2297 51.6351 71.5383 51.6351Z" fill="#FFAC5A"/>
<path d="M69.0016 24.6797H66.1475V34.0877H69.0016C70.5872 34.0877 71.9614 33.0306 71.9614 31.6564V27.0053C71.9614 25.7368 70.6929 24.6797 69.0016 24.6797Z" fill="#448FFC"/>
<path d="M27.248 27.1112V31.7623C27.248 33.0308 28.5165 34.1936 30.2079 34.1936H33.062V24.7856H30.2079C28.5165 24.6799 27.248 25.737 27.248 27.1112Z" fill="#448FFC"/>
<path d="M87.2897 97.2998H11.9199V66.9617C11.9199 62.0991 15.4083 57.7651 20.588 56.1795L42.2581 49.6256C47.1207 48.1456 52.1946 48.1456 56.8458 49.6256L78.5159 56.1795C83.6956 57.7651 87.184 62.0991 87.184 66.9617L87.2897 97.2998Z" fill="#F99653"/>
<path d="M67.2042 71.1914H54.625V73.9398H67.2042V71.1914Z" fill="#FFD551"/>
<path d="M57.5849 36.3066H41.623V58.5053H57.5849V36.3066Z" fill="#EDBF9A"/>
<path d="M67.7334 25.4195C67.7334 37.6816 59.5939 50.1551 49.6574 50.1551C39.7208 50.1551 31.4756 37.5759 31.4756 25.4195C31.4756 13.2631 39.6151 5.75781 49.6574 5.75781C59.6996 5.75781 67.7334 13.1574 67.7334 25.4195Z" fill="#FFD9B6"/>
<path d="M29.2555 75.3135H28.727C28.1985 75.3135 27.6699 75.7363 27.6699 76.3706V97.195H30.4183V76.4763C30.3126 75.842 29.7841 75.3135 29.2555 75.3135Z" fill="#E08344"/>
<path d="M70.5876 75.3135H70.059C69.5305 75.3135 69.002 75.7363 69.002 76.3706V97.195H71.7504V76.4763C71.6446 75.842 71.2218 75.3135 70.5876 75.3135Z" fill="#E08344"/>
<path d="M57.5852 51.1066L49.6571 58.2948L41.6233 51.1066L40.4605 50.1553L32.0039 52.6923L44.5832 64.1087L49.6571 58.5062L54.6254 64.1087L67.3104 52.6923L58.748 50.1553L57.5852 51.1066Z" fill="#E08344"/>
<path d="M56.8462 41.9092C55.5777 41.9092 55.2606 41.9092 53.675 41.8035H52.0894V40.535H53.675C60.9688 40.7464 63.4001 40.8521 65.62 38.9494C67.9455 37.0466 67.5227 32.1841 67.5227 32.0784L68.7912 31.9727C68.7912 32.1841 69.3197 37.5752 66.4656 39.9007C64.3515 41.5921 61.6031 41.9092 56.8462 41.9092Z" fill="white"/>
<path d="M55.0491 43.2833H50.715C50.0808 43.2833 49.5522 42.7547 49.5522 42.1205V40.5349C49.5522 39.9006 50.0808 39.3721 50.715 39.3721H55.0491C55.6833 39.3721 56.2118 39.9006 56.2118 40.5349V42.1205C56.3175 42.7547 55.789 43.2833 55.0491 43.2833Z" fill="#448FFC"/>
<path d="M20.5876 61.8887H78.6212C80.6297 61.8887 82.2153 63.58 82.0039 65.5884L79.8897 98.3579H19.4248L17.3106 65.5884C17.0992 63.58 18.5791 61.8887 20.5876 61.8887Z" fill="#EFEEED"/>
<path d="M53.4622 90.2181C53.4622 88.5268 52.4051 87.1526 50.9252 86.624V89.5838C50.9252 90.2181 50.5024 90.8523 49.7624 90.8523C49.0225 90.958 48.2825 90.3238 48.2825 89.5838V86.624C46.6969 87.1526 45.6398 88.7382 45.7455 90.5352C45.8513 92.0151 46.9083 93.2836 48.2825 93.8122V97.7234H50.8195V93.8122C52.4051 93.2836 53.4622 91.9094 53.4622 90.2181Z" fill="#80B2F9"/>
<path d="M60.7562 93.1792H63.2931V87.4709H60.7562C60.439 86.4138 60.1219 85.3568 59.4877 84.5111L61.2847 82.7141L57.2678 78.5915L55.4708 80.3885C54.5194 79.86 53.568 79.4371 52.5109 79.12V76.583H46.8027V79.12C45.7456 79.4371 44.7943 79.7543 43.8429 80.3885L42.0459 78.5915L38.029 82.7141L39.826 84.5111C39.2975 85.4625 38.8746 86.4138 38.5575 87.4709H36.0205V93.1792H38.5575C38.7689 94.1305 39.1917 94.9762 39.6146 95.8219C39.6146 95.9276 39.7203 96.0333 39.826 96.139L38.029 97.936L41.0945 101.002H42.9972L43.8429 100.156C44.3714 100.473 45.0057 100.79 45.5342 101.002H53.7794C54.4137 100.79 54.9422 100.473 55.4708 100.156L56.3164 101.002H58.2192L61.3904 97.936L59.5934 96.139C59.6991 96.0333 59.6991 95.9276 59.8048 95.7162C60.2276 94.9762 60.5447 94.1305 60.7562 93.1792ZM50.9253 96.5618C50.5025 96.6675 50.0797 96.6675 49.6568 96.6675C49.234 96.6675 48.8112 96.6675 48.3883 96.5618C47.7541 96.4561 47.1198 96.139 46.4856 95.8219C44.5828 94.7648 43.3144 92.6506 43.3144 90.325C43.3144 86.8367 46.1685 83.9826 49.6568 83.9826C53.1452 83.9826 55.9993 86.8367 55.9993 90.325C55.9993 92.6506 54.7308 94.6591 52.8281 95.8219C52.2995 96.139 51.5596 96.3504 50.9253 96.5618Z" fill="#80B2F9"/>
<path d="M93.3147 98.3575C93.3147 99.0975 92.9976 99.7317 92.5748 100.26C92.1519 100.789 91.412 101 90.672 101H8.6427C7.16279 101 6 99.8375 6 98.3575C6 97.6176 6.31712 96.9833 6.73995 96.4548C7.16279 95.9263 7.90274 95.7148 8.6427 95.7148H90.672C92.1519 95.8206 93.3147 96.9833 93.3147 98.3575Z" fill="#448FFC"/>
<path d="M65.4078 9.66892C64.1393 12.523 62.3423 15.06 60.2281 17.2799C54.9427 22.8824 47.4374 26.3708 39.0865 26.3708C36.2324 26.3708 33.484 25.9479 30.8413 25.208C31.2641 12.3116 39.8265 4.38353 50.6087 4.06641C50.8201 4.06641 51.0315 4.06641 51.2429 4.06641C56.8455 4.06641 61.708 6.07486 65.4078 9.66892Z" fill="#FFAC5A"/>
<path d="M67.7336 22.5653C63.611 21.6139 59.8055 19.8169 56.6343 17.2799C58.7484 15.06 60.5455 12.5231 61.814 9.66895C64.8795 12.8402 67.0994 17.1742 67.7336 22.5653Z" fill="#FFAC5A"/>
</g>
<defs>
<clipPath id="clip0_7169_258798">
<rect width="100" height="100" fill="white" transform="translate(0 0.847656)"/>
</clipPath>
</defs>
</svg>
