<svg width="54" height="54" viewBox="0 0 54 54" fill="none" xmlns="http://www.w3.org/2000/svg">
<path d="M27 4.5C14.6025 4.5 4.5 14.6025 4.5 27C4.5 39.3975 14.6025 49.5 27 49.5C39.3975 49.5 49.5 39.3975 49.5 27C49.5 14.6025 39.3975 4.5 27 4.5ZM37.755 21.825L24.9975 34.5825C24.6825 34.8975 24.255 35.0775 23.805 35.0775C23.355 35.0775 22.9275 34.8975 22.6125 34.5825L16.245 28.215C15.5925 27.5625 15.5925 26.4825 16.245 25.83C16.8975 25.1775 17.9775 25.1775 18.63 25.83L23.805 31.005L35.37 19.44C36.0225 18.7875 37.1025 18.7875 37.755 19.44C38.4075 20.0925 38.4075 21.15 37.755 21.825Z" fill="#00CC45"/>
</svg>
