<svg width="20" height="20" viewBox="0 0 20 20" fill="none" xmlns="http://www.w3.org/2000/svg">
<path d="M15.0335 11.2916C14.6835 11.6332 14.4835 12.1249 14.5335 12.6499C14.6085 13.5499 15.4335 14.2082 16.3335 14.2082H17.9168V15.1999C17.9168 16.9249 16.5085 18.3333 14.7835 18.3333H5.21683C3.49183 18.3333 2.0835 16.9249 2.0835 15.1999V9.59159C2.0835 7.86659 3.49183 6.45825 5.21683 6.45825H14.7835C16.5085 6.45825 17.9168 7.86659 17.9168 9.59159V10.7916H16.2335C15.7668 10.7916 15.3418 10.9749 15.0335 11.2916Z" stroke="#4C40ED" stroke-width="1.5" stroke-linecap="round" stroke-linejoin="round"/>
<path d="M2.0835 10.3416V6.5333C2.0835 5.54163 2.69183 4.65826 3.61683 4.30826L10.2335 1.80826C11.2668 1.41659 12.3752 2.18329 12.3752 3.29162V6.45828" stroke="#4C40ED" stroke-width="1.5" stroke-linecap="round" stroke-linejoin="round"/>
<path d="M18.7992 11.6417V13.3584C18.7992 13.8168 18.4325 14.1917 17.9658 14.2084H16.3325C15.4325 14.2084 14.6075 13.5501 14.5325 12.6501C14.4825 12.1251 14.6825 11.6334 15.0325 11.2917C15.3408 10.9751 15.7658 10.7917 16.2325 10.7917H17.9658C18.4325 10.8084 18.7992 11.1834 18.7992 11.6417Z" stroke="#4C40ED" stroke-width="1.5" stroke-linecap="round" stroke-linejoin="round"/>
<path d="M5.8335 10H11.6668" stroke="#4C40ED" stroke-width="1.5" stroke-linecap="round" stroke-linejoin="round"/>
</svg>
