<svg width="20" height="20" viewBox="0 0 20 20" fill="none" xmlns="http://www.w3.org/2000/svg">
<path d="M10.0002 10.0013C12.3013 10.0013 14.1668 8.13582 14.1668 5.83464C14.1668 3.53345 12.3013 1.66797 10.0002 1.66797C7.69898 1.66797 5.8335 3.53345 5.8335 5.83464C5.8335 8.13582 7.69898 10.0013 10.0002 10.0013Z" stroke="#292D32" stroke-width="1.5" stroke-linecap="round" stroke-linejoin="round"/>
<path d="M16.0085 13.1181L13.0585 16.0682C12.9418 16.1848 12.8335 16.4015 12.8085 16.5598L12.6502 17.6848C12.5919 18.0931 12.8752 18.3765 13.2835 18.3181L14.4085 18.1598C14.5668 18.1348 14.7919 18.0265 14.9002 17.9098L17.8502 14.9598C18.3585 14.4515 18.6002 13.8598 17.8502 13.1098C17.1085 12.3681 16.5169 12.6098 16.0085 13.1181Z" stroke="#292D32" stroke-width="1.5" stroke-miterlimit="10" stroke-linecap="round" stroke-linejoin="round"/>
<path d="M15.5835 13.543C15.8335 14.443 16.5335 15.1429 17.4335 15.3929" stroke="#292D32" stroke-width="1.5" stroke-miterlimit="10" stroke-linecap="round" stroke-linejoin="round"/>
<path d="M2.8418 18.3333C2.8418 15.1083 6.05015 12.5 10.0002 12.5C10.8668 12.5 11.7001 12.625 12.4751 12.8583" stroke="#292D32" stroke-width="1.5" stroke-linecap="round" stroke-linejoin="round"/>
</svg>
