<svg width="18" height="17" viewBox="0 0 18 17" fill="none" xmlns="http://www.w3.org/2000/svg">
<path d="M9.09004 9.0525C9.03754 9.04542 8.97004 9.04542 8.91004 9.0525C7.59004 9.01 6.54004 7.99 6.54004 6.73625C6.54004 5.45417 7.63504 4.41292 9.00004 4.41292C10.3575 4.41292 11.46 5.45417 11.46 6.73625C11.4525 7.99 10.41 9.01 9.09004 9.0525Z" stroke="white" stroke-linecap="round" stroke-linejoin="round"/>
<path d="M14.0549 13.7275C12.7199 14.8821 10.9499 15.5833 8.99995 15.5833C7.04995 15.5833 5.27995 14.8821 3.94495 13.7275C4.01995 13.0617 4.46995 12.41 5.27245 11.9C7.32745 10.6108 10.6874 10.6108 12.7274 11.9C13.5299 12.41 13.9799 13.0617 14.0549 13.7275Z" stroke="white" stroke-linecap="round" stroke-linejoin="round"/>
<path d="M9 15.5833C13.1421 15.5833 16.5 12.412 16.5 8.5C16.5 4.58798 13.1421 1.41667 9 1.41667C4.85786 1.41667 1.5 4.58798 1.5 8.5C1.5 12.412 4.85786 15.5833 9 15.5833Z" stroke="white" stroke-linecap="round" stroke-linejoin="round"/>
</svg>
