<svg width="50" height="51" viewBox="0 0 50 51" fill="none" xmlns="http://www.w3.org/2000/svg">
<path d="M42.2826 41.0513C41.7079 41.0513 41.2152 40.5587 41.2152 39.984V31.6917C41.2152 29.557 39.4911 27.8329 37.3565 27.8329H29.8852C29.3105 27.8329 28.8179 27.3403 28.8179 26.7656C28.8179 26.1909 29.3105 25.6982 29.8852 25.6982H37.3565C40.6405 25.6982 43.3499 28.4076 43.3499 31.6917V39.984C43.3499 40.5587 42.9394 41.0513 42.2826 41.0513Z" fill="#4A555B"/>
<path d="M27.4221 46.2237C27.4221 46.8805 26.8474 47.4552 26.1906 47.4552H12.4796C11.8228 47.4552 11.248 46.8805 11.248 46.2237C11.248 45.5669 11.8228 44.9922 12.4796 44.9922H26.2727C26.8474 44.9922 27.4221 45.5669 27.4221 46.2237Z" fill="#6FA4AD"/>
<path d="M31.6912 45.9771C31.6912 46.3055 31.4449 46.6339 31.0344 46.6339H7.5533C7.22489 46.6339 6.89648 46.3876 6.89648 45.9771C6.89648 45.6487 7.14279 45.3203 7.5533 45.3203H31.1165C31.4449 45.3203 31.6912 45.5666 31.6912 45.9771Z" fill="#80AFBA"/>
<path d="M10.5911 47.1269C10.5911 48.5227 9.52382 49.59 8.12809 49.59C6.73236 49.59 5.66504 48.5227 5.66504 47.1269V45.0744C5.66504 43.6787 6.73236 42.6113 8.12809 42.6113C9.52382 42.6113 10.5911 43.6787 10.5911 45.0744V47.1269Z" fill="#185B6B"/>
<path d="M8.12793 42.6113C9.52366 42.6113 10.591 43.6787 10.591 45.0744V47.1269C10.591 48.5227 9.52366 49.59 8.12793 49.59" fill="#0D4049"/>
<path d="M28.0786 45.0744C28.0786 43.6787 29.1459 42.6113 30.5417 42.6113C31.9374 42.6113 33.0047 43.6787 33.0047 45.0744V47.1269C33.0047 48.5227 31.9374 49.59 30.5417 49.59C29.1459 49.59 28.0786 48.5227 28.0786 47.1269V45.0744Z" fill="#185B6B"/>
<path d="M30.5417 49.59C29.1459 49.59 28.0786 48.5227 28.0786 47.1269V45.0744C28.0786 43.6787 29.1459 42.6113 30.5417 42.6113" fill="#0D4049"/>
<path d="M31.8553 33.3339C31.8553 40.2305 32.8405 45.8134 25.9439 45.8134H12.8076C5.91109 45.8134 6.89631 40.2305 6.89631 33.3339V24.3027C6.89631 17.4062 12.4792 11.8232 19.3758 11.8232C26.2723 11.8232 31.8553 17.4062 31.8553 24.3027V33.3339Z" fill="#FF008A"/>
<path d="M10.0166 45.4028C10.7555 45.6491 11.6586 45.8133 12.8081 45.8133H25.9444C27.0938 45.8133 27.9969 45.6491 28.7358 45.4028V24.4668H10.0166V45.4028Z" fill="#FF008A"/>
<path d="M31.8556 36.7822C31.1167 37.0285 30.2956 37.1927 29.4746 37.1927C29.0641 37.1927 11.0838 37.1927 6.73242 37.1927C6.73242 37.9317 6.73242 38.6706 6.73242 39.3274H29.0641C29.3925 39.3274 29.5567 39.3274 29.5567 39.3274C30.3777 39.3274 31.1167 39.1632 31.8556 38.999C31.8556 38.3422 31.8556 37.5211 31.8556 36.7822Z" fill="#FF008A"/>
<path d="M20.3612 14.2042C20.3612 13.3832 20.4433 12.6443 20.6896 11.9053C20.2791 11.8232 19.7865 11.8232 19.2939 11.8232C19.0476 11.8232 18.7192 11.8232 18.4729 11.8232C18.3087 12.5622 18.2266 13.3832 18.2266 14.2042V18.7198H20.3612V14.2042Z" fill="#FF008A"/>
<path d="M19.2939 11.8232C12.3974 11.8232 6.81445 17.4062 6.81445 24.3027V24.7953C7.96388 25.5342 9.35961 25.9448 10.8374 25.9448H27.7504C29.2282 25.9448 30.624 25.5342 31.7734 24.7953V24.3027C31.8555 17.4062 26.1905 11.8232 19.2939 11.8232Z" fill="#203066"/>
<path d="M19.2937 11.8232C14.1213 11.8232 9.93408 17.8988 9.93408 25.2879V25.7805C10.8372 26.5195 11.8224 27.0121 12.9718 27.0121H25.6155C26.6828 27.0121 27.7502 26.6016 28.6533 25.7805V25.2879C28.6533 17.8167 24.4661 11.8232 19.2937 11.8232Z" fill="white" fill-opacity="0.7"/>
<path d="M21.9209 24.1387H16.7485V27.0122H21.9209V24.1387Z" fill="white"/>
<path d="M23.2348 15.6816C23.2348 16.9131 21.4286 18.391 19.2939 18.391C17.1593 18.391 15.353 16.9131 15.353 15.6816C15.353 14.4501 17.1593 13.4648 19.2939 13.4648C21.4286 13.4648 23.2348 14.4501 23.2348 15.6816Z" fill="#2CAFFF"/>
<path d="M19.2939 17.8983C21.4704 17.8983 23.2348 16.9059 23.2348 15.6816C23.2348 14.4573 21.4704 13.4648 19.2939 13.4648C17.1174 13.4648 15.353 14.4573 15.353 15.6816C15.353 16.9059 17.1174 17.8983 19.2939 17.8983Z" fill="#1B4B68"/>
<path d="M23.2348 15.6816C23.2348 16.9132 21.4286 17.8984 19.2939 17.8984C17.1593 17.8984 15.353 16.9132 15.353 15.6816" fill="#0F3D54"/>
<path d="M22.0032 24.2201C22.0032 24.4665 21.7569 24.7128 21.5106 24.7128H17.0771C16.8308 24.7128 16.5845 24.4665 16.5845 24.2201C16.5845 23.9738 16.8308 23.7275 17.0771 23.7275H21.5106C21.839 23.8096 22.0032 23.9738 22.0032 24.2201Z" fill="#FF008A"/>
<path d="M13.0544 41.6262C13.0544 41.7904 12.9723 41.8725 12.8081 41.8725H11.3303C11.1661 41.8725 11.084 41.7083 11.084 41.6262C11.084 41.462 11.2482 41.3799 11.3303 41.3799H12.8081C12.8902 41.3799 13.0544 41.462 13.0544 41.6262Z" fill="#FF008A"/>
<path d="M13.0544 43.022C13.0544 43.1863 12.9723 43.2684 12.8081 43.2684H11.3303C11.1661 43.2684 11.084 43.1863 11.084 43.022C11.084 42.8578 11.2482 42.7757 11.3303 42.7757H12.8081C12.8902 42.6936 13.0544 42.8578 13.0544 43.022Z" fill="#FF008A"/>
<path d="M13.0544 44.3352C13.0544 44.4994 12.9723 44.5815 12.8081 44.5815H11.3303C11.1661 44.5815 11.084 44.4173 11.084 44.3352C11.084 44.171 11.2482 44.0889 11.3303 44.0889H12.8081C12.8902 44.0889 13.0544 44.2531 13.0544 44.3352Z" fill="#FF008A"/>
<path d="M29.064 1.9707C23.0706 1.9707 18.2266 6.89681 18.2266 12.8081V17.3237H20.3612V12.8081C20.3612 8.04624 24.22 4.10535 29.064 4.10535C33.8259 4.10535 37.7668 7.96413 37.7668 12.8081V27.176C37.7668 31.8558 34.1544 35.6324 29.4745 35.8787C29.064 35.8787 7.47126 35.8787 5.91133 35.8787C5.82923 35.8787 5.82923 35.8787 5.82923 35.8787C3.77668 35.8787 2.13465 34.2367 2.13465 32.1842V31.4452C2.13465 29.3927 3.77668 27.7507 5.82923 27.7507H6.89655V25.616H5.82923C2.62726 25.616 0 28.2433 0 31.4452V32.1842C0 35.3861 2.62726 38.0134 5.82923 38.0134H6.89655H29.064C29.3924 38.0134 29.5566 38.0134 29.5566 38.0134C35.3859 37.7671 39.9015 33.0052 39.9015 27.176V12.8081C39.9015 6.89681 35.0575 1.9707 29.064 1.9707Z" fill="#626262"/>
<path d="M29.064 3.94141C23.0706 3.94141 18.2266 8.78541 18.2266 14.7788V17.4061H20.3612V14.7788V12.8905C20.3612 8.1286 24.22 4.18771 29.064 4.18771C33.8259 4.18771 37.7668 8.0465 37.7668 12.8905V14.7788V27.1762V29.0646C37.7668 33.7444 34.1544 37.521 29.4745 37.7674C29.064 37.7674 7.47126 37.7674 5.91133 37.7674C5.82923 37.7674 5.82923 37.7674 5.82923 37.7674C3.77668 37.7674 2.13465 36.1253 2.13465 34.0728V33.3339C2.13465 33.1697 2.13465 32.9233 2.21675 32.7591C2.21675 32.5949 2.13465 32.3486 2.13465 32.1844V31.4455C2.13465 29.393 3.77668 27.7509 5.82923 27.7509H6.89655V27.5046H5.82923C2.79146 27.5046 0.328407 29.8035 0 32.7591C0.328407 35.7148 2.79146 38.0137 5.82923 38.0137H6.89655H29.064C29.3924 38.0137 29.5566 38.0137 29.5566 38.0137C35.3859 37.7674 39.9015 33.0054 39.9015 27.1762V14.7788C39.9015 8.78541 35.0575 3.94141 29.064 3.94141Z" fill="#203066" fill-opacity="0.6"/>
<path d="M44.9918 39.6555C44.9918 40.3944 44.335 41.0512 43.5961 41.0512H41.133C40.3941 41.0512 39.7373 40.3944 39.7373 39.6555C39.7373 38.9166 40.3941 38.2598 41.133 38.2598H43.5961C44.335 38.2598 44.9918 38.9166 44.9918 39.6555Z" fill="#FF008A"/>
<path d="M49.5896 41.6256C49.5896 42.5287 48.8507 43.2676 47.9475 43.2676H36.7817C35.8786 43.2676 35.1396 42.5287 35.1396 41.6256V41.4614C35.1396 40.5583 35.8786 39.8193 36.7817 39.8193H47.9475C48.8507 39.8193 49.5896 40.5583 49.5896 41.4614V41.6256Z" fill="#203066"/>
<path d="M49.5896 41.6258C49.5896 42.529 48.8507 43.2679 47.9475 43.2679H36.7817C35.8786 43.2679 35.1396 42.529 35.1396 41.6258V41.4616C35.1396 40.5585 35.8786 40.6406 36.7817 40.6406H47.9475C48.8507 40.6406 49.5896 40.5585 49.5896 41.4616V41.6258Z" fill="#203066" fill-opacity="0.7"/>
<path d="M2.29883 26.7656V28.4898C2.29883 28.9003 2.46303 29.2287 2.70934 29.5571C3.36615 28.4898 4.51558 27.7509 5.82921 27.7509H6.89653V25.6162H5.82921C4.51558 25.6162 3.28405 26.0267 2.29883 26.7656Z" fill="#4A555B"/>
<path d="M49.9178 43.432C49.9178 43.6783 49.7536 43.8425 49.5073 43.8425H35.1395C34.8932 43.8425 34.729 43.6783 34.729 43.432V42.2826C34.729 42.0363 34.8932 41.8721 35.1395 41.8721H49.5894C49.8357 41.8721 49.9999 42.0363 49.9999 42.2826V43.432H49.9178Z" fill="#185B6B"/>
<path d="M49.5894 41.8721C49.8357 41.8721 49.9999 42.0363 49.9999 42.2826V43.432C49.9999 43.6783 49.8357 43.8425 49.5894 43.8425H35.1395C34.8932 43.8425 34.729 43.6783 34.729 43.432" fill="#0D4049"/>
</svg>
