<svg width="28" height="27" viewBox="0 0 28 27" fill="none" xmlns="http://www.w3.org/2000/svg">
<path fill-rule="evenodd" clip-rule="evenodd" d="M14 0.25C14.4757 0.25 14.9103 0.52009 15.1209 0.94672L18.6928 8.18308L26.6808 9.35064C27.1515 9.41944 27.5423 9.74945 27.689 10.202C27.8358 10.6545 27.7129 11.151 27.3721 11.4829L21.5931 17.1117L22.957 25.0637C23.0374 25.5327 22.8446 26.0067 22.4596 26.2863C22.0747 26.566 21.5643 26.6028 21.1432 26.3813L14 22.6248L6.85679 26.3813C6.43564 26.6028 5.92528 26.566 5.54031 26.2863C5.15534 26.0067 4.96253 25.5327 5.04296 25.0637L6.40682 17.1117L0.627809 11.4829C0.287037 11.151 0.164196 10.6545 0.310918 10.202C0.45764 9.74945 0.84849 9.41944 1.31919 9.35064L9.30715 8.18308L12.8791 0.94672C13.0897 0.52009 13.5242 0.25 14 0.25ZM14 4.32407L11.2584 9.87828C11.0764 10.2468 10.725 10.5024 10.3183 10.5619L4.18549 11.4583L8.62214 15.7796C8.91698 16.0667 9.05156 16.4806 8.98199 16.8863L7.9352 22.9896L13.4182 20.1062C13.7824 19.9146 14.2176 19.9146 14.5818 20.1062L20.0647 22.9896L19.018 16.8863C18.9484 16.4806 19.083 16.0667 19.3778 15.7796L23.8145 11.4583L17.6817 10.5619C17.275 10.5024 16.9235 10.2468 16.7416 9.87828L14 4.32407Z" fill="#FFB800"/>
</svg>
