<svg width="27" height="10" viewBox="0 0 27 10" fill="none" xmlns="http://www.w3.org/2000/svg">
<path fill-rule="evenodd" clip-rule="evenodd" d="M6.69891 9.17967H4.45742L2.77658 2.60831C2.6968 2.30602 2.52741 2.03879 2.27823 1.91284C1.65639 1.59632 0.971158 1.34442 0.223633 1.21737V0.964372H3.83449C4.33284 0.964372 4.7066 1.34442 4.76889 1.78579L5.641 6.52593L7.88139 0.964372H10.0606L6.69891 9.17967ZM11.3065 9.17967H9.18957L10.9327 0.964372H13.0496L11.3065 9.17967ZM15.7883 3.24026C15.8506 2.79779 16.2244 2.54479 16.6604 2.54479C17.3457 2.48127 18.0921 2.60831 18.7151 2.92374L19.0888 1.15495C18.4659 0.901949 17.7806 0.774902 17.1588 0.774902C15.1042 0.774902 13.6091 1.91284 13.6091 3.49216C13.6091 4.69362 14.6681 5.32448 15.4157 5.70452C16.2244 6.08347 16.5359 6.33647 16.4736 6.71541C16.4736 7.28384 15.8506 7.53683 15.2288 7.53683C14.4813 7.53683 13.7337 7.34736 13.0496 7.03084L12.6758 8.80073C13.4234 9.11615 14.2321 9.2432 14.9796 9.2432C17.2834 9.30563 18.7151 8.16878 18.7151 6.46242C18.7151 4.31358 15.7883 4.18763 15.7883 3.24026ZM26.1236 9.17967L24.4428 0.964372H22.6374C22.2636 0.964372 21.8898 1.21737 21.7653 1.59632L18.6528 9.17967H20.8319L21.2669 7.9793H23.9444L24.1936 9.17967H26.1236ZM22.9488 3.17674L23.5707 6.27295H21.8276L22.9488 3.17674Z" fill="#172B85"/>
</svg>
