<svg width="18" height="18" viewBox="0 0 18 18" fill="none" xmlns="http://www.w3.org/2000/svg">
<path d="M9.75 8.3623H5.25" stroke="#4C40ED" stroke-width="1.5" stroke-linecap="round" stroke-linejoin="round"/>
<path d="M1.5 8.36238V4.89738C1.5 3.36738 2.7375 2.12988 4.2675 2.12988H8.4825C10.0125 2.12988 11.25 3.08238 11.25 4.61238" stroke="#4C40ED" stroke-width="1.5" stroke-linecap="round" stroke-linejoin="round"/>
<path d="M13.11 9.1498C12.735 9.5098 12.555 10.0648 12.705 10.6348C12.8925 11.3323 13.5825 11.7748 14.3025 11.7748H15V12.8623C15 14.5198 13.6575 15.8623 12 15.8623H4.5C2.8425 15.8623 1.5 14.5198 1.5 12.8623V7.6123C1.5 5.9548 2.8425 4.6123 4.5 4.6123H12C13.65 4.6123 15 5.9623 15 7.6123V8.69977H14.19C13.77 8.69977 13.3875 8.8648 13.11 9.1498Z" stroke="#4C40ED" stroke-width="1.5" stroke-linecap="round" stroke-linejoin="round"/>
<path d="M16.5002 9.46521V11.0102C16.5002 11.4302 16.1551 11.7752 15.7276 11.7752H14.2801C13.4701 11.7752 12.7277 11.1827 12.6602 10.3727C12.6152 9.90023 12.7951 9.45772 13.1101 9.15022C13.3876 8.86522 13.7701 8.7002 14.1901 8.7002H15.7276C16.1551 8.7002 16.5002 9.04521 16.5002 9.46521Z" stroke="#4C40ED" stroke-width="1.5" stroke-linecap="round" stroke-linejoin="round"/>
</svg>
