<svg width="16" height="16" viewBox="0 0 16 16" fill="none" xmlns="http://www.w3.org/2000/svg">
<path d="M13.98 10.7202C13.82 12.5002 12.5334 13.6668 10.6667 13.6668H4.66671C2.82671 13.6668 1.33337 12.1735 1.33337 10.3335V5.66683C1.33337 3.8535 2.42671 2.58683 4.12671 2.3735C4.30004 2.34683 4.48004 2.3335 4.66671 2.3335H10.6667C10.84 2.3335 11.0067 2.34016 11.1667 2.36683C12.76 2.5535 13.84 3.66683 13.98 5.28016C14 5.4735 13.84 5.6335 13.6467 5.6335H12.6134C11.9734 5.6335 11.38 5.88016 10.9534 6.32016C10.4467 6.8135 10.1934 7.50683 10.2534 8.20016C10.36 9.4135 11.4267 10.3668 12.6934 10.3668H13.6467C13.84 10.3668 14 10.5268 13.98 10.7202Z" fill="#28283C"/>
<path d="M14.6666 7.3133V8.68663C14.6666 9.0533 14.3733 9.3533 13.9999 9.36663H12.6933C11.9733 9.36663 11.3133 8.83997 11.2533 8.11997C11.2133 7.69997 11.3733 7.30663 11.6533 7.0333C11.8999 6.77997 12.2399 6.6333 12.6133 6.6333H13.9999C14.3733 6.64663 14.6666 6.94663 14.6666 7.3133Z" fill="#28283C"/>
</svg>
