<svg width="18" height="18" viewBox="0 0 18 18" fill="none" xmlns="http://www.w3.org/2000/svg">
<path d="M10.6963 11.5789H6.94629" stroke="#6DCC76" stroke-width="1.5" stroke-miterlimit="10" stroke-linecap="round" stroke-linejoin="round"/>
<path d="M8.82129 9.74854V13.4985" stroke="#6DCC76" stroke-width="1.5" stroke-miterlimit="10" stroke-linecap="round" stroke-linejoin="round"/>
<path d="M9.49473 1.8886L9.47223 1.9411L7.29723 6.9886H5.15973C4.64973 6.9886 4.16223 7.0936 3.71973 7.2811L5.03223 4.1461L5.06223 4.0711L5.11473 3.9511C5.12973 3.9061 5.14473 3.8611 5.16723 3.8236C6.14973 1.5511 7.25973 1.0336 9.49473 1.8886Z" stroke="#6DCC76" stroke-width="1.5" stroke-linecap="round" stroke-linejoin="round"/>
<path d="M13.5379 7.13867C13.2004 7.03367 12.8403 6.98867 12.4803 6.98867H7.29785L9.47285 1.94117L9.49535 1.88867C9.60785 1.92617 9.71285 1.97867 9.82535 2.02367L11.4829 2.72117C12.4054 3.10367 13.0504 3.50117 13.4404 3.98117C13.5154 4.07117 13.5754 4.15367 13.6279 4.25117C13.6954 4.35617 13.7479 4.46117 13.7779 4.57367C13.8079 4.64117 13.8304 4.70867 13.8454 4.76867C14.0479 5.39867 13.9279 6.17117 13.5379 7.13867Z" stroke="#6DCC76" stroke-width="1.5" stroke-linecap="round" stroke-linejoin="round"/>
<path d="M16.1413 10.6488V12.1113C16.1413 12.2613 16.1338 12.4113 16.1263 12.5613C15.9838 15.1788 14.5213 16.4988 11.7463 16.4988H5.89629C5.71629 16.4988 5.53629 16.4838 5.36379 16.4613C2.97879 16.3038 1.70379 15.0288 1.54629 12.6438C1.52379 12.4713 1.50879 12.2913 1.50879 12.1113V10.6488C1.50879 9.14127 2.42379 7.84377 3.72879 7.28127C4.17879 7.09377 4.65879 6.98877 5.16879 6.98877H12.4888C12.8563 6.98877 13.2163 7.04127 13.5463 7.13877C15.0388 7.59627 16.1413 8.99127 16.1413 10.6488Z" stroke="#6DCC76" stroke-width="1.5" stroke-linecap="round" stroke-linejoin="round"/>
<path d="M5.0325 4.14624L3.72 7.28124C2.415 7.84374 1.5 9.14124 1.5 10.6487V8.45124C1.5 6.32124 3.015 4.54374 5.0325 4.14624Z" stroke="#6DCC76" stroke-width="1.5" stroke-linecap="round" stroke-linejoin="round"/>
<path d="M16.1389 8.45074V10.6482C16.1389 8.99824 15.0439 7.59574 13.5439 7.14574C13.9339 6.17074 14.0464 5.40574 13.8589 4.76824C13.8439 4.70074 13.8214 4.63324 13.7914 4.57324C15.1864 5.29324 16.1389 6.77074 16.1389 8.45074Z" stroke="#6DCC76" stroke-width="1.5" stroke-linecap="round" stroke-linejoin="round"/>
</svg>
