<svg width="24" height="25" viewBox="0 0 24 25" fill="none" xmlns="http://www.w3.org/2000/svg">
<g clip-path="url(#clip0_7170_281718)">
<path d="M6.9 20.8305C8.4 21.7305 10.2 22.2305 12 22.2305C17.5 22.2305 22 17.7305 22 12.2305C22 6.73047 17.5 2.23047 12 2.23047C6.5 2.23047 2 6.73047 2 12.2305C2 14.0305 2.5 15.7305 3.3 17.2305L2.44044 20.5365C2.24572 21.2854 2.93892 21.9622 3.68299 21.7496L6.9 20.8305Z" stroke="#FF008A" stroke-miterlimit="10" stroke-linecap="round" stroke-linejoin="round"/>
<path d="M16.5 15.079C16.5 15.241 16.4639 15.4075 16.3873 15.5695C16.3107 15.7315 16.2116 15.8845 16.0809 16.0285C15.86 16.2715 15.6167 16.447 15.3418 16.5595C15.0714 16.672 14.7784 16.7305 14.4629 16.7305C14.0033 16.7305 13.512 16.6225 12.9937 16.402C12.4755 16.1815 11.9572 15.8845 11.4434 15.511C10.9251 15.133 10.4339 14.7145 9.9652 14.251C9.501 13.783 9.08187 13.2925 8.70781 12.7795C8.33826 12.2665 8.04081 11.7535 7.82449 11.245C7.60816 10.732 7.5 10.2415 7.5 9.77347C7.5 9.46747 7.55408 9.17497 7.66224 8.90497C7.77041 8.63047 7.94166 8.37847 8.18052 8.15347C8.46895 7.86997 8.78443 7.73047 9.11793 7.73047C9.24412 7.73047 9.37031 7.75747 9.48297 7.81147C9.60015 7.86547 9.70381 7.94647 9.78493 8.06347L10.8305 9.53497C10.9116 9.64747 10.9702 9.75097 11.0108 9.84997C11.0513 9.94447 11.0739 10.039 11.0739 10.1245C11.0739 10.2325 11.0423 10.3405 10.9792 10.444C10.9206 10.5475 10.835 10.6555 10.7268 10.7635L10.3843 11.119C10.3348 11.1685 10.3122 11.227 10.3122 11.299C10.3122 11.335 10.3167 11.3665 10.3257 11.4025C10.3393 11.4385 10.3528 11.4655 10.3618 11.4925C10.4429 11.641 10.5826 11.8345 10.7809 12.0685C10.9837 12.3025 11.2 12.541 11.4344 12.7795C11.6778 13.018 11.9121 13.2385 12.151 13.441C12.3853 13.639 12.5791 13.774 12.7323 13.855C12.7549 13.864 12.7819 13.8775 12.8135 13.891C12.8495 13.9045 12.8856 13.909 12.9261 13.909C13.0028 13.909 13.0613 13.882 13.1109 13.8325L13.4534 13.495C13.5661 13.3825 13.6743 13.297 13.7779 13.243C13.8816 13.18 13.9852 13.1485 14.0979 13.1485C14.1835 13.1485 14.2737 13.1665 14.3728 13.207C14.472 13.2475 14.5756 13.306 14.6883 13.3825L16.18 14.44C16.2972 14.521 16.3783 14.6155 16.4279 14.728C16.473 14.8405 16.5 14.953 16.5 15.079Z" stroke="#FF008A" stroke-miterlimit="10"/>
</g>
<defs>
<clipPath id="clip0_7170_281718">
<rect width="24" height="24" fill="white" transform="translate(0 0.230469)"/>
</clipPath>
</defs>
</svg>
