<svg width="49" height="69" viewBox="0 0 49 69" fill="none" xmlns="http://www.w3.org/2000/svg">
<path d="M9.32482 46.6043L22.0353 39.922V53.0889H26.7902V39.922L39.5006 46.6043L36.619 29.8038L48.8254 17.9058L31.9566 15.4545L24.4128 0.168945L16.8688 15.4545L0 17.9058L12.2064 29.8038L9.32482 46.6043Z" fill="#FFDA44"/>
<path d="M15.3262 22.8854L21.6045 21.973L24.4122 16.2842L27.2198 21.973L33.4979 22.8854L28.955 27.3137L30.0274 33.5664L24.4122 30.6141L18.7969 33.5664L19.8692 27.3137L15.3262 22.8854Z" fill="#FF9811"/>
<path d="M37.8843 64.1829V50.7109H10.9404V64.1829H6.18555V68.9376H42.639V64.1829H37.8843Z" fill="#FF9811"/>
<path d="M42.64 64.1826H6.18652V68.9374H42.64V64.1826Z" fill="#A2001D"/>
<path d="M29.1678 59.4277H19.6582V64.1825H29.1678V59.4277Z" fill="#FFDA44"/>
</svg>
