<svg width="50" height="51" viewBox="0 0 50 51" fill="none" xmlns="http://www.w3.org/2000/svg">
<g clip-path="url(#clip0_7169_259166)">
<path d="M22.1452 7.9209H4.429C3.07002 7.9209 1.96826 9.02256 1.96826 10.3816V15.9589C1.96826 17.318 3.07002 18.4196 4.429 18.4196H22.1451C23.5041 18.4196 24.6059 17.318 24.6059 15.9589V10.3816C24.6059 9.02266 23.5041 7.9209 22.1452 7.9209Z" fill="#F7DC4D"/>
<path d="M13.2874 44.7751C11.9284 44.7751 10.8267 43.6734 10.8267 42.3144V16.3963C10.8267 15.0372 11.9284 13.9355 13.2874 13.9355C14.6464 13.9355 15.7481 15.0372 15.7481 16.3963V42.3143C15.748 43.6733 14.6464 44.7751 13.2874 44.7751Z" fill="#203066"/>
<path d="M48.3595 23.24H29.4588C28.5528 23.24 27.8184 22.5056 27.8184 21.5996C27.8184 15.4841 32.7937 10.5088 38.9092 10.5088C45.0246 10.5088 49.9999 15.4841 49.9999 21.5996C49.9999 22.5056 49.2654 23.24 48.3595 23.24ZM31.2726 19.9591H46.5456C45.79 16.4376 42.653 13.7896 38.9092 13.7896C35.1653 13.7896 32.0282 16.4375 31.2726 19.9591Z" fill="#203066"/>
<path d="M22.1451 7.9209H13.2959V18.4195H22.1451C23.5041 18.4195 24.6059 17.3179 24.6059 15.9588V10.3816C24.6058 9.02266 23.504 7.9209 22.1451 7.9209Z" fill="#EDA637"/>
<path d="M13.2871 13.9355V44.7749C14.6461 44.7749 15.7479 43.6732 15.7479 42.3142V16.3962C15.7478 15.0373 14.6461 13.9355 13.2871 13.9355Z" fill="#203066"/>
<path d="M49.5766 20.5156C49.2653 20.1635 48.8178 19.9619 48.3478 19.9619H29.471C29.001 19.9619 28.5534 20.1636 28.2422 20.5156C27.9308 20.8678 27.7854 21.3365 27.8429 21.8029L30.463 43.061C30.5644 43.8832 31.2628 44.5008 32.0912 44.5008H45.7275C46.5558 44.5008 47.2543 43.8832 47.3557 43.061L49.9759 21.8029C50.0334 21.3365 49.888 20.8678 49.5766 20.5156Z" fill="#FF008A"/>
<path d="M49.5767 20.5156C49.2653 20.1635 48.8179 19.9619 48.3479 19.9619H38.8135V44.501H45.7276C46.556 44.501 47.2545 43.8834 47.3559 43.0612L49.9761 21.8031C50.0335 21.3365 49.8881 20.8678 49.5767 20.5156Z" fill="#FF008A"/>
<path d="M29.6704 36.6303H48.1484L48.4678 34.0391H29.3511L29.6704 36.6303Z" fill="#FF008A"/>
<path d="M47.6579 40.6108L47.9773 38.0195H29.8418L30.1611 40.6108H47.6579Z" fill="#FF008A"/>
<path d="M38.8135 34.0391V36.6303H48.1484L48.4678 34.0391H38.8135Z" fill="#203066"/>
<path d="M38.8135 38.0195V40.6108H47.6577L47.9771 38.0195H38.8135Z" fill="#203066"/>
<path d="M43.1829 21.4912H34.4438C33.5955 21.4912 32.9077 20.8034 32.9077 19.9551C32.9077 19.1067 33.5955 18.4189 34.4438 18.4189H43.1829C44.0312 18.4189 44.719 19.1067 44.719 19.9551C44.719 20.8036 44.0312 21.4912 43.1829 21.4912Z" fill="#67D1D3"/>
<path d="M41.6565 26.876C40.8722 26.876 40.2363 26.2401 40.2363 25.4558V19.9551H43.0769V25.4558C43.0769 26.2399 42.441 26.876 41.6565 26.876Z" fill="#67D1D3"/>
<path d="M37.9593 23.7944C37.1749 23.7944 36.5391 23.1586 36.5391 22.3742V19.4131H39.3796V22.3741C39.3796 23.1586 38.7436 23.7944 37.9593 23.7944Z" fill="#67D1D3"/>
<path d="M2.46074 13.9355H24.1138C25.4728 13.9355 26.5745 15.0372 26.5745 16.3962C26.5745 17.7553 25.4728 18.8569 24.1138 18.8569H2.46074C1.10176 18.8569 0 17.7553 0 16.3963C0 15.0372 1.10166 13.9355 2.46074 13.9355Z" fill="#203066"/>
<path d="M2.46074 18.8569H13.2783V13.9355H2.46074C1.10176 13.9355 0 15.0372 0 16.3963C0 17.7554 1.10166 18.8569 2.46074 18.8569Z" fill="#203066" fill-opacity="0.6"/>
<path d="M15.4449 41.2951H10.9933C10.5898 41.2951 10.2627 40.968 10.2627 40.5646V34.3468C10.2627 33.9434 10.5898 33.6162 10.9933 33.6162H15.4449C15.8483 33.6162 16.1755 33.9434 16.1755 34.3468V40.5646C16.1754 40.968 15.8483 41.2951 15.4449 41.2951Z" fill="#C6C5CA"/>
<path d="M15.445 33.6162H13.2871V41.2952H15.445C15.8484 41.2952 16.1756 40.9681 16.1756 40.5646V34.3468C16.1755 33.9433 15.8485 33.6162 15.445 33.6162Z" fill="#8A8A91"/>
</g>
<defs>
<clipPath id="clip0_7169_259166">
<rect width="50" height="50" fill="white" transform="translate(0 0.347656)"/>
</clipPath>
</defs>
</svg>
