<svg width="51" height="51" viewBox="0 0 51 51" fill="none" xmlns="http://www.w3.org/2000/svg">
<g clip-path="url(#clip0_7169_258846)">
<path d="M13.9281 1.62207H12.4712C6.14424 1.62207 0.99707 6.76924 0.99707 13.1008C0.99707 16.1655 2.19043 19.0469 4.35771 21.2139L6.7958 18.7758C5.28008 17.2601 4.44531 15.2447 4.44531 13.0962C4.44531 8.67051 8.04551 5.07031 12.4712 5.07031H13.9281C27.7133 5.07031 38.9281 16.2852 38.9281 30.0703V32.6565H42.3764V30.0703C42.3764 14.3839 29.6146 1.62207 13.9281 1.62207Z" fill="#203066"/>
<path d="M3.28262 20.6174L6.18643 25.6853L11.4499 20.4218L6.38203 17.518C6.21318 17.4212 6.00059 17.4497 5.86299 17.5872L3.35176 20.0984C3.21426 20.236 3.18594 20.4486 3.28262 20.6174Z" fill="#626262"/>
<path d="M18.2385 49.8976H5.30742C3.8791 49.8976 2.72119 48.7396 2.72119 47.3113V32.6562C2.72119 24.5623 9.28252 18.001 17.3764 18.001H21.6867C23.115 18.001 24.2729 19.1589 24.2729 20.5872V43.8631C24.2729 47.1958 21.5712 49.8976 18.2385 49.8976Z" fill="#FF008A" fill-opacity="0.42"/>
<path d="M6.16943 47.3113V39.5527H2.72119V47.3113C2.72119 48.7396 3.8791 49.8976 5.30742 49.8976H8.75566C7.32725 49.8976 6.16943 48.7396 6.16943 47.3113Z" fill="#E7E7E7"/>
<path d="M14.7903 48.1738H6.32812C6.68437 49.176 7.63154 49.8979 8.75596 49.8979H14.7904V48.1738H14.7903Z" fill="#E7E7E7"/>
<path d="M42.3763 45.5879H38.928C38.452 45.5879 38.0659 45.9739 38.0659 46.45V48.1741H43.2384V46.45C43.2384 45.9738 42.8523 45.5879 42.3763 45.5879Z" fill="#203066"/>
<path d="M21.6868 18.001H20.8247V40.4147H24.2729V20.5872C24.273 19.1588 23.1151 18.001 21.6868 18.001Z" fill="#FF008A"/>
<path d="M17.3763 50.7594C21.6612 50.7594 25.1349 47.2857 25.1349 43.0008C25.1349 38.7158 21.6612 35.2422 17.3763 35.2422C13.0913 35.2422 9.61768 38.7158 9.61768 43.0008C9.61768 47.2857 13.0913 50.7594 17.3763 50.7594Z" fill="#626262"/>
<path d="M17.3766 48.174C20.2332 48.174 22.549 45.8582 22.549 43.0016C22.549 40.1449 20.2332 37.8291 17.3766 37.8291C14.5199 37.8291 12.2041 40.1449 12.2041 43.0016C12.2041 45.8582 14.5199 48.174 17.3766 48.174Z" fill="#E7E7E7"/>
<path d="M42.3765 31.7949H38.9282V45.588H42.3765V31.7949Z" fill="#D7DEED"/>
<path d="M7.20713 27.3087C8.22422 25.2074 9.92715 23.5046 12.0283 22.4875C12.95 22.0414 13.9445 21.7231 14.9908 21.5646C15.8553 21.4335 16.5142 20.7284 16.5142 19.854V18.0273C8.82178 18.4738 2.72119 24.8523 2.72119 32.6566V41.2773H4.44531C5.39746 41.2773 6.16943 40.5054 6.16943 39.5532V31.7946C6.16953 30.1859 6.54922 28.668 7.20713 27.3087Z" fill="#E7E7E7"/>
<path d="M38.0662 47.3115H48.411C49.8394 47.3115 50.9973 48.4694 50.9973 49.8978C50.9973 50.3738 50.6112 50.7599 50.1352 50.7599H38.0662C37.5901 50.7599 37.2041 50.3738 37.2041 49.8978V48.1736C37.2042 47.6975 37.5901 47.3115 38.0662 47.3115Z" fill="#626262"/>
<path d="M6.32813 48.1738H2.87988C3.23613 49.176 4.1833 49.8979 5.30771 49.8979H8.75596C7.63144 49.898 6.68438 49.1761 6.32813 48.1738Z" fill="#626262"/>
</g>
<defs>
<clipPath id="clip0_7169_258846">
<rect width="50" height="50" fill="white" transform="translate(0.99707 0.62207)"/>
</clipPath>
</defs>
</svg>
