<svg width="36" height="48" viewBox="0 0 36 48" fill="none" xmlns="http://www.w3.org/2000/svg">
<g clip-path="url(#clip0_4638_218260)">
<path d="M28.1161 29.8659C28.1036 31.8806 28.1381 33.8981 28.0481 35.909C27.8576 40.1465 26.5422 44.0503 24.2426 47.64C24.1669 47.7581 24.0951 47.88 24.0214 48H7.93758C7.30475 47.2622 6.64321 46.5469 6.0439 45.7837C4.14926 43.3687 2.71512 40.7362 2.04783 37.7278C1.4198 34.8928 0.721875 32.0737 0.0737349 29.2434C-0.246027 27.8447 0.499765 26.85 1.94731 26.6587C2.79267 26.5472 3.6026 26.5631 4.32063 27.0984C4.87973 27.5147 5.19567 28.0715 5.35172 28.7344C5.8304 30.7706 6.3177 32.8059 6.80309 34.8403C6.84043 34.9978 6.89021 35.1515 6.93425 35.3072C6.97446 35.3034 7.01563 35.2997 7.05584 35.2959V34.7681C7.05584 27.6609 7.05488 20.5537 7.05679 13.4465C7.05775 12.12 7.74897 11.1365 8.90548 10.7925C10.6412 10.2759 12.3041 11.5097 12.3166 13.3565C12.3348 16.0275 12.3214 18.6994 12.3214 21.3703V22.0153C12.9877 20.6784 14.0111 19.935 15.541 20.2753C17.0345 20.6081 17.6041 21.7087 17.6051 23.1815C18.4945 21.6262 19.4547 21.0834 20.7635 21.359C22.1105 21.6431 22.6878 22.4822 22.8917 24.5231C22.9597 24.3853 22.9999 24.3122 23.0334 24.2372C23.5609 23.0625 24.7184 22.4259 25.9199 22.65C27.2267 22.8937 28.095 23.8903 28.1122 25.2272C28.1333 26.7731 28.1247 28.32 28.1161 29.8659Z" fill="white"/>
<path d="M35.9876 14.1412C35.977 16.1334 34.3735 17.7075 32.3333 17.7225C29.3674 17.745 26.4005 17.745 23.4336 17.7216C21.4164 17.7066 19.8166 16.1541 19.8013 14.1741C19.7736 10.6444 19.7783 7.11469 19.7984 3.585C19.809 1.86188 20.9846 0.484688 22.6993 0.088125C22.7912 0.0675 22.8793 0.03 22.9683 0H32.8292C33.0714 0.073125 33.3165 0.136875 33.5539 0.22125C34.9862 0.729375 35.9799 2.05688 35.9866 3.55125C36.0029 7.08094 36.0058 10.6116 35.9876 14.1412Z" fill="white"/>
<path d="M17.7822 14.205C17.7717 15.7547 16.6286 17.1834 15.1523 17.5322V17.0287C15.1504 15.7162 15.1782 14.4037 15.1389 13.0931C15.0661 10.65 13.3754 8.62969 10.9705 8.05406C8.59719 7.485 6.14824 8.51906 4.92185 10.6144C4.44412 11.43 4.20861 12.3131 4.20573 13.2534C4.2019 14.5341 4.20382 15.8147 4.20382 17.0953V17.5697C3.02051 17.1806 2.22206 16.4644 1.82858 15.3769C1.65721 14.9034 1.58637 14.3709 1.5835 13.8647C1.56243 10.5375 1.56818 7.21031 1.57392 3.88312C1.57775 1.87594 2.59065 0.598125 4.56666 0.073125C4.60879 0.061875 4.64421 0.0253125 4.6825 0H14.6392C14.8938 0.0815625 15.1561 0.145312 15.4022 0.246562C16.8804 0.85875 17.7487 1.95844 17.7726 3.52125C17.8262 7.08187 17.8071 10.6434 17.7822 14.205Z" fill="white"/>
</g>
<defs>
<clipPath id="clip0_4638_218260">
<rect width="36" height="48" fill="white"/>
</clipPath>
</defs>
</svg>
