<svg width="74" height="85" viewBox="0 0 74 85" fill="none" xmlns="http://www.w3.org/2000/svg">
<path d="M21.2651 23.1187H29.1239C29.6143 23.1187 30.0847 22.9239 30.4314 22.577C30.7782 22.2302 30.973 21.7598 30.973 21.2693C30.973 20.7788 30.7782 20.3084 30.4314 19.9616C30.0847 19.6148 29.6143 19.4199 29.1239 19.4199H21.2651C20.7747 19.4199 20.3044 19.6148 19.9576 19.9616C19.6108 20.3084 19.416 20.7788 19.416 21.2693C19.416 21.7598 19.6108 22.2302 19.9576 22.577C20.3044 22.9239 20.7747 23.1187 21.2651 23.1187Z" fill="#3D3D63"/>
<path d="M49.4639 66.5801H44.2124C43.722 66.5801 43.2517 66.7749 42.9049 67.1218C42.5581 67.4686 42.3633 67.939 42.3633 68.4295C42.3633 68.92 42.5581 69.3904 42.9049 69.7372C43.2517 70.084 43.722 70.2789 44.2124 70.2789H49.4639C49.9543 70.2789 50.4247 70.084 50.7714 69.7372C51.1182 69.3904 51.313 68.92 51.313 68.4295C51.313 67.939 51.1182 67.4686 50.7714 67.1218C50.4247 66.7749 49.9543 66.5801 49.4639 66.5801Z" fill="#3D3D63"/>
<path d="M35.8362 66.5801H21.2651C20.7747 66.5801 20.3044 66.7749 19.9576 67.1218C19.6108 67.4686 19.416 67.939 19.416 68.4295C19.416 68.92 19.6108 69.3904 19.9576 69.7372C20.3044 70.084 20.7747 70.2789 21.2651 70.2789H35.8362C36.3266 70.2789 36.797 70.084 37.1438 69.7372C37.4905 69.3904 37.6854 68.92 37.6854 68.4295C37.6854 67.939 37.4905 67.4686 37.1438 67.1218C36.797 66.7749 36.3266 66.5801 35.8362 66.5801Z" fill="#3D3D63"/>
<path d="M72.3932 67.5232L67.7889 62.9367V13.2803C67.7889 12.3599 67.6076 11.4484 67.2554 10.598C66.9032 9.74762 66.387 8.97493 65.7362 8.32407C65.0854 7.6732 64.3129 7.15691 63.4626 6.80466C62.6123 6.45241 61.701 6.27112 60.7807 6.27112H15.7175V1.85105C15.7175 1.36056 15.5227 0.890162 15.176 0.543332C14.8292 0.196503 14.3588 0.00165566 13.8684 0.00165566H7.19309C5.34316 -0.0384369 3.55171 0.650983 2.2058 1.92097C0.859883 3.19095 0.0675583 4.93954 0 6.78895V77.9908C0 79.8497 0.73836 81.6326 2.05265 82.947C3.36694 84.2615 5.14949 85 7.00818 85H60.7807C62.6394 85 64.4219 84.2615 65.7362 82.947C67.0505 81.6326 67.7889 79.8497 67.7889 77.9908V76.8626C68.9323 77.0005 70.0903 76.7789 71.1022 76.2288C72.114 75.6786 72.9296 74.8271 73.4357 73.7924C73.9418 72.7576 74.1133 71.591 73.9265 70.4544C73.7397 69.3178 73.2038 68.2674 72.3932 67.4492V67.5232ZM3.69825 6.78895C3.74609 5.90741 4.1402 5.08047 4.79475 4.48817C5.44931 3.89587 6.31131 3.58616 7.19309 3.62648H12.0193V71.1295H7.19309C5.97433 71.1268 4.7738 71.4254 3.69825 71.9987V6.78895ZM60.7807 81.3752H7.00818C6.58322 81.363 6.16482 81.2673 5.77687 81.0934C5.38891 80.9196 5.03899 80.671 4.74708 80.3619C4.45518 80.0527 4.22702 79.6891 4.07561 79.2918C3.9242 78.8945 3.85253 78.4713 3.86467 78.0463C3.87681 77.6212 3.97253 77.2028 4.14637 76.8148C4.32021 76.4268 4.56876 76.0768 4.87784 75.7848C5.18691 75.4929 5.55045 75.2647 5.9477 75.1133C6.34495 74.9618 6.76814 74.8901 7.19309 74.9023H13.8684C14.3588 74.9023 14.8292 74.7074 15.176 74.3606C15.5227 74.0138 15.7175 73.5434 15.7175 73.0529V9.96991H60.7807C61.2154 9.96991 61.6458 10.0555 62.0473 10.2219C62.4489 10.3883 62.8138 10.6321 63.1212 10.9395C63.4285 11.2469 63.6723 11.6119 63.8387 12.0135C64.005 12.4151 64.0906 12.8456 64.0906 13.2803V59.2379L61.9271 57.0741C61.7552 56.9007 61.5507 56.7632 61.3254 56.6693C61.1001 56.5754 60.8584 56.527 60.6143 56.527C60.3702 56.527 60.1285 56.5754 59.9031 56.6693C59.6778 56.7632 59.4733 56.9007 59.3014 57.0741L58.007 58.3687L55.0669 55.4281C56.8846 53.3408 58.2573 50.9044 59.101 48.268C59.9446 45.6317 60.2414 42.8509 59.9732 40.0959C59.7051 37.3408 58.8776 34.6695 57.5414 32.2454C56.2052 29.8213 54.3884 27.6955 52.2022 25.9979C50.0161 24.3004 47.5066 23.067 44.8273 22.3731C42.148 21.6793 39.3553 21.5396 36.6202 21.9626C33.885 22.3856 31.265 23.3624 28.9204 24.8333C26.5758 26.3041 24.556 28.2381 22.9846 30.5167H21.2649C20.7745 30.5167 20.3042 30.7116 19.9574 31.0584C19.6106 31.4052 19.4158 31.8756 19.4158 32.3661C19.4062 32.7962 19.5469 33.2162 19.8135 33.5537C20.0801 33.8913 20.4561 34.1253 20.8766 34.2155C19.3144 37.6937 18.7667 41.5427 19.2967 45.3187C19.8267 49.0947 21.4128 52.644 23.8722 55.5576H21.2649C20.7745 55.5576 20.3042 55.7524 19.9574 56.0993C19.6106 56.4461 19.4158 56.9165 19.4158 57.407C19.4158 57.8975 19.6106 58.3679 19.9574 58.7147C20.3042 59.0615 20.7745 59.2564 21.2649 59.2564H27.9403C31.5933 61.7367 35.954 62.9609 40.364 62.7441C44.7739 62.5272 48.9936 60.8811 52.3857 58.0543L55.3258 60.9948L54.0314 62.3079C53.687 62.6544 53.4937 63.1231 53.4937 63.6117C53.4937 64.1003 53.687 64.569 54.0314 64.9155L64.0351 74.9393V78.0648C64.0353 78.9332 63.6942 79.7669 63.0854 80.3862C62.4766 81.0054 61.6489 81.3606 60.7807 81.3752ZM22.7997 42.4268C22.7997 39.1349 23.7757 35.9168 25.6044 33.1796C27.4331 30.4424 30.0322 28.309 33.0731 27.0493C36.1141 25.7895 39.4603 25.4599 42.6885 26.1021C45.9168 26.7443 48.8821 28.3296 51.2095 30.6574C53.537 32.9851 55.122 35.9509 55.7641 39.1796C56.4063 42.4084 56.0767 45.7551 54.8171 48.7965C53.5575 51.8379 51.4244 54.4374 48.6877 56.2663C45.9509 58.0952 42.7333 59.0714 39.4418 59.0714C35.028 59.0714 30.7951 57.3178 27.6741 54.1963C24.5531 51.0749 22.7997 46.8413 22.7997 42.4268ZM69.7674 72.757C69.421 73.1014 68.9523 73.2948 68.4638 73.2948C67.9753 73.2948 67.5066 73.1014 67.1602 72.757L57.9146 63.51L60.5218 60.9023L69.675 70.0569C69.8658 70.2234 70.0203 70.4274 70.1291 70.6562C70.2378 70.885 70.2984 71.1337 70.3071 71.3869C70.3157 71.64 70.2723 71.8923 70.1795 72.1279C70.0866 72.3636 69.9464 72.5777 69.7674 72.757Z" fill="#3D3D63"/>
<path d="M44.9894 50.3973C44.9894 49.9068 44.7946 49.4364 44.4478 49.0895C44.101 48.7427 43.6307 48.5479 43.1403 48.5479H41.2912V37.5809H44.3792V38.2282C44.3792 38.7187 44.574 39.1891 44.9208 39.5359C45.2676 39.8828 45.7379 40.0776 46.2283 40.0776C46.7187 40.0776 47.1891 39.8828 47.5359 39.5359C47.8826 39.1891 48.0775 38.7187 48.0775 38.2282V35.824C48.0775 35.3335 47.8826 34.8631 47.5359 34.5163C47.1891 34.1695 46.7187 33.9746 46.2283 33.9746H32.6558C32.1653 33.9746 31.695 34.1695 31.3482 34.5163C31.0015 34.8631 30.8066 35.3335 30.8066 35.824V38.2282C30.8066 38.7187 31.0015 39.1891 31.3482 39.5359C31.695 39.8828 32.1653 40.0776 32.6558 40.0776C33.1462 40.0776 33.6165 39.8828 33.9633 39.5359C34.3101 39.1891 34.5049 38.7187 34.5049 38.2282V37.6734H37.5929V48.6403H35.8363C35.5934 48.6403 35.353 48.6882 35.1286 48.7811C34.9043 48.8741 34.7004 49.0103 34.5287 49.182C34.357 49.3537 34.2208 49.5576 34.1279 49.782C34.035 50.0064 33.9871 50.2469 33.9871 50.4897C33.9871 50.7326 34.035 50.9731 34.1279 51.1975C34.2208 51.4218 34.357 51.6257 34.5287 51.7975C34.7004 51.9692 34.9043 52.1054 35.1286 52.1984C35.353 52.2913 35.5934 52.3391 35.8363 52.3391H43.1403C43.3911 52.3394 43.6394 52.2887 43.87 52.1901C44.1005 52.0914 44.3087 51.9468 44.4816 51.7652C44.6546 51.5835 44.7888 51.3686 44.8761 51.1334C44.9634 50.8983 45.002 50.6478 44.9894 50.3973Z" fill="#3D3D63"/>
</svg>
