<svg width="48" height="48" viewBox="0 0 48 48" fill="none" xmlns="http://www.w3.org/2000/svg">
<path d="M37.0175 29.7512C37.0012 28.5475 36.265 27.57 35.1275 27.165C34.3312 26.8813 33.5675 26.985 32.7912 27.355C32.4425 26.535 31.835 26.03 31.015 25.7887C30.2025 25.55 29.4175 25.6613 28.6912 26.0613C27.7375 24.6413 26.45 24.4037 24.9575 24.885V16.8188C29.2537 16.0163 31.7812 13.5013 32.285 9.40375C32.7437 5.68 30.71 1.6025 26.3812 0.37875C25.8162 0.21875 25.2312 0.125 24.6562 0H23.1562C22.5525 0.1425 21.93 0.23 21.35 0.43625C18.1537 1.57125 16.3112 3.90125 15.785 7.18875C15.2512 10.5262 16.4112 13.265 19.1487 15.2925C19.4 15.4787 19.51 15.6513 19.4937 15.975C19.4462 16.895 19.43 17.8175 19.43 18.7388C19.4325 23.69 19.4425 28.6412 19.4487 33.5925C19.4487 33.7637 19.4337 33.9362 19.4212 34.19C19.1212 33.9287 18.91 33.7463 18.7012 33.56C17.485 32.4838 16.2825 31.3913 15.045 30.3388C14.7237 30.0663 14.3187 29.83 13.9137 29.73C12.7875 29.455 11.595 30.0212 10.995 31.0325C10.3875 32.0537 10.5062 33.1862 11.3325 34.1512C13.9425 37.2012 16.5587 40.2438 19.1575 43.3025C19.32 43.495 19.4262 43.7938 19.4337 44.0462C19.4662 45.045 19.4575 46.0462 19.4425 47.045C19.4362 47.4775 19.5662 47.8063 19.9687 48H20.3437C20.74 47.7988 20.8662 47.4725 20.8587 47.0387C20.84 45.945 20.835 44.8512 20.8612 43.7575C20.8712 43.2875 20.7212 42.9312 20.4162 42.5775C17.7425 39.4787 15.0812 36.37 12.4212 33.2588C11.8737 32.62 11.8987 31.9725 12.465 31.4312C13.0012 30.9187 13.5987 30.9275 14.215 31.4662C14.92 32.0837 15.62 32.7088 16.3212 33.33C17.3975 34.2825 18.4762 35.2325 19.5462 36.1912C19.8112 36.43 20.0887 36.57 20.4362 36.4212C20.7925 36.2675 20.8612 35.9525 20.8525 35.6037C20.8475 35.4162 20.8525 35.2287 20.8525 35.0412C20.8475 28.885 20.8437 22.73 20.8412 16.5737C20.8412 16.3713 20.8437 16.1675 20.8675 15.9663C20.9287 15.4613 21.2262 15.1487 21.7025 15.0025C22.7187 14.6875 23.51 15.2775 23.51 16.365C23.515 20.5675 23.5112 24.77 23.5137 28.9725C23.5137 29.5562 23.7412 29.8312 24.2012 29.835C24.655 29.84 24.9062 29.5487 24.9162 28.9862C24.9262 28.3925 24.9112 27.7987 24.93 27.2062C24.9462 26.6812 25.2312 26.3312 25.7175 26.1525C26.675 25.7987 27.51 26.3538 27.535 27.3775C27.555 28.2362 27.535 29.0963 27.5412 29.955C27.5462 30.5125 27.8062 30.8213 28.2437 30.815C28.68 30.8088 28.935 30.4975 28.9437 29.9387C28.9537 29.345 28.935 28.7512 28.9575 28.1575C28.9787 27.5687 29.3637 27.1737 29.945 27.0925C30.9087 26.9587 31.55 27.5025 31.5637 28.485C31.5762 29.39 31.5625 30.2975 31.5687 31.2025C31.5725 31.7913 31.795 32.065 32.2525 32.07C32.71 32.075 32.9587 31.79 32.97 31.2225C32.9812 30.6612 32.9587 30.0975 32.9837 29.5362C33.0162 28.8487 33.4875 28.4188 34.1725 28.41C35.01 28.4 35.605 28.9862 35.6137 29.86C35.6237 31.0312 35.6137 32.2038 35.6187 33.375C35.6212 33.8887 35.885 34.2038 36.3 34.2125C36.7337 34.2225 37.0187 33.8975 37.0212 33.36C37.0262 32.1575 37.0337 30.9537 37.0175 29.7512ZM24.715 15.1637C24.09 13.4737 21.7625 13.0237 20.3787 14.1362C20.3187 14.185 20.255 14.2262 20.1675 14.29C18.57 13.2162 17.5637 11.755 17.185 9.87375C16.5112 6.525 18.3837 3.045 21.5212 1.86875C26.0975 0.15125 31.5987 3.50375 30.8587 9.41875C30.4625 12.5912 28.38 14.6825 25.245 15.335C25.0475 15.375 24.835 15.49 24.715 15.1637Z" fill="#4C40ED"/>
<path d="M47.8113 16.9563C46.9725 12.8475 42.9875 9.89877 38.8563 10.335C34.54 10.79 31.2138 14.4325 31.2475 18.6688C31.2813 23.0938 34.1413 26.425 38.5425 27.0275C42.4238 27.56 46.3138 25.4488 47.5425 21.4025C47.74 20.75 47.85 20.0725 48 19.4063V17.8125C47.9375 17.5275 47.87 17.2425 47.8113 16.9563ZM39.6325 25.7663C35.8425 25.7725 32.6688 22.6163 32.6525 18.825C32.6363 14.8163 35.6875 11.73 39.6425 11.7538C43.615 11.7763 46.5938 14.8013 46.5925 18.8113C46.5913 22.6013 43.4313 25.7588 39.6325 25.7663Z" fill="#4C40ED"/>
<path d="M9.29375 27.1187C4.4925 27.6337 0.70375 24.0749 0.09 19.8587C0.0725 19.7374 0.03125 19.6199 0 19.4999V17.8124C0.21375 17.0499 0.42375 16.2874 0.6425 15.5274C0.68125 15.3937 0.7525 15.2699 0.81375 15.1437C1.09375 14.5687 1.445 14.3787 1.86125 14.5724C2.27875 14.7662 2.35375 15.1649 2.0825 15.7399C1.2925 17.4137 1.195 19.1312 1.775 20.8849C2.79125 23.9524 5.655 25.9574 8.72625 25.7562C12.02 25.5424 14.6362 23.2199 15.25 19.9674C15.765 17.2387 14.5963 14.4949 12.255 12.9337C9.8525 11.3312 6.9475 11.3012 4.58625 12.8449C4.4075 12.9612 4.1675 13.1324 4.00625 13.0899C3.75375 13.0224 3.46 12.8412 3.33625 12.6224C3.155 12.2987 3.35125 11.9987 3.65 11.7874C4.835 10.9462 6.14875 10.4412 7.59625 10.3287C11.9538 9.98992 15.8362 12.9737 16.6462 17.2662C17.5338 21.9687 14.0325 26.6099 9.29375 27.1187Z" fill="#4C40ED"/>
<path d="M35.1263 42.3924C34.245 43.2511 33.845 44.1524 34.0038 45.3586C34.0738 45.8799 33.9963 46.4199 34.0213 46.9499C34.0413 47.3874 33.9325 47.7449 33.5625 47.9999H33.0938C32.71 47.7861 32.5925 47.4586 32.6013 47.0261C32.6238 45.8861 32.6213 44.7449 32.605 43.6049C32.5988 43.2336 32.7175 42.9524 32.9713 42.6861C33.4875 42.1424 34.01 41.6011 34.47 41.0111C35.2225 40.0474 35.5763 38.9249 35.6138 37.7049C35.6263 37.2774 35.785 36.9736 36.24 36.9136C36.7063 36.8524 37.035 37.1899 37.0188 37.7349C36.9675 39.5211 36.4038 41.1461 35.1263 42.3924Z" fill="#4C40ED"/>
<path d="M11.3938 21.4862C10.665 19.5112 9.93626 17.5362 9.16376 15.5787C9.05751 15.31 8.71001 15.1375 8.37876 14.8337C8.05876 15.1487 7.76126 15.3375 7.61626 15.6075C7.38251 16.0425 7.24626 16.5325 7.07001 16.9987C6.51501 18.4725 5.95501 19.9437 5.40626 21.42C5.25126 21.8387 5.43501 22.2525 5.80001 22.3925C6.15251 22.5275 6.58751 22.3887 6.66376 21.9837C6.85126 20.9862 7.49001 20.8575 8.31751 20.975C8.39501 20.9862 8.47501 20.9875 8.55126 20.975C9.34501 20.8512 9.96251 20.9975 10.07 21.9462C10.0713 21.96 10.0838 21.9737 10.0913 21.9875C10.2825 22.3787 10.6525 22.5362 11.02 22.3862C11.3525 22.25 11.535 21.8675 11.3938 21.4862ZM7.62876 19.5275C7.87501 18.8662 8.11501 18.22 8.39126 17.475C8.66501 18.2037 8.90251 18.8375 9.16251 19.5275H7.62876Z" fill="#4C40ED"/>
<path d="M25.8787 7.97118C26.705 6.26868 25.7562 4.73243 23.9025 4.71868C23.435 4.71618 22.9662 4.70743 22.4987 4.72243C21.945 4.73993 21.6937 4.98118 21.69 5.53868C21.68 7.47368 21.68 9.40743 21.6912 11.3424C21.6937 11.8474 21.9762 12.1399 22.475 12.1474C23.2225 12.1587 23.9725 12.1512 24.7187 12.1062C25.3587 12.0674 25.8687 11.7387 26.2575 11.2337C27.0112 10.2537 26.8775 9.07993 25.8787 7.97118ZM23.0937 6.98118C23.1112 6.70743 23.1125 6.20993 23.1787 6.19993C23.5837 6.13993 24.025 6.12243 24.4125 6.23493C24.585 6.28493 24.735 6.66493 24.7575 6.90743C24.7887 7.24243 24.5262 7.45118 24.1962 7.48118C23.8575 7.51118 23.5125 7.48743 23.1137 7.48743C23.105 7.28743 23.085 7.13243 23.0937 6.98118ZM24.6212 10.6899C24.1325 10.7387 23.6362 10.7012 23.1225 10.7012C23.1112 10.5737 23.0937 10.4687 23.0925 10.3624C23.09 9.89743 23.0912 9.43368 23.0912 8.92243C23.6237 8.92243 24.1187 8.88618 24.6062 8.93368C25.0525 8.97743 25.3262 9.37118 25.32 9.83243C25.315 10.2812 25.06 10.6462 24.6212 10.6899Z" fill="#4C40ED"/>
<path d="M42.0175 21.5087C41.1288 22.3949 40.0613 22.6287 38.8688 22.3199C37.1788 21.8812 36.0637 20.4349 36.0725 18.7287C36.0875 15.9774 39.0188 14.1637 41.4225 15.4212C41.5463 15.4862 41.6688 15.5574 41.7813 15.6412C42.115 15.8849 42.21 16.2599 42.0288 16.5837C41.8375 16.9212 41.4275 17.0487 41.0563 16.8287C40.4788 16.4862 39.8875 16.3337 39.2225 16.4999C38.0963 16.7812 37.3988 17.7812 37.49 18.9999C37.5663 20.0262 38.4963 20.9337 39.56 21.0249C40.1388 21.0749 40.63 20.8987 41.0513 20.4949C41.4388 20.1237 41.8175 20.0999 42.1213 20.3987C42.4363 20.7087 42.4038 21.1237 42.0175 21.5087Z" fill="#4C40ED"/>
</svg>
