<svg width="80" height="75" viewBox="0 0 80 75" fill="none" xmlns="http://www.w3.org/2000/svg">
<path d="M10.625 53.4373H21.25C23.9744 53.4373 26.2199 55.4881 26.5268 58.1302L26.5625 58.7498V69.3748C26.5625 72.0993 24.5116 74.3447 21.8695 74.6516L21.25 74.6873H10.625C7.90058 74.6873 5.65512 72.6365 5.34824 69.9944L5.3125 69.3748V58.7498C5.3125 56.0253 7.36336 53.7799 10.0055 53.473L10.625 53.4373H21.25H10.625ZM74.375 58.7498C77.3091 58.7498 79.6875 61.1282 79.6875 64.0623C79.6875 66.9964 77.3091 69.3748 74.375 69.3748H42.5C39.566 69.3748 37.1875 66.9964 37.1875 64.0623C37.1875 61.1282 39.566 58.7498 42.5 58.7498H74.375ZM21.25 58.7498H10.625V69.3748H21.25V58.7498ZM21.25 26.8748C24.184 26.8748 26.5625 29.2533 26.5625 32.1873V42.8123C26.5625 45.7463 24.184 48.1248 21.25 48.1248H10.625C7.69101 48.1248 5.3125 45.7463 5.3125 42.8123V32.1873C5.3125 29.2533 7.69101 26.8748 10.625 26.8748H21.25ZM74.375 32.1873C77.3091 32.1873 79.6875 34.5658 79.6875 37.4998C79.6875 40.2242 77.6367 42.4697 74.9946 42.7766L74.375 42.8123H42.5C39.566 42.8123 37.1875 40.4338 37.1875 37.4998C37.1875 34.7754 39.2384 32.5299 41.8805 32.2231L42.5 32.1873H74.375ZM21.25 32.1873H10.625V42.8123H21.25V32.1873ZM25.3654 1.51368C26.7799 2.9282 26.9085 5.14176 25.7512 6.70156L25.3654 7.14843L12.1143 20.3996C11.367 21.1468 10.3536 21.5666 9.29688 21.5666C8.45151 21.5666 7.63382 21.2979 6.95799 20.8079L6.4795 20.3996L1.167 15.0871C-0.388999 13.5311 -0.388999 11.0083 1.167 9.4523C2.58154 8.03778 4.79506 7.90919 6.35487 9.06653L6.80175 9.4523L9.29688 11.9474L19.7306 1.51368C21.2866 -0.0423168 23.8094 -0.0423221 25.3654 1.51368ZM74.375 5.62481C77.3091 5.62481 79.6875 8.00332 79.6875 10.9373C79.6875 13.6617 77.6367 15.9072 74.9946 16.2141L74.375 16.2498H42.5C39.566 16.2498 37.1875 13.8713 37.1875 10.9373C37.1875 8.21289 39.2384 5.96743 41.8805 5.66055L42.5 5.62481H74.375Z" fill="#203066"/>
</svg>
