<svg width="31" height="48" viewBox="0 0 31 48" fill="none" xmlns="http://www.w3.org/2000/svg">
<g clip-path="url(#clip0_4638_218289)">
<path d="M30.8248 13.2238C29.6844 6.905 26.058 2.7125 19.9732 0.67875C18.9029 0.32125 17.7476 0.22 16.6322 0H14.3791C14.2589 0.0275 14.1387 0.06625 14.0173 0.08C9.7713 0.54875 6.18499 2.32875 3.47116 5.6325C0.533265 9.21 -0.559528 13.345 0.319213 17.9062C0.843703 20.6238 2.03914 23.1138 3.33472 25.5413C6.4053 31.295 10.1819 36.5737 14.2526 41.6525C15.0325 42.6263 15.9688 42.6287 16.7512 41.665C19.3711 38.435 21.8196 35.0788 24.089 31.595C26.222 28.3212 28.1936 24.9562 29.6406 21.3125C30.6746 18.7125 31.3342 16.0525 30.8248 13.2238ZM15.5244 25.3125C10.0792 25.3213 5.64172 20.8913 5.64798 15.4525C5.65549 10.0363 10.083 5.62375 15.5094 5.625C20.9358 5.6275 25.3596 10.0413 25.3633 15.46C25.3658 20.88 20.9483 25.3037 15.5244 25.3125Z" fill="white"/>
<path d="M29.3176 44.1488C27.654 45.6 25.6537 46.3863 23.562 46.97C21.6431 47.5063 19.6853 47.8063 17.6975 47.9225C17.561 47.9313 17.4259 47.9738 17.2894 48H13.7219C12.8707 47.9063 12.0157 47.8313 11.167 47.715C8.37934 47.3338 5.65674 46.6963 3.22331 45.2238C2.39464 44.7213 1.60728 44.0788 0.967627 43.3538C-0.347979 41.86 -0.297909 40.0813 0.973886 38.5425C1.98657 37.3175 3.32846 36.5588 4.75047 35.9213C5.14728 35.7425 5.55911 35.595 5.99848 35.42C6.10613 35.5638 6.20502 35.7 6.30516 35.8325C8.23038 38.3713 10.123 40.935 12.0896 43.4413C13.9434 45.805 17.0716 45.8038 18.9242 43.44C20.8983 40.92 22.8059 38.3475 24.7249 35.785C24.9427 35.4938 25.1067 35.4425 25.4409 35.5763C26.7978 36.1175 28.0972 36.7513 29.2175 37.7063C29.2538 37.7375 29.2901 37.7663 29.3251 37.7975C31.5445 39.7575 31.5483 42.2025 29.3176 44.1488Z" fill="white"/>
<path d="M22.5467 15.4825C22.5405 19.3588 19.3785 22.505 15.4918 22.5C11.6088 22.4938 8.45935 19.3363 8.46436 15.4538C8.46937 11.5763 11.6313 8.43251 15.5193 8.43751C19.4023 8.44251 22.5517 11.6 22.5467 15.4825Z" fill="white"/>
</g>
<defs>
<clipPath id="clip0_4638_218289">
<rect width="31" height="48" fill="white"/>
</clipPath>
</defs>
</svg>
