<svg width="46" height="46" viewBox="0 0 46 46" fill="none" xmlns="http://www.w3.org/2000/svg">
<g clip-path="url(#clip0_4638_218273)">
<path d="M45.655 16.3947C44.5625 10.7309 41.5739 6.3226 36.7633 3.16609C33.9903 1.34766 30.9226 0.329427 27.6093 0.0754688C27.5099 0.0670833 27.4117 0.0263542 27.3134 0H24.7081C24.5931 0.0263542 24.4793 0.0670833 24.3631 0.0754688C22.4094 0.219219 20.5264 0.666042 18.7057 1.3812C9.48698 5.00729 4.31465 14.7452 6.47078 24.4064C8.3059 32.6289 15.3026 38.9539 23.6265 39.8775C28.8108 40.4536 33.5627 39.2533 37.7719 36.1591C42.0267 33.0302 44.6644 28.8398 45.6538 23.6385C45.8011 22.8622 45.8862 22.0752 46 21.293V18.7773C45.8874 17.9831 45.8071 17.1817 45.655 16.3947ZM25.9742 36.9713C16.601 36.9426 8.96591 29.2807 9.03419 19.9729C9.10367 10.5644 16.6921 3.01995 26.0497 3.05469C35.4109 3.08823 42.9898 10.7321 42.9454 20.0927C42.9023 29.4089 35.2696 37.0001 25.9742 36.9713Z" fill="white"/>
<path d="M14.4808 39.5888C13.8016 40.2644 13.144 40.9161 12.4888 41.5701C11.6 42.4578 10.7076 43.3431 9.82355 44.2367C8.91198 45.1591 7.82912 45.7437 6.53903 45.9282C6.48393 45.9365 6.43362 45.9749 6.38091 46H5.03333C4.63204 45.8922 4.22358 45.8072 3.83188 45.6718C-0.0851059 44.3277 -1.29254 39.3492 1.59189 36.376C3.11197 34.8079 4.67397 33.2818 6.218 31.7388C6.28149 31.6753 6.35336 31.6226 6.43721 31.5496C7.43383 33.2099 8.59814 34.7216 9.96609 36.0765C11.3197 37.417 12.823 38.5658 14.4808 39.5888Z" fill="white"/>
<path d="M36.8735 29.1812C35.1414 27.1364 32.9493 25.9037 30.2445 25.4904C30.2445 24.9789 30.2326 24.4746 30.2553 23.9715C30.2601 23.8613 30.3679 23.7355 30.4613 23.654C32.2114 22.1375 33.0715 20.2196 33.008 17.91C32.9732 16.6282 33.0343 15.3105 32.7588 14.0743C32.0269 10.7848 28.891 8.59502 25.4651 8.81304C22.2129 9.02028 19.4099 11.6138 19.053 14.8757C18.8625 16.6115 18.7799 18.3748 19.2279 20.0974C19.5848 21.4654 20.3227 22.6166 21.4008 23.5318C21.6559 23.7487 21.7733 23.9583 21.7494 24.2901C21.7206 24.6747 21.7422 25.064 21.7422 25.4808C19.4016 25.8654 17.1903 26.795 15.1264 29.1369C11.4023 25.2161 9.93731 17.1697 14.9372 11.0028C20.028 4.72335 29.3725 3.95189 35.43 9.33413C41.5691 14.7894 41.6122 23.7247 36.8735 29.1812Z" fill="white"/>
<path d="M30.3704 17.0224C30.3141 17.7508 30.3381 18.4971 30.186 19.2038C29.7224 21.3553 27.7016 22.7712 25.5263 22.5388C23.3845 22.31 21.7004 20.5 21.6656 18.3365C21.6488 17.2476 21.6081 16.1443 21.7531 15.0698C22.0453 12.9088 24.0266 11.3994 26.2714 11.5036C28.3784 11.6018 30.1596 13.3604 30.2926 15.4939C30.3237 16.0006 30.2962 16.5109 30.2962 17.0188C30.3213 17.02 30.3453 17.0212 30.3704 17.0224Z" fill="white"/>
<path d="M34.8946 31.1039C30.102 35.1589 22.3962 35.4811 17.0442 31.0884C18.272 29.5335 19.834 28.5979 21.741 28.2181C22.0237 28.1618 22.05 28.3631 22.1351 28.532C22.9173 30.0821 24.1702 30.9566 25.9095 30.9853C27.7075 31.0165 29.0227 30.1552 29.8217 28.55C29.9762 28.2385 30.1176 28.1894 30.435 28.2589C32.1132 28.629 33.5159 29.452 34.6491 30.741C34.7185 30.8188 34.7856 30.8991 34.8467 30.9841C34.8719 31.0177 34.8802 31.0644 34.8946 31.1039Z" fill="white"/>
<path d="M27.5758 25.1826C27.5387 25.8403 27.5734 26.5602 27.4381 27.2478C27.3003 27.9534 26.5385 28.3751 25.809 28.296C25.0987 28.2205 24.5105 27.6192 24.4446 26.8992C24.4338 26.7806 24.4386 26.6596 24.4374 26.5399V25.1826H27.5758Z" fill="white"/>
</g>
<defs>
<clipPath id="clip0_4638_218273">
<rect width="46" height="46" fill="white"/>
</clipPath>
</defs>
</svg>
