<svg width="85" height="85" viewBox="0 0 85 85" fill="none" xmlns="http://www.w3.org/2000/svg">
<path d="M41.6442 67.35C42.1052 67.35 42.5485 67.147 42.8677 66.7962C43.7543 65.8361 64.6253 42.8507 64.6253 24.7763C64.6253 11.1144 54.3229 0 41.6442 0C28.9655 0 18.6631 11.1142 18.6631 24.7763C18.6631 42.9431 39.5341 65.8363 40.4207 66.8147C40.7398 67.147 41.1832 67.35 41.6442 67.35ZM41.6442 3.54474C52.4432 3.54474 61.2207 13.0712 61.2207 24.7763C61.2207 39.0475 46.1127 57.7498 41.6442 62.9562C37.1756 57.7498 22.0677 39.1399 22.0677 24.7763C22.0677 13.0712 30.8452 3.54474 41.6442 3.54474Z" fill="#203066"/>
<path d="M52.709 25.6991C52.709 19.3297 47.7617 14.1787 41.6441 14.1787C35.5264 14.1787 30.5791 19.3297 30.5791 25.6991C30.5791 32.0686 35.5264 37.2195 41.6441 37.2195C47.7441 37.2195 52.709 32.05 52.709 25.6991ZM33.9837 25.6991C33.9837 21.2867 37.4061 17.7235 41.6441 17.7235C45.882 17.7235 49.3044 21.2867 49.3044 25.6991C49.3044 30.1115 45.882 33.6748 41.6441 33.6748C37.4061 33.6748 33.9837 30.1115 33.9837 25.6991Z" fill="#203066"/>
<path d="M84.8404 82.4704L72.9243 55.9217C72.6405 55.294 72.0377 54.9062 71.3816 54.9062H56.1672C55.2629 54.9062 54.4827 55.6078 54.4117 56.5493C54.3585 57.5648 55.1211 58.4139 56.0962 58.4139H70.353L80.7087 81.4916H69.6791C69.2181 77.2269 66.3277 74.2545 61.0612 72.6483C56.0785 71.1343 49.216 70.7837 41.9457 70.4328C39.2858 70.3035 36.5374 70.1559 33.7533 69.9712C30.2601 69.7128 25.756 68.7896 24.2665 65.7804C22.9898 63.2141 24.1779 59.9463 24.8694 58.4139H27.1037C28.0081 58.4139 28.7882 57.7124 28.8592 56.7709C28.9124 55.7554 28.1499 54.9062 27.1747 54.9062H11.7301C11.0386 54.9062 10.4002 55.3493 10.152 56.0325L0.115387 82.5812C-0.221583 83.4859 0.203993 84.5197 1.07293 84.8705C1.26793 84.9445 1.48072 84.9998 1.69351 84.9998H83.2977C84.2374 84.9998 85 84.2059 85 83.2275C85 82.9689 84.9468 82.7105 84.8404 82.4704ZM4.08737 81.492L12.8117 58.4141H21.2168C20.4011 60.7589 19.7095 64.2482 21.27 67.3867C23.0609 70.9869 27.1927 73.0362 33.5585 73.4978C36.3602 73.7008 39.1264 73.8301 41.8218 73.9594C48.8792 74.3102 55.5466 74.6426 60.1394 76.0456C63.9164 77.1902 65.8137 78.8888 66.257 81.492H4.08737Z" fill="#203066"/>
</svg>
